%TF.GenerationSoftware,KiCad,Pcbnew,7.0.7*%
%TF.CreationDate,2024-02-25T16:10:36-08:00*%
%TF.ProjectId,Connector-board,436f6e6e-6563-4746-9f72-2d626f617264,rev?*%
%TF.SameCoordinates,Original*%
%TF.FileFunction,Soldermask,Top*%
%TF.FilePolarity,Negative*%
%FSLAX46Y46*%
G04 Gerber Fmt 4.6, Leading zero omitted, Abs format (unit mm)*
G04 Created by KiCad (PCBNEW 7.0.7) date 2024-02-25 16:10:36*
%MOMM*%
%LPD*%
G01*
G04 APERTURE LIST*
G04 Aperture macros list*
%AMRoundRect*
0 Rectangle with rounded corners*
0 $1 Rounding radius*
0 $2 $3 $4 $5 $6 $7 $8 $9 X,Y pos of 4 corners*
0 Add a 4 corners polygon primitive as box body*
4,1,4,$2,$3,$4,$5,$6,$7,$8,$9,$2,$3,0*
0 Add four circle primitives for the rounded corners*
1,1,$1+$1,$2,$3*
1,1,$1+$1,$4,$5*
1,1,$1+$1,$6,$7*
1,1,$1+$1,$8,$9*
0 Add four rect primitives between the rounded corners*
20,1,$1+$1,$2,$3,$4,$5,0*
20,1,$1+$1,$4,$5,$6,$7,0*
20,1,$1+$1,$6,$7,$8,$9,0*
20,1,$1+$1,$8,$9,$2,$3,0*%
G04 Aperture macros list end*
%ADD10RoundRect,0.225000X-0.250000X0.225000X-0.250000X-0.225000X0.250000X-0.225000X0.250000X0.225000X0*%
%ADD11RoundRect,0.225000X0.225000X0.250000X-0.225000X0.250000X-0.225000X-0.250000X0.225000X-0.250000X0*%
%ADD12RoundRect,0.150000X0.150000X-0.825000X0.150000X0.825000X-0.150000X0.825000X-0.150000X-0.825000X0*%
%ADD13RoundRect,0.250000X0.800000X-0.450000X0.800000X0.450000X-0.800000X0.450000X-0.800000X-0.450000X0*%
%ADD14RoundRect,0.250000X-0.800000X0.450000X-0.800000X-0.450000X0.800000X-0.450000X0.800000X0.450000X0*%
%ADD15RoundRect,0.200000X-0.275000X0.200000X-0.275000X-0.200000X0.275000X-0.200000X0.275000X0.200000X0*%
%ADD16RoundRect,0.218750X0.256250X-0.218750X0.256250X0.218750X-0.256250X0.218750X-0.256250X-0.218750X0*%
%ADD17RoundRect,0.225000X0.250000X-0.225000X0.250000X0.225000X-0.250000X0.225000X-0.250000X-0.225000X0*%
%ADD18RoundRect,0.250000X-0.450000X-0.800000X0.450000X-0.800000X0.450000X0.800000X-0.450000X0.800000X0*%
%ADD19RoundRect,0.218750X-0.256250X0.218750X-0.256250X-0.218750X0.256250X-0.218750X0.256250X0.218750X0*%
%ADD20C,1.371600*%
%ADD21C,4.000000*%
%ADD22R,1.600000X1.600000*%
%ADD23C,1.600000*%
G04 APERTURE END LIST*
D10*
%TO.C,C10*%
X132040000Y-109580000D03*
X132040000Y-111130000D03*
%TD*%
D11*
%TO.C,C9*%
X128795000Y-111155000D03*
X127245000Y-111155000D03*
%TD*%
D12*
%TO.C,U4*%
X126115000Y-108550000D03*
X127385000Y-108550000D03*
X128655000Y-108550000D03*
X129925000Y-108550000D03*
X129925000Y-103600000D03*
X128655000Y-103600000D03*
X127385000Y-103600000D03*
X126115000Y-103600000D03*
%TD*%
D13*
%TO.C,D4*%
X173981400Y-146722200D03*
X173981400Y-142322200D03*
%TD*%
D10*
%TO.C,C4*%
X121880000Y-109440000D03*
X121880000Y-110990000D03*
%TD*%
D14*
%TO.C,D6*%
X169511000Y-142500000D03*
X169511000Y-146900000D03*
%TD*%
D10*
%TO.C,C8*%
X142200000Y-111765000D03*
X142200000Y-110215000D03*
%TD*%
D15*
%TO.C,R3*%
X122940000Y-105250000D03*
X122940000Y-106900000D03*
%TD*%
D13*
%TO.C,D1*%
X187621200Y-146900000D03*
X187621200Y-142500000D03*
%TD*%
D14*
%TO.C,D3*%
X192269400Y-142449200D03*
X192269400Y-146849200D03*
%TD*%
D16*
%TO.C,C1*%
X195774600Y-143861800D03*
X195774600Y-142286800D03*
%TD*%
D15*
%TO.C,R6*%
X133100000Y-105250000D03*
X133100000Y-106900000D03*
%TD*%
D17*
%TO.C,FB4*%
X147322000Y-115097600D03*
X147322000Y-113547600D03*
%TD*%
D18*
%TO.C,D8*%
X174400000Y-115450000D03*
X178800000Y-115450000D03*
%TD*%
D10*
%TO.C,C6*%
X152360000Y-109580000D03*
X152360000Y-111130000D03*
%TD*%
D12*
%TO.C,U1*%
X115955000Y-108550000D03*
X117225000Y-108550000D03*
X118495000Y-108550000D03*
X119765000Y-108550000D03*
X119765000Y-103600000D03*
X118495000Y-103600000D03*
X117225000Y-103600000D03*
X115955000Y-103600000D03*
%TD*%
D16*
%TO.C,C2*%
X195901600Y-149830900D03*
X195901600Y-148255900D03*
%TD*%
D17*
%TO.C,FB3*%
X149404800Y-115046800D03*
X149404800Y-113496800D03*
%TD*%
%TO.C,FB6*%
X136501600Y-115351600D03*
X136501600Y-113801600D03*
%TD*%
D19*
%TO.C,R1*%
X199635400Y-142210700D03*
X199635400Y-143785700D03*
%TD*%
D15*
%TO.C,R5*%
X143488600Y-105440000D03*
X143488600Y-107090000D03*
%TD*%
D11*
%TO.C,C5*%
X149595600Y-111350800D03*
X148045600Y-111350800D03*
%TD*%
D13*
%TO.C,D2*%
X183100000Y-146900000D03*
X183100000Y-142500000D03*
%TD*%
D17*
%TO.C,FB1*%
X119991600Y-115123000D03*
X119991600Y-113573000D03*
%TD*%
%TO.C,FB5*%
X138736800Y-115351600D03*
X138736800Y-113801600D03*
%TD*%
D13*
%TO.C,D5*%
X178502600Y-146646000D03*
X178502600Y-142246000D03*
%TD*%
D12*
%TO.C,U2*%
X146229800Y-108796600D03*
X147499800Y-108796600D03*
X148769800Y-108796600D03*
X150039800Y-108796600D03*
X150039800Y-103846600D03*
X148769800Y-103846600D03*
X147499800Y-103846600D03*
X146229800Y-103846600D03*
%TD*%
%TO.C,U3*%
X136275000Y-108550000D03*
X137545000Y-108550000D03*
X138815000Y-108550000D03*
X140085000Y-108550000D03*
X140085000Y-103600000D03*
X138815000Y-103600000D03*
X137545000Y-103600000D03*
X136275000Y-103600000D03*
%TD*%
D11*
%TO.C,C7*%
X138955000Y-111155000D03*
X137405000Y-111155000D03*
%TD*%
D20*
%TO.C,J1*%
X156086831Y-159170000D03*
X156086831Y-157170000D03*
X158086831Y-159170000D03*
X158086831Y-157170000D03*
X160086831Y-159170000D03*
X160086831Y-157170000D03*
X162086831Y-159170000D03*
X162086831Y-157170000D03*
X164086831Y-159170000D03*
X164086831Y-157170000D03*
X166086831Y-159170000D03*
X166086831Y-157170000D03*
X168086831Y-159170000D03*
X168086831Y-157170000D03*
X170086831Y-159170000D03*
X170086831Y-157170000D03*
X172086831Y-159170000D03*
X172086831Y-157170000D03*
X174086831Y-159170000D03*
X174086831Y-157170000D03*
X176086831Y-159170000D03*
X176086831Y-157170000D03*
X178086831Y-159170000D03*
X178086831Y-157170000D03*
X180086831Y-159170000D03*
X180086831Y-157170000D03*
X182086831Y-159170000D03*
X182086831Y-157170000D03*
X184086831Y-159170000D03*
X184086831Y-157170000D03*
X186086831Y-159170000D03*
X186086831Y-157170000D03*
X188086731Y-159170000D03*
X188086731Y-157170000D03*
X190086731Y-159170000D03*
X190086731Y-157170000D03*
X192086731Y-159170000D03*
X192086731Y-157170000D03*
X194086731Y-159170000D03*
X194086731Y-157170000D03*
X154550000Y-57900000D03*
X154550000Y-55900000D03*
X156550000Y-57900000D03*
X156550000Y-55900000D03*
X158550000Y-57900000D03*
X158550000Y-55900000D03*
X160550000Y-57900000D03*
X160550000Y-55900000D03*
X162549900Y-57900000D03*
X162549900Y-55900000D03*
X164549900Y-57900000D03*
X164549900Y-55900000D03*
X166549900Y-57900000D03*
X166549900Y-55900000D03*
X168549900Y-57900000D03*
X168549900Y-55900000D03*
X170549900Y-57900000D03*
X170549900Y-55900000D03*
X172549900Y-57900000D03*
X172549900Y-55900000D03*
X174549900Y-57900000D03*
X174549900Y-55900000D03*
X176549900Y-57900000D03*
X176549900Y-55900000D03*
X178549900Y-57900000D03*
X178549900Y-55900000D03*
X180549900Y-57900000D03*
X180549900Y-55900000D03*
X182549900Y-57900000D03*
X182549900Y-55900000D03*
X184549900Y-57900000D03*
X184549900Y-55900000D03*
X186549900Y-57900000D03*
X186549900Y-55900000D03*
X188549900Y-57900000D03*
X188549900Y-55900000D03*
X190549900Y-57900000D03*
X190549900Y-55900000D03*
X192549900Y-57900000D03*
X192549900Y-55900000D03*
%TD*%
D17*
%TO.C,FB2*%
X117705600Y-115072200D03*
X117705600Y-113522200D03*
%TD*%
%TO.C,FB8*%
X127535400Y-115275400D03*
X127535400Y-113725400D03*
%TD*%
D15*
%TO.C,R4*%
X152935400Y-105598200D03*
X152935400Y-107248200D03*
%TD*%
D11*
%TO.C,C3*%
X119410000Y-111155000D03*
X117860000Y-111155000D03*
%TD*%
D17*
%TO.C,FB7*%
X129745200Y-115326200D03*
X129745200Y-113776200D03*
%TD*%
D18*
%TO.C,D7*%
X174400000Y-111400000D03*
X178800000Y-111400000D03*
%TD*%
D16*
%TO.C,R2*%
X199584600Y-149754700D03*
X199584600Y-148179700D03*
%TD*%
D21*
%TO.C,4TC_DSUB1*%
X155640000Y-135020000D03*
X130640000Y-135020000D03*
D22*
X137600000Y-133600000D03*
D23*
X140370000Y-133600000D03*
X143140000Y-133600000D03*
X145910000Y-133600000D03*
X148680000Y-133600000D03*
X138985000Y-136440000D03*
X141755000Y-136440000D03*
X144525000Y-136440000D03*
X147295000Y-136440000D03*
%TD*%
D21*
%TO.C,GND_DSUB1*%
X179200000Y-126200000D03*
X212500000Y-126200000D03*
D22*
X205545000Y-127620000D03*
D23*
X202775000Y-127620000D03*
X200005000Y-127620000D03*
X197235000Y-127620000D03*
X194465000Y-127620000D03*
X191695000Y-127620000D03*
X188925000Y-127620000D03*
X186155000Y-127620000D03*
X204160000Y-124780000D03*
X201390000Y-124780000D03*
X198620000Y-124780000D03*
X195850000Y-124780000D03*
X193080000Y-124780000D03*
X190310000Y-124780000D03*
X187540000Y-124780000D03*
%TD*%
D21*
%TO.C,SOLENOIDS_DSUB1*%
X189700000Y-99400000D03*
X164700000Y-99400000D03*
D22*
X171660000Y-97980000D03*
D23*
X174430000Y-97980000D03*
X177200000Y-97980000D03*
X179970000Y-97980000D03*
X182740000Y-97980000D03*
X173045000Y-100820000D03*
X175815000Y-100820000D03*
X178585000Y-100820000D03*
X181355000Y-100820000D03*
%TD*%
D21*
%TO.C,PT_DSUB1*%
X150585000Y-79720000D03*
X197685000Y-79720000D03*
D22*
X157515000Y-81140000D03*
D23*
X160285000Y-81140000D03*
X163055000Y-81140000D03*
X165825000Y-81140000D03*
X168595000Y-81140000D03*
X171365000Y-81140000D03*
X174135000Y-81140000D03*
X176905000Y-81140000D03*
X179675000Y-81140000D03*
X182445000Y-81140000D03*
X185215000Y-81140000D03*
X187985000Y-81140000D03*
X190755000Y-81140000D03*
X158900000Y-78300000D03*
X161670000Y-78300000D03*
X164440000Y-78300000D03*
X167210000Y-78300000D03*
X169980000Y-78300000D03*
X172750000Y-78300000D03*
X175520000Y-78300000D03*
X178290000Y-78300000D03*
X181060000Y-78300000D03*
X183830000Y-78300000D03*
X186600000Y-78300000D03*
X189370000Y-78300000D03*
%TD*%
M02*
