%TF.GenerationSoftware,KiCad,Pcbnew,7.0.7*%
%TF.CreationDate,2023-09-27T20:46:26-07:00*%
%TF.ProjectId,TC-board,54432d62-6f61-4726-942e-6b696361645f,rev?*%
%TF.SameCoordinates,Original*%
%TF.FileFunction,Legend,Top*%
%TF.FilePolarity,Positive*%
%FSLAX46Y46*%
G04 Gerber Fmt 4.6, Leading zero omitted, Abs format (unit mm)*
G04 Created by KiCad (PCBNEW 7.0.7) date 2023-09-27 20:46:26*
%MOMM*%
%LPD*%
G01*
G04 APERTURE LIST*
%ADD10C,0.150000*%
%ADD11C,0.120000*%
G04 APERTURE END LIST*
D10*
X155839160Y-88272200D02*
X155982017Y-88319819D01*
X155982017Y-88319819D02*
X156220112Y-88319819D01*
X156220112Y-88319819D02*
X156315350Y-88272200D01*
X156315350Y-88272200D02*
X156362969Y-88224580D01*
X156362969Y-88224580D02*
X156410588Y-88129342D01*
X156410588Y-88129342D02*
X156410588Y-88034104D01*
X156410588Y-88034104D02*
X156362969Y-87938866D01*
X156362969Y-87938866D02*
X156315350Y-87891247D01*
X156315350Y-87891247D02*
X156220112Y-87843628D01*
X156220112Y-87843628D02*
X156029636Y-87796009D01*
X156029636Y-87796009D02*
X155934398Y-87748390D01*
X155934398Y-87748390D02*
X155886779Y-87700771D01*
X155886779Y-87700771D02*
X155839160Y-87605533D01*
X155839160Y-87605533D02*
X155839160Y-87510295D01*
X155839160Y-87510295D02*
X155886779Y-87415057D01*
X155886779Y-87415057D02*
X155934398Y-87367438D01*
X155934398Y-87367438D02*
X156029636Y-87319819D01*
X156029636Y-87319819D02*
X156267731Y-87319819D01*
X156267731Y-87319819D02*
X156410588Y-87367438D01*
X157410588Y-88224580D02*
X157362969Y-88272200D01*
X157362969Y-88272200D02*
X157220112Y-88319819D01*
X157220112Y-88319819D02*
X157124874Y-88319819D01*
X157124874Y-88319819D02*
X156982017Y-88272200D01*
X156982017Y-88272200D02*
X156886779Y-88176961D01*
X156886779Y-88176961D02*
X156839160Y-88081723D01*
X156839160Y-88081723D02*
X156791541Y-87891247D01*
X156791541Y-87891247D02*
X156791541Y-87748390D01*
X156791541Y-87748390D02*
X156839160Y-87557914D01*
X156839160Y-87557914D02*
X156886779Y-87462676D01*
X156886779Y-87462676D02*
X156982017Y-87367438D01*
X156982017Y-87367438D02*
X157124874Y-87319819D01*
X157124874Y-87319819D02*
X157220112Y-87319819D01*
X157220112Y-87319819D02*
X157362969Y-87367438D01*
X157362969Y-87367438D02*
X157410588Y-87415057D01*
X157839160Y-88319819D02*
X157839160Y-87319819D01*
X158410588Y-88319819D02*
X157982017Y-87748390D01*
X158410588Y-87319819D02*
X157839160Y-87891247D01*
X159601065Y-88319819D02*
X159601065Y-87319819D01*
X159601065Y-87319819D02*
X159934398Y-88034104D01*
X159934398Y-88034104D02*
X160267731Y-87319819D01*
X160267731Y-87319819D02*
X160267731Y-88319819D01*
X160743922Y-88319819D02*
X160743922Y-87319819D01*
X161172493Y-88272200D02*
X161315350Y-88319819D01*
X161315350Y-88319819D02*
X161553445Y-88319819D01*
X161553445Y-88319819D02*
X161648683Y-88272200D01*
X161648683Y-88272200D02*
X161696302Y-88224580D01*
X161696302Y-88224580D02*
X161743921Y-88129342D01*
X161743921Y-88129342D02*
X161743921Y-88034104D01*
X161743921Y-88034104D02*
X161696302Y-87938866D01*
X161696302Y-87938866D02*
X161648683Y-87891247D01*
X161648683Y-87891247D02*
X161553445Y-87843628D01*
X161553445Y-87843628D02*
X161362969Y-87796009D01*
X161362969Y-87796009D02*
X161267731Y-87748390D01*
X161267731Y-87748390D02*
X161220112Y-87700771D01*
X161220112Y-87700771D02*
X161172493Y-87605533D01*
X161172493Y-87605533D02*
X161172493Y-87510295D01*
X161172493Y-87510295D02*
X161220112Y-87415057D01*
X161220112Y-87415057D02*
X161267731Y-87367438D01*
X161267731Y-87367438D02*
X161362969Y-87319819D01*
X161362969Y-87319819D02*
X161601064Y-87319819D01*
X161601064Y-87319819D02*
X161743921Y-87367438D01*
X162362969Y-87319819D02*
X162553445Y-87319819D01*
X162553445Y-87319819D02*
X162648683Y-87367438D01*
X162648683Y-87367438D02*
X162743921Y-87462676D01*
X162743921Y-87462676D02*
X162791540Y-87653152D01*
X162791540Y-87653152D02*
X162791540Y-87986485D01*
X162791540Y-87986485D02*
X162743921Y-88176961D01*
X162743921Y-88176961D02*
X162648683Y-88272200D01*
X162648683Y-88272200D02*
X162553445Y-88319819D01*
X162553445Y-88319819D02*
X162362969Y-88319819D01*
X162362969Y-88319819D02*
X162267731Y-88272200D01*
X162267731Y-88272200D02*
X162172493Y-88176961D01*
X162172493Y-88176961D02*
X162124874Y-87986485D01*
X162124874Y-87986485D02*
X162124874Y-87653152D01*
X162124874Y-87653152D02*
X162172493Y-87462676D01*
X162172493Y-87462676D02*
X162267731Y-87367438D01*
X162267731Y-87367438D02*
X162362969Y-87319819D01*
X157239160Y-84172200D02*
X157382017Y-84219819D01*
X157382017Y-84219819D02*
X157620112Y-84219819D01*
X157620112Y-84219819D02*
X157715350Y-84172200D01*
X157715350Y-84172200D02*
X157762969Y-84124580D01*
X157762969Y-84124580D02*
X157810588Y-84029342D01*
X157810588Y-84029342D02*
X157810588Y-83934104D01*
X157810588Y-83934104D02*
X157762969Y-83838866D01*
X157762969Y-83838866D02*
X157715350Y-83791247D01*
X157715350Y-83791247D02*
X157620112Y-83743628D01*
X157620112Y-83743628D02*
X157429636Y-83696009D01*
X157429636Y-83696009D02*
X157334398Y-83648390D01*
X157334398Y-83648390D02*
X157286779Y-83600771D01*
X157286779Y-83600771D02*
X157239160Y-83505533D01*
X157239160Y-83505533D02*
X157239160Y-83410295D01*
X157239160Y-83410295D02*
X157286779Y-83315057D01*
X157286779Y-83315057D02*
X157334398Y-83267438D01*
X157334398Y-83267438D02*
X157429636Y-83219819D01*
X157429636Y-83219819D02*
X157667731Y-83219819D01*
X157667731Y-83219819D02*
X157810588Y-83267438D01*
X158239160Y-84219819D02*
X158239160Y-83219819D01*
X158239160Y-83219819D02*
X158620112Y-83219819D01*
X158620112Y-83219819D02*
X158715350Y-83267438D01*
X158715350Y-83267438D02*
X158762969Y-83315057D01*
X158762969Y-83315057D02*
X158810588Y-83410295D01*
X158810588Y-83410295D02*
X158810588Y-83553152D01*
X158810588Y-83553152D02*
X158762969Y-83648390D01*
X158762969Y-83648390D02*
X158715350Y-83696009D01*
X158715350Y-83696009D02*
X158620112Y-83743628D01*
X158620112Y-83743628D02*
X158239160Y-83743628D01*
X159239160Y-84219819D02*
X159239160Y-83219819D01*
X160239159Y-84219819D02*
X159667731Y-84219819D01*
X159953445Y-84219819D02*
X159953445Y-83219819D01*
X159953445Y-83219819D02*
X159858207Y-83362676D01*
X159858207Y-83362676D02*
X159762969Y-83457914D01*
X159762969Y-83457914D02*
X159667731Y-83505533D01*
X134560588Y-87617438D02*
X134465350Y-87569819D01*
X134465350Y-87569819D02*
X134322493Y-87569819D01*
X134322493Y-87569819D02*
X134179636Y-87617438D01*
X134179636Y-87617438D02*
X134084398Y-87712676D01*
X134084398Y-87712676D02*
X134036779Y-87807914D01*
X134036779Y-87807914D02*
X133989160Y-87998390D01*
X133989160Y-87998390D02*
X133989160Y-88141247D01*
X133989160Y-88141247D02*
X134036779Y-88331723D01*
X134036779Y-88331723D02*
X134084398Y-88426961D01*
X134084398Y-88426961D02*
X134179636Y-88522200D01*
X134179636Y-88522200D02*
X134322493Y-88569819D01*
X134322493Y-88569819D02*
X134417731Y-88569819D01*
X134417731Y-88569819D02*
X134560588Y-88522200D01*
X134560588Y-88522200D02*
X134608207Y-88474580D01*
X134608207Y-88474580D02*
X134608207Y-88141247D01*
X134608207Y-88141247D02*
X134417731Y-88141247D01*
X135036779Y-88569819D02*
X135036779Y-87569819D01*
X135036779Y-87569819D02*
X135608207Y-88569819D01*
X135608207Y-88569819D02*
X135608207Y-87569819D01*
X136084398Y-88569819D02*
X136084398Y-87569819D01*
X136084398Y-87569819D02*
X136322493Y-87569819D01*
X136322493Y-87569819D02*
X136465350Y-87617438D01*
X136465350Y-87617438D02*
X136560588Y-87712676D01*
X136560588Y-87712676D02*
X136608207Y-87807914D01*
X136608207Y-87807914D02*
X136655826Y-87998390D01*
X136655826Y-87998390D02*
X136655826Y-88141247D01*
X136655826Y-88141247D02*
X136608207Y-88331723D01*
X136608207Y-88331723D02*
X136560588Y-88426961D01*
X136560588Y-88426961D02*
X136465350Y-88522200D01*
X136465350Y-88522200D02*
X136322493Y-88569819D01*
X136322493Y-88569819D02*
X136084398Y-88569819D01*
X121903922Y-62559819D02*
X122475350Y-62559819D01*
X122189636Y-63559819D02*
X122189636Y-62559819D01*
X123380112Y-63464580D02*
X123332493Y-63512200D01*
X123332493Y-63512200D02*
X123189636Y-63559819D01*
X123189636Y-63559819D02*
X123094398Y-63559819D01*
X123094398Y-63559819D02*
X122951541Y-63512200D01*
X122951541Y-63512200D02*
X122856303Y-63416961D01*
X122856303Y-63416961D02*
X122808684Y-63321723D01*
X122808684Y-63321723D02*
X122761065Y-63131247D01*
X122761065Y-63131247D02*
X122761065Y-62988390D01*
X122761065Y-62988390D02*
X122808684Y-62797914D01*
X122808684Y-62797914D02*
X122856303Y-62702676D01*
X122856303Y-62702676D02*
X122951541Y-62607438D01*
X122951541Y-62607438D02*
X123094398Y-62559819D01*
X123094398Y-62559819D02*
X123189636Y-62559819D01*
X123189636Y-62559819D02*
X123332493Y-62607438D01*
X123332493Y-62607438D02*
X123380112Y-62655057D01*
X124332493Y-63559819D02*
X123761065Y-63559819D01*
X124046779Y-63559819D02*
X124046779Y-62559819D01*
X124046779Y-62559819D02*
X123951541Y-62702676D01*
X123951541Y-62702676D02*
X123856303Y-62797914D01*
X123856303Y-62797914D02*
X123761065Y-62845533D01*
X124522970Y-63655057D02*
X125284874Y-63655057D01*
X125380113Y-62559819D02*
X125951541Y-62559819D01*
X125665827Y-63559819D02*
X125665827Y-62559819D01*
X126284875Y-63178866D02*
X127046780Y-63178866D01*
X147513922Y-62209819D02*
X148085350Y-62209819D01*
X147799636Y-63209819D02*
X147799636Y-62209819D01*
X148990112Y-63114580D02*
X148942493Y-63162200D01*
X148942493Y-63162200D02*
X148799636Y-63209819D01*
X148799636Y-63209819D02*
X148704398Y-63209819D01*
X148704398Y-63209819D02*
X148561541Y-63162200D01*
X148561541Y-63162200D02*
X148466303Y-63066961D01*
X148466303Y-63066961D02*
X148418684Y-62971723D01*
X148418684Y-62971723D02*
X148371065Y-62781247D01*
X148371065Y-62781247D02*
X148371065Y-62638390D01*
X148371065Y-62638390D02*
X148418684Y-62447914D01*
X148418684Y-62447914D02*
X148466303Y-62352676D01*
X148466303Y-62352676D02*
X148561541Y-62257438D01*
X148561541Y-62257438D02*
X148704398Y-62209819D01*
X148704398Y-62209819D02*
X148799636Y-62209819D01*
X148799636Y-62209819D02*
X148942493Y-62257438D01*
X148942493Y-62257438D02*
X148990112Y-62305057D01*
X149371065Y-62305057D02*
X149418684Y-62257438D01*
X149418684Y-62257438D02*
X149513922Y-62209819D01*
X149513922Y-62209819D02*
X149752017Y-62209819D01*
X149752017Y-62209819D02*
X149847255Y-62257438D01*
X149847255Y-62257438D02*
X149894874Y-62305057D01*
X149894874Y-62305057D02*
X149942493Y-62400295D01*
X149942493Y-62400295D02*
X149942493Y-62495533D01*
X149942493Y-62495533D02*
X149894874Y-62638390D01*
X149894874Y-62638390D02*
X149323446Y-63209819D01*
X149323446Y-63209819D02*
X149942493Y-63209819D01*
X150132970Y-63305057D02*
X150894874Y-63305057D01*
X150990113Y-62209819D02*
X151561541Y-62209819D01*
X151275827Y-63209819D02*
X151275827Y-62209819D01*
X151894875Y-62828866D02*
X152656780Y-62828866D01*
X152693922Y-77119819D02*
X153265350Y-77119819D01*
X152979636Y-78119819D02*
X152979636Y-77119819D01*
X154170112Y-78024580D02*
X154122493Y-78072200D01*
X154122493Y-78072200D02*
X153979636Y-78119819D01*
X153979636Y-78119819D02*
X153884398Y-78119819D01*
X153884398Y-78119819D02*
X153741541Y-78072200D01*
X153741541Y-78072200D02*
X153646303Y-77976961D01*
X153646303Y-77976961D02*
X153598684Y-77881723D01*
X153598684Y-77881723D02*
X153551065Y-77691247D01*
X153551065Y-77691247D02*
X153551065Y-77548390D01*
X153551065Y-77548390D02*
X153598684Y-77357914D01*
X153598684Y-77357914D02*
X153646303Y-77262676D01*
X153646303Y-77262676D02*
X153741541Y-77167438D01*
X153741541Y-77167438D02*
X153884398Y-77119819D01*
X153884398Y-77119819D02*
X153979636Y-77119819D01*
X153979636Y-77119819D02*
X154122493Y-77167438D01*
X154122493Y-77167438D02*
X154170112Y-77215057D01*
X154551065Y-77215057D02*
X154598684Y-77167438D01*
X154598684Y-77167438D02*
X154693922Y-77119819D01*
X154693922Y-77119819D02*
X154932017Y-77119819D01*
X154932017Y-77119819D02*
X155027255Y-77167438D01*
X155027255Y-77167438D02*
X155074874Y-77215057D01*
X155074874Y-77215057D02*
X155122493Y-77310295D01*
X155122493Y-77310295D02*
X155122493Y-77405533D01*
X155122493Y-77405533D02*
X155074874Y-77548390D01*
X155074874Y-77548390D02*
X154503446Y-78119819D01*
X154503446Y-78119819D02*
X155122493Y-78119819D01*
X156884398Y-78024580D02*
X156836779Y-78072200D01*
X156836779Y-78072200D02*
X156693922Y-78119819D01*
X156693922Y-78119819D02*
X156598684Y-78119819D01*
X156598684Y-78119819D02*
X156455827Y-78072200D01*
X156455827Y-78072200D02*
X156360589Y-77976961D01*
X156360589Y-77976961D02*
X156312970Y-77881723D01*
X156312970Y-77881723D02*
X156265351Y-77691247D01*
X156265351Y-77691247D02*
X156265351Y-77548390D01*
X156265351Y-77548390D02*
X156312970Y-77357914D01*
X156312970Y-77357914D02*
X156360589Y-77262676D01*
X156360589Y-77262676D02*
X156455827Y-77167438D01*
X156455827Y-77167438D02*
X156598684Y-77119819D01*
X156598684Y-77119819D02*
X156693922Y-77119819D01*
X156693922Y-77119819D02*
X156836779Y-77167438D01*
X156836779Y-77167438D02*
X156884398Y-77215057D01*
X157265351Y-78072200D02*
X157408208Y-78119819D01*
X157408208Y-78119819D02*
X157646303Y-78119819D01*
X157646303Y-78119819D02*
X157741541Y-78072200D01*
X157741541Y-78072200D02*
X157789160Y-78024580D01*
X157789160Y-78024580D02*
X157836779Y-77929342D01*
X157836779Y-77929342D02*
X157836779Y-77834104D01*
X157836779Y-77834104D02*
X157789160Y-77738866D01*
X157789160Y-77738866D02*
X157741541Y-77691247D01*
X157741541Y-77691247D02*
X157646303Y-77643628D01*
X157646303Y-77643628D02*
X157455827Y-77596009D01*
X157455827Y-77596009D02*
X157360589Y-77548390D01*
X157360589Y-77548390D02*
X157312970Y-77500771D01*
X157312970Y-77500771D02*
X157265351Y-77405533D01*
X157265351Y-77405533D02*
X157265351Y-77310295D01*
X157265351Y-77310295D02*
X157312970Y-77215057D01*
X157312970Y-77215057D02*
X157360589Y-77167438D01*
X157360589Y-77167438D02*
X157455827Y-77119819D01*
X157455827Y-77119819D02*
X157693922Y-77119819D01*
X157693922Y-77119819D02*
X157836779Y-77167438D01*
X158217732Y-77215057D02*
X158265351Y-77167438D01*
X158265351Y-77167438D02*
X158360589Y-77119819D01*
X158360589Y-77119819D02*
X158598684Y-77119819D01*
X158598684Y-77119819D02*
X158693922Y-77167438D01*
X158693922Y-77167438D02*
X158741541Y-77215057D01*
X158741541Y-77215057D02*
X158789160Y-77310295D01*
X158789160Y-77310295D02*
X158789160Y-77405533D01*
X158789160Y-77405533D02*
X158741541Y-77548390D01*
X158741541Y-77548390D02*
X158170113Y-78119819D01*
X158170113Y-78119819D02*
X158789160Y-78119819D01*
X159836780Y-77119819D02*
X160408208Y-77119819D01*
X160122494Y-78119819D02*
X160122494Y-77119819D01*
X161312970Y-78024580D02*
X161265351Y-78072200D01*
X161265351Y-78072200D02*
X161122494Y-78119819D01*
X161122494Y-78119819D02*
X161027256Y-78119819D01*
X161027256Y-78119819D02*
X160884399Y-78072200D01*
X160884399Y-78072200D02*
X160789161Y-77976961D01*
X160789161Y-77976961D02*
X160741542Y-77881723D01*
X160741542Y-77881723D02*
X160693923Y-77691247D01*
X160693923Y-77691247D02*
X160693923Y-77548390D01*
X160693923Y-77548390D02*
X160741542Y-77357914D01*
X160741542Y-77357914D02*
X160789161Y-77262676D01*
X160789161Y-77262676D02*
X160884399Y-77167438D01*
X160884399Y-77167438D02*
X161027256Y-77119819D01*
X161027256Y-77119819D02*
X161122494Y-77119819D01*
X161122494Y-77119819D02*
X161265351Y-77167438D01*
X161265351Y-77167438D02*
X161312970Y-77215057D01*
X162170113Y-77453152D02*
X162170113Y-78119819D01*
X161932018Y-77072200D02*
X161693923Y-77786485D01*
X161693923Y-77786485D02*
X162312970Y-77786485D01*
X121683922Y-84419819D02*
X122255350Y-84419819D01*
X121969636Y-85419819D02*
X121969636Y-84419819D01*
X123160112Y-85324580D02*
X123112493Y-85372200D01*
X123112493Y-85372200D02*
X122969636Y-85419819D01*
X122969636Y-85419819D02*
X122874398Y-85419819D01*
X122874398Y-85419819D02*
X122731541Y-85372200D01*
X122731541Y-85372200D02*
X122636303Y-85276961D01*
X122636303Y-85276961D02*
X122588684Y-85181723D01*
X122588684Y-85181723D02*
X122541065Y-84991247D01*
X122541065Y-84991247D02*
X122541065Y-84848390D01*
X122541065Y-84848390D02*
X122588684Y-84657914D01*
X122588684Y-84657914D02*
X122636303Y-84562676D01*
X122636303Y-84562676D02*
X122731541Y-84467438D01*
X122731541Y-84467438D02*
X122874398Y-84419819D01*
X122874398Y-84419819D02*
X122969636Y-84419819D01*
X122969636Y-84419819D02*
X123112493Y-84467438D01*
X123112493Y-84467438D02*
X123160112Y-84515057D01*
X123493446Y-84419819D02*
X124112493Y-84419819D01*
X124112493Y-84419819D02*
X123779160Y-84800771D01*
X123779160Y-84800771D02*
X123922017Y-84800771D01*
X123922017Y-84800771D02*
X124017255Y-84848390D01*
X124017255Y-84848390D02*
X124064874Y-84896009D01*
X124064874Y-84896009D02*
X124112493Y-84991247D01*
X124112493Y-84991247D02*
X124112493Y-85229342D01*
X124112493Y-85229342D02*
X124064874Y-85324580D01*
X124064874Y-85324580D02*
X124017255Y-85372200D01*
X124017255Y-85372200D02*
X123922017Y-85419819D01*
X123922017Y-85419819D02*
X123636303Y-85419819D01*
X123636303Y-85419819D02*
X123541065Y-85372200D01*
X123541065Y-85372200D02*
X123493446Y-85324580D01*
X124302970Y-85515057D02*
X125064874Y-85515057D01*
X125160113Y-84419819D02*
X125731541Y-84419819D01*
X125445827Y-85419819D02*
X125445827Y-84419819D01*
X126064875Y-85038866D02*
X126826780Y-85038866D01*
X121753922Y-70449819D02*
X122325350Y-70449819D01*
X122039636Y-71449819D02*
X122039636Y-70449819D01*
X123230112Y-71354580D02*
X123182493Y-71402200D01*
X123182493Y-71402200D02*
X123039636Y-71449819D01*
X123039636Y-71449819D02*
X122944398Y-71449819D01*
X122944398Y-71449819D02*
X122801541Y-71402200D01*
X122801541Y-71402200D02*
X122706303Y-71306961D01*
X122706303Y-71306961D02*
X122658684Y-71211723D01*
X122658684Y-71211723D02*
X122611065Y-71021247D01*
X122611065Y-71021247D02*
X122611065Y-70878390D01*
X122611065Y-70878390D02*
X122658684Y-70687914D01*
X122658684Y-70687914D02*
X122706303Y-70592676D01*
X122706303Y-70592676D02*
X122801541Y-70497438D01*
X122801541Y-70497438D02*
X122944398Y-70449819D01*
X122944398Y-70449819D02*
X123039636Y-70449819D01*
X123039636Y-70449819D02*
X123182493Y-70497438D01*
X123182493Y-70497438D02*
X123230112Y-70545057D01*
X124182493Y-71449819D02*
X123611065Y-71449819D01*
X123896779Y-71449819D02*
X123896779Y-70449819D01*
X123896779Y-70449819D02*
X123801541Y-70592676D01*
X123801541Y-70592676D02*
X123706303Y-70687914D01*
X123706303Y-70687914D02*
X123611065Y-70735533D01*
X124372970Y-71545057D02*
X125134874Y-71545057D01*
X125230113Y-70449819D02*
X125801541Y-70449819D01*
X125515827Y-71449819D02*
X125515827Y-70449819D01*
X126134875Y-71068866D02*
X126896780Y-71068866D01*
X126515827Y-71449819D02*
X126515827Y-70687914D01*
X133913922Y-92559819D02*
X134485350Y-92559819D01*
X134199636Y-93559819D02*
X134199636Y-92559819D01*
X135390112Y-93464580D02*
X135342493Y-93512200D01*
X135342493Y-93512200D02*
X135199636Y-93559819D01*
X135199636Y-93559819D02*
X135104398Y-93559819D01*
X135104398Y-93559819D02*
X134961541Y-93512200D01*
X134961541Y-93512200D02*
X134866303Y-93416961D01*
X134866303Y-93416961D02*
X134818684Y-93321723D01*
X134818684Y-93321723D02*
X134771065Y-93131247D01*
X134771065Y-93131247D02*
X134771065Y-92988390D01*
X134771065Y-92988390D02*
X134818684Y-92797914D01*
X134818684Y-92797914D02*
X134866303Y-92702676D01*
X134866303Y-92702676D02*
X134961541Y-92607438D01*
X134961541Y-92607438D02*
X135104398Y-92559819D01*
X135104398Y-92559819D02*
X135199636Y-92559819D01*
X135199636Y-92559819D02*
X135342493Y-92607438D01*
X135342493Y-92607438D02*
X135390112Y-92655057D01*
X136247255Y-92893152D02*
X136247255Y-93559819D01*
X136009160Y-92512200D02*
X135771065Y-93226485D01*
X135771065Y-93226485D02*
X136390112Y-93226485D01*
X136532970Y-93655057D02*
X137294874Y-93655057D01*
X138104398Y-93464580D02*
X138056779Y-93512200D01*
X138056779Y-93512200D02*
X137913922Y-93559819D01*
X137913922Y-93559819D02*
X137818684Y-93559819D01*
X137818684Y-93559819D02*
X137675827Y-93512200D01*
X137675827Y-93512200D02*
X137580589Y-93416961D01*
X137580589Y-93416961D02*
X137532970Y-93321723D01*
X137532970Y-93321723D02*
X137485351Y-93131247D01*
X137485351Y-93131247D02*
X137485351Y-92988390D01*
X137485351Y-92988390D02*
X137532970Y-92797914D01*
X137532970Y-92797914D02*
X137580589Y-92702676D01*
X137580589Y-92702676D02*
X137675827Y-92607438D01*
X137675827Y-92607438D02*
X137818684Y-92559819D01*
X137818684Y-92559819D02*
X137913922Y-92559819D01*
X137913922Y-92559819D02*
X138056779Y-92607438D01*
X138056779Y-92607438D02*
X138104398Y-92655057D01*
X138485351Y-93512200D02*
X138628208Y-93559819D01*
X138628208Y-93559819D02*
X138866303Y-93559819D01*
X138866303Y-93559819D02*
X138961541Y-93512200D01*
X138961541Y-93512200D02*
X139009160Y-93464580D01*
X139009160Y-93464580D02*
X139056779Y-93369342D01*
X139056779Y-93369342D02*
X139056779Y-93274104D01*
X139056779Y-93274104D02*
X139009160Y-93178866D01*
X139009160Y-93178866D02*
X138961541Y-93131247D01*
X138961541Y-93131247D02*
X138866303Y-93083628D01*
X138866303Y-93083628D02*
X138675827Y-93036009D01*
X138675827Y-93036009D02*
X138580589Y-92988390D01*
X138580589Y-92988390D02*
X138532970Y-92940771D01*
X138532970Y-92940771D02*
X138485351Y-92845533D01*
X138485351Y-92845533D02*
X138485351Y-92750295D01*
X138485351Y-92750295D02*
X138532970Y-92655057D01*
X138532970Y-92655057D02*
X138580589Y-92607438D01*
X138580589Y-92607438D02*
X138675827Y-92559819D01*
X138675827Y-92559819D02*
X138913922Y-92559819D01*
X138913922Y-92559819D02*
X139056779Y-92607438D01*
X133953922Y-70119819D02*
X134525350Y-70119819D01*
X134239636Y-71119819D02*
X134239636Y-70119819D01*
X135430112Y-71024580D02*
X135382493Y-71072200D01*
X135382493Y-71072200D02*
X135239636Y-71119819D01*
X135239636Y-71119819D02*
X135144398Y-71119819D01*
X135144398Y-71119819D02*
X135001541Y-71072200D01*
X135001541Y-71072200D02*
X134906303Y-70976961D01*
X134906303Y-70976961D02*
X134858684Y-70881723D01*
X134858684Y-70881723D02*
X134811065Y-70691247D01*
X134811065Y-70691247D02*
X134811065Y-70548390D01*
X134811065Y-70548390D02*
X134858684Y-70357914D01*
X134858684Y-70357914D02*
X134906303Y-70262676D01*
X134906303Y-70262676D02*
X135001541Y-70167438D01*
X135001541Y-70167438D02*
X135144398Y-70119819D01*
X135144398Y-70119819D02*
X135239636Y-70119819D01*
X135239636Y-70119819D02*
X135382493Y-70167438D01*
X135382493Y-70167438D02*
X135430112Y-70215057D01*
X135811065Y-70215057D02*
X135858684Y-70167438D01*
X135858684Y-70167438D02*
X135953922Y-70119819D01*
X135953922Y-70119819D02*
X136192017Y-70119819D01*
X136192017Y-70119819D02*
X136287255Y-70167438D01*
X136287255Y-70167438D02*
X136334874Y-70215057D01*
X136334874Y-70215057D02*
X136382493Y-70310295D01*
X136382493Y-70310295D02*
X136382493Y-70405533D01*
X136382493Y-70405533D02*
X136334874Y-70548390D01*
X136334874Y-70548390D02*
X135763446Y-71119819D01*
X135763446Y-71119819D02*
X136382493Y-71119819D01*
X136572970Y-71215057D02*
X137334874Y-71215057D01*
X138144398Y-71024580D02*
X138096779Y-71072200D01*
X138096779Y-71072200D02*
X137953922Y-71119819D01*
X137953922Y-71119819D02*
X137858684Y-71119819D01*
X137858684Y-71119819D02*
X137715827Y-71072200D01*
X137715827Y-71072200D02*
X137620589Y-70976961D01*
X137620589Y-70976961D02*
X137572970Y-70881723D01*
X137572970Y-70881723D02*
X137525351Y-70691247D01*
X137525351Y-70691247D02*
X137525351Y-70548390D01*
X137525351Y-70548390D02*
X137572970Y-70357914D01*
X137572970Y-70357914D02*
X137620589Y-70262676D01*
X137620589Y-70262676D02*
X137715827Y-70167438D01*
X137715827Y-70167438D02*
X137858684Y-70119819D01*
X137858684Y-70119819D02*
X137953922Y-70119819D01*
X137953922Y-70119819D02*
X138096779Y-70167438D01*
X138096779Y-70167438D02*
X138144398Y-70215057D01*
X138525351Y-71072200D02*
X138668208Y-71119819D01*
X138668208Y-71119819D02*
X138906303Y-71119819D01*
X138906303Y-71119819D02*
X139001541Y-71072200D01*
X139001541Y-71072200D02*
X139049160Y-71024580D01*
X139049160Y-71024580D02*
X139096779Y-70929342D01*
X139096779Y-70929342D02*
X139096779Y-70834104D01*
X139096779Y-70834104D02*
X139049160Y-70738866D01*
X139049160Y-70738866D02*
X139001541Y-70691247D01*
X139001541Y-70691247D02*
X138906303Y-70643628D01*
X138906303Y-70643628D02*
X138715827Y-70596009D01*
X138715827Y-70596009D02*
X138620589Y-70548390D01*
X138620589Y-70548390D02*
X138572970Y-70500771D01*
X138572970Y-70500771D02*
X138525351Y-70405533D01*
X138525351Y-70405533D02*
X138525351Y-70310295D01*
X138525351Y-70310295D02*
X138572970Y-70215057D01*
X138572970Y-70215057D02*
X138620589Y-70167438D01*
X138620589Y-70167438D02*
X138715827Y-70119819D01*
X138715827Y-70119819D02*
X138953922Y-70119819D01*
X138953922Y-70119819D02*
X139096779Y-70167438D01*
X157339160Y-90322200D02*
X157482017Y-90369819D01*
X157482017Y-90369819D02*
X157720112Y-90369819D01*
X157720112Y-90369819D02*
X157815350Y-90322200D01*
X157815350Y-90322200D02*
X157862969Y-90274580D01*
X157862969Y-90274580D02*
X157910588Y-90179342D01*
X157910588Y-90179342D02*
X157910588Y-90084104D01*
X157910588Y-90084104D02*
X157862969Y-89988866D01*
X157862969Y-89988866D02*
X157815350Y-89941247D01*
X157815350Y-89941247D02*
X157720112Y-89893628D01*
X157720112Y-89893628D02*
X157529636Y-89846009D01*
X157529636Y-89846009D02*
X157434398Y-89798390D01*
X157434398Y-89798390D02*
X157386779Y-89750771D01*
X157386779Y-89750771D02*
X157339160Y-89655533D01*
X157339160Y-89655533D02*
X157339160Y-89560295D01*
X157339160Y-89560295D02*
X157386779Y-89465057D01*
X157386779Y-89465057D02*
X157434398Y-89417438D01*
X157434398Y-89417438D02*
X157529636Y-89369819D01*
X157529636Y-89369819D02*
X157767731Y-89369819D01*
X157767731Y-89369819D02*
X157910588Y-89417438D01*
X158339160Y-90369819D02*
X158339160Y-89369819D01*
X158339160Y-89369819D02*
X158720112Y-89369819D01*
X158720112Y-89369819D02*
X158815350Y-89417438D01*
X158815350Y-89417438D02*
X158862969Y-89465057D01*
X158862969Y-89465057D02*
X158910588Y-89560295D01*
X158910588Y-89560295D02*
X158910588Y-89703152D01*
X158910588Y-89703152D02*
X158862969Y-89798390D01*
X158862969Y-89798390D02*
X158815350Y-89846009D01*
X158815350Y-89846009D02*
X158720112Y-89893628D01*
X158720112Y-89893628D02*
X158339160Y-89893628D01*
X159339160Y-90369819D02*
X159339160Y-89369819D01*
X160005826Y-89369819D02*
X160101064Y-89369819D01*
X160101064Y-89369819D02*
X160196302Y-89417438D01*
X160196302Y-89417438D02*
X160243921Y-89465057D01*
X160243921Y-89465057D02*
X160291540Y-89560295D01*
X160291540Y-89560295D02*
X160339159Y-89750771D01*
X160339159Y-89750771D02*
X160339159Y-89988866D01*
X160339159Y-89988866D02*
X160291540Y-90179342D01*
X160291540Y-90179342D02*
X160243921Y-90274580D01*
X160243921Y-90274580D02*
X160196302Y-90322200D01*
X160196302Y-90322200D02*
X160101064Y-90369819D01*
X160101064Y-90369819D02*
X160005826Y-90369819D01*
X160005826Y-90369819D02*
X159910588Y-90322200D01*
X159910588Y-90322200D02*
X159862969Y-90274580D01*
X159862969Y-90274580D02*
X159815350Y-90179342D01*
X159815350Y-90179342D02*
X159767731Y-89988866D01*
X159767731Y-89988866D02*
X159767731Y-89750771D01*
X159767731Y-89750771D02*
X159815350Y-89560295D01*
X159815350Y-89560295D02*
X159862969Y-89465057D01*
X159862969Y-89465057D02*
X159910588Y-89417438D01*
X159910588Y-89417438D02*
X160005826Y-89369819D01*
X108433922Y-70249819D02*
X109005350Y-70249819D01*
X108719636Y-71249819D02*
X108719636Y-70249819D01*
X109910112Y-71154580D02*
X109862493Y-71202200D01*
X109862493Y-71202200D02*
X109719636Y-71249819D01*
X109719636Y-71249819D02*
X109624398Y-71249819D01*
X109624398Y-71249819D02*
X109481541Y-71202200D01*
X109481541Y-71202200D02*
X109386303Y-71106961D01*
X109386303Y-71106961D02*
X109338684Y-71011723D01*
X109338684Y-71011723D02*
X109291065Y-70821247D01*
X109291065Y-70821247D02*
X109291065Y-70678390D01*
X109291065Y-70678390D02*
X109338684Y-70487914D01*
X109338684Y-70487914D02*
X109386303Y-70392676D01*
X109386303Y-70392676D02*
X109481541Y-70297438D01*
X109481541Y-70297438D02*
X109624398Y-70249819D01*
X109624398Y-70249819D02*
X109719636Y-70249819D01*
X109719636Y-70249819D02*
X109862493Y-70297438D01*
X109862493Y-70297438D02*
X109910112Y-70345057D01*
X110862493Y-71249819D02*
X110291065Y-71249819D01*
X110576779Y-71249819D02*
X110576779Y-70249819D01*
X110576779Y-70249819D02*
X110481541Y-70392676D01*
X110481541Y-70392676D02*
X110386303Y-70487914D01*
X110386303Y-70487914D02*
X110291065Y-70535533D01*
X111052970Y-71345057D02*
X111814874Y-71345057D01*
X112624398Y-71154580D02*
X112576779Y-71202200D01*
X112576779Y-71202200D02*
X112433922Y-71249819D01*
X112433922Y-71249819D02*
X112338684Y-71249819D01*
X112338684Y-71249819D02*
X112195827Y-71202200D01*
X112195827Y-71202200D02*
X112100589Y-71106961D01*
X112100589Y-71106961D02*
X112052970Y-71011723D01*
X112052970Y-71011723D02*
X112005351Y-70821247D01*
X112005351Y-70821247D02*
X112005351Y-70678390D01*
X112005351Y-70678390D02*
X112052970Y-70487914D01*
X112052970Y-70487914D02*
X112100589Y-70392676D01*
X112100589Y-70392676D02*
X112195827Y-70297438D01*
X112195827Y-70297438D02*
X112338684Y-70249819D01*
X112338684Y-70249819D02*
X112433922Y-70249819D01*
X112433922Y-70249819D02*
X112576779Y-70297438D01*
X112576779Y-70297438D02*
X112624398Y-70345057D01*
X113005351Y-71202200D02*
X113148208Y-71249819D01*
X113148208Y-71249819D02*
X113386303Y-71249819D01*
X113386303Y-71249819D02*
X113481541Y-71202200D01*
X113481541Y-71202200D02*
X113529160Y-71154580D01*
X113529160Y-71154580D02*
X113576779Y-71059342D01*
X113576779Y-71059342D02*
X113576779Y-70964104D01*
X113576779Y-70964104D02*
X113529160Y-70868866D01*
X113529160Y-70868866D02*
X113481541Y-70821247D01*
X113481541Y-70821247D02*
X113386303Y-70773628D01*
X113386303Y-70773628D02*
X113195827Y-70726009D01*
X113195827Y-70726009D02*
X113100589Y-70678390D01*
X113100589Y-70678390D02*
X113052970Y-70630771D01*
X113052970Y-70630771D02*
X113005351Y-70535533D01*
X113005351Y-70535533D02*
X113005351Y-70440295D01*
X113005351Y-70440295D02*
X113052970Y-70345057D01*
X113052970Y-70345057D02*
X113100589Y-70297438D01*
X113100589Y-70297438D02*
X113195827Y-70249819D01*
X113195827Y-70249819D02*
X113433922Y-70249819D01*
X113433922Y-70249819D02*
X113576779Y-70297438D01*
X134376779Y-60328866D02*
X135138684Y-60328866D01*
X134757731Y-60709819D02*
X134757731Y-59947914D01*
X135519636Y-59709819D02*
X136138683Y-59709819D01*
X136138683Y-59709819D02*
X135805350Y-60090771D01*
X135805350Y-60090771D02*
X135948207Y-60090771D01*
X135948207Y-60090771D02*
X136043445Y-60138390D01*
X136043445Y-60138390D02*
X136091064Y-60186009D01*
X136091064Y-60186009D02*
X136138683Y-60281247D01*
X136138683Y-60281247D02*
X136138683Y-60519342D01*
X136138683Y-60519342D02*
X136091064Y-60614580D01*
X136091064Y-60614580D02*
X136043445Y-60662200D01*
X136043445Y-60662200D02*
X135948207Y-60709819D01*
X135948207Y-60709819D02*
X135662493Y-60709819D01*
X135662493Y-60709819D02*
X135567255Y-60662200D01*
X135567255Y-60662200D02*
X135519636Y-60614580D01*
X136567255Y-60614580D02*
X136614874Y-60662200D01*
X136614874Y-60662200D02*
X136567255Y-60709819D01*
X136567255Y-60709819D02*
X136519636Y-60662200D01*
X136519636Y-60662200D02*
X136567255Y-60614580D01*
X136567255Y-60614580D02*
X136567255Y-60709819D01*
X136948207Y-59709819D02*
X137567254Y-59709819D01*
X137567254Y-59709819D02*
X137233921Y-60090771D01*
X137233921Y-60090771D02*
X137376778Y-60090771D01*
X137376778Y-60090771D02*
X137472016Y-60138390D01*
X137472016Y-60138390D02*
X137519635Y-60186009D01*
X137519635Y-60186009D02*
X137567254Y-60281247D01*
X137567254Y-60281247D02*
X137567254Y-60519342D01*
X137567254Y-60519342D02*
X137519635Y-60614580D01*
X137519635Y-60614580D02*
X137472016Y-60662200D01*
X137472016Y-60662200D02*
X137376778Y-60709819D01*
X137376778Y-60709819D02*
X137091064Y-60709819D01*
X137091064Y-60709819D02*
X136995826Y-60662200D01*
X136995826Y-60662200D02*
X136948207Y-60614580D01*
X137852969Y-59709819D02*
X138186302Y-60709819D01*
X138186302Y-60709819D02*
X138519635Y-59709819D01*
X133899160Y-91092200D02*
X134042017Y-91139819D01*
X134042017Y-91139819D02*
X134280112Y-91139819D01*
X134280112Y-91139819D02*
X134375350Y-91092200D01*
X134375350Y-91092200D02*
X134422969Y-91044580D01*
X134422969Y-91044580D02*
X134470588Y-90949342D01*
X134470588Y-90949342D02*
X134470588Y-90854104D01*
X134470588Y-90854104D02*
X134422969Y-90758866D01*
X134422969Y-90758866D02*
X134375350Y-90711247D01*
X134375350Y-90711247D02*
X134280112Y-90663628D01*
X134280112Y-90663628D02*
X134089636Y-90616009D01*
X134089636Y-90616009D02*
X133994398Y-90568390D01*
X133994398Y-90568390D02*
X133946779Y-90520771D01*
X133946779Y-90520771D02*
X133899160Y-90425533D01*
X133899160Y-90425533D02*
X133899160Y-90330295D01*
X133899160Y-90330295D02*
X133946779Y-90235057D01*
X133946779Y-90235057D02*
X133994398Y-90187438D01*
X133994398Y-90187438D02*
X134089636Y-90139819D01*
X134089636Y-90139819D02*
X134327731Y-90139819D01*
X134327731Y-90139819D02*
X134470588Y-90187438D01*
X134899160Y-91139819D02*
X134899160Y-90139819D01*
X134899160Y-90139819D02*
X135280112Y-90139819D01*
X135280112Y-90139819D02*
X135375350Y-90187438D01*
X135375350Y-90187438D02*
X135422969Y-90235057D01*
X135422969Y-90235057D02*
X135470588Y-90330295D01*
X135470588Y-90330295D02*
X135470588Y-90473152D01*
X135470588Y-90473152D02*
X135422969Y-90568390D01*
X135422969Y-90568390D02*
X135375350Y-90616009D01*
X135375350Y-90616009D02*
X135280112Y-90663628D01*
X135280112Y-90663628D02*
X134899160Y-90663628D01*
X135899160Y-91139819D02*
X135899160Y-90139819D01*
X136565826Y-90139819D02*
X136661064Y-90139819D01*
X136661064Y-90139819D02*
X136756302Y-90187438D01*
X136756302Y-90187438D02*
X136803921Y-90235057D01*
X136803921Y-90235057D02*
X136851540Y-90330295D01*
X136851540Y-90330295D02*
X136899159Y-90520771D01*
X136899159Y-90520771D02*
X136899159Y-90758866D01*
X136899159Y-90758866D02*
X136851540Y-90949342D01*
X136851540Y-90949342D02*
X136803921Y-91044580D01*
X136803921Y-91044580D02*
X136756302Y-91092200D01*
X136756302Y-91092200D02*
X136661064Y-91139819D01*
X136661064Y-91139819D02*
X136565826Y-91139819D01*
X136565826Y-91139819D02*
X136470588Y-91092200D01*
X136470588Y-91092200D02*
X136422969Y-91044580D01*
X136422969Y-91044580D02*
X136375350Y-90949342D01*
X136375350Y-90949342D02*
X136327731Y-90758866D01*
X136327731Y-90758866D02*
X136327731Y-90520771D01*
X136327731Y-90520771D02*
X136375350Y-90330295D01*
X136375350Y-90330295D02*
X136422969Y-90235057D01*
X136422969Y-90235057D02*
X136470588Y-90187438D01*
X136470588Y-90187438D02*
X136565826Y-90139819D01*
X137089636Y-91235057D02*
X137851540Y-91235057D01*
X138089636Y-91139819D02*
X138089636Y-90139819D01*
X138089636Y-90139819D02*
X138422969Y-90854104D01*
X138422969Y-90854104D02*
X138756302Y-90139819D01*
X138756302Y-90139819D02*
X138756302Y-91139819D01*
X139232493Y-91139819D02*
X139232493Y-90139819D01*
X139661064Y-91092200D02*
X139803921Y-91139819D01*
X139803921Y-91139819D02*
X140042016Y-91139819D01*
X140042016Y-91139819D02*
X140137254Y-91092200D01*
X140137254Y-91092200D02*
X140184873Y-91044580D01*
X140184873Y-91044580D02*
X140232492Y-90949342D01*
X140232492Y-90949342D02*
X140232492Y-90854104D01*
X140232492Y-90854104D02*
X140184873Y-90758866D01*
X140184873Y-90758866D02*
X140137254Y-90711247D01*
X140137254Y-90711247D02*
X140042016Y-90663628D01*
X140042016Y-90663628D02*
X139851540Y-90616009D01*
X139851540Y-90616009D02*
X139756302Y-90568390D01*
X139756302Y-90568390D02*
X139708683Y-90520771D01*
X139708683Y-90520771D02*
X139661064Y-90425533D01*
X139661064Y-90425533D02*
X139661064Y-90330295D01*
X139661064Y-90330295D02*
X139708683Y-90235057D01*
X139708683Y-90235057D02*
X139756302Y-90187438D01*
X139756302Y-90187438D02*
X139851540Y-90139819D01*
X139851540Y-90139819D02*
X140089635Y-90139819D01*
X140089635Y-90139819D02*
X140232492Y-90187438D01*
X140851540Y-90139819D02*
X141042016Y-90139819D01*
X141042016Y-90139819D02*
X141137254Y-90187438D01*
X141137254Y-90187438D02*
X141232492Y-90282676D01*
X141232492Y-90282676D02*
X141280111Y-90473152D01*
X141280111Y-90473152D02*
X141280111Y-90806485D01*
X141280111Y-90806485D02*
X141232492Y-90996961D01*
X141232492Y-90996961D02*
X141137254Y-91092200D01*
X141137254Y-91092200D02*
X141042016Y-91139819D01*
X141042016Y-91139819D02*
X140851540Y-91139819D01*
X140851540Y-91139819D02*
X140756302Y-91092200D01*
X140756302Y-91092200D02*
X140661064Y-90996961D01*
X140661064Y-90996961D02*
X140613445Y-90806485D01*
X140613445Y-90806485D02*
X140613445Y-90473152D01*
X140613445Y-90473152D02*
X140661064Y-90282676D01*
X140661064Y-90282676D02*
X140756302Y-90187438D01*
X140756302Y-90187438D02*
X140851540Y-90139819D01*
X121443922Y-92729819D02*
X122015350Y-92729819D01*
X121729636Y-93729819D02*
X121729636Y-92729819D01*
X122920112Y-93634580D02*
X122872493Y-93682200D01*
X122872493Y-93682200D02*
X122729636Y-93729819D01*
X122729636Y-93729819D02*
X122634398Y-93729819D01*
X122634398Y-93729819D02*
X122491541Y-93682200D01*
X122491541Y-93682200D02*
X122396303Y-93586961D01*
X122396303Y-93586961D02*
X122348684Y-93491723D01*
X122348684Y-93491723D02*
X122301065Y-93301247D01*
X122301065Y-93301247D02*
X122301065Y-93158390D01*
X122301065Y-93158390D02*
X122348684Y-92967914D01*
X122348684Y-92967914D02*
X122396303Y-92872676D01*
X122396303Y-92872676D02*
X122491541Y-92777438D01*
X122491541Y-92777438D02*
X122634398Y-92729819D01*
X122634398Y-92729819D02*
X122729636Y-92729819D01*
X122729636Y-92729819D02*
X122872493Y-92777438D01*
X122872493Y-92777438D02*
X122920112Y-92825057D01*
X123253446Y-92729819D02*
X123872493Y-92729819D01*
X123872493Y-92729819D02*
X123539160Y-93110771D01*
X123539160Y-93110771D02*
X123682017Y-93110771D01*
X123682017Y-93110771D02*
X123777255Y-93158390D01*
X123777255Y-93158390D02*
X123824874Y-93206009D01*
X123824874Y-93206009D02*
X123872493Y-93301247D01*
X123872493Y-93301247D02*
X123872493Y-93539342D01*
X123872493Y-93539342D02*
X123824874Y-93634580D01*
X123824874Y-93634580D02*
X123777255Y-93682200D01*
X123777255Y-93682200D02*
X123682017Y-93729819D01*
X123682017Y-93729819D02*
X123396303Y-93729819D01*
X123396303Y-93729819D02*
X123301065Y-93682200D01*
X123301065Y-93682200D02*
X123253446Y-93634580D01*
X124062970Y-93825057D02*
X124824874Y-93825057D01*
X124920113Y-92729819D02*
X125491541Y-92729819D01*
X125205827Y-93729819D02*
X125205827Y-92729819D01*
X125824875Y-93348866D02*
X126586780Y-93348866D01*
X126205827Y-93729819D02*
X126205827Y-92967914D01*
X147093922Y-92609819D02*
X147665350Y-92609819D01*
X147379636Y-93609819D02*
X147379636Y-92609819D01*
X148570112Y-93514580D02*
X148522493Y-93562200D01*
X148522493Y-93562200D02*
X148379636Y-93609819D01*
X148379636Y-93609819D02*
X148284398Y-93609819D01*
X148284398Y-93609819D02*
X148141541Y-93562200D01*
X148141541Y-93562200D02*
X148046303Y-93466961D01*
X148046303Y-93466961D02*
X147998684Y-93371723D01*
X147998684Y-93371723D02*
X147951065Y-93181247D01*
X147951065Y-93181247D02*
X147951065Y-93038390D01*
X147951065Y-93038390D02*
X147998684Y-92847914D01*
X147998684Y-92847914D02*
X148046303Y-92752676D01*
X148046303Y-92752676D02*
X148141541Y-92657438D01*
X148141541Y-92657438D02*
X148284398Y-92609819D01*
X148284398Y-92609819D02*
X148379636Y-92609819D01*
X148379636Y-92609819D02*
X148522493Y-92657438D01*
X148522493Y-92657438D02*
X148570112Y-92705057D01*
X149427255Y-92943152D02*
X149427255Y-93609819D01*
X149189160Y-92562200D02*
X148951065Y-93276485D01*
X148951065Y-93276485D02*
X149570112Y-93276485D01*
X149712970Y-93705057D02*
X150474874Y-93705057D01*
X150570113Y-92609819D02*
X151141541Y-92609819D01*
X150855827Y-93609819D02*
X150855827Y-92609819D01*
X151474875Y-93228866D02*
X152236780Y-93228866D01*
X151855827Y-93609819D02*
X151855827Y-92847914D01*
X135370588Y-65157438D02*
X135275350Y-65109819D01*
X135275350Y-65109819D02*
X135132493Y-65109819D01*
X135132493Y-65109819D02*
X134989636Y-65157438D01*
X134989636Y-65157438D02*
X134894398Y-65252676D01*
X134894398Y-65252676D02*
X134846779Y-65347914D01*
X134846779Y-65347914D02*
X134799160Y-65538390D01*
X134799160Y-65538390D02*
X134799160Y-65681247D01*
X134799160Y-65681247D02*
X134846779Y-65871723D01*
X134846779Y-65871723D02*
X134894398Y-65966961D01*
X134894398Y-65966961D02*
X134989636Y-66062200D01*
X134989636Y-66062200D02*
X135132493Y-66109819D01*
X135132493Y-66109819D02*
X135227731Y-66109819D01*
X135227731Y-66109819D02*
X135370588Y-66062200D01*
X135370588Y-66062200D02*
X135418207Y-66014580D01*
X135418207Y-66014580D02*
X135418207Y-65681247D01*
X135418207Y-65681247D02*
X135227731Y-65681247D01*
X135846779Y-66109819D02*
X135846779Y-65109819D01*
X135846779Y-65109819D02*
X136418207Y-66109819D01*
X136418207Y-66109819D02*
X136418207Y-65109819D01*
X136894398Y-66109819D02*
X136894398Y-65109819D01*
X136894398Y-65109819D02*
X137132493Y-65109819D01*
X137132493Y-65109819D02*
X137275350Y-65157438D01*
X137275350Y-65157438D02*
X137370588Y-65252676D01*
X137370588Y-65252676D02*
X137418207Y-65347914D01*
X137418207Y-65347914D02*
X137465826Y-65538390D01*
X137465826Y-65538390D02*
X137465826Y-65681247D01*
X137465826Y-65681247D02*
X137418207Y-65871723D01*
X137418207Y-65871723D02*
X137370588Y-65966961D01*
X137370588Y-65966961D02*
X137275350Y-66062200D01*
X137275350Y-66062200D02*
X137132493Y-66109819D01*
X137132493Y-66109819D02*
X136894398Y-66109819D01*
X113436779Y-55488866D02*
X114198684Y-55488866D01*
X114674874Y-55488866D02*
X115436779Y-55488866D01*
X115055826Y-55869819D02*
X115055826Y-55107914D01*
X115912969Y-55488866D02*
X116674874Y-55488866D01*
X117151064Y-55488866D02*
X117912969Y-55488866D01*
X117532016Y-55869819D02*
X117532016Y-55107914D01*
X118389159Y-55488866D02*
X119151064Y-55488866D01*
X119627254Y-55488866D02*
X120389159Y-55488866D01*
X120008206Y-55869819D02*
X120008206Y-55107914D01*
X120865349Y-55488866D02*
X121627254Y-55488866D01*
X122103444Y-55488866D02*
X122865349Y-55488866D01*
X122484396Y-55869819D02*
X122484396Y-55107914D01*
X108839160Y-68562200D02*
X108982017Y-68609819D01*
X108982017Y-68609819D02*
X109220112Y-68609819D01*
X109220112Y-68609819D02*
X109315350Y-68562200D01*
X109315350Y-68562200D02*
X109362969Y-68514580D01*
X109362969Y-68514580D02*
X109410588Y-68419342D01*
X109410588Y-68419342D02*
X109410588Y-68324104D01*
X109410588Y-68324104D02*
X109362969Y-68228866D01*
X109362969Y-68228866D02*
X109315350Y-68181247D01*
X109315350Y-68181247D02*
X109220112Y-68133628D01*
X109220112Y-68133628D02*
X109029636Y-68086009D01*
X109029636Y-68086009D02*
X108934398Y-68038390D01*
X108934398Y-68038390D02*
X108886779Y-67990771D01*
X108886779Y-67990771D02*
X108839160Y-67895533D01*
X108839160Y-67895533D02*
X108839160Y-67800295D01*
X108839160Y-67800295D02*
X108886779Y-67705057D01*
X108886779Y-67705057D02*
X108934398Y-67657438D01*
X108934398Y-67657438D02*
X109029636Y-67609819D01*
X109029636Y-67609819D02*
X109267731Y-67609819D01*
X109267731Y-67609819D02*
X109410588Y-67657438D01*
X109839160Y-68609819D02*
X109839160Y-67609819D01*
X109839160Y-67609819D02*
X110220112Y-67609819D01*
X110220112Y-67609819D02*
X110315350Y-67657438D01*
X110315350Y-67657438D02*
X110362969Y-67705057D01*
X110362969Y-67705057D02*
X110410588Y-67800295D01*
X110410588Y-67800295D02*
X110410588Y-67943152D01*
X110410588Y-67943152D02*
X110362969Y-68038390D01*
X110362969Y-68038390D02*
X110315350Y-68086009D01*
X110315350Y-68086009D02*
X110220112Y-68133628D01*
X110220112Y-68133628D02*
X109839160Y-68133628D01*
X110839160Y-68609819D02*
X110839160Y-67609819D01*
X111839159Y-68609819D02*
X111267731Y-68609819D01*
X111553445Y-68609819D02*
X111553445Y-67609819D01*
X111553445Y-67609819D02*
X111458207Y-67752676D01*
X111458207Y-67752676D02*
X111362969Y-67847914D01*
X111362969Y-67847914D02*
X111267731Y-67895533D01*
X112029636Y-68705057D02*
X112791540Y-68705057D01*
X113029636Y-68609819D02*
X113029636Y-67609819D01*
X113029636Y-67609819D02*
X113362969Y-68324104D01*
X113362969Y-68324104D02*
X113696302Y-67609819D01*
X113696302Y-67609819D02*
X113696302Y-68609819D01*
X114172493Y-68609819D02*
X114172493Y-67609819D01*
X114601064Y-68562200D02*
X114743921Y-68609819D01*
X114743921Y-68609819D02*
X114982016Y-68609819D01*
X114982016Y-68609819D02*
X115077254Y-68562200D01*
X115077254Y-68562200D02*
X115124873Y-68514580D01*
X115124873Y-68514580D02*
X115172492Y-68419342D01*
X115172492Y-68419342D02*
X115172492Y-68324104D01*
X115172492Y-68324104D02*
X115124873Y-68228866D01*
X115124873Y-68228866D02*
X115077254Y-68181247D01*
X115077254Y-68181247D02*
X114982016Y-68133628D01*
X114982016Y-68133628D02*
X114791540Y-68086009D01*
X114791540Y-68086009D02*
X114696302Y-68038390D01*
X114696302Y-68038390D02*
X114648683Y-67990771D01*
X114648683Y-67990771D02*
X114601064Y-67895533D01*
X114601064Y-67895533D02*
X114601064Y-67800295D01*
X114601064Y-67800295D02*
X114648683Y-67705057D01*
X114648683Y-67705057D02*
X114696302Y-67657438D01*
X114696302Y-67657438D02*
X114791540Y-67609819D01*
X114791540Y-67609819D02*
X115029635Y-67609819D01*
X115029635Y-67609819D02*
X115172492Y-67657438D01*
X115791540Y-67609819D02*
X115982016Y-67609819D01*
X115982016Y-67609819D02*
X116077254Y-67657438D01*
X116077254Y-67657438D02*
X116172492Y-67752676D01*
X116172492Y-67752676D02*
X116220111Y-67943152D01*
X116220111Y-67943152D02*
X116220111Y-68276485D01*
X116220111Y-68276485D02*
X116172492Y-68466961D01*
X116172492Y-68466961D02*
X116077254Y-68562200D01*
X116077254Y-68562200D02*
X115982016Y-68609819D01*
X115982016Y-68609819D02*
X115791540Y-68609819D01*
X115791540Y-68609819D02*
X115696302Y-68562200D01*
X115696302Y-68562200D02*
X115601064Y-68466961D01*
X115601064Y-68466961D02*
X115553445Y-68276485D01*
X115553445Y-68276485D02*
X115553445Y-67943152D01*
X115553445Y-67943152D02*
X115601064Y-67752676D01*
X115601064Y-67752676D02*
X115696302Y-67657438D01*
X115696302Y-67657438D02*
X115791540Y-67609819D01*
X147283922Y-84869819D02*
X147855350Y-84869819D01*
X147569636Y-85869819D02*
X147569636Y-84869819D01*
X148760112Y-85774580D02*
X148712493Y-85822200D01*
X148712493Y-85822200D02*
X148569636Y-85869819D01*
X148569636Y-85869819D02*
X148474398Y-85869819D01*
X148474398Y-85869819D02*
X148331541Y-85822200D01*
X148331541Y-85822200D02*
X148236303Y-85726961D01*
X148236303Y-85726961D02*
X148188684Y-85631723D01*
X148188684Y-85631723D02*
X148141065Y-85441247D01*
X148141065Y-85441247D02*
X148141065Y-85298390D01*
X148141065Y-85298390D02*
X148188684Y-85107914D01*
X148188684Y-85107914D02*
X148236303Y-85012676D01*
X148236303Y-85012676D02*
X148331541Y-84917438D01*
X148331541Y-84917438D02*
X148474398Y-84869819D01*
X148474398Y-84869819D02*
X148569636Y-84869819D01*
X148569636Y-84869819D02*
X148712493Y-84917438D01*
X148712493Y-84917438D02*
X148760112Y-84965057D01*
X149617255Y-85203152D02*
X149617255Y-85869819D01*
X149379160Y-84822200D02*
X149141065Y-85536485D01*
X149141065Y-85536485D02*
X149760112Y-85536485D01*
X149902970Y-85965057D02*
X150664874Y-85965057D01*
X150760113Y-84869819D02*
X151331541Y-84869819D01*
X151045827Y-85869819D02*
X151045827Y-84869819D01*
X151664875Y-85488866D02*
X152426780Y-85488866D01*
X108153922Y-92439819D02*
X108725350Y-92439819D01*
X108439636Y-93439819D02*
X108439636Y-92439819D01*
X109630112Y-93344580D02*
X109582493Y-93392200D01*
X109582493Y-93392200D02*
X109439636Y-93439819D01*
X109439636Y-93439819D02*
X109344398Y-93439819D01*
X109344398Y-93439819D02*
X109201541Y-93392200D01*
X109201541Y-93392200D02*
X109106303Y-93296961D01*
X109106303Y-93296961D02*
X109058684Y-93201723D01*
X109058684Y-93201723D02*
X109011065Y-93011247D01*
X109011065Y-93011247D02*
X109011065Y-92868390D01*
X109011065Y-92868390D02*
X109058684Y-92677914D01*
X109058684Y-92677914D02*
X109106303Y-92582676D01*
X109106303Y-92582676D02*
X109201541Y-92487438D01*
X109201541Y-92487438D02*
X109344398Y-92439819D01*
X109344398Y-92439819D02*
X109439636Y-92439819D01*
X109439636Y-92439819D02*
X109582493Y-92487438D01*
X109582493Y-92487438D02*
X109630112Y-92535057D01*
X109963446Y-92439819D02*
X110582493Y-92439819D01*
X110582493Y-92439819D02*
X110249160Y-92820771D01*
X110249160Y-92820771D02*
X110392017Y-92820771D01*
X110392017Y-92820771D02*
X110487255Y-92868390D01*
X110487255Y-92868390D02*
X110534874Y-92916009D01*
X110534874Y-92916009D02*
X110582493Y-93011247D01*
X110582493Y-93011247D02*
X110582493Y-93249342D01*
X110582493Y-93249342D02*
X110534874Y-93344580D01*
X110534874Y-93344580D02*
X110487255Y-93392200D01*
X110487255Y-93392200D02*
X110392017Y-93439819D01*
X110392017Y-93439819D02*
X110106303Y-93439819D01*
X110106303Y-93439819D02*
X110011065Y-93392200D01*
X110011065Y-93392200D02*
X109963446Y-93344580D01*
X110772970Y-93535057D02*
X111534874Y-93535057D01*
X112344398Y-93344580D02*
X112296779Y-93392200D01*
X112296779Y-93392200D02*
X112153922Y-93439819D01*
X112153922Y-93439819D02*
X112058684Y-93439819D01*
X112058684Y-93439819D02*
X111915827Y-93392200D01*
X111915827Y-93392200D02*
X111820589Y-93296961D01*
X111820589Y-93296961D02*
X111772970Y-93201723D01*
X111772970Y-93201723D02*
X111725351Y-93011247D01*
X111725351Y-93011247D02*
X111725351Y-92868390D01*
X111725351Y-92868390D02*
X111772970Y-92677914D01*
X111772970Y-92677914D02*
X111820589Y-92582676D01*
X111820589Y-92582676D02*
X111915827Y-92487438D01*
X111915827Y-92487438D02*
X112058684Y-92439819D01*
X112058684Y-92439819D02*
X112153922Y-92439819D01*
X112153922Y-92439819D02*
X112296779Y-92487438D01*
X112296779Y-92487438D02*
X112344398Y-92535057D01*
X112725351Y-93392200D02*
X112868208Y-93439819D01*
X112868208Y-93439819D02*
X113106303Y-93439819D01*
X113106303Y-93439819D02*
X113201541Y-93392200D01*
X113201541Y-93392200D02*
X113249160Y-93344580D01*
X113249160Y-93344580D02*
X113296779Y-93249342D01*
X113296779Y-93249342D02*
X113296779Y-93154104D01*
X113296779Y-93154104D02*
X113249160Y-93058866D01*
X113249160Y-93058866D02*
X113201541Y-93011247D01*
X113201541Y-93011247D02*
X113106303Y-92963628D01*
X113106303Y-92963628D02*
X112915827Y-92916009D01*
X112915827Y-92916009D02*
X112820589Y-92868390D01*
X112820589Y-92868390D02*
X112772970Y-92820771D01*
X112772970Y-92820771D02*
X112725351Y-92725533D01*
X112725351Y-92725533D02*
X112725351Y-92630295D01*
X112725351Y-92630295D02*
X112772970Y-92535057D01*
X112772970Y-92535057D02*
X112820589Y-92487438D01*
X112820589Y-92487438D02*
X112915827Y-92439819D01*
X112915827Y-92439819D02*
X113153922Y-92439819D01*
X113153922Y-92439819D02*
X113296779Y-92487438D01*
X134009160Y-96302200D02*
X134152017Y-96349819D01*
X134152017Y-96349819D02*
X134390112Y-96349819D01*
X134390112Y-96349819D02*
X134485350Y-96302200D01*
X134485350Y-96302200D02*
X134532969Y-96254580D01*
X134532969Y-96254580D02*
X134580588Y-96159342D01*
X134580588Y-96159342D02*
X134580588Y-96064104D01*
X134580588Y-96064104D02*
X134532969Y-95968866D01*
X134532969Y-95968866D02*
X134485350Y-95921247D01*
X134485350Y-95921247D02*
X134390112Y-95873628D01*
X134390112Y-95873628D02*
X134199636Y-95826009D01*
X134199636Y-95826009D02*
X134104398Y-95778390D01*
X134104398Y-95778390D02*
X134056779Y-95730771D01*
X134056779Y-95730771D02*
X134009160Y-95635533D01*
X134009160Y-95635533D02*
X134009160Y-95540295D01*
X134009160Y-95540295D02*
X134056779Y-95445057D01*
X134056779Y-95445057D02*
X134104398Y-95397438D01*
X134104398Y-95397438D02*
X134199636Y-95349819D01*
X134199636Y-95349819D02*
X134437731Y-95349819D01*
X134437731Y-95349819D02*
X134580588Y-95397438D01*
X135009160Y-96349819D02*
X135009160Y-95349819D01*
X135009160Y-95349819D02*
X135390112Y-95349819D01*
X135390112Y-95349819D02*
X135485350Y-95397438D01*
X135485350Y-95397438D02*
X135532969Y-95445057D01*
X135532969Y-95445057D02*
X135580588Y-95540295D01*
X135580588Y-95540295D02*
X135580588Y-95683152D01*
X135580588Y-95683152D02*
X135532969Y-95778390D01*
X135532969Y-95778390D02*
X135485350Y-95826009D01*
X135485350Y-95826009D02*
X135390112Y-95873628D01*
X135390112Y-95873628D02*
X135009160Y-95873628D01*
X136009160Y-96349819D02*
X136009160Y-95349819D01*
X136675826Y-95349819D02*
X136866302Y-95349819D01*
X136866302Y-95349819D02*
X136961540Y-95397438D01*
X136961540Y-95397438D02*
X137056778Y-95492676D01*
X137056778Y-95492676D02*
X137104397Y-95683152D01*
X137104397Y-95683152D02*
X137104397Y-96016485D01*
X137104397Y-96016485D02*
X137056778Y-96206961D01*
X137056778Y-96206961D02*
X136961540Y-96302200D01*
X136961540Y-96302200D02*
X136866302Y-96349819D01*
X136866302Y-96349819D02*
X136675826Y-96349819D01*
X136675826Y-96349819D02*
X136580588Y-96302200D01*
X136580588Y-96302200D02*
X136485350Y-96206961D01*
X136485350Y-96206961D02*
X136437731Y-96016485D01*
X136437731Y-96016485D02*
X136437731Y-95683152D01*
X136437731Y-95683152D02*
X136485350Y-95492676D01*
X136485350Y-95492676D02*
X136580588Y-95397438D01*
X136580588Y-95397438D02*
X136675826Y-95349819D01*
X137294874Y-96445057D02*
X138056778Y-96445057D01*
X138247255Y-96302200D02*
X138390112Y-96349819D01*
X138390112Y-96349819D02*
X138628207Y-96349819D01*
X138628207Y-96349819D02*
X138723445Y-96302200D01*
X138723445Y-96302200D02*
X138771064Y-96254580D01*
X138771064Y-96254580D02*
X138818683Y-96159342D01*
X138818683Y-96159342D02*
X138818683Y-96064104D01*
X138818683Y-96064104D02*
X138771064Y-95968866D01*
X138771064Y-95968866D02*
X138723445Y-95921247D01*
X138723445Y-95921247D02*
X138628207Y-95873628D01*
X138628207Y-95873628D02*
X138437731Y-95826009D01*
X138437731Y-95826009D02*
X138342493Y-95778390D01*
X138342493Y-95778390D02*
X138294874Y-95730771D01*
X138294874Y-95730771D02*
X138247255Y-95635533D01*
X138247255Y-95635533D02*
X138247255Y-95540295D01*
X138247255Y-95540295D02*
X138294874Y-95445057D01*
X138294874Y-95445057D02*
X138342493Y-95397438D01*
X138342493Y-95397438D02*
X138437731Y-95349819D01*
X138437731Y-95349819D02*
X138675826Y-95349819D01*
X138675826Y-95349819D02*
X138818683Y-95397438D01*
X139818683Y-96254580D02*
X139771064Y-96302200D01*
X139771064Y-96302200D02*
X139628207Y-96349819D01*
X139628207Y-96349819D02*
X139532969Y-96349819D01*
X139532969Y-96349819D02*
X139390112Y-96302200D01*
X139390112Y-96302200D02*
X139294874Y-96206961D01*
X139294874Y-96206961D02*
X139247255Y-96111723D01*
X139247255Y-96111723D02*
X139199636Y-95921247D01*
X139199636Y-95921247D02*
X139199636Y-95778390D01*
X139199636Y-95778390D02*
X139247255Y-95587914D01*
X139247255Y-95587914D02*
X139294874Y-95492676D01*
X139294874Y-95492676D02*
X139390112Y-95397438D01*
X139390112Y-95397438D02*
X139532969Y-95349819D01*
X139532969Y-95349819D02*
X139628207Y-95349819D01*
X139628207Y-95349819D02*
X139771064Y-95397438D01*
X139771064Y-95397438D02*
X139818683Y-95445057D01*
X140247255Y-96349819D02*
X140247255Y-95349819D01*
X140818683Y-96349819D02*
X140390112Y-95778390D01*
X140818683Y-95349819D02*
X140247255Y-95921247D01*
X108536779Y-60818866D02*
X109298684Y-60818866D01*
X108917731Y-61199819D02*
X108917731Y-60437914D01*
X109679636Y-60199819D02*
X110298683Y-60199819D01*
X110298683Y-60199819D02*
X109965350Y-60580771D01*
X109965350Y-60580771D02*
X110108207Y-60580771D01*
X110108207Y-60580771D02*
X110203445Y-60628390D01*
X110203445Y-60628390D02*
X110251064Y-60676009D01*
X110251064Y-60676009D02*
X110298683Y-60771247D01*
X110298683Y-60771247D02*
X110298683Y-61009342D01*
X110298683Y-61009342D02*
X110251064Y-61104580D01*
X110251064Y-61104580D02*
X110203445Y-61152200D01*
X110203445Y-61152200D02*
X110108207Y-61199819D01*
X110108207Y-61199819D02*
X109822493Y-61199819D01*
X109822493Y-61199819D02*
X109727255Y-61152200D01*
X109727255Y-61152200D02*
X109679636Y-61104580D01*
X110727255Y-61104580D02*
X110774874Y-61152200D01*
X110774874Y-61152200D02*
X110727255Y-61199819D01*
X110727255Y-61199819D02*
X110679636Y-61152200D01*
X110679636Y-61152200D02*
X110727255Y-61104580D01*
X110727255Y-61104580D02*
X110727255Y-61199819D01*
X111108207Y-60199819D02*
X111727254Y-60199819D01*
X111727254Y-60199819D02*
X111393921Y-60580771D01*
X111393921Y-60580771D02*
X111536778Y-60580771D01*
X111536778Y-60580771D02*
X111632016Y-60628390D01*
X111632016Y-60628390D02*
X111679635Y-60676009D01*
X111679635Y-60676009D02*
X111727254Y-60771247D01*
X111727254Y-60771247D02*
X111727254Y-61009342D01*
X111727254Y-61009342D02*
X111679635Y-61104580D01*
X111679635Y-61104580D02*
X111632016Y-61152200D01*
X111632016Y-61152200D02*
X111536778Y-61199819D01*
X111536778Y-61199819D02*
X111251064Y-61199819D01*
X111251064Y-61199819D02*
X111155826Y-61152200D01*
X111155826Y-61152200D02*
X111108207Y-61104580D01*
X112012969Y-60199819D02*
X112346302Y-61199819D01*
X112346302Y-61199819D02*
X112679635Y-60199819D01*
X134176779Y-83118866D02*
X134938684Y-83118866D01*
X134557731Y-83499819D02*
X134557731Y-82737914D01*
X135319636Y-82499819D02*
X135938683Y-82499819D01*
X135938683Y-82499819D02*
X135605350Y-82880771D01*
X135605350Y-82880771D02*
X135748207Y-82880771D01*
X135748207Y-82880771D02*
X135843445Y-82928390D01*
X135843445Y-82928390D02*
X135891064Y-82976009D01*
X135891064Y-82976009D02*
X135938683Y-83071247D01*
X135938683Y-83071247D02*
X135938683Y-83309342D01*
X135938683Y-83309342D02*
X135891064Y-83404580D01*
X135891064Y-83404580D02*
X135843445Y-83452200D01*
X135843445Y-83452200D02*
X135748207Y-83499819D01*
X135748207Y-83499819D02*
X135462493Y-83499819D01*
X135462493Y-83499819D02*
X135367255Y-83452200D01*
X135367255Y-83452200D02*
X135319636Y-83404580D01*
X136367255Y-83404580D02*
X136414874Y-83452200D01*
X136414874Y-83452200D02*
X136367255Y-83499819D01*
X136367255Y-83499819D02*
X136319636Y-83452200D01*
X136319636Y-83452200D02*
X136367255Y-83404580D01*
X136367255Y-83404580D02*
X136367255Y-83499819D01*
X136748207Y-82499819D02*
X137367254Y-82499819D01*
X137367254Y-82499819D02*
X137033921Y-82880771D01*
X137033921Y-82880771D02*
X137176778Y-82880771D01*
X137176778Y-82880771D02*
X137272016Y-82928390D01*
X137272016Y-82928390D02*
X137319635Y-82976009D01*
X137319635Y-82976009D02*
X137367254Y-83071247D01*
X137367254Y-83071247D02*
X137367254Y-83309342D01*
X137367254Y-83309342D02*
X137319635Y-83404580D01*
X137319635Y-83404580D02*
X137272016Y-83452200D01*
X137272016Y-83452200D02*
X137176778Y-83499819D01*
X137176778Y-83499819D02*
X136891064Y-83499819D01*
X136891064Y-83499819D02*
X136795826Y-83452200D01*
X136795826Y-83452200D02*
X136748207Y-83404580D01*
X137652969Y-82499819D02*
X137986302Y-83499819D01*
X137986302Y-83499819D02*
X138319635Y-82499819D01*
X153743922Y-53319819D02*
X154315350Y-53319819D01*
X154029636Y-54319819D02*
X154029636Y-53319819D01*
X155220112Y-54224580D02*
X155172493Y-54272200D01*
X155172493Y-54272200D02*
X155029636Y-54319819D01*
X155029636Y-54319819D02*
X154934398Y-54319819D01*
X154934398Y-54319819D02*
X154791541Y-54272200D01*
X154791541Y-54272200D02*
X154696303Y-54176961D01*
X154696303Y-54176961D02*
X154648684Y-54081723D01*
X154648684Y-54081723D02*
X154601065Y-53891247D01*
X154601065Y-53891247D02*
X154601065Y-53748390D01*
X154601065Y-53748390D02*
X154648684Y-53557914D01*
X154648684Y-53557914D02*
X154696303Y-53462676D01*
X154696303Y-53462676D02*
X154791541Y-53367438D01*
X154791541Y-53367438D02*
X154934398Y-53319819D01*
X154934398Y-53319819D02*
X155029636Y-53319819D01*
X155029636Y-53319819D02*
X155172493Y-53367438D01*
X155172493Y-53367438D02*
X155220112Y-53415057D01*
X155553446Y-53319819D02*
X156172493Y-53319819D01*
X156172493Y-53319819D02*
X155839160Y-53700771D01*
X155839160Y-53700771D02*
X155982017Y-53700771D01*
X155982017Y-53700771D02*
X156077255Y-53748390D01*
X156077255Y-53748390D02*
X156124874Y-53796009D01*
X156124874Y-53796009D02*
X156172493Y-53891247D01*
X156172493Y-53891247D02*
X156172493Y-54129342D01*
X156172493Y-54129342D02*
X156124874Y-54224580D01*
X156124874Y-54224580D02*
X156077255Y-54272200D01*
X156077255Y-54272200D02*
X155982017Y-54319819D01*
X155982017Y-54319819D02*
X155696303Y-54319819D01*
X155696303Y-54319819D02*
X155601065Y-54272200D01*
X155601065Y-54272200D02*
X155553446Y-54224580D01*
X157934398Y-54224580D02*
X157886779Y-54272200D01*
X157886779Y-54272200D02*
X157743922Y-54319819D01*
X157743922Y-54319819D02*
X157648684Y-54319819D01*
X157648684Y-54319819D02*
X157505827Y-54272200D01*
X157505827Y-54272200D02*
X157410589Y-54176961D01*
X157410589Y-54176961D02*
X157362970Y-54081723D01*
X157362970Y-54081723D02*
X157315351Y-53891247D01*
X157315351Y-53891247D02*
X157315351Y-53748390D01*
X157315351Y-53748390D02*
X157362970Y-53557914D01*
X157362970Y-53557914D02*
X157410589Y-53462676D01*
X157410589Y-53462676D02*
X157505827Y-53367438D01*
X157505827Y-53367438D02*
X157648684Y-53319819D01*
X157648684Y-53319819D02*
X157743922Y-53319819D01*
X157743922Y-53319819D02*
X157886779Y-53367438D01*
X157886779Y-53367438D02*
X157934398Y-53415057D01*
X158315351Y-54272200D02*
X158458208Y-54319819D01*
X158458208Y-54319819D02*
X158696303Y-54319819D01*
X158696303Y-54319819D02*
X158791541Y-54272200D01*
X158791541Y-54272200D02*
X158839160Y-54224580D01*
X158839160Y-54224580D02*
X158886779Y-54129342D01*
X158886779Y-54129342D02*
X158886779Y-54034104D01*
X158886779Y-54034104D02*
X158839160Y-53938866D01*
X158839160Y-53938866D02*
X158791541Y-53891247D01*
X158791541Y-53891247D02*
X158696303Y-53843628D01*
X158696303Y-53843628D02*
X158505827Y-53796009D01*
X158505827Y-53796009D02*
X158410589Y-53748390D01*
X158410589Y-53748390D02*
X158362970Y-53700771D01*
X158362970Y-53700771D02*
X158315351Y-53605533D01*
X158315351Y-53605533D02*
X158315351Y-53510295D01*
X158315351Y-53510295D02*
X158362970Y-53415057D01*
X158362970Y-53415057D02*
X158410589Y-53367438D01*
X158410589Y-53367438D02*
X158505827Y-53319819D01*
X158505827Y-53319819D02*
X158743922Y-53319819D01*
X158743922Y-53319819D02*
X158886779Y-53367438D01*
X159220113Y-53319819D02*
X159839160Y-53319819D01*
X159839160Y-53319819D02*
X159505827Y-53700771D01*
X159505827Y-53700771D02*
X159648684Y-53700771D01*
X159648684Y-53700771D02*
X159743922Y-53748390D01*
X159743922Y-53748390D02*
X159791541Y-53796009D01*
X159791541Y-53796009D02*
X159839160Y-53891247D01*
X159839160Y-53891247D02*
X159839160Y-54129342D01*
X159839160Y-54129342D02*
X159791541Y-54224580D01*
X159791541Y-54224580D02*
X159743922Y-54272200D01*
X159743922Y-54272200D02*
X159648684Y-54319819D01*
X159648684Y-54319819D02*
X159362970Y-54319819D01*
X159362970Y-54319819D02*
X159267732Y-54272200D01*
X159267732Y-54272200D02*
X159220113Y-54224580D01*
X160886780Y-53319819D02*
X161458208Y-53319819D01*
X161172494Y-54319819D02*
X161172494Y-53319819D01*
X162362970Y-54224580D02*
X162315351Y-54272200D01*
X162315351Y-54272200D02*
X162172494Y-54319819D01*
X162172494Y-54319819D02*
X162077256Y-54319819D01*
X162077256Y-54319819D02*
X161934399Y-54272200D01*
X161934399Y-54272200D02*
X161839161Y-54176961D01*
X161839161Y-54176961D02*
X161791542Y-54081723D01*
X161791542Y-54081723D02*
X161743923Y-53891247D01*
X161743923Y-53891247D02*
X161743923Y-53748390D01*
X161743923Y-53748390D02*
X161791542Y-53557914D01*
X161791542Y-53557914D02*
X161839161Y-53462676D01*
X161839161Y-53462676D02*
X161934399Y-53367438D01*
X161934399Y-53367438D02*
X162077256Y-53319819D01*
X162077256Y-53319819D02*
X162172494Y-53319819D01*
X162172494Y-53319819D02*
X162315351Y-53367438D01*
X162315351Y-53367438D02*
X162362970Y-53415057D01*
X163220113Y-53653152D02*
X163220113Y-54319819D01*
X162982018Y-53272200D02*
X162743923Y-53986485D01*
X162743923Y-53986485D02*
X163362970Y-53986485D01*
X114610588Y-52469819D02*
X114039160Y-52469819D01*
X114324874Y-52469819D02*
X114324874Y-51469819D01*
X114324874Y-51469819D02*
X114229636Y-51612676D01*
X114229636Y-51612676D02*
X114134398Y-51707914D01*
X114134398Y-51707914D02*
X114039160Y-51755533D01*
X116515351Y-51565057D02*
X116562970Y-51517438D01*
X116562970Y-51517438D02*
X116658208Y-51469819D01*
X116658208Y-51469819D02*
X116896303Y-51469819D01*
X116896303Y-51469819D02*
X116991541Y-51517438D01*
X116991541Y-51517438D02*
X117039160Y-51565057D01*
X117039160Y-51565057D02*
X117086779Y-51660295D01*
X117086779Y-51660295D02*
X117086779Y-51755533D01*
X117086779Y-51755533D02*
X117039160Y-51898390D01*
X117039160Y-51898390D02*
X116467732Y-52469819D01*
X116467732Y-52469819D02*
X117086779Y-52469819D01*
X118943923Y-51469819D02*
X119562970Y-51469819D01*
X119562970Y-51469819D02*
X119229637Y-51850771D01*
X119229637Y-51850771D02*
X119372494Y-51850771D01*
X119372494Y-51850771D02*
X119467732Y-51898390D01*
X119467732Y-51898390D02*
X119515351Y-51946009D01*
X119515351Y-51946009D02*
X119562970Y-52041247D01*
X119562970Y-52041247D02*
X119562970Y-52279342D01*
X119562970Y-52279342D02*
X119515351Y-52374580D01*
X119515351Y-52374580D02*
X119467732Y-52422200D01*
X119467732Y-52422200D02*
X119372494Y-52469819D01*
X119372494Y-52469819D02*
X119086780Y-52469819D01*
X119086780Y-52469819D02*
X118991542Y-52422200D01*
X118991542Y-52422200D02*
X118943923Y-52374580D01*
X121943923Y-51803152D02*
X121943923Y-52469819D01*
X121705828Y-51422200D02*
X121467733Y-52136485D01*
X121467733Y-52136485D02*
X122086780Y-52136485D01*
X157708207Y-70874580D02*
X157660588Y-70922200D01*
X157660588Y-70922200D02*
X157517731Y-70969819D01*
X157517731Y-70969819D02*
X157422493Y-70969819D01*
X157422493Y-70969819D02*
X157279636Y-70922200D01*
X157279636Y-70922200D02*
X157184398Y-70826961D01*
X157184398Y-70826961D02*
X157136779Y-70731723D01*
X157136779Y-70731723D02*
X157089160Y-70541247D01*
X157089160Y-70541247D02*
X157089160Y-70398390D01*
X157089160Y-70398390D02*
X157136779Y-70207914D01*
X157136779Y-70207914D02*
X157184398Y-70112676D01*
X157184398Y-70112676D02*
X157279636Y-70017438D01*
X157279636Y-70017438D02*
X157422493Y-69969819D01*
X157422493Y-69969819D02*
X157517731Y-69969819D01*
X157517731Y-69969819D02*
X157660588Y-70017438D01*
X157660588Y-70017438D02*
X157708207Y-70065057D01*
X158089160Y-70922200D02*
X158232017Y-70969819D01*
X158232017Y-70969819D02*
X158470112Y-70969819D01*
X158470112Y-70969819D02*
X158565350Y-70922200D01*
X158565350Y-70922200D02*
X158612969Y-70874580D01*
X158612969Y-70874580D02*
X158660588Y-70779342D01*
X158660588Y-70779342D02*
X158660588Y-70684104D01*
X158660588Y-70684104D02*
X158612969Y-70588866D01*
X158612969Y-70588866D02*
X158565350Y-70541247D01*
X158565350Y-70541247D02*
X158470112Y-70493628D01*
X158470112Y-70493628D02*
X158279636Y-70446009D01*
X158279636Y-70446009D02*
X158184398Y-70398390D01*
X158184398Y-70398390D02*
X158136779Y-70350771D01*
X158136779Y-70350771D02*
X158089160Y-70255533D01*
X158089160Y-70255533D02*
X158089160Y-70160295D01*
X158089160Y-70160295D02*
X158136779Y-70065057D01*
X158136779Y-70065057D02*
X158184398Y-70017438D01*
X158184398Y-70017438D02*
X158279636Y-69969819D01*
X158279636Y-69969819D02*
X158517731Y-69969819D01*
X158517731Y-69969819D02*
X158660588Y-70017438D01*
X159517731Y-70303152D02*
X159517731Y-70969819D01*
X159279636Y-69922200D02*
X159041541Y-70636485D01*
X159041541Y-70636485D02*
X159660588Y-70636485D01*
X160660589Y-69969819D02*
X161232017Y-69969819D01*
X160946303Y-70969819D02*
X160946303Y-69969819D01*
X162136779Y-70874580D02*
X162089160Y-70922200D01*
X162089160Y-70922200D02*
X161946303Y-70969819D01*
X161946303Y-70969819D02*
X161851065Y-70969819D01*
X161851065Y-70969819D02*
X161708208Y-70922200D01*
X161708208Y-70922200D02*
X161612970Y-70826961D01*
X161612970Y-70826961D02*
X161565351Y-70731723D01*
X161565351Y-70731723D02*
X161517732Y-70541247D01*
X161517732Y-70541247D02*
X161517732Y-70398390D01*
X161517732Y-70398390D02*
X161565351Y-70207914D01*
X161565351Y-70207914D02*
X161612970Y-70112676D01*
X161612970Y-70112676D02*
X161708208Y-70017438D01*
X161708208Y-70017438D02*
X161851065Y-69969819D01*
X161851065Y-69969819D02*
X161946303Y-69969819D01*
X161946303Y-69969819D02*
X162089160Y-70017438D01*
X162089160Y-70017438D02*
X162136779Y-70065057D01*
X162993922Y-70303152D02*
X162993922Y-70969819D01*
X162755827Y-69922200D02*
X162517732Y-70636485D01*
X162517732Y-70636485D02*
X163136779Y-70636485D01*
X108689160Y-73582200D02*
X108832017Y-73629819D01*
X108832017Y-73629819D02*
X109070112Y-73629819D01*
X109070112Y-73629819D02*
X109165350Y-73582200D01*
X109165350Y-73582200D02*
X109212969Y-73534580D01*
X109212969Y-73534580D02*
X109260588Y-73439342D01*
X109260588Y-73439342D02*
X109260588Y-73344104D01*
X109260588Y-73344104D02*
X109212969Y-73248866D01*
X109212969Y-73248866D02*
X109165350Y-73201247D01*
X109165350Y-73201247D02*
X109070112Y-73153628D01*
X109070112Y-73153628D02*
X108879636Y-73106009D01*
X108879636Y-73106009D02*
X108784398Y-73058390D01*
X108784398Y-73058390D02*
X108736779Y-73010771D01*
X108736779Y-73010771D02*
X108689160Y-72915533D01*
X108689160Y-72915533D02*
X108689160Y-72820295D01*
X108689160Y-72820295D02*
X108736779Y-72725057D01*
X108736779Y-72725057D02*
X108784398Y-72677438D01*
X108784398Y-72677438D02*
X108879636Y-72629819D01*
X108879636Y-72629819D02*
X109117731Y-72629819D01*
X109117731Y-72629819D02*
X109260588Y-72677438D01*
X109689160Y-73629819D02*
X109689160Y-72629819D01*
X109689160Y-72629819D02*
X110070112Y-72629819D01*
X110070112Y-72629819D02*
X110165350Y-72677438D01*
X110165350Y-72677438D02*
X110212969Y-72725057D01*
X110212969Y-72725057D02*
X110260588Y-72820295D01*
X110260588Y-72820295D02*
X110260588Y-72963152D01*
X110260588Y-72963152D02*
X110212969Y-73058390D01*
X110212969Y-73058390D02*
X110165350Y-73106009D01*
X110165350Y-73106009D02*
X110070112Y-73153628D01*
X110070112Y-73153628D02*
X109689160Y-73153628D01*
X110689160Y-73629819D02*
X110689160Y-72629819D01*
X111689159Y-73629819D02*
X111117731Y-73629819D01*
X111403445Y-73629819D02*
X111403445Y-72629819D01*
X111403445Y-72629819D02*
X111308207Y-72772676D01*
X111308207Y-72772676D02*
X111212969Y-72867914D01*
X111212969Y-72867914D02*
X111117731Y-72915533D01*
X111879636Y-73725057D02*
X112641540Y-73725057D01*
X112832017Y-73582200D02*
X112974874Y-73629819D01*
X112974874Y-73629819D02*
X113212969Y-73629819D01*
X113212969Y-73629819D02*
X113308207Y-73582200D01*
X113308207Y-73582200D02*
X113355826Y-73534580D01*
X113355826Y-73534580D02*
X113403445Y-73439342D01*
X113403445Y-73439342D02*
X113403445Y-73344104D01*
X113403445Y-73344104D02*
X113355826Y-73248866D01*
X113355826Y-73248866D02*
X113308207Y-73201247D01*
X113308207Y-73201247D02*
X113212969Y-73153628D01*
X113212969Y-73153628D02*
X113022493Y-73106009D01*
X113022493Y-73106009D02*
X112927255Y-73058390D01*
X112927255Y-73058390D02*
X112879636Y-73010771D01*
X112879636Y-73010771D02*
X112832017Y-72915533D01*
X112832017Y-72915533D02*
X112832017Y-72820295D01*
X112832017Y-72820295D02*
X112879636Y-72725057D01*
X112879636Y-72725057D02*
X112927255Y-72677438D01*
X112927255Y-72677438D02*
X113022493Y-72629819D01*
X113022493Y-72629819D02*
X113260588Y-72629819D01*
X113260588Y-72629819D02*
X113403445Y-72677438D01*
X114403445Y-73534580D02*
X114355826Y-73582200D01*
X114355826Y-73582200D02*
X114212969Y-73629819D01*
X114212969Y-73629819D02*
X114117731Y-73629819D01*
X114117731Y-73629819D02*
X113974874Y-73582200D01*
X113974874Y-73582200D02*
X113879636Y-73486961D01*
X113879636Y-73486961D02*
X113832017Y-73391723D01*
X113832017Y-73391723D02*
X113784398Y-73201247D01*
X113784398Y-73201247D02*
X113784398Y-73058390D01*
X113784398Y-73058390D02*
X113832017Y-72867914D01*
X113832017Y-72867914D02*
X113879636Y-72772676D01*
X113879636Y-72772676D02*
X113974874Y-72677438D01*
X113974874Y-72677438D02*
X114117731Y-72629819D01*
X114117731Y-72629819D02*
X114212969Y-72629819D01*
X114212969Y-72629819D02*
X114355826Y-72677438D01*
X114355826Y-72677438D02*
X114403445Y-72725057D01*
X114832017Y-73629819D02*
X114832017Y-72629819D01*
X115403445Y-73629819D02*
X114974874Y-73058390D01*
X115403445Y-72629819D02*
X114832017Y-73201247D01*
X155789160Y-94572200D02*
X155932017Y-94619819D01*
X155932017Y-94619819D02*
X156170112Y-94619819D01*
X156170112Y-94619819D02*
X156265350Y-94572200D01*
X156265350Y-94572200D02*
X156312969Y-94524580D01*
X156312969Y-94524580D02*
X156360588Y-94429342D01*
X156360588Y-94429342D02*
X156360588Y-94334104D01*
X156360588Y-94334104D02*
X156312969Y-94238866D01*
X156312969Y-94238866D02*
X156265350Y-94191247D01*
X156265350Y-94191247D02*
X156170112Y-94143628D01*
X156170112Y-94143628D02*
X155979636Y-94096009D01*
X155979636Y-94096009D02*
X155884398Y-94048390D01*
X155884398Y-94048390D02*
X155836779Y-94000771D01*
X155836779Y-94000771D02*
X155789160Y-93905533D01*
X155789160Y-93905533D02*
X155789160Y-93810295D01*
X155789160Y-93810295D02*
X155836779Y-93715057D01*
X155836779Y-93715057D02*
X155884398Y-93667438D01*
X155884398Y-93667438D02*
X155979636Y-93619819D01*
X155979636Y-93619819D02*
X156217731Y-93619819D01*
X156217731Y-93619819D02*
X156360588Y-93667438D01*
X157360588Y-94524580D02*
X157312969Y-94572200D01*
X157312969Y-94572200D02*
X157170112Y-94619819D01*
X157170112Y-94619819D02*
X157074874Y-94619819D01*
X157074874Y-94619819D02*
X156932017Y-94572200D01*
X156932017Y-94572200D02*
X156836779Y-94476961D01*
X156836779Y-94476961D02*
X156789160Y-94381723D01*
X156789160Y-94381723D02*
X156741541Y-94191247D01*
X156741541Y-94191247D02*
X156741541Y-94048390D01*
X156741541Y-94048390D02*
X156789160Y-93857914D01*
X156789160Y-93857914D02*
X156836779Y-93762676D01*
X156836779Y-93762676D02*
X156932017Y-93667438D01*
X156932017Y-93667438D02*
X157074874Y-93619819D01*
X157074874Y-93619819D02*
X157170112Y-93619819D01*
X157170112Y-93619819D02*
X157312969Y-93667438D01*
X157312969Y-93667438D02*
X157360588Y-93715057D01*
X157789160Y-94619819D02*
X157789160Y-93619819D01*
X158360588Y-94619819D02*
X157932017Y-94048390D01*
X158360588Y-93619819D02*
X157789160Y-94191247D01*
X159551065Y-94619819D02*
X159551065Y-93619819D01*
X159551065Y-93619819D02*
X159884398Y-94334104D01*
X159884398Y-94334104D02*
X160217731Y-93619819D01*
X160217731Y-93619819D02*
X160217731Y-94619819D01*
X160693922Y-94619819D02*
X160693922Y-93619819D01*
X161122493Y-94572200D02*
X161265350Y-94619819D01*
X161265350Y-94619819D02*
X161503445Y-94619819D01*
X161503445Y-94619819D02*
X161598683Y-94572200D01*
X161598683Y-94572200D02*
X161646302Y-94524580D01*
X161646302Y-94524580D02*
X161693921Y-94429342D01*
X161693921Y-94429342D02*
X161693921Y-94334104D01*
X161693921Y-94334104D02*
X161646302Y-94238866D01*
X161646302Y-94238866D02*
X161598683Y-94191247D01*
X161598683Y-94191247D02*
X161503445Y-94143628D01*
X161503445Y-94143628D02*
X161312969Y-94096009D01*
X161312969Y-94096009D02*
X161217731Y-94048390D01*
X161217731Y-94048390D02*
X161170112Y-94000771D01*
X161170112Y-94000771D02*
X161122493Y-93905533D01*
X161122493Y-93905533D02*
X161122493Y-93810295D01*
X161122493Y-93810295D02*
X161170112Y-93715057D01*
X161170112Y-93715057D02*
X161217731Y-93667438D01*
X161217731Y-93667438D02*
X161312969Y-93619819D01*
X161312969Y-93619819D02*
X161551064Y-93619819D01*
X161551064Y-93619819D02*
X161693921Y-93667438D01*
X162312969Y-93619819D02*
X162503445Y-93619819D01*
X162503445Y-93619819D02*
X162598683Y-93667438D01*
X162598683Y-93667438D02*
X162693921Y-93762676D01*
X162693921Y-93762676D02*
X162741540Y-93953152D01*
X162741540Y-93953152D02*
X162741540Y-94286485D01*
X162741540Y-94286485D02*
X162693921Y-94476961D01*
X162693921Y-94476961D02*
X162598683Y-94572200D01*
X162598683Y-94572200D02*
X162503445Y-94619819D01*
X162503445Y-94619819D02*
X162312969Y-94619819D01*
X162312969Y-94619819D02*
X162217731Y-94572200D01*
X162217731Y-94572200D02*
X162122493Y-94476961D01*
X162122493Y-94476961D02*
X162074874Y-94286485D01*
X162074874Y-94286485D02*
X162074874Y-93953152D01*
X162074874Y-93953152D02*
X162122493Y-93762676D01*
X162122493Y-93762676D02*
X162217731Y-93667438D01*
X162217731Y-93667438D02*
X162312969Y-93619819D01*
X108469160Y-90752200D02*
X108612017Y-90799819D01*
X108612017Y-90799819D02*
X108850112Y-90799819D01*
X108850112Y-90799819D02*
X108945350Y-90752200D01*
X108945350Y-90752200D02*
X108992969Y-90704580D01*
X108992969Y-90704580D02*
X109040588Y-90609342D01*
X109040588Y-90609342D02*
X109040588Y-90514104D01*
X109040588Y-90514104D02*
X108992969Y-90418866D01*
X108992969Y-90418866D02*
X108945350Y-90371247D01*
X108945350Y-90371247D02*
X108850112Y-90323628D01*
X108850112Y-90323628D02*
X108659636Y-90276009D01*
X108659636Y-90276009D02*
X108564398Y-90228390D01*
X108564398Y-90228390D02*
X108516779Y-90180771D01*
X108516779Y-90180771D02*
X108469160Y-90085533D01*
X108469160Y-90085533D02*
X108469160Y-89990295D01*
X108469160Y-89990295D02*
X108516779Y-89895057D01*
X108516779Y-89895057D02*
X108564398Y-89847438D01*
X108564398Y-89847438D02*
X108659636Y-89799819D01*
X108659636Y-89799819D02*
X108897731Y-89799819D01*
X108897731Y-89799819D02*
X109040588Y-89847438D01*
X109469160Y-90799819D02*
X109469160Y-89799819D01*
X109469160Y-89799819D02*
X109850112Y-89799819D01*
X109850112Y-89799819D02*
X109945350Y-89847438D01*
X109945350Y-89847438D02*
X109992969Y-89895057D01*
X109992969Y-89895057D02*
X110040588Y-89990295D01*
X110040588Y-89990295D02*
X110040588Y-90133152D01*
X110040588Y-90133152D02*
X109992969Y-90228390D01*
X109992969Y-90228390D02*
X109945350Y-90276009D01*
X109945350Y-90276009D02*
X109850112Y-90323628D01*
X109850112Y-90323628D02*
X109469160Y-90323628D01*
X110469160Y-90799819D02*
X110469160Y-89799819D01*
X111469159Y-90799819D02*
X110897731Y-90799819D01*
X111183445Y-90799819D02*
X111183445Y-89799819D01*
X111183445Y-89799819D02*
X111088207Y-89942676D01*
X111088207Y-89942676D02*
X110992969Y-90037914D01*
X110992969Y-90037914D02*
X110897731Y-90085533D01*
X111659636Y-90895057D02*
X112421540Y-90895057D01*
X112659636Y-90799819D02*
X112659636Y-89799819D01*
X112659636Y-89799819D02*
X112992969Y-90514104D01*
X112992969Y-90514104D02*
X113326302Y-89799819D01*
X113326302Y-89799819D02*
X113326302Y-90799819D01*
X113802493Y-90799819D02*
X113802493Y-89799819D01*
X114231064Y-90752200D02*
X114373921Y-90799819D01*
X114373921Y-90799819D02*
X114612016Y-90799819D01*
X114612016Y-90799819D02*
X114707254Y-90752200D01*
X114707254Y-90752200D02*
X114754873Y-90704580D01*
X114754873Y-90704580D02*
X114802492Y-90609342D01*
X114802492Y-90609342D02*
X114802492Y-90514104D01*
X114802492Y-90514104D02*
X114754873Y-90418866D01*
X114754873Y-90418866D02*
X114707254Y-90371247D01*
X114707254Y-90371247D02*
X114612016Y-90323628D01*
X114612016Y-90323628D02*
X114421540Y-90276009D01*
X114421540Y-90276009D02*
X114326302Y-90228390D01*
X114326302Y-90228390D02*
X114278683Y-90180771D01*
X114278683Y-90180771D02*
X114231064Y-90085533D01*
X114231064Y-90085533D02*
X114231064Y-89990295D01*
X114231064Y-89990295D02*
X114278683Y-89895057D01*
X114278683Y-89895057D02*
X114326302Y-89847438D01*
X114326302Y-89847438D02*
X114421540Y-89799819D01*
X114421540Y-89799819D02*
X114659635Y-89799819D01*
X114659635Y-89799819D02*
X114802492Y-89847438D01*
X115421540Y-89799819D02*
X115612016Y-89799819D01*
X115612016Y-89799819D02*
X115707254Y-89847438D01*
X115707254Y-89847438D02*
X115802492Y-89942676D01*
X115802492Y-89942676D02*
X115850111Y-90133152D01*
X115850111Y-90133152D02*
X115850111Y-90466485D01*
X115850111Y-90466485D02*
X115802492Y-90656961D01*
X115802492Y-90656961D02*
X115707254Y-90752200D01*
X115707254Y-90752200D02*
X115612016Y-90799819D01*
X115612016Y-90799819D02*
X115421540Y-90799819D01*
X115421540Y-90799819D02*
X115326302Y-90752200D01*
X115326302Y-90752200D02*
X115231064Y-90656961D01*
X115231064Y-90656961D02*
X115183445Y-90466485D01*
X115183445Y-90466485D02*
X115183445Y-90133152D01*
X115183445Y-90133152D02*
X115231064Y-89942676D01*
X115231064Y-89942676D02*
X115326302Y-89847438D01*
X115326302Y-89847438D02*
X115421540Y-89799819D01*
X109430588Y-65287438D02*
X109335350Y-65239819D01*
X109335350Y-65239819D02*
X109192493Y-65239819D01*
X109192493Y-65239819D02*
X109049636Y-65287438D01*
X109049636Y-65287438D02*
X108954398Y-65382676D01*
X108954398Y-65382676D02*
X108906779Y-65477914D01*
X108906779Y-65477914D02*
X108859160Y-65668390D01*
X108859160Y-65668390D02*
X108859160Y-65811247D01*
X108859160Y-65811247D02*
X108906779Y-66001723D01*
X108906779Y-66001723D02*
X108954398Y-66096961D01*
X108954398Y-66096961D02*
X109049636Y-66192200D01*
X109049636Y-66192200D02*
X109192493Y-66239819D01*
X109192493Y-66239819D02*
X109287731Y-66239819D01*
X109287731Y-66239819D02*
X109430588Y-66192200D01*
X109430588Y-66192200D02*
X109478207Y-66144580D01*
X109478207Y-66144580D02*
X109478207Y-65811247D01*
X109478207Y-65811247D02*
X109287731Y-65811247D01*
X109906779Y-66239819D02*
X109906779Y-65239819D01*
X109906779Y-65239819D02*
X110478207Y-66239819D01*
X110478207Y-66239819D02*
X110478207Y-65239819D01*
X110954398Y-66239819D02*
X110954398Y-65239819D01*
X110954398Y-65239819D02*
X111192493Y-65239819D01*
X111192493Y-65239819D02*
X111335350Y-65287438D01*
X111335350Y-65287438D02*
X111430588Y-65382676D01*
X111430588Y-65382676D02*
X111478207Y-65477914D01*
X111478207Y-65477914D02*
X111525826Y-65668390D01*
X111525826Y-65668390D02*
X111525826Y-65811247D01*
X111525826Y-65811247D02*
X111478207Y-66001723D01*
X111478207Y-66001723D02*
X111430588Y-66096961D01*
X111430588Y-66096961D02*
X111335350Y-66192200D01*
X111335350Y-66192200D02*
X111192493Y-66239819D01*
X111192493Y-66239819D02*
X110954398Y-66239819D01*
X109250588Y-87357438D02*
X109155350Y-87309819D01*
X109155350Y-87309819D02*
X109012493Y-87309819D01*
X109012493Y-87309819D02*
X108869636Y-87357438D01*
X108869636Y-87357438D02*
X108774398Y-87452676D01*
X108774398Y-87452676D02*
X108726779Y-87547914D01*
X108726779Y-87547914D02*
X108679160Y-87738390D01*
X108679160Y-87738390D02*
X108679160Y-87881247D01*
X108679160Y-87881247D02*
X108726779Y-88071723D01*
X108726779Y-88071723D02*
X108774398Y-88166961D01*
X108774398Y-88166961D02*
X108869636Y-88262200D01*
X108869636Y-88262200D02*
X109012493Y-88309819D01*
X109012493Y-88309819D02*
X109107731Y-88309819D01*
X109107731Y-88309819D02*
X109250588Y-88262200D01*
X109250588Y-88262200D02*
X109298207Y-88214580D01*
X109298207Y-88214580D02*
X109298207Y-87881247D01*
X109298207Y-87881247D02*
X109107731Y-87881247D01*
X109726779Y-88309819D02*
X109726779Y-87309819D01*
X109726779Y-87309819D02*
X110298207Y-88309819D01*
X110298207Y-88309819D02*
X110298207Y-87309819D01*
X110774398Y-88309819D02*
X110774398Y-87309819D01*
X110774398Y-87309819D02*
X111012493Y-87309819D01*
X111012493Y-87309819D02*
X111155350Y-87357438D01*
X111155350Y-87357438D02*
X111250588Y-87452676D01*
X111250588Y-87452676D02*
X111298207Y-87547914D01*
X111298207Y-87547914D02*
X111345826Y-87738390D01*
X111345826Y-87738390D02*
X111345826Y-87881247D01*
X111345826Y-87881247D02*
X111298207Y-88071723D01*
X111298207Y-88071723D02*
X111250588Y-88166961D01*
X111250588Y-88166961D02*
X111155350Y-88262200D01*
X111155350Y-88262200D02*
X111012493Y-88309819D01*
X111012493Y-88309819D02*
X110774398Y-88309819D01*
X134139160Y-73592200D02*
X134282017Y-73639819D01*
X134282017Y-73639819D02*
X134520112Y-73639819D01*
X134520112Y-73639819D02*
X134615350Y-73592200D01*
X134615350Y-73592200D02*
X134662969Y-73544580D01*
X134662969Y-73544580D02*
X134710588Y-73449342D01*
X134710588Y-73449342D02*
X134710588Y-73354104D01*
X134710588Y-73354104D02*
X134662969Y-73258866D01*
X134662969Y-73258866D02*
X134615350Y-73211247D01*
X134615350Y-73211247D02*
X134520112Y-73163628D01*
X134520112Y-73163628D02*
X134329636Y-73116009D01*
X134329636Y-73116009D02*
X134234398Y-73068390D01*
X134234398Y-73068390D02*
X134186779Y-73020771D01*
X134186779Y-73020771D02*
X134139160Y-72925533D01*
X134139160Y-72925533D02*
X134139160Y-72830295D01*
X134139160Y-72830295D02*
X134186779Y-72735057D01*
X134186779Y-72735057D02*
X134234398Y-72687438D01*
X134234398Y-72687438D02*
X134329636Y-72639819D01*
X134329636Y-72639819D02*
X134567731Y-72639819D01*
X134567731Y-72639819D02*
X134710588Y-72687438D01*
X135139160Y-73639819D02*
X135139160Y-72639819D01*
X135139160Y-72639819D02*
X135520112Y-72639819D01*
X135520112Y-72639819D02*
X135615350Y-72687438D01*
X135615350Y-72687438D02*
X135662969Y-72735057D01*
X135662969Y-72735057D02*
X135710588Y-72830295D01*
X135710588Y-72830295D02*
X135710588Y-72973152D01*
X135710588Y-72973152D02*
X135662969Y-73068390D01*
X135662969Y-73068390D02*
X135615350Y-73116009D01*
X135615350Y-73116009D02*
X135520112Y-73163628D01*
X135520112Y-73163628D02*
X135139160Y-73163628D01*
X136139160Y-73639819D02*
X136139160Y-72639819D01*
X137139159Y-73639819D02*
X136567731Y-73639819D01*
X136853445Y-73639819D02*
X136853445Y-72639819D01*
X136853445Y-72639819D02*
X136758207Y-72782676D01*
X136758207Y-72782676D02*
X136662969Y-72877914D01*
X136662969Y-72877914D02*
X136567731Y-72925533D01*
X137329636Y-73735057D02*
X138091540Y-73735057D01*
X138282017Y-73592200D02*
X138424874Y-73639819D01*
X138424874Y-73639819D02*
X138662969Y-73639819D01*
X138662969Y-73639819D02*
X138758207Y-73592200D01*
X138758207Y-73592200D02*
X138805826Y-73544580D01*
X138805826Y-73544580D02*
X138853445Y-73449342D01*
X138853445Y-73449342D02*
X138853445Y-73354104D01*
X138853445Y-73354104D02*
X138805826Y-73258866D01*
X138805826Y-73258866D02*
X138758207Y-73211247D01*
X138758207Y-73211247D02*
X138662969Y-73163628D01*
X138662969Y-73163628D02*
X138472493Y-73116009D01*
X138472493Y-73116009D02*
X138377255Y-73068390D01*
X138377255Y-73068390D02*
X138329636Y-73020771D01*
X138329636Y-73020771D02*
X138282017Y-72925533D01*
X138282017Y-72925533D02*
X138282017Y-72830295D01*
X138282017Y-72830295D02*
X138329636Y-72735057D01*
X138329636Y-72735057D02*
X138377255Y-72687438D01*
X138377255Y-72687438D02*
X138472493Y-72639819D01*
X138472493Y-72639819D02*
X138710588Y-72639819D01*
X138710588Y-72639819D02*
X138853445Y-72687438D01*
X139853445Y-73544580D02*
X139805826Y-73592200D01*
X139805826Y-73592200D02*
X139662969Y-73639819D01*
X139662969Y-73639819D02*
X139567731Y-73639819D01*
X139567731Y-73639819D02*
X139424874Y-73592200D01*
X139424874Y-73592200D02*
X139329636Y-73496961D01*
X139329636Y-73496961D02*
X139282017Y-73401723D01*
X139282017Y-73401723D02*
X139234398Y-73211247D01*
X139234398Y-73211247D02*
X139234398Y-73068390D01*
X139234398Y-73068390D02*
X139282017Y-72877914D01*
X139282017Y-72877914D02*
X139329636Y-72782676D01*
X139329636Y-72782676D02*
X139424874Y-72687438D01*
X139424874Y-72687438D02*
X139567731Y-72639819D01*
X139567731Y-72639819D02*
X139662969Y-72639819D01*
X139662969Y-72639819D02*
X139805826Y-72687438D01*
X139805826Y-72687438D02*
X139853445Y-72735057D01*
X140282017Y-73639819D02*
X140282017Y-72639819D01*
X140853445Y-73639819D02*
X140424874Y-73068390D01*
X140853445Y-72639819D02*
X140282017Y-73211247D01*
X108326779Y-82918866D02*
X109088684Y-82918866D01*
X108707731Y-83299819D02*
X108707731Y-82537914D01*
X109469636Y-82299819D02*
X110088683Y-82299819D01*
X110088683Y-82299819D02*
X109755350Y-82680771D01*
X109755350Y-82680771D02*
X109898207Y-82680771D01*
X109898207Y-82680771D02*
X109993445Y-82728390D01*
X109993445Y-82728390D02*
X110041064Y-82776009D01*
X110041064Y-82776009D02*
X110088683Y-82871247D01*
X110088683Y-82871247D02*
X110088683Y-83109342D01*
X110088683Y-83109342D02*
X110041064Y-83204580D01*
X110041064Y-83204580D02*
X109993445Y-83252200D01*
X109993445Y-83252200D02*
X109898207Y-83299819D01*
X109898207Y-83299819D02*
X109612493Y-83299819D01*
X109612493Y-83299819D02*
X109517255Y-83252200D01*
X109517255Y-83252200D02*
X109469636Y-83204580D01*
X110517255Y-83204580D02*
X110564874Y-83252200D01*
X110564874Y-83252200D02*
X110517255Y-83299819D01*
X110517255Y-83299819D02*
X110469636Y-83252200D01*
X110469636Y-83252200D02*
X110517255Y-83204580D01*
X110517255Y-83204580D02*
X110517255Y-83299819D01*
X110898207Y-82299819D02*
X111517254Y-82299819D01*
X111517254Y-82299819D02*
X111183921Y-82680771D01*
X111183921Y-82680771D02*
X111326778Y-82680771D01*
X111326778Y-82680771D02*
X111422016Y-82728390D01*
X111422016Y-82728390D02*
X111469635Y-82776009D01*
X111469635Y-82776009D02*
X111517254Y-82871247D01*
X111517254Y-82871247D02*
X111517254Y-83109342D01*
X111517254Y-83109342D02*
X111469635Y-83204580D01*
X111469635Y-83204580D02*
X111422016Y-83252200D01*
X111422016Y-83252200D02*
X111326778Y-83299819D01*
X111326778Y-83299819D02*
X111041064Y-83299819D01*
X111041064Y-83299819D02*
X110945826Y-83252200D01*
X110945826Y-83252200D02*
X110898207Y-83204580D01*
X111802969Y-82299819D02*
X112136302Y-83299819D01*
X112136302Y-83299819D02*
X112469635Y-82299819D01*
X147413922Y-71219819D02*
X147985350Y-71219819D01*
X147699636Y-72219819D02*
X147699636Y-71219819D01*
X148890112Y-72124580D02*
X148842493Y-72172200D01*
X148842493Y-72172200D02*
X148699636Y-72219819D01*
X148699636Y-72219819D02*
X148604398Y-72219819D01*
X148604398Y-72219819D02*
X148461541Y-72172200D01*
X148461541Y-72172200D02*
X148366303Y-72076961D01*
X148366303Y-72076961D02*
X148318684Y-71981723D01*
X148318684Y-71981723D02*
X148271065Y-71791247D01*
X148271065Y-71791247D02*
X148271065Y-71648390D01*
X148271065Y-71648390D02*
X148318684Y-71457914D01*
X148318684Y-71457914D02*
X148366303Y-71362676D01*
X148366303Y-71362676D02*
X148461541Y-71267438D01*
X148461541Y-71267438D02*
X148604398Y-71219819D01*
X148604398Y-71219819D02*
X148699636Y-71219819D01*
X148699636Y-71219819D02*
X148842493Y-71267438D01*
X148842493Y-71267438D02*
X148890112Y-71315057D01*
X149271065Y-71315057D02*
X149318684Y-71267438D01*
X149318684Y-71267438D02*
X149413922Y-71219819D01*
X149413922Y-71219819D02*
X149652017Y-71219819D01*
X149652017Y-71219819D02*
X149747255Y-71267438D01*
X149747255Y-71267438D02*
X149794874Y-71315057D01*
X149794874Y-71315057D02*
X149842493Y-71410295D01*
X149842493Y-71410295D02*
X149842493Y-71505533D01*
X149842493Y-71505533D02*
X149794874Y-71648390D01*
X149794874Y-71648390D02*
X149223446Y-72219819D01*
X149223446Y-72219819D02*
X149842493Y-72219819D01*
X150032970Y-72315057D02*
X150794874Y-72315057D01*
X150890113Y-71219819D02*
X151461541Y-71219819D01*
X151175827Y-72219819D02*
X151175827Y-71219819D01*
X151794875Y-71838866D02*
X152556780Y-71838866D01*
X152175827Y-72219819D02*
X152175827Y-71457914D01*
X134159160Y-68512200D02*
X134302017Y-68559819D01*
X134302017Y-68559819D02*
X134540112Y-68559819D01*
X134540112Y-68559819D02*
X134635350Y-68512200D01*
X134635350Y-68512200D02*
X134682969Y-68464580D01*
X134682969Y-68464580D02*
X134730588Y-68369342D01*
X134730588Y-68369342D02*
X134730588Y-68274104D01*
X134730588Y-68274104D02*
X134682969Y-68178866D01*
X134682969Y-68178866D02*
X134635350Y-68131247D01*
X134635350Y-68131247D02*
X134540112Y-68083628D01*
X134540112Y-68083628D02*
X134349636Y-68036009D01*
X134349636Y-68036009D02*
X134254398Y-67988390D01*
X134254398Y-67988390D02*
X134206779Y-67940771D01*
X134206779Y-67940771D02*
X134159160Y-67845533D01*
X134159160Y-67845533D02*
X134159160Y-67750295D01*
X134159160Y-67750295D02*
X134206779Y-67655057D01*
X134206779Y-67655057D02*
X134254398Y-67607438D01*
X134254398Y-67607438D02*
X134349636Y-67559819D01*
X134349636Y-67559819D02*
X134587731Y-67559819D01*
X134587731Y-67559819D02*
X134730588Y-67607438D01*
X135159160Y-68559819D02*
X135159160Y-67559819D01*
X135159160Y-67559819D02*
X135540112Y-67559819D01*
X135540112Y-67559819D02*
X135635350Y-67607438D01*
X135635350Y-67607438D02*
X135682969Y-67655057D01*
X135682969Y-67655057D02*
X135730588Y-67750295D01*
X135730588Y-67750295D02*
X135730588Y-67893152D01*
X135730588Y-67893152D02*
X135682969Y-67988390D01*
X135682969Y-67988390D02*
X135635350Y-68036009D01*
X135635350Y-68036009D02*
X135540112Y-68083628D01*
X135540112Y-68083628D02*
X135159160Y-68083628D01*
X136159160Y-68559819D02*
X136159160Y-67559819D01*
X137159159Y-68559819D02*
X136587731Y-68559819D01*
X136873445Y-68559819D02*
X136873445Y-67559819D01*
X136873445Y-67559819D02*
X136778207Y-67702676D01*
X136778207Y-67702676D02*
X136682969Y-67797914D01*
X136682969Y-67797914D02*
X136587731Y-67845533D01*
X137349636Y-68655057D02*
X138111540Y-68655057D01*
X138349636Y-68559819D02*
X138349636Y-67559819D01*
X138349636Y-67559819D02*
X138682969Y-68274104D01*
X138682969Y-68274104D02*
X139016302Y-67559819D01*
X139016302Y-67559819D02*
X139016302Y-68559819D01*
X139492493Y-68559819D02*
X139492493Y-67559819D01*
X139921064Y-68512200D02*
X140063921Y-68559819D01*
X140063921Y-68559819D02*
X140302016Y-68559819D01*
X140302016Y-68559819D02*
X140397254Y-68512200D01*
X140397254Y-68512200D02*
X140444873Y-68464580D01*
X140444873Y-68464580D02*
X140492492Y-68369342D01*
X140492492Y-68369342D02*
X140492492Y-68274104D01*
X140492492Y-68274104D02*
X140444873Y-68178866D01*
X140444873Y-68178866D02*
X140397254Y-68131247D01*
X140397254Y-68131247D02*
X140302016Y-68083628D01*
X140302016Y-68083628D02*
X140111540Y-68036009D01*
X140111540Y-68036009D02*
X140016302Y-67988390D01*
X140016302Y-67988390D02*
X139968683Y-67940771D01*
X139968683Y-67940771D02*
X139921064Y-67845533D01*
X139921064Y-67845533D02*
X139921064Y-67750295D01*
X139921064Y-67750295D02*
X139968683Y-67655057D01*
X139968683Y-67655057D02*
X140016302Y-67607438D01*
X140016302Y-67607438D02*
X140111540Y-67559819D01*
X140111540Y-67559819D02*
X140349635Y-67559819D01*
X140349635Y-67559819D02*
X140492492Y-67607438D01*
X141111540Y-67559819D02*
X141302016Y-67559819D01*
X141302016Y-67559819D02*
X141397254Y-67607438D01*
X141397254Y-67607438D02*
X141492492Y-67702676D01*
X141492492Y-67702676D02*
X141540111Y-67893152D01*
X141540111Y-67893152D02*
X141540111Y-68226485D01*
X141540111Y-68226485D02*
X141492492Y-68416961D01*
X141492492Y-68416961D02*
X141397254Y-68512200D01*
X141397254Y-68512200D02*
X141302016Y-68559819D01*
X141302016Y-68559819D02*
X141111540Y-68559819D01*
X141111540Y-68559819D02*
X141016302Y-68512200D01*
X141016302Y-68512200D02*
X140921064Y-68416961D01*
X140921064Y-68416961D02*
X140873445Y-68226485D01*
X140873445Y-68226485D02*
X140873445Y-67893152D01*
X140873445Y-67893152D02*
X140921064Y-67702676D01*
X140921064Y-67702676D02*
X141016302Y-67607438D01*
X141016302Y-67607438D02*
X141111540Y-67559819D01*
X108509160Y-95742200D02*
X108652017Y-95789819D01*
X108652017Y-95789819D02*
X108890112Y-95789819D01*
X108890112Y-95789819D02*
X108985350Y-95742200D01*
X108985350Y-95742200D02*
X109032969Y-95694580D01*
X109032969Y-95694580D02*
X109080588Y-95599342D01*
X109080588Y-95599342D02*
X109080588Y-95504104D01*
X109080588Y-95504104D02*
X109032969Y-95408866D01*
X109032969Y-95408866D02*
X108985350Y-95361247D01*
X108985350Y-95361247D02*
X108890112Y-95313628D01*
X108890112Y-95313628D02*
X108699636Y-95266009D01*
X108699636Y-95266009D02*
X108604398Y-95218390D01*
X108604398Y-95218390D02*
X108556779Y-95170771D01*
X108556779Y-95170771D02*
X108509160Y-95075533D01*
X108509160Y-95075533D02*
X108509160Y-94980295D01*
X108509160Y-94980295D02*
X108556779Y-94885057D01*
X108556779Y-94885057D02*
X108604398Y-94837438D01*
X108604398Y-94837438D02*
X108699636Y-94789819D01*
X108699636Y-94789819D02*
X108937731Y-94789819D01*
X108937731Y-94789819D02*
X109080588Y-94837438D01*
X109509160Y-95789819D02*
X109509160Y-94789819D01*
X109509160Y-94789819D02*
X109890112Y-94789819D01*
X109890112Y-94789819D02*
X109985350Y-94837438D01*
X109985350Y-94837438D02*
X110032969Y-94885057D01*
X110032969Y-94885057D02*
X110080588Y-94980295D01*
X110080588Y-94980295D02*
X110080588Y-95123152D01*
X110080588Y-95123152D02*
X110032969Y-95218390D01*
X110032969Y-95218390D02*
X109985350Y-95266009D01*
X109985350Y-95266009D02*
X109890112Y-95313628D01*
X109890112Y-95313628D02*
X109509160Y-95313628D01*
X110509160Y-95789819D02*
X110509160Y-94789819D01*
X111509159Y-95789819D02*
X110937731Y-95789819D01*
X111223445Y-95789819D02*
X111223445Y-94789819D01*
X111223445Y-94789819D02*
X111128207Y-94932676D01*
X111128207Y-94932676D02*
X111032969Y-95027914D01*
X111032969Y-95027914D02*
X110937731Y-95075533D01*
X111699636Y-95885057D02*
X112461540Y-95885057D01*
X112652017Y-95742200D02*
X112794874Y-95789819D01*
X112794874Y-95789819D02*
X113032969Y-95789819D01*
X113032969Y-95789819D02*
X113128207Y-95742200D01*
X113128207Y-95742200D02*
X113175826Y-95694580D01*
X113175826Y-95694580D02*
X113223445Y-95599342D01*
X113223445Y-95599342D02*
X113223445Y-95504104D01*
X113223445Y-95504104D02*
X113175826Y-95408866D01*
X113175826Y-95408866D02*
X113128207Y-95361247D01*
X113128207Y-95361247D02*
X113032969Y-95313628D01*
X113032969Y-95313628D02*
X112842493Y-95266009D01*
X112842493Y-95266009D02*
X112747255Y-95218390D01*
X112747255Y-95218390D02*
X112699636Y-95170771D01*
X112699636Y-95170771D02*
X112652017Y-95075533D01*
X112652017Y-95075533D02*
X112652017Y-94980295D01*
X112652017Y-94980295D02*
X112699636Y-94885057D01*
X112699636Y-94885057D02*
X112747255Y-94837438D01*
X112747255Y-94837438D02*
X112842493Y-94789819D01*
X112842493Y-94789819D02*
X113080588Y-94789819D01*
X113080588Y-94789819D02*
X113223445Y-94837438D01*
X114223445Y-95694580D02*
X114175826Y-95742200D01*
X114175826Y-95742200D02*
X114032969Y-95789819D01*
X114032969Y-95789819D02*
X113937731Y-95789819D01*
X113937731Y-95789819D02*
X113794874Y-95742200D01*
X113794874Y-95742200D02*
X113699636Y-95646961D01*
X113699636Y-95646961D02*
X113652017Y-95551723D01*
X113652017Y-95551723D02*
X113604398Y-95361247D01*
X113604398Y-95361247D02*
X113604398Y-95218390D01*
X113604398Y-95218390D02*
X113652017Y-95027914D01*
X113652017Y-95027914D02*
X113699636Y-94932676D01*
X113699636Y-94932676D02*
X113794874Y-94837438D01*
X113794874Y-94837438D02*
X113937731Y-94789819D01*
X113937731Y-94789819D02*
X114032969Y-94789819D01*
X114032969Y-94789819D02*
X114175826Y-94837438D01*
X114175826Y-94837438D02*
X114223445Y-94885057D01*
X114652017Y-95789819D02*
X114652017Y-94789819D01*
X115223445Y-95789819D02*
X114794874Y-95218390D01*
X115223445Y-94789819D02*
X114652017Y-95361247D01*
X154193922Y-67319819D02*
X154765350Y-67319819D01*
X154479636Y-68319819D02*
X154479636Y-67319819D01*
X155670112Y-68224580D02*
X155622493Y-68272200D01*
X155622493Y-68272200D02*
X155479636Y-68319819D01*
X155479636Y-68319819D02*
X155384398Y-68319819D01*
X155384398Y-68319819D02*
X155241541Y-68272200D01*
X155241541Y-68272200D02*
X155146303Y-68176961D01*
X155146303Y-68176961D02*
X155098684Y-68081723D01*
X155098684Y-68081723D02*
X155051065Y-67891247D01*
X155051065Y-67891247D02*
X155051065Y-67748390D01*
X155051065Y-67748390D02*
X155098684Y-67557914D01*
X155098684Y-67557914D02*
X155146303Y-67462676D01*
X155146303Y-67462676D02*
X155241541Y-67367438D01*
X155241541Y-67367438D02*
X155384398Y-67319819D01*
X155384398Y-67319819D02*
X155479636Y-67319819D01*
X155479636Y-67319819D02*
X155622493Y-67367438D01*
X155622493Y-67367438D02*
X155670112Y-67415057D01*
X156622493Y-68319819D02*
X156051065Y-68319819D01*
X156336779Y-68319819D02*
X156336779Y-67319819D01*
X156336779Y-67319819D02*
X156241541Y-67462676D01*
X156241541Y-67462676D02*
X156146303Y-67557914D01*
X156146303Y-67557914D02*
X156051065Y-67605533D01*
X158384398Y-68224580D02*
X158336779Y-68272200D01*
X158336779Y-68272200D02*
X158193922Y-68319819D01*
X158193922Y-68319819D02*
X158098684Y-68319819D01*
X158098684Y-68319819D02*
X157955827Y-68272200D01*
X157955827Y-68272200D02*
X157860589Y-68176961D01*
X157860589Y-68176961D02*
X157812970Y-68081723D01*
X157812970Y-68081723D02*
X157765351Y-67891247D01*
X157765351Y-67891247D02*
X157765351Y-67748390D01*
X157765351Y-67748390D02*
X157812970Y-67557914D01*
X157812970Y-67557914D02*
X157860589Y-67462676D01*
X157860589Y-67462676D02*
X157955827Y-67367438D01*
X157955827Y-67367438D02*
X158098684Y-67319819D01*
X158098684Y-67319819D02*
X158193922Y-67319819D01*
X158193922Y-67319819D02*
X158336779Y-67367438D01*
X158336779Y-67367438D02*
X158384398Y-67415057D01*
X158765351Y-68272200D02*
X158908208Y-68319819D01*
X158908208Y-68319819D02*
X159146303Y-68319819D01*
X159146303Y-68319819D02*
X159241541Y-68272200D01*
X159241541Y-68272200D02*
X159289160Y-68224580D01*
X159289160Y-68224580D02*
X159336779Y-68129342D01*
X159336779Y-68129342D02*
X159336779Y-68034104D01*
X159336779Y-68034104D02*
X159289160Y-67938866D01*
X159289160Y-67938866D02*
X159241541Y-67891247D01*
X159241541Y-67891247D02*
X159146303Y-67843628D01*
X159146303Y-67843628D02*
X158955827Y-67796009D01*
X158955827Y-67796009D02*
X158860589Y-67748390D01*
X158860589Y-67748390D02*
X158812970Y-67700771D01*
X158812970Y-67700771D02*
X158765351Y-67605533D01*
X158765351Y-67605533D02*
X158765351Y-67510295D01*
X158765351Y-67510295D02*
X158812970Y-67415057D01*
X158812970Y-67415057D02*
X158860589Y-67367438D01*
X158860589Y-67367438D02*
X158955827Y-67319819D01*
X158955827Y-67319819D02*
X159193922Y-67319819D01*
X159193922Y-67319819D02*
X159336779Y-67367438D01*
X160289160Y-68319819D02*
X159717732Y-68319819D01*
X160003446Y-68319819D02*
X160003446Y-67319819D01*
X160003446Y-67319819D02*
X159908208Y-67462676D01*
X159908208Y-67462676D02*
X159812970Y-67557914D01*
X159812970Y-67557914D02*
X159717732Y-67605533D01*
X161336780Y-67319819D02*
X161908208Y-67319819D01*
X161622494Y-68319819D02*
X161622494Y-67319819D01*
X162812970Y-68224580D02*
X162765351Y-68272200D01*
X162765351Y-68272200D02*
X162622494Y-68319819D01*
X162622494Y-68319819D02*
X162527256Y-68319819D01*
X162527256Y-68319819D02*
X162384399Y-68272200D01*
X162384399Y-68272200D02*
X162289161Y-68176961D01*
X162289161Y-68176961D02*
X162241542Y-68081723D01*
X162241542Y-68081723D02*
X162193923Y-67891247D01*
X162193923Y-67891247D02*
X162193923Y-67748390D01*
X162193923Y-67748390D02*
X162241542Y-67557914D01*
X162241542Y-67557914D02*
X162289161Y-67462676D01*
X162289161Y-67462676D02*
X162384399Y-67367438D01*
X162384399Y-67367438D02*
X162527256Y-67319819D01*
X162527256Y-67319819D02*
X162622494Y-67319819D01*
X162622494Y-67319819D02*
X162765351Y-67367438D01*
X162765351Y-67367438D02*
X162812970Y-67415057D01*
X163670113Y-67653152D02*
X163670113Y-68319819D01*
X163432018Y-67272200D02*
X163193923Y-67986485D01*
X163193923Y-67986485D02*
X163812970Y-67986485D01*
X149700666Y-102634819D02*
X149700666Y-103349104D01*
X149700666Y-103349104D02*
X149653047Y-103491961D01*
X149653047Y-103491961D02*
X149557809Y-103587200D01*
X149557809Y-103587200D02*
X149414952Y-103634819D01*
X149414952Y-103634819D02*
X149319714Y-103634819D01*
X150129238Y-102730057D02*
X150176857Y-102682438D01*
X150176857Y-102682438D02*
X150272095Y-102634819D01*
X150272095Y-102634819D02*
X150510190Y-102634819D01*
X150510190Y-102634819D02*
X150605428Y-102682438D01*
X150605428Y-102682438D02*
X150653047Y-102730057D01*
X150653047Y-102730057D02*
X150700666Y-102825295D01*
X150700666Y-102825295D02*
X150700666Y-102920533D01*
X150700666Y-102920533D02*
X150653047Y-103063390D01*
X150653047Y-103063390D02*
X150081619Y-103634819D01*
X150081619Y-103634819D02*
X150700666Y-103634819D01*
X156646666Y-81014819D02*
X156646666Y-81729104D01*
X156646666Y-81729104D02*
X156599047Y-81871961D01*
X156599047Y-81871961D02*
X156503809Y-81967200D01*
X156503809Y-81967200D02*
X156360952Y-82014819D01*
X156360952Y-82014819D02*
X156265714Y-82014819D01*
X157122857Y-82014819D02*
X157122857Y-81014819D01*
X157122857Y-81014819D02*
X157503809Y-81014819D01*
X157503809Y-81014819D02*
X157599047Y-81062438D01*
X157599047Y-81062438D02*
X157646666Y-81110057D01*
X157646666Y-81110057D02*
X157694285Y-81205295D01*
X157694285Y-81205295D02*
X157694285Y-81348152D01*
X157694285Y-81348152D02*
X157646666Y-81443390D01*
X157646666Y-81443390D02*
X157599047Y-81491009D01*
X157599047Y-81491009D02*
X157503809Y-81538628D01*
X157503809Y-81538628D02*
X157122857Y-81538628D01*
X158075238Y-81110057D02*
X158122857Y-81062438D01*
X158122857Y-81062438D02*
X158218095Y-81014819D01*
X158218095Y-81014819D02*
X158456190Y-81014819D01*
X158456190Y-81014819D02*
X158551428Y-81062438D01*
X158551428Y-81062438D02*
X158599047Y-81110057D01*
X158599047Y-81110057D02*
X158646666Y-81205295D01*
X158646666Y-81205295D02*
X158646666Y-81300533D01*
X158646666Y-81300533D02*
X158599047Y-81443390D01*
X158599047Y-81443390D02*
X158027619Y-82014819D01*
X158027619Y-82014819D02*
X158646666Y-82014819D01*
X109366666Y-49554819D02*
X109366666Y-50269104D01*
X109366666Y-50269104D02*
X109319047Y-50411961D01*
X109319047Y-50411961D02*
X109223809Y-50507200D01*
X109223809Y-50507200D02*
X109080952Y-50554819D01*
X109080952Y-50554819D02*
X108985714Y-50554819D01*
X110366666Y-50554819D02*
X109795238Y-50554819D01*
X110080952Y-50554819D02*
X110080952Y-49554819D01*
X110080952Y-49554819D02*
X109985714Y-49697676D01*
X109985714Y-49697676D02*
X109890476Y-49792914D01*
X109890476Y-49792914D02*
X109795238Y-49840533D01*
X158066666Y-63204819D02*
X158066666Y-63919104D01*
X158066666Y-63919104D02*
X158019047Y-64061961D01*
X158019047Y-64061961D02*
X157923809Y-64157200D01*
X157923809Y-64157200D02*
X157780952Y-64204819D01*
X157780952Y-64204819D02*
X157685714Y-64204819D01*
X158542857Y-64204819D02*
X158542857Y-63204819D01*
X158542857Y-63204819D02*
X158923809Y-63204819D01*
X158923809Y-63204819D02*
X159019047Y-63252438D01*
X159019047Y-63252438D02*
X159066666Y-63300057D01*
X159066666Y-63300057D02*
X159114285Y-63395295D01*
X159114285Y-63395295D02*
X159114285Y-63538152D01*
X159114285Y-63538152D02*
X159066666Y-63633390D01*
X159066666Y-63633390D02*
X159019047Y-63681009D01*
X159019047Y-63681009D02*
X158923809Y-63728628D01*
X158923809Y-63728628D02*
X158542857Y-63728628D01*
X160066666Y-64204819D02*
X159495238Y-64204819D01*
X159780952Y-64204819D02*
X159780952Y-63204819D01*
X159780952Y-63204819D02*
X159685714Y-63347676D01*
X159685714Y-63347676D02*
X159590476Y-63442914D01*
X159590476Y-63442914D02*
X159495238Y-63490533D01*
X157466666Y-57754819D02*
X157466666Y-58469104D01*
X157466666Y-58469104D02*
X157419047Y-58611961D01*
X157419047Y-58611961D02*
X157323809Y-58707200D01*
X157323809Y-58707200D02*
X157180952Y-58754819D01*
X157180952Y-58754819D02*
X157085714Y-58754819D01*
X157942857Y-58754819D02*
X157942857Y-57754819D01*
X157942857Y-57754819D02*
X158323809Y-57754819D01*
X158323809Y-57754819D02*
X158419047Y-57802438D01*
X158419047Y-57802438D02*
X158466666Y-57850057D01*
X158466666Y-57850057D02*
X158514285Y-57945295D01*
X158514285Y-57945295D02*
X158514285Y-58088152D01*
X158514285Y-58088152D02*
X158466666Y-58183390D01*
X158466666Y-58183390D02*
X158419047Y-58231009D01*
X158419047Y-58231009D02*
X158323809Y-58278628D01*
X158323809Y-58278628D02*
X157942857Y-58278628D01*
X158847619Y-57754819D02*
X159466666Y-57754819D01*
X159466666Y-57754819D02*
X159133333Y-58135771D01*
X159133333Y-58135771D02*
X159276190Y-58135771D01*
X159276190Y-58135771D02*
X159371428Y-58183390D01*
X159371428Y-58183390D02*
X159419047Y-58231009D01*
X159419047Y-58231009D02*
X159466666Y-58326247D01*
X159466666Y-58326247D02*
X159466666Y-58564342D01*
X159466666Y-58564342D02*
X159419047Y-58659580D01*
X159419047Y-58659580D02*
X159371428Y-58707200D01*
X159371428Y-58707200D02*
X159276190Y-58754819D01*
X159276190Y-58754819D02*
X158990476Y-58754819D01*
X158990476Y-58754819D02*
X158895238Y-58707200D01*
X158895238Y-58707200D02*
X158847619Y-58659580D01*
X159266666Y-73654819D02*
X159266666Y-74369104D01*
X159266666Y-74369104D02*
X159219047Y-74511961D01*
X159219047Y-74511961D02*
X159123809Y-74607200D01*
X159123809Y-74607200D02*
X158980952Y-74654819D01*
X158980952Y-74654819D02*
X158885714Y-74654819D01*
X159742857Y-74654819D02*
X159742857Y-73654819D01*
X159742857Y-73654819D02*
X160123809Y-73654819D01*
X160123809Y-73654819D02*
X160219047Y-73702438D01*
X160219047Y-73702438D02*
X160266666Y-73750057D01*
X160266666Y-73750057D02*
X160314285Y-73845295D01*
X160314285Y-73845295D02*
X160314285Y-73988152D01*
X160314285Y-73988152D02*
X160266666Y-74083390D01*
X160266666Y-74083390D02*
X160219047Y-74131009D01*
X160219047Y-74131009D02*
X160123809Y-74178628D01*
X160123809Y-74178628D02*
X159742857Y-74178628D01*
X161171428Y-73988152D02*
X161171428Y-74654819D01*
X160933333Y-73607200D02*
X160695238Y-74321485D01*
X160695238Y-74321485D02*
X161314285Y-74321485D01*
X151345714Y-75239104D02*
X151821904Y-75239104D01*
X151250476Y-75524819D02*
X151583809Y-74524819D01*
X151583809Y-74524819D02*
X151917142Y-75524819D01*
X152202857Y-74620057D02*
X152250476Y-74572438D01*
X152250476Y-74572438D02*
X152345714Y-74524819D01*
X152345714Y-74524819D02*
X152583809Y-74524819D01*
X152583809Y-74524819D02*
X152679047Y-74572438D01*
X152679047Y-74572438D02*
X152726666Y-74620057D01*
X152726666Y-74620057D02*
X152774285Y-74715295D01*
X152774285Y-74715295D02*
X152774285Y-74810533D01*
X152774285Y-74810533D02*
X152726666Y-74953390D01*
X152726666Y-74953390D02*
X152155238Y-75524819D01*
X152155238Y-75524819D02*
X152774285Y-75524819D01*
X111419819Y-54181333D02*
X112134104Y-54181333D01*
X112134104Y-54181333D02*
X112276961Y-54228952D01*
X112276961Y-54228952D02*
X112372200Y-54324190D01*
X112372200Y-54324190D02*
X112419819Y-54467047D01*
X112419819Y-54467047D02*
X112419819Y-54562285D01*
X111419819Y-53800380D02*
X111419819Y-53181333D01*
X111419819Y-53181333D02*
X111800771Y-53514666D01*
X111800771Y-53514666D02*
X111800771Y-53371809D01*
X111800771Y-53371809D02*
X111848390Y-53276571D01*
X111848390Y-53276571D02*
X111896009Y-53228952D01*
X111896009Y-53228952D02*
X111991247Y-53181333D01*
X111991247Y-53181333D02*
X112229342Y-53181333D01*
X112229342Y-53181333D02*
X112324580Y-53228952D01*
X112324580Y-53228952D02*
X112372200Y-53276571D01*
X112372200Y-53276571D02*
X112419819Y-53371809D01*
X112419819Y-53371809D02*
X112419819Y-53657523D01*
X112419819Y-53657523D02*
X112372200Y-53752761D01*
X112372200Y-53752761D02*
X112324580Y-53800380D01*
X161066666Y-91304819D02*
X161066666Y-92019104D01*
X161066666Y-92019104D02*
X161019047Y-92161961D01*
X161019047Y-92161961D02*
X160923809Y-92257200D01*
X160923809Y-92257200D02*
X160780952Y-92304819D01*
X160780952Y-92304819D02*
X160685714Y-92304819D01*
X161971428Y-91638152D02*
X161971428Y-92304819D01*
X161733333Y-91257200D02*
X161495238Y-91971485D01*
X161495238Y-91971485D02*
X162114285Y-91971485D01*
X125635714Y-76589104D02*
X126111904Y-76589104D01*
X125540476Y-76874819D02*
X125873809Y-75874819D01*
X125873809Y-75874819D02*
X126207142Y-76874819D01*
X127064285Y-76874819D02*
X126492857Y-76874819D01*
X126778571Y-76874819D02*
X126778571Y-75874819D01*
X126778571Y-75874819D02*
X126683333Y-76017676D01*
X126683333Y-76017676D02*
X126588095Y-76112914D01*
X126588095Y-76112914D02*
X126492857Y-76160533D01*
X123035714Y-98219104D02*
X123511904Y-98219104D01*
X122940476Y-98504819D02*
X123273809Y-97504819D01*
X123273809Y-97504819D02*
X123607142Y-98504819D01*
X123845238Y-97504819D02*
X124464285Y-97504819D01*
X124464285Y-97504819D02*
X124130952Y-97885771D01*
X124130952Y-97885771D02*
X124273809Y-97885771D01*
X124273809Y-97885771D02*
X124369047Y-97933390D01*
X124369047Y-97933390D02*
X124416666Y-97981009D01*
X124416666Y-97981009D02*
X124464285Y-98076247D01*
X124464285Y-98076247D02*
X124464285Y-98314342D01*
X124464285Y-98314342D02*
X124416666Y-98409580D01*
X124416666Y-98409580D02*
X124369047Y-98457200D01*
X124369047Y-98457200D02*
X124273809Y-98504819D01*
X124273809Y-98504819D02*
X123988095Y-98504819D01*
X123988095Y-98504819D02*
X123892857Y-98457200D01*
X123892857Y-98457200D02*
X123845238Y-98409580D01*
X160866666Y-85304819D02*
X160866666Y-86019104D01*
X160866666Y-86019104D02*
X160819047Y-86161961D01*
X160819047Y-86161961D02*
X160723809Y-86257200D01*
X160723809Y-86257200D02*
X160580952Y-86304819D01*
X160580952Y-86304819D02*
X160485714Y-86304819D01*
X161819047Y-85304819D02*
X161342857Y-85304819D01*
X161342857Y-85304819D02*
X161295238Y-85781009D01*
X161295238Y-85781009D02*
X161342857Y-85733390D01*
X161342857Y-85733390D02*
X161438095Y-85685771D01*
X161438095Y-85685771D02*
X161676190Y-85685771D01*
X161676190Y-85685771D02*
X161771428Y-85733390D01*
X161771428Y-85733390D02*
X161819047Y-85781009D01*
X161819047Y-85781009D02*
X161866666Y-85876247D01*
X161866666Y-85876247D02*
X161866666Y-86114342D01*
X161866666Y-86114342D02*
X161819047Y-86209580D01*
X161819047Y-86209580D02*
X161771428Y-86257200D01*
X161771428Y-86257200D02*
X161676190Y-86304819D01*
X161676190Y-86304819D02*
X161438095Y-86304819D01*
X161438095Y-86304819D02*
X161342857Y-86257200D01*
X161342857Y-86257200D02*
X161295238Y-86209580D01*
X150975714Y-98809104D02*
X151451904Y-98809104D01*
X150880476Y-99094819D02*
X151213809Y-98094819D01*
X151213809Y-98094819D02*
X151547142Y-99094819D01*
X152309047Y-98428152D02*
X152309047Y-99094819D01*
X152070952Y-98047200D02*
X151832857Y-98761485D01*
X151832857Y-98761485D02*
X152451904Y-98761485D01*
D11*
%TO.C,JP2*%
X154850000Y-78300000D02*
X160350000Y-78300000D01*
X154850000Y-80250000D02*
X154850000Y-78300000D01*
X155900000Y-80800000D02*
X156500000Y-80800000D01*
X156200000Y-80500000D02*
X155900000Y-80800000D01*
X156500000Y-80800000D02*
X156200000Y-80500000D01*
X160350000Y-78300000D02*
X160350000Y-80250000D01*
X160350000Y-80250000D02*
X154850000Y-80250000D01*
%TO.C,J1*%
X142108000Y-50946331D02*
X102788000Y-50946331D01*
X142108000Y-38286331D02*
X142108000Y-50946331D01*
X113003000Y-51840669D02*
X112503000Y-51840669D01*
X112753000Y-51407656D02*
X113003000Y-51840669D01*
X112503000Y-51840669D02*
X112753000Y-51407656D01*
X102788000Y-50946331D02*
X102788000Y-38286331D01*
%TO.C,JP1*%
X156150000Y-64800000D02*
X161650000Y-64800000D01*
X156150000Y-66750000D02*
X156150000Y-64800000D01*
X157200000Y-67300000D02*
X157800000Y-67300000D01*
X157500000Y-67000000D02*
X157200000Y-67300000D01*
X157800000Y-67300000D02*
X157500000Y-67000000D01*
X161650000Y-64800000D02*
X161650000Y-66750000D01*
X161650000Y-66750000D02*
X156150000Y-66750000D01*
%TO.C,JP3*%
X155750000Y-54900000D02*
X161250000Y-54900000D01*
X155750000Y-56850000D02*
X155750000Y-54900000D01*
X156800000Y-57400000D02*
X157400000Y-57400000D01*
X157100000Y-57100000D02*
X156800000Y-57400000D01*
X157400000Y-57400000D02*
X157100000Y-57100000D01*
X161250000Y-54900000D02*
X161250000Y-56850000D01*
X161250000Y-56850000D02*
X155750000Y-56850000D01*
%TO.C,JP4*%
X161500000Y-73400000D02*
X158700000Y-73400000D01*
X161500000Y-71400000D02*
X161500000Y-73400000D01*
X158700000Y-73400000D02*
X158700000Y-71400000D01*
X158700000Y-71400000D02*
X161500000Y-71400000D01*
%TO.C,A2*%
X130556000Y-56642000D02*
X153416000Y-56642000D01*
X153416000Y-56642000D02*
X153416000Y-76962000D01*
X153416000Y-76962000D02*
X130556000Y-76962000D01*
X130556000Y-76962000D02*
X130556000Y-56642000D01*
%TO.C,J3*%
X112900000Y-54958000D02*
X112900000Y-53848000D01*
X113660000Y-54958000D02*
X112900000Y-54958000D01*
X114420000Y-54958000D02*
X123245000Y-54958000D01*
X114420000Y-54958000D02*
X114420000Y-54411471D01*
X123245000Y-54958000D02*
X123245000Y-54155530D01*
X123245000Y-53540470D02*
X123245000Y-52738000D01*
X114420000Y-53284529D02*
X114420000Y-52738000D01*
X114420000Y-52738000D02*
X123245000Y-52738000D01*
%TO.C,J4*%
X157370000Y-93010000D02*
X157370000Y-91900000D01*
X158130000Y-93010000D02*
X157370000Y-93010000D01*
X158890000Y-93010000D02*
X160095000Y-93010000D01*
X158890000Y-93010000D02*
X158890000Y-92463471D01*
X160095000Y-93010000D02*
X160095000Y-92207530D01*
X160095000Y-91592470D02*
X160095000Y-90790000D01*
X158890000Y-91336529D02*
X158890000Y-90790000D01*
X158890000Y-90790000D02*
X160095000Y-90790000D01*
%TO.C,A1*%
X104902000Y-56896000D02*
X127762000Y-56896000D01*
X127762000Y-56896000D02*
X127762000Y-77216000D01*
X127762000Y-77216000D02*
X104902000Y-77216000D01*
X104902000Y-77216000D02*
X104902000Y-56896000D01*
%TO.C,A3*%
X104648000Y-78994000D02*
X127508000Y-78994000D01*
X127508000Y-78994000D02*
X127508000Y-99314000D01*
X127508000Y-99314000D02*
X104648000Y-99314000D01*
X104648000Y-99314000D02*
X104648000Y-78994000D01*
%TO.C,J5*%
X157390000Y-87010000D02*
X157390000Y-85900000D01*
X158150000Y-87010000D02*
X157390000Y-87010000D01*
X158910000Y-87010000D02*
X160115000Y-87010000D01*
X158910000Y-87010000D02*
X158910000Y-86463471D01*
X160115000Y-87010000D02*
X160115000Y-86207530D01*
X160115000Y-85592470D02*
X160115000Y-84790000D01*
X158910000Y-85336529D02*
X158910000Y-84790000D01*
X158910000Y-84790000D02*
X160115000Y-84790000D01*
%TO.C,A4*%
X130302000Y-79248000D02*
X153162000Y-79248000D01*
X153162000Y-79248000D02*
X153162000Y-99568000D01*
X153162000Y-99568000D02*
X130302000Y-99568000D01*
X130302000Y-99568000D02*
X130302000Y-79248000D01*
%TD*%
M02*
