%TF.GenerationSoftware,KiCad,Pcbnew,7.0.1-0*%
%TF.CreationDate,2023-09-14T23:48:01-07:00*%
%TF.ProjectId,TC-board,54432d62-6f61-4726-942e-6b696361645f,rev?*%
%TF.SameCoordinates,Original*%
%TF.FileFunction,Legend,Top*%
%TF.FilePolarity,Positive*%
%FSLAX46Y46*%
G04 Gerber Fmt 4.6, Leading zero omitted, Abs format (unit mm)*
G04 Created by KiCad (PCBNEW 7.0.1-0) date 2023-09-14 23:48:01*
%MOMM*%
%LPD*%
G01*
G04 APERTURE LIST*
%ADD10C,0.150000*%
%ADD11C,0.127000*%
%ADD12C,0.149860*%
%ADD13C,0.120000*%
G04 APERTURE END LIST*
D10*
X134461904Y-87625238D02*
X134366666Y-87577619D01*
X134366666Y-87577619D02*
X134223809Y-87577619D01*
X134223809Y-87577619D02*
X134080952Y-87625238D01*
X134080952Y-87625238D02*
X133985714Y-87720476D01*
X133985714Y-87720476D02*
X133938095Y-87815714D01*
X133938095Y-87815714D02*
X133890476Y-88006190D01*
X133890476Y-88006190D02*
X133890476Y-88149047D01*
X133890476Y-88149047D02*
X133938095Y-88339523D01*
X133938095Y-88339523D02*
X133985714Y-88434761D01*
X133985714Y-88434761D02*
X134080952Y-88530000D01*
X134080952Y-88530000D02*
X134223809Y-88577619D01*
X134223809Y-88577619D02*
X134319047Y-88577619D01*
X134319047Y-88577619D02*
X134461904Y-88530000D01*
X134461904Y-88530000D02*
X134509523Y-88482380D01*
X134509523Y-88482380D02*
X134509523Y-88149047D01*
X134509523Y-88149047D02*
X134319047Y-88149047D01*
X134938095Y-88577619D02*
X134938095Y-87577619D01*
X134938095Y-87577619D02*
X135509523Y-88577619D01*
X135509523Y-88577619D02*
X135509523Y-87577619D01*
X135985714Y-88577619D02*
X135985714Y-87577619D01*
X135985714Y-87577619D02*
X136223809Y-87577619D01*
X136223809Y-87577619D02*
X136366666Y-87625238D01*
X136366666Y-87625238D02*
X136461904Y-87720476D01*
X136461904Y-87720476D02*
X136509523Y-87815714D01*
X136509523Y-87815714D02*
X136557142Y-88006190D01*
X136557142Y-88006190D02*
X136557142Y-88149047D01*
X136557142Y-88149047D02*
X136509523Y-88339523D01*
X136509523Y-88339523D02*
X136461904Y-88434761D01*
X136461904Y-88434761D02*
X136366666Y-88530000D01*
X136366666Y-88530000D02*
X136223809Y-88577619D01*
X136223809Y-88577619D02*
X135985714Y-88577619D01*
D11*
X119307288Y-45069523D02*
X119307288Y-44706666D01*
X119942288Y-44888095D02*
X119307288Y-44888095D01*
X119881811Y-44132142D02*
X119912050Y-44162380D01*
X119912050Y-44162380D02*
X119942288Y-44253094D01*
X119942288Y-44253094D02*
X119942288Y-44313570D01*
X119942288Y-44313570D02*
X119912050Y-44404285D01*
X119912050Y-44404285D02*
X119851573Y-44464761D01*
X119851573Y-44464761D02*
X119791097Y-44494999D01*
X119791097Y-44494999D02*
X119670145Y-44525237D01*
X119670145Y-44525237D02*
X119579430Y-44525237D01*
X119579430Y-44525237D02*
X119458478Y-44494999D01*
X119458478Y-44494999D02*
X119398002Y-44464761D01*
X119398002Y-44464761D02*
X119337526Y-44404285D01*
X119337526Y-44404285D02*
X119307288Y-44313570D01*
X119307288Y-44313570D02*
X119307288Y-44253094D01*
X119307288Y-44253094D02*
X119337526Y-44162380D01*
X119337526Y-44162380D02*
X119367764Y-44132142D01*
X119307288Y-43920475D02*
X119307288Y-43527380D01*
X119307288Y-43527380D02*
X119549192Y-43739047D01*
X119549192Y-43739047D02*
X119549192Y-43648332D01*
X119549192Y-43648332D02*
X119579430Y-43587856D01*
X119579430Y-43587856D02*
X119609669Y-43557618D01*
X119609669Y-43557618D02*
X119670145Y-43527380D01*
X119670145Y-43527380D02*
X119821335Y-43527380D01*
X119821335Y-43527380D02*
X119881811Y-43557618D01*
X119881811Y-43557618D02*
X119912050Y-43587856D01*
X119912050Y-43587856D02*
X119942288Y-43648332D01*
X119942288Y-43648332D02*
X119942288Y-43829761D01*
X119942288Y-43829761D02*
X119912050Y-43890237D01*
X119912050Y-43890237D02*
X119881811Y-43920475D01*
X120002764Y-43406428D02*
X120002764Y-42922618D01*
X119307288Y-42862141D02*
X119307288Y-42499284D01*
X119942288Y-42680713D02*
X119307288Y-42680713D01*
X119700383Y-42287617D02*
X119700383Y-41803808D01*
X119942288Y-42045712D02*
X119458478Y-42045712D01*
D10*
X121805238Y-62567619D02*
X122376666Y-62567619D01*
X122090952Y-63567619D02*
X122090952Y-62567619D01*
X123281428Y-63472380D02*
X123233809Y-63520000D01*
X123233809Y-63520000D02*
X123090952Y-63567619D01*
X123090952Y-63567619D02*
X122995714Y-63567619D01*
X122995714Y-63567619D02*
X122852857Y-63520000D01*
X122852857Y-63520000D02*
X122757619Y-63424761D01*
X122757619Y-63424761D02*
X122710000Y-63329523D01*
X122710000Y-63329523D02*
X122662381Y-63139047D01*
X122662381Y-63139047D02*
X122662381Y-62996190D01*
X122662381Y-62996190D02*
X122710000Y-62805714D01*
X122710000Y-62805714D02*
X122757619Y-62710476D01*
X122757619Y-62710476D02*
X122852857Y-62615238D01*
X122852857Y-62615238D02*
X122995714Y-62567619D01*
X122995714Y-62567619D02*
X123090952Y-62567619D01*
X123090952Y-62567619D02*
X123233809Y-62615238D01*
X123233809Y-62615238D02*
X123281428Y-62662857D01*
X124233809Y-63567619D02*
X123662381Y-63567619D01*
X123948095Y-63567619D02*
X123948095Y-62567619D01*
X123948095Y-62567619D02*
X123852857Y-62710476D01*
X123852857Y-62710476D02*
X123757619Y-62805714D01*
X123757619Y-62805714D02*
X123662381Y-62853333D01*
X124424286Y-63662857D02*
X125186190Y-63662857D01*
X125281429Y-62567619D02*
X125852857Y-62567619D01*
X125567143Y-63567619D02*
X125567143Y-62567619D01*
X126186191Y-63186666D02*
X126948096Y-63186666D01*
X147415238Y-62217619D02*
X147986666Y-62217619D01*
X147700952Y-63217619D02*
X147700952Y-62217619D01*
X148891428Y-63122380D02*
X148843809Y-63170000D01*
X148843809Y-63170000D02*
X148700952Y-63217619D01*
X148700952Y-63217619D02*
X148605714Y-63217619D01*
X148605714Y-63217619D02*
X148462857Y-63170000D01*
X148462857Y-63170000D02*
X148367619Y-63074761D01*
X148367619Y-63074761D02*
X148320000Y-62979523D01*
X148320000Y-62979523D02*
X148272381Y-62789047D01*
X148272381Y-62789047D02*
X148272381Y-62646190D01*
X148272381Y-62646190D02*
X148320000Y-62455714D01*
X148320000Y-62455714D02*
X148367619Y-62360476D01*
X148367619Y-62360476D02*
X148462857Y-62265238D01*
X148462857Y-62265238D02*
X148605714Y-62217619D01*
X148605714Y-62217619D02*
X148700952Y-62217619D01*
X148700952Y-62217619D02*
X148843809Y-62265238D01*
X148843809Y-62265238D02*
X148891428Y-62312857D01*
X149272381Y-62312857D02*
X149320000Y-62265238D01*
X149320000Y-62265238D02*
X149415238Y-62217619D01*
X149415238Y-62217619D02*
X149653333Y-62217619D01*
X149653333Y-62217619D02*
X149748571Y-62265238D01*
X149748571Y-62265238D02*
X149796190Y-62312857D01*
X149796190Y-62312857D02*
X149843809Y-62408095D01*
X149843809Y-62408095D02*
X149843809Y-62503333D01*
X149843809Y-62503333D02*
X149796190Y-62646190D01*
X149796190Y-62646190D02*
X149224762Y-63217619D01*
X149224762Y-63217619D02*
X149843809Y-63217619D01*
X150034286Y-63312857D02*
X150796190Y-63312857D01*
X150891429Y-62217619D02*
X151462857Y-62217619D01*
X151177143Y-63217619D02*
X151177143Y-62217619D01*
X151796191Y-62836666D02*
X152558096Y-62836666D01*
D11*
X161522050Y-87589047D02*
X161552288Y-87498333D01*
X161552288Y-87498333D02*
X161552288Y-87347142D01*
X161552288Y-87347142D02*
X161522050Y-87286666D01*
X161522050Y-87286666D02*
X161491811Y-87256428D01*
X161491811Y-87256428D02*
X161431335Y-87226190D01*
X161431335Y-87226190D02*
X161370859Y-87226190D01*
X161370859Y-87226190D02*
X161310383Y-87256428D01*
X161310383Y-87256428D02*
X161280145Y-87286666D01*
X161280145Y-87286666D02*
X161249907Y-87347142D01*
X161249907Y-87347142D02*
X161219669Y-87468095D01*
X161219669Y-87468095D02*
X161189430Y-87528571D01*
X161189430Y-87528571D02*
X161159192Y-87558809D01*
X161159192Y-87558809D02*
X161098716Y-87589047D01*
X161098716Y-87589047D02*
X161038240Y-87589047D01*
X161038240Y-87589047D02*
X160977764Y-87558809D01*
X160977764Y-87558809D02*
X160947526Y-87528571D01*
X160947526Y-87528571D02*
X160917288Y-87468095D01*
X160917288Y-87468095D02*
X160917288Y-87316904D01*
X160917288Y-87316904D02*
X160947526Y-87226190D01*
X161552288Y-86954047D02*
X160917288Y-86954047D01*
X160917288Y-86954047D02*
X160917288Y-86712142D01*
X160917288Y-86712142D02*
X160947526Y-86651666D01*
X160947526Y-86651666D02*
X160977764Y-86621428D01*
X160977764Y-86621428D02*
X161038240Y-86591190D01*
X161038240Y-86591190D02*
X161128954Y-86591190D01*
X161128954Y-86591190D02*
X161189430Y-86621428D01*
X161189430Y-86621428D02*
X161219669Y-86651666D01*
X161219669Y-86651666D02*
X161249907Y-86712142D01*
X161249907Y-86712142D02*
X161249907Y-86954047D01*
X161552288Y-86319047D02*
X160917288Y-86319047D01*
X161552288Y-85684047D02*
X161552288Y-86046904D01*
X161552288Y-85865476D02*
X160917288Y-85865476D01*
X160917288Y-85865476D02*
X161008002Y-85925952D01*
X161008002Y-85925952D02*
X161068478Y-85986428D01*
X161068478Y-85986428D02*
X161098716Y-86046904D01*
X161612764Y-85563095D02*
X161612764Y-85079285D01*
X161552288Y-84928094D02*
X160917288Y-84928094D01*
X160917288Y-84928094D02*
X161370859Y-84716427D01*
X161370859Y-84716427D02*
X160917288Y-84504761D01*
X160917288Y-84504761D02*
X161552288Y-84504761D01*
X161552288Y-84202380D02*
X160917288Y-84202380D01*
X161522050Y-83930237D02*
X161552288Y-83839523D01*
X161552288Y-83839523D02*
X161552288Y-83688332D01*
X161552288Y-83688332D02*
X161522050Y-83627856D01*
X161522050Y-83627856D02*
X161491811Y-83597618D01*
X161491811Y-83597618D02*
X161431335Y-83567380D01*
X161431335Y-83567380D02*
X161370859Y-83567380D01*
X161370859Y-83567380D02*
X161310383Y-83597618D01*
X161310383Y-83597618D02*
X161280145Y-83627856D01*
X161280145Y-83627856D02*
X161249907Y-83688332D01*
X161249907Y-83688332D02*
X161219669Y-83809285D01*
X161219669Y-83809285D02*
X161189430Y-83869761D01*
X161189430Y-83869761D02*
X161159192Y-83899999D01*
X161159192Y-83899999D02*
X161098716Y-83930237D01*
X161098716Y-83930237D02*
X161038240Y-83930237D01*
X161038240Y-83930237D02*
X160977764Y-83899999D01*
X160977764Y-83899999D02*
X160947526Y-83869761D01*
X160947526Y-83869761D02*
X160917288Y-83809285D01*
X160917288Y-83809285D02*
X160917288Y-83658094D01*
X160917288Y-83658094D02*
X160947526Y-83567380D01*
X160917288Y-83174285D02*
X160917288Y-83053332D01*
X160917288Y-83053332D02*
X160947526Y-82992856D01*
X160947526Y-82992856D02*
X161008002Y-82932380D01*
X161008002Y-82932380D02*
X161128954Y-82902142D01*
X161128954Y-82902142D02*
X161340621Y-82902142D01*
X161340621Y-82902142D02*
X161461573Y-82932380D01*
X161461573Y-82932380D02*
X161522050Y-82992856D01*
X161522050Y-82992856D02*
X161552288Y-83053332D01*
X161552288Y-83053332D02*
X161552288Y-83174285D01*
X161552288Y-83174285D02*
X161522050Y-83234761D01*
X161522050Y-83234761D02*
X161461573Y-83295237D01*
X161461573Y-83295237D02*
X161340621Y-83325475D01*
X161340621Y-83325475D02*
X161128954Y-83325475D01*
X161128954Y-83325475D02*
X161008002Y-83295237D01*
X161008002Y-83295237D02*
X160947526Y-83234761D01*
X160947526Y-83234761D02*
X160917288Y-83174285D01*
X154910476Y-77587288D02*
X155273333Y-77587288D01*
X155091904Y-78222288D02*
X155091904Y-77587288D01*
X155847857Y-78161811D02*
X155817619Y-78192050D01*
X155817619Y-78192050D02*
X155726905Y-78222288D01*
X155726905Y-78222288D02*
X155666429Y-78222288D01*
X155666429Y-78222288D02*
X155575714Y-78192050D01*
X155575714Y-78192050D02*
X155515238Y-78131573D01*
X155515238Y-78131573D02*
X155485000Y-78071097D01*
X155485000Y-78071097D02*
X155454762Y-77950145D01*
X155454762Y-77950145D02*
X155454762Y-77859430D01*
X155454762Y-77859430D02*
X155485000Y-77738478D01*
X155485000Y-77738478D02*
X155515238Y-77678002D01*
X155515238Y-77678002D02*
X155575714Y-77617526D01*
X155575714Y-77617526D02*
X155666429Y-77587288D01*
X155666429Y-77587288D02*
X155726905Y-77587288D01*
X155726905Y-77587288D02*
X155817619Y-77617526D01*
X155817619Y-77617526D02*
X155847857Y-77647764D01*
X156089762Y-77647764D02*
X156120000Y-77617526D01*
X156120000Y-77617526D02*
X156180476Y-77587288D01*
X156180476Y-77587288D02*
X156331667Y-77587288D01*
X156331667Y-77587288D02*
X156392143Y-77617526D01*
X156392143Y-77617526D02*
X156422381Y-77647764D01*
X156422381Y-77647764D02*
X156452619Y-77708240D01*
X156452619Y-77708240D02*
X156452619Y-77768716D01*
X156452619Y-77768716D02*
X156422381Y-77859430D01*
X156422381Y-77859430D02*
X156059524Y-78222288D01*
X156059524Y-78222288D02*
X156452619Y-78222288D01*
X157571429Y-78161811D02*
X157541191Y-78192050D01*
X157541191Y-78192050D02*
X157450477Y-78222288D01*
X157450477Y-78222288D02*
X157390001Y-78222288D01*
X157390001Y-78222288D02*
X157299286Y-78192050D01*
X157299286Y-78192050D02*
X157238810Y-78131573D01*
X157238810Y-78131573D02*
X157208572Y-78071097D01*
X157208572Y-78071097D02*
X157178334Y-77950145D01*
X157178334Y-77950145D02*
X157178334Y-77859430D01*
X157178334Y-77859430D02*
X157208572Y-77738478D01*
X157208572Y-77738478D02*
X157238810Y-77678002D01*
X157238810Y-77678002D02*
X157299286Y-77617526D01*
X157299286Y-77617526D02*
X157390001Y-77587288D01*
X157390001Y-77587288D02*
X157450477Y-77587288D01*
X157450477Y-77587288D02*
X157541191Y-77617526D01*
X157541191Y-77617526D02*
X157571429Y-77647764D01*
X157813334Y-78192050D02*
X157904048Y-78222288D01*
X157904048Y-78222288D02*
X158055239Y-78222288D01*
X158055239Y-78222288D02*
X158115715Y-78192050D01*
X158115715Y-78192050D02*
X158145953Y-78161811D01*
X158145953Y-78161811D02*
X158176191Y-78101335D01*
X158176191Y-78101335D02*
X158176191Y-78040859D01*
X158176191Y-78040859D02*
X158145953Y-77980383D01*
X158145953Y-77980383D02*
X158115715Y-77950145D01*
X158115715Y-77950145D02*
X158055239Y-77919907D01*
X158055239Y-77919907D02*
X157934286Y-77889669D01*
X157934286Y-77889669D02*
X157873810Y-77859430D01*
X157873810Y-77859430D02*
X157843572Y-77829192D01*
X157843572Y-77829192D02*
X157813334Y-77768716D01*
X157813334Y-77768716D02*
X157813334Y-77708240D01*
X157813334Y-77708240D02*
X157843572Y-77647764D01*
X157843572Y-77647764D02*
X157873810Y-77617526D01*
X157873810Y-77617526D02*
X157934286Y-77587288D01*
X157934286Y-77587288D02*
X158085477Y-77587288D01*
X158085477Y-77587288D02*
X158176191Y-77617526D01*
X158418096Y-77647764D02*
X158448334Y-77617526D01*
X158448334Y-77617526D02*
X158508810Y-77587288D01*
X158508810Y-77587288D02*
X158660001Y-77587288D01*
X158660001Y-77587288D02*
X158720477Y-77617526D01*
X158720477Y-77617526D02*
X158750715Y-77647764D01*
X158750715Y-77647764D02*
X158780953Y-77708240D01*
X158780953Y-77708240D02*
X158780953Y-77768716D01*
X158780953Y-77768716D02*
X158750715Y-77859430D01*
X158750715Y-77859430D02*
X158387858Y-78222288D01*
X158387858Y-78222288D02*
X158780953Y-78222288D01*
X159446192Y-77587288D02*
X159809049Y-77587288D01*
X159627620Y-78222288D02*
X159627620Y-77587288D01*
X160383573Y-78161811D02*
X160353335Y-78192050D01*
X160353335Y-78192050D02*
X160262621Y-78222288D01*
X160262621Y-78222288D02*
X160202145Y-78222288D01*
X160202145Y-78222288D02*
X160111430Y-78192050D01*
X160111430Y-78192050D02*
X160050954Y-78131573D01*
X160050954Y-78131573D02*
X160020716Y-78071097D01*
X160020716Y-78071097D02*
X159990478Y-77950145D01*
X159990478Y-77950145D02*
X159990478Y-77859430D01*
X159990478Y-77859430D02*
X160020716Y-77738478D01*
X160020716Y-77738478D02*
X160050954Y-77678002D01*
X160050954Y-77678002D02*
X160111430Y-77617526D01*
X160111430Y-77617526D02*
X160202145Y-77587288D01*
X160202145Y-77587288D02*
X160262621Y-77587288D01*
X160262621Y-77587288D02*
X160353335Y-77617526D01*
X160353335Y-77617526D02*
X160383573Y-77647764D01*
X160927859Y-77798954D02*
X160927859Y-78222288D01*
X160776668Y-77557050D02*
X160625478Y-78010621D01*
X160625478Y-78010621D02*
X161018573Y-78010621D01*
D10*
X121585238Y-84427619D02*
X122156666Y-84427619D01*
X121870952Y-85427619D02*
X121870952Y-84427619D01*
X123061428Y-85332380D02*
X123013809Y-85380000D01*
X123013809Y-85380000D02*
X122870952Y-85427619D01*
X122870952Y-85427619D02*
X122775714Y-85427619D01*
X122775714Y-85427619D02*
X122632857Y-85380000D01*
X122632857Y-85380000D02*
X122537619Y-85284761D01*
X122537619Y-85284761D02*
X122490000Y-85189523D01*
X122490000Y-85189523D02*
X122442381Y-84999047D01*
X122442381Y-84999047D02*
X122442381Y-84856190D01*
X122442381Y-84856190D02*
X122490000Y-84665714D01*
X122490000Y-84665714D02*
X122537619Y-84570476D01*
X122537619Y-84570476D02*
X122632857Y-84475238D01*
X122632857Y-84475238D02*
X122775714Y-84427619D01*
X122775714Y-84427619D02*
X122870952Y-84427619D01*
X122870952Y-84427619D02*
X123013809Y-84475238D01*
X123013809Y-84475238D02*
X123061428Y-84522857D01*
X123394762Y-84427619D02*
X124013809Y-84427619D01*
X124013809Y-84427619D02*
X123680476Y-84808571D01*
X123680476Y-84808571D02*
X123823333Y-84808571D01*
X123823333Y-84808571D02*
X123918571Y-84856190D01*
X123918571Y-84856190D02*
X123966190Y-84903809D01*
X123966190Y-84903809D02*
X124013809Y-84999047D01*
X124013809Y-84999047D02*
X124013809Y-85237142D01*
X124013809Y-85237142D02*
X123966190Y-85332380D01*
X123966190Y-85332380D02*
X123918571Y-85380000D01*
X123918571Y-85380000D02*
X123823333Y-85427619D01*
X123823333Y-85427619D02*
X123537619Y-85427619D01*
X123537619Y-85427619D02*
X123442381Y-85380000D01*
X123442381Y-85380000D02*
X123394762Y-85332380D01*
X124204286Y-85522857D02*
X124966190Y-85522857D01*
X125061429Y-84427619D02*
X125632857Y-84427619D01*
X125347143Y-85427619D02*
X125347143Y-84427619D01*
X125966191Y-85046666D02*
X126728096Y-85046666D01*
X121655238Y-70457619D02*
X122226666Y-70457619D01*
X121940952Y-71457619D02*
X121940952Y-70457619D01*
X123131428Y-71362380D02*
X123083809Y-71410000D01*
X123083809Y-71410000D02*
X122940952Y-71457619D01*
X122940952Y-71457619D02*
X122845714Y-71457619D01*
X122845714Y-71457619D02*
X122702857Y-71410000D01*
X122702857Y-71410000D02*
X122607619Y-71314761D01*
X122607619Y-71314761D02*
X122560000Y-71219523D01*
X122560000Y-71219523D02*
X122512381Y-71029047D01*
X122512381Y-71029047D02*
X122512381Y-70886190D01*
X122512381Y-70886190D02*
X122560000Y-70695714D01*
X122560000Y-70695714D02*
X122607619Y-70600476D01*
X122607619Y-70600476D02*
X122702857Y-70505238D01*
X122702857Y-70505238D02*
X122845714Y-70457619D01*
X122845714Y-70457619D02*
X122940952Y-70457619D01*
X122940952Y-70457619D02*
X123083809Y-70505238D01*
X123083809Y-70505238D02*
X123131428Y-70552857D01*
X124083809Y-71457619D02*
X123512381Y-71457619D01*
X123798095Y-71457619D02*
X123798095Y-70457619D01*
X123798095Y-70457619D02*
X123702857Y-70600476D01*
X123702857Y-70600476D02*
X123607619Y-70695714D01*
X123607619Y-70695714D02*
X123512381Y-70743333D01*
X124274286Y-71552857D02*
X125036190Y-71552857D01*
X125131429Y-70457619D02*
X125702857Y-70457619D01*
X125417143Y-71457619D02*
X125417143Y-70457619D01*
X126036191Y-71076666D02*
X126798096Y-71076666D01*
X126417143Y-71457619D02*
X126417143Y-70695714D01*
X133815238Y-92567619D02*
X134386666Y-92567619D01*
X134100952Y-93567619D02*
X134100952Y-92567619D01*
X135291428Y-93472380D02*
X135243809Y-93520000D01*
X135243809Y-93520000D02*
X135100952Y-93567619D01*
X135100952Y-93567619D02*
X135005714Y-93567619D01*
X135005714Y-93567619D02*
X134862857Y-93520000D01*
X134862857Y-93520000D02*
X134767619Y-93424761D01*
X134767619Y-93424761D02*
X134720000Y-93329523D01*
X134720000Y-93329523D02*
X134672381Y-93139047D01*
X134672381Y-93139047D02*
X134672381Y-92996190D01*
X134672381Y-92996190D02*
X134720000Y-92805714D01*
X134720000Y-92805714D02*
X134767619Y-92710476D01*
X134767619Y-92710476D02*
X134862857Y-92615238D01*
X134862857Y-92615238D02*
X135005714Y-92567619D01*
X135005714Y-92567619D02*
X135100952Y-92567619D01*
X135100952Y-92567619D02*
X135243809Y-92615238D01*
X135243809Y-92615238D02*
X135291428Y-92662857D01*
X136148571Y-92900952D02*
X136148571Y-93567619D01*
X135910476Y-92520000D02*
X135672381Y-93234285D01*
X135672381Y-93234285D02*
X136291428Y-93234285D01*
X136434286Y-93662857D02*
X137196190Y-93662857D01*
X138005714Y-93472380D02*
X137958095Y-93520000D01*
X137958095Y-93520000D02*
X137815238Y-93567619D01*
X137815238Y-93567619D02*
X137720000Y-93567619D01*
X137720000Y-93567619D02*
X137577143Y-93520000D01*
X137577143Y-93520000D02*
X137481905Y-93424761D01*
X137481905Y-93424761D02*
X137434286Y-93329523D01*
X137434286Y-93329523D02*
X137386667Y-93139047D01*
X137386667Y-93139047D02*
X137386667Y-92996190D01*
X137386667Y-92996190D02*
X137434286Y-92805714D01*
X137434286Y-92805714D02*
X137481905Y-92710476D01*
X137481905Y-92710476D02*
X137577143Y-92615238D01*
X137577143Y-92615238D02*
X137720000Y-92567619D01*
X137720000Y-92567619D02*
X137815238Y-92567619D01*
X137815238Y-92567619D02*
X137958095Y-92615238D01*
X137958095Y-92615238D02*
X138005714Y-92662857D01*
X138386667Y-93520000D02*
X138529524Y-93567619D01*
X138529524Y-93567619D02*
X138767619Y-93567619D01*
X138767619Y-93567619D02*
X138862857Y-93520000D01*
X138862857Y-93520000D02*
X138910476Y-93472380D01*
X138910476Y-93472380D02*
X138958095Y-93377142D01*
X138958095Y-93377142D02*
X138958095Y-93281904D01*
X138958095Y-93281904D02*
X138910476Y-93186666D01*
X138910476Y-93186666D02*
X138862857Y-93139047D01*
X138862857Y-93139047D02*
X138767619Y-93091428D01*
X138767619Y-93091428D02*
X138577143Y-93043809D01*
X138577143Y-93043809D02*
X138481905Y-92996190D01*
X138481905Y-92996190D02*
X138434286Y-92948571D01*
X138434286Y-92948571D02*
X138386667Y-92853333D01*
X138386667Y-92853333D02*
X138386667Y-92758095D01*
X138386667Y-92758095D02*
X138434286Y-92662857D01*
X138434286Y-92662857D02*
X138481905Y-92615238D01*
X138481905Y-92615238D02*
X138577143Y-92567619D01*
X138577143Y-92567619D02*
X138815238Y-92567619D01*
X138815238Y-92567619D02*
X138958095Y-92615238D01*
X133855238Y-70127619D02*
X134426666Y-70127619D01*
X134140952Y-71127619D02*
X134140952Y-70127619D01*
X135331428Y-71032380D02*
X135283809Y-71080000D01*
X135283809Y-71080000D02*
X135140952Y-71127619D01*
X135140952Y-71127619D02*
X135045714Y-71127619D01*
X135045714Y-71127619D02*
X134902857Y-71080000D01*
X134902857Y-71080000D02*
X134807619Y-70984761D01*
X134807619Y-70984761D02*
X134760000Y-70889523D01*
X134760000Y-70889523D02*
X134712381Y-70699047D01*
X134712381Y-70699047D02*
X134712381Y-70556190D01*
X134712381Y-70556190D02*
X134760000Y-70365714D01*
X134760000Y-70365714D02*
X134807619Y-70270476D01*
X134807619Y-70270476D02*
X134902857Y-70175238D01*
X134902857Y-70175238D02*
X135045714Y-70127619D01*
X135045714Y-70127619D02*
X135140952Y-70127619D01*
X135140952Y-70127619D02*
X135283809Y-70175238D01*
X135283809Y-70175238D02*
X135331428Y-70222857D01*
X135712381Y-70222857D02*
X135760000Y-70175238D01*
X135760000Y-70175238D02*
X135855238Y-70127619D01*
X135855238Y-70127619D02*
X136093333Y-70127619D01*
X136093333Y-70127619D02*
X136188571Y-70175238D01*
X136188571Y-70175238D02*
X136236190Y-70222857D01*
X136236190Y-70222857D02*
X136283809Y-70318095D01*
X136283809Y-70318095D02*
X136283809Y-70413333D01*
X136283809Y-70413333D02*
X136236190Y-70556190D01*
X136236190Y-70556190D02*
X135664762Y-71127619D01*
X135664762Y-71127619D02*
X136283809Y-71127619D01*
X136474286Y-71222857D02*
X137236190Y-71222857D01*
X138045714Y-71032380D02*
X137998095Y-71080000D01*
X137998095Y-71080000D02*
X137855238Y-71127619D01*
X137855238Y-71127619D02*
X137760000Y-71127619D01*
X137760000Y-71127619D02*
X137617143Y-71080000D01*
X137617143Y-71080000D02*
X137521905Y-70984761D01*
X137521905Y-70984761D02*
X137474286Y-70889523D01*
X137474286Y-70889523D02*
X137426667Y-70699047D01*
X137426667Y-70699047D02*
X137426667Y-70556190D01*
X137426667Y-70556190D02*
X137474286Y-70365714D01*
X137474286Y-70365714D02*
X137521905Y-70270476D01*
X137521905Y-70270476D02*
X137617143Y-70175238D01*
X137617143Y-70175238D02*
X137760000Y-70127619D01*
X137760000Y-70127619D02*
X137855238Y-70127619D01*
X137855238Y-70127619D02*
X137998095Y-70175238D01*
X137998095Y-70175238D02*
X138045714Y-70222857D01*
X138426667Y-71080000D02*
X138569524Y-71127619D01*
X138569524Y-71127619D02*
X138807619Y-71127619D01*
X138807619Y-71127619D02*
X138902857Y-71080000D01*
X138902857Y-71080000D02*
X138950476Y-71032380D01*
X138950476Y-71032380D02*
X138998095Y-70937142D01*
X138998095Y-70937142D02*
X138998095Y-70841904D01*
X138998095Y-70841904D02*
X138950476Y-70746666D01*
X138950476Y-70746666D02*
X138902857Y-70699047D01*
X138902857Y-70699047D02*
X138807619Y-70651428D01*
X138807619Y-70651428D02*
X138617143Y-70603809D01*
X138617143Y-70603809D02*
X138521905Y-70556190D01*
X138521905Y-70556190D02*
X138474286Y-70508571D01*
X138474286Y-70508571D02*
X138426667Y-70413333D01*
X138426667Y-70413333D02*
X138426667Y-70318095D01*
X138426667Y-70318095D02*
X138474286Y-70222857D01*
X138474286Y-70222857D02*
X138521905Y-70175238D01*
X138521905Y-70175238D02*
X138617143Y-70127619D01*
X138617143Y-70127619D02*
X138855238Y-70127619D01*
X138855238Y-70127619D02*
X138998095Y-70175238D01*
D11*
X161382050Y-94139047D02*
X161412288Y-94048333D01*
X161412288Y-94048333D02*
X161412288Y-93897142D01*
X161412288Y-93897142D02*
X161382050Y-93836666D01*
X161382050Y-93836666D02*
X161351811Y-93806428D01*
X161351811Y-93806428D02*
X161291335Y-93776190D01*
X161291335Y-93776190D02*
X161230859Y-93776190D01*
X161230859Y-93776190D02*
X161170383Y-93806428D01*
X161170383Y-93806428D02*
X161140145Y-93836666D01*
X161140145Y-93836666D02*
X161109907Y-93897142D01*
X161109907Y-93897142D02*
X161079669Y-94018095D01*
X161079669Y-94018095D02*
X161049430Y-94078571D01*
X161049430Y-94078571D02*
X161019192Y-94108809D01*
X161019192Y-94108809D02*
X160958716Y-94139047D01*
X160958716Y-94139047D02*
X160898240Y-94139047D01*
X160898240Y-94139047D02*
X160837764Y-94108809D01*
X160837764Y-94108809D02*
X160807526Y-94078571D01*
X160807526Y-94078571D02*
X160777288Y-94018095D01*
X160777288Y-94018095D02*
X160777288Y-93866904D01*
X160777288Y-93866904D02*
X160807526Y-93776190D01*
X161412288Y-93504047D02*
X160777288Y-93504047D01*
X160777288Y-93504047D02*
X160777288Y-93262142D01*
X160777288Y-93262142D02*
X160807526Y-93201666D01*
X160807526Y-93201666D02*
X160837764Y-93171428D01*
X160837764Y-93171428D02*
X160898240Y-93141190D01*
X160898240Y-93141190D02*
X160988954Y-93141190D01*
X160988954Y-93141190D02*
X161049430Y-93171428D01*
X161049430Y-93171428D02*
X161079669Y-93201666D01*
X161079669Y-93201666D02*
X161109907Y-93262142D01*
X161109907Y-93262142D02*
X161109907Y-93504047D01*
X161412288Y-92869047D02*
X160777288Y-92869047D01*
X160777288Y-92445714D02*
X160777288Y-92324761D01*
X160777288Y-92324761D02*
X160807526Y-92264285D01*
X160807526Y-92264285D02*
X160868002Y-92203809D01*
X160868002Y-92203809D02*
X160988954Y-92173571D01*
X160988954Y-92173571D02*
X161200621Y-92173571D01*
X161200621Y-92173571D02*
X161321573Y-92203809D01*
X161321573Y-92203809D02*
X161382050Y-92264285D01*
X161382050Y-92264285D02*
X161412288Y-92324761D01*
X161412288Y-92324761D02*
X161412288Y-92445714D01*
X161412288Y-92445714D02*
X161382050Y-92506190D01*
X161382050Y-92506190D02*
X161321573Y-92566666D01*
X161321573Y-92566666D02*
X161200621Y-92596904D01*
X161200621Y-92596904D02*
X160988954Y-92596904D01*
X160988954Y-92596904D02*
X160868002Y-92566666D01*
X160868002Y-92566666D02*
X160807526Y-92506190D01*
X160807526Y-92506190D02*
X160777288Y-92445714D01*
X161472764Y-92052619D02*
X161472764Y-91568809D01*
X161412288Y-91417618D02*
X160777288Y-91417618D01*
X160777288Y-91417618D02*
X161230859Y-91205951D01*
X161230859Y-91205951D02*
X160777288Y-90994285D01*
X160777288Y-90994285D02*
X161412288Y-90994285D01*
X161412288Y-90691904D02*
X160777288Y-90691904D01*
X161382050Y-90419761D02*
X161412288Y-90329047D01*
X161412288Y-90329047D02*
X161412288Y-90177856D01*
X161412288Y-90177856D02*
X161382050Y-90117380D01*
X161382050Y-90117380D02*
X161351811Y-90087142D01*
X161351811Y-90087142D02*
X161291335Y-90056904D01*
X161291335Y-90056904D02*
X161230859Y-90056904D01*
X161230859Y-90056904D02*
X161170383Y-90087142D01*
X161170383Y-90087142D02*
X161140145Y-90117380D01*
X161140145Y-90117380D02*
X161109907Y-90177856D01*
X161109907Y-90177856D02*
X161079669Y-90298809D01*
X161079669Y-90298809D02*
X161049430Y-90359285D01*
X161049430Y-90359285D02*
X161019192Y-90389523D01*
X161019192Y-90389523D02*
X160958716Y-90419761D01*
X160958716Y-90419761D02*
X160898240Y-90419761D01*
X160898240Y-90419761D02*
X160837764Y-90389523D01*
X160837764Y-90389523D02*
X160807526Y-90359285D01*
X160807526Y-90359285D02*
X160777288Y-90298809D01*
X160777288Y-90298809D02*
X160777288Y-90147618D01*
X160777288Y-90147618D02*
X160807526Y-90056904D01*
X160777288Y-89663809D02*
X160777288Y-89542856D01*
X160777288Y-89542856D02*
X160807526Y-89482380D01*
X160807526Y-89482380D02*
X160868002Y-89421904D01*
X160868002Y-89421904D02*
X160988954Y-89391666D01*
X160988954Y-89391666D02*
X161200621Y-89391666D01*
X161200621Y-89391666D02*
X161321573Y-89421904D01*
X161321573Y-89421904D02*
X161382050Y-89482380D01*
X161382050Y-89482380D02*
X161412288Y-89542856D01*
X161412288Y-89542856D02*
X161412288Y-89663809D01*
X161412288Y-89663809D02*
X161382050Y-89724285D01*
X161382050Y-89724285D02*
X161321573Y-89784761D01*
X161321573Y-89784761D02*
X161200621Y-89814999D01*
X161200621Y-89814999D02*
X160988954Y-89814999D01*
X160988954Y-89814999D02*
X160868002Y-89784761D01*
X160868002Y-89784761D02*
X160807526Y-89724285D01*
X160807526Y-89724285D02*
X160777288Y-89663809D01*
D10*
X108335238Y-70257619D02*
X108906666Y-70257619D01*
X108620952Y-71257619D02*
X108620952Y-70257619D01*
X109811428Y-71162380D02*
X109763809Y-71210000D01*
X109763809Y-71210000D02*
X109620952Y-71257619D01*
X109620952Y-71257619D02*
X109525714Y-71257619D01*
X109525714Y-71257619D02*
X109382857Y-71210000D01*
X109382857Y-71210000D02*
X109287619Y-71114761D01*
X109287619Y-71114761D02*
X109240000Y-71019523D01*
X109240000Y-71019523D02*
X109192381Y-70829047D01*
X109192381Y-70829047D02*
X109192381Y-70686190D01*
X109192381Y-70686190D02*
X109240000Y-70495714D01*
X109240000Y-70495714D02*
X109287619Y-70400476D01*
X109287619Y-70400476D02*
X109382857Y-70305238D01*
X109382857Y-70305238D02*
X109525714Y-70257619D01*
X109525714Y-70257619D02*
X109620952Y-70257619D01*
X109620952Y-70257619D02*
X109763809Y-70305238D01*
X109763809Y-70305238D02*
X109811428Y-70352857D01*
X110763809Y-71257619D02*
X110192381Y-71257619D01*
X110478095Y-71257619D02*
X110478095Y-70257619D01*
X110478095Y-70257619D02*
X110382857Y-70400476D01*
X110382857Y-70400476D02*
X110287619Y-70495714D01*
X110287619Y-70495714D02*
X110192381Y-70543333D01*
X110954286Y-71352857D02*
X111716190Y-71352857D01*
X112525714Y-71162380D02*
X112478095Y-71210000D01*
X112478095Y-71210000D02*
X112335238Y-71257619D01*
X112335238Y-71257619D02*
X112240000Y-71257619D01*
X112240000Y-71257619D02*
X112097143Y-71210000D01*
X112097143Y-71210000D02*
X112001905Y-71114761D01*
X112001905Y-71114761D02*
X111954286Y-71019523D01*
X111954286Y-71019523D02*
X111906667Y-70829047D01*
X111906667Y-70829047D02*
X111906667Y-70686190D01*
X111906667Y-70686190D02*
X111954286Y-70495714D01*
X111954286Y-70495714D02*
X112001905Y-70400476D01*
X112001905Y-70400476D02*
X112097143Y-70305238D01*
X112097143Y-70305238D02*
X112240000Y-70257619D01*
X112240000Y-70257619D02*
X112335238Y-70257619D01*
X112335238Y-70257619D02*
X112478095Y-70305238D01*
X112478095Y-70305238D02*
X112525714Y-70352857D01*
X112906667Y-71210000D02*
X113049524Y-71257619D01*
X113049524Y-71257619D02*
X113287619Y-71257619D01*
X113287619Y-71257619D02*
X113382857Y-71210000D01*
X113382857Y-71210000D02*
X113430476Y-71162380D01*
X113430476Y-71162380D02*
X113478095Y-71067142D01*
X113478095Y-71067142D02*
X113478095Y-70971904D01*
X113478095Y-70971904D02*
X113430476Y-70876666D01*
X113430476Y-70876666D02*
X113382857Y-70829047D01*
X113382857Y-70829047D02*
X113287619Y-70781428D01*
X113287619Y-70781428D02*
X113097143Y-70733809D01*
X113097143Y-70733809D02*
X113001905Y-70686190D01*
X113001905Y-70686190D02*
X112954286Y-70638571D01*
X112954286Y-70638571D02*
X112906667Y-70543333D01*
X112906667Y-70543333D02*
X112906667Y-70448095D01*
X112906667Y-70448095D02*
X112954286Y-70352857D01*
X112954286Y-70352857D02*
X113001905Y-70305238D01*
X113001905Y-70305238D02*
X113097143Y-70257619D01*
X113097143Y-70257619D02*
X113335238Y-70257619D01*
X113335238Y-70257619D02*
X113478095Y-70305238D01*
X134278095Y-60336666D02*
X135040000Y-60336666D01*
X134659047Y-60717619D02*
X134659047Y-59955714D01*
X135420952Y-59717619D02*
X136039999Y-59717619D01*
X136039999Y-59717619D02*
X135706666Y-60098571D01*
X135706666Y-60098571D02*
X135849523Y-60098571D01*
X135849523Y-60098571D02*
X135944761Y-60146190D01*
X135944761Y-60146190D02*
X135992380Y-60193809D01*
X135992380Y-60193809D02*
X136039999Y-60289047D01*
X136039999Y-60289047D02*
X136039999Y-60527142D01*
X136039999Y-60527142D02*
X135992380Y-60622380D01*
X135992380Y-60622380D02*
X135944761Y-60670000D01*
X135944761Y-60670000D02*
X135849523Y-60717619D01*
X135849523Y-60717619D02*
X135563809Y-60717619D01*
X135563809Y-60717619D02*
X135468571Y-60670000D01*
X135468571Y-60670000D02*
X135420952Y-60622380D01*
X136468571Y-60622380D02*
X136516190Y-60670000D01*
X136516190Y-60670000D02*
X136468571Y-60717619D01*
X136468571Y-60717619D02*
X136420952Y-60670000D01*
X136420952Y-60670000D02*
X136468571Y-60622380D01*
X136468571Y-60622380D02*
X136468571Y-60717619D01*
X136849523Y-59717619D02*
X137468570Y-59717619D01*
X137468570Y-59717619D02*
X137135237Y-60098571D01*
X137135237Y-60098571D02*
X137278094Y-60098571D01*
X137278094Y-60098571D02*
X137373332Y-60146190D01*
X137373332Y-60146190D02*
X137420951Y-60193809D01*
X137420951Y-60193809D02*
X137468570Y-60289047D01*
X137468570Y-60289047D02*
X137468570Y-60527142D01*
X137468570Y-60527142D02*
X137420951Y-60622380D01*
X137420951Y-60622380D02*
X137373332Y-60670000D01*
X137373332Y-60670000D02*
X137278094Y-60717619D01*
X137278094Y-60717619D02*
X136992380Y-60717619D01*
X136992380Y-60717619D02*
X136897142Y-60670000D01*
X136897142Y-60670000D02*
X136849523Y-60622380D01*
X137754285Y-59717619D02*
X138087618Y-60717619D01*
X138087618Y-60717619D02*
X138420951Y-59717619D01*
X133800476Y-91100000D02*
X133943333Y-91147619D01*
X133943333Y-91147619D02*
X134181428Y-91147619D01*
X134181428Y-91147619D02*
X134276666Y-91100000D01*
X134276666Y-91100000D02*
X134324285Y-91052380D01*
X134324285Y-91052380D02*
X134371904Y-90957142D01*
X134371904Y-90957142D02*
X134371904Y-90861904D01*
X134371904Y-90861904D02*
X134324285Y-90766666D01*
X134324285Y-90766666D02*
X134276666Y-90719047D01*
X134276666Y-90719047D02*
X134181428Y-90671428D01*
X134181428Y-90671428D02*
X133990952Y-90623809D01*
X133990952Y-90623809D02*
X133895714Y-90576190D01*
X133895714Y-90576190D02*
X133848095Y-90528571D01*
X133848095Y-90528571D02*
X133800476Y-90433333D01*
X133800476Y-90433333D02*
X133800476Y-90338095D01*
X133800476Y-90338095D02*
X133848095Y-90242857D01*
X133848095Y-90242857D02*
X133895714Y-90195238D01*
X133895714Y-90195238D02*
X133990952Y-90147619D01*
X133990952Y-90147619D02*
X134229047Y-90147619D01*
X134229047Y-90147619D02*
X134371904Y-90195238D01*
X134800476Y-91147619D02*
X134800476Y-90147619D01*
X134800476Y-90147619D02*
X135181428Y-90147619D01*
X135181428Y-90147619D02*
X135276666Y-90195238D01*
X135276666Y-90195238D02*
X135324285Y-90242857D01*
X135324285Y-90242857D02*
X135371904Y-90338095D01*
X135371904Y-90338095D02*
X135371904Y-90480952D01*
X135371904Y-90480952D02*
X135324285Y-90576190D01*
X135324285Y-90576190D02*
X135276666Y-90623809D01*
X135276666Y-90623809D02*
X135181428Y-90671428D01*
X135181428Y-90671428D02*
X134800476Y-90671428D01*
X135800476Y-91147619D02*
X135800476Y-90147619D01*
X136467142Y-90147619D02*
X136562380Y-90147619D01*
X136562380Y-90147619D02*
X136657618Y-90195238D01*
X136657618Y-90195238D02*
X136705237Y-90242857D01*
X136705237Y-90242857D02*
X136752856Y-90338095D01*
X136752856Y-90338095D02*
X136800475Y-90528571D01*
X136800475Y-90528571D02*
X136800475Y-90766666D01*
X136800475Y-90766666D02*
X136752856Y-90957142D01*
X136752856Y-90957142D02*
X136705237Y-91052380D01*
X136705237Y-91052380D02*
X136657618Y-91100000D01*
X136657618Y-91100000D02*
X136562380Y-91147619D01*
X136562380Y-91147619D02*
X136467142Y-91147619D01*
X136467142Y-91147619D02*
X136371904Y-91100000D01*
X136371904Y-91100000D02*
X136324285Y-91052380D01*
X136324285Y-91052380D02*
X136276666Y-90957142D01*
X136276666Y-90957142D02*
X136229047Y-90766666D01*
X136229047Y-90766666D02*
X136229047Y-90528571D01*
X136229047Y-90528571D02*
X136276666Y-90338095D01*
X136276666Y-90338095D02*
X136324285Y-90242857D01*
X136324285Y-90242857D02*
X136371904Y-90195238D01*
X136371904Y-90195238D02*
X136467142Y-90147619D01*
X136990952Y-91242857D02*
X137752856Y-91242857D01*
X137990952Y-91147619D02*
X137990952Y-90147619D01*
X137990952Y-90147619D02*
X138324285Y-90861904D01*
X138324285Y-90861904D02*
X138657618Y-90147619D01*
X138657618Y-90147619D02*
X138657618Y-91147619D01*
X139133809Y-91147619D02*
X139133809Y-90147619D01*
X139562380Y-91100000D02*
X139705237Y-91147619D01*
X139705237Y-91147619D02*
X139943332Y-91147619D01*
X139943332Y-91147619D02*
X140038570Y-91100000D01*
X140038570Y-91100000D02*
X140086189Y-91052380D01*
X140086189Y-91052380D02*
X140133808Y-90957142D01*
X140133808Y-90957142D02*
X140133808Y-90861904D01*
X140133808Y-90861904D02*
X140086189Y-90766666D01*
X140086189Y-90766666D02*
X140038570Y-90719047D01*
X140038570Y-90719047D02*
X139943332Y-90671428D01*
X139943332Y-90671428D02*
X139752856Y-90623809D01*
X139752856Y-90623809D02*
X139657618Y-90576190D01*
X139657618Y-90576190D02*
X139609999Y-90528571D01*
X139609999Y-90528571D02*
X139562380Y-90433333D01*
X139562380Y-90433333D02*
X139562380Y-90338095D01*
X139562380Y-90338095D02*
X139609999Y-90242857D01*
X139609999Y-90242857D02*
X139657618Y-90195238D01*
X139657618Y-90195238D02*
X139752856Y-90147619D01*
X139752856Y-90147619D02*
X139990951Y-90147619D01*
X139990951Y-90147619D02*
X140133808Y-90195238D01*
X140752856Y-90147619D02*
X140943332Y-90147619D01*
X140943332Y-90147619D02*
X141038570Y-90195238D01*
X141038570Y-90195238D02*
X141133808Y-90290476D01*
X141133808Y-90290476D02*
X141181427Y-90480952D01*
X141181427Y-90480952D02*
X141181427Y-90814285D01*
X141181427Y-90814285D02*
X141133808Y-91004761D01*
X141133808Y-91004761D02*
X141038570Y-91100000D01*
X141038570Y-91100000D02*
X140943332Y-91147619D01*
X140943332Y-91147619D02*
X140752856Y-91147619D01*
X140752856Y-91147619D02*
X140657618Y-91100000D01*
X140657618Y-91100000D02*
X140562380Y-91004761D01*
X140562380Y-91004761D02*
X140514761Y-90814285D01*
X140514761Y-90814285D02*
X140514761Y-90480952D01*
X140514761Y-90480952D02*
X140562380Y-90290476D01*
X140562380Y-90290476D02*
X140657618Y-90195238D01*
X140657618Y-90195238D02*
X140752856Y-90147619D01*
X121345238Y-92737619D02*
X121916666Y-92737619D01*
X121630952Y-93737619D02*
X121630952Y-92737619D01*
X122821428Y-93642380D02*
X122773809Y-93690000D01*
X122773809Y-93690000D02*
X122630952Y-93737619D01*
X122630952Y-93737619D02*
X122535714Y-93737619D01*
X122535714Y-93737619D02*
X122392857Y-93690000D01*
X122392857Y-93690000D02*
X122297619Y-93594761D01*
X122297619Y-93594761D02*
X122250000Y-93499523D01*
X122250000Y-93499523D02*
X122202381Y-93309047D01*
X122202381Y-93309047D02*
X122202381Y-93166190D01*
X122202381Y-93166190D02*
X122250000Y-92975714D01*
X122250000Y-92975714D02*
X122297619Y-92880476D01*
X122297619Y-92880476D02*
X122392857Y-92785238D01*
X122392857Y-92785238D02*
X122535714Y-92737619D01*
X122535714Y-92737619D02*
X122630952Y-92737619D01*
X122630952Y-92737619D02*
X122773809Y-92785238D01*
X122773809Y-92785238D02*
X122821428Y-92832857D01*
X123154762Y-92737619D02*
X123773809Y-92737619D01*
X123773809Y-92737619D02*
X123440476Y-93118571D01*
X123440476Y-93118571D02*
X123583333Y-93118571D01*
X123583333Y-93118571D02*
X123678571Y-93166190D01*
X123678571Y-93166190D02*
X123726190Y-93213809D01*
X123726190Y-93213809D02*
X123773809Y-93309047D01*
X123773809Y-93309047D02*
X123773809Y-93547142D01*
X123773809Y-93547142D02*
X123726190Y-93642380D01*
X123726190Y-93642380D02*
X123678571Y-93690000D01*
X123678571Y-93690000D02*
X123583333Y-93737619D01*
X123583333Y-93737619D02*
X123297619Y-93737619D01*
X123297619Y-93737619D02*
X123202381Y-93690000D01*
X123202381Y-93690000D02*
X123154762Y-93642380D01*
X123964286Y-93832857D02*
X124726190Y-93832857D01*
X124821429Y-92737619D02*
X125392857Y-92737619D01*
X125107143Y-93737619D02*
X125107143Y-92737619D01*
X125726191Y-93356666D02*
X126488096Y-93356666D01*
X126107143Y-93737619D02*
X126107143Y-92975714D01*
D11*
X111457288Y-47949523D02*
X111457288Y-47586666D01*
X112092288Y-47768095D02*
X111457288Y-47768095D01*
X112031811Y-47012142D02*
X112062050Y-47042380D01*
X112062050Y-47042380D02*
X112092288Y-47133094D01*
X112092288Y-47133094D02*
X112092288Y-47193570D01*
X112092288Y-47193570D02*
X112062050Y-47284285D01*
X112062050Y-47284285D02*
X112001573Y-47344761D01*
X112001573Y-47344761D02*
X111941097Y-47374999D01*
X111941097Y-47374999D02*
X111820145Y-47405237D01*
X111820145Y-47405237D02*
X111729430Y-47405237D01*
X111729430Y-47405237D02*
X111608478Y-47374999D01*
X111608478Y-47374999D02*
X111548002Y-47344761D01*
X111548002Y-47344761D02*
X111487526Y-47284285D01*
X111487526Y-47284285D02*
X111457288Y-47193570D01*
X111457288Y-47193570D02*
X111457288Y-47133094D01*
X111457288Y-47133094D02*
X111487526Y-47042380D01*
X111487526Y-47042380D02*
X111517764Y-47012142D01*
X112092288Y-46407380D02*
X112092288Y-46770237D01*
X112092288Y-46588809D02*
X111457288Y-46588809D01*
X111457288Y-46588809D02*
X111548002Y-46649285D01*
X111548002Y-46649285D02*
X111608478Y-46709761D01*
X111608478Y-46709761D02*
X111638716Y-46770237D01*
X112152764Y-46286428D02*
X112152764Y-45802618D01*
X111457288Y-45742141D02*
X111457288Y-45379284D01*
X112092288Y-45560713D02*
X111457288Y-45560713D01*
X111850383Y-45167617D02*
X111850383Y-44683808D01*
D10*
X146995238Y-92617619D02*
X147566666Y-92617619D01*
X147280952Y-93617619D02*
X147280952Y-92617619D01*
X148471428Y-93522380D02*
X148423809Y-93570000D01*
X148423809Y-93570000D02*
X148280952Y-93617619D01*
X148280952Y-93617619D02*
X148185714Y-93617619D01*
X148185714Y-93617619D02*
X148042857Y-93570000D01*
X148042857Y-93570000D02*
X147947619Y-93474761D01*
X147947619Y-93474761D02*
X147900000Y-93379523D01*
X147900000Y-93379523D02*
X147852381Y-93189047D01*
X147852381Y-93189047D02*
X147852381Y-93046190D01*
X147852381Y-93046190D02*
X147900000Y-92855714D01*
X147900000Y-92855714D02*
X147947619Y-92760476D01*
X147947619Y-92760476D02*
X148042857Y-92665238D01*
X148042857Y-92665238D02*
X148185714Y-92617619D01*
X148185714Y-92617619D02*
X148280952Y-92617619D01*
X148280952Y-92617619D02*
X148423809Y-92665238D01*
X148423809Y-92665238D02*
X148471428Y-92712857D01*
X149328571Y-92950952D02*
X149328571Y-93617619D01*
X149090476Y-92570000D02*
X148852381Y-93284285D01*
X148852381Y-93284285D02*
X149471428Y-93284285D01*
X149614286Y-93712857D02*
X150376190Y-93712857D01*
X150471429Y-92617619D02*
X151042857Y-92617619D01*
X150757143Y-93617619D02*
X150757143Y-92617619D01*
X151376191Y-93236666D02*
X152138096Y-93236666D01*
X151757143Y-93617619D02*
X151757143Y-92855714D01*
X135271904Y-65165238D02*
X135176666Y-65117619D01*
X135176666Y-65117619D02*
X135033809Y-65117619D01*
X135033809Y-65117619D02*
X134890952Y-65165238D01*
X134890952Y-65165238D02*
X134795714Y-65260476D01*
X134795714Y-65260476D02*
X134748095Y-65355714D01*
X134748095Y-65355714D02*
X134700476Y-65546190D01*
X134700476Y-65546190D02*
X134700476Y-65689047D01*
X134700476Y-65689047D02*
X134748095Y-65879523D01*
X134748095Y-65879523D02*
X134795714Y-65974761D01*
X134795714Y-65974761D02*
X134890952Y-66070000D01*
X134890952Y-66070000D02*
X135033809Y-66117619D01*
X135033809Y-66117619D02*
X135129047Y-66117619D01*
X135129047Y-66117619D02*
X135271904Y-66070000D01*
X135271904Y-66070000D02*
X135319523Y-66022380D01*
X135319523Y-66022380D02*
X135319523Y-65689047D01*
X135319523Y-65689047D02*
X135129047Y-65689047D01*
X135748095Y-66117619D02*
X135748095Y-65117619D01*
X135748095Y-65117619D02*
X136319523Y-66117619D01*
X136319523Y-66117619D02*
X136319523Y-65117619D01*
X136795714Y-66117619D02*
X136795714Y-65117619D01*
X136795714Y-65117619D02*
X137033809Y-65117619D01*
X137033809Y-65117619D02*
X137176666Y-65165238D01*
X137176666Y-65165238D02*
X137271904Y-65260476D01*
X137271904Y-65260476D02*
X137319523Y-65355714D01*
X137319523Y-65355714D02*
X137367142Y-65546190D01*
X137367142Y-65546190D02*
X137367142Y-65689047D01*
X137367142Y-65689047D02*
X137319523Y-65879523D01*
X137319523Y-65879523D02*
X137271904Y-65974761D01*
X137271904Y-65974761D02*
X137176666Y-66070000D01*
X137176666Y-66070000D02*
X137033809Y-66117619D01*
X137033809Y-66117619D02*
X136795714Y-66117619D01*
D11*
X117957288Y-48049523D02*
X117957288Y-47686666D01*
X118592288Y-47868095D02*
X117957288Y-47868095D01*
X118531811Y-47112142D02*
X118562050Y-47142380D01*
X118562050Y-47142380D02*
X118592288Y-47233094D01*
X118592288Y-47233094D02*
X118592288Y-47293570D01*
X118592288Y-47293570D02*
X118562050Y-47384285D01*
X118562050Y-47384285D02*
X118501573Y-47444761D01*
X118501573Y-47444761D02*
X118441097Y-47474999D01*
X118441097Y-47474999D02*
X118320145Y-47505237D01*
X118320145Y-47505237D02*
X118229430Y-47505237D01*
X118229430Y-47505237D02*
X118108478Y-47474999D01*
X118108478Y-47474999D02*
X118048002Y-47444761D01*
X118048002Y-47444761D02*
X117987526Y-47384285D01*
X117987526Y-47384285D02*
X117957288Y-47293570D01*
X117957288Y-47293570D02*
X117957288Y-47233094D01*
X117957288Y-47233094D02*
X117987526Y-47142380D01*
X117987526Y-47142380D02*
X118017764Y-47112142D01*
X117957288Y-46900475D02*
X117957288Y-46507380D01*
X117957288Y-46507380D02*
X118199192Y-46719047D01*
X118199192Y-46719047D02*
X118199192Y-46628332D01*
X118199192Y-46628332D02*
X118229430Y-46567856D01*
X118229430Y-46567856D02*
X118259669Y-46537618D01*
X118259669Y-46537618D02*
X118320145Y-46507380D01*
X118320145Y-46507380D02*
X118471335Y-46507380D01*
X118471335Y-46507380D02*
X118531811Y-46537618D01*
X118531811Y-46537618D02*
X118562050Y-46567856D01*
X118562050Y-46567856D02*
X118592288Y-46628332D01*
X118592288Y-46628332D02*
X118592288Y-46809761D01*
X118592288Y-46809761D02*
X118562050Y-46870237D01*
X118562050Y-46870237D02*
X118531811Y-46900475D01*
X118652764Y-46386428D02*
X118652764Y-45902618D01*
X117957288Y-45842141D02*
X117957288Y-45479284D01*
X118592288Y-45660713D02*
X117957288Y-45660713D01*
X118350383Y-45267617D02*
X118350383Y-44783808D01*
X113426190Y-55741460D02*
X113910000Y-55741460D01*
X114696190Y-55741460D02*
X115180000Y-55741460D01*
X114938095Y-56031745D02*
X114938095Y-55451174D01*
X115966190Y-55741460D02*
X116450000Y-55741460D01*
X117236190Y-55741460D02*
X117720000Y-55741460D01*
X117478095Y-56031745D02*
X117478095Y-55451174D01*
X118506190Y-55741460D02*
X118990000Y-55741460D01*
X119776190Y-55741460D02*
X120260000Y-55741460D01*
X120018095Y-56031745D02*
X120018095Y-55451174D01*
X121046190Y-55741460D02*
X121530000Y-55741460D01*
X122316190Y-55741460D02*
X122800000Y-55741460D01*
X122558095Y-56031745D02*
X122558095Y-55451174D01*
X113767288Y-45049523D02*
X113767288Y-44686666D01*
X114402288Y-44868095D02*
X113767288Y-44868095D01*
X114341811Y-44112142D02*
X114372050Y-44142380D01*
X114372050Y-44142380D02*
X114402288Y-44233094D01*
X114402288Y-44233094D02*
X114402288Y-44293570D01*
X114402288Y-44293570D02*
X114372050Y-44384285D01*
X114372050Y-44384285D02*
X114311573Y-44444761D01*
X114311573Y-44444761D02*
X114251097Y-44474999D01*
X114251097Y-44474999D02*
X114130145Y-44505237D01*
X114130145Y-44505237D02*
X114039430Y-44505237D01*
X114039430Y-44505237D02*
X113918478Y-44474999D01*
X113918478Y-44474999D02*
X113858002Y-44444761D01*
X113858002Y-44444761D02*
X113797526Y-44384285D01*
X113797526Y-44384285D02*
X113767288Y-44293570D01*
X113767288Y-44293570D02*
X113767288Y-44233094D01*
X113767288Y-44233094D02*
X113797526Y-44142380D01*
X113797526Y-44142380D02*
X113827764Y-44112142D01*
X114402288Y-43507380D02*
X114402288Y-43870237D01*
X114402288Y-43688809D02*
X113767288Y-43688809D01*
X113767288Y-43688809D02*
X113858002Y-43749285D01*
X113858002Y-43749285D02*
X113918478Y-43809761D01*
X113918478Y-43809761D02*
X113948716Y-43870237D01*
X114462764Y-43386428D02*
X114462764Y-42902618D01*
X113767288Y-42842141D02*
X113767288Y-42479284D01*
X114402288Y-42660713D02*
X113767288Y-42660713D01*
X114160383Y-42267617D02*
X114160383Y-41783808D01*
X114402288Y-42025712D02*
X113918478Y-42025712D01*
D10*
X108740476Y-68570000D02*
X108883333Y-68617619D01*
X108883333Y-68617619D02*
X109121428Y-68617619D01*
X109121428Y-68617619D02*
X109216666Y-68570000D01*
X109216666Y-68570000D02*
X109264285Y-68522380D01*
X109264285Y-68522380D02*
X109311904Y-68427142D01*
X109311904Y-68427142D02*
X109311904Y-68331904D01*
X109311904Y-68331904D02*
X109264285Y-68236666D01*
X109264285Y-68236666D02*
X109216666Y-68189047D01*
X109216666Y-68189047D02*
X109121428Y-68141428D01*
X109121428Y-68141428D02*
X108930952Y-68093809D01*
X108930952Y-68093809D02*
X108835714Y-68046190D01*
X108835714Y-68046190D02*
X108788095Y-67998571D01*
X108788095Y-67998571D02*
X108740476Y-67903333D01*
X108740476Y-67903333D02*
X108740476Y-67808095D01*
X108740476Y-67808095D02*
X108788095Y-67712857D01*
X108788095Y-67712857D02*
X108835714Y-67665238D01*
X108835714Y-67665238D02*
X108930952Y-67617619D01*
X108930952Y-67617619D02*
X109169047Y-67617619D01*
X109169047Y-67617619D02*
X109311904Y-67665238D01*
X109740476Y-68617619D02*
X109740476Y-67617619D01*
X109740476Y-67617619D02*
X110121428Y-67617619D01*
X110121428Y-67617619D02*
X110216666Y-67665238D01*
X110216666Y-67665238D02*
X110264285Y-67712857D01*
X110264285Y-67712857D02*
X110311904Y-67808095D01*
X110311904Y-67808095D02*
X110311904Y-67950952D01*
X110311904Y-67950952D02*
X110264285Y-68046190D01*
X110264285Y-68046190D02*
X110216666Y-68093809D01*
X110216666Y-68093809D02*
X110121428Y-68141428D01*
X110121428Y-68141428D02*
X109740476Y-68141428D01*
X110740476Y-68617619D02*
X110740476Y-67617619D01*
X111740475Y-68617619D02*
X111169047Y-68617619D01*
X111454761Y-68617619D02*
X111454761Y-67617619D01*
X111454761Y-67617619D02*
X111359523Y-67760476D01*
X111359523Y-67760476D02*
X111264285Y-67855714D01*
X111264285Y-67855714D02*
X111169047Y-67903333D01*
X111930952Y-68712857D02*
X112692856Y-68712857D01*
X112930952Y-68617619D02*
X112930952Y-67617619D01*
X112930952Y-67617619D02*
X113264285Y-68331904D01*
X113264285Y-68331904D02*
X113597618Y-67617619D01*
X113597618Y-67617619D02*
X113597618Y-68617619D01*
X114073809Y-68617619D02*
X114073809Y-67617619D01*
X114502380Y-68570000D02*
X114645237Y-68617619D01*
X114645237Y-68617619D02*
X114883332Y-68617619D01*
X114883332Y-68617619D02*
X114978570Y-68570000D01*
X114978570Y-68570000D02*
X115026189Y-68522380D01*
X115026189Y-68522380D02*
X115073808Y-68427142D01*
X115073808Y-68427142D02*
X115073808Y-68331904D01*
X115073808Y-68331904D02*
X115026189Y-68236666D01*
X115026189Y-68236666D02*
X114978570Y-68189047D01*
X114978570Y-68189047D02*
X114883332Y-68141428D01*
X114883332Y-68141428D02*
X114692856Y-68093809D01*
X114692856Y-68093809D02*
X114597618Y-68046190D01*
X114597618Y-68046190D02*
X114549999Y-67998571D01*
X114549999Y-67998571D02*
X114502380Y-67903333D01*
X114502380Y-67903333D02*
X114502380Y-67808095D01*
X114502380Y-67808095D02*
X114549999Y-67712857D01*
X114549999Y-67712857D02*
X114597618Y-67665238D01*
X114597618Y-67665238D02*
X114692856Y-67617619D01*
X114692856Y-67617619D02*
X114930951Y-67617619D01*
X114930951Y-67617619D02*
X115073808Y-67665238D01*
X115692856Y-67617619D02*
X115883332Y-67617619D01*
X115883332Y-67617619D02*
X115978570Y-67665238D01*
X115978570Y-67665238D02*
X116073808Y-67760476D01*
X116073808Y-67760476D02*
X116121427Y-67950952D01*
X116121427Y-67950952D02*
X116121427Y-68284285D01*
X116121427Y-68284285D02*
X116073808Y-68474761D01*
X116073808Y-68474761D02*
X115978570Y-68570000D01*
X115978570Y-68570000D02*
X115883332Y-68617619D01*
X115883332Y-68617619D02*
X115692856Y-68617619D01*
X115692856Y-68617619D02*
X115597618Y-68570000D01*
X115597618Y-68570000D02*
X115502380Y-68474761D01*
X115502380Y-68474761D02*
X115454761Y-68284285D01*
X115454761Y-68284285D02*
X115454761Y-67950952D01*
X115454761Y-67950952D02*
X115502380Y-67760476D01*
X115502380Y-67760476D02*
X115597618Y-67665238D01*
X115597618Y-67665238D02*
X115692856Y-67617619D01*
X147185238Y-84877619D02*
X147756666Y-84877619D01*
X147470952Y-85877619D02*
X147470952Y-84877619D01*
X148661428Y-85782380D02*
X148613809Y-85830000D01*
X148613809Y-85830000D02*
X148470952Y-85877619D01*
X148470952Y-85877619D02*
X148375714Y-85877619D01*
X148375714Y-85877619D02*
X148232857Y-85830000D01*
X148232857Y-85830000D02*
X148137619Y-85734761D01*
X148137619Y-85734761D02*
X148090000Y-85639523D01*
X148090000Y-85639523D02*
X148042381Y-85449047D01*
X148042381Y-85449047D02*
X148042381Y-85306190D01*
X148042381Y-85306190D02*
X148090000Y-85115714D01*
X148090000Y-85115714D02*
X148137619Y-85020476D01*
X148137619Y-85020476D02*
X148232857Y-84925238D01*
X148232857Y-84925238D02*
X148375714Y-84877619D01*
X148375714Y-84877619D02*
X148470952Y-84877619D01*
X148470952Y-84877619D02*
X148613809Y-84925238D01*
X148613809Y-84925238D02*
X148661428Y-84972857D01*
X149518571Y-85210952D02*
X149518571Y-85877619D01*
X149280476Y-84830000D02*
X149042381Y-85544285D01*
X149042381Y-85544285D02*
X149661428Y-85544285D01*
X149804286Y-85972857D02*
X150566190Y-85972857D01*
X150661429Y-84877619D02*
X151232857Y-84877619D01*
X150947143Y-85877619D02*
X150947143Y-84877619D01*
X151566191Y-85496666D02*
X152328096Y-85496666D01*
X108055238Y-92447619D02*
X108626666Y-92447619D01*
X108340952Y-93447619D02*
X108340952Y-92447619D01*
X109531428Y-93352380D02*
X109483809Y-93400000D01*
X109483809Y-93400000D02*
X109340952Y-93447619D01*
X109340952Y-93447619D02*
X109245714Y-93447619D01*
X109245714Y-93447619D02*
X109102857Y-93400000D01*
X109102857Y-93400000D02*
X109007619Y-93304761D01*
X109007619Y-93304761D02*
X108960000Y-93209523D01*
X108960000Y-93209523D02*
X108912381Y-93019047D01*
X108912381Y-93019047D02*
X108912381Y-92876190D01*
X108912381Y-92876190D02*
X108960000Y-92685714D01*
X108960000Y-92685714D02*
X109007619Y-92590476D01*
X109007619Y-92590476D02*
X109102857Y-92495238D01*
X109102857Y-92495238D02*
X109245714Y-92447619D01*
X109245714Y-92447619D02*
X109340952Y-92447619D01*
X109340952Y-92447619D02*
X109483809Y-92495238D01*
X109483809Y-92495238D02*
X109531428Y-92542857D01*
X109864762Y-92447619D02*
X110483809Y-92447619D01*
X110483809Y-92447619D02*
X110150476Y-92828571D01*
X110150476Y-92828571D02*
X110293333Y-92828571D01*
X110293333Y-92828571D02*
X110388571Y-92876190D01*
X110388571Y-92876190D02*
X110436190Y-92923809D01*
X110436190Y-92923809D02*
X110483809Y-93019047D01*
X110483809Y-93019047D02*
X110483809Y-93257142D01*
X110483809Y-93257142D02*
X110436190Y-93352380D01*
X110436190Y-93352380D02*
X110388571Y-93400000D01*
X110388571Y-93400000D02*
X110293333Y-93447619D01*
X110293333Y-93447619D02*
X110007619Y-93447619D01*
X110007619Y-93447619D02*
X109912381Y-93400000D01*
X109912381Y-93400000D02*
X109864762Y-93352380D01*
X110674286Y-93542857D02*
X111436190Y-93542857D01*
X112245714Y-93352380D02*
X112198095Y-93400000D01*
X112198095Y-93400000D02*
X112055238Y-93447619D01*
X112055238Y-93447619D02*
X111960000Y-93447619D01*
X111960000Y-93447619D02*
X111817143Y-93400000D01*
X111817143Y-93400000D02*
X111721905Y-93304761D01*
X111721905Y-93304761D02*
X111674286Y-93209523D01*
X111674286Y-93209523D02*
X111626667Y-93019047D01*
X111626667Y-93019047D02*
X111626667Y-92876190D01*
X111626667Y-92876190D02*
X111674286Y-92685714D01*
X111674286Y-92685714D02*
X111721905Y-92590476D01*
X111721905Y-92590476D02*
X111817143Y-92495238D01*
X111817143Y-92495238D02*
X111960000Y-92447619D01*
X111960000Y-92447619D02*
X112055238Y-92447619D01*
X112055238Y-92447619D02*
X112198095Y-92495238D01*
X112198095Y-92495238D02*
X112245714Y-92542857D01*
X112626667Y-93400000D02*
X112769524Y-93447619D01*
X112769524Y-93447619D02*
X113007619Y-93447619D01*
X113007619Y-93447619D02*
X113102857Y-93400000D01*
X113102857Y-93400000D02*
X113150476Y-93352380D01*
X113150476Y-93352380D02*
X113198095Y-93257142D01*
X113198095Y-93257142D02*
X113198095Y-93161904D01*
X113198095Y-93161904D02*
X113150476Y-93066666D01*
X113150476Y-93066666D02*
X113102857Y-93019047D01*
X113102857Y-93019047D02*
X113007619Y-92971428D01*
X113007619Y-92971428D02*
X112817143Y-92923809D01*
X112817143Y-92923809D02*
X112721905Y-92876190D01*
X112721905Y-92876190D02*
X112674286Y-92828571D01*
X112674286Y-92828571D02*
X112626667Y-92733333D01*
X112626667Y-92733333D02*
X112626667Y-92638095D01*
X112626667Y-92638095D02*
X112674286Y-92542857D01*
X112674286Y-92542857D02*
X112721905Y-92495238D01*
X112721905Y-92495238D02*
X112817143Y-92447619D01*
X112817143Y-92447619D02*
X113055238Y-92447619D01*
X113055238Y-92447619D02*
X113198095Y-92495238D01*
X133910476Y-96310000D02*
X134053333Y-96357619D01*
X134053333Y-96357619D02*
X134291428Y-96357619D01*
X134291428Y-96357619D02*
X134386666Y-96310000D01*
X134386666Y-96310000D02*
X134434285Y-96262380D01*
X134434285Y-96262380D02*
X134481904Y-96167142D01*
X134481904Y-96167142D02*
X134481904Y-96071904D01*
X134481904Y-96071904D02*
X134434285Y-95976666D01*
X134434285Y-95976666D02*
X134386666Y-95929047D01*
X134386666Y-95929047D02*
X134291428Y-95881428D01*
X134291428Y-95881428D02*
X134100952Y-95833809D01*
X134100952Y-95833809D02*
X134005714Y-95786190D01*
X134005714Y-95786190D02*
X133958095Y-95738571D01*
X133958095Y-95738571D02*
X133910476Y-95643333D01*
X133910476Y-95643333D02*
X133910476Y-95548095D01*
X133910476Y-95548095D02*
X133958095Y-95452857D01*
X133958095Y-95452857D02*
X134005714Y-95405238D01*
X134005714Y-95405238D02*
X134100952Y-95357619D01*
X134100952Y-95357619D02*
X134339047Y-95357619D01*
X134339047Y-95357619D02*
X134481904Y-95405238D01*
X134910476Y-96357619D02*
X134910476Y-95357619D01*
X134910476Y-95357619D02*
X135291428Y-95357619D01*
X135291428Y-95357619D02*
X135386666Y-95405238D01*
X135386666Y-95405238D02*
X135434285Y-95452857D01*
X135434285Y-95452857D02*
X135481904Y-95548095D01*
X135481904Y-95548095D02*
X135481904Y-95690952D01*
X135481904Y-95690952D02*
X135434285Y-95786190D01*
X135434285Y-95786190D02*
X135386666Y-95833809D01*
X135386666Y-95833809D02*
X135291428Y-95881428D01*
X135291428Y-95881428D02*
X134910476Y-95881428D01*
X135910476Y-96357619D02*
X135910476Y-95357619D01*
X136577142Y-95357619D02*
X136767618Y-95357619D01*
X136767618Y-95357619D02*
X136862856Y-95405238D01*
X136862856Y-95405238D02*
X136958094Y-95500476D01*
X136958094Y-95500476D02*
X137005713Y-95690952D01*
X137005713Y-95690952D02*
X137005713Y-96024285D01*
X137005713Y-96024285D02*
X136958094Y-96214761D01*
X136958094Y-96214761D02*
X136862856Y-96310000D01*
X136862856Y-96310000D02*
X136767618Y-96357619D01*
X136767618Y-96357619D02*
X136577142Y-96357619D01*
X136577142Y-96357619D02*
X136481904Y-96310000D01*
X136481904Y-96310000D02*
X136386666Y-96214761D01*
X136386666Y-96214761D02*
X136339047Y-96024285D01*
X136339047Y-96024285D02*
X136339047Y-95690952D01*
X136339047Y-95690952D02*
X136386666Y-95500476D01*
X136386666Y-95500476D02*
X136481904Y-95405238D01*
X136481904Y-95405238D02*
X136577142Y-95357619D01*
X137196190Y-96452857D02*
X137958094Y-96452857D01*
X138148571Y-96310000D02*
X138291428Y-96357619D01*
X138291428Y-96357619D02*
X138529523Y-96357619D01*
X138529523Y-96357619D02*
X138624761Y-96310000D01*
X138624761Y-96310000D02*
X138672380Y-96262380D01*
X138672380Y-96262380D02*
X138719999Y-96167142D01*
X138719999Y-96167142D02*
X138719999Y-96071904D01*
X138719999Y-96071904D02*
X138672380Y-95976666D01*
X138672380Y-95976666D02*
X138624761Y-95929047D01*
X138624761Y-95929047D02*
X138529523Y-95881428D01*
X138529523Y-95881428D02*
X138339047Y-95833809D01*
X138339047Y-95833809D02*
X138243809Y-95786190D01*
X138243809Y-95786190D02*
X138196190Y-95738571D01*
X138196190Y-95738571D02*
X138148571Y-95643333D01*
X138148571Y-95643333D02*
X138148571Y-95548095D01*
X138148571Y-95548095D02*
X138196190Y-95452857D01*
X138196190Y-95452857D02*
X138243809Y-95405238D01*
X138243809Y-95405238D02*
X138339047Y-95357619D01*
X138339047Y-95357619D02*
X138577142Y-95357619D01*
X138577142Y-95357619D02*
X138719999Y-95405238D01*
X139719999Y-96262380D02*
X139672380Y-96310000D01*
X139672380Y-96310000D02*
X139529523Y-96357619D01*
X139529523Y-96357619D02*
X139434285Y-96357619D01*
X139434285Y-96357619D02*
X139291428Y-96310000D01*
X139291428Y-96310000D02*
X139196190Y-96214761D01*
X139196190Y-96214761D02*
X139148571Y-96119523D01*
X139148571Y-96119523D02*
X139100952Y-95929047D01*
X139100952Y-95929047D02*
X139100952Y-95786190D01*
X139100952Y-95786190D02*
X139148571Y-95595714D01*
X139148571Y-95595714D02*
X139196190Y-95500476D01*
X139196190Y-95500476D02*
X139291428Y-95405238D01*
X139291428Y-95405238D02*
X139434285Y-95357619D01*
X139434285Y-95357619D02*
X139529523Y-95357619D01*
X139529523Y-95357619D02*
X139672380Y-95405238D01*
X139672380Y-95405238D02*
X139719999Y-95452857D01*
X140148571Y-96357619D02*
X140148571Y-95357619D01*
X140719999Y-96357619D02*
X140291428Y-95786190D01*
X140719999Y-95357619D02*
X140148571Y-95929047D01*
X108438095Y-60826666D02*
X109200000Y-60826666D01*
X108819047Y-61207619D02*
X108819047Y-60445714D01*
X109580952Y-60207619D02*
X110199999Y-60207619D01*
X110199999Y-60207619D02*
X109866666Y-60588571D01*
X109866666Y-60588571D02*
X110009523Y-60588571D01*
X110009523Y-60588571D02*
X110104761Y-60636190D01*
X110104761Y-60636190D02*
X110152380Y-60683809D01*
X110152380Y-60683809D02*
X110199999Y-60779047D01*
X110199999Y-60779047D02*
X110199999Y-61017142D01*
X110199999Y-61017142D02*
X110152380Y-61112380D01*
X110152380Y-61112380D02*
X110104761Y-61160000D01*
X110104761Y-61160000D02*
X110009523Y-61207619D01*
X110009523Y-61207619D02*
X109723809Y-61207619D01*
X109723809Y-61207619D02*
X109628571Y-61160000D01*
X109628571Y-61160000D02*
X109580952Y-61112380D01*
X110628571Y-61112380D02*
X110676190Y-61160000D01*
X110676190Y-61160000D02*
X110628571Y-61207619D01*
X110628571Y-61207619D02*
X110580952Y-61160000D01*
X110580952Y-61160000D02*
X110628571Y-61112380D01*
X110628571Y-61112380D02*
X110628571Y-61207619D01*
X111009523Y-60207619D02*
X111628570Y-60207619D01*
X111628570Y-60207619D02*
X111295237Y-60588571D01*
X111295237Y-60588571D02*
X111438094Y-60588571D01*
X111438094Y-60588571D02*
X111533332Y-60636190D01*
X111533332Y-60636190D02*
X111580951Y-60683809D01*
X111580951Y-60683809D02*
X111628570Y-60779047D01*
X111628570Y-60779047D02*
X111628570Y-61017142D01*
X111628570Y-61017142D02*
X111580951Y-61112380D01*
X111580951Y-61112380D02*
X111533332Y-61160000D01*
X111533332Y-61160000D02*
X111438094Y-61207619D01*
X111438094Y-61207619D02*
X111152380Y-61207619D01*
X111152380Y-61207619D02*
X111057142Y-61160000D01*
X111057142Y-61160000D02*
X111009523Y-61112380D01*
X111914285Y-60207619D02*
X112247618Y-61207619D01*
X112247618Y-61207619D02*
X112580951Y-60207619D01*
X134078095Y-83126666D02*
X134840000Y-83126666D01*
X134459047Y-83507619D02*
X134459047Y-82745714D01*
X135220952Y-82507619D02*
X135839999Y-82507619D01*
X135839999Y-82507619D02*
X135506666Y-82888571D01*
X135506666Y-82888571D02*
X135649523Y-82888571D01*
X135649523Y-82888571D02*
X135744761Y-82936190D01*
X135744761Y-82936190D02*
X135792380Y-82983809D01*
X135792380Y-82983809D02*
X135839999Y-83079047D01*
X135839999Y-83079047D02*
X135839999Y-83317142D01*
X135839999Y-83317142D02*
X135792380Y-83412380D01*
X135792380Y-83412380D02*
X135744761Y-83460000D01*
X135744761Y-83460000D02*
X135649523Y-83507619D01*
X135649523Y-83507619D02*
X135363809Y-83507619D01*
X135363809Y-83507619D02*
X135268571Y-83460000D01*
X135268571Y-83460000D02*
X135220952Y-83412380D01*
X136268571Y-83412380D02*
X136316190Y-83460000D01*
X136316190Y-83460000D02*
X136268571Y-83507619D01*
X136268571Y-83507619D02*
X136220952Y-83460000D01*
X136220952Y-83460000D02*
X136268571Y-83412380D01*
X136268571Y-83412380D02*
X136268571Y-83507619D01*
X136649523Y-82507619D02*
X137268570Y-82507619D01*
X137268570Y-82507619D02*
X136935237Y-82888571D01*
X136935237Y-82888571D02*
X137078094Y-82888571D01*
X137078094Y-82888571D02*
X137173332Y-82936190D01*
X137173332Y-82936190D02*
X137220951Y-82983809D01*
X137220951Y-82983809D02*
X137268570Y-83079047D01*
X137268570Y-83079047D02*
X137268570Y-83317142D01*
X137268570Y-83317142D02*
X137220951Y-83412380D01*
X137220951Y-83412380D02*
X137173332Y-83460000D01*
X137173332Y-83460000D02*
X137078094Y-83507619D01*
X137078094Y-83507619D02*
X136792380Y-83507619D01*
X136792380Y-83507619D02*
X136697142Y-83460000D01*
X136697142Y-83460000D02*
X136649523Y-83412380D01*
X137554285Y-82507619D02*
X137887618Y-83507619D01*
X137887618Y-83507619D02*
X138220951Y-82507619D01*
D11*
X155490476Y-53577288D02*
X155853333Y-53577288D01*
X155671904Y-54212288D02*
X155671904Y-53577288D01*
X156427857Y-54151811D02*
X156397619Y-54182050D01*
X156397619Y-54182050D02*
X156306905Y-54212288D01*
X156306905Y-54212288D02*
X156246429Y-54212288D01*
X156246429Y-54212288D02*
X156155714Y-54182050D01*
X156155714Y-54182050D02*
X156095238Y-54121573D01*
X156095238Y-54121573D02*
X156065000Y-54061097D01*
X156065000Y-54061097D02*
X156034762Y-53940145D01*
X156034762Y-53940145D02*
X156034762Y-53849430D01*
X156034762Y-53849430D02*
X156065000Y-53728478D01*
X156065000Y-53728478D02*
X156095238Y-53668002D01*
X156095238Y-53668002D02*
X156155714Y-53607526D01*
X156155714Y-53607526D02*
X156246429Y-53577288D01*
X156246429Y-53577288D02*
X156306905Y-53577288D01*
X156306905Y-53577288D02*
X156397619Y-53607526D01*
X156397619Y-53607526D02*
X156427857Y-53637764D01*
X156639524Y-53577288D02*
X157032619Y-53577288D01*
X157032619Y-53577288D02*
X156820952Y-53819192D01*
X156820952Y-53819192D02*
X156911667Y-53819192D01*
X156911667Y-53819192D02*
X156972143Y-53849430D01*
X156972143Y-53849430D02*
X157002381Y-53879669D01*
X157002381Y-53879669D02*
X157032619Y-53940145D01*
X157032619Y-53940145D02*
X157032619Y-54091335D01*
X157032619Y-54091335D02*
X157002381Y-54151811D01*
X157002381Y-54151811D02*
X156972143Y-54182050D01*
X156972143Y-54182050D02*
X156911667Y-54212288D01*
X156911667Y-54212288D02*
X156730238Y-54212288D01*
X156730238Y-54212288D02*
X156669762Y-54182050D01*
X156669762Y-54182050D02*
X156639524Y-54151811D01*
X158151429Y-54151811D02*
X158121191Y-54182050D01*
X158121191Y-54182050D02*
X158030477Y-54212288D01*
X158030477Y-54212288D02*
X157970001Y-54212288D01*
X157970001Y-54212288D02*
X157879286Y-54182050D01*
X157879286Y-54182050D02*
X157818810Y-54121573D01*
X157818810Y-54121573D02*
X157788572Y-54061097D01*
X157788572Y-54061097D02*
X157758334Y-53940145D01*
X157758334Y-53940145D02*
X157758334Y-53849430D01*
X157758334Y-53849430D02*
X157788572Y-53728478D01*
X157788572Y-53728478D02*
X157818810Y-53668002D01*
X157818810Y-53668002D02*
X157879286Y-53607526D01*
X157879286Y-53607526D02*
X157970001Y-53577288D01*
X157970001Y-53577288D02*
X158030477Y-53577288D01*
X158030477Y-53577288D02*
X158121191Y-53607526D01*
X158121191Y-53607526D02*
X158151429Y-53637764D01*
X158393334Y-54182050D02*
X158484048Y-54212288D01*
X158484048Y-54212288D02*
X158635239Y-54212288D01*
X158635239Y-54212288D02*
X158695715Y-54182050D01*
X158695715Y-54182050D02*
X158725953Y-54151811D01*
X158725953Y-54151811D02*
X158756191Y-54091335D01*
X158756191Y-54091335D02*
X158756191Y-54030859D01*
X158756191Y-54030859D02*
X158725953Y-53970383D01*
X158725953Y-53970383D02*
X158695715Y-53940145D01*
X158695715Y-53940145D02*
X158635239Y-53909907D01*
X158635239Y-53909907D02*
X158514286Y-53879669D01*
X158514286Y-53879669D02*
X158453810Y-53849430D01*
X158453810Y-53849430D02*
X158423572Y-53819192D01*
X158423572Y-53819192D02*
X158393334Y-53758716D01*
X158393334Y-53758716D02*
X158393334Y-53698240D01*
X158393334Y-53698240D02*
X158423572Y-53637764D01*
X158423572Y-53637764D02*
X158453810Y-53607526D01*
X158453810Y-53607526D02*
X158514286Y-53577288D01*
X158514286Y-53577288D02*
X158665477Y-53577288D01*
X158665477Y-53577288D02*
X158756191Y-53607526D01*
X158967858Y-53577288D02*
X159360953Y-53577288D01*
X159360953Y-53577288D02*
X159149286Y-53819192D01*
X159149286Y-53819192D02*
X159240001Y-53819192D01*
X159240001Y-53819192D02*
X159300477Y-53849430D01*
X159300477Y-53849430D02*
X159330715Y-53879669D01*
X159330715Y-53879669D02*
X159360953Y-53940145D01*
X159360953Y-53940145D02*
X159360953Y-54091335D01*
X159360953Y-54091335D02*
X159330715Y-54151811D01*
X159330715Y-54151811D02*
X159300477Y-54182050D01*
X159300477Y-54182050D02*
X159240001Y-54212288D01*
X159240001Y-54212288D02*
X159058572Y-54212288D01*
X159058572Y-54212288D02*
X158998096Y-54182050D01*
X158998096Y-54182050D02*
X158967858Y-54151811D01*
X160026192Y-53577288D02*
X160389049Y-53577288D01*
X160207620Y-54212288D02*
X160207620Y-53577288D01*
X160963573Y-54151811D02*
X160933335Y-54182050D01*
X160933335Y-54182050D02*
X160842621Y-54212288D01*
X160842621Y-54212288D02*
X160782145Y-54212288D01*
X160782145Y-54212288D02*
X160691430Y-54182050D01*
X160691430Y-54182050D02*
X160630954Y-54121573D01*
X160630954Y-54121573D02*
X160600716Y-54061097D01*
X160600716Y-54061097D02*
X160570478Y-53940145D01*
X160570478Y-53940145D02*
X160570478Y-53849430D01*
X160570478Y-53849430D02*
X160600716Y-53728478D01*
X160600716Y-53728478D02*
X160630954Y-53668002D01*
X160630954Y-53668002D02*
X160691430Y-53607526D01*
X160691430Y-53607526D02*
X160782145Y-53577288D01*
X160782145Y-53577288D02*
X160842621Y-53577288D01*
X160842621Y-53577288D02*
X160933335Y-53607526D01*
X160933335Y-53607526D02*
X160963573Y-53637764D01*
X161507859Y-53788954D02*
X161507859Y-54212288D01*
X161356668Y-53547050D02*
X161205478Y-54000621D01*
X161205478Y-54000621D02*
X161598573Y-54000621D01*
X113360476Y-51887288D02*
X113723333Y-51887288D01*
X113541904Y-52522288D02*
X113541904Y-51887288D01*
X114297857Y-52461811D02*
X114267619Y-52492050D01*
X114267619Y-52492050D02*
X114176905Y-52522288D01*
X114176905Y-52522288D02*
X114116429Y-52522288D01*
X114116429Y-52522288D02*
X114025714Y-52492050D01*
X114025714Y-52492050D02*
X113965238Y-52431573D01*
X113965238Y-52431573D02*
X113935000Y-52371097D01*
X113935000Y-52371097D02*
X113904762Y-52250145D01*
X113904762Y-52250145D02*
X113904762Y-52159430D01*
X113904762Y-52159430D02*
X113935000Y-52038478D01*
X113935000Y-52038478D02*
X113965238Y-51978002D01*
X113965238Y-51978002D02*
X114025714Y-51917526D01*
X114025714Y-51917526D02*
X114116429Y-51887288D01*
X114116429Y-51887288D02*
X114176905Y-51887288D01*
X114176905Y-51887288D02*
X114267619Y-51917526D01*
X114267619Y-51917526D02*
X114297857Y-51947764D01*
X114902619Y-52522288D02*
X114539762Y-52522288D01*
X114721190Y-52522288D02*
X114721190Y-51887288D01*
X114721190Y-51887288D02*
X114660714Y-51978002D01*
X114660714Y-51978002D02*
X114600238Y-52038478D01*
X114600238Y-52038478D02*
X114539762Y-52068716D01*
X116051668Y-51887288D02*
X116414525Y-51887288D01*
X116233096Y-52522288D02*
X116233096Y-51887288D01*
X116989049Y-52461811D02*
X116958811Y-52492050D01*
X116958811Y-52492050D02*
X116868097Y-52522288D01*
X116868097Y-52522288D02*
X116807621Y-52522288D01*
X116807621Y-52522288D02*
X116716906Y-52492050D01*
X116716906Y-52492050D02*
X116656430Y-52431573D01*
X116656430Y-52431573D02*
X116626192Y-52371097D01*
X116626192Y-52371097D02*
X116595954Y-52250145D01*
X116595954Y-52250145D02*
X116595954Y-52159430D01*
X116595954Y-52159430D02*
X116626192Y-52038478D01*
X116626192Y-52038478D02*
X116656430Y-51978002D01*
X116656430Y-51978002D02*
X116716906Y-51917526D01*
X116716906Y-51917526D02*
X116807621Y-51887288D01*
X116807621Y-51887288D02*
X116868097Y-51887288D01*
X116868097Y-51887288D02*
X116958811Y-51917526D01*
X116958811Y-51917526D02*
X116989049Y-51947764D01*
X117230954Y-51947764D02*
X117261192Y-51917526D01*
X117261192Y-51917526D02*
X117321668Y-51887288D01*
X117321668Y-51887288D02*
X117472859Y-51887288D01*
X117472859Y-51887288D02*
X117533335Y-51917526D01*
X117533335Y-51917526D02*
X117563573Y-51947764D01*
X117563573Y-51947764D02*
X117593811Y-52008240D01*
X117593811Y-52008240D02*
X117593811Y-52068716D01*
X117593811Y-52068716D02*
X117563573Y-52159430D01*
X117563573Y-52159430D02*
X117200716Y-52522288D01*
X117200716Y-52522288D02*
X117593811Y-52522288D01*
X118742860Y-51887288D02*
X119105717Y-51887288D01*
X118924288Y-52522288D02*
X118924288Y-51887288D01*
X119680241Y-52461811D02*
X119650003Y-52492050D01*
X119650003Y-52492050D02*
X119559289Y-52522288D01*
X119559289Y-52522288D02*
X119498813Y-52522288D01*
X119498813Y-52522288D02*
X119408098Y-52492050D01*
X119408098Y-52492050D02*
X119347622Y-52431573D01*
X119347622Y-52431573D02*
X119317384Y-52371097D01*
X119317384Y-52371097D02*
X119287146Y-52250145D01*
X119287146Y-52250145D02*
X119287146Y-52159430D01*
X119287146Y-52159430D02*
X119317384Y-52038478D01*
X119317384Y-52038478D02*
X119347622Y-51978002D01*
X119347622Y-51978002D02*
X119408098Y-51917526D01*
X119408098Y-51917526D02*
X119498813Y-51887288D01*
X119498813Y-51887288D02*
X119559289Y-51887288D01*
X119559289Y-51887288D02*
X119650003Y-51917526D01*
X119650003Y-51917526D02*
X119680241Y-51947764D01*
X119891908Y-51887288D02*
X120285003Y-51887288D01*
X120285003Y-51887288D02*
X120073336Y-52129192D01*
X120073336Y-52129192D02*
X120164051Y-52129192D01*
X120164051Y-52129192D02*
X120224527Y-52159430D01*
X120224527Y-52159430D02*
X120254765Y-52189669D01*
X120254765Y-52189669D02*
X120285003Y-52250145D01*
X120285003Y-52250145D02*
X120285003Y-52401335D01*
X120285003Y-52401335D02*
X120254765Y-52461811D01*
X120254765Y-52461811D02*
X120224527Y-52492050D01*
X120224527Y-52492050D02*
X120164051Y-52522288D01*
X120164051Y-52522288D02*
X119982622Y-52522288D01*
X119982622Y-52522288D02*
X119922146Y-52492050D01*
X119922146Y-52492050D02*
X119891908Y-52461811D01*
X121434052Y-51887288D02*
X121796909Y-51887288D01*
X121615480Y-52522288D02*
X121615480Y-51887288D01*
X122371433Y-52461811D02*
X122341195Y-52492050D01*
X122341195Y-52492050D02*
X122250481Y-52522288D01*
X122250481Y-52522288D02*
X122190005Y-52522288D01*
X122190005Y-52522288D02*
X122099290Y-52492050D01*
X122099290Y-52492050D02*
X122038814Y-52431573D01*
X122038814Y-52431573D02*
X122008576Y-52371097D01*
X122008576Y-52371097D02*
X121978338Y-52250145D01*
X121978338Y-52250145D02*
X121978338Y-52159430D01*
X121978338Y-52159430D02*
X122008576Y-52038478D01*
X122008576Y-52038478D02*
X122038814Y-51978002D01*
X122038814Y-51978002D02*
X122099290Y-51917526D01*
X122099290Y-51917526D02*
X122190005Y-51887288D01*
X122190005Y-51887288D02*
X122250481Y-51887288D01*
X122250481Y-51887288D02*
X122341195Y-51917526D01*
X122341195Y-51917526D02*
X122371433Y-51947764D01*
X122915719Y-52098954D02*
X122915719Y-52522288D01*
X122764528Y-51857050D02*
X122613338Y-52310621D01*
X122613338Y-52310621D02*
X123006433Y-52310621D01*
X158639047Y-71011811D02*
X158608809Y-71042050D01*
X158608809Y-71042050D02*
X158518095Y-71072288D01*
X158518095Y-71072288D02*
X158457619Y-71072288D01*
X158457619Y-71072288D02*
X158366904Y-71042050D01*
X158366904Y-71042050D02*
X158306428Y-70981573D01*
X158306428Y-70981573D02*
X158276190Y-70921097D01*
X158276190Y-70921097D02*
X158245952Y-70800145D01*
X158245952Y-70800145D02*
X158245952Y-70709430D01*
X158245952Y-70709430D02*
X158276190Y-70588478D01*
X158276190Y-70588478D02*
X158306428Y-70528002D01*
X158306428Y-70528002D02*
X158366904Y-70467526D01*
X158366904Y-70467526D02*
X158457619Y-70437288D01*
X158457619Y-70437288D02*
X158518095Y-70437288D01*
X158518095Y-70437288D02*
X158608809Y-70467526D01*
X158608809Y-70467526D02*
X158639047Y-70497764D01*
X158880952Y-71042050D02*
X158971666Y-71072288D01*
X158971666Y-71072288D02*
X159122857Y-71072288D01*
X159122857Y-71072288D02*
X159183333Y-71042050D01*
X159183333Y-71042050D02*
X159213571Y-71011811D01*
X159213571Y-71011811D02*
X159243809Y-70951335D01*
X159243809Y-70951335D02*
X159243809Y-70890859D01*
X159243809Y-70890859D02*
X159213571Y-70830383D01*
X159213571Y-70830383D02*
X159183333Y-70800145D01*
X159183333Y-70800145D02*
X159122857Y-70769907D01*
X159122857Y-70769907D02*
X159001904Y-70739669D01*
X159001904Y-70739669D02*
X158941428Y-70709430D01*
X158941428Y-70709430D02*
X158911190Y-70679192D01*
X158911190Y-70679192D02*
X158880952Y-70618716D01*
X158880952Y-70618716D02*
X158880952Y-70558240D01*
X158880952Y-70558240D02*
X158911190Y-70497764D01*
X158911190Y-70497764D02*
X158941428Y-70467526D01*
X158941428Y-70467526D02*
X159001904Y-70437288D01*
X159001904Y-70437288D02*
X159153095Y-70437288D01*
X159153095Y-70437288D02*
X159243809Y-70467526D01*
X159788095Y-70648954D02*
X159788095Y-71072288D01*
X159636904Y-70407050D02*
X159485714Y-70860621D01*
X159485714Y-70860621D02*
X159878809Y-70860621D01*
X160513810Y-70437288D02*
X160876667Y-70437288D01*
X160695238Y-71072288D02*
X160695238Y-70437288D01*
X161451191Y-71011811D02*
X161420953Y-71042050D01*
X161420953Y-71042050D02*
X161330239Y-71072288D01*
X161330239Y-71072288D02*
X161269763Y-71072288D01*
X161269763Y-71072288D02*
X161179048Y-71042050D01*
X161179048Y-71042050D02*
X161118572Y-70981573D01*
X161118572Y-70981573D02*
X161088334Y-70921097D01*
X161088334Y-70921097D02*
X161058096Y-70800145D01*
X161058096Y-70800145D02*
X161058096Y-70709430D01*
X161058096Y-70709430D02*
X161088334Y-70588478D01*
X161088334Y-70588478D02*
X161118572Y-70528002D01*
X161118572Y-70528002D02*
X161179048Y-70467526D01*
X161179048Y-70467526D02*
X161269763Y-70437288D01*
X161269763Y-70437288D02*
X161330239Y-70437288D01*
X161330239Y-70437288D02*
X161420953Y-70467526D01*
X161420953Y-70467526D02*
X161451191Y-70497764D01*
X161995477Y-70648954D02*
X161995477Y-71072288D01*
X161844286Y-70407050D02*
X161693096Y-70860621D01*
X161693096Y-70860621D02*
X162086191Y-70860621D01*
D10*
X108590476Y-73590000D02*
X108733333Y-73637619D01*
X108733333Y-73637619D02*
X108971428Y-73637619D01*
X108971428Y-73637619D02*
X109066666Y-73590000D01*
X109066666Y-73590000D02*
X109114285Y-73542380D01*
X109114285Y-73542380D02*
X109161904Y-73447142D01*
X109161904Y-73447142D02*
X109161904Y-73351904D01*
X109161904Y-73351904D02*
X109114285Y-73256666D01*
X109114285Y-73256666D02*
X109066666Y-73209047D01*
X109066666Y-73209047D02*
X108971428Y-73161428D01*
X108971428Y-73161428D02*
X108780952Y-73113809D01*
X108780952Y-73113809D02*
X108685714Y-73066190D01*
X108685714Y-73066190D02*
X108638095Y-73018571D01*
X108638095Y-73018571D02*
X108590476Y-72923333D01*
X108590476Y-72923333D02*
X108590476Y-72828095D01*
X108590476Y-72828095D02*
X108638095Y-72732857D01*
X108638095Y-72732857D02*
X108685714Y-72685238D01*
X108685714Y-72685238D02*
X108780952Y-72637619D01*
X108780952Y-72637619D02*
X109019047Y-72637619D01*
X109019047Y-72637619D02*
X109161904Y-72685238D01*
X109590476Y-73637619D02*
X109590476Y-72637619D01*
X109590476Y-72637619D02*
X109971428Y-72637619D01*
X109971428Y-72637619D02*
X110066666Y-72685238D01*
X110066666Y-72685238D02*
X110114285Y-72732857D01*
X110114285Y-72732857D02*
X110161904Y-72828095D01*
X110161904Y-72828095D02*
X110161904Y-72970952D01*
X110161904Y-72970952D02*
X110114285Y-73066190D01*
X110114285Y-73066190D02*
X110066666Y-73113809D01*
X110066666Y-73113809D02*
X109971428Y-73161428D01*
X109971428Y-73161428D02*
X109590476Y-73161428D01*
X110590476Y-73637619D02*
X110590476Y-72637619D01*
X111590475Y-73637619D02*
X111019047Y-73637619D01*
X111304761Y-73637619D02*
X111304761Y-72637619D01*
X111304761Y-72637619D02*
X111209523Y-72780476D01*
X111209523Y-72780476D02*
X111114285Y-72875714D01*
X111114285Y-72875714D02*
X111019047Y-72923333D01*
X111780952Y-73732857D02*
X112542856Y-73732857D01*
X112733333Y-73590000D02*
X112876190Y-73637619D01*
X112876190Y-73637619D02*
X113114285Y-73637619D01*
X113114285Y-73637619D02*
X113209523Y-73590000D01*
X113209523Y-73590000D02*
X113257142Y-73542380D01*
X113257142Y-73542380D02*
X113304761Y-73447142D01*
X113304761Y-73447142D02*
X113304761Y-73351904D01*
X113304761Y-73351904D02*
X113257142Y-73256666D01*
X113257142Y-73256666D02*
X113209523Y-73209047D01*
X113209523Y-73209047D02*
X113114285Y-73161428D01*
X113114285Y-73161428D02*
X112923809Y-73113809D01*
X112923809Y-73113809D02*
X112828571Y-73066190D01*
X112828571Y-73066190D02*
X112780952Y-73018571D01*
X112780952Y-73018571D02*
X112733333Y-72923333D01*
X112733333Y-72923333D02*
X112733333Y-72828095D01*
X112733333Y-72828095D02*
X112780952Y-72732857D01*
X112780952Y-72732857D02*
X112828571Y-72685238D01*
X112828571Y-72685238D02*
X112923809Y-72637619D01*
X112923809Y-72637619D02*
X113161904Y-72637619D01*
X113161904Y-72637619D02*
X113304761Y-72685238D01*
X114304761Y-73542380D02*
X114257142Y-73590000D01*
X114257142Y-73590000D02*
X114114285Y-73637619D01*
X114114285Y-73637619D02*
X114019047Y-73637619D01*
X114019047Y-73637619D02*
X113876190Y-73590000D01*
X113876190Y-73590000D02*
X113780952Y-73494761D01*
X113780952Y-73494761D02*
X113733333Y-73399523D01*
X113733333Y-73399523D02*
X113685714Y-73209047D01*
X113685714Y-73209047D02*
X113685714Y-73066190D01*
X113685714Y-73066190D02*
X113733333Y-72875714D01*
X113733333Y-72875714D02*
X113780952Y-72780476D01*
X113780952Y-72780476D02*
X113876190Y-72685238D01*
X113876190Y-72685238D02*
X114019047Y-72637619D01*
X114019047Y-72637619D02*
X114114285Y-72637619D01*
X114114285Y-72637619D02*
X114257142Y-72685238D01*
X114257142Y-72685238D02*
X114304761Y-72732857D01*
X114733333Y-73637619D02*
X114733333Y-72637619D01*
X115304761Y-73637619D02*
X114876190Y-73066190D01*
X115304761Y-72637619D02*
X114733333Y-73209047D01*
D11*
X122057288Y-45129523D02*
X122057288Y-44766666D01*
X122692288Y-44948095D02*
X122057288Y-44948095D01*
X122631811Y-44192142D02*
X122662050Y-44222380D01*
X122662050Y-44222380D02*
X122692288Y-44313094D01*
X122692288Y-44313094D02*
X122692288Y-44373570D01*
X122692288Y-44373570D02*
X122662050Y-44464285D01*
X122662050Y-44464285D02*
X122601573Y-44524761D01*
X122601573Y-44524761D02*
X122541097Y-44554999D01*
X122541097Y-44554999D02*
X122420145Y-44585237D01*
X122420145Y-44585237D02*
X122329430Y-44585237D01*
X122329430Y-44585237D02*
X122208478Y-44554999D01*
X122208478Y-44554999D02*
X122148002Y-44524761D01*
X122148002Y-44524761D02*
X122087526Y-44464285D01*
X122087526Y-44464285D02*
X122057288Y-44373570D01*
X122057288Y-44373570D02*
X122057288Y-44313094D01*
X122057288Y-44313094D02*
X122087526Y-44222380D01*
X122087526Y-44222380D02*
X122117764Y-44192142D01*
X122268954Y-43647856D02*
X122692288Y-43647856D01*
X122027050Y-43799047D02*
X122480621Y-43950237D01*
X122480621Y-43950237D02*
X122480621Y-43557142D01*
X122752764Y-43466428D02*
X122752764Y-42982618D01*
X122057288Y-42922141D02*
X122057288Y-42559284D01*
X122692288Y-42740713D02*
X122057288Y-42740713D01*
X122450383Y-42347617D02*
X122450383Y-41863808D01*
X122692288Y-42105712D02*
X122208478Y-42105712D01*
X115127288Y-47999523D02*
X115127288Y-47636666D01*
X115762288Y-47818095D02*
X115127288Y-47818095D01*
X115701811Y-47062142D02*
X115732050Y-47092380D01*
X115732050Y-47092380D02*
X115762288Y-47183094D01*
X115762288Y-47183094D02*
X115762288Y-47243570D01*
X115762288Y-47243570D02*
X115732050Y-47334285D01*
X115732050Y-47334285D02*
X115671573Y-47394761D01*
X115671573Y-47394761D02*
X115611097Y-47424999D01*
X115611097Y-47424999D02*
X115490145Y-47455237D01*
X115490145Y-47455237D02*
X115399430Y-47455237D01*
X115399430Y-47455237D02*
X115278478Y-47424999D01*
X115278478Y-47424999D02*
X115218002Y-47394761D01*
X115218002Y-47394761D02*
X115157526Y-47334285D01*
X115157526Y-47334285D02*
X115127288Y-47243570D01*
X115127288Y-47243570D02*
X115127288Y-47183094D01*
X115127288Y-47183094D02*
X115157526Y-47092380D01*
X115157526Y-47092380D02*
X115187764Y-47062142D01*
X115187764Y-46820237D02*
X115157526Y-46789999D01*
X115157526Y-46789999D02*
X115127288Y-46729523D01*
X115127288Y-46729523D02*
X115127288Y-46578332D01*
X115127288Y-46578332D02*
X115157526Y-46517856D01*
X115157526Y-46517856D02*
X115187764Y-46487618D01*
X115187764Y-46487618D02*
X115248240Y-46457380D01*
X115248240Y-46457380D02*
X115308716Y-46457380D01*
X115308716Y-46457380D02*
X115399430Y-46487618D01*
X115399430Y-46487618D02*
X115762288Y-46850475D01*
X115762288Y-46850475D02*
X115762288Y-46457380D01*
X115822764Y-46336428D02*
X115822764Y-45852618D01*
X115127288Y-45792141D02*
X115127288Y-45429284D01*
X115762288Y-45610713D02*
X115127288Y-45610713D01*
X115520383Y-45217617D02*
X115520383Y-44733808D01*
X120707288Y-48019523D02*
X120707288Y-47656666D01*
X121342288Y-47838095D02*
X120707288Y-47838095D01*
X121281811Y-47082142D02*
X121312050Y-47112380D01*
X121312050Y-47112380D02*
X121342288Y-47203094D01*
X121342288Y-47203094D02*
X121342288Y-47263570D01*
X121342288Y-47263570D02*
X121312050Y-47354285D01*
X121312050Y-47354285D02*
X121251573Y-47414761D01*
X121251573Y-47414761D02*
X121191097Y-47444999D01*
X121191097Y-47444999D02*
X121070145Y-47475237D01*
X121070145Y-47475237D02*
X120979430Y-47475237D01*
X120979430Y-47475237D02*
X120858478Y-47444999D01*
X120858478Y-47444999D02*
X120798002Y-47414761D01*
X120798002Y-47414761D02*
X120737526Y-47354285D01*
X120737526Y-47354285D02*
X120707288Y-47263570D01*
X120707288Y-47263570D02*
X120707288Y-47203094D01*
X120707288Y-47203094D02*
X120737526Y-47112380D01*
X120737526Y-47112380D02*
X120767764Y-47082142D01*
X120918954Y-46537856D02*
X121342288Y-46537856D01*
X120677050Y-46689047D02*
X121130621Y-46840237D01*
X121130621Y-46840237D02*
X121130621Y-46447142D01*
X121402764Y-46356428D02*
X121402764Y-45872618D01*
X120707288Y-45812141D02*
X120707288Y-45449284D01*
X121342288Y-45630713D02*
X120707288Y-45630713D01*
X121100383Y-45237617D02*
X121100383Y-44753808D01*
X156702050Y-93539047D02*
X156732288Y-93448333D01*
X156732288Y-93448333D02*
X156732288Y-93297142D01*
X156732288Y-93297142D02*
X156702050Y-93236666D01*
X156702050Y-93236666D02*
X156671811Y-93206428D01*
X156671811Y-93206428D02*
X156611335Y-93176190D01*
X156611335Y-93176190D02*
X156550859Y-93176190D01*
X156550859Y-93176190D02*
X156490383Y-93206428D01*
X156490383Y-93206428D02*
X156460145Y-93236666D01*
X156460145Y-93236666D02*
X156429907Y-93297142D01*
X156429907Y-93297142D02*
X156399669Y-93418095D01*
X156399669Y-93418095D02*
X156369430Y-93478571D01*
X156369430Y-93478571D02*
X156339192Y-93508809D01*
X156339192Y-93508809D02*
X156278716Y-93539047D01*
X156278716Y-93539047D02*
X156218240Y-93539047D01*
X156218240Y-93539047D02*
X156157764Y-93508809D01*
X156157764Y-93508809D02*
X156127526Y-93478571D01*
X156127526Y-93478571D02*
X156097288Y-93418095D01*
X156097288Y-93418095D02*
X156097288Y-93266904D01*
X156097288Y-93266904D02*
X156127526Y-93176190D01*
X156732288Y-92904047D02*
X156097288Y-92904047D01*
X156097288Y-92904047D02*
X156097288Y-92662142D01*
X156097288Y-92662142D02*
X156127526Y-92601666D01*
X156127526Y-92601666D02*
X156157764Y-92571428D01*
X156157764Y-92571428D02*
X156218240Y-92541190D01*
X156218240Y-92541190D02*
X156308954Y-92541190D01*
X156308954Y-92541190D02*
X156369430Y-92571428D01*
X156369430Y-92571428D02*
X156399669Y-92601666D01*
X156399669Y-92601666D02*
X156429907Y-92662142D01*
X156429907Y-92662142D02*
X156429907Y-92904047D01*
X156732288Y-92269047D02*
X156097288Y-92269047D01*
X156097288Y-91845714D02*
X156097288Y-91724761D01*
X156097288Y-91724761D02*
X156127526Y-91664285D01*
X156127526Y-91664285D02*
X156188002Y-91603809D01*
X156188002Y-91603809D02*
X156308954Y-91573571D01*
X156308954Y-91573571D02*
X156520621Y-91573571D01*
X156520621Y-91573571D02*
X156641573Y-91603809D01*
X156641573Y-91603809D02*
X156702050Y-91664285D01*
X156702050Y-91664285D02*
X156732288Y-91724761D01*
X156732288Y-91724761D02*
X156732288Y-91845714D01*
X156732288Y-91845714D02*
X156702050Y-91906190D01*
X156702050Y-91906190D02*
X156641573Y-91966666D01*
X156641573Y-91966666D02*
X156520621Y-91996904D01*
X156520621Y-91996904D02*
X156308954Y-91996904D01*
X156308954Y-91996904D02*
X156188002Y-91966666D01*
X156188002Y-91966666D02*
X156127526Y-91906190D01*
X156127526Y-91906190D02*
X156097288Y-91845714D01*
X156792764Y-91452619D02*
X156792764Y-90968809D01*
X156702050Y-90847856D02*
X156732288Y-90757142D01*
X156732288Y-90757142D02*
X156732288Y-90605951D01*
X156732288Y-90605951D02*
X156702050Y-90545475D01*
X156702050Y-90545475D02*
X156671811Y-90515237D01*
X156671811Y-90515237D02*
X156611335Y-90484999D01*
X156611335Y-90484999D02*
X156550859Y-90484999D01*
X156550859Y-90484999D02*
X156490383Y-90515237D01*
X156490383Y-90515237D02*
X156460145Y-90545475D01*
X156460145Y-90545475D02*
X156429907Y-90605951D01*
X156429907Y-90605951D02*
X156399669Y-90726904D01*
X156399669Y-90726904D02*
X156369430Y-90787380D01*
X156369430Y-90787380D02*
X156339192Y-90817618D01*
X156339192Y-90817618D02*
X156278716Y-90847856D01*
X156278716Y-90847856D02*
X156218240Y-90847856D01*
X156218240Y-90847856D02*
X156157764Y-90817618D01*
X156157764Y-90817618D02*
X156127526Y-90787380D01*
X156127526Y-90787380D02*
X156097288Y-90726904D01*
X156097288Y-90726904D02*
X156097288Y-90575713D01*
X156097288Y-90575713D02*
X156127526Y-90484999D01*
X156671811Y-89849999D02*
X156702050Y-89880237D01*
X156702050Y-89880237D02*
X156732288Y-89970951D01*
X156732288Y-89970951D02*
X156732288Y-90031427D01*
X156732288Y-90031427D02*
X156702050Y-90122142D01*
X156702050Y-90122142D02*
X156641573Y-90182618D01*
X156641573Y-90182618D02*
X156581097Y-90212856D01*
X156581097Y-90212856D02*
X156460145Y-90243094D01*
X156460145Y-90243094D02*
X156369430Y-90243094D01*
X156369430Y-90243094D02*
X156248478Y-90212856D01*
X156248478Y-90212856D02*
X156188002Y-90182618D01*
X156188002Y-90182618D02*
X156127526Y-90122142D01*
X156127526Y-90122142D02*
X156097288Y-90031427D01*
X156097288Y-90031427D02*
X156097288Y-89970951D01*
X156097288Y-89970951D02*
X156127526Y-89880237D01*
X156127526Y-89880237D02*
X156157764Y-89849999D01*
X156732288Y-89577856D02*
X156097288Y-89577856D01*
X156732288Y-89214999D02*
X156369430Y-89487142D01*
X156097288Y-89214999D02*
X156460145Y-89577856D01*
D10*
X108370476Y-90760000D02*
X108513333Y-90807619D01*
X108513333Y-90807619D02*
X108751428Y-90807619D01*
X108751428Y-90807619D02*
X108846666Y-90760000D01*
X108846666Y-90760000D02*
X108894285Y-90712380D01*
X108894285Y-90712380D02*
X108941904Y-90617142D01*
X108941904Y-90617142D02*
X108941904Y-90521904D01*
X108941904Y-90521904D02*
X108894285Y-90426666D01*
X108894285Y-90426666D02*
X108846666Y-90379047D01*
X108846666Y-90379047D02*
X108751428Y-90331428D01*
X108751428Y-90331428D02*
X108560952Y-90283809D01*
X108560952Y-90283809D02*
X108465714Y-90236190D01*
X108465714Y-90236190D02*
X108418095Y-90188571D01*
X108418095Y-90188571D02*
X108370476Y-90093333D01*
X108370476Y-90093333D02*
X108370476Y-89998095D01*
X108370476Y-89998095D02*
X108418095Y-89902857D01*
X108418095Y-89902857D02*
X108465714Y-89855238D01*
X108465714Y-89855238D02*
X108560952Y-89807619D01*
X108560952Y-89807619D02*
X108799047Y-89807619D01*
X108799047Y-89807619D02*
X108941904Y-89855238D01*
X109370476Y-90807619D02*
X109370476Y-89807619D01*
X109370476Y-89807619D02*
X109751428Y-89807619D01*
X109751428Y-89807619D02*
X109846666Y-89855238D01*
X109846666Y-89855238D02*
X109894285Y-89902857D01*
X109894285Y-89902857D02*
X109941904Y-89998095D01*
X109941904Y-89998095D02*
X109941904Y-90140952D01*
X109941904Y-90140952D02*
X109894285Y-90236190D01*
X109894285Y-90236190D02*
X109846666Y-90283809D01*
X109846666Y-90283809D02*
X109751428Y-90331428D01*
X109751428Y-90331428D02*
X109370476Y-90331428D01*
X110370476Y-90807619D02*
X110370476Y-89807619D01*
X111370475Y-90807619D02*
X110799047Y-90807619D01*
X111084761Y-90807619D02*
X111084761Y-89807619D01*
X111084761Y-89807619D02*
X110989523Y-89950476D01*
X110989523Y-89950476D02*
X110894285Y-90045714D01*
X110894285Y-90045714D02*
X110799047Y-90093333D01*
X111560952Y-90902857D02*
X112322856Y-90902857D01*
X112560952Y-90807619D02*
X112560952Y-89807619D01*
X112560952Y-89807619D02*
X112894285Y-90521904D01*
X112894285Y-90521904D02*
X113227618Y-89807619D01*
X113227618Y-89807619D02*
X113227618Y-90807619D01*
X113703809Y-90807619D02*
X113703809Y-89807619D01*
X114132380Y-90760000D02*
X114275237Y-90807619D01*
X114275237Y-90807619D02*
X114513332Y-90807619D01*
X114513332Y-90807619D02*
X114608570Y-90760000D01*
X114608570Y-90760000D02*
X114656189Y-90712380D01*
X114656189Y-90712380D02*
X114703808Y-90617142D01*
X114703808Y-90617142D02*
X114703808Y-90521904D01*
X114703808Y-90521904D02*
X114656189Y-90426666D01*
X114656189Y-90426666D02*
X114608570Y-90379047D01*
X114608570Y-90379047D02*
X114513332Y-90331428D01*
X114513332Y-90331428D02*
X114322856Y-90283809D01*
X114322856Y-90283809D02*
X114227618Y-90236190D01*
X114227618Y-90236190D02*
X114179999Y-90188571D01*
X114179999Y-90188571D02*
X114132380Y-90093333D01*
X114132380Y-90093333D02*
X114132380Y-89998095D01*
X114132380Y-89998095D02*
X114179999Y-89902857D01*
X114179999Y-89902857D02*
X114227618Y-89855238D01*
X114227618Y-89855238D02*
X114322856Y-89807619D01*
X114322856Y-89807619D02*
X114560951Y-89807619D01*
X114560951Y-89807619D02*
X114703808Y-89855238D01*
X115322856Y-89807619D02*
X115513332Y-89807619D01*
X115513332Y-89807619D02*
X115608570Y-89855238D01*
X115608570Y-89855238D02*
X115703808Y-89950476D01*
X115703808Y-89950476D02*
X115751427Y-90140952D01*
X115751427Y-90140952D02*
X115751427Y-90474285D01*
X115751427Y-90474285D02*
X115703808Y-90664761D01*
X115703808Y-90664761D02*
X115608570Y-90760000D01*
X115608570Y-90760000D02*
X115513332Y-90807619D01*
X115513332Y-90807619D02*
X115322856Y-90807619D01*
X115322856Y-90807619D02*
X115227618Y-90760000D01*
X115227618Y-90760000D02*
X115132380Y-90664761D01*
X115132380Y-90664761D02*
X115084761Y-90474285D01*
X115084761Y-90474285D02*
X115084761Y-90140952D01*
X115084761Y-90140952D02*
X115132380Y-89950476D01*
X115132380Y-89950476D02*
X115227618Y-89855238D01*
X115227618Y-89855238D02*
X115322856Y-89807619D01*
X109331904Y-65295238D02*
X109236666Y-65247619D01*
X109236666Y-65247619D02*
X109093809Y-65247619D01*
X109093809Y-65247619D02*
X108950952Y-65295238D01*
X108950952Y-65295238D02*
X108855714Y-65390476D01*
X108855714Y-65390476D02*
X108808095Y-65485714D01*
X108808095Y-65485714D02*
X108760476Y-65676190D01*
X108760476Y-65676190D02*
X108760476Y-65819047D01*
X108760476Y-65819047D02*
X108808095Y-66009523D01*
X108808095Y-66009523D02*
X108855714Y-66104761D01*
X108855714Y-66104761D02*
X108950952Y-66200000D01*
X108950952Y-66200000D02*
X109093809Y-66247619D01*
X109093809Y-66247619D02*
X109189047Y-66247619D01*
X109189047Y-66247619D02*
X109331904Y-66200000D01*
X109331904Y-66200000D02*
X109379523Y-66152380D01*
X109379523Y-66152380D02*
X109379523Y-65819047D01*
X109379523Y-65819047D02*
X109189047Y-65819047D01*
X109808095Y-66247619D02*
X109808095Y-65247619D01*
X109808095Y-65247619D02*
X110379523Y-66247619D01*
X110379523Y-66247619D02*
X110379523Y-65247619D01*
X110855714Y-66247619D02*
X110855714Y-65247619D01*
X110855714Y-65247619D02*
X111093809Y-65247619D01*
X111093809Y-65247619D02*
X111236666Y-65295238D01*
X111236666Y-65295238D02*
X111331904Y-65390476D01*
X111331904Y-65390476D02*
X111379523Y-65485714D01*
X111379523Y-65485714D02*
X111427142Y-65676190D01*
X111427142Y-65676190D02*
X111427142Y-65819047D01*
X111427142Y-65819047D02*
X111379523Y-66009523D01*
X111379523Y-66009523D02*
X111331904Y-66104761D01*
X111331904Y-66104761D02*
X111236666Y-66200000D01*
X111236666Y-66200000D02*
X111093809Y-66247619D01*
X111093809Y-66247619D02*
X110855714Y-66247619D01*
D11*
X116567288Y-45119523D02*
X116567288Y-44756666D01*
X117202288Y-44938095D02*
X116567288Y-44938095D01*
X117141811Y-44182142D02*
X117172050Y-44212380D01*
X117172050Y-44212380D02*
X117202288Y-44303094D01*
X117202288Y-44303094D02*
X117202288Y-44363570D01*
X117202288Y-44363570D02*
X117172050Y-44454285D01*
X117172050Y-44454285D02*
X117111573Y-44514761D01*
X117111573Y-44514761D02*
X117051097Y-44544999D01*
X117051097Y-44544999D02*
X116930145Y-44575237D01*
X116930145Y-44575237D02*
X116839430Y-44575237D01*
X116839430Y-44575237D02*
X116718478Y-44544999D01*
X116718478Y-44544999D02*
X116658002Y-44514761D01*
X116658002Y-44514761D02*
X116597526Y-44454285D01*
X116597526Y-44454285D02*
X116567288Y-44363570D01*
X116567288Y-44363570D02*
X116567288Y-44303094D01*
X116567288Y-44303094D02*
X116597526Y-44212380D01*
X116597526Y-44212380D02*
X116627764Y-44182142D01*
X116627764Y-43940237D02*
X116597526Y-43909999D01*
X116597526Y-43909999D02*
X116567288Y-43849523D01*
X116567288Y-43849523D02*
X116567288Y-43698332D01*
X116567288Y-43698332D02*
X116597526Y-43637856D01*
X116597526Y-43637856D02*
X116627764Y-43607618D01*
X116627764Y-43607618D02*
X116688240Y-43577380D01*
X116688240Y-43577380D02*
X116748716Y-43577380D01*
X116748716Y-43577380D02*
X116839430Y-43607618D01*
X116839430Y-43607618D02*
X117202288Y-43970475D01*
X117202288Y-43970475D02*
X117202288Y-43577380D01*
X117262764Y-43456428D02*
X117262764Y-42972618D01*
X116567288Y-42912141D02*
X116567288Y-42549284D01*
X117202288Y-42730713D02*
X116567288Y-42730713D01*
X116960383Y-42337617D02*
X116960383Y-41853808D01*
X117202288Y-42095712D02*
X116718478Y-42095712D01*
X156692050Y-87709047D02*
X156722288Y-87618333D01*
X156722288Y-87618333D02*
X156722288Y-87467142D01*
X156722288Y-87467142D02*
X156692050Y-87406666D01*
X156692050Y-87406666D02*
X156661811Y-87376428D01*
X156661811Y-87376428D02*
X156601335Y-87346190D01*
X156601335Y-87346190D02*
X156540859Y-87346190D01*
X156540859Y-87346190D02*
X156480383Y-87376428D01*
X156480383Y-87376428D02*
X156450145Y-87406666D01*
X156450145Y-87406666D02*
X156419907Y-87467142D01*
X156419907Y-87467142D02*
X156389669Y-87588095D01*
X156389669Y-87588095D02*
X156359430Y-87648571D01*
X156359430Y-87648571D02*
X156329192Y-87678809D01*
X156329192Y-87678809D02*
X156268716Y-87709047D01*
X156268716Y-87709047D02*
X156208240Y-87709047D01*
X156208240Y-87709047D02*
X156147764Y-87678809D01*
X156147764Y-87678809D02*
X156117526Y-87648571D01*
X156117526Y-87648571D02*
X156087288Y-87588095D01*
X156087288Y-87588095D02*
X156087288Y-87436904D01*
X156087288Y-87436904D02*
X156117526Y-87346190D01*
X156722288Y-87074047D02*
X156087288Y-87074047D01*
X156087288Y-87074047D02*
X156087288Y-86832142D01*
X156087288Y-86832142D02*
X156117526Y-86771666D01*
X156117526Y-86771666D02*
X156147764Y-86741428D01*
X156147764Y-86741428D02*
X156208240Y-86711190D01*
X156208240Y-86711190D02*
X156298954Y-86711190D01*
X156298954Y-86711190D02*
X156359430Y-86741428D01*
X156359430Y-86741428D02*
X156389669Y-86771666D01*
X156389669Y-86771666D02*
X156419907Y-86832142D01*
X156419907Y-86832142D02*
X156419907Y-87074047D01*
X156722288Y-86439047D02*
X156087288Y-86439047D01*
X156722288Y-85804047D02*
X156722288Y-86166904D01*
X156722288Y-85985476D02*
X156087288Y-85985476D01*
X156087288Y-85985476D02*
X156178002Y-86045952D01*
X156178002Y-86045952D02*
X156238478Y-86106428D01*
X156238478Y-86106428D02*
X156268716Y-86166904D01*
X156782764Y-85683095D02*
X156782764Y-85199285D01*
X156692050Y-85078332D02*
X156722288Y-84987618D01*
X156722288Y-84987618D02*
X156722288Y-84836427D01*
X156722288Y-84836427D02*
X156692050Y-84775951D01*
X156692050Y-84775951D02*
X156661811Y-84745713D01*
X156661811Y-84745713D02*
X156601335Y-84715475D01*
X156601335Y-84715475D02*
X156540859Y-84715475D01*
X156540859Y-84715475D02*
X156480383Y-84745713D01*
X156480383Y-84745713D02*
X156450145Y-84775951D01*
X156450145Y-84775951D02*
X156419907Y-84836427D01*
X156419907Y-84836427D02*
X156389669Y-84957380D01*
X156389669Y-84957380D02*
X156359430Y-85017856D01*
X156359430Y-85017856D02*
X156329192Y-85048094D01*
X156329192Y-85048094D02*
X156268716Y-85078332D01*
X156268716Y-85078332D02*
X156208240Y-85078332D01*
X156208240Y-85078332D02*
X156147764Y-85048094D01*
X156147764Y-85048094D02*
X156117526Y-85017856D01*
X156117526Y-85017856D02*
X156087288Y-84957380D01*
X156087288Y-84957380D02*
X156087288Y-84806189D01*
X156087288Y-84806189D02*
X156117526Y-84715475D01*
X156661811Y-84080475D02*
X156692050Y-84110713D01*
X156692050Y-84110713D02*
X156722288Y-84201427D01*
X156722288Y-84201427D02*
X156722288Y-84261903D01*
X156722288Y-84261903D02*
X156692050Y-84352618D01*
X156692050Y-84352618D02*
X156631573Y-84413094D01*
X156631573Y-84413094D02*
X156571097Y-84443332D01*
X156571097Y-84443332D02*
X156450145Y-84473570D01*
X156450145Y-84473570D02*
X156359430Y-84473570D01*
X156359430Y-84473570D02*
X156238478Y-84443332D01*
X156238478Y-84443332D02*
X156178002Y-84413094D01*
X156178002Y-84413094D02*
X156117526Y-84352618D01*
X156117526Y-84352618D02*
X156087288Y-84261903D01*
X156087288Y-84261903D02*
X156087288Y-84201427D01*
X156087288Y-84201427D02*
X156117526Y-84110713D01*
X156117526Y-84110713D02*
X156147764Y-84080475D01*
X156722288Y-83808332D02*
X156087288Y-83808332D01*
X156722288Y-83445475D02*
X156359430Y-83717618D01*
X156087288Y-83445475D02*
X156450145Y-83808332D01*
D10*
X109151904Y-87365238D02*
X109056666Y-87317619D01*
X109056666Y-87317619D02*
X108913809Y-87317619D01*
X108913809Y-87317619D02*
X108770952Y-87365238D01*
X108770952Y-87365238D02*
X108675714Y-87460476D01*
X108675714Y-87460476D02*
X108628095Y-87555714D01*
X108628095Y-87555714D02*
X108580476Y-87746190D01*
X108580476Y-87746190D02*
X108580476Y-87889047D01*
X108580476Y-87889047D02*
X108628095Y-88079523D01*
X108628095Y-88079523D02*
X108675714Y-88174761D01*
X108675714Y-88174761D02*
X108770952Y-88270000D01*
X108770952Y-88270000D02*
X108913809Y-88317619D01*
X108913809Y-88317619D02*
X109009047Y-88317619D01*
X109009047Y-88317619D02*
X109151904Y-88270000D01*
X109151904Y-88270000D02*
X109199523Y-88222380D01*
X109199523Y-88222380D02*
X109199523Y-87889047D01*
X109199523Y-87889047D02*
X109009047Y-87889047D01*
X109628095Y-88317619D02*
X109628095Y-87317619D01*
X109628095Y-87317619D02*
X110199523Y-88317619D01*
X110199523Y-88317619D02*
X110199523Y-87317619D01*
X110675714Y-88317619D02*
X110675714Y-87317619D01*
X110675714Y-87317619D02*
X110913809Y-87317619D01*
X110913809Y-87317619D02*
X111056666Y-87365238D01*
X111056666Y-87365238D02*
X111151904Y-87460476D01*
X111151904Y-87460476D02*
X111199523Y-87555714D01*
X111199523Y-87555714D02*
X111247142Y-87746190D01*
X111247142Y-87746190D02*
X111247142Y-87889047D01*
X111247142Y-87889047D02*
X111199523Y-88079523D01*
X111199523Y-88079523D02*
X111151904Y-88174761D01*
X111151904Y-88174761D02*
X111056666Y-88270000D01*
X111056666Y-88270000D02*
X110913809Y-88317619D01*
X110913809Y-88317619D02*
X110675714Y-88317619D01*
X134040476Y-73600000D02*
X134183333Y-73647619D01*
X134183333Y-73647619D02*
X134421428Y-73647619D01*
X134421428Y-73647619D02*
X134516666Y-73600000D01*
X134516666Y-73600000D02*
X134564285Y-73552380D01*
X134564285Y-73552380D02*
X134611904Y-73457142D01*
X134611904Y-73457142D02*
X134611904Y-73361904D01*
X134611904Y-73361904D02*
X134564285Y-73266666D01*
X134564285Y-73266666D02*
X134516666Y-73219047D01*
X134516666Y-73219047D02*
X134421428Y-73171428D01*
X134421428Y-73171428D02*
X134230952Y-73123809D01*
X134230952Y-73123809D02*
X134135714Y-73076190D01*
X134135714Y-73076190D02*
X134088095Y-73028571D01*
X134088095Y-73028571D02*
X134040476Y-72933333D01*
X134040476Y-72933333D02*
X134040476Y-72838095D01*
X134040476Y-72838095D02*
X134088095Y-72742857D01*
X134088095Y-72742857D02*
X134135714Y-72695238D01*
X134135714Y-72695238D02*
X134230952Y-72647619D01*
X134230952Y-72647619D02*
X134469047Y-72647619D01*
X134469047Y-72647619D02*
X134611904Y-72695238D01*
X135040476Y-73647619D02*
X135040476Y-72647619D01*
X135040476Y-72647619D02*
X135421428Y-72647619D01*
X135421428Y-72647619D02*
X135516666Y-72695238D01*
X135516666Y-72695238D02*
X135564285Y-72742857D01*
X135564285Y-72742857D02*
X135611904Y-72838095D01*
X135611904Y-72838095D02*
X135611904Y-72980952D01*
X135611904Y-72980952D02*
X135564285Y-73076190D01*
X135564285Y-73076190D02*
X135516666Y-73123809D01*
X135516666Y-73123809D02*
X135421428Y-73171428D01*
X135421428Y-73171428D02*
X135040476Y-73171428D01*
X136040476Y-73647619D02*
X136040476Y-72647619D01*
X137040475Y-73647619D02*
X136469047Y-73647619D01*
X136754761Y-73647619D02*
X136754761Y-72647619D01*
X136754761Y-72647619D02*
X136659523Y-72790476D01*
X136659523Y-72790476D02*
X136564285Y-72885714D01*
X136564285Y-72885714D02*
X136469047Y-72933333D01*
X137230952Y-73742857D02*
X137992856Y-73742857D01*
X138183333Y-73600000D02*
X138326190Y-73647619D01*
X138326190Y-73647619D02*
X138564285Y-73647619D01*
X138564285Y-73647619D02*
X138659523Y-73600000D01*
X138659523Y-73600000D02*
X138707142Y-73552380D01*
X138707142Y-73552380D02*
X138754761Y-73457142D01*
X138754761Y-73457142D02*
X138754761Y-73361904D01*
X138754761Y-73361904D02*
X138707142Y-73266666D01*
X138707142Y-73266666D02*
X138659523Y-73219047D01*
X138659523Y-73219047D02*
X138564285Y-73171428D01*
X138564285Y-73171428D02*
X138373809Y-73123809D01*
X138373809Y-73123809D02*
X138278571Y-73076190D01*
X138278571Y-73076190D02*
X138230952Y-73028571D01*
X138230952Y-73028571D02*
X138183333Y-72933333D01*
X138183333Y-72933333D02*
X138183333Y-72838095D01*
X138183333Y-72838095D02*
X138230952Y-72742857D01*
X138230952Y-72742857D02*
X138278571Y-72695238D01*
X138278571Y-72695238D02*
X138373809Y-72647619D01*
X138373809Y-72647619D02*
X138611904Y-72647619D01*
X138611904Y-72647619D02*
X138754761Y-72695238D01*
X139754761Y-73552380D02*
X139707142Y-73600000D01*
X139707142Y-73600000D02*
X139564285Y-73647619D01*
X139564285Y-73647619D02*
X139469047Y-73647619D01*
X139469047Y-73647619D02*
X139326190Y-73600000D01*
X139326190Y-73600000D02*
X139230952Y-73504761D01*
X139230952Y-73504761D02*
X139183333Y-73409523D01*
X139183333Y-73409523D02*
X139135714Y-73219047D01*
X139135714Y-73219047D02*
X139135714Y-73076190D01*
X139135714Y-73076190D02*
X139183333Y-72885714D01*
X139183333Y-72885714D02*
X139230952Y-72790476D01*
X139230952Y-72790476D02*
X139326190Y-72695238D01*
X139326190Y-72695238D02*
X139469047Y-72647619D01*
X139469047Y-72647619D02*
X139564285Y-72647619D01*
X139564285Y-72647619D02*
X139707142Y-72695238D01*
X139707142Y-72695238D02*
X139754761Y-72742857D01*
X140183333Y-73647619D02*
X140183333Y-72647619D01*
X140754761Y-73647619D02*
X140326190Y-73076190D01*
X140754761Y-72647619D02*
X140183333Y-73219047D01*
X108228095Y-82926666D02*
X108990000Y-82926666D01*
X108609047Y-83307619D02*
X108609047Y-82545714D01*
X109370952Y-82307619D02*
X109989999Y-82307619D01*
X109989999Y-82307619D02*
X109656666Y-82688571D01*
X109656666Y-82688571D02*
X109799523Y-82688571D01*
X109799523Y-82688571D02*
X109894761Y-82736190D01*
X109894761Y-82736190D02*
X109942380Y-82783809D01*
X109942380Y-82783809D02*
X109989999Y-82879047D01*
X109989999Y-82879047D02*
X109989999Y-83117142D01*
X109989999Y-83117142D02*
X109942380Y-83212380D01*
X109942380Y-83212380D02*
X109894761Y-83260000D01*
X109894761Y-83260000D02*
X109799523Y-83307619D01*
X109799523Y-83307619D02*
X109513809Y-83307619D01*
X109513809Y-83307619D02*
X109418571Y-83260000D01*
X109418571Y-83260000D02*
X109370952Y-83212380D01*
X110418571Y-83212380D02*
X110466190Y-83260000D01*
X110466190Y-83260000D02*
X110418571Y-83307619D01*
X110418571Y-83307619D02*
X110370952Y-83260000D01*
X110370952Y-83260000D02*
X110418571Y-83212380D01*
X110418571Y-83212380D02*
X110418571Y-83307619D01*
X110799523Y-82307619D02*
X111418570Y-82307619D01*
X111418570Y-82307619D02*
X111085237Y-82688571D01*
X111085237Y-82688571D02*
X111228094Y-82688571D01*
X111228094Y-82688571D02*
X111323332Y-82736190D01*
X111323332Y-82736190D02*
X111370951Y-82783809D01*
X111370951Y-82783809D02*
X111418570Y-82879047D01*
X111418570Y-82879047D02*
X111418570Y-83117142D01*
X111418570Y-83117142D02*
X111370951Y-83212380D01*
X111370951Y-83212380D02*
X111323332Y-83260000D01*
X111323332Y-83260000D02*
X111228094Y-83307619D01*
X111228094Y-83307619D02*
X110942380Y-83307619D01*
X110942380Y-83307619D02*
X110847142Y-83260000D01*
X110847142Y-83260000D02*
X110799523Y-83212380D01*
X111704285Y-82307619D02*
X112037618Y-83307619D01*
X112037618Y-83307619D02*
X112370951Y-82307619D01*
X147315238Y-71227619D02*
X147886666Y-71227619D01*
X147600952Y-72227619D02*
X147600952Y-71227619D01*
X148791428Y-72132380D02*
X148743809Y-72180000D01*
X148743809Y-72180000D02*
X148600952Y-72227619D01*
X148600952Y-72227619D02*
X148505714Y-72227619D01*
X148505714Y-72227619D02*
X148362857Y-72180000D01*
X148362857Y-72180000D02*
X148267619Y-72084761D01*
X148267619Y-72084761D02*
X148220000Y-71989523D01*
X148220000Y-71989523D02*
X148172381Y-71799047D01*
X148172381Y-71799047D02*
X148172381Y-71656190D01*
X148172381Y-71656190D02*
X148220000Y-71465714D01*
X148220000Y-71465714D02*
X148267619Y-71370476D01*
X148267619Y-71370476D02*
X148362857Y-71275238D01*
X148362857Y-71275238D02*
X148505714Y-71227619D01*
X148505714Y-71227619D02*
X148600952Y-71227619D01*
X148600952Y-71227619D02*
X148743809Y-71275238D01*
X148743809Y-71275238D02*
X148791428Y-71322857D01*
X149172381Y-71322857D02*
X149220000Y-71275238D01*
X149220000Y-71275238D02*
X149315238Y-71227619D01*
X149315238Y-71227619D02*
X149553333Y-71227619D01*
X149553333Y-71227619D02*
X149648571Y-71275238D01*
X149648571Y-71275238D02*
X149696190Y-71322857D01*
X149696190Y-71322857D02*
X149743809Y-71418095D01*
X149743809Y-71418095D02*
X149743809Y-71513333D01*
X149743809Y-71513333D02*
X149696190Y-71656190D01*
X149696190Y-71656190D02*
X149124762Y-72227619D01*
X149124762Y-72227619D02*
X149743809Y-72227619D01*
X149934286Y-72322857D02*
X150696190Y-72322857D01*
X150791429Y-71227619D02*
X151362857Y-71227619D01*
X151077143Y-72227619D02*
X151077143Y-71227619D01*
X151696191Y-71846666D02*
X152458096Y-71846666D01*
X152077143Y-72227619D02*
X152077143Y-71465714D01*
X134060476Y-68520000D02*
X134203333Y-68567619D01*
X134203333Y-68567619D02*
X134441428Y-68567619D01*
X134441428Y-68567619D02*
X134536666Y-68520000D01*
X134536666Y-68520000D02*
X134584285Y-68472380D01*
X134584285Y-68472380D02*
X134631904Y-68377142D01*
X134631904Y-68377142D02*
X134631904Y-68281904D01*
X134631904Y-68281904D02*
X134584285Y-68186666D01*
X134584285Y-68186666D02*
X134536666Y-68139047D01*
X134536666Y-68139047D02*
X134441428Y-68091428D01*
X134441428Y-68091428D02*
X134250952Y-68043809D01*
X134250952Y-68043809D02*
X134155714Y-67996190D01*
X134155714Y-67996190D02*
X134108095Y-67948571D01*
X134108095Y-67948571D02*
X134060476Y-67853333D01*
X134060476Y-67853333D02*
X134060476Y-67758095D01*
X134060476Y-67758095D02*
X134108095Y-67662857D01*
X134108095Y-67662857D02*
X134155714Y-67615238D01*
X134155714Y-67615238D02*
X134250952Y-67567619D01*
X134250952Y-67567619D02*
X134489047Y-67567619D01*
X134489047Y-67567619D02*
X134631904Y-67615238D01*
X135060476Y-68567619D02*
X135060476Y-67567619D01*
X135060476Y-67567619D02*
X135441428Y-67567619D01*
X135441428Y-67567619D02*
X135536666Y-67615238D01*
X135536666Y-67615238D02*
X135584285Y-67662857D01*
X135584285Y-67662857D02*
X135631904Y-67758095D01*
X135631904Y-67758095D02*
X135631904Y-67900952D01*
X135631904Y-67900952D02*
X135584285Y-67996190D01*
X135584285Y-67996190D02*
X135536666Y-68043809D01*
X135536666Y-68043809D02*
X135441428Y-68091428D01*
X135441428Y-68091428D02*
X135060476Y-68091428D01*
X136060476Y-68567619D02*
X136060476Y-67567619D01*
X137060475Y-68567619D02*
X136489047Y-68567619D01*
X136774761Y-68567619D02*
X136774761Y-67567619D01*
X136774761Y-67567619D02*
X136679523Y-67710476D01*
X136679523Y-67710476D02*
X136584285Y-67805714D01*
X136584285Y-67805714D02*
X136489047Y-67853333D01*
X137250952Y-68662857D02*
X138012856Y-68662857D01*
X138250952Y-68567619D02*
X138250952Y-67567619D01*
X138250952Y-67567619D02*
X138584285Y-68281904D01*
X138584285Y-68281904D02*
X138917618Y-67567619D01*
X138917618Y-67567619D02*
X138917618Y-68567619D01*
X139393809Y-68567619D02*
X139393809Y-67567619D01*
X139822380Y-68520000D02*
X139965237Y-68567619D01*
X139965237Y-68567619D02*
X140203332Y-68567619D01*
X140203332Y-68567619D02*
X140298570Y-68520000D01*
X140298570Y-68520000D02*
X140346189Y-68472380D01*
X140346189Y-68472380D02*
X140393808Y-68377142D01*
X140393808Y-68377142D02*
X140393808Y-68281904D01*
X140393808Y-68281904D02*
X140346189Y-68186666D01*
X140346189Y-68186666D02*
X140298570Y-68139047D01*
X140298570Y-68139047D02*
X140203332Y-68091428D01*
X140203332Y-68091428D02*
X140012856Y-68043809D01*
X140012856Y-68043809D02*
X139917618Y-67996190D01*
X139917618Y-67996190D02*
X139869999Y-67948571D01*
X139869999Y-67948571D02*
X139822380Y-67853333D01*
X139822380Y-67853333D02*
X139822380Y-67758095D01*
X139822380Y-67758095D02*
X139869999Y-67662857D01*
X139869999Y-67662857D02*
X139917618Y-67615238D01*
X139917618Y-67615238D02*
X140012856Y-67567619D01*
X140012856Y-67567619D02*
X140250951Y-67567619D01*
X140250951Y-67567619D02*
X140393808Y-67615238D01*
X141012856Y-67567619D02*
X141203332Y-67567619D01*
X141203332Y-67567619D02*
X141298570Y-67615238D01*
X141298570Y-67615238D02*
X141393808Y-67710476D01*
X141393808Y-67710476D02*
X141441427Y-67900952D01*
X141441427Y-67900952D02*
X141441427Y-68234285D01*
X141441427Y-68234285D02*
X141393808Y-68424761D01*
X141393808Y-68424761D02*
X141298570Y-68520000D01*
X141298570Y-68520000D02*
X141203332Y-68567619D01*
X141203332Y-68567619D02*
X141012856Y-68567619D01*
X141012856Y-68567619D02*
X140917618Y-68520000D01*
X140917618Y-68520000D02*
X140822380Y-68424761D01*
X140822380Y-68424761D02*
X140774761Y-68234285D01*
X140774761Y-68234285D02*
X140774761Y-67900952D01*
X140774761Y-67900952D02*
X140822380Y-67710476D01*
X140822380Y-67710476D02*
X140917618Y-67615238D01*
X140917618Y-67615238D02*
X141012856Y-67567619D01*
D12*
X108360304Y-95794778D02*
X108465533Y-95829854D01*
X108465533Y-95829854D02*
X108640914Y-95829854D01*
X108640914Y-95829854D02*
X108711066Y-95794778D01*
X108711066Y-95794778D02*
X108746142Y-95759701D01*
X108746142Y-95759701D02*
X108781219Y-95689549D01*
X108781219Y-95689549D02*
X108781219Y-95619397D01*
X108781219Y-95619397D02*
X108746142Y-95549244D01*
X108746142Y-95549244D02*
X108711066Y-95514168D01*
X108711066Y-95514168D02*
X108640914Y-95479092D01*
X108640914Y-95479092D02*
X108500609Y-95444016D01*
X108500609Y-95444016D02*
X108430457Y-95408939D01*
X108430457Y-95408939D02*
X108395380Y-95373863D01*
X108395380Y-95373863D02*
X108360304Y-95303711D01*
X108360304Y-95303711D02*
X108360304Y-95233558D01*
X108360304Y-95233558D02*
X108395380Y-95163406D01*
X108395380Y-95163406D02*
X108430457Y-95128330D01*
X108430457Y-95128330D02*
X108500609Y-95093254D01*
X108500609Y-95093254D02*
X108675990Y-95093254D01*
X108675990Y-95093254D02*
X108781219Y-95128330D01*
X109096904Y-95829854D02*
X109096904Y-95093254D01*
X109096904Y-95093254D02*
X109377514Y-95093254D01*
X109377514Y-95093254D02*
X109447666Y-95128330D01*
X109447666Y-95128330D02*
X109482743Y-95163406D01*
X109482743Y-95163406D02*
X109517819Y-95233558D01*
X109517819Y-95233558D02*
X109517819Y-95338787D01*
X109517819Y-95338787D02*
X109482743Y-95408939D01*
X109482743Y-95408939D02*
X109447666Y-95444016D01*
X109447666Y-95444016D02*
X109377514Y-95479092D01*
X109377514Y-95479092D02*
X109096904Y-95479092D01*
X109833504Y-95829854D02*
X109833504Y-95093254D01*
X110570105Y-95829854D02*
X110149190Y-95829854D01*
X110359647Y-95829854D02*
X110359647Y-95093254D01*
X110359647Y-95093254D02*
X110289495Y-95198482D01*
X110289495Y-95198482D02*
X110219343Y-95268635D01*
X110219343Y-95268635D02*
X110149190Y-95303711D01*
X110710410Y-95900006D02*
X111271629Y-95900006D01*
X111411933Y-95794778D02*
X111517162Y-95829854D01*
X111517162Y-95829854D02*
X111692543Y-95829854D01*
X111692543Y-95829854D02*
X111762695Y-95794778D01*
X111762695Y-95794778D02*
X111797771Y-95759701D01*
X111797771Y-95759701D02*
X111832848Y-95689549D01*
X111832848Y-95689549D02*
X111832848Y-95619397D01*
X111832848Y-95619397D02*
X111797771Y-95549244D01*
X111797771Y-95549244D02*
X111762695Y-95514168D01*
X111762695Y-95514168D02*
X111692543Y-95479092D01*
X111692543Y-95479092D02*
X111552238Y-95444016D01*
X111552238Y-95444016D02*
X111482086Y-95408939D01*
X111482086Y-95408939D02*
X111447009Y-95373863D01*
X111447009Y-95373863D02*
X111411933Y-95303711D01*
X111411933Y-95303711D02*
X111411933Y-95233558D01*
X111411933Y-95233558D02*
X111447009Y-95163406D01*
X111447009Y-95163406D02*
X111482086Y-95128330D01*
X111482086Y-95128330D02*
X111552238Y-95093254D01*
X111552238Y-95093254D02*
X111727619Y-95093254D01*
X111727619Y-95093254D02*
X111832848Y-95128330D01*
X112569448Y-95759701D02*
X112534372Y-95794778D01*
X112534372Y-95794778D02*
X112429143Y-95829854D01*
X112429143Y-95829854D02*
X112358991Y-95829854D01*
X112358991Y-95829854D02*
X112253762Y-95794778D01*
X112253762Y-95794778D02*
X112183610Y-95724625D01*
X112183610Y-95724625D02*
X112148533Y-95654473D01*
X112148533Y-95654473D02*
X112113457Y-95514168D01*
X112113457Y-95514168D02*
X112113457Y-95408939D01*
X112113457Y-95408939D02*
X112148533Y-95268635D01*
X112148533Y-95268635D02*
X112183610Y-95198482D01*
X112183610Y-95198482D02*
X112253762Y-95128330D01*
X112253762Y-95128330D02*
X112358991Y-95093254D01*
X112358991Y-95093254D02*
X112429143Y-95093254D01*
X112429143Y-95093254D02*
X112534372Y-95128330D01*
X112534372Y-95128330D02*
X112569448Y-95163406D01*
X112885133Y-95829854D02*
X112885133Y-95093254D01*
X113306048Y-95829854D02*
X112990362Y-95408939D01*
X113306048Y-95093254D02*
X112885133Y-95514168D01*
D11*
X155735476Y-67562288D02*
X156098333Y-67562288D01*
X155916904Y-68197288D02*
X155916904Y-67562288D01*
X156672857Y-68136811D02*
X156642619Y-68167050D01*
X156642619Y-68167050D02*
X156551905Y-68197288D01*
X156551905Y-68197288D02*
X156491429Y-68197288D01*
X156491429Y-68197288D02*
X156400714Y-68167050D01*
X156400714Y-68167050D02*
X156340238Y-68106573D01*
X156340238Y-68106573D02*
X156310000Y-68046097D01*
X156310000Y-68046097D02*
X156279762Y-67925145D01*
X156279762Y-67925145D02*
X156279762Y-67834430D01*
X156279762Y-67834430D02*
X156310000Y-67713478D01*
X156310000Y-67713478D02*
X156340238Y-67653002D01*
X156340238Y-67653002D02*
X156400714Y-67592526D01*
X156400714Y-67592526D02*
X156491429Y-67562288D01*
X156491429Y-67562288D02*
X156551905Y-67562288D01*
X156551905Y-67562288D02*
X156642619Y-67592526D01*
X156642619Y-67592526D02*
X156672857Y-67622764D01*
X157277619Y-68197288D02*
X156914762Y-68197288D01*
X157096190Y-68197288D02*
X157096190Y-67562288D01*
X157096190Y-67562288D02*
X157035714Y-67653002D01*
X157035714Y-67653002D02*
X156975238Y-67713478D01*
X156975238Y-67713478D02*
X156914762Y-67743716D01*
X158396429Y-68136811D02*
X158366191Y-68167050D01*
X158366191Y-68167050D02*
X158275477Y-68197288D01*
X158275477Y-68197288D02*
X158215001Y-68197288D01*
X158215001Y-68197288D02*
X158124286Y-68167050D01*
X158124286Y-68167050D02*
X158063810Y-68106573D01*
X158063810Y-68106573D02*
X158033572Y-68046097D01*
X158033572Y-68046097D02*
X158003334Y-67925145D01*
X158003334Y-67925145D02*
X158003334Y-67834430D01*
X158003334Y-67834430D02*
X158033572Y-67713478D01*
X158033572Y-67713478D02*
X158063810Y-67653002D01*
X158063810Y-67653002D02*
X158124286Y-67592526D01*
X158124286Y-67592526D02*
X158215001Y-67562288D01*
X158215001Y-67562288D02*
X158275477Y-67562288D01*
X158275477Y-67562288D02*
X158366191Y-67592526D01*
X158366191Y-67592526D02*
X158396429Y-67622764D01*
X158638334Y-68167050D02*
X158729048Y-68197288D01*
X158729048Y-68197288D02*
X158880239Y-68197288D01*
X158880239Y-68197288D02*
X158940715Y-68167050D01*
X158940715Y-68167050D02*
X158970953Y-68136811D01*
X158970953Y-68136811D02*
X159001191Y-68076335D01*
X159001191Y-68076335D02*
X159001191Y-68015859D01*
X159001191Y-68015859D02*
X158970953Y-67955383D01*
X158970953Y-67955383D02*
X158940715Y-67925145D01*
X158940715Y-67925145D02*
X158880239Y-67894907D01*
X158880239Y-67894907D02*
X158759286Y-67864669D01*
X158759286Y-67864669D02*
X158698810Y-67834430D01*
X158698810Y-67834430D02*
X158668572Y-67804192D01*
X158668572Y-67804192D02*
X158638334Y-67743716D01*
X158638334Y-67743716D02*
X158638334Y-67683240D01*
X158638334Y-67683240D02*
X158668572Y-67622764D01*
X158668572Y-67622764D02*
X158698810Y-67592526D01*
X158698810Y-67592526D02*
X158759286Y-67562288D01*
X158759286Y-67562288D02*
X158910477Y-67562288D01*
X158910477Y-67562288D02*
X159001191Y-67592526D01*
X159605953Y-68197288D02*
X159243096Y-68197288D01*
X159424524Y-68197288D02*
X159424524Y-67562288D01*
X159424524Y-67562288D02*
X159364048Y-67653002D01*
X159364048Y-67653002D02*
X159303572Y-67713478D01*
X159303572Y-67713478D02*
X159243096Y-67743716D01*
X160271192Y-67562288D02*
X160634049Y-67562288D01*
X160452620Y-68197288D02*
X160452620Y-67562288D01*
X161208573Y-68136811D02*
X161178335Y-68167050D01*
X161178335Y-68167050D02*
X161087621Y-68197288D01*
X161087621Y-68197288D02*
X161027145Y-68197288D01*
X161027145Y-68197288D02*
X160936430Y-68167050D01*
X160936430Y-68167050D02*
X160875954Y-68106573D01*
X160875954Y-68106573D02*
X160845716Y-68046097D01*
X160845716Y-68046097D02*
X160815478Y-67925145D01*
X160815478Y-67925145D02*
X160815478Y-67834430D01*
X160815478Y-67834430D02*
X160845716Y-67713478D01*
X160845716Y-67713478D02*
X160875954Y-67653002D01*
X160875954Y-67653002D02*
X160936430Y-67592526D01*
X160936430Y-67592526D02*
X161027145Y-67562288D01*
X161027145Y-67562288D02*
X161087621Y-67562288D01*
X161087621Y-67562288D02*
X161178335Y-67592526D01*
X161178335Y-67592526D02*
X161208573Y-67622764D01*
X161752859Y-67773954D02*
X161752859Y-68197288D01*
X161601668Y-67532050D02*
X161450478Y-67985621D01*
X161450478Y-67985621D02*
X161843573Y-67985621D01*
D10*
%TO.C,J2*%
X149700666Y-102642619D02*
X149700666Y-103356904D01*
X149700666Y-103356904D02*
X149653047Y-103499761D01*
X149653047Y-103499761D02*
X149557809Y-103595000D01*
X149557809Y-103595000D02*
X149414952Y-103642619D01*
X149414952Y-103642619D02*
X149319714Y-103642619D01*
X150129238Y-102737857D02*
X150176857Y-102690238D01*
X150176857Y-102690238D02*
X150272095Y-102642619D01*
X150272095Y-102642619D02*
X150510190Y-102642619D01*
X150510190Y-102642619D02*
X150605428Y-102690238D01*
X150605428Y-102690238D02*
X150653047Y-102737857D01*
X150653047Y-102737857D02*
X150700666Y-102833095D01*
X150700666Y-102833095D02*
X150700666Y-102928333D01*
X150700666Y-102928333D02*
X150653047Y-103071190D01*
X150653047Y-103071190D02*
X150081619Y-103642619D01*
X150081619Y-103642619D02*
X150700666Y-103642619D01*
%TO.C,JP2*%
X156646666Y-81022619D02*
X156646666Y-81736904D01*
X156646666Y-81736904D02*
X156599047Y-81879761D01*
X156599047Y-81879761D02*
X156503809Y-81975000D01*
X156503809Y-81975000D02*
X156360952Y-82022619D01*
X156360952Y-82022619D02*
X156265714Y-82022619D01*
X157122857Y-82022619D02*
X157122857Y-81022619D01*
X157122857Y-81022619D02*
X157503809Y-81022619D01*
X157503809Y-81022619D02*
X157599047Y-81070238D01*
X157599047Y-81070238D02*
X157646666Y-81117857D01*
X157646666Y-81117857D02*
X157694285Y-81213095D01*
X157694285Y-81213095D02*
X157694285Y-81355952D01*
X157694285Y-81355952D02*
X157646666Y-81451190D01*
X157646666Y-81451190D02*
X157599047Y-81498809D01*
X157599047Y-81498809D02*
X157503809Y-81546428D01*
X157503809Y-81546428D02*
X157122857Y-81546428D01*
X158075238Y-81117857D02*
X158122857Y-81070238D01*
X158122857Y-81070238D02*
X158218095Y-81022619D01*
X158218095Y-81022619D02*
X158456190Y-81022619D01*
X158456190Y-81022619D02*
X158551428Y-81070238D01*
X158551428Y-81070238D02*
X158599047Y-81117857D01*
X158599047Y-81117857D02*
X158646666Y-81213095D01*
X158646666Y-81213095D02*
X158646666Y-81308333D01*
X158646666Y-81308333D02*
X158599047Y-81451190D01*
X158599047Y-81451190D02*
X158027619Y-82022619D01*
X158027619Y-82022619D02*
X158646666Y-82022619D01*
%TO.C,J1*%
X109366666Y-49562619D02*
X109366666Y-50276904D01*
X109366666Y-50276904D02*
X109319047Y-50419761D01*
X109319047Y-50419761D02*
X109223809Y-50515000D01*
X109223809Y-50515000D02*
X109080952Y-50562619D01*
X109080952Y-50562619D02*
X108985714Y-50562619D01*
X110366666Y-50562619D02*
X109795238Y-50562619D01*
X110080952Y-50562619D02*
X110080952Y-49562619D01*
X110080952Y-49562619D02*
X109985714Y-49705476D01*
X109985714Y-49705476D02*
X109890476Y-49800714D01*
X109890476Y-49800714D02*
X109795238Y-49848333D01*
%TO.C,JP1*%
X158791666Y-63487619D02*
X158791666Y-64201904D01*
X158791666Y-64201904D02*
X158744047Y-64344761D01*
X158744047Y-64344761D02*
X158648809Y-64440000D01*
X158648809Y-64440000D02*
X158505952Y-64487619D01*
X158505952Y-64487619D02*
X158410714Y-64487619D01*
X159267857Y-64487619D02*
X159267857Y-63487619D01*
X159267857Y-63487619D02*
X159648809Y-63487619D01*
X159648809Y-63487619D02*
X159744047Y-63535238D01*
X159744047Y-63535238D02*
X159791666Y-63582857D01*
X159791666Y-63582857D02*
X159839285Y-63678095D01*
X159839285Y-63678095D02*
X159839285Y-63820952D01*
X159839285Y-63820952D02*
X159791666Y-63916190D01*
X159791666Y-63916190D02*
X159744047Y-63963809D01*
X159744047Y-63963809D02*
X159648809Y-64011428D01*
X159648809Y-64011428D02*
X159267857Y-64011428D01*
X160791666Y-64487619D02*
X160220238Y-64487619D01*
X160505952Y-64487619D02*
X160505952Y-63487619D01*
X160505952Y-63487619D02*
X160410714Y-63630476D01*
X160410714Y-63630476D02*
X160315476Y-63725714D01*
X160315476Y-63725714D02*
X160220238Y-63773333D01*
%TO.C,JP3*%
X157466666Y-57762619D02*
X157466666Y-58476904D01*
X157466666Y-58476904D02*
X157419047Y-58619761D01*
X157419047Y-58619761D02*
X157323809Y-58715000D01*
X157323809Y-58715000D02*
X157180952Y-58762619D01*
X157180952Y-58762619D02*
X157085714Y-58762619D01*
X157942857Y-58762619D02*
X157942857Y-57762619D01*
X157942857Y-57762619D02*
X158323809Y-57762619D01*
X158323809Y-57762619D02*
X158419047Y-57810238D01*
X158419047Y-57810238D02*
X158466666Y-57857857D01*
X158466666Y-57857857D02*
X158514285Y-57953095D01*
X158514285Y-57953095D02*
X158514285Y-58095952D01*
X158514285Y-58095952D02*
X158466666Y-58191190D01*
X158466666Y-58191190D02*
X158419047Y-58238809D01*
X158419047Y-58238809D02*
X158323809Y-58286428D01*
X158323809Y-58286428D02*
X157942857Y-58286428D01*
X158847619Y-57762619D02*
X159466666Y-57762619D01*
X159466666Y-57762619D02*
X159133333Y-58143571D01*
X159133333Y-58143571D02*
X159276190Y-58143571D01*
X159276190Y-58143571D02*
X159371428Y-58191190D01*
X159371428Y-58191190D02*
X159419047Y-58238809D01*
X159419047Y-58238809D02*
X159466666Y-58334047D01*
X159466666Y-58334047D02*
X159466666Y-58572142D01*
X159466666Y-58572142D02*
X159419047Y-58667380D01*
X159419047Y-58667380D02*
X159371428Y-58715000D01*
X159371428Y-58715000D02*
X159276190Y-58762619D01*
X159276190Y-58762619D02*
X158990476Y-58762619D01*
X158990476Y-58762619D02*
X158895238Y-58715000D01*
X158895238Y-58715000D02*
X158847619Y-58667380D01*
%TO.C,JP4*%
X159266666Y-73662619D02*
X159266666Y-74376904D01*
X159266666Y-74376904D02*
X159219047Y-74519761D01*
X159219047Y-74519761D02*
X159123809Y-74615000D01*
X159123809Y-74615000D02*
X158980952Y-74662619D01*
X158980952Y-74662619D02*
X158885714Y-74662619D01*
X159742857Y-74662619D02*
X159742857Y-73662619D01*
X159742857Y-73662619D02*
X160123809Y-73662619D01*
X160123809Y-73662619D02*
X160219047Y-73710238D01*
X160219047Y-73710238D02*
X160266666Y-73757857D01*
X160266666Y-73757857D02*
X160314285Y-73853095D01*
X160314285Y-73853095D02*
X160314285Y-73995952D01*
X160314285Y-73995952D02*
X160266666Y-74091190D01*
X160266666Y-74091190D02*
X160219047Y-74138809D01*
X160219047Y-74138809D02*
X160123809Y-74186428D01*
X160123809Y-74186428D02*
X159742857Y-74186428D01*
X161171428Y-73995952D02*
X161171428Y-74662619D01*
X160933333Y-73615000D02*
X160695238Y-74329285D01*
X160695238Y-74329285D02*
X161314285Y-74329285D01*
%TO.C,A2*%
X151345714Y-75246904D02*
X151821904Y-75246904D01*
X151250476Y-75532619D02*
X151583809Y-74532619D01*
X151583809Y-74532619D02*
X151917142Y-75532619D01*
X152202857Y-74627857D02*
X152250476Y-74580238D01*
X152250476Y-74580238D02*
X152345714Y-74532619D01*
X152345714Y-74532619D02*
X152583809Y-74532619D01*
X152583809Y-74532619D02*
X152679047Y-74580238D01*
X152679047Y-74580238D02*
X152726666Y-74627857D01*
X152726666Y-74627857D02*
X152774285Y-74723095D01*
X152774285Y-74723095D02*
X152774285Y-74818333D01*
X152774285Y-74818333D02*
X152726666Y-74961190D01*
X152726666Y-74961190D02*
X152155238Y-75532619D01*
X152155238Y-75532619D02*
X152774285Y-75532619D01*
%TO.C,J3*%
X111427619Y-54181333D02*
X112141904Y-54181333D01*
X112141904Y-54181333D02*
X112284761Y-54228952D01*
X112284761Y-54228952D02*
X112380000Y-54324190D01*
X112380000Y-54324190D02*
X112427619Y-54467047D01*
X112427619Y-54467047D02*
X112427619Y-54562285D01*
X111427619Y-53800380D02*
X111427619Y-53181333D01*
X111427619Y-53181333D02*
X111808571Y-53514666D01*
X111808571Y-53514666D02*
X111808571Y-53371809D01*
X111808571Y-53371809D02*
X111856190Y-53276571D01*
X111856190Y-53276571D02*
X111903809Y-53228952D01*
X111903809Y-53228952D02*
X111999047Y-53181333D01*
X111999047Y-53181333D02*
X112237142Y-53181333D01*
X112237142Y-53181333D02*
X112332380Y-53228952D01*
X112332380Y-53228952D02*
X112380000Y-53276571D01*
X112380000Y-53276571D02*
X112427619Y-53371809D01*
X112427619Y-53371809D02*
X112427619Y-53657523D01*
X112427619Y-53657523D02*
X112380000Y-53752761D01*
X112380000Y-53752761D02*
X112332380Y-53800380D01*
%TO.C,J4*%
X158346666Y-89162619D02*
X158346666Y-89876904D01*
X158346666Y-89876904D02*
X158299047Y-90019761D01*
X158299047Y-90019761D02*
X158203809Y-90115000D01*
X158203809Y-90115000D02*
X158060952Y-90162619D01*
X158060952Y-90162619D02*
X157965714Y-90162619D01*
X159251428Y-89495952D02*
X159251428Y-90162619D01*
X159013333Y-89115000D02*
X158775238Y-89829285D01*
X158775238Y-89829285D02*
X159394285Y-89829285D01*
%TO.C,A1*%
X125635714Y-76596904D02*
X126111904Y-76596904D01*
X125540476Y-76882619D02*
X125873809Y-75882619D01*
X125873809Y-75882619D02*
X126207142Y-76882619D01*
X127064285Y-76882619D02*
X126492857Y-76882619D01*
X126778571Y-76882619D02*
X126778571Y-75882619D01*
X126778571Y-75882619D02*
X126683333Y-76025476D01*
X126683333Y-76025476D02*
X126588095Y-76120714D01*
X126588095Y-76120714D02*
X126492857Y-76168333D01*
%TO.C,A3*%
X123035714Y-98226904D02*
X123511904Y-98226904D01*
X122940476Y-98512619D02*
X123273809Y-97512619D01*
X123273809Y-97512619D02*
X123607142Y-98512619D01*
X123845238Y-97512619D02*
X124464285Y-97512619D01*
X124464285Y-97512619D02*
X124130952Y-97893571D01*
X124130952Y-97893571D02*
X124273809Y-97893571D01*
X124273809Y-97893571D02*
X124369047Y-97941190D01*
X124369047Y-97941190D02*
X124416666Y-97988809D01*
X124416666Y-97988809D02*
X124464285Y-98084047D01*
X124464285Y-98084047D02*
X124464285Y-98322142D01*
X124464285Y-98322142D02*
X124416666Y-98417380D01*
X124416666Y-98417380D02*
X124369047Y-98465000D01*
X124369047Y-98465000D02*
X124273809Y-98512619D01*
X124273809Y-98512619D02*
X123988095Y-98512619D01*
X123988095Y-98512619D02*
X123892857Y-98465000D01*
X123892857Y-98465000D02*
X123845238Y-98417380D01*
%TO.C,J5*%
X158936666Y-83152619D02*
X158936666Y-83866904D01*
X158936666Y-83866904D02*
X158889047Y-84009761D01*
X158889047Y-84009761D02*
X158793809Y-84105000D01*
X158793809Y-84105000D02*
X158650952Y-84152619D01*
X158650952Y-84152619D02*
X158555714Y-84152619D01*
X159889047Y-83152619D02*
X159412857Y-83152619D01*
X159412857Y-83152619D02*
X159365238Y-83628809D01*
X159365238Y-83628809D02*
X159412857Y-83581190D01*
X159412857Y-83581190D02*
X159508095Y-83533571D01*
X159508095Y-83533571D02*
X159746190Y-83533571D01*
X159746190Y-83533571D02*
X159841428Y-83581190D01*
X159841428Y-83581190D02*
X159889047Y-83628809D01*
X159889047Y-83628809D02*
X159936666Y-83724047D01*
X159936666Y-83724047D02*
X159936666Y-83962142D01*
X159936666Y-83962142D02*
X159889047Y-84057380D01*
X159889047Y-84057380D02*
X159841428Y-84105000D01*
X159841428Y-84105000D02*
X159746190Y-84152619D01*
X159746190Y-84152619D02*
X159508095Y-84152619D01*
X159508095Y-84152619D02*
X159412857Y-84105000D01*
X159412857Y-84105000D02*
X159365238Y-84057380D01*
%TO.C,A4*%
X150975714Y-98816904D02*
X151451904Y-98816904D01*
X150880476Y-99102619D02*
X151213809Y-98102619D01*
X151213809Y-98102619D02*
X151547142Y-99102619D01*
X152309047Y-98435952D02*
X152309047Y-99102619D01*
X152070952Y-98055000D02*
X151832857Y-98769285D01*
X151832857Y-98769285D02*
X152451904Y-98769285D01*
D13*
%TO.C,JP2*%
X154850000Y-78300000D02*
X160350000Y-78300000D01*
X154850000Y-80250000D02*
X154850000Y-78300000D01*
X155900000Y-80800000D02*
X156500000Y-80800000D01*
X156200000Y-80500000D02*
X155900000Y-80800000D01*
X156500000Y-80800000D02*
X156200000Y-80500000D01*
X160350000Y-78300000D02*
X160350000Y-80250000D01*
X160350000Y-80250000D02*
X154850000Y-80250000D01*
%TO.C,J1*%
X142108000Y-50946331D02*
X102788000Y-50946331D01*
X142108000Y-38286331D02*
X142108000Y-50946331D01*
X113003000Y-51840669D02*
X112503000Y-51840669D01*
X112753000Y-51407656D02*
X113003000Y-51840669D01*
X112503000Y-51840669D02*
X112753000Y-51407656D01*
X102788000Y-50946331D02*
X102788000Y-38286331D01*
%TO.C,JP1*%
X156150000Y-64800000D02*
X161650000Y-64800000D01*
X156150000Y-66750000D02*
X156150000Y-64800000D01*
X157200000Y-67300000D02*
X157800000Y-67300000D01*
X157500000Y-67000000D02*
X157200000Y-67300000D01*
X157800000Y-67300000D02*
X157500000Y-67000000D01*
X161650000Y-64800000D02*
X161650000Y-66750000D01*
X161650000Y-66750000D02*
X156150000Y-66750000D01*
%TO.C,JP3*%
X155750000Y-54900000D02*
X161250000Y-54900000D01*
X155750000Y-56850000D02*
X155750000Y-54900000D01*
X156800000Y-57400000D02*
X157400000Y-57400000D01*
X157100000Y-57100000D02*
X156800000Y-57400000D01*
X157400000Y-57400000D02*
X157100000Y-57100000D01*
X161250000Y-54900000D02*
X161250000Y-56850000D01*
X161250000Y-56850000D02*
X155750000Y-56850000D01*
%TO.C,JP4*%
X161500000Y-73400000D02*
X158700000Y-73400000D01*
X161500000Y-71400000D02*
X161500000Y-73400000D01*
X158700000Y-73400000D02*
X158700000Y-71400000D01*
X158700000Y-71400000D02*
X161500000Y-71400000D01*
%TO.C,A2*%
X130556000Y-56642000D02*
X153416000Y-56642000D01*
X153416000Y-56642000D02*
X153416000Y-76962000D01*
X153416000Y-76962000D02*
X130556000Y-76962000D01*
X130556000Y-76962000D02*
X130556000Y-56642000D01*
%TO.C,J3*%
X112900000Y-54958000D02*
X112900000Y-53848000D01*
X113660000Y-54958000D02*
X112900000Y-54958000D01*
X114420000Y-54958000D02*
X123245000Y-54958000D01*
X114420000Y-54958000D02*
X114420000Y-54411471D01*
X123245000Y-54958000D02*
X123245000Y-54155530D01*
X123245000Y-53540470D02*
X123245000Y-52738000D01*
X114420000Y-53284529D02*
X114420000Y-52738000D01*
X114420000Y-52738000D02*
X123245000Y-52738000D01*
%TO.C,J4*%
X157370000Y-93010000D02*
X157370000Y-91900000D01*
X158130000Y-93010000D02*
X157370000Y-93010000D01*
X158890000Y-93010000D02*
X160095000Y-93010000D01*
X158890000Y-93010000D02*
X158890000Y-92463471D01*
X160095000Y-93010000D02*
X160095000Y-92207530D01*
X160095000Y-91592470D02*
X160095000Y-90790000D01*
X158890000Y-91336529D02*
X158890000Y-90790000D01*
X158890000Y-90790000D02*
X160095000Y-90790000D01*
%TO.C,A1*%
X104902000Y-56896000D02*
X127762000Y-56896000D01*
X127762000Y-56896000D02*
X127762000Y-77216000D01*
X127762000Y-77216000D02*
X104902000Y-77216000D01*
X104902000Y-77216000D02*
X104902000Y-56896000D01*
%TO.C,A3*%
X104648000Y-78994000D02*
X127508000Y-78994000D01*
X127508000Y-78994000D02*
X127508000Y-99314000D01*
X127508000Y-99314000D02*
X104648000Y-99314000D01*
X104648000Y-99314000D02*
X104648000Y-78994000D01*
%TO.C,J5*%
X157390000Y-87010000D02*
X157390000Y-85900000D01*
X158150000Y-87010000D02*
X157390000Y-87010000D01*
X158910000Y-87010000D02*
X160115000Y-87010000D01*
X158910000Y-87010000D02*
X158910000Y-86463471D01*
X160115000Y-87010000D02*
X160115000Y-86207530D01*
X160115000Y-85592470D02*
X160115000Y-84790000D01*
X158910000Y-85336529D02*
X158910000Y-84790000D01*
X158910000Y-84790000D02*
X160115000Y-84790000D01*
%TO.C,A4*%
X130302000Y-79248000D02*
X153162000Y-79248000D01*
X153162000Y-79248000D02*
X153162000Y-99568000D01*
X153162000Y-99568000D02*
X130302000Y-99568000D01*
X130302000Y-99568000D02*
X130302000Y-79248000D01*
%TD*%
M02*
