%TF.GenerationSoftware,KiCad,Pcbnew,7.0.7*%
%TF.CreationDate,2024-02-25T13:36:01-08:00*%
%TF.ProjectId,Power-board,506f7765-722d-4626-9f61-72642e6b6963,rev?*%
%TF.SameCoordinates,Original*%
%TF.FileFunction,Copper,L3,Inr*%
%TF.FilePolarity,Positive*%
%FSLAX46Y46*%
G04 Gerber Fmt 4.6, Leading zero omitted, Abs format (unit mm)*
G04 Created by KiCad (PCBNEW 7.0.7) date 2024-02-25 13:36:01*
%MOMM*%
%LPD*%
G01*
G04 APERTURE LIST*
G04 Aperture macros list*
%AMRoundRect*
0 Rectangle with rounded corners*
0 $1 Rounding radius*
0 $2 $3 $4 $5 $6 $7 $8 $9 X,Y pos of 4 corners*
0 Add a 4 corners polygon primitive as box body*
4,1,4,$2,$3,$4,$5,$6,$7,$8,$9,$2,$3,0*
0 Add four circle primitives for the rounded corners*
1,1,$1+$1,$2,$3*
1,1,$1+$1,$4,$5*
1,1,$1+$1,$6,$7*
1,1,$1+$1,$8,$9*
0 Add four rect primitives between the rounded corners*
20,1,$1+$1,$2,$3,$4,$5,0*
20,1,$1+$1,$4,$5,$6,$7,0*
20,1,$1+$1,$6,$7,$8,$9,0*
20,1,$1+$1,$8,$9,$2,$3,0*%
G04 Aperture macros list end*
%TA.AperFunction,ComponentPad*%
%ADD10C,0.780000*%
%TD*%
%TA.AperFunction,ComponentPad*%
%ADD11C,1.371600*%
%TD*%
%TA.AperFunction,ComponentPad*%
%ADD12R,2.340000X1.330000*%
%TD*%
%TA.AperFunction,ComponentPad*%
%ADD13R,2.450000X1.380000*%
%TD*%
%TA.AperFunction,ComponentPad*%
%ADD14RoundRect,1.025000X1.025000X-1.025000X1.025000X1.025000X-1.025000X1.025000X-1.025000X-1.025000X0*%
%TD*%
%TA.AperFunction,ComponentPad*%
%ADD15C,4.100000*%
%TD*%
%TA.AperFunction,ComponentPad*%
%ADD16C,10.160000*%
%TD*%
%TA.AperFunction,ViaPad*%
%ADD17C,0.711200*%
%TD*%
G04 APERTURE END LIST*
D10*
%TO.N,GND*%
%TO.C,U3*%
X120615000Y-80795100D03*
X120615000Y-82095100D03*
X120615000Y-83495100D03*
X120615000Y-84795100D03*
X120615000Y-86095100D03*
X120615003Y-87495100D03*
X120615003Y-88795100D03*
X121915000Y-82095100D03*
X121915003Y-80795100D03*
X121915003Y-83495100D03*
X121915003Y-84795100D03*
X121915003Y-86095100D03*
X121915003Y-87495100D03*
X121915005Y-88795100D03*
X123215000Y-80795100D03*
X123215000Y-82095100D03*
X123215000Y-83495100D03*
X123215000Y-84795100D03*
X123215000Y-86095100D03*
X123215002Y-87495100D03*
X123215002Y-88795100D03*
%TD*%
D11*
%TO.N,+3.3V*%
%TO.C,J1*%
X70780000Y-69536931D03*
X72780000Y-69536931D03*
%TO.N,GND*%
X70780000Y-71536931D03*
X72780000Y-71536931D03*
%TO.N,+5V*%
X70780000Y-73536931D03*
X72780000Y-73536931D03*
X70780000Y-75536931D03*
X72780000Y-75536931D03*
%TO.N,GND*%
X70780000Y-77536931D03*
X72780000Y-77536931D03*
%TO.N,LOX_VENT+*%
X70780000Y-79536931D03*
X72780000Y-79536931D03*
%TO.N,GND*%
X70780000Y-81536931D03*
X72780000Y-81536931D03*
%TO.N,ETH_VENT+*%
X70780000Y-83536931D03*
X72780000Y-83536931D03*
%TO.N,GND*%
X70780000Y-85536931D03*
X72780000Y-85536931D03*
%TO.N,ETH_MAIN+*%
X70780000Y-87536931D03*
X72780000Y-87536931D03*
%TO.N,GND*%
X70780000Y-89536931D03*
X72780000Y-89536931D03*
%TO.N,PYRO_EX+*%
X70780000Y-91536931D03*
X72780000Y-91536931D03*
%TO.N,GND*%
X70780000Y-93536931D03*
X72780000Y-93536931D03*
%TO.N,unconnected-(J1A-Pin_27-PadA27)*%
X70780000Y-95536931D03*
%TO.N,unconnected-(J1A-Pin_28-PadA28)*%
X72780000Y-95536931D03*
%TO.N,unconnected-(J1A-Pin_29-PadA29)*%
X70780000Y-97536931D03*
%TO.N,unconnected-(J1A-Pin_30-PadA30)*%
X72780000Y-97536931D03*
%TO.N,unconnected-(J1A-Pin_31-PadA31)*%
X70780000Y-99536931D03*
%TO.N,unconnected-(J1A-Pin_32-PadA32)*%
X72780000Y-99536931D03*
%TO.N,unconnected-(J1A-Pin_33-PadA33)*%
X70780000Y-101536831D03*
%TO.N,unconnected-(J1A-Pin_34-PadA34)*%
X72780000Y-101536831D03*
%TO.N,PWR_SUP*%
X70780000Y-103536831D03*
X72780000Y-103536831D03*
X70780000Y-105536831D03*
X72780000Y-105536831D03*
X70780000Y-107536831D03*
X72780000Y-107536831D03*
%TO.N,unconnected-(J1B-Pin_1-PadB1)*%
X172050000Y-68000100D03*
%TO.N,unconnected-(J1B-Pin_2-PadB2)*%
X174050000Y-68000100D03*
%TO.N,unconnected-(J1B-Pin_3-PadB3)*%
X172050000Y-70000100D03*
%TO.N,unconnected-(J1B-Pin_4-PadB4)*%
X174050000Y-70000100D03*
%TO.N,GND*%
X172050000Y-72000100D03*
%TO.N,unconnected-(J1B-Pin_6-PadB6)*%
X174050000Y-72000100D03*
%TO.N,PYRO1EN*%
X172050000Y-74000100D03*
%TO.N,GND*%
X174050000Y-74000100D03*
X172050000Y-76000000D03*
%TO.N,unconnected-(J1B-Pin_10-PadB10)*%
X174050000Y-76000000D03*
%TO.N,unconnected-(J1B-Pin_11-PadB11)*%
X172050000Y-78000000D03*
%TO.N,unconnected-(J1B-Pin_12-PadB12)*%
X174050000Y-78000000D03*
%TO.N,unconnected-(J1B-Pin_13-PadB13)*%
X172050000Y-80000000D03*
%TO.N,unconnected-(J1B-Pin_14-PadB14)*%
X174050000Y-80000000D03*
%TO.N,unconnected-(J1B-Pin_15-PadB15)*%
X172050000Y-82000000D03*
%TO.N,unconnected-(J1B-Pin_16-PadB16)*%
X174050000Y-82000000D03*
%TO.N,GND*%
X172050000Y-84000000D03*
X174050000Y-84000000D03*
%TO.N,unconnected-(J1B-Pin_19-PadB19)*%
X172050000Y-86000000D03*
%TO.N,PYRO2EN*%
X174050000Y-86000000D03*
%TO.N,unconnected-(J1B-Pin_21-PadB21)*%
X172050000Y-88000000D03*
%TO.N,PYRO3EN*%
X174050000Y-88000000D03*
%TO.N,unconnected-(J1B-Pin_23-PadB23)*%
X172050000Y-90000000D03*
%TO.N,PYRO4EN*%
X174050000Y-90000000D03*
%TO.N,GND*%
X172050000Y-92000000D03*
X174050000Y-92000000D03*
%TO.N,unconnected-(J1B-Pin_27-PadB27)*%
X172050000Y-94000000D03*
%TO.N,unconnected-(J1B-Pin_28-PadB28)*%
X174050000Y-94000000D03*
%TO.N,unconnected-(J1B-Pin_29-PadB29)*%
X172050000Y-96000000D03*
%TO.N,unconnected-(J1B-Pin_30-PadB30)*%
X174050000Y-96000000D03*
%TO.N,unconnected-(J1B-Pin_31-PadB31)*%
X172050000Y-98000000D03*
%TO.N,unconnected-(J1B-Pin_32-PadB32)*%
X174050000Y-98000000D03*
%TO.N,GND*%
X172050000Y-100000000D03*
X174050000Y-100000000D03*
%TO.N,unconnected-(J1B-Pin_35-PadB35)*%
X172050000Y-102000000D03*
%TO.N,unconnected-(J1B-Pin_36-PadB36)*%
X174050000Y-102000000D03*
%TO.N,unconnected-(J1B-Pin_37-PadB37)*%
X172050000Y-104000000D03*
%TO.N,unconnected-(J1B-Pin_38-PadB38)*%
X174050000Y-104000000D03*
%TO.N,unconnected-(J1B-Pin_39-PadB39)*%
X172050000Y-106000000D03*
%TO.N,unconnected-(J1B-Pin_40-PadB40)*%
X174050000Y-106000000D03*
%TD*%
D12*
%TO.N,*%
%TO.C,J8*%
X147152000Y-62415000D03*
D13*
X147157000Y-48910000D03*
D14*
%TO.N,GND*%
X153162000Y-52070000D03*
D15*
%TO.N,/BAT1_+_pre*%
X153162000Y-59270000D03*
%TD*%
D16*
%TO.N,/BAT1_+_pre*%
%TO.C,J5*%
X139350000Y-37782000D03*
%TO.N,GND*%
X109380000Y-37782000D03*
%TD*%
D17*
%TO.N,GND*%
X91850000Y-88200000D03*
X134300000Y-86950000D03*
X74900000Y-90350000D03*
X75000000Y-86300000D03*
X79400000Y-71650000D03*
X84100000Y-67800000D03*
X91300000Y-76700000D03*
X75250000Y-72100000D03*
X68600000Y-82300000D03*
X68350000Y-78200000D03*
X134450000Y-80050000D03*
X134450000Y-89900000D03*
X134350000Y-83000000D03*
X79800000Y-82050000D03*
X68575000Y-94275000D03*
X136050000Y-92750000D03*
X120400000Y-78914600D03*
X84100000Y-78914600D03*
X150400000Y-98600000D03*
X145350000Y-83500000D03*
%TO.N,V_ALL+*%
X87950000Y-85550000D03*
X128050000Y-84800000D03*
X83450000Y-76300000D03*
X160520000Y-99768000D03*
X144800000Y-93650000D03*
X150368000Y-93472000D03*
X145350000Y-91300000D03*
X150368000Y-90932000D03*
X77750000Y-96050000D03*
X81700000Y-73900000D03*
X163068000Y-94488000D03*
X127000000Y-84100000D03*
X79790000Y-96860000D03*
X160502000Y-96934000D03*
X160800000Y-94200000D03*
X81700000Y-75150000D03*
X81750000Y-76300000D03*
X82900000Y-88150000D03*
X141400000Y-93550000D03*
X142450000Y-91100000D03*
X86800000Y-89300000D03*
X148844000Y-92202000D03*
X163068000Y-91948000D03*
X129050000Y-84000000D03*
X83400000Y-75000000D03*
X81750000Y-96150000D03*
X129100000Y-85550000D03*
X83350000Y-73850000D03*
X127000000Y-85600000D03*
X82850000Y-85850000D03*
X162788000Y-98204000D03*
X84650000Y-90000000D03*
X85450000Y-86850000D03*
%TO.N,LOX_VENT+*%
X75692000Y-80772000D03*
X123952000Y-78232000D03*
%TO.N,/BAT1_+_pre*%
X159258000Y-60706000D03*
X153162000Y-78740000D03*
%TO.N,ETH_VENT+*%
X116586000Y-75184000D03*
X128778000Y-81026000D03*
%TD*%
%TA.AperFunction,Conductor*%
%TO.N,V_ALL+*%
G36*
X124462469Y-21950718D02*
G01*
X126011176Y-22027027D01*
X127557535Y-22141433D01*
X129100610Y-22293866D01*
X130639466Y-22484233D01*
X132173169Y-22712421D01*
X133700792Y-22978289D01*
X135221407Y-23281678D01*
X136734094Y-23622404D01*
X138237937Y-24000259D01*
X139732023Y-24415015D01*
X141214140Y-24866022D01*
X141215442Y-24866436D01*
X141215442Y-24866437D01*
X141302350Y-24894058D01*
X141535881Y-24968280D01*
X141535882Y-24968280D01*
X141806956Y-25039175D01*
X142186477Y-25138434D01*
X142186477Y-25138435D01*
X142845037Y-25274614D01*
X143509745Y-25376440D01*
X143509755Y-25376441D01*
X144178868Y-25443650D01*
X144850566Y-25476058D01*
X144850571Y-25476057D01*
X144850572Y-25476058D01*
X144850573Y-25476058D01*
X145523047Y-25473576D01*
X146194482Y-25436212D01*
X146863081Y-25364067D01*
X146863080Y-25364067D01*
X147527034Y-25257335D01*
X147527035Y-25257335D01*
X148184563Y-25116302D01*
X148184564Y-25116302D01*
X148833871Y-24941353D01*
X148833876Y-24941351D01*
X148833881Y-24941350D01*
X149473253Y-24732949D01*
X149988951Y-24534714D01*
X150100952Y-24491661D01*
X150348761Y-24381327D01*
X150715292Y-24218134D01*
X151314614Y-23913106D01*
X151544031Y-23780925D01*
X151544548Y-23780800D01*
X151605976Y-23745238D01*
X151761405Y-23663834D01*
X152020141Y-23528329D01*
X152024619Y-23526210D01*
X152024622Y-23526209D01*
X152100349Y-23494016D01*
X152452595Y-23344274D01*
X152457246Y-23342514D01*
X152898480Y-23195569D01*
X152903222Y-23194199D01*
X153354858Y-23083199D01*
X153359697Y-23082215D01*
X153818792Y-23007885D01*
X153823689Y-23007293D01*
X154287273Y-22970114D01*
X154292235Y-22969917D01*
X154757286Y-22970128D01*
X154762226Y-22970330D01*
X155201423Y-23005954D01*
X155225749Y-23007928D01*
X155230698Y-23008530D01*
X155689681Y-23083270D01*
X155694564Y-23084269D01*
X156146058Y-23195669D01*
X156150851Y-23197059D01*
X156591923Y-23344395D01*
X156596563Y-23346155D01*
X157024378Y-23528481D01*
X157028871Y-23530614D01*
X157413449Y-23732472D01*
X157437768Y-23745237D01*
X157440632Y-23746740D01*
X157444946Y-23749230D01*
X157838004Y-23997764D01*
X157842102Y-24000593D01*
X158213897Y-24279916D01*
X158217746Y-24283057D01*
X158472040Y-24508262D01*
X158565887Y-24591374D01*
X158569483Y-24594826D01*
X158891711Y-24930134D01*
X158895013Y-24933860D01*
X159189225Y-25293971D01*
X159192224Y-25297959D01*
X159456542Y-25680570D01*
X159459211Y-25684787D01*
X159691905Y-26087398D01*
X159694227Y-26091816D01*
X159893799Y-26511833D01*
X159895757Y-26516423D01*
X160060922Y-26951138D01*
X160062505Y-26955871D01*
X160192179Y-27402434D01*
X160193377Y-27407279D01*
X160200246Y-27440798D01*
X160241012Y-27639735D01*
X160286732Y-27862841D01*
X160287536Y-27867767D01*
X160343962Y-28329355D01*
X160344367Y-28334329D01*
X160362125Y-28765537D01*
X160363555Y-28800259D01*
X160363557Y-28801396D01*
X160363607Y-28856809D01*
X160363654Y-28857345D01*
X160363842Y-29065010D01*
X160363908Y-29137689D01*
X160389204Y-29616222D01*
X160399407Y-29809232D01*
X160467519Y-30457315D01*
X160469696Y-30478022D01*
X160574584Y-31142269D01*
X160713788Y-31800180D01*
X160713791Y-31800191D01*
X160713790Y-31800191D01*
X160884622Y-32441299D01*
X160886936Y-32449984D01*
X161093559Y-33089931D01*
X161333101Y-33718298D01*
X161420977Y-33917153D01*
X161604913Y-34333382D01*
X161604913Y-34333381D01*
X161604918Y-34333392D01*
X161640536Y-34403858D01*
X161908285Y-34933573D01*
X161908286Y-34933573D01*
X162242370Y-35517191D01*
X162502381Y-35921237D01*
X162590603Y-36058331D01*
X162606274Y-36082682D01*
X162999023Y-36628535D01*
X163349551Y-37065924D01*
X163419575Y-37153299D01*
X163866775Y-37655531D01*
X164339428Y-38133887D01*
X164554692Y-38330238D01*
X164554693Y-38330239D01*
X164566239Y-38340771D01*
X164587847Y-38360482D01*
X165435202Y-39147779D01*
X166267959Y-39950503D01*
X167085837Y-40768381D01*
X167888560Y-41601139D01*
X168674216Y-42446729D01*
X168862703Y-42653375D01*
X168902416Y-42696914D01*
X168902433Y-42696932D01*
X169380790Y-43169591D01*
X169380790Y-43169592D01*
X169882998Y-43616776D01*
X169882999Y-43616777D01*
X169883009Y-43616785D01*
X169883018Y-43616793D01*
X170137241Y-43820532D01*
X170407770Y-44037340D01*
X170407770Y-44037339D01*
X170407773Y-44037342D01*
X170702019Y-44249058D01*
X170953636Y-44430103D01*
X171519149Y-44794023D01*
X172102754Y-45128102D01*
X172102762Y-45128106D01*
X172702883Y-45431445D01*
X172702931Y-45431469D01*
X172702932Y-45431470D01*
X173318027Y-45703288D01*
X173946393Y-45942831D01*
X174586343Y-46149455D01*
X175236138Y-46322601D01*
X175236138Y-46322600D01*
X175236149Y-46322603D01*
X175894063Y-46461808D01*
X176558312Y-46566696D01*
X176558318Y-46566696D01*
X176558327Y-46566698D01*
X177227105Y-46636983D01*
X177898662Y-46672482D01*
X177898661Y-46672481D01*
X178165383Y-46672719D01*
X178165387Y-46672721D01*
X178190019Y-46672742D01*
X178190020Y-46672743D01*
X178232675Y-46672780D01*
X178234101Y-46672782D01*
X178234158Y-46672782D01*
X178234890Y-46672783D01*
X178234896Y-46672783D01*
X178234969Y-46672786D01*
X178235941Y-46673072D01*
X178237444Y-46672888D01*
X178281506Y-46674701D01*
X178702054Y-46692009D01*
X178706975Y-46692411D01*
X179168592Y-46748829D01*
X179173500Y-46749630D01*
X179629082Y-46842979D01*
X179633894Y-46844168D01*
X180080525Y-46973850D01*
X180085202Y-46975415D01*
X180519945Y-47140580D01*
X180524521Y-47142532D01*
X180944570Y-47342112D01*
X180948975Y-47344427D01*
X181351601Y-47577122D01*
X181355818Y-47579791D01*
X181738424Y-47844097D01*
X181742409Y-47847093D01*
X181902238Y-47977671D01*
X182102535Y-48141311D01*
X182106260Y-48144612D01*
X182134901Y-48172135D01*
X182441576Y-48466842D01*
X182445027Y-48470435D01*
X182753346Y-48818575D01*
X182756480Y-48822414D01*
X182918964Y-49038687D01*
X183035812Y-49194217D01*
X183038647Y-49198325D01*
X183287173Y-49591366D01*
X183289669Y-49595688D01*
X183505800Y-50007456D01*
X183507937Y-50011959D01*
X183690258Y-50439755D01*
X183692024Y-50444411D01*
X183839359Y-50885484D01*
X183840749Y-50890277D01*
X183952148Y-51341768D01*
X183953148Y-51346658D01*
X184027884Y-51805634D01*
X184028487Y-51810588D01*
X184066082Y-52274090D01*
X184066285Y-52279076D01*
X184066492Y-52744105D01*
X184066294Y-52749092D01*
X184029115Y-53212623D01*
X184028516Y-53217578D01*
X183954186Y-53676636D01*
X183953191Y-53681526D01*
X183904337Y-53880296D01*
X183842203Y-54133096D01*
X183842202Y-54133100D01*
X183840816Y-54137894D01*
X183693874Y-54579099D01*
X183692108Y-54583766D01*
X183510170Y-55011724D01*
X183508035Y-55016235D01*
X183291469Y-55429727D01*
X183291095Y-55430379D01*
X183268692Y-55469262D01*
X183268691Y-55469264D01*
X183123235Y-55721728D01*
X182818211Y-56321050D01*
X182544687Y-56935389D01*
X182447937Y-57187081D01*
X182303403Y-57563082D01*
X182303401Y-57563089D01*
X182095003Y-58202462D01*
X182095000Y-58202472D01*
X182095000Y-58202473D01*
X181920054Y-58851778D01*
X181779022Y-59509307D01*
X181779022Y-59509308D01*
X181672291Y-60173258D01*
X181600147Y-60841859D01*
X181600147Y-60841858D01*
X181563099Y-61507664D01*
X181562785Y-61513299D01*
X181560304Y-62185773D01*
X181592711Y-62857470D01*
X181650977Y-63437544D01*
X181659921Y-63526591D01*
X181761746Y-64191298D01*
X181808522Y-64417506D01*
X181897923Y-64849852D01*
X182068076Y-65500446D01*
X182068077Y-65500447D01*
X182168592Y-65816718D01*
X182168595Y-65816723D01*
X182169869Y-65820732D01*
X182412491Y-66609184D01*
X182510102Y-66926389D01*
X182829930Y-68037946D01*
X183129294Y-69155188D01*
X183408094Y-70277739D01*
X183654918Y-71355791D01*
X183666168Y-71404925D01*
X183738257Y-71733651D01*
X183916197Y-72382163D01*
X183916198Y-72382164D01*
X184120764Y-73000100D01*
X184127541Y-73020569D01*
X184371716Y-73647151D01*
X184648068Y-74260223D01*
X184955851Y-74858133D01*
X185255542Y-75372818D01*
X185294236Y-75439270D01*
X185294236Y-75439271D01*
X185662313Y-76002073D01*
X185662314Y-76002074D01*
X186059086Y-76545018D01*
X186059086Y-76545019D01*
X186483503Y-77066665D01*
X186934400Y-77565580D01*
X187410575Y-78040436D01*
X187410574Y-78040435D01*
X187477174Y-78100290D01*
X187910736Y-78489946D01*
X188433546Y-78912907D01*
X188433552Y-78912911D01*
X188433558Y-78912916D01*
X188501226Y-78962079D01*
X188977594Y-79308178D01*
X189541414Y-79674694D01*
X189541421Y-79674698D01*
X189793611Y-79820603D01*
X189832440Y-79843069D01*
X190227371Y-80093297D01*
X190231473Y-80096132D01*
X190603022Y-80375807D01*
X190606859Y-80378944D01*
X190954709Y-80687573D01*
X190958305Y-80691032D01*
X191280217Y-81026629D01*
X191283524Y-81030366D01*
X191447392Y-81231313D01*
X191562783Y-81372815D01*
X191577411Y-81390752D01*
X191580398Y-81394732D01*
X191675023Y-81531975D01*
X191844357Y-81777577D01*
X191847022Y-81781796D01*
X192079358Y-82184640D01*
X192081666Y-82189042D01*
X192227988Y-82497716D01*
X192280854Y-82609241D01*
X192282809Y-82613833D01*
X192447570Y-83048689D01*
X192449149Y-83053423D01*
X192578419Y-83500129D01*
X192579611Y-83504968D01*
X192663881Y-83918124D01*
X192672546Y-83960605D01*
X192673344Y-83965524D01*
X192710136Y-84268794D01*
X192729348Y-84427157D01*
X192729749Y-84432131D01*
X192748458Y-84896785D01*
X192748458Y-84901776D01*
X192729749Y-85366428D01*
X192729348Y-85371402D01*
X192715426Y-85486164D01*
X192678078Y-85794026D01*
X192673346Y-85833028D01*
X192672546Y-85837954D01*
X192579613Y-86293584D01*
X192578419Y-86298430D01*
X192449149Y-86745136D01*
X192447570Y-86749870D01*
X192282809Y-87184726D01*
X192280854Y-87189318D01*
X192224152Y-87308935D01*
X192100580Y-87569620D01*
X192081676Y-87609499D01*
X192079358Y-87613919D01*
X191847022Y-88016763D01*
X191844357Y-88020982D01*
X191580407Y-88403815D01*
X191577411Y-88407807D01*
X191283524Y-88768193D01*
X191280217Y-88771930D01*
X190958305Y-89107527D01*
X190954709Y-89110986D01*
X190606874Y-89419602D01*
X190603010Y-89422762D01*
X190231476Y-89702424D01*
X190227371Y-89705262D01*
X189832440Y-89955490D01*
X189784558Y-89983194D01*
X189784127Y-89983496D01*
X189697514Y-90033607D01*
X189541438Y-90123906D01*
X188977619Y-90490421D01*
X188764189Y-90645486D01*
X188433638Y-90885644D01*
X188433573Y-90885691D01*
X187910764Y-91308651D01*
X187410600Y-91758162D01*
X186934428Y-92233015D01*
X186900424Y-92270640D01*
X186483533Y-92731925D01*
X186483530Y-92731929D01*
X186059120Y-93253562D01*
X185662342Y-93796509D01*
X185662335Y-93796519D01*
X185662335Y-93796518D01*
X185294262Y-94359309D01*
X184974557Y-94908361D01*
X184955876Y-94940444D01*
X184648090Y-95538351D01*
X184454727Y-95967308D01*
X184371740Y-96151409D01*
X184371735Y-96151419D01*
X184127556Y-96777998D01*
X183916209Y-97416400D01*
X183816143Y-97781084D01*
X183738263Y-98064909D01*
X183677496Y-98341988D01*
X183677495Y-98341998D01*
X183666237Y-98393330D01*
X183666234Y-98393341D01*
X183315451Y-99903727D01*
X182927597Y-101405022D01*
X182502909Y-102896315D01*
X182041642Y-104376704D01*
X181544077Y-105845290D01*
X181010515Y-107301184D01*
X180441279Y-108743504D01*
X179836714Y-110171376D01*
X179197188Y-111583934D01*
X178523086Y-112980324D01*
X177814818Y-114359698D01*
X177072813Y-115721221D01*
X176297520Y-117064067D01*
X175489409Y-118387424D01*
X174648970Y-119690489D01*
X173776712Y-120972473D01*
X172873164Y-122232599D01*
X171938873Y-123470103D01*
X170974405Y-124684236D01*
X169980345Y-125874261D01*
X168957294Y-127039458D01*
X167905874Y-128179121D01*
X166826720Y-129292559D01*
X165720488Y-130379097D01*
X164587757Y-131438161D01*
X164554693Y-131468321D01*
X164339436Y-131664661D01*
X164339435Y-131664662D01*
X163866776Y-132143018D01*
X163866777Y-132143018D01*
X163866770Y-132143025D01*
X163475464Y-132582475D01*
X163419563Y-132645255D01*
X162999023Y-133169994D01*
X162606253Y-133715869D01*
X162310455Y-134175521D01*
X162242338Y-134281372D01*
X161908249Y-134864992D01*
X161761052Y-135156201D01*
X161604892Y-135465145D01*
X161333065Y-136080254D01*
X161093520Y-136708618D01*
X161093520Y-136708619D01*
X160886894Y-137348567D01*
X160713745Y-137998373D01*
X160574538Y-138656285D01*
X160469650Y-139320533D01*
X160469647Y-139320549D01*
X160399360Y-139989325D01*
X160363859Y-140660880D01*
X160363859Y-140660881D01*
X160363562Y-140991752D01*
X160363556Y-140997118D01*
X160344322Y-141464232D01*
X160343917Y-141469206D01*
X160287493Y-141930792D01*
X160286689Y-141935718D01*
X160193338Y-142391278D01*
X160192140Y-142396123D01*
X160062468Y-142842687D01*
X160060885Y-142847419D01*
X159895727Y-143282128D01*
X159893768Y-143286719D01*
X159694196Y-143706739D01*
X159691875Y-143711157D01*
X159459180Y-144113772D01*
X159456511Y-144117989D01*
X159192198Y-144500596D01*
X159189199Y-144504584D01*
X159044023Y-144682279D01*
X158901091Y-144857227D01*
X158894995Y-144864688D01*
X158891684Y-144868422D01*
X158569466Y-145203723D01*
X158565866Y-145207179D01*
X158217739Y-145515484D01*
X158213872Y-145518640D01*
X157842079Y-145797962D01*
X157837972Y-145800796D01*
X157444938Y-146049317D01*
X157440616Y-146051813D01*
X157028862Y-146267936D01*
X157024353Y-146270076D01*
X156596572Y-146452390D01*
X156591906Y-146454160D01*
X156150841Y-146601493D01*
X156146048Y-146602883D01*
X155694555Y-146714283D01*
X155689665Y-146715283D01*
X155230697Y-146790020D01*
X155225743Y-146790623D01*
X154762246Y-146828221D01*
X154757260Y-146828424D01*
X154292235Y-146828634D01*
X154287248Y-146828436D01*
X154142065Y-146816792D01*
X153823710Y-146791259D01*
X153818765Y-146790661D01*
X153618375Y-146758216D01*
X153359714Y-146716338D01*
X153354835Y-146715345D01*
X152903243Y-146604356D01*
X152898456Y-146602973D01*
X152457251Y-146456036D01*
X152452583Y-146454270D01*
X152391865Y-146428458D01*
X152024624Y-146272339D01*
X152020129Y-146270210D01*
X151605658Y-146053140D01*
X151557727Y-146025526D01*
X151557670Y-146025499D01*
X151314602Y-145885457D01*
X151061538Y-145756661D01*
X150715287Y-145580437D01*
X150715276Y-145580432D01*
X150715277Y-145580432D01*
X150100953Y-145306915D01*
X150100949Y-145306913D01*
X149832453Y-145203704D01*
X149473255Y-145065629D01*
X149242561Y-144990436D01*
X148833876Y-144857228D01*
X148743101Y-144832770D01*
X148184560Y-144682279D01*
X147527032Y-144541248D01*
X147527031Y-144541248D01*
X146863078Y-144434516D01*
X146863079Y-144434516D01*
X146194481Y-144362372D01*
X145523047Y-144325009D01*
X144850575Y-144322527D01*
X144850574Y-144322527D01*
X144850567Y-144322527D01*
X144178870Y-144354934D01*
X143524528Y-144420658D01*
X143509749Y-144422143D01*
X142845042Y-144523968D01*
X142525564Y-144590030D01*
X142186489Y-144660144D01*
X141535893Y-144830298D01*
X141258215Y-144918548D01*
X141236317Y-144925507D01*
X141215597Y-144932092D01*
X140109951Y-145272322D01*
X138998394Y-145592151D01*
X137881152Y-145891516D01*
X136758602Y-146170316D01*
X135631283Y-146428419D01*
X135577044Y-146440314D01*
X135576882Y-146440364D01*
X135302689Y-146500493D01*
X135302688Y-146500493D01*
X134939151Y-146600241D01*
X134654187Y-146678430D01*
X134015786Y-146889769D01*
X134015785Y-146889769D01*
X133778451Y-146982255D01*
X133389192Y-147133947D01*
X132776120Y-147410297D01*
X132178209Y-147718079D01*
X132127833Y-147747412D01*
X131597071Y-148056462D01*
X131034269Y-148424538D01*
X131034268Y-148424539D01*
X130511013Y-148806923D01*
X130491324Y-148821311D01*
X130491323Y-148821311D01*
X130491317Y-148821316D01*
X129969681Y-149245724D01*
X129470763Y-149696621D01*
X129001007Y-150167680D01*
X128995905Y-150172797D01*
X128995906Y-150172796D01*
X128546395Y-150672957D01*
X128123433Y-151195767D01*
X127728162Y-151739814D01*
X127361646Y-152303634D01*
X127294534Y-152419632D01*
X127193268Y-152594664D01*
X126943042Y-152989591D01*
X126940204Y-152993696D01*
X126660542Y-153365230D01*
X126657382Y-153369094D01*
X126348766Y-153716929D01*
X126345307Y-153720525D01*
X126009710Y-154042437D01*
X126005973Y-154045744D01*
X125645587Y-154339631D01*
X125641595Y-154342627D01*
X125258762Y-154606577D01*
X125254543Y-154609242D01*
X124851699Y-154841578D01*
X124847287Y-154843891D01*
X124589942Y-154965880D01*
X124427098Y-155043074D01*
X124422506Y-155045029D01*
X123987650Y-155209790D01*
X123982916Y-155211369D01*
X123536210Y-155340639D01*
X123531364Y-155341833D01*
X123075734Y-155434766D01*
X123070811Y-155435565D01*
X122862266Y-155460865D01*
X122609182Y-155491568D01*
X122604208Y-155491969D01*
X122139554Y-155510678D01*
X122134564Y-155510678D01*
X121669911Y-155491969D01*
X121664937Y-155491568D01*
X121595169Y-155483104D01*
X121203304Y-155435564D01*
X121198387Y-155434766D01*
X120742748Y-155341831D01*
X120737909Y-155340639D01*
X120291203Y-155211369D01*
X120286469Y-155209790D01*
X119851613Y-155045029D01*
X119847021Y-155043074D01*
X119426822Y-154843886D01*
X119422420Y-154841578D01*
X119019576Y-154609242D01*
X119015357Y-154606577D01*
X118833852Y-154481435D01*
X118632512Y-154342618D01*
X118628539Y-154339636D01*
X118468990Y-154209528D01*
X118268146Y-154045744D01*
X118264409Y-154042437D01*
X117928812Y-153720525D01*
X117925353Y-153716929D01*
X117616724Y-153369079D01*
X117613587Y-153365242D01*
X117333912Y-152993693D01*
X117331085Y-152989605D01*
X117080872Y-152594698D01*
X117080858Y-152594673D01*
X116912475Y-152303633D01*
X116577643Y-151788552D01*
X116545961Y-151739814D01*
X116545961Y-151739815D01*
X116545960Y-151739813D01*
X116302187Y-151404286D01*
X116150698Y-151195777D01*
X116150690Y-151195767D01*
X116150689Y-151195765D01*
X115727727Y-150672954D01*
X115350543Y-150253268D01*
X115278217Y-150172792D01*
X115278218Y-150172793D01*
X115033578Y-149927475D01*
X114803359Y-149696617D01*
X114773111Y-149669280D01*
X119972514Y-149669280D01*
X119992674Y-149964013D01*
X120052781Y-150253270D01*
X120052782Y-150253273D01*
X120151712Y-150531633D01*
X120151711Y-150531633D01*
X120287630Y-150793944D01*
X120287634Y-150793950D01*
X120457994Y-151035296D01*
X120659645Y-151251211D01*
X120888802Y-151437644D01*
X120888805Y-151437646D01*
X120888809Y-151437649D01*
X121021230Y-151518176D01*
X121141229Y-151591149D01*
X121326292Y-151671533D01*
X121412198Y-151708847D01*
X121696670Y-151788553D01*
X121953979Y-151823918D01*
X121989345Y-151828780D01*
X121989346Y-151828780D01*
X122284775Y-151828780D01*
X122316328Y-151824443D01*
X122577450Y-151788553D01*
X122861922Y-151708847D01*
X123132892Y-151591148D01*
X123385311Y-151437649D01*
X123614478Y-151251208D01*
X123816123Y-151035299D01*
X123986490Y-150793943D01*
X124122406Y-150531637D01*
X124221339Y-150253268D01*
X124281445Y-149964019D01*
X124301606Y-149669280D01*
X124281445Y-149374541D01*
X124221339Y-149085292D01*
X124122407Y-148806926D01*
X124122408Y-148806926D01*
X123986489Y-148544615D01*
X123986485Y-148544609D01*
X123816125Y-148303263D01*
X123748907Y-148231291D01*
X123614478Y-148087352D01*
X123614476Y-148087351D01*
X123614474Y-148087348D01*
X123385317Y-147900915D01*
X123385306Y-147900908D01*
X123132890Y-147747410D01*
X122861925Y-147629714D01*
X122861923Y-147629713D01*
X122861922Y-147629713D01*
X122780990Y-147607037D01*
X122577455Y-147550008D01*
X122577451Y-147550007D01*
X122577450Y-147550007D01*
X122431111Y-147529893D01*
X122284775Y-147509780D01*
X122284774Y-147509780D01*
X121989346Y-147509780D01*
X121989345Y-147509780D01*
X121696670Y-147550007D01*
X121696664Y-147550008D01*
X121412194Y-147629714D01*
X121141229Y-147747410D01*
X120888813Y-147900908D01*
X120888802Y-147900915D01*
X120659645Y-148087348D01*
X120457994Y-148303263D01*
X120287634Y-148544609D01*
X120287630Y-148544615D01*
X120151712Y-148806926D01*
X120052782Y-149085286D01*
X120052781Y-149085289D01*
X119992674Y-149374546D01*
X119972514Y-149669280D01*
X114773111Y-149669280D01*
X114446983Y-149374541D01*
X114304446Y-149245722D01*
X113782800Y-148821305D01*
X113782799Y-148821305D01*
X113239856Y-148424532D01*
X113239855Y-148424531D01*
X112677052Y-148056454D01*
X112409918Y-147900908D01*
X112095914Y-147718070D01*
X111498004Y-147410287D01*
X110884931Y-147133936D01*
X110258349Y-146889761D01*
X110258344Y-146889759D01*
X110258338Y-146889757D01*
X109619937Y-146678417D01*
X109334974Y-146600228D01*
X108971434Y-146500479D01*
X108686833Y-146438068D01*
X108676794Y-146435866D01*
X108643060Y-146428468D01*
X108642999Y-146428454D01*
X107515519Y-146170313D01*
X106392968Y-145891514D01*
X105275727Y-145592150D01*
X104164170Y-145272321D01*
X103941185Y-145203704D01*
X103058362Y-144932041D01*
X103034081Y-144924324D01*
X103015905Y-144918548D01*
X103015903Y-144918548D01*
X103005888Y-144915365D01*
X103005775Y-144915339D01*
X102738224Y-144830307D01*
X102738190Y-144830298D01*
X102087629Y-144660153D01*
X101706452Y-144581332D01*
X101429076Y-144523976D01*
X100764370Y-144422150D01*
X100749540Y-144420660D01*
X100095249Y-144354940D01*
X99423552Y-144322532D01*
X99423545Y-144322532D01*
X98751072Y-144325012D01*
X98079638Y-144362375D01*
X97411038Y-144434518D01*
X96747087Y-144541248D01*
X96089559Y-144682279D01*
X95440253Y-144857224D01*
X95440242Y-144857227D01*
X95075232Y-144976199D01*
X94800869Y-145065625D01*
X94686862Y-145109449D01*
X94173169Y-145306910D01*
X94173165Y-145306912D01*
X94173164Y-145306912D01*
X94035207Y-145368334D01*
X93558831Y-145580432D01*
X93253993Y-145735578D01*
X92959507Y-145885456D01*
X92806887Y-145973387D01*
X92694608Y-146038076D01*
X92685937Y-146043071D01*
X92668192Y-146053295D01*
X92254009Y-146270211D01*
X92249498Y-146272347D01*
X91821544Y-146454270D01*
X91816876Y-146456036D01*
X91375671Y-146602969D01*
X91370876Y-146604354D01*
X90919293Y-146715337D01*
X90914403Y-146716332D01*
X90455362Y-146790652D01*
X90450413Y-146791250D01*
X90170988Y-146813658D01*
X89986881Y-146828423D01*
X89981894Y-146828621D01*
X89516871Y-146828408D01*
X89511884Y-146828205D01*
X89048388Y-146790606D01*
X89043434Y-146790003D01*
X88584452Y-146715262D01*
X88579563Y-146714262D01*
X88362026Y-146660587D01*
X88128095Y-146602866D01*
X88123307Y-146601478D01*
X87682225Y-146454137D01*
X87677559Y-146452367D01*
X87249788Y-146270057D01*
X87245280Y-146267917D01*
X86833516Y-146051789D01*
X86829194Y-146049293D01*
X86436166Y-145800776D01*
X86432059Y-145797942D01*
X86060266Y-145518620D01*
X86056399Y-145515464D01*
X85708274Y-145207160D01*
X85704674Y-145203704D01*
X85595910Y-145090525D01*
X85382450Y-144868400D01*
X85379150Y-144864676D01*
X85084940Y-144504567D01*
X85081941Y-144500579D01*
X84817625Y-144117970D01*
X84814956Y-144113753D01*
X84786610Y-144064709D01*
X84582262Y-143711142D01*
X84579947Y-143706737D01*
X84380371Y-143286712D01*
X84378413Y-143282122D01*
X84238402Y-142913613D01*
X84213245Y-142847400D01*
X84211669Y-142842687D01*
X84081990Y-142396103D01*
X84080797Y-142391278D01*
X83987440Y-141935707D01*
X83986637Y-141930787D01*
X83943233Y-141575735D01*
X83930207Y-141469186D01*
X83929804Y-141464225D01*
X83920726Y-141243786D01*
X83910569Y-140997181D01*
X83910570Y-140997108D01*
X83910571Y-140997108D01*
X83910566Y-140991745D01*
X87587514Y-140991745D01*
X87587881Y-140997108D01*
X87607674Y-141286478D01*
X87667781Y-141575735D01*
X87667782Y-141575738D01*
X87766712Y-141854098D01*
X87766711Y-141854098D01*
X87902630Y-142116409D01*
X87902634Y-142116415D01*
X88072994Y-142357761D01*
X88274645Y-142573676D01*
X88503802Y-142760109D01*
X88503805Y-142760111D01*
X88503809Y-142760114D01*
X88636230Y-142840641D01*
X88756229Y-142913614D01*
X88941292Y-142993998D01*
X89027198Y-143031312D01*
X89311670Y-143111018D01*
X89568979Y-143146383D01*
X89604345Y-143151245D01*
X89604346Y-143151245D01*
X89899775Y-143151245D01*
X89931328Y-143146908D01*
X90192450Y-143111018D01*
X90476922Y-143031312D01*
X90747892Y-142913613D01*
X91000311Y-142760114D01*
X91229478Y-142573673D01*
X91431123Y-142357764D01*
X91601490Y-142116408D01*
X91737406Y-141854102D01*
X91836339Y-141575733D01*
X91896445Y-141286484D01*
X91916606Y-140991745D01*
X152357514Y-140991745D01*
X152377674Y-141286478D01*
X152437781Y-141575735D01*
X152437782Y-141575738D01*
X152536712Y-141854098D01*
X152536711Y-141854098D01*
X152672630Y-142116409D01*
X152672634Y-142116415D01*
X152842994Y-142357761D01*
X153044645Y-142573676D01*
X153273802Y-142760109D01*
X153273805Y-142760111D01*
X153273809Y-142760114D01*
X153406230Y-142840641D01*
X153526229Y-142913614D01*
X153711292Y-142993998D01*
X153797198Y-143031312D01*
X154081670Y-143111018D01*
X154338979Y-143146383D01*
X154374345Y-143151245D01*
X154374346Y-143151245D01*
X154669775Y-143151245D01*
X154701328Y-143146908D01*
X154962450Y-143111018D01*
X155246922Y-143031312D01*
X155517892Y-142913613D01*
X155770311Y-142760114D01*
X155999478Y-142573673D01*
X156201123Y-142357764D01*
X156371490Y-142116408D01*
X156507406Y-141854102D01*
X156606339Y-141575733D01*
X156666445Y-141286484D01*
X156686606Y-140991745D01*
X156666445Y-140697006D01*
X156606339Y-140407757D01*
X156507407Y-140129391D01*
X156507408Y-140129391D01*
X156371489Y-139867080D01*
X156371485Y-139867074D01*
X156201125Y-139625728D01*
X156133907Y-139553756D01*
X155999478Y-139409817D01*
X155999476Y-139409816D01*
X155999474Y-139409813D01*
X155770317Y-139223380D01*
X155770306Y-139223373D01*
X155517890Y-139069875D01*
X155246925Y-138952179D01*
X155246923Y-138952178D01*
X155246922Y-138952178D01*
X155165990Y-138929501D01*
X154962455Y-138872473D01*
X154962451Y-138872472D01*
X154962450Y-138872472D01*
X154816112Y-138852358D01*
X154669775Y-138832245D01*
X154669774Y-138832245D01*
X154374346Y-138832245D01*
X154374345Y-138832245D01*
X154081670Y-138872472D01*
X154081664Y-138872473D01*
X153797194Y-138952179D01*
X153526229Y-139069875D01*
X153273813Y-139223373D01*
X153273802Y-139223380D01*
X153044645Y-139409813D01*
X152842994Y-139625728D01*
X152672634Y-139867074D01*
X152672630Y-139867080D01*
X152536712Y-140129391D01*
X152437782Y-140407751D01*
X152437781Y-140407754D01*
X152377674Y-140697011D01*
X152357514Y-140991745D01*
X91916606Y-140991745D01*
X91896445Y-140697006D01*
X91836339Y-140407757D01*
X91737407Y-140129391D01*
X91737408Y-140129391D01*
X91601489Y-139867080D01*
X91601485Y-139867074D01*
X91431125Y-139625728D01*
X91363907Y-139553756D01*
X91229478Y-139409817D01*
X91229476Y-139409816D01*
X91229474Y-139409813D01*
X91000317Y-139223380D01*
X91000306Y-139223373D01*
X90747890Y-139069875D01*
X90476925Y-138952179D01*
X90476923Y-138952178D01*
X90476922Y-138952178D01*
X90395990Y-138929501D01*
X90192455Y-138872473D01*
X90192451Y-138872472D01*
X90192450Y-138872472D01*
X90046112Y-138852358D01*
X89899775Y-138832245D01*
X89899774Y-138832245D01*
X89604346Y-138832245D01*
X89604345Y-138832245D01*
X89311670Y-138872472D01*
X89311664Y-138872473D01*
X89027194Y-138952179D01*
X88756229Y-139069875D01*
X88503813Y-139223373D01*
X88503802Y-139223380D01*
X88274645Y-139409813D01*
X88072994Y-139625728D01*
X87902634Y-139867074D01*
X87902630Y-139867080D01*
X87766712Y-140129391D01*
X87667782Y-140407751D01*
X87667781Y-140407754D01*
X87607674Y-140697011D01*
X87605175Y-140733550D01*
X87587514Y-140991745D01*
X83910566Y-140991745D01*
X83910267Y-140660869D01*
X83910267Y-140660861D01*
X83874765Y-139989324D01*
X83804476Y-139320546D01*
X83804476Y-139320545D01*
X83699583Y-138656279D01*
X83560377Y-137998380D01*
X83560376Y-137998373D01*
X83387225Y-137348568D01*
X83180599Y-136708620D01*
X82941053Y-136080254D01*
X82669226Y-135465146D01*
X82513064Y-135156202D01*
X82365869Y-134864994D01*
X82031783Y-134281380D01*
X82027081Y-134274073D01*
X81683537Y-133740224D01*
X81667865Y-133715870D01*
X81275095Y-133169995D01*
X81275094Y-133169995D01*
X80854556Y-132645256D01*
X80512939Y-132261606D01*
X80407350Y-132143025D01*
X80407343Y-132143018D01*
X80407344Y-132143018D01*
X79934694Y-131664671D01*
X79686273Y-131438078D01*
X78553632Y-130379098D01*
X77447399Y-129292560D01*
X76368245Y-128179122D01*
X75316825Y-127039459D01*
X74293775Y-125874262D01*
X73299714Y-124684236D01*
X72335246Y-123470104D01*
X71400955Y-122232599D01*
X70497407Y-120972474D01*
X69625149Y-119690490D01*
X68784710Y-118387425D01*
X67976599Y-117064068D01*
X67201306Y-115721221D01*
X66459301Y-114359698D01*
X65751033Y-112980324D01*
X65273887Y-111991926D01*
X65076931Y-111583935D01*
X64437405Y-110171376D01*
X63832840Y-108743504D01*
X63356607Y-107536831D01*
X69588618Y-107536831D01*
X69608903Y-107755744D01*
X69669069Y-107967210D01*
X69767063Y-108164007D01*
X69767068Y-108164015D01*
X69780000Y-108181139D01*
X69899558Y-108339460D01*
X70062032Y-108487574D01*
X70248955Y-108603312D01*
X70453963Y-108682733D01*
X70670073Y-108723131D01*
X70670075Y-108723131D01*
X70889925Y-108723131D01*
X70889927Y-108723131D01*
X71106037Y-108682733D01*
X71311045Y-108603312D01*
X71497968Y-108487574D01*
X71660442Y-108339460D01*
X71681046Y-108312174D01*
X71737153Y-108270540D01*
X71806865Y-108265847D01*
X71868048Y-108299589D01*
X71878948Y-108312168D01*
X71899558Y-108339460D01*
X72062032Y-108487574D01*
X72248955Y-108603312D01*
X72453963Y-108682733D01*
X72670073Y-108723131D01*
X72670075Y-108723131D01*
X72889925Y-108723131D01*
X72889927Y-108723131D01*
X73106037Y-108682733D01*
X73311045Y-108603312D01*
X73497968Y-108487574D01*
X73660442Y-108339460D01*
X73792933Y-108164013D01*
X73890931Y-107967208D01*
X73951096Y-107755747D01*
X73971382Y-107536831D01*
X73951096Y-107317915D01*
X73890931Y-107106454D01*
X73871027Y-107066481D01*
X73792936Y-106909654D01*
X73792931Y-106909646D01*
X73712488Y-106803122D01*
X73660442Y-106734202D01*
X73544457Y-106628468D01*
X73508176Y-106568757D01*
X73509936Y-106498910D01*
X73544457Y-106445194D01*
X73561868Y-106429321D01*
X73660442Y-106339460D01*
X73792933Y-106164013D01*
X73874603Y-105999999D01*
X170858618Y-105999999D01*
X170878903Y-106218913D01*
X170939069Y-106430379D01*
X171037063Y-106627176D01*
X171037068Y-106627184D01*
X171038038Y-106628468D01*
X171169558Y-106802629D01*
X171332032Y-106950743D01*
X171518955Y-107066481D01*
X171723963Y-107145902D01*
X171940073Y-107186300D01*
X171940075Y-107186300D01*
X172159925Y-107186300D01*
X172159927Y-107186300D01*
X172376037Y-107145902D01*
X172581045Y-107066481D01*
X172767968Y-106950743D01*
X172930442Y-106802629D01*
X172951046Y-106775343D01*
X173007153Y-106733709D01*
X173076865Y-106729016D01*
X173138048Y-106762758D01*
X173148948Y-106775337D01*
X173169558Y-106802629D01*
X173332032Y-106950743D01*
X173518955Y-107066481D01*
X173723963Y-107145902D01*
X173940073Y-107186300D01*
X173940075Y-107186300D01*
X174159925Y-107186300D01*
X174159927Y-107186300D01*
X174376037Y-107145902D01*
X174581045Y-107066481D01*
X174767968Y-106950743D01*
X174930442Y-106802629D01*
X175062933Y-106627182D01*
X175160931Y-106430377D01*
X175221096Y-106218916D01*
X175241382Y-106000000D01*
X175221096Y-105781084D01*
X175160931Y-105569623D01*
X175160930Y-105569620D01*
X175062936Y-105372823D01*
X175062931Y-105372815D01*
X174930440Y-105197368D01*
X174814456Y-105091636D01*
X174778174Y-105031925D01*
X174779935Y-104962078D01*
X174814454Y-104908365D01*
X174930442Y-104802629D01*
X175062933Y-104627182D01*
X175160931Y-104430377D01*
X175221096Y-104218916D01*
X175241382Y-104000000D01*
X175221096Y-103781084D01*
X175160931Y-103569623D01*
X175160930Y-103569620D01*
X175062936Y-103372823D01*
X175062931Y-103372815D01*
X174930440Y-103197368D01*
X174814456Y-103091636D01*
X174778174Y-103031925D01*
X174779935Y-102962078D01*
X174814454Y-102908365D01*
X174930442Y-102802629D01*
X175062933Y-102627182D01*
X175160931Y-102430377D01*
X175221096Y-102218916D01*
X175241382Y-102000000D01*
X175221096Y-101781084D01*
X175160931Y-101569623D01*
X175160930Y-101569620D01*
X175062936Y-101372823D01*
X175062931Y-101372815D01*
X174930440Y-101197368D01*
X174814456Y-101091636D01*
X174778174Y-101031925D01*
X174779935Y-100962078D01*
X174814454Y-100908365D01*
X174930442Y-100802629D01*
X175062933Y-100627182D01*
X175160931Y-100430377D01*
X175221096Y-100218916D01*
X175241382Y-100000000D01*
X175221096Y-99781084D01*
X175160931Y-99569623D01*
X175160930Y-99569620D01*
X175062936Y-99372823D01*
X175062931Y-99372815D01*
X174930440Y-99197368D01*
X174814456Y-99091636D01*
X174778174Y-99031925D01*
X174779935Y-98962078D01*
X174814454Y-98908365D01*
X174930442Y-98802629D01*
X175062933Y-98627182D01*
X175160931Y-98430377D01*
X175221096Y-98218916D01*
X175241382Y-98000000D01*
X175221096Y-97781084D01*
X175160931Y-97569623D01*
X175160930Y-97569620D01*
X175062936Y-97372823D01*
X175062931Y-97372815D01*
X174930440Y-97197368D01*
X174814456Y-97091636D01*
X174778174Y-97031925D01*
X174779935Y-96962078D01*
X174814454Y-96908365D01*
X174930442Y-96802629D01*
X175062933Y-96627182D01*
X175160931Y-96430377D01*
X175221096Y-96218916D01*
X175241382Y-96000000D01*
X175221096Y-95781084D01*
X175160931Y-95569623D01*
X175145360Y-95538352D01*
X175062936Y-95372823D01*
X175062931Y-95372815D01*
X174930440Y-95197368D01*
X174814456Y-95091636D01*
X174778174Y-95031925D01*
X174779935Y-94962078D01*
X174814454Y-94908365D01*
X174930442Y-94802629D01*
X175062933Y-94627182D01*
X175160931Y-94430377D01*
X175221096Y-94218916D01*
X175241382Y-94000000D01*
X175221096Y-93781084D01*
X175160931Y-93569623D01*
X175160930Y-93569620D01*
X175062936Y-93372823D01*
X175062931Y-93372815D01*
X174930440Y-93197368D01*
X174814456Y-93091636D01*
X174778174Y-93031925D01*
X174779935Y-92962078D01*
X174814454Y-92908365D01*
X174930442Y-92802629D01*
X175062933Y-92627182D01*
X175160931Y-92430377D01*
X175221096Y-92218916D01*
X175241382Y-92000000D01*
X175221096Y-91781084D01*
X175160931Y-91569623D01*
X175160930Y-91569620D01*
X175062936Y-91372823D01*
X175062931Y-91372815D01*
X174930440Y-91197368D01*
X174814456Y-91091636D01*
X174778174Y-91031925D01*
X174779935Y-90962078D01*
X174814454Y-90908365D01*
X174930442Y-90802629D01*
X175062933Y-90627182D01*
X175160931Y-90430377D01*
X175221096Y-90218916D01*
X175241382Y-90000000D01*
X175221096Y-89781084D01*
X175160931Y-89569623D01*
X175160930Y-89569620D01*
X175062936Y-89372823D01*
X175062931Y-89372815D01*
X174930440Y-89197368D01*
X174814456Y-89091636D01*
X174778174Y-89031925D01*
X174779935Y-88962078D01*
X174814454Y-88908365D01*
X174930442Y-88802629D01*
X175062933Y-88627182D01*
X175072021Y-88608932D01*
X175160930Y-88430379D01*
X175160931Y-88430377D01*
X175221096Y-88218916D01*
X175241382Y-88000000D01*
X175221096Y-87781084D01*
X175160931Y-87569623D01*
X175156284Y-87560290D01*
X175062936Y-87372823D01*
X175062931Y-87372815D01*
X174930440Y-87197368D01*
X174814456Y-87091636D01*
X174778174Y-87031925D01*
X174779935Y-86962078D01*
X174814454Y-86908365D01*
X174930442Y-86802629D01*
X175062933Y-86627182D01*
X175160931Y-86430377D01*
X175221096Y-86218916D01*
X175241382Y-86000000D01*
X175221096Y-85781084D01*
X175160931Y-85569623D01*
X175160519Y-85568795D01*
X175062936Y-85372823D01*
X175062931Y-85372815D01*
X174930440Y-85197368D01*
X174814456Y-85091636D01*
X174778174Y-85031925D01*
X174779935Y-84962078D01*
X174814454Y-84908365D01*
X174824421Y-84899279D01*
X184742514Y-84899279D01*
X184762674Y-85194013D01*
X184762674Y-85194017D01*
X184762675Y-85194019D01*
X184763372Y-85197371D01*
X184822781Y-85483270D01*
X184822782Y-85483273D01*
X184921712Y-85761633D01*
X184921711Y-85761633D01*
X185057630Y-86023944D01*
X185057634Y-86023950D01*
X185227994Y-86265296D01*
X185260405Y-86300000D01*
X185427558Y-86478977D01*
X185429645Y-86481211D01*
X185658802Y-86667644D01*
X185658805Y-86667646D01*
X185658809Y-86667649D01*
X185768417Y-86734303D01*
X185911229Y-86821149D01*
X186042275Y-86878070D01*
X186182198Y-86938847D01*
X186466670Y-87018553D01*
X186723979Y-87053918D01*
X186759345Y-87058780D01*
X186759346Y-87058780D01*
X187054775Y-87058780D01*
X187086328Y-87054443D01*
X187347450Y-87018553D01*
X187631922Y-86938847D01*
X187902892Y-86821148D01*
X188155311Y-86667649D01*
X188384478Y-86481208D01*
X188586123Y-86265299D01*
X188756490Y-86023943D01*
X188892406Y-85761637D01*
X188991339Y-85483268D01*
X189051445Y-85194019D01*
X189071606Y-84899280D01*
X189051445Y-84604541D01*
X188991339Y-84315292D01*
X188937607Y-84164107D01*
X188892407Y-84036926D01*
X188892408Y-84036926D01*
X188756489Y-83774615D01*
X188756485Y-83774609D01*
X188586125Y-83533263D01*
X188494273Y-83434914D01*
X188384478Y-83317352D01*
X188384476Y-83317351D01*
X188384474Y-83317348D01*
X188155317Y-83130915D01*
X188155306Y-83130908D01*
X187902890Y-82977410D01*
X187631925Y-82859714D01*
X187631923Y-82859713D01*
X187631922Y-82859713D01*
X187524748Y-82829684D01*
X187347455Y-82780008D01*
X187347451Y-82780007D01*
X187347450Y-82780007D01*
X187161951Y-82754511D01*
X187054775Y-82739780D01*
X187054774Y-82739780D01*
X186759346Y-82739780D01*
X186759345Y-82739780D01*
X186466670Y-82780007D01*
X186466664Y-82780008D01*
X186182194Y-82859714D01*
X185911229Y-82977410D01*
X185658813Y-83130908D01*
X185658802Y-83130915D01*
X185429645Y-83317348D01*
X185227994Y-83533263D01*
X185057634Y-83774609D01*
X185057630Y-83774615D01*
X184921712Y-84036926D01*
X184822782Y-84315286D01*
X184822781Y-84315289D01*
X184762674Y-84604546D01*
X184742514Y-84899279D01*
X174824421Y-84899279D01*
X174930442Y-84802629D01*
X175062933Y-84627182D01*
X175072021Y-84608932D01*
X175160930Y-84430379D01*
X175182064Y-84356100D01*
X175221096Y-84218916D01*
X175241382Y-84000000D01*
X175221096Y-83781084D01*
X175160931Y-83569623D01*
X175158130Y-83563997D01*
X175062936Y-83372823D01*
X175062931Y-83372815D01*
X174930440Y-83197368D01*
X174814456Y-83091636D01*
X174778174Y-83031925D01*
X174779935Y-82962078D01*
X174814454Y-82908365D01*
X174930442Y-82802629D01*
X175062933Y-82627182D01*
X175160931Y-82430377D01*
X175221096Y-82218916D01*
X175241382Y-82000000D01*
X175221096Y-81781084D01*
X175160931Y-81569623D01*
X175160519Y-81568795D01*
X175062936Y-81372823D01*
X175062931Y-81372815D01*
X174930440Y-81197368D01*
X174814456Y-81091636D01*
X174778174Y-81031925D01*
X174779935Y-80962078D01*
X174814454Y-80908365D01*
X174930442Y-80802629D01*
X175062933Y-80627182D01*
X175072021Y-80608932D01*
X175160930Y-80430379D01*
X175160931Y-80430377D01*
X175221096Y-80218916D01*
X175241382Y-80000000D01*
X175221096Y-79781084D01*
X175160931Y-79569623D01*
X175155485Y-79558686D01*
X175062936Y-79372823D01*
X175062931Y-79372815D01*
X174930440Y-79197368D01*
X174814456Y-79091636D01*
X174778174Y-79031925D01*
X174779935Y-78962078D01*
X174814454Y-78908365D01*
X174930442Y-78802629D01*
X175062933Y-78627182D01*
X175160931Y-78430377D01*
X175221096Y-78218916D01*
X175241382Y-78000000D01*
X175221096Y-77781084D01*
X175160931Y-77569623D01*
X175156284Y-77560290D01*
X175062936Y-77372823D01*
X175062931Y-77372815D01*
X174930440Y-77197368D01*
X174814456Y-77091636D01*
X174778174Y-77031925D01*
X174779935Y-76962078D01*
X174814454Y-76908365D01*
X174930442Y-76802629D01*
X175062933Y-76627182D01*
X175160931Y-76430377D01*
X175221096Y-76218916D01*
X175241382Y-76000000D01*
X175221096Y-75781084D01*
X175160931Y-75569623D01*
X175160930Y-75569620D01*
X175062936Y-75372823D01*
X175062931Y-75372815D01*
X174986030Y-75270982D01*
X174930442Y-75197371D01*
X174814508Y-75091684D01*
X174778230Y-75031977D01*
X174779990Y-74962129D01*
X174814508Y-74908415D01*
X174930442Y-74802729D01*
X175062933Y-74627282D01*
X175160931Y-74430477D01*
X175221096Y-74219016D01*
X175241382Y-74000100D01*
X175221096Y-73781184D01*
X175160931Y-73569723D01*
X175160930Y-73569720D01*
X175062936Y-73372923D01*
X175062931Y-73372915D01*
X174930440Y-73197468D01*
X174814456Y-73091736D01*
X174778174Y-73032025D01*
X174779935Y-72962178D01*
X174814454Y-72908465D01*
X174930442Y-72802729D01*
X175062933Y-72627282D01*
X175160931Y-72430477D01*
X175221096Y-72219016D01*
X175241382Y-72000100D01*
X175221096Y-71781184D01*
X175160931Y-71569723D01*
X175160930Y-71569720D01*
X175062936Y-71372923D01*
X175062931Y-71372915D01*
X174986030Y-71271082D01*
X174930442Y-71197471D01*
X174814453Y-71091734D01*
X174778175Y-71032027D01*
X174779935Y-70962179D01*
X174814453Y-70908466D01*
X174930442Y-70802729D01*
X175062933Y-70627282D01*
X175160931Y-70430477D01*
X175221096Y-70219016D01*
X175241382Y-70000100D01*
X175221096Y-69781184D01*
X175160931Y-69569723D01*
X175160930Y-69569720D01*
X175062936Y-69372923D01*
X175062931Y-69372915D01*
X174986030Y-69271082D01*
X174930442Y-69197471D01*
X174814453Y-69091734D01*
X174778175Y-69032027D01*
X174779935Y-68962179D01*
X174814453Y-68908466D01*
X174930442Y-68802729D01*
X175062933Y-68627282D01*
X175160931Y-68430477D01*
X175221096Y-68219016D01*
X175241382Y-68000100D01*
X175221096Y-67781184D01*
X175160931Y-67569723D01*
X175101254Y-67449876D01*
X175062936Y-67372923D01*
X175062931Y-67372915D01*
X174986030Y-67271082D01*
X174930442Y-67197471D01*
X174767968Y-67049357D01*
X174658077Y-66981315D01*
X174581046Y-66933619D01*
X174581044Y-66933618D01*
X174510282Y-66906205D01*
X174376037Y-66854198D01*
X174159927Y-66813800D01*
X173940073Y-66813800D01*
X173723963Y-66854198D01*
X173666719Y-66876374D01*
X173518955Y-66933618D01*
X173518953Y-66933619D01*
X173332036Y-67049354D01*
X173332034Y-67049355D01*
X173332032Y-67049357D01*
X173210345Y-67160289D01*
X173169557Y-67197472D01*
X173148954Y-67224755D01*
X173092845Y-67266391D01*
X173023133Y-67271082D01*
X172961951Y-67237340D01*
X172951046Y-67224755D01*
X172950249Y-67223700D01*
X172930442Y-67197471D01*
X172767968Y-67049357D01*
X172658077Y-66981315D01*
X172581046Y-66933619D01*
X172581044Y-66933618D01*
X172510282Y-66906205D01*
X172376037Y-66854198D01*
X172159927Y-66813800D01*
X171940073Y-66813800D01*
X171723963Y-66854198D01*
X171666719Y-66876374D01*
X171518955Y-66933618D01*
X171518953Y-66933619D01*
X171332036Y-67049354D01*
X171332034Y-67049355D01*
X171332032Y-67049357D01*
X171210345Y-67160289D01*
X171169557Y-67197472D01*
X171037068Y-67372915D01*
X171037063Y-67372923D01*
X170939069Y-67569720D01*
X170878903Y-67781186D01*
X170858618Y-68000100D01*
X170878903Y-68219013D01*
X170939069Y-68430479D01*
X171037063Y-68627276D01*
X171037068Y-68627284D01*
X171058829Y-68656100D01*
X171169556Y-68802727D01*
X171169559Y-68802730D01*
X171285542Y-68908462D01*
X171321823Y-68968173D01*
X171320063Y-69038020D01*
X171285543Y-69091736D01*
X171169557Y-69197471D01*
X171037068Y-69372915D01*
X171037063Y-69372923D01*
X170939069Y-69569720D01*
X170878903Y-69781186D01*
X170858618Y-70000100D01*
X170878903Y-70219013D01*
X170939069Y-70430479D01*
X171037063Y-70627276D01*
X171037068Y-70627284D01*
X171169559Y-70802731D01*
X171285542Y-70908463D01*
X171321824Y-70968174D01*
X171320063Y-71038022D01*
X171285542Y-71091737D01*
X171169559Y-71197468D01*
X171037068Y-71372915D01*
X171037063Y-71372923D01*
X170939069Y-71569720D01*
X170878903Y-71781186D01*
X170858618Y-72000100D01*
X170878903Y-72219013D01*
X170939069Y-72430479D01*
X171037063Y-72627276D01*
X171037068Y-72627284D01*
X171169559Y-72802731D01*
X171285542Y-72908463D01*
X171321824Y-72968174D01*
X171320063Y-73038022D01*
X171285542Y-73091737D01*
X171169559Y-73197468D01*
X171037068Y-73372915D01*
X171037063Y-73372923D01*
X170939069Y-73569720D01*
X170878903Y-73781186D01*
X170858618Y-74000100D01*
X170878903Y-74219013D01*
X170939069Y-74430479D01*
X171037063Y-74627276D01*
X171037068Y-74627284D01*
X171169559Y-74802731D01*
X171285487Y-74908413D01*
X171321769Y-74968124D01*
X171320008Y-75037972D01*
X171285487Y-75091687D01*
X171169559Y-75197368D01*
X171037068Y-75372815D01*
X171037063Y-75372823D01*
X170939069Y-75569620D01*
X170878903Y-75781086D01*
X170858618Y-75999999D01*
X170878903Y-76218913D01*
X170939069Y-76430379D01*
X171037063Y-76627176D01*
X171037068Y-76627184D01*
X171169559Y-76802631D01*
X171285542Y-76908363D01*
X171321824Y-76968074D01*
X171320063Y-77037922D01*
X171285542Y-77091637D01*
X171169559Y-77197368D01*
X171037068Y-77372815D01*
X171037063Y-77372823D01*
X170939069Y-77569620D01*
X170878903Y-77781086D01*
X170858618Y-77999999D01*
X170878903Y-78218913D01*
X170939069Y-78430379D01*
X171037063Y-78627176D01*
X171037068Y-78627184D01*
X171169559Y-78802630D01*
X171285542Y-78908362D01*
X171321823Y-78968073D01*
X171320063Y-79037920D01*
X171285543Y-79091636D01*
X171169557Y-79197371D01*
X171037068Y-79372815D01*
X171037063Y-79372823D01*
X170939069Y-79569620D01*
X170878903Y-79781086D01*
X170858618Y-79999999D01*
X170878903Y-80218913D01*
X170939069Y-80430379D01*
X171037063Y-80627176D01*
X171037068Y-80627184D01*
X171169559Y-80802631D01*
X171285542Y-80908363D01*
X171321824Y-80968074D01*
X171320063Y-81037922D01*
X171285542Y-81091637D01*
X171169559Y-81197368D01*
X171037068Y-81372815D01*
X171037063Y-81372823D01*
X170939069Y-81569620D01*
X170878903Y-81781086D01*
X170858618Y-81999999D01*
X170878903Y-82218913D01*
X170939069Y-82430379D01*
X171037063Y-82627176D01*
X171037068Y-82627184D01*
X171169559Y-82802631D01*
X171285542Y-82908363D01*
X171321824Y-82968074D01*
X171320063Y-83037922D01*
X171285542Y-83091637D01*
X171169559Y-83197368D01*
X171037068Y-83372815D01*
X171037063Y-83372823D01*
X170939069Y-83569620D01*
X170878903Y-83781086D01*
X170862042Y-83963052D01*
X170858618Y-84000000D01*
X170859172Y-84005975D01*
X170878903Y-84218913D01*
X170939069Y-84430379D01*
X171037063Y-84627176D01*
X171037068Y-84627184D01*
X171169559Y-84802631D01*
X171285542Y-84908363D01*
X171321824Y-84968074D01*
X171320063Y-85037922D01*
X171285542Y-85091637D01*
X171169559Y-85197368D01*
X171037068Y-85372815D01*
X171037063Y-85372823D01*
X170939069Y-85569620D01*
X170878903Y-85781086D01*
X170858618Y-85999999D01*
X170878903Y-86218913D01*
X170939069Y-86430379D01*
X171037063Y-86627176D01*
X171037068Y-86627184D01*
X171101213Y-86712125D01*
X171169556Y-86802627D01*
X171169559Y-86802630D01*
X171285542Y-86908362D01*
X171321823Y-86968073D01*
X171320063Y-87037920D01*
X171285543Y-87091636D01*
X171169557Y-87197371D01*
X171037068Y-87372815D01*
X171037063Y-87372823D01*
X170939069Y-87569620D01*
X170878903Y-87781086D01*
X170858618Y-87999999D01*
X170878903Y-88218913D01*
X170939069Y-88430379D01*
X171037063Y-88627176D01*
X171037068Y-88627184D01*
X171169559Y-88802631D01*
X171285542Y-88908363D01*
X171321824Y-88968074D01*
X171320063Y-89037922D01*
X171285542Y-89091637D01*
X171169559Y-89197368D01*
X171037068Y-89372815D01*
X171037063Y-89372823D01*
X170939069Y-89569620D01*
X170878903Y-89781086D01*
X170858618Y-89999999D01*
X170878903Y-90218913D01*
X170939069Y-90430379D01*
X171037063Y-90627176D01*
X171037068Y-90627184D01*
X171169559Y-90802631D01*
X171285542Y-90908363D01*
X171321824Y-90968074D01*
X171320063Y-91037922D01*
X171285542Y-91091637D01*
X171169559Y-91197368D01*
X171037068Y-91372815D01*
X171037063Y-91372823D01*
X170939069Y-91569620D01*
X170878903Y-91781086D01*
X170858618Y-91999999D01*
X170878903Y-92218913D01*
X170939069Y-92430379D01*
X171037063Y-92627176D01*
X171037068Y-92627184D01*
X171169559Y-92802631D01*
X171285542Y-92908363D01*
X171321824Y-92968074D01*
X171320063Y-93037922D01*
X171285542Y-93091637D01*
X171169559Y-93197368D01*
X171037068Y-93372815D01*
X171037063Y-93372823D01*
X170939069Y-93569620D01*
X170878903Y-93781086D01*
X170858618Y-93999999D01*
X170878903Y-94218913D01*
X170939069Y-94430379D01*
X171037063Y-94627176D01*
X171037068Y-94627184D01*
X171169559Y-94802630D01*
X171285542Y-94908362D01*
X171321823Y-94968073D01*
X171320063Y-95037920D01*
X171285543Y-95091636D01*
X171169557Y-95197371D01*
X171037068Y-95372815D01*
X171037063Y-95372823D01*
X170939069Y-95569620D01*
X170878903Y-95781086D01*
X170858618Y-95999999D01*
X170878903Y-96218913D01*
X170939069Y-96430379D01*
X171037063Y-96627176D01*
X171037068Y-96627184D01*
X171169559Y-96802631D01*
X171285542Y-96908363D01*
X171321824Y-96968074D01*
X171320063Y-97037922D01*
X171285542Y-97091637D01*
X171169559Y-97197368D01*
X171037068Y-97372815D01*
X171037063Y-97372823D01*
X170939069Y-97569620D01*
X170878903Y-97781086D01*
X170858618Y-97999999D01*
X170878903Y-98218913D01*
X170939069Y-98430379D01*
X171037063Y-98627176D01*
X171037068Y-98627184D01*
X171169559Y-98802631D01*
X171285542Y-98908363D01*
X171321824Y-98968074D01*
X171320063Y-99037922D01*
X171285542Y-99091637D01*
X171169559Y-99197368D01*
X171037068Y-99372815D01*
X171037063Y-99372823D01*
X170939069Y-99569620D01*
X170878903Y-99781086D01*
X170858618Y-99999999D01*
X170878903Y-100218913D01*
X170939069Y-100430379D01*
X171037063Y-100627176D01*
X171037068Y-100627184D01*
X171169559Y-100802631D01*
X171285542Y-100908363D01*
X171321824Y-100968074D01*
X171320063Y-101037922D01*
X171285542Y-101091637D01*
X171169559Y-101197368D01*
X171037068Y-101372815D01*
X171037063Y-101372823D01*
X170939069Y-101569620D01*
X170878903Y-101781086D01*
X170858618Y-101999999D01*
X170878903Y-102218913D01*
X170939069Y-102430379D01*
X171037063Y-102627176D01*
X171037068Y-102627184D01*
X171169559Y-102802630D01*
X171285542Y-102908362D01*
X171321823Y-102968073D01*
X171320063Y-103037920D01*
X171285543Y-103091636D01*
X171169557Y-103197371D01*
X171037068Y-103372815D01*
X171037063Y-103372823D01*
X170939069Y-103569620D01*
X170878903Y-103781086D01*
X170858618Y-103999999D01*
X170878903Y-104218913D01*
X170939069Y-104430379D01*
X171037063Y-104627176D01*
X171037068Y-104627184D01*
X171169559Y-104802631D01*
X171285542Y-104908363D01*
X171321824Y-104968074D01*
X171320063Y-105037922D01*
X171285542Y-105091637D01*
X171169559Y-105197368D01*
X171037068Y-105372815D01*
X171037063Y-105372823D01*
X170939069Y-105569620D01*
X170878903Y-105781086D01*
X170858618Y-105999999D01*
X73874603Y-105999999D01*
X73890931Y-105967208D01*
X73951096Y-105755747D01*
X73971382Y-105536831D01*
X73951096Y-105317915D01*
X73890931Y-105106454D01*
X73890930Y-105106451D01*
X73792936Y-104909654D01*
X73792931Y-104909646D01*
X73716030Y-104807813D01*
X73660442Y-104734202D01*
X73544457Y-104628468D01*
X73508176Y-104568757D01*
X73509936Y-104498910D01*
X73544457Y-104445194D01*
X73619587Y-104376704D01*
X73660442Y-104339460D01*
X73792933Y-104164013D01*
X73890931Y-103967208D01*
X73951096Y-103755747D01*
X73971382Y-103536831D01*
X73951096Y-103317915D01*
X73890931Y-103106454D01*
X73890930Y-103106451D01*
X73792936Y-102909654D01*
X73792931Y-102909646D01*
X73712116Y-102802630D01*
X73660442Y-102734202D01*
X73544457Y-102628468D01*
X73508176Y-102568757D01*
X73509936Y-102498910D01*
X73544457Y-102445194D01*
X73561868Y-102429321D01*
X73660442Y-102339460D01*
X73792933Y-102164013D01*
X73890931Y-101967208D01*
X73951096Y-101755747D01*
X73971382Y-101536831D01*
X73951096Y-101317915D01*
X73890931Y-101106454D01*
X73890930Y-101106451D01*
X73792936Y-100909654D01*
X73792931Y-100909646D01*
X73716030Y-100807813D01*
X73660442Y-100734202D01*
X73544508Y-100628515D01*
X73508230Y-100568808D01*
X73509990Y-100498960D01*
X73544508Y-100445246D01*
X73660442Y-100339560D01*
X73792933Y-100164113D01*
X73890931Y-99967308D01*
X73951096Y-99755847D01*
X73971382Y-99536931D01*
X73951096Y-99318015D01*
X73890931Y-99106554D01*
X73883504Y-99091638D01*
X73792936Y-98909754D01*
X73792931Y-98909746D01*
X73716030Y-98807913D01*
X73660442Y-98734302D01*
X73544453Y-98628565D01*
X73527097Y-98600000D01*
X149539184Y-98600000D01*
X149557995Y-98778975D01*
X149557996Y-98778977D01*
X149600487Y-98909754D01*
X149613605Y-98950125D01*
X149703585Y-99105975D01*
X149824002Y-99239711D01*
X149969592Y-99345489D01*
X150133993Y-99418685D01*
X150133996Y-99418685D01*
X150133997Y-99418686D01*
X150162128Y-99424665D01*
X150310020Y-99456100D01*
X150489980Y-99456100D01*
X150666007Y-99418685D01*
X150830408Y-99345489D01*
X150975998Y-99239711D01*
X151096415Y-99105975D01*
X151186395Y-98950125D01*
X151242005Y-98778974D01*
X151260816Y-98600000D01*
X151242005Y-98421026D01*
X151186395Y-98249875D01*
X151096415Y-98094025D01*
X150975998Y-97960289D01*
X150830408Y-97854511D01*
X150666007Y-97781315D01*
X150666006Y-97781314D01*
X150666002Y-97781313D01*
X150489980Y-97743900D01*
X150310020Y-97743900D01*
X150133997Y-97781313D01*
X149969588Y-97854513D01*
X149824000Y-97960290D01*
X149703584Y-98094026D01*
X149613604Y-98249876D01*
X149557996Y-98421022D01*
X149557995Y-98421024D01*
X149539184Y-98600000D01*
X73527097Y-98600000D01*
X73508175Y-98568858D01*
X73509935Y-98499010D01*
X73544453Y-98445297D01*
X73660442Y-98339560D01*
X73792933Y-98164113D01*
X73890931Y-97967308D01*
X73951096Y-97755847D01*
X73971382Y-97536931D01*
X73951096Y-97318015D01*
X73890931Y-97106554D01*
X73883504Y-97091638D01*
X73792936Y-96909754D01*
X73792931Y-96909746D01*
X73716030Y-96807913D01*
X73660442Y-96734302D01*
X73544453Y-96628565D01*
X73508175Y-96568858D01*
X73509935Y-96499010D01*
X73544453Y-96445297D01*
X73660442Y-96339560D01*
X73792933Y-96164113D01*
X73890931Y-95967308D01*
X73951096Y-95755847D01*
X73971382Y-95536931D01*
X73951096Y-95318015D01*
X73890931Y-95106554D01*
X73890930Y-95106551D01*
X73792936Y-94909754D01*
X73792931Y-94909746D01*
X73716030Y-94807913D01*
X73660442Y-94734302D01*
X73544453Y-94628565D01*
X73508175Y-94568858D01*
X73509935Y-94499010D01*
X73544453Y-94445297D01*
X73660442Y-94339560D01*
X73792933Y-94164113D01*
X73890931Y-93967308D01*
X73951096Y-93755847D01*
X73971382Y-93536931D01*
X73951096Y-93318015D01*
X73890931Y-93106554D01*
X73883504Y-93091638D01*
X73792936Y-92909754D01*
X73792931Y-92909746D01*
X73727999Y-92823762D01*
X73672297Y-92750000D01*
X135189184Y-92750000D01*
X135207995Y-92928975D01*
X135207996Y-92928977D01*
X135260846Y-93091636D01*
X135263605Y-93100125D01*
X135353585Y-93255975D01*
X135474002Y-93389711D01*
X135619592Y-93495489D01*
X135783993Y-93568685D01*
X135783996Y-93568685D01*
X135783997Y-93568686D01*
X135812128Y-93574665D01*
X135960020Y-93606100D01*
X136139980Y-93606100D01*
X136316007Y-93568685D01*
X136480408Y-93495489D01*
X136625998Y-93389711D01*
X136746415Y-93255975D01*
X136836395Y-93100125D01*
X136892005Y-92928974D01*
X136910816Y-92750000D01*
X136892005Y-92571026D01*
X136836395Y-92399875D01*
X136746415Y-92244025D01*
X136625998Y-92110289D01*
X136480408Y-92004511D01*
X136316007Y-91931315D01*
X136316006Y-91931314D01*
X136316002Y-91931313D01*
X136139980Y-91893900D01*
X135960020Y-91893900D01*
X135783997Y-91931313D01*
X135783992Y-91931315D01*
X135783993Y-91931315D01*
X135629727Y-91999999D01*
X135619588Y-92004513D01*
X135474000Y-92110290D01*
X135353584Y-92244026D01*
X135263604Y-92399876D01*
X135207996Y-92571022D01*
X135207995Y-92571024D01*
X135189184Y-92750000D01*
X73672297Y-92750000D01*
X73660442Y-92734302D01*
X73544453Y-92628565D01*
X73508175Y-92568858D01*
X73509935Y-92499010D01*
X73544453Y-92445297D01*
X73660442Y-92339560D01*
X73792933Y-92164113D01*
X73890931Y-91967308D01*
X73951096Y-91755847D01*
X73971382Y-91536931D01*
X73951096Y-91318015D01*
X73890931Y-91106554D01*
X73890930Y-91106551D01*
X73792936Y-90909754D01*
X73792931Y-90909746D01*
X73716030Y-90807913D01*
X73660442Y-90734302D01*
X73544453Y-90628565D01*
X73508175Y-90568858D01*
X73509935Y-90499010D01*
X73544453Y-90445297D01*
X73660442Y-90339560D01*
X73792933Y-90164113D01*
X73812976Y-90123862D01*
X73823730Y-90102266D01*
X73871233Y-90051028D01*
X73938895Y-90033607D01*
X74005236Y-90055532D01*
X74049191Y-90109844D01*
X74058051Y-90170499D01*
X74057996Y-90171022D01*
X74057995Y-90171026D01*
X74047525Y-90270640D01*
X74039184Y-90349999D01*
X74057995Y-90528975D01*
X74057996Y-90528977D01*
X74089904Y-90627182D01*
X74113605Y-90700125D01*
X74203585Y-90855975D01*
X74324002Y-90989711D01*
X74469592Y-91095489D01*
X74633993Y-91168685D01*
X74633996Y-91168685D01*
X74633997Y-91168686D01*
X74662128Y-91174665D01*
X74810020Y-91206100D01*
X74989980Y-91206100D01*
X75166007Y-91168685D01*
X75330408Y-91095489D01*
X75475998Y-90989711D01*
X75596415Y-90855975D01*
X75686395Y-90700125D01*
X75742005Y-90528974D01*
X75760816Y-90350000D01*
X75742005Y-90171026D01*
X75686395Y-89999875D01*
X75628732Y-89900000D01*
X133589184Y-89900000D01*
X133596869Y-89973115D01*
X133607995Y-90078975D01*
X133607996Y-90078977D01*
X133653464Y-90218916D01*
X133663605Y-90250125D01*
X133753585Y-90405975D01*
X133874002Y-90539711D01*
X134019592Y-90645489D01*
X134183993Y-90718685D01*
X134183996Y-90718685D01*
X134183997Y-90718686D01*
X134212128Y-90724665D01*
X134360020Y-90756100D01*
X134539980Y-90756100D01*
X134716007Y-90718685D01*
X134880408Y-90645489D01*
X135025998Y-90539711D01*
X135146415Y-90405975D01*
X135236395Y-90250125D01*
X135292005Y-90078974D01*
X135310816Y-89900000D01*
X135292005Y-89721026D01*
X135236395Y-89549875D01*
X135146415Y-89394025D01*
X135025998Y-89260289D01*
X134938133Y-89196451D01*
X134880411Y-89154513D01*
X134880410Y-89154512D01*
X134880408Y-89154511D01*
X134716007Y-89081315D01*
X134716006Y-89081314D01*
X134716002Y-89081313D01*
X134539980Y-89043900D01*
X134360020Y-89043900D01*
X134183997Y-89081313D01*
X134019588Y-89154513D01*
X133874000Y-89260290D01*
X133753584Y-89394026D01*
X133663604Y-89549876D01*
X133607996Y-89721022D01*
X133607995Y-89721024D01*
X133601682Y-89781086D01*
X133589184Y-89900000D01*
X75628732Y-89900000D01*
X75596415Y-89844025D01*
X75475998Y-89710289D01*
X75330408Y-89604511D01*
X75166007Y-89531315D01*
X75166006Y-89531314D01*
X75166002Y-89531313D01*
X74989980Y-89493900D01*
X74810020Y-89493900D01*
X74633997Y-89531313D01*
X74469588Y-89604513D01*
X74324000Y-89710290D01*
X74203585Y-89844024D01*
X74156997Y-89924717D01*
X74106429Y-89972932D01*
X74037822Y-89986154D01*
X73972958Y-89960186D01*
X73932430Y-89903272D01*
X73929106Y-89833481D01*
X73930334Y-89828817D01*
X73951096Y-89755847D01*
X73971382Y-89536931D01*
X73951096Y-89318015D01*
X73890931Y-89106554D01*
X73883504Y-89091638D01*
X73792936Y-88909754D01*
X73792931Y-88909746D01*
X73716030Y-88807913D01*
X73660442Y-88734302D01*
X73544453Y-88628565D01*
X73508175Y-88568858D01*
X73509935Y-88499010D01*
X73544453Y-88445297D01*
X73660442Y-88339560D01*
X73765832Y-88200000D01*
X90989184Y-88200000D01*
X90992135Y-88228073D01*
X91007995Y-88378975D01*
X91007996Y-88378977D01*
X91048944Y-88505005D01*
X91063605Y-88550125D01*
X91153585Y-88705975D01*
X91274002Y-88839711D01*
X91419592Y-88945489D01*
X91583993Y-89018685D01*
X91583996Y-89018685D01*
X91583997Y-89018686D01*
X91612128Y-89024665D01*
X91760020Y-89056100D01*
X91939980Y-89056100D01*
X92116007Y-89018685D01*
X92280408Y-88945489D01*
X92425998Y-88839711D01*
X92546415Y-88705975D01*
X92636395Y-88550125D01*
X92692005Y-88378974D01*
X92710816Y-88200000D01*
X92692005Y-88021026D01*
X92636395Y-87849875D01*
X92546415Y-87694025D01*
X92425998Y-87560289D01*
X92280408Y-87454511D01*
X92116007Y-87381315D01*
X92116006Y-87381314D01*
X92116002Y-87381313D01*
X91939980Y-87343900D01*
X91760020Y-87343900D01*
X91583997Y-87381313D01*
X91419588Y-87454513D01*
X91274000Y-87560290D01*
X91153584Y-87694026D01*
X91063604Y-87849876D01*
X91007996Y-88021022D01*
X91007995Y-88021024D01*
X90992956Y-88164113D01*
X90989184Y-88200000D01*
X73765832Y-88200000D01*
X73792933Y-88164113D01*
X73890931Y-87967308D01*
X73951096Y-87755847D01*
X73971382Y-87536931D01*
X73951096Y-87318015D01*
X73890931Y-87106554D01*
X73883504Y-87091638D01*
X73792936Y-86909754D01*
X73792931Y-86909746D01*
X73732471Y-86829684D01*
X73660442Y-86734302D01*
X73544453Y-86628565D01*
X73508175Y-86568858D01*
X73509935Y-86499010D01*
X73544453Y-86445297D01*
X73660442Y-86339560D01*
X73690316Y-86300000D01*
X74139184Y-86300000D01*
X74146529Y-86369886D01*
X74157995Y-86478975D01*
X74157996Y-86478977D01*
X74206600Y-86628568D01*
X74213605Y-86650125D01*
X74303585Y-86805975D01*
X74424002Y-86939711D01*
X74569592Y-87045489D01*
X74733993Y-87118685D01*
X74733996Y-87118685D01*
X74733997Y-87118686D01*
X74762128Y-87124665D01*
X74910020Y-87156100D01*
X75089980Y-87156100D01*
X75266007Y-87118685D01*
X75430408Y-87045489D01*
X75575998Y-86939711D01*
X75696415Y-86805975D01*
X75786395Y-86650125D01*
X75842005Y-86478974D01*
X75860816Y-86300000D01*
X75842005Y-86121026D01*
X75786395Y-85949875D01*
X75696415Y-85794025D01*
X75575998Y-85660289D01*
X75450067Y-85568794D01*
X75430411Y-85554513D01*
X75430410Y-85554512D01*
X75430408Y-85554511D01*
X75266007Y-85481315D01*
X75266006Y-85481314D01*
X75266002Y-85481313D01*
X75089980Y-85443900D01*
X74910020Y-85443900D01*
X74733997Y-85481313D01*
X74651792Y-85517913D01*
X74609078Y-85536931D01*
X74569588Y-85554513D01*
X74424000Y-85660290D01*
X74303584Y-85794026D01*
X74213604Y-85949876D01*
X74157996Y-86121022D01*
X74157995Y-86121024D01*
X74142831Y-86265299D01*
X74139184Y-86300000D01*
X73690316Y-86300000D01*
X73792933Y-86164113D01*
X73890931Y-85967308D01*
X73951096Y-85755847D01*
X73971382Y-85536931D01*
X73951096Y-85318015D01*
X73890931Y-85106554D01*
X73883504Y-85091638D01*
X73792936Y-84909754D01*
X73792931Y-84909746D01*
X73716030Y-84807913D01*
X73660442Y-84734302D01*
X73544453Y-84628565D01*
X73508175Y-84568858D01*
X73509935Y-84499010D01*
X73544453Y-84445297D01*
X73660442Y-84339560D01*
X73792933Y-84164113D01*
X73890931Y-83967308D01*
X73951096Y-83755847D01*
X73971382Y-83536931D01*
X73951096Y-83318015D01*
X73890931Y-83106554D01*
X73883504Y-83091638D01*
X73792936Y-82909754D01*
X73792931Y-82909746D01*
X73732471Y-82829684D01*
X73660442Y-82734302D01*
X73544453Y-82628565D01*
X73508175Y-82568858D01*
X73509935Y-82499010D01*
X73544453Y-82445297D01*
X73660442Y-82339560D01*
X73792933Y-82164113D01*
X73849755Y-82049999D01*
X78939184Y-82049999D01*
X78957995Y-82228975D01*
X78957996Y-82228977D01*
X79000661Y-82360289D01*
X79013605Y-82400125D01*
X79103585Y-82555975D01*
X79224002Y-82689711D01*
X79369592Y-82795489D01*
X79533993Y-82868685D01*
X79533996Y-82868685D01*
X79533997Y-82868686D01*
X79562128Y-82874665D01*
X79710020Y-82906100D01*
X79889980Y-82906100D01*
X80066007Y-82868685D01*
X80230408Y-82795489D01*
X80375998Y-82689711D01*
X80496415Y-82555975D01*
X80586395Y-82400125D01*
X80642005Y-82228974D01*
X80660816Y-82050000D01*
X80642005Y-81871026D01*
X80586395Y-81699875D01*
X80496415Y-81544025D01*
X80375998Y-81410289D01*
X80230408Y-81304511D01*
X80066007Y-81231315D01*
X80066006Y-81231314D01*
X80066002Y-81231313D01*
X79889980Y-81193900D01*
X79710020Y-81193900D01*
X79533997Y-81231313D01*
X79369588Y-81304513D01*
X79224000Y-81410290D01*
X79103584Y-81544026D01*
X79013604Y-81699876D01*
X78957996Y-81871022D01*
X78957995Y-81871024D01*
X78939184Y-82049999D01*
X73849755Y-82049999D01*
X73890931Y-81967308D01*
X73951096Y-81755847D01*
X73971382Y-81536931D01*
X73951096Y-81318015D01*
X73890931Y-81106554D01*
X73883504Y-81091638D01*
X73792936Y-80909754D01*
X73792931Y-80909746D01*
X73745564Y-80847022D01*
X73688910Y-80772000D01*
X74831184Y-80772000D01*
X74849995Y-80950975D01*
X74849996Y-80950977D01*
X74900545Y-81106554D01*
X74905605Y-81122125D01*
X74995585Y-81277975D01*
X75080987Y-81372823D01*
X75114722Y-81410290D01*
X75116002Y-81411711D01*
X75261592Y-81517489D01*
X75425993Y-81590685D01*
X75425996Y-81590685D01*
X75425997Y-81590686D01*
X75454128Y-81596665D01*
X75602020Y-81628100D01*
X75781980Y-81628100D01*
X75958007Y-81590685D01*
X76122408Y-81517489D01*
X76267998Y-81411711D01*
X76388415Y-81277975D01*
X76478395Y-81122125D01*
X76534005Y-80950974D01*
X76552816Y-80772000D01*
X76534005Y-80593026D01*
X76478395Y-80421875D01*
X76388415Y-80266025D01*
X76267998Y-80132289D01*
X76122408Y-80026511D01*
X75958007Y-79953315D01*
X75958006Y-79953314D01*
X75958002Y-79953313D01*
X75781980Y-79915900D01*
X75602020Y-79915900D01*
X75425997Y-79953313D01*
X75385218Y-79971469D01*
X75276987Y-80019657D01*
X75261588Y-80026513D01*
X75116000Y-80132290D01*
X74995584Y-80266026D01*
X74905604Y-80421876D01*
X74849996Y-80593022D01*
X74849995Y-80593024D01*
X74831184Y-80772000D01*
X73688910Y-80772000D01*
X73660442Y-80734302D01*
X73544453Y-80628565D01*
X73508175Y-80568858D01*
X73509935Y-80499010D01*
X73544453Y-80445297D01*
X73660442Y-80339560D01*
X73792933Y-80164113D01*
X73890931Y-79967308D01*
X73951096Y-79755847D01*
X73971382Y-79536931D01*
X73951096Y-79318015D01*
X73890931Y-79106554D01*
X73890930Y-79106551D01*
X73795349Y-78914599D01*
X83239184Y-78914599D01*
X83257995Y-79093575D01*
X83257996Y-79093577D01*
X83307512Y-79245975D01*
X83313605Y-79264725D01*
X83403585Y-79420575D01*
X83524002Y-79554311D01*
X83669592Y-79660089D01*
X83833993Y-79733285D01*
X83833996Y-79733285D01*
X83833997Y-79733286D01*
X83862128Y-79739265D01*
X84010020Y-79770700D01*
X84189980Y-79770700D01*
X84366007Y-79733285D01*
X84530408Y-79660089D01*
X84675998Y-79554311D01*
X84796415Y-79420575D01*
X84886395Y-79264725D01*
X84942005Y-79093574D01*
X84960816Y-78914600D01*
X119539184Y-78914600D01*
X119557995Y-79093575D01*
X119557996Y-79093577D01*
X119607512Y-79245975D01*
X119613605Y-79264725D01*
X119703585Y-79420575D01*
X119824002Y-79554311D01*
X119969592Y-79660089D01*
X120133993Y-79733285D01*
X120218604Y-79751269D01*
X120280082Y-79784459D01*
X120313859Y-79845622D01*
X120309207Y-79915337D01*
X120267603Y-79971469D01*
X120243257Y-79985837D01*
X120167295Y-80019658D01*
X120167293Y-80019659D01*
X120015855Y-80129684D01*
X119890601Y-80268795D01*
X119797008Y-80430902D01*
X119797007Y-80430904D01*
X119739163Y-80608930D01*
X119739162Y-80608932D01*
X119722994Y-80762758D01*
X119719595Y-80795100D01*
X119720387Y-80802631D01*
X119739162Y-80981267D01*
X119739163Y-80981269D01*
X119797007Y-81159295D01*
X119797008Y-81159297D01*
X119890600Y-81321404D01*
X119890605Y-81321411D01*
X119927267Y-81362128D01*
X119957497Y-81425120D01*
X119948871Y-81494455D01*
X119927267Y-81528072D01*
X119890605Y-81568788D01*
X119890600Y-81568795D01*
X119797008Y-81730902D01*
X119797007Y-81730904D01*
X119739163Y-81908930D01*
X119739162Y-81908932D01*
X119719595Y-82095100D01*
X119739162Y-82281267D01*
X119739163Y-82281269D01*
X119797007Y-82459295D01*
X119797008Y-82459297D01*
X119890600Y-82621404D01*
X119972288Y-82712129D01*
X120002517Y-82775120D01*
X119993891Y-82844456D01*
X119972288Y-82878071D01*
X119890600Y-82968795D01*
X119797008Y-83130902D01*
X119797007Y-83130904D01*
X119739163Y-83308930D01*
X119739162Y-83308932D01*
X119719595Y-83495100D01*
X119739162Y-83681267D01*
X119739163Y-83681269D01*
X119797007Y-83859295D01*
X119797008Y-83859297D01*
X119890600Y-84021404D01*
X119890605Y-84021411D01*
X119927267Y-84062128D01*
X119957497Y-84125120D01*
X119948871Y-84194455D01*
X119927267Y-84228072D01*
X119890605Y-84268788D01*
X119890600Y-84268795D01*
X119797008Y-84430902D01*
X119797007Y-84430904D01*
X119739163Y-84608930D01*
X119739162Y-84608932D01*
X119719595Y-84795100D01*
X119739162Y-84981267D01*
X119739163Y-84981269D01*
X119797007Y-85159295D01*
X119797008Y-85159297D01*
X119890600Y-85321404D01*
X119890605Y-85321411D01*
X119927266Y-85362126D01*
X119957496Y-85425117D01*
X119948872Y-85494453D01*
X119927268Y-85528070D01*
X119890605Y-85568788D01*
X119890600Y-85568795D01*
X119797008Y-85730902D01*
X119797007Y-85730904D01*
X119739163Y-85908930D01*
X119739162Y-85908932D01*
X119719595Y-86095099D01*
X119739162Y-86281267D01*
X119739163Y-86281269D01*
X119797007Y-86459295D01*
X119797008Y-86459297D01*
X119863725Y-86574853D01*
X119890602Y-86621406D01*
X119932241Y-86667651D01*
X119972289Y-86712129D01*
X120002519Y-86775121D01*
X119993894Y-86844456D01*
X119972290Y-86878072D01*
X119890603Y-86968795D01*
X119797011Y-87130902D01*
X119797010Y-87130904D01*
X119739166Y-87308930D01*
X119739165Y-87308932D01*
X119719598Y-87495100D01*
X119739165Y-87681267D01*
X119739166Y-87681269D01*
X119797010Y-87859295D01*
X119797011Y-87859297D01*
X119890603Y-88021404D01*
X119890608Y-88021411D01*
X119927270Y-88062128D01*
X119957500Y-88125120D01*
X119948874Y-88194455D01*
X119927270Y-88228072D01*
X119890608Y-88268788D01*
X119890603Y-88268795D01*
X119797011Y-88430902D01*
X119797010Y-88430904D01*
X119739166Y-88608930D01*
X119739165Y-88608932D01*
X119719598Y-88795100D01*
X119739165Y-88981267D01*
X119739166Y-88981269D01*
X119797010Y-89159295D01*
X119797011Y-89159297D01*
X119818994Y-89197372D01*
X119890605Y-89321406D01*
X119934235Y-89369863D01*
X120015854Y-89460511D01*
X120015861Y-89460517D01*
X120167295Y-89570540D01*
X120167300Y-89570543D01*
X120338303Y-89646679D01*
X120338308Y-89646681D01*
X120521408Y-89685600D01*
X120521409Y-89685600D01*
X120708596Y-89685600D01*
X120708598Y-89685600D01*
X120891698Y-89646681D01*
X121062706Y-89570543D01*
X121192121Y-89476517D01*
X121257925Y-89453039D01*
X121325979Y-89468864D01*
X121337875Y-89476509D01*
X121466032Y-89569620D01*
X121467302Y-89570543D01*
X121638305Y-89646679D01*
X121638310Y-89646681D01*
X121821410Y-89685600D01*
X121821411Y-89685600D01*
X122008598Y-89685600D01*
X122008600Y-89685600D01*
X122191700Y-89646681D01*
X122362708Y-89570543D01*
X122492121Y-89476518D01*
X122557922Y-89453041D01*
X122625976Y-89468866D01*
X122637887Y-89476521D01*
X122767294Y-89570540D01*
X122767299Y-89570543D01*
X122938302Y-89646679D01*
X122938307Y-89646681D01*
X123121407Y-89685600D01*
X123121408Y-89685600D01*
X123308595Y-89685600D01*
X123308597Y-89685600D01*
X123491697Y-89646681D01*
X123662705Y-89570543D01*
X123814145Y-89460516D01*
X123820878Y-89453039D01*
X123850984Y-89419602D01*
X123939400Y-89321406D01*
X124032995Y-89159294D01*
X124090840Y-88981265D01*
X124110407Y-88795100D01*
X124090840Y-88608935D01*
X124032995Y-88430906D01*
X123939400Y-88268794D01*
X123902733Y-88228071D01*
X123872504Y-88165082D01*
X123881128Y-88095746D01*
X123902732Y-88062128D01*
X123939400Y-88021406D01*
X124032995Y-87859294D01*
X124090840Y-87681265D01*
X124110407Y-87495100D01*
X124090840Y-87308935D01*
X124032995Y-87130906D01*
X124031881Y-87128977D01*
X123979310Y-87037920D01*
X123939400Y-86968794D01*
X123922478Y-86950000D01*
X133439184Y-86950000D01*
X133457995Y-87128975D01*
X133457996Y-87128977D01*
X133502611Y-87266291D01*
X133513605Y-87300125D01*
X133603585Y-87455975D01*
X133724002Y-87589711D01*
X133869592Y-87695489D01*
X134033993Y-87768685D01*
X134033996Y-87768685D01*
X134033997Y-87768686D01*
X134062128Y-87774665D01*
X134210020Y-87806100D01*
X134389980Y-87806100D01*
X134566007Y-87768685D01*
X134730408Y-87695489D01*
X134875998Y-87589711D01*
X134996415Y-87455975D01*
X135086395Y-87300125D01*
X135142005Y-87128974D01*
X135160816Y-86950000D01*
X135142005Y-86771026D01*
X135086395Y-86599875D01*
X134996415Y-86444025D01*
X134875998Y-86310289D01*
X134730408Y-86204511D01*
X134566007Y-86131315D01*
X134566006Y-86131314D01*
X134566002Y-86131313D01*
X134389980Y-86093900D01*
X134210020Y-86093900D01*
X134033997Y-86131313D01*
X133869588Y-86204513D01*
X133724000Y-86310290D01*
X133603584Y-86444026D01*
X133513604Y-86599876D01*
X133457996Y-86771022D01*
X133457995Y-86771024D01*
X133439184Y-86950000D01*
X123922478Y-86950000D01*
X123857712Y-86878070D01*
X123827482Y-86815078D01*
X123836107Y-86745743D01*
X123857709Y-86712130D01*
X123939398Y-86621406D01*
X124032993Y-86459294D01*
X124090838Y-86281265D01*
X124110405Y-86095100D01*
X124090838Y-85908935D01*
X124032993Y-85730906D01*
X123939398Y-85568794D01*
X123902731Y-85528071D01*
X123872501Y-85465079D01*
X123881126Y-85395744D01*
X123902729Y-85362130D01*
X123939398Y-85321406D01*
X124032993Y-85159294D01*
X124090838Y-84981265D01*
X124110405Y-84795100D01*
X124090838Y-84608935D01*
X124032993Y-84430906D01*
X123939398Y-84268794D01*
X123902731Y-84228071D01*
X123872502Y-84165082D01*
X123881126Y-84095746D01*
X123902730Y-84062128D01*
X123939398Y-84021406D01*
X124032993Y-83859294D01*
X124090838Y-83681265D01*
X124110405Y-83495100D01*
X124090838Y-83308935D01*
X124032993Y-83130906D01*
X124025938Y-83118686D01*
X123957415Y-83000000D01*
X133489184Y-83000000D01*
X133507995Y-83178975D01*
X133507996Y-83178977D01*
X133554149Y-83321024D01*
X133563605Y-83350125D01*
X133653585Y-83505975D01*
X133774002Y-83639711D01*
X133919592Y-83745489D01*
X134083993Y-83818685D01*
X134083996Y-83818685D01*
X134083997Y-83818686D01*
X134112128Y-83824665D01*
X134260020Y-83856100D01*
X134439980Y-83856100D01*
X134616007Y-83818685D01*
X134780408Y-83745489D01*
X134925998Y-83639711D01*
X135046415Y-83505975D01*
X135049865Y-83499999D01*
X144489184Y-83499999D01*
X144507995Y-83678975D01*
X144507996Y-83678977D01*
X144553389Y-83818685D01*
X144563605Y-83850125D01*
X144653585Y-84005975D01*
X144774002Y-84139711D01*
X144919592Y-84245489D01*
X145083993Y-84318685D01*
X145083996Y-84318685D01*
X145083997Y-84318686D01*
X145112128Y-84324665D01*
X145260020Y-84356100D01*
X145439980Y-84356100D01*
X145616007Y-84318685D01*
X145780408Y-84245489D01*
X145925998Y-84139711D01*
X146046415Y-84005975D01*
X146136395Y-83850125D01*
X146192005Y-83678974D01*
X146210816Y-83500000D01*
X146192005Y-83321026D01*
X146136395Y-83149875D01*
X146046415Y-82994025D01*
X145925998Y-82860289D01*
X145808774Y-82775120D01*
X145780411Y-82754513D01*
X145780410Y-82754512D01*
X145780408Y-82754511D01*
X145616007Y-82681315D01*
X145616006Y-82681314D01*
X145616002Y-82681313D01*
X145439980Y-82643900D01*
X145260020Y-82643900D01*
X145083997Y-82681313D01*
X145014786Y-82712128D01*
X144952679Y-82739780D01*
X144919588Y-82754513D01*
X144774000Y-82860290D01*
X144653584Y-82994026D01*
X144563604Y-83149876D01*
X144507996Y-83321022D01*
X144507995Y-83321024D01*
X144489184Y-83499999D01*
X135049865Y-83499999D01*
X135136395Y-83350125D01*
X135192005Y-83178974D01*
X135210816Y-83000000D01*
X135192005Y-82821026D01*
X135136395Y-82649875D01*
X135046415Y-82494025D01*
X134925998Y-82360289D01*
X134817234Y-82281267D01*
X134780411Y-82254513D01*
X134780410Y-82254512D01*
X134780408Y-82254511D01*
X134616007Y-82181315D01*
X134616006Y-82181314D01*
X134616002Y-82181313D01*
X134439980Y-82143900D01*
X134260020Y-82143900D01*
X134083997Y-82181313D01*
X133919588Y-82254513D01*
X133774000Y-82360290D01*
X133653584Y-82494026D01*
X133563604Y-82649876D01*
X133507996Y-82821022D01*
X133507995Y-82821024D01*
X133489184Y-83000000D01*
X123957415Y-83000000D01*
X123939399Y-82968795D01*
X123923145Y-82950743D01*
X123857710Y-82878070D01*
X123827481Y-82815081D01*
X123836106Y-82745746D01*
X123857709Y-82712130D01*
X123939398Y-82621406D01*
X124032993Y-82459294D01*
X124090838Y-82281265D01*
X124110405Y-82095100D01*
X124090838Y-81908935D01*
X124032993Y-81730906D01*
X123939398Y-81568794D01*
X123902731Y-81528071D01*
X123872502Y-81465082D01*
X123881126Y-81395746D01*
X123902730Y-81362128D01*
X123939398Y-81321406D01*
X124032993Y-81159294D01*
X124076303Y-81026000D01*
X127917184Y-81026000D01*
X127917643Y-81030366D01*
X127935995Y-81204975D01*
X127935996Y-81204977D01*
X127990529Y-81372815D01*
X127991605Y-81376125D01*
X128081585Y-81531975D01*
X128202002Y-81665711D01*
X128347592Y-81771489D01*
X128511993Y-81844685D01*
X128511996Y-81844685D01*
X128511997Y-81844686D01*
X128540128Y-81850665D01*
X128688020Y-81882100D01*
X128867980Y-81882100D01*
X129044007Y-81844685D01*
X129208408Y-81771489D01*
X129353998Y-81665711D01*
X129474415Y-81531975D01*
X129564395Y-81376125D01*
X129620005Y-81204974D01*
X129638816Y-81026000D01*
X129620005Y-80847026D01*
X129564395Y-80675875D01*
X129474415Y-80520025D01*
X129353998Y-80386289D01*
X129266133Y-80322451D01*
X129208411Y-80280513D01*
X129208410Y-80280512D01*
X129208408Y-80280511D01*
X129044007Y-80207315D01*
X129044006Y-80207314D01*
X129044002Y-80207313D01*
X128867980Y-80169900D01*
X128688020Y-80169900D01*
X128511997Y-80207313D01*
X128463346Y-80228974D01*
X128380304Y-80265947D01*
X128347588Y-80280513D01*
X128202000Y-80386290D01*
X128081584Y-80520026D01*
X127991604Y-80675876D01*
X127935996Y-80847022D01*
X127935995Y-80847024D01*
X127925069Y-80950975D01*
X127917184Y-81026000D01*
X124076303Y-81026000D01*
X124090838Y-80981265D01*
X124110405Y-80795100D01*
X124090838Y-80608935D01*
X124032993Y-80430906D01*
X124007233Y-80386289D01*
X123980256Y-80339562D01*
X123939398Y-80268794D01*
X123884040Y-80207313D01*
X123814148Y-80129688D01*
X123814141Y-80129682D01*
X123704467Y-80049999D01*
X133589184Y-80049999D01*
X133607995Y-80228975D01*
X133607996Y-80228977D01*
X133659109Y-80386290D01*
X133663605Y-80400125D01*
X133753585Y-80555975D01*
X133874002Y-80689711D01*
X134019592Y-80795489D01*
X134183993Y-80868685D01*
X134183996Y-80868685D01*
X134183997Y-80868686D01*
X134212128Y-80874665D01*
X134360020Y-80906100D01*
X134539980Y-80906100D01*
X134716007Y-80868685D01*
X134880408Y-80795489D01*
X135025998Y-80689711D01*
X135146415Y-80555975D01*
X135236395Y-80400125D01*
X135292005Y-80228974D01*
X135310816Y-80050000D01*
X135292005Y-79871026D01*
X135236395Y-79699875D01*
X135146415Y-79544025D01*
X135025998Y-79410289D01*
X134898995Y-79318015D01*
X134880411Y-79304513D01*
X134880410Y-79304512D01*
X134880408Y-79304511D01*
X134716007Y-79231315D01*
X134716006Y-79231314D01*
X134716002Y-79231313D01*
X134539980Y-79193900D01*
X134360020Y-79193900D01*
X134183997Y-79231313D01*
X134019588Y-79304513D01*
X133874000Y-79410290D01*
X133753584Y-79544026D01*
X133663604Y-79699876D01*
X133607996Y-79871022D01*
X133607995Y-79871024D01*
X133589184Y-80049999D01*
X123704467Y-80049999D01*
X123662707Y-80019659D01*
X123662702Y-80019656D01*
X123491699Y-79943520D01*
X123491694Y-79943518D01*
X123347512Y-79912872D01*
X123308595Y-79904600D01*
X123121405Y-79904600D01*
X123089309Y-79911422D01*
X122938305Y-79943518D01*
X122938300Y-79943520D01*
X122767298Y-80019656D01*
X122767293Y-80019659D01*
X122637887Y-80113678D01*
X122572080Y-80137158D01*
X122504027Y-80121332D01*
X122492117Y-80113678D01*
X122362710Y-80019659D01*
X122362705Y-80019656D01*
X122191702Y-79943520D01*
X122191697Y-79943518D01*
X122047516Y-79912872D01*
X122008598Y-79904600D01*
X121821408Y-79904600D01*
X121789312Y-79911422D01*
X121638308Y-79943518D01*
X121638303Y-79943520D01*
X121467301Y-80019656D01*
X121467297Y-80019658D01*
X121337885Y-80113681D01*
X121272079Y-80137160D01*
X121204025Y-80121334D01*
X121192116Y-80113680D01*
X121062707Y-80019659D01*
X121062702Y-80019656D01*
X120891699Y-79943520D01*
X120891695Y-79943519D01*
X120792618Y-79922459D01*
X120731137Y-79889266D01*
X120697360Y-79828103D01*
X120702013Y-79758388D01*
X120743618Y-79702256D01*
X120767959Y-79687892D01*
X120830408Y-79660089D01*
X120975998Y-79554311D01*
X121096415Y-79420575D01*
X121186395Y-79264725D01*
X121242005Y-79093574D01*
X121260816Y-78914600D01*
X121242005Y-78735626D01*
X121186395Y-78564475D01*
X121096415Y-78408625D01*
X120975998Y-78274889D01*
X120916967Y-78232000D01*
X123091184Y-78232000D01*
X123109995Y-78410975D01*
X123109996Y-78410977D01*
X123159870Y-78564476D01*
X123165605Y-78582125D01*
X123255585Y-78737975D01*
X123376002Y-78871711D01*
X123521592Y-78977489D01*
X123685993Y-79050685D01*
X123685996Y-79050685D01*
X123685997Y-79050686D01*
X123711464Y-79056099D01*
X123862020Y-79088100D01*
X124041980Y-79088100D01*
X124218007Y-79050685D01*
X124382408Y-78977489D01*
X124527998Y-78871711D01*
X124646592Y-78740000D01*
X152301184Y-78740000D01*
X152319995Y-78918975D01*
X152319996Y-78918977D01*
X152374946Y-79088099D01*
X152375605Y-79090125D01*
X152465585Y-79245975D01*
X152586002Y-79379711D01*
X152731592Y-79485489D01*
X152895993Y-79558685D01*
X152895996Y-79558685D01*
X152895997Y-79558686D01*
X152924128Y-79564665D01*
X153072020Y-79596100D01*
X153251980Y-79596100D01*
X153428007Y-79558685D01*
X153592408Y-79485489D01*
X153737998Y-79379711D01*
X153858415Y-79245975D01*
X153948395Y-79090125D01*
X154004005Y-78918974D01*
X154022816Y-78740000D01*
X154004005Y-78561026D01*
X153948395Y-78389875D01*
X153858415Y-78234025D01*
X153737998Y-78100289D01*
X153592408Y-77994511D01*
X153428007Y-77921315D01*
X153428006Y-77921314D01*
X153428002Y-77921313D01*
X153251980Y-77883900D01*
X153072020Y-77883900D01*
X152895997Y-77921313D01*
X152895992Y-77921315D01*
X152895993Y-77921315D01*
X152792687Y-77967310D01*
X152731588Y-77994513D01*
X152586000Y-78100290D01*
X152465584Y-78234026D01*
X152375604Y-78389876D01*
X152319996Y-78561022D01*
X152319995Y-78561024D01*
X152301184Y-78740000D01*
X124646592Y-78740000D01*
X124648415Y-78737975D01*
X124738395Y-78582125D01*
X124794005Y-78410974D01*
X124812816Y-78232000D01*
X124794005Y-78053026D01*
X124738395Y-77881875D01*
X124648415Y-77726025D01*
X124527998Y-77592289D01*
X124382408Y-77486511D01*
X124218007Y-77413315D01*
X124218006Y-77413314D01*
X124218002Y-77413313D01*
X124041980Y-77375900D01*
X123862020Y-77375900D01*
X123685997Y-77413313D01*
X123521588Y-77486513D01*
X123376000Y-77592290D01*
X123255584Y-77726026D01*
X123165604Y-77881876D01*
X123109996Y-78053022D01*
X123109995Y-78053024D01*
X123091184Y-78232000D01*
X120916967Y-78232000D01*
X120830408Y-78169111D01*
X120666007Y-78095915D01*
X120666006Y-78095914D01*
X120666002Y-78095913D01*
X120489980Y-78058500D01*
X120310020Y-78058500D01*
X120133997Y-78095913D01*
X120051792Y-78132513D01*
X119980814Y-78164115D01*
X119969588Y-78169113D01*
X119824000Y-78274890D01*
X119703584Y-78408626D01*
X119613604Y-78564476D01*
X119557996Y-78735622D01*
X119557995Y-78735624D01*
X119539184Y-78914600D01*
X84960816Y-78914600D01*
X84942005Y-78735626D01*
X84886395Y-78564475D01*
X84796415Y-78408625D01*
X84675998Y-78274889D01*
X84530408Y-78169111D01*
X84366007Y-78095915D01*
X84366006Y-78095914D01*
X84366002Y-78095913D01*
X84189980Y-78058500D01*
X84010020Y-78058500D01*
X83833997Y-78095913D01*
X83751792Y-78132513D01*
X83680814Y-78164115D01*
X83669588Y-78169113D01*
X83524000Y-78274890D01*
X83403584Y-78408626D01*
X83313604Y-78564476D01*
X83257996Y-78735622D01*
X83257995Y-78735624D01*
X83239184Y-78914599D01*
X73795349Y-78914599D01*
X73792936Y-78909754D01*
X73792931Y-78909746D01*
X73716030Y-78807913D01*
X73660442Y-78734302D01*
X73544453Y-78628565D01*
X73508175Y-78568858D01*
X73509935Y-78499010D01*
X73544453Y-78445297D01*
X73660442Y-78339560D01*
X73792933Y-78164113D01*
X73890931Y-77967308D01*
X73951096Y-77755847D01*
X73971382Y-77536931D01*
X73951096Y-77318015D01*
X73890931Y-77106554D01*
X73883504Y-77091638D01*
X73792936Y-76909754D01*
X73792931Y-76909746D01*
X73716030Y-76807913D01*
X73660442Y-76734302D01*
X73622814Y-76700000D01*
X90439184Y-76700000D01*
X90457995Y-76878974D01*
X90513605Y-77050125D01*
X90603585Y-77205975D01*
X90724002Y-77339711D01*
X90869592Y-77445489D01*
X91033993Y-77518685D01*
X91033996Y-77518685D01*
X91033997Y-77518686D01*
X91062128Y-77524665D01*
X91210020Y-77556100D01*
X91389980Y-77556100D01*
X91566007Y-77518685D01*
X91730408Y-77445489D01*
X91875998Y-77339711D01*
X91996415Y-77205975D01*
X92086395Y-77050125D01*
X92142005Y-76878974D01*
X92160816Y-76700000D01*
X92142005Y-76521026D01*
X92086395Y-76349875D01*
X91996415Y-76194025D01*
X91875998Y-76060289D01*
X91756168Y-75973227D01*
X91730411Y-75954513D01*
X91730410Y-75954512D01*
X91730408Y-75954511D01*
X91566007Y-75881315D01*
X91566006Y-75881314D01*
X91566002Y-75881313D01*
X91389980Y-75843900D01*
X91210020Y-75843900D01*
X91033997Y-75881313D01*
X91033992Y-75881315D01*
X91033993Y-75881315D01*
X90925793Y-75929489D01*
X90869588Y-75954513D01*
X90724000Y-76060290D01*
X90603584Y-76194026D01*
X90513604Y-76349876D01*
X90457996Y-76521022D01*
X90457995Y-76521024D01*
X90446837Y-76627184D01*
X90439184Y-76700000D01*
X73622814Y-76700000D01*
X73544453Y-76628565D01*
X73508175Y-76568858D01*
X73509935Y-76499010D01*
X73544453Y-76445297D01*
X73660442Y-76339560D01*
X73792933Y-76164113D01*
X73890931Y-75967308D01*
X73951096Y-75755847D01*
X73971382Y-75536931D01*
X73951096Y-75318015D01*
X73912966Y-75184000D01*
X115725184Y-75184000D01*
X115743995Y-75362975D01*
X115743996Y-75362977D01*
X115768785Y-75439272D01*
X115799605Y-75534125D01*
X115889585Y-75689975D01*
X116010002Y-75823711D01*
X116155592Y-75929489D01*
X116319993Y-76002685D01*
X116319996Y-76002685D01*
X116319997Y-76002686D01*
X116348128Y-76008665D01*
X116496020Y-76040100D01*
X116675980Y-76040100D01*
X116852007Y-76002685D01*
X117016408Y-75929489D01*
X117161998Y-75823711D01*
X117282415Y-75689975D01*
X117372395Y-75534125D01*
X117428005Y-75362974D01*
X117446816Y-75184000D01*
X117428005Y-75005026D01*
X117372395Y-74833875D01*
X117282415Y-74678025D01*
X117161998Y-74544289D01*
X117016408Y-74438511D01*
X116852007Y-74365315D01*
X116852006Y-74365314D01*
X116852002Y-74365313D01*
X116675980Y-74327900D01*
X116496020Y-74327900D01*
X116319997Y-74365313D01*
X116319992Y-74365315D01*
X116319993Y-74365315D01*
X116173633Y-74430479D01*
X116155588Y-74438513D01*
X116010000Y-74544290D01*
X115889584Y-74678026D01*
X115799604Y-74833876D01*
X115743996Y-75005022D01*
X115743995Y-75005024D01*
X115725184Y-75184000D01*
X73912966Y-75184000D01*
X73890931Y-75106554D01*
X73883529Y-75091688D01*
X73792936Y-74909754D01*
X73792931Y-74909746D01*
X73753955Y-74858134D01*
X73660442Y-74734302D01*
X73544453Y-74628565D01*
X73508175Y-74568858D01*
X73509935Y-74499010D01*
X73544453Y-74445297D01*
X73660442Y-74339560D01*
X73792933Y-74164113D01*
X73890931Y-73967308D01*
X73951096Y-73755847D01*
X73971382Y-73536931D01*
X73951096Y-73318015D01*
X73890931Y-73106554D01*
X73890930Y-73106551D01*
X73792936Y-72909754D01*
X73792931Y-72909746D01*
X73716030Y-72807913D01*
X73660442Y-72734302D01*
X73544453Y-72628565D01*
X73508175Y-72568858D01*
X73509935Y-72499010D01*
X73544453Y-72445297D01*
X73660442Y-72339560D01*
X73792933Y-72164113D01*
X73824858Y-72100000D01*
X74389184Y-72100000D01*
X74407995Y-72278975D01*
X74407996Y-72278977D01*
X74457221Y-72430479D01*
X74463605Y-72450125D01*
X74553585Y-72605975D01*
X74650015Y-72713071D01*
X74669132Y-72734303D01*
X74674002Y-72739711D01*
X74819592Y-72845489D01*
X74983993Y-72918685D01*
X74983996Y-72918685D01*
X74983997Y-72918686D01*
X75012128Y-72924665D01*
X75160020Y-72956100D01*
X75339980Y-72956100D01*
X75516007Y-72918685D01*
X75680408Y-72845489D01*
X75825998Y-72739711D01*
X75946415Y-72605975D01*
X76036395Y-72450125D01*
X76092005Y-72278974D01*
X76110816Y-72100000D01*
X76092005Y-71921026D01*
X76036395Y-71749875D01*
X75978732Y-71649999D01*
X78539184Y-71649999D01*
X78557995Y-71828975D01*
X78557996Y-71828977D01*
X78613596Y-72000099D01*
X78613605Y-72000125D01*
X78703585Y-72155975D01*
X78824002Y-72289711D01*
X78969592Y-72395489D01*
X79133993Y-72468685D01*
X79133996Y-72468685D01*
X79133997Y-72468686D01*
X79162128Y-72474665D01*
X79310020Y-72506100D01*
X79489980Y-72506100D01*
X79666007Y-72468685D01*
X79830408Y-72395489D01*
X79975998Y-72289711D01*
X80096415Y-72155975D01*
X80186395Y-72000125D01*
X80242005Y-71828974D01*
X80260816Y-71650000D01*
X80242005Y-71471026D01*
X80186395Y-71299875D01*
X80096415Y-71144025D01*
X79975998Y-71010289D01*
X79888133Y-70946451D01*
X79830411Y-70904513D01*
X79830410Y-70904512D01*
X79830408Y-70904511D01*
X79666007Y-70831315D01*
X79666006Y-70831314D01*
X79666002Y-70831313D01*
X79489980Y-70793900D01*
X79310020Y-70793900D01*
X79133997Y-70831313D01*
X78969588Y-70904513D01*
X78824000Y-71010290D01*
X78703584Y-71144026D01*
X78613604Y-71299876D01*
X78557996Y-71471022D01*
X78557995Y-71471024D01*
X78539184Y-71649999D01*
X75978732Y-71649999D01*
X75946415Y-71594025D01*
X75825998Y-71460289D01*
X75680408Y-71354511D01*
X75516007Y-71281315D01*
X75516006Y-71281314D01*
X75516002Y-71281313D01*
X75339980Y-71243900D01*
X75160020Y-71243900D01*
X74983997Y-71281313D01*
X74819588Y-71354513D01*
X74674000Y-71460290D01*
X74553584Y-71594026D01*
X74463604Y-71749876D01*
X74407996Y-71921022D01*
X74407995Y-71921024D01*
X74389184Y-72100000D01*
X73824858Y-72100000D01*
X73890931Y-71967308D01*
X73951096Y-71755847D01*
X73971382Y-71536931D01*
X73951096Y-71318015D01*
X73890931Y-71106554D01*
X73890930Y-71106551D01*
X73792936Y-70909754D01*
X73792931Y-70909746D01*
X73758468Y-70864110D01*
X73660442Y-70734302D01*
X73544453Y-70628565D01*
X73508175Y-70568858D01*
X73509935Y-70499010D01*
X73544453Y-70445297D01*
X73660442Y-70339560D01*
X73792933Y-70164113D01*
X73890931Y-69967308D01*
X73951096Y-69755847D01*
X73971382Y-69536931D01*
X73951096Y-69318015D01*
X73890931Y-69106554D01*
X73890930Y-69106551D01*
X73792936Y-68909754D01*
X73792931Y-68909746D01*
X73716030Y-68807913D01*
X73660442Y-68734302D01*
X73497968Y-68586188D01*
X73432232Y-68545486D01*
X73311046Y-68470450D01*
X73311044Y-68470449D01*
X73231694Y-68439709D01*
X73106037Y-68391029D01*
X72889927Y-68350631D01*
X72670073Y-68350631D01*
X72453963Y-68391029D01*
X72396719Y-68413205D01*
X72248955Y-68470449D01*
X72248953Y-68470450D01*
X72062036Y-68586185D01*
X72062034Y-68586186D01*
X72062032Y-68586188D01*
X71985343Y-68656099D01*
X71899557Y-68734303D01*
X71878954Y-68761586D01*
X71822845Y-68803222D01*
X71753133Y-68807913D01*
X71691951Y-68774171D01*
X71681046Y-68761586D01*
X71680249Y-68760531D01*
X71660442Y-68734302D01*
X71497968Y-68586188D01*
X71432232Y-68545486D01*
X71311046Y-68470450D01*
X71311044Y-68470449D01*
X71231694Y-68439709D01*
X71106037Y-68391029D01*
X70889927Y-68350631D01*
X70670073Y-68350631D01*
X70453963Y-68391029D01*
X70396719Y-68413205D01*
X70248955Y-68470449D01*
X70248953Y-68470450D01*
X70062036Y-68586185D01*
X70062034Y-68586186D01*
X70062032Y-68586188D01*
X69985343Y-68656099D01*
X69899557Y-68734303D01*
X69767068Y-68909746D01*
X69767063Y-68909754D01*
X69669069Y-69106551D01*
X69608903Y-69318017D01*
X69588618Y-69536931D01*
X69608903Y-69755844D01*
X69669069Y-69967310D01*
X69767063Y-70164107D01*
X69767068Y-70164115D01*
X69899559Y-70339562D01*
X70015542Y-70445294D01*
X70051824Y-70505005D01*
X70050063Y-70574853D01*
X70015542Y-70628568D01*
X69899559Y-70734299D01*
X69767068Y-70909746D01*
X69767063Y-70909754D01*
X69669069Y-71106551D01*
X69608903Y-71318017D01*
X69588618Y-71536931D01*
X69608903Y-71755844D01*
X69669069Y-71967310D01*
X69767063Y-72164107D01*
X69767068Y-72164115D01*
X69899559Y-72339562D01*
X70015542Y-72445294D01*
X70051824Y-72505005D01*
X70050063Y-72574853D01*
X70015542Y-72628568D01*
X69899559Y-72734299D01*
X69767068Y-72909746D01*
X69767063Y-72909754D01*
X69669069Y-73106551D01*
X69608903Y-73318017D01*
X69588618Y-73536931D01*
X69608903Y-73755844D01*
X69669069Y-73967310D01*
X69767063Y-74164107D01*
X69767068Y-74164115D01*
X69899559Y-74339562D01*
X70015542Y-74445294D01*
X70051824Y-74505005D01*
X70050063Y-74574853D01*
X70015542Y-74628568D01*
X69899559Y-74734299D01*
X69767068Y-74909746D01*
X69767063Y-74909754D01*
X69669069Y-75106551D01*
X69608903Y-75318017D01*
X69588618Y-75536931D01*
X69608903Y-75755844D01*
X69669069Y-75967310D01*
X69767063Y-76164107D01*
X69767068Y-76164115D01*
X69899559Y-76339562D01*
X70015542Y-76445294D01*
X70051824Y-76505005D01*
X70050063Y-76574853D01*
X70015542Y-76628568D01*
X69899559Y-76734299D01*
X69767068Y-76909746D01*
X69767063Y-76909754D01*
X69669069Y-77106551D01*
X69608903Y-77318017D01*
X69588618Y-77536931D01*
X69608903Y-77755844D01*
X69669069Y-77967310D01*
X69767063Y-78164107D01*
X69767068Y-78164115D01*
X69899559Y-78339562D01*
X70015542Y-78445294D01*
X70051824Y-78505005D01*
X70050063Y-78574853D01*
X70015542Y-78628568D01*
X69899559Y-78734299D01*
X69767068Y-78909746D01*
X69767063Y-78909754D01*
X69669069Y-79106551D01*
X69608903Y-79318017D01*
X69588618Y-79536931D01*
X69608903Y-79755844D01*
X69669069Y-79967310D01*
X69767063Y-80164107D01*
X69767068Y-80164115D01*
X69899559Y-80339562D01*
X70015542Y-80445294D01*
X70051824Y-80505005D01*
X70050063Y-80574853D01*
X70015542Y-80628568D01*
X69899559Y-80734299D01*
X69767068Y-80909746D01*
X69767063Y-80909754D01*
X69669069Y-81106551D01*
X69608903Y-81318017D01*
X69588618Y-81536931D01*
X69608903Y-81755844D01*
X69669069Y-81967310D01*
X69767063Y-82164107D01*
X69767068Y-82164115D01*
X69899559Y-82339562D01*
X70015542Y-82445294D01*
X70051824Y-82505005D01*
X70050063Y-82574853D01*
X70015542Y-82628568D01*
X69899559Y-82734299D01*
X69767068Y-82909746D01*
X69767063Y-82909754D01*
X69669069Y-83106551D01*
X69608903Y-83318017D01*
X69588618Y-83536931D01*
X69608903Y-83755844D01*
X69669069Y-83967310D01*
X69767063Y-84164107D01*
X69767068Y-84164115D01*
X69899559Y-84339562D01*
X70015542Y-84445294D01*
X70051824Y-84505005D01*
X70050063Y-84574853D01*
X70015542Y-84628568D01*
X69899559Y-84734299D01*
X69767068Y-84909746D01*
X69767063Y-84909754D01*
X69669069Y-85106551D01*
X69608903Y-85318017D01*
X69588618Y-85536931D01*
X69608903Y-85755844D01*
X69669069Y-85967310D01*
X69767063Y-86164107D01*
X69767068Y-86164115D01*
X69899559Y-86339562D01*
X70015542Y-86445294D01*
X70051824Y-86505005D01*
X70050063Y-86574853D01*
X70015542Y-86628568D01*
X69899559Y-86734299D01*
X69767068Y-86909746D01*
X69767063Y-86909754D01*
X69669069Y-87106551D01*
X69608903Y-87318017D01*
X69588618Y-87536931D01*
X69608903Y-87755844D01*
X69669069Y-87967310D01*
X69767063Y-88164107D01*
X69767068Y-88164115D01*
X69899559Y-88339562D01*
X70015542Y-88445294D01*
X70051824Y-88505005D01*
X70050063Y-88574853D01*
X70015542Y-88628568D01*
X69899559Y-88734299D01*
X69767068Y-88909746D01*
X69767063Y-88909754D01*
X69669069Y-89106551D01*
X69608903Y-89318017D01*
X69588618Y-89536931D01*
X69608903Y-89755844D01*
X69669069Y-89967310D01*
X69767063Y-90164107D01*
X69767068Y-90164115D01*
X69899559Y-90339562D01*
X70015542Y-90445294D01*
X70051824Y-90505005D01*
X70050063Y-90574853D01*
X70015542Y-90628568D01*
X69899559Y-90734299D01*
X69767068Y-90909746D01*
X69767063Y-90909754D01*
X69669069Y-91106551D01*
X69608903Y-91318017D01*
X69588618Y-91536931D01*
X69608903Y-91755844D01*
X69669069Y-91967310D01*
X69767063Y-92164107D01*
X69767068Y-92164115D01*
X69899559Y-92339562D01*
X70015542Y-92445294D01*
X70051824Y-92505005D01*
X70050063Y-92574853D01*
X70015542Y-92628568D01*
X69899559Y-92734299D01*
X69767068Y-92909746D01*
X69767063Y-92909754D01*
X69669069Y-93106551D01*
X69608903Y-93318017D01*
X69588618Y-93536931D01*
X69608903Y-93755844D01*
X69669069Y-93967310D01*
X69767063Y-94164107D01*
X69767068Y-94164115D01*
X69899559Y-94339562D01*
X70015542Y-94445294D01*
X70051824Y-94505005D01*
X70050063Y-94574853D01*
X70015542Y-94628568D01*
X69899559Y-94734299D01*
X69767068Y-94909746D01*
X69767063Y-94909754D01*
X69669069Y-95106551D01*
X69608903Y-95318017D01*
X69588618Y-95536931D01*
X69608903Y-95755844D01*
X69669069Y-95967310D01*
X69767063Y-96164107D01*
X69767068Y-96164115D01*
X69899559Y-96339562D01*
X70015542Y-96445294D01*
X70051824Y-96505005D01*
X70050063Y-96574853D01*
X70015542Y-96628568D01*
X69899559Y-96734299D01*
X69767068Y-96909746D01*
X69767063Y-96909754D01*
X69669069Y-97106551D01*
X69608903Y-97318017D01*
X69588618Y-97536931D01*
X69608903Y-97755844D01*
X69669069Y-97967310D01*
X69767063Y-98164107D01*
X69767068Y-98164115D01*
X69899559Y-98339562D01*
X70015542Y-98445294D01*
X70051824Y-98505005D01*
X70050063Y-98574853D01*
X70015542Y-98628568D01*
X69899559Y-98734299D01*
X69767068Y-98909746D01*
X69767063Y-98909754D01*
X69669069Y-99106551D01*
X69608903Y-99318017D01*
X69588618Y-99536931D01*
X69608903Y-99755844D01*
X69669069Y-99967310D01*
X69767063Y-100164107D01*
X69767068Y-100164115D01*
X69899559Y-100339562D01*
X70015487Y-100445244D01*
X70051769Y-100504955D01*
X70050008Y-100574803D01*
X70015487Y-100628518D01*
X69899559Y-100734199D01*
X69767068Y-100909646D01*
X69767063Y-100909654D01*
X69669069Y-101106451D01*
X69608903Y-101317917D01*
X69588618Y-101536831D01*
X69608903Y-101755744D01*
X69669069Y-101967210D01*
X69767063Y-102164007D01*
X69767068Y-102164015D01*
X69899559Y-102339462D01*
X70015542Y-102445194D01*
X70051824Y-102504905D01*
X70050063Y-102574753D01*
X70015542Y-102628468D01*
X69899559Y-102734199D01*
X69767068Y-102909646D01*
X69767063Y-102909654D01*
X69669069Y-103106451D01*
X69608903Y-103317917D01*
X69588618Y-103536831D01*
X69608903Y-103755744D01*
X69669069Y-103967210D01*
X69767063Y-104164007D01*
X69767068Y-104164015D01*
X69899559Y-104339462D01*
X70015542Y-104445194D01*
X70051824Y-104504905D01*
X70050063Y-104574753D01*
X70015542Y-104628468D01*
X69899559Y-104734199D01*
X69767068Y-104909646D01*
X69767063Y-104909654D01*
X69669069Y-105106451D01*
X69608903Y-105317917D01*
X69588618Y-105536831D01*
X69608903Y-105755744D01*
X69669069Y-105967210D01*
X69767063Y-106164007D01*
X69767068Y-106164015D01*
X69899559Y-106339462D01*
X70015542Y-106445194D01*
X70051824Y-106504905D01*
X70050063Y-106574753D01*
X70015542Y-106628468D01*
X69899559Y-106734199D01*
X69767068Y-106909646D01*
X69767063Y-106909654D01*
X69669069Y-107106451D01*
X69608903Y-107317917D01*
X69588618Y-107536831D01*
X63356607Y-107536831D01*
X63263605Y-107301184D01*
X62730042Y-105845290D01*
X62232477Y-104376704D01*
X61771211Y-102896316D01*
X61346522Y-101405022D01*
X60958668Y-99903727D01*
X60607921Y-98393498D01*
X60535863Y-98064909D01*
X60357923Y-97416397D01*
X60357922Y-97416396D01*
X60146583Y-96778002D01*
X60129553Y-96734302D01*
X59902404Y-96151409D01*
X59626052Y-95538337D01*
X59318269Y-94940427D01*
X58979883Y-94359288D01*
X58978068Y-94356512D01*
X58924758Y-94275000D01*
X67714184Y-94275000D01*
X67732995Y-94453975D01*
X67732996Y-94453977D01*
X67775953Y-94586188D01*
X67788605Y-94625125D01*
X67878585Y-94780975D01*
X67999002Y-94914711D01*
X68144592Y-95020489D01*
X68308993Y-95093685D01*
X68308996Y-95093685D01*
X68308997Y-95093686D01*
X68337128Y-95099665D01*
X68485020Y-95131100D01*
X68664980Y-95131100D01*
X68841007Y-95093685D01*
X69005408Y-95020489D01*
X69150998Y-94914711D01*
X69271415Y-94780975D01*
X69361395Y-94625125D01*
X69417005Y-94453974D01*
X69435816Y-94275000D01*
X69417005Y-94096026D01*
X69361395Y-93924875D01*
X69271415Y-93769025D01*
X69150998Y-93635289D01*
X69015621Y-93536931D01*
X69005411Y-93529513D01*
X69005410Y-93529512D01*
X69005408Y-93529511D01*
X68841007Y-93456315D01*
X68841006Y-93456314D01*
X68841002Y-93456313D01*
X68664980Y-93418900D01*
X68485020Y-93418900D01*
X68308997Y-93456313D01*
X68144588Y-93529513D01*
X67999000Y-93635290D01*
X67878584Y-93769026D01*
X67788604Y-93924876D01*
X67732996Y-94096022D01*
X67732995Y-94096024D01*
X67714184Y-94275000D01*
X58924758Y-94275000D01*
X58611807Y-93796487D01*
X58611806Y-93796486D01*
X58335874Y-93418900D01*
X58215034Y-93253541D01*
X57790617Y-92731895D01*
X57400009Y-92299689D01*
X57339722Y-92232982D01*
X56863549Y-91758128D01*
X56363384Y-91308614D01*
X55840574Y-90885653D01*
X55799725Y-90855975D01*
X55610762Y-90718686D01*
X55296526Y-90490382D01*
X54732706Y-90123866D01*
X54472142Y-89973116D01*
X54467788Y-89970597D01*
X54441678Y-89955489D01*
X54166416Y-89781084D01*
X54046739Y-89705257D01*
X54042643Y-89702424D01*
X53867434Y-89570540D01*
X53671100Y-89422754D01*
X53667258Y-89419612D01*
X53319407Y-89110983D01*
X53315814Y-89107527D01*
X52993902Y-88771930D01*
X52990595Y-88768193D01*
X52842174Y-88586188D01*
X52696700Y-88407796D01*
X52693724Y-88403831D01*
X52458130Y-88062127D01*
X52429762Y-88020982D01*
X52427097Y-88016763D01*
X52194761Y-87613919D01*
X52192457Y-87609527D01*
X51993258Y-87189302D01*
X51991315Y-87184738D01*
X51826544Y-86749856D01*
X51824970Y-86745136D01*
X51821663Y-86733710D01*
X51748593Y-86481208D01*
X51695700Y-86298430D01*
X51694512Y-86293608D01*
X51601569Y-85837932D01*
X51600777Y-85833055D01*
X51544769Y-85371381D01*
X51544370Y-85366428D01*
X51535957Y-85157475D01*
X51525661Y-84901763D01*
X51525661Y-84899279D01*
X55202514Y-84899279D01*
X55222674Y-85194013D01*
X55222674Y-85194017D01*
X55222675Y-85194019D01*
X55223372Y-85197371D01*
X55282781Y-85483270D01*
X55282782Y-85483273D01*
X55381712Y-85761633D01*
X55381711Y-85761633D01*
X55517630Y-86023944D01*
X55517634Y-86023950D01*
X55687994Y-86265296D01*
X55720405Y-86300000D01*
X55887558Y-86478977D01*
X55889645Y-86481211D01*
X56118802Y-86667644D01*
X56118805Y-86667646D01*
X56118809Y-86667649D01*
X56228417Y-86734303D01*
X56371229Y-86821149D01*
X56502275Y-86878070D01*
X56642198Y-86938847D01*
X56926670Y-87018553D01*
X57183979Y-87053918D01*
X57219345Y-87058780D01*
X57219346Y-87058780D01*
X57514775Y-87058780D01*
X57546328Y-87054443D01*
X57807450Y-87018553D01*
X58091922Y-86938847D01*
X58362892Y-86821148D01*
X58615311Y-86667649D01*
X58844478Y-86481208D01*
X59046123Y-86265299D01*
X59216490Y-86023943D01*
X59352406Y-85761637D01*
X59451339Y-85483268D01*
X59511445Y-85194019D01*
X59531606Y-84899280D01*
X59511445Y-84604541D01*
X59451339Y-84315292D01*
X59397607Y-84164107D01*
X59352407Y-84036926D01*
X59352408Y-84036926D01*
X59216489Y-83774615D01*
X59216485Y-83774609D01*
X59046125Y-83533263D01*
X58954273Y-83434914D01*
X58844478Y-83317352D01*
X58844476Y-83317351D01*
X58844474Y-83317348D01*
X58615317Y-83130915D01*
X58615306Y-83130908D01*
X58362890Y-82977410D01*
X58091925Y-82859714D01*
X58091923Y-82859713D01*
X58091922Y-82859713D01*
X57984748Y-82829684D01*
X57807455Y-82780008D01*
X57807451Y-82780007D01*
X57807450Y-82780007D01*
X57621951Y-82754511D01*
X57514775Y-82739780D01*
X57514774Y-82739780D01*
X57219346Y-82739780D01*
X57219345Y-82739780D01*
X56926670Y-82780007D01*
X56926664Y-82780008D01*
X56642194Y-82859714D01*
X56371229Y-82977410D01*
X56118813Y-83130908D01*
X56118802Y-83130915D01*
X55889645Y-83317348D01*
X55687994Y-83533263D01*
X55517634Y-83774609D01*
X55517630Y-83774615D01*
X55381712Y-84036926D01*
X55282782Y-84315286D01*
X55282781Y-84315289D01*
X55222674Y-84604546D01*
X55202514Y-84899279D01*
X51525661Y-84899279D01*
X51525661Y-84896784D01*
X51529240Y-84807913D01*
X51544370Y-84432131D01*
X51544769Y-84427180D01*
X51600777Y-83965500D01*
X51601568Y-83960631D01*
X51694513Y-83504945D01*
X51695700Y-83500129D01*
X51716378Y-83428674D01*
X51824973Y-83053411D01*
X51826541Y-83048710D01*
X51991318Y-82613812D01*
X51993254Y-82609265D01*
X52139856Y-82299999D01*
X67739184Y-82299999D01*
X67757995Y-82478975D01*
X67757996Y-82478977D01*
X67813523Y-82649875D01*
X67813605Y-82650125D01*
X67903585Y-82805975D01*
X68024002Y-82939711D01*
X68169592Y-83045489D01*
X68333993Y-83118685D01*
X68333996Y-83118685D01*
X68333997Y-83118686D01*
X68362128Y-83124665D01*
X68510020Y-83156100D01*
X68689980Y-83156100D01*
X68866007Y-83118685D01*
X69030408Y-83045489D01*
X69175998Y-82939711D01*
X69296415Y-82805975D01*
X69386395Y-82650125D01*
X69442005Y-82478974D01*
X69460816Y-82300000D01*
X69442005Y-82121026D01*
X69386395Y-81949875D01*
X69296415Y-81794025D01*
X69175998Y-81660289D01*
X69050067Y-81568794D01*
X69030411Y-81554513D01*
X69030410Y-81554512D01*
X69030408Y-81554511D01*
X68866007Y-81481315D01*
X68866006Y-81481314D01*
X68866002Y-81481313D01*
X68689980Y-81443900D01*
X68510020Y-81443900D01*
X68333997Y-81481313D01*
X68333992Y-81481315D01*
X68333993Y-81481315D01*
X68209078Y-81536931D01*
X68169588Y-81554513D01*
X68024000Y-81660290D01*
X67903584Y-81794026D01*
X67813604Y-81949876D01*
X67757996Y-82121022D01*
X67757995Y-82121024D01*
X67739184Y-82299999D01*
X52139856Y-82299999D01*
X52192462Y-82189022D01*
X52194761Y-82184640D01*
X52196723Y-82181239D01*
X52320105Y-81967308D01*
X52427097Y-81781796D01*
X52429762Y-81777577D01*
X52693732Y-81394716D01*
X52696690Y-81390775D01*
X52990598Y-81030362D01*
X52993902Y-81026629D01*
X53274308Y-80734303D01*
X53315817Y-80691029D01*
X53319394Y-80687588D01*
X53667272Y-80378934D01*
X53671084Y-80375816D01*
X54042658Y-80096124D01*
X54046739Y-80093302D01*
X54441566Y-79843140D01*
X54441669Y-79843081D01*
X54441670Y-79843082D01*
X54699480Y-79693924D01*
X54732712Y-79674699D01*
X55023781Y-79485486D01*
X55296529Y-79308183D01*
X55676765Y-79031927D01*
X55840565Y-78912920D01*
X55840570Y-78912916D01*
X55840577Y-78912911D01*
X56363387Y-78489949D01*
X56686007Y-78200000D01*
X67489184Y-78200000D01*
X67507995Y-78378975D01*
X67507996Y-78378977D01*
X67548944Y-78505005D01*
X67563605Y-78550125D01*
X67653585Y-78705975D01*
X67774002Y-78839711D01*
X67919592Y-78945489D01*
X68083993Y-79018685D01*
X68083996Y-79018685D01*
X68083997Y-79018686D01*
X68112128Y-79024665D01*
X68260020Y-79056100D01*
X68439980Y-79056100D01*
X68616007Y-79018685D01*
X68780408Y-78945489D01*
X68925998Y-78839711D01*
X69046415Y-78705975D01*
X69136395Y-78550125D01*
X69192005Y-78378974D01*
X69210816Y-78200000D01*
X69192005Y-78021026D01*
X69136395Y-77849875D01*
X69046415Y-77694025D01*
X68925998Y-77560289D01*
X68780408Y-77454511D01*
X68616007Y-77381315D01*
X68616006Y-77381314D01*
X68616002Y-77381313D01*
X68439980Y-77343900D01*
X68260020Y-77343900D01*
X68083997Y-77381313D01*
X68083992Y-77381315D01*
X68083993Y-77381315D01*
X67939863Y-77445486D01*
X67919588Y-77454513D01*
X67774000Y-77560290D01*
X67653584Y-77694026D01*
X67563604Y-77849876D01*
X67507996Y-78021022D01*
X67507995Y-78021024D01*
X67489184Y-78200000D01*
X56686007Y-78200000D01*
X56801822Y-78095913D01*
X56863548Y-78040438D01*
X56863547Y-78040439D01*
X56983003Y-77921313D01*
X57339723Y-77565580D01*
X57790621Y-77066662D01*
X57865337Y-76974830D01*
X58215034Y-76545020D01*
X58215034Y-76545019D01*
X58248657Y-76499010D01*
X58611806Y-76002075D01*
X58611808Y-76002073D01*
X58979884Y-75439272D01*
X59182275Y-75091687D01*
X59318268Y-74858134D01*
X59626051Y-74260223D01*
X59902402Y-73647151D01*
X60146578Y-73020569D01*
X60153355Y-73000100D01*
X60357922Y-72382157D01*
X60535861Y-71733651D01*
X60602676Y-71428973D01*
X60607860Y-71405331D01*
X60619203Y-71355791D01*
X60866026Y-70277739D01*
X61144825Y-69155188D01*
X61444189Y-68037946D01*
X61512653Y-67800000D01*
X83239184Y-67800000D01*
X83257995Y-67978974D01*
X83313605Y-68150125D01*
X83403585Y-68305975D01*
X83443794Y-68350631D01*
X83515687Y-68430477D01*
X83524002Y-68439711D01*
X83669592Y-68545489D01*
X83833993Y-68618685D01*
X83833996Y-68618685D01*
X83833997Y-68618686D01*
X83862128Y-68624665D01*
X84010020Y-68656100D01*
X84189980Y-68656100D01*
X84366007Y-68618685D01*
X84530408Y-68545489D01*
X84675998Y-68439711D01*
X84796415Y-68305975D01*
X84886395Y-68150125D01*
X84942005Y-67978974D01*
X84960816Y-67800000D01*
X84942005Y-67621026D01*
X84886395Y-67449875D01*
X84796415Y-67294025D01*
X84675998Y-67160289D01*
X84530408Y-67054511D01*
X84366007Y-66981315D01*
X84366006Y-66981314D01*
X84366002Y-66981313D01*
X84189980Y-66943900D01*
X84010020Y-66943900D01*
X83833997Y-66981313D01*
X83833992Y-66981315D01*
X83833993Y-66981315D01*
X83681169Y-67049357D01*
X83669588Y-67054513D01*
X83524000Y-67160290D01*
X83403584Y-67294026D01*
X83313604Y-67449876D01*
X83257996Y-67621022D01*
X83257995Y-67621024D01*
X83257994Y-67621026D01*
X83257995Y-67621026D01*
X83239184Y-67800000D01*
X61512653Y-67800000D01*
X61764018Y-66926389D01*
X62104202Y-65820893D01*
X62104201Y-65820892D01*
X62104251Y-65820732D01*
X62117792Y-65778125D01*
X62206043Y-65500447D01*
X62376197Y-64849852D01*
X62465598Y-64417506D01*
X62512374Y-64191298D01*
X62614199Y-63526591D01*
X62623143Y-63437544D01*
X62654248Y-63127870D01*
X145481500Y-63127870D01*
X145481501Y-63127876D01*
X145487908Y-63187483D01*
X145538202Y-63322328D01*
X145538206Y-63322335D01*
X145624452Y-63437544D01*
X145624455Y-63437547D01*
X145739664Y-63523793D01*
X145739671Y-63523797D01*
X145874517Y-63574091D01*
X145874516Y-63574091D01*
X145881444Y-63574835D01*
X145934127Y-63580500D01*
X148369872Y-63580499D01*
X148429483Y-63574091D01*
X148564331Y-63523796D01*
X148679546Y-63437546D01*
X148765796Y-63322331D01*
X148816091Y-63187483D01*
X148822500Y-63127873D01*
X148822499Y-61702128D01*
X148816091Y-61642517D01*
X148793640Y-61582324D01*
X148765797Y-61507671D01*
X148765793Y-61507664D01*
X148679547Y-61392455D01*
X148679544Y-61392452D01*
X148564335Y-61306206D01*
X148564328Y-61306202D01*
X148429482Y-61255908D01*
X148429483Y-61255908D01*
X148369883Y-61249501D01*
X148369881Y-61249500D01*
X148369873Y-61249500D01*
X148369864Y-61249500D01*
X145934129Y-61249500D01*
X145934123Y-61249501D01*
X145874516Y-61255908D01*
X145739671Y-61306202D01*
X145739664Y-61306206D01*
X145624455Y-61392452D01*
X145624452Y-61392455D01*
X145538206Y-61507664D01*
X145538202Y-61507671D01*
X145487908Y-61642517D01*
X145481501Y-61702116D01*
X145481501Y-61702123D01*
X145481500Y-61702135D01*
X145481500Y-63127870D01*
X62654248Y-63127870D01*
X62681409Y-62857470D01*
X62713816Y-62185773D01*
X62711335Y-61513299D01*
X62711021Y-61507664D01*
X62673973Y-60841858D01*
X62673973Y-60841859D01*
X62601829Y-60173258D01*
X62495098Y-59509308D01*
X62495098Y-59509307D01*
X62443771Y-59270005D01*
X150606457Y-59270005D01*
X150626606Y-59590283D01*
X150626607Y-59590290D01*
X150626608Y-59590294D01*
X150683267Y-59887313D01*
X150686745Y-59905542D01*
X150785916Y-60210759D01*
X150785918Y-60210764D01*
X150922558Y-60501138D01*
X150922562Y-60501144D01*
X151094520Y-60772108D01*
X151094522Y-60772111D01*
X151299087Y-61019388D01*
X151533034Y-61239078D01*
X151533044Y-61239086D01*
X151792660Y-61427708D01*
X151792666Y-61427711D01*
X151792672Y-61427716D01*
X152073903Y-61582324D01*
X152372294Y-61700466D01*
X152372293Y-61700466D01*
X152683135Y-61780276D01*
X152683139Y-61780277D01*
X152749935Y-61788715D01*
X153001524Y-61820499D01*
X153001533Y-61820499D01*
X153001536Y-61820500D01*
X153001538Y-61820500D01*
X153322462Y-61820500D01*
X153322464Y-61820500D01*
X153322467Y-61820499D01*
X153322475Y-61820499D01*
X153512463Y-61796497D01*
X153640861Y-61780277D01*
X153951706Y-61700466D01*
X154250097Y-61582324D01*
X154531328Y-61427716D01*
X154790964Y-61239080D01*
X155024911Y-61019390D01*
X155229478Y-60772110D01*
X155271433Y-60705999D01*
X158397184Y-60705999D01*
X158411463Y-60841860D01*
X158415995Y-60884974D01*
X158471605Y-61056125D01*
X158561585Y-61211975D01*
X158682002Y-61345711D01*
X158827592Y-61451489D01*
X158991993Y-61524685D01*
X158991996Y-61524685D01*
X158991997Y-61524686D01*
X159020128Y-61530665D01*
X159168020Y-61562100D01*
X159347980Y-61562100D01*
X159524007Y-61524685D01*
X159688408Y-61451489D01*
X159833998Y-61345711D01*
X159954415Y-61211975D01*
X160044395Y-61056125D01*
X160100005Y-60884974D01*
X160118816Y-60706000D01*
X160100005Y-60527026D01*
X160044395Y-60355875D01*
X159954415Y-60200025D01*
X159833998Y-60066289D01*
X159688408Y-59960511D01*
X159524007Y-59887315D01*
X159524006Y-59887314D01*
X159524002Y-59887313D01*
X159347980Y-59849900D01*
X159168020Y-59849900D01*
X158991997Y-59887313D01*
X158827588Y-59960513D01*
X158682000Y-60066290D01*
X158561584Y-60200026D01*
X158471604Y-60355876D01*
X158415996Y-60527022D01*
X158415995Y-60527024D01*
X158397184Y-60705999D01*
X155271433Y-60705999D01*
X155401439Y-60501142D01*
X155538084Y-60210758D01*
X155637256Y-59905538D01*
X155697392Y-59590294D01*
X155702487Y-59509308D01*
X155717543Y-59270005D01*
X155717543Y-59269994D01*
X155697393Y-58949716D01*
X155697392Y-58949709D01*
X155697392Y-58949706D01*
X155637256Y-58634462D01*
X155538084Y-58329242D01*
X155478426Y-58202462D01*
X155401441Y-58038861D01*
X155401437Y-58038855D01*
X155229479Y-57767891D01*
X155229477Y-57767888D01*
X155024912Y-57520611D01*
X154790965Y-57300921D01*
X154790955Y-57300913D01*
X154531339Y-57112291D01*
X154531321Y-57112280D01*
X154250096Y-56957675D01*
X154250093Y-56957674D01*
X153951703Y-56839533D01*
X153951706Y-56839533D01*
X153640864Y-56759723D01*
X153640851Y-56759721D01*
X153322475Y-56719500D01*
X153322464Y-56719500D01*
X153001536Y-56719500D01*
X153001524Y-56719500D01*
X152683148Y-56759721D01*
X152683135Y-56759723D01*
X152372294Y-56839533D01*
X152073906Y-56957674D01*
X152073903Y-56957675D01*
X151792678Y-57112280D01*
X151792660Y-57112291D01*
X151533044Y-57300913D01*
X151533034Y-57300921D01*
X151299087Y-57520611D01*
X151094522Y-57767888D01*
X151094520Y-57767891D01*
X150922562Y-58038855D01*
X150922558Y-58038861D01*
X150785918Y-58329235D01*
X150785916Y-58329240D01*
X150686745Y-58634457D01*
X150626607Y-58949709D01*
X150626606Y-58949716D01*
X150606457Y-59269994D01*
X150606457Y-59270005D01*
X62443771Y-59270005D01*
X62354066Y-58851778D01*
X62179120Y-58202473D01*
X62179119Y-58202472D01*
X62179117Y-58202462D01*
X61970719Y-57563089D01*
X61970717Y-57563082D01*
X61826182Y-57187081D01*
X61729433Y-56935389D01*
X61455914Y-56321061D01*
X61455909Y-56321050D01*
X61363822Y-56140115D01*
X61150893Y-55721741D01*
X61150892Y-55721741D01*
X61150885Y-55721728D01*
X60996189Y-55453229D01*
X60983036Y-55430399D01*
X60983029Y-55430384D01*
X60766123Y-55016217D01*
X60764001Y-55011737D01*
X60582068Y-54583763D01*
X60580303Y-54579096D01*
X60433370Y-54137891D01*
X60431985Y-54133096D01*
X60321002Y-53681513D01*
X60320007Y-53676623D01*
X60309875Y-53614042D01*
X60245684Y-53217563D01*
X60245091Y-53212658D01*
X60207915Y-52749080D01*
X60207718Y-52744114D01*
X60207718Y-52744105D01*
X60207823Y-52514280D01*
X63880049Y-52514280D01*
X63900209Y-52809013D01*
X63960316Y-53098270D01*
X63960317Y-53098273D01*
X64059247Y-53376633D01*
X64059246Y-53376633D01*
X64195165Y-53638944D01*
X64195169Y-53638950D01*
X64365529Y-53880296D01*
X64567180Y-54096211D01*
X64796337Y-54282644D01*
X64796340Y-54282646D01*
X64796344Y-54282649D01*
X64928765Y-54363176D01*
X65048764Y-54436149D01*
X65233827Y-54516533D01*
X65319733Y-54553847D01*
X65604205Y-54633553D01*
X65861514Y-54668918D01*
X65896880Y-54673780D01*
X65896881Y-54673780D01*
X66192310Y-54673780D01*
X66223863Y-54669443D01*
X66484985Y-54633553D01*
X66769457Y-54553847D01*
X67040427Y-54436148D01*
X67292846Y-54282649D01*
X67522013Y-54096208D01*
X67723658Y-53880299D01*
X67894025Y-53638943D01*
X68029941Y-53376637D01*
X68128874Y-53098268D01*
X68188980Y-52809019D01*
X68209141Y-52514280D01*
X68188980Y-52219541D01*
X68128874Y-51930292D01*
X68029942Y-51651926D01*
X68029943Y-51651926D01*
X67894024Y-51389615D01*
X67894020Y-51389609D01*
X67723660Y-51148263D01*
X67656443Y-51076291D01*
X67561568Y-50974705D01*
X150611500Y-50974705D01*
X150611501Y-53165293D01*
X150621718Y-53310027D01*
X150621718Y-53310031D01*
X150621719Y-53310034D01*
X150621720Y-53310038D01*
X150675834Y-53550314D01*
X150675835Y-53550319D01*
X150728642Y-53681526D01*
X150767795Y-53778809D01*
X150895216Y-53989589D01*
X150895219Y-53989592D01*
X151054798Y-54177201D01*
X151164990Y-54270930D01*
X151242411Y-54336784D01*
X151453191Y-54464205D01*
X151681683Y-54556165D01*
X151921966Y-54610281D01*
X152066705Y-54620500D01*
X154257294Y-54620499D01*
X154402034Y-54610281D01*
X154642317Y-54556165D01*
X154870809Y-54464205D01*
X155081589Y-54336784D01*
X155269201Y-54177201D01*
X155428784Y-53989589D01*
X155556205Y-53778809D01*
X155648165Y-53550317D01*
X155702281Y-53310034D01*
X155712500Y-53165295D01*
X155712500Y-52514280D01*
X176064979Y-52514280D01*
X176085139Y-52809013D01*
X176145246Y-53098270D01*
X176145247Y-53098273D01*
X176244177Y-53376633D01*
X176244176Y-53376633D01*
X176380095Y-53638944D01*
X176380099Y-53638950D01*
X176550459Y-53880296D01*
X176752110Y-54096211D01*
X176981267Y-54282644D01*
X176981270Y-54282646D01*
X176981274Y-54282649D01*
X177113695Y-54363176D01*
X177233694Y-54436149D01*
X177418757Y-54516533D01*
X177504663Y-54553847D01*
X177789135Y-54633553D01*
X178046444Y-54668918D01*
X178081810Y-54673780D01*
X178081811Y-54673780D01*
X178377240Y-54673780D01*
X178408793Y-54669443D01*
X178669915Y-54633553D01*
X178954387Y-54553847D01*
X179225357Y-54436148D01*
X179477776Y-54282649D01*
X179706943Y-54096208D01*
X179908588Y-53880299D01*
X180078955Y-53638943D01*
X180214871Y-53376637D01*
X180313804Y-53098268D01*
X180373910Y-52809019D01*
X180394071Y-52514280D01*
X180373910Y-52219541D01*
X180313804Y-51930292D01*
X180214872Y-51651926D01*
X180214873Y-51651926D01*
X180078954Y-51389615D01*
X180078950Y-51389609D01*
X179908590Y-51148263D01*
X179841373Y-51076291D01*
X179706943Y-50932352D01*
X179706941Y-50932351D01*
X179706939Y-50932348D01*
X179477782Y-50745915D01*
X179477771Y-50745908D01*
X179225355Y-50592410D01*
X178954390Y-50474714D01*
X178954388Y-50474713D01*
X178954387Y-50474713D01*
X178829586Y-50439745D01*
X178669920Y-50395008D01*
X178669916Y-50395007D01*
X178669915Y-50395007D01*
X178523576Y-50374893D01*
X178377240Y-50354780D01*
X178377239Y-50354780D01*
X178081811Y-50354780D01*
X178081810Y-50354780D01*
X177789135Y-50395007D01*
X177789129Y-50395008D01*
X177504659Y-50474714D01*
X177233694Y-50592410D01*
X176981278Y-50745908D01*
X176981267Y-50745915D01*
X176752110Y-50932348D01*
X176550459Y-51148263D01*
X176380099Y-51389609D01*
X176380095Y-51389615D01*
X176244177Y-51651926D01*
X176145247Y-51930286D01*
X176145246Y-51930289D01*
X176085139Y-52219546D01*
X176064979Y-52514280D01*
X155712500Y-52514280D01*
X155712499Y-50974706D01*
X155702281Y-50829966D01*
X155648165Y-50589683D01*
X155556205Y-50361191D01*
X155428784Y-50150411D01*
X155338095Y-50043793D01*
X155269201Y-49962798D01*
X155127574Y-49842331D01*
X155081589Y-49803216D01*
X154870809Y-49675795D01*
X154870809Y-49675794D01*
X154642318Y-49583835D01*
X154402036Y-49529719D01*
X154402029Y-49529718D01*
X154257295Y-49519500D01*
X152066706Y-49519501D01*
X152050915Y-49520615D01*
X151921972Y-49529718D01*
X151921966Y-49529718D01*
X151921966Y-49529719D01*
X151921963Y-49529719D01*
X151921961Y-49529720D01*
X151681685Y-49583834D01*
X151681680Y-49583835D01*
X151453190Y-49675795D01*
X151453185Y-49675798D01*
X151242417Y-49803212D01*
X151242407Y-49803219D01*
X151054798Y-49962798D01*
X150895219Y-50150407D01*
X150895212Y-50150417D01*
X150767798Y-50361185D01*
X150767795Y-50361190D01*
X150675835Y-50589680D01*
X150675835Y-50589682D01*
X150621719Y-50829963D01*
X150621718Y-50829970D01*
X150611500Y-50974705D01*
X67561568Y-50974705D01*
X67522013Y-50932352D01*
X67522011Y-50932351D01*
X67522009Y-50932348D01*
X67292852Y-50745915D01*
X67292841Y-50745908D01*
X67040425Y-50592410D01*
X66769460Y-50474714D01*
X66769458Y-50474713D01*
X66769457Y-50474713D01*
X66644656Y-50439745D01*
X66484990Y-50395008D01*
X66484986Y-50395007D01*
X66484985Y-50395007D01*
X66338647Y-50374893D01*
X66192310Y-50354780D01*
X66192309Y-50354780D01*
X65896881Y-50354780D01*
X65896880Y-50354780D01*
X65604205Y-50395007D01*
X65604199Y-50395008D01*
X65319729Y-50474714D01*
X65048764Y-50592410D01*
X64796348Y-50745908D01*
X64796337Y-50745915D01*
X64567180Y-50932348D01*
X64365529Y-51148263D01*
X64195169Y-51389609D01*
X64195165Y-51389615D01*
X64059247Y-51651926D01*
X63960317Y-51930286D01*
X63960316Y-51930289D01*
X63900209Y-52219546D01*
X63880049Y-52514280D01*
X60207823Y-52514280D01*
X60207931Y-52279069D01*
X60208133Y-52274128D01*
X60245735Y-51810588D01*
X60246336Y-51805654D01*
X60252961Y-51764969D01*
X60321080Y-51346654D01*
X60322072Y-51341802D01*
X60433483Y-50890277D01*
X60434861Y-50885527D01*
X60582202Y-50444445D01*
X60583965Y-50439795D01*
X60766289Y-50011991D01*
X60768422Y-50007500D01*
X60957186Y-49647870D01*
X145431500Y-49647870D01*
X145431501Y-49647876D01*
X145437908Y-49707483D01*
X145488202Y-49842328D01*
X145488206Y-49842335D01*
X145574452Y-49957544D01*
X145574455Y-49957547D01*
X145689664Y-50043793D01*
X145689671Y-50043797D01*
X145824517Y-50094091D01*
X145824516Y-50094091D01*
X145831444Y-50094835D01*
X145884127Y-50100500D01*
X148429872Y-50100499D01*
X148489483Y-50094091D01*
X148624331Y-50043796D01*
X148739546Y-49957546D01*
X148825796Y-49842331D01*
X148876091Y-49707483D01*
X148882500Y-49647873D01*
X148882499Y-48172128D01*
X148876091Y-48112517D01*
X148825796Y-47977669D01*
X148825795Y-47977668D01*
X148825793Y-47977664D01*
X148739547Y-47862455D01*
X148739544Y-47862452D01*
X148624335Y-47776206D01*
X148624328Y-47776202D01*
X148489482Y-47725908D01*
X148489483Y-47725908D01*
X148429883Y-47719501D01*
X148429881Y-47719500D01*
X148429873Y-47719500D01*
X148429864Y-47719500D01*
X145884129Y-47719500D01*
X145884123Y-47719501D01*
X145824516Y-47725908D01*
X145689671Y-47776202D01*
X145689664Y-47776206D01*
X145574455Y-47862452D01*
X145574452Y-47862455D01*
X145488206Y-47977664D01*
X145488202Y-47977671D01*
X145437908Y-48112517D01*
X145433459Y-48153907D01*
X145431501Y-48172123D01*
X145431500Y-48172135D01*
X145431500Y-49647870D01*
X60957186Y-49647870D01*
X60984550Y-49595736D01*
X60987046Y-49591414D01*
X60987077Y-49591366D01*
X61235563Y-49198386D01*
X61238397Y-49194279D01*
X61517719Y-48822486D01*
X61520864Y-48818631D01*
X61829187Y-48470484D01*
X61832619Y-48466910D01*
X62167951Y-48144659D01*
X62171649Y-48141381D01*
X62531777Y-47847155D01*
X62535760Y-47844161D01*
X62706935Y-47725909D01*
X62918378Y-47579838D01*
X62922573Y-47577184D01*
X63325207Y-47344476D01*
X63329592Y-47342172D01*
X63749634Y-47142587D01*
X63754217Y-47140633D01*
X63936852Y-47071242D01*
X64188947Y-46975462D01*
X64193640Y-46973893D01*
X64640242Y-46844208D01*
X64645049Y-46843019D01*
X65100636Y-46749659D01*
X65105552Y-46748857D01*
X65136153Y-46745116D01*
X65567155Y-46692427D01*
X65572111Y-46692024D01*
X65710839Y-46686311D01*
X66039333Y-46672783D01*
X66090117Y-46672783D01*
X66090531Y-46672736D01*
X66098506Y-46672729D01*
X66098517Y-46672726D01*
X66375471Y-46672477D01*
X66853983Y-46647179D01*
X67047015Y-46636975D01*
X67715793Y-46566686D01*
X67715794Y-46566686D01*
X68379964Y-46461808D01*
X68380053Y-46461794D01*
X68380053Y-46461793D01*
X68380059Y-46461793D01*
X68616287Y-46411809D01*
X69037965Y-46322587D01*
X69687770Y-46149437D01*
X70327717Y-45942811D01*
X70956024Y-45703288D01*
X70956082Y-45703266D01*
X71571122Y-45431470D01*
X71571179Y-45431445D01*
X71571183Y-45431442D01*
X71571192Y-45431439D01*
X72171352Y-45128079D01*
X72754956Y-44794000D01*
X73320467Y-44430081D01*
X73662469Y-44184003D01*
X73866330Y-44037321D01*
X73866333Y-44037318D01*
X73866333Y-44037319D01*
X74136808Y-43820554D01*
X74391083Y-43616773D01*
X74391092Y-43616765D01*
X74893311Y-43169573D01*
X74893311Y-43169572D01*
X75371668Y-42696914D01*
X75598213Y-42448546D01*
X75598261Y-42448493D01*
X75598262Y-42448494D01*
X76385559Y-41601138D01*
X77188282Y-40768380D01*
X78006160Y-39950502D01*
X78838917Y-39147779D01*
X79686114Y-38360628D01*
X79686274Y-38360483D01*
X79934694Y-38133890D01*
X80282391Y-37782001D01*
X103794467Y-37782001D01*
X103814588Y-38255680D01*
X103853372Y-38558548D01*
X103874810Y-38725960D01*
X103972412Y-39178836D01*
X103974698Y-39189439D01*
X104113526Y-39642762D01*
X104113526Y-39642761D01*
X104290302Y-40082687D01*
X104290303Y-40082688D01*
X104503751Y-40506036D01*
X104752332Y-40909758D01*
X105034256Y-41290944D01*
X105034258Y-41290946D01*
X105034257Y-41290946D01*
X105347490Y-41646847D01*
X105689785Y-41974910D01*
X105914891Y-42156670D01*
X106058657Y-42272753D01*
X106451464Y-42538244D01*
X106451465Y-42538244D01*
X106451465Y-42538245D01*
X106865370Y-42769466D01*
X107297394Y-42964754D01*
X107297395Y-42964754D01*
X107744433Y-43122703D01*
X107744433Y-43122702D01*
X108203244Y-43242167D01*
X108670538Y-43322293D01*
X108847689Y-43337370D01*
X109142938Y-43362500D01*
X109142943Y-43362500D01*
X109617062Y-43362500D01*
X109912310Y-43337370D01*
X110089462Y-43322293D01*
X110556756Y-43242167D01*
X111015567Y-43122702D01*
X111015567Y-43122703D01*
X111462605Y-42964754D01*
X111462606Y-42964754D01*
X111894630Y-42769466D01*
X112308535Y-42538245D01*
X112308535Y-42538244D01*
X112308536Y-42538244D01*
X112701343Y-42272753D01*
X112845108Y-42156670D01*
X113070215Y-41974910D01*
X113412510Y-41646847D01*
X113725743Y-41290946D01*
X113725742Y-41290946D01*
X113725744Y-41290944D01*
X114007668Y-40909758D01*
X114256249Y-40506036D01*
X114469697Y-40082688D01*
X114469698Y-40082687D01*
X114646474Y-39642761D01*
X114646474Y-39642762D01*
X114785302Y-39189439D01*
X114787588Y-39178836D01*
X114885190Y-38725960D01*
X114906627Y-38558548D01*
X114945412Y-38255680D01*
X114965533Y-37782001D01*
X133764467Y-37782001D01*
X133784588Y-38255680D01*
X133823372Y-38558548D01*
X133844810Y-38725960D01*
X133942412Y-39178836D01*
X133944698Y-39189439D01*
X134083526Y-39642762D01*
X134083526Y-39642761D01*
X134260302Y-40082687D01*
X134260303Y-40082688D01*
X134473751Y-40506036D01*
X134722332Y-40909758D01*
X135004256Y-41290944D01*
X135004258Y-41290946D01*
X135004257Y-41290946D01*
X135317490Y-41646847D01*
X135659785Y-41974910D01*
X135884891Y-42156670D01*
X136028657Y-42272753D01*
X136421464Y-42538244D01*
X136421465Y-42538244D01*
X136421465Y-42538245D01*
X136835370Y-42769466D01*
X137267394Y-42964754D01*
X137267395Y-42964754D01*
X137714433Y-43122703D01*
X137714433Y-43122702D01*
X138173244Y-43242167D01*
X138640538Y-43322293D01*
X138817689Y-43337370D01*
X139112938Y-43362500D01*
X139112943Y-43362500D01*
X139587062Y-43362500D01*
X139882310Y-43337370D01*
X140059462Y-43322293D01*
X140526756Y-43242167D01*
X140985567Y-43122702D01*
X140985567Y-43122703D01*
X141432605Y-42964754D01*
X141432606Y-42964754D01*
X141864630Y-42769466D01*
X142278535Y-42538245D01*
X142278535Y-42538244D01*
X142278536Y-42538244D01*
X142671343Y-42272753D01*
X142815108Y-42156670D01*
X143040215Y-41974910D01*
X143382510Y-41646847D01*
X143695743Y-41290946D01*
X143695742Y-41290946D01*
X143695744Y-41290944D01*
X143977668Y-40909758D01*
X144226249Y-40506036D01*
X144439697Y-40082688D01*
X144439698Y-40082687D01*
X144616474Y-39642761D01*
X144616474Y-39642762D01*
X144755302Y-39189439D01*
X144757588Y-39178836D01*
X144855190Y-38725960D01*
X144876627Y-38558548D01*
X144915412Y-38255680D01*
X144935533Y-37782001D01*
X144935533Y-37781999D01*
X144915412Y-37308320D01*
X144855190Y-36838041D01*
X144810042Y-36628554D01*
X144755304Y-36374568D01*
X144755302Y-36374561D01*
X144616474Y-35921238D01*
X144616474Y-35921239D01*
X144439698Y-35481313D01*
X144226252Y-35057969D01*
X143977667Y-34654240D01*
X143740360Y-34333381D01*
X143695744Y-34273056D01*
X143695742Y-34273054D01*
X143695743Y-34273054D01*
X143382510Y-33917153D01*
X143040215Y-33589090D01*
X142815108Y-33407329D01*
X142671343Y-33291247D01*
X142278536Y-33025756D01*
X142278535Y-33025755D01*
X141864630Y-32794534D01*
X141432606Y-32599246D01*
X141432605Y-32599246D01*
X140985567Y-32441297D01*
X140985567Y-32441298D01*
X140526756Y-32321833D01*
X140059462Y-32241707D01*
X139882310Y-32226629D01*
X139587062Y-32201500D01*
X139587057Y-32201500D01*
X139112943Y-32201500D01*
X139112938Y-32201500D01*
X138817689Y-32226629D01*
X138640538Y-32241707D01*
X138173244Y-32321833D01*
X137714433Y-32441298D01*
X137714433Y-32441297D01*
X137267395Y-32599246D01*
X137267394Y-32599246D01*
X136835370Y-32794534D01*
X136421465Y-33025755D01*
X136421464Y-33025756D01*
X136028657Y-33291247D01*
X135884891Y-33407329D01*
X135659785Y-33589090D01*
X135317490Y-33917153D01*
X135004257Y-34273054D01*
X135004258Y-34273054D01*
X135004256Y-34273056D01*
X134959640Y-34333381D01*
X134722333Y-34654240D01*
X134473748Y-35057969D01*
X134260302Y-35481313D01*
X134083526Y-35921239D01*
X134083526Y-35921238D01*
X133944698Y-36374561D01*
X133944696Y-36374568D01*
X133889958Y-36628554D01*
X133844810Y-36838041D01*
X133784588Y-37308320D01*
X133764467Y-37781999D01*
X133764467Y-37782001D01*
X114965533Y-37782001D01*
X114965533Y-37781999D01*
X114945412Y-37308320D01*
X114885190Y-36838041D01*
X114840042Y-36628554D01*
X114785304Y-36374568D01*
X114785302Y-36374561D01*
X114646474Y-35921238D01*
X114646474Y-35921239D01*
X114469698Y-35481313D01*
X114256252Y-35057969D01*
X114007667Y-34654240D01*
X113770360Y-34333381D01*
X113725744Y-34273056D01*
X113725742Y-34273054D01*
X113725743Y-34273054D01*
X113412510Y-33917153D01*
X113070215Y-33589090D01*
X112845108Y-33407329D01*
X112701343Y-33291247D01*
X112308536Y-33025756D01*
X112308535Y-33025755D01*
X111894630Y-32794534D01*
X111462606Y-32599246D01*
X111462605Y-32599246D01*
X111015567Y-32441297D01*
X111015567Y-32441298D01*
X110556756Y-32321833D01*
X110089462Y-32241707D01*
X109912310Y-32226629D01*
X109617062Y-32201500D01*
X109617057Y-32201500D01*
X109142943Y-32201500D01*
X109142938Y-32201500D01*
X108847689Y-32226629D01*
X108670538Y-32241707D01*
X108203244Y-32321833D01*
X107744433Y-32441298D01*
X107744433Y-32441297D01*
X107297395Y-32599246D01*
X107297394Y-32599246D01*
X106865370Y-32794534D01*
X106451465Y-33025755D01*
X106451464Y-33025756D01*
X106058657Y-33291247D01*
X105914891Y-33407329D01*
X105689785Y-33589090D01*
X105347490Y-33917153D01*
X105034257Y-34273054D01*
X105034258Y-34273054D01*
X105034256Y-34273056D01*
X104989640Y-34333381D01*
X104752333Y-34654240D01*
X104503748Y-35057969D01*
X104290302Y-35481313D01*
X104113526Y-35921239D01*
X104113526Y-35921238D01*
X103974698Y-36374561D01*
X103974696Y-36374568D01*
X103919958Y-36628554D01*
X103874810Y-36838041D01*
X103814588Y-37308320D01*
X103794467Y-37781999D01*
X103794467Y-37782001D01*
X80282391Y-37782001D01*
X80407350Y-37655535D01*
X80407353Y-37655532D01*
X80407354Y-37655532D01*
X80854546Y-37153313D01*
X80854545Y-37153314D01*
X80854554Y-37153304D01*
X81275102Y-36628551D01*
X81486818Y-36334304D01*
X81667862Y-36082689D01*
X81963662Y-35623030D01*
X82031777Y-35517185D01*
X82052312Y-35481313D01*
X82365861Y-34933573D01*
X82669221Y-34333412D01*
X82669235Y-34333382D01*
X82941047Y-33718305D01*
X82990305Y-33589095D01*
X83180593Y-33089938D01*
X83387219Y-32449991D01*
X83442719Y-32241707D01*
X83560368Y-31800186D01*
X83699576Y-31142274D01*
X83804466Y-30478026D01*
X83804468Y-30478014D01*
X83804468Y-30478013D01*
X83874757Y-29809235D01*
X83910259Y-29137699D01*
X83910259Y-29137700D01*
X83910558Y-28806814D01*
X87587514Y-28806814D01*
X87607674Y-29101548D01*
X87667781Y-29390805D01*
X87667782Y-29390808D01*
X87766712Y-29669168D01*
X87766711Y-29669168D01*
X87902630Y-29931479D01*
X87902634Y-29931485D01*
X88072994Y-30172831D01*
X88274645Y-30388746D01*
X88503802Y-30575179D01*
X88503805Y-30575181D01*
X88503809Y-30575184D01*
X88636230Y-30655711D01*
X88756229Y-30728684D01*
X88941292Y-30809068D01*
X89027198Y-30846382D01*
X89311670Y-30926088D01*
X89568979Y-30961453D01*
X89604345Y-30966315D01*
X89604346Y-30966315D01*
X89899775Y-30966315D01*
X89931328Y-30961978D01*
X90192450Y-30926088D01*
X90476922Y-30846382D01*
X90747892Y-30728683D01*
X91000311Y-30575184D01*
X91229478Y-30388743D01*
X91431123Y-30172834D01*
X91601490Y-29931478D01*
X91737406Y-29669172D01*
X91836339Y-29390803D01*
X91896445Y-29101554D01*
X91916606Y-28806815D01*
X152357514Y-28806815D01*
X152377674Y-29101548D01*
X152437781Y-29390805D01*
X152437782Y-29390808D01*
X152536712Y-29669168D01*
X152536711Y-29669168D01*
X152672630Y-29931479D01*
X152672634Y-29931485D01*
X152842994Y-30172831D01*
X153044645Y-30388746D01*
X153273802Y-30575179D01*
X153273805Y-30575181D01*
X153273809Y-30575184D01*
X153406230Y-30655711D01*
X153526229Y-30728684D01*
X153711292Y-30809068D01*
X153797198Y-30846382D01*
X154081670Y-30926088D01*
X154338979Y-30961453D01*
X154374345Y-30966315D01*
X154374346Y-30966315D01*
X154669775Y-30966315D01*
X154701328Y-30961978D01*
X154962450Y-30926088D01*
X155246922Y-30846382D01*
X155517892Y-30728683D01*
X155770311Y-30575184D01*
X155999478Y-30388743D01*
X156201123Y-30172834D01*
X156371490Y-29931478D01*
X156507406Y-29669172D01*
X156606339Y-29390803D01*
X156666445Y-29101554D01*
X156686606Y-28806815D01*
X156666445Y-28512076D01*
X156606339Y-28222827D01*
X156507407Y-27944461D01*
X156507408Y-27944461D01*
X156371489Y-27682150D01*
X156371485Y-27682144D01*
X156201125Y-27440798D01*
X156133908Y-27368826D01*
X155999478Y-27224887D01*
X155999476Y-27224886D01*
X155999474Y-27224883D01*
X155770317Y-27038450D01*
X155770306Y-27038443D01*
X155517890Y-26884945D01*
X155246925Y-26767249D01*
X155246923Y-26767248D01*
X155246922Y-26767248D01*
X155165990Y-26744571D01*
X154962455Y-26687543D01*
X154962451Y-26687542D01*
X154962450Y-26687542D01*
X154816111Y-26667428D01*
X154669775Y-26647315D01*
X154669774Y-26647315D01*
X154374346Y-26647315D01*
X154374345Y-26647315D01*
X154081670Y-26687542D01*
X154081664Y-26687543D01*
X153797194Y-26767249D01*
X153526229Y-26884945D01*
X153273813Y-27038443D01*
X153273802Y-27038450D01*
X153044645Y-27224883D01*
X152842994Y-27440798D01*
X152672634Y-27682144D01*
X152672630Y-27682150D01*
X152536712Y-27944461D01*
X152437782Y-28222821D01*
X152437781Y-28222824D01*
X152377674Y-28512081D01*
X152357514Y-28806815D01*
X91916606Y-28806815D01*
X91896445Y-28512076D01*
X91836339Y-28222827D01*
X91737407Y-27944461D01*
X91737408Y-27944461D01*
X91601489Y-27682150D01*
X91601485Y-27682144D01*
X91431125Y-27440798D01*
X91363907Y-27368826D01*
X91229478Y-27224887D01*
X91229476Y-27224886D01*
X91229474Y-27224883D01*
X91000317Y-27038450D01*
X91000306Y-27038443D01*
X90747890Y-26884945D01*
X90476925Y-26767249D01*
X90476923Y-26767248D01*
X90476922Y-26767248D01*
X90395990Y-26744572D01*
X90192455Y-26687543D01*
X90192451Y-26687542D01*
X90192450Y-26687542D01*
X90046112Y-26667428D01*
X89899775Y-26647315D01*
X89899774Y-26647315D01*
X89604346Y-26647315D01*
X89604345Y-26647315D01*
X89311670Y-26687542D01*
X89311664Y-26687543D01*
X89027194Y-26767249D01*
X88756229Y-26884945D01*
X88503813Y-27038443D01*
X88503802Y-27038450D01*
X88274645Y-27224883D01*
X88072994Y-27440798D01*
X87902634Y-27682144D01*
X87902630Y-27682150D01*
X87766712Y-27944461D01*
X87667782Y-28222821D01*
X87667781Y-28222824D01*
X87607674Y-28512081D01*
X87587514Y-28806814D01*
X83910558Y-28806814D01*
X83910563Y-28801450D01*
X83910565Y-28801387D01*
X83910853Y-28800409D01*
X83910668Y-28798900D01*
X83929800Y-28334334D01*
X83930203Y-28329375D01*
X83986634Y-27867767D01*
X83987437Y-27862846D01*
X83992800Y-27836675D01*
X84080795Y-27407268D01*
X84081982Y-27402466D01*
X84211666Y-26955871D01*
X84213247Y-26951143D01*
X84238398Y-26884947D01*
X84378407Y-26516439D01*
X84380365Y-26511849D01*
X84540999Y-26173784D01*
X84579947Y-26091816D01*
X84582261Y-26087413D01*
X84582270Y-26087398D01*
X84814964Y-25684787D01*
X84817615Y-25680596D01*
X85081938Y-25297978D01*
X85084937Y-25293990D01*
X85084953Y-25293971D01*
X85379158Y-24933866D01*
X85382436Y-24930168D01*
X85704687Y-24594836D01*
X85708261Y-24591404D01*
X86056409Y-24283081D01*
X86060264Y-24279936D01*
X86060302Y-24279908D01*
X86250268Y-24137189D01*
X86432057Y-24000614D01*
X86436164Y-23997780D01*
X86829202Y-23749257D01*
X86833506Y-23746770D01*
X87245287Y-23530632D01*
X87249754Y-23528512D01*
X87677582Y-23346178D01*
X87682223Y-23344418D01*
X88123306Y-23197077D01*
X88128071Y-23195694D01*
X88579581Y-23084288D01*
X88584433Y-23083296D01*
X89043439Y-23008551D01*
X89048388Y-23007949D01*
X89049128Y-23007889D01*
X89511908Y-22970349D01*
X89516849Y-22970147D01*
X89981897Y-22969934D01*
X89986860Y-22970131D01*
X90450439Y-23007307D01*
X90455344Y-23007900D01*
X90914410Y-23082224D01*
X90919294Y-23083218D01*
X91370877Y-23194202D01*
X91375671Y-23195587D01*
X91816877Y-23342520D01*
X91821544Y-23344285D01*
X92249519Y-23526218D01*
X92253999Y-23528340D01*
X92413724Y-23611990D01*
X92667967Y-23745141D01*
X92668161Y-23745252D01*
X92668161Y-23745253D01*
X92959496Y-23913105D01*
X92959512Y-23913114D01*
X93125826Y-23997759D01*
X93558827Y-24218135D01*
X93558838Y-24218140D01*
X93558837Y-24218140D01*
X94173161Y-24491657D01*
X94173162Y-24491657D01*
X94173166Y-24491659D01*
X94441565Y-24594830D01*
X94800866Y-24732944D01*
X95029550Y-24807481D01*
X95440240Y-24941343D01*
X95440250Y-24941345D01*
X95440251Y-24941346D01*
X96089556Y-25116292D01*
X96747085Y-25257323D01*
X96747086Y-25257323D01*
X97411037Y-25364054D01*
X98079638Y-25436197D01*
X98751071Y-25473560D01*
X99423545Y-25476040D01*
X99423545Y-25476039D01*
X99423552Y-25476040D01*
X100095250Y-25443632D01*
X100764361Y-25376423D01*
X100764360Y-25376423D01*
X100764371Y-25376422D01*
X101289939Y-25295909D01*
X101429085Y-25274593D01*
X101429088Y-25274592D01*
X101429097Y-25274591D01*
X101429096Y-25274591D01*
X101603995Y-25238424D01*
X102087632Y-25138418D01*
X102738227Y-24968263D01*
X103058672Y-24866420D01*
X103058672Y-24866421D01*
X104542097Y-24415015D01*
X106036183Y-24000259D01*
X107540026Y-23622404D01*
X109052713Y-23281678D01*
X110573328Y-22978289D01*
X112100951Y-22712421D01*
X113634654Y-22484233D01*
X115173510Y-22293866D01*
X116716585Y-22141433D01*
X118262944Y-22027027D01*
X119811651Y-21950718D01*
X121361767Y-21912552D01*
X122912353Y-21912552D01*
X124462469Y-21950718D01*
G37*
%TD.AperFunction*%
%TD*%
M02*
