%TF.GenerationSoftware,KiCad,Pcbnew,7.0.7*%
%TF.CreationDate,2024-02-25T13:36:01-08:00*%
%TF.ProjectId,Power-board,506f7765-722d-4626-9f61-72642e6b6963,rev?*%
%TF.SameCoordinates,Original*%
%TF.FileFunction,Legend,Top*%
%TF.FilePolarity,Positive*%
%FSLAX46Y46*%
G04 Gerber Fmt 4.6, Leading zero omitted, Abs format (unit mm)*
G04 Created by KiCad (PCBNEW 7.0.7) date 2024-02-25 13:36:01*
%MOMM*%
%LPD*%
G01*
G04 APERTURE LIST*
%ADD10C,0.150000*%
%ADD11C,0.084375*%
%ADD12C,0.120000*%
%ADD13C,0.152400*%
%ADD14C,0.200000*%
%ADD15C,0.100000*%
%ADD16C,0.127000*%
G04 APERTURE END LIST*
D10*
X131513333Y-78504680D02*
X131465714Y-78552300D01*
X131465714Y-78552300D02*
X131322857Y-78599919D01*
X131322857Y-78599919D02*
X131227619Y-78599919D01*
X131227619Y-78599919D02*
X131084762Y-78552300D01*
X131084762Y-78552300D02*
X130989524Y-78457061D01*
X130989524Y-78457061D02*
X130941905Y-78361823D01*
X130941905Y-78361823D02*
X130894286Y-78171347D01*
X130894286Y-78171347D02*
X130894286Y-78028490D01*
X130894286Y-78028490D02*
X130941905Y-77838014D01*
X130941905Y-77838014D02*
X130989524Y-77742776D01*
X130989524Y-77742776D02*
X131084762Y-77647538D01*
X131084762Y-77647538D02*
X131227619Y-77599919D01*
X131227619Y-77599919D02*
X131322857Y-77599919D01*
X131322857Y-77599919D02*
X131465714Y-77647538D01*
X131465714Y-77647538D02*
X131513333Y-77695157D01*
X132370476Y-77933252D02*
X132370476Y-78599919D01*
X132132381Y-77552300D02*
X131894286Y-78266585D01*
X131894286Y-78266585D02*
X132513333Y-78266585D01*
X142522819Y-85896594D02*
X141522819Y-85896594D01*
X141522819Y-85896594D02*
X141522819Y-85658499D01*
X141522819Y-85658499D02*
X141570438Y-85515642D01*
X141570438Y-85515642D02*
X141665676Y-85420404D01*
X141665676Y-85420404D02*
X141760914Y-85372785D01*
X141760914Y-85372785D02*
X141951390Y-85325166D01*
X141951390Y-85325166D02*
X142094247Y-85325166D01*
X142094247Y-85325166D02*
X142284723Y-85372785D01*
X142284723Y-85372785D02*
X142379961Y-85420404D01*
X142379961Y-85420404D02*
X142475200Y-85515642D01*
X142475200Y-85515642D02*
X142522819Y-85658499D01*
X142522819Y-85658499D02*
X142522819Y-85896594D01*
X141618057Y-84944213D02*
X141570438Y-84896594D01*
X141570438Y-84896594D02*
X141522819Y-84801356D01*
X141522819Y-84801356D02*
X141522819Y-84563261D01*
X141522819Y-84563261D02*
X141570438Y-84468023D01*
X141570438Y-84468023D02*
X141618057Y-84420404D01*
X141618057Y-84420404D02*
X141713295Y-84372785D01*
X141713295Y-84372785D02*
X141808533Y-84372785D01*
X141808533Y-84372785D02*
X141951390Y-84420404D01*
X141951390Y-84420404D02*
X142522819Y-84991832D01*
X142522819Y-84991832D02*
X142522819Y-84372785D01*
X89058333Y-89589580D02*
X89010714Y-89637200D01*
X89010714Y-89637200D02*
X88867857Y-89684819D01*
X88867857Y-89684819D02*
X88772619Y-89684819D01*
X88772619Y-89684819D02*
X88629762Y-89637200D01*
X88629762Y-89637200D02*
X88534524Y-89541961D01*
X88534524Y-89541961D02*
X88486905Y-89446723D01*
X88486905Y-89446723D02*
X88439286Y-89256247D01*
X88439286Y-89256247D02*
X88439286Y-89113390D01*
X88439286Y-89113390D02*
X88486905Y-88922914D01*
X88486905Y-88922914D02*
X88534524Y-88827676D01*
X88534524Y-88827676D02*
X88629762Y-88732438D01*
X88629762Y-88732438D02*
X88772619Y-88684819D01*
X88772619Y-88684819D02*
X88867857Y-88684819D01*
X88867857Y-88684819D02*
X89010714Y-88732438D01*
X89010714Y-88732438D02*
X89058333Y-88780057D01*
X89963095Y-88684819D02*
X89486905Y-88684819D01*
X89486905Y-88684819D02*
X89439286Y-89161009D01*
X89439286Y-89161009D02*
X89486905Y-89113390D01*
X89486905Y-89113390D02*
X89582143Y-89065771D01*
X89582143Y-89065771D02*
X89820238Y-89065771D01*
X89820238Y-89065771D02*
X89915476Y-89113390D01*
X89915476Y-89113390D02*
X89963095Y-89161009D01*
X89963095Y-89161009D02*
X90010714Y-89256247D01*
X90010714Y-89256247D02*
X90010714Y-89494342D01*
X90010714Y-89494342D02*
X89963095Y-89589580D01*
X89963095Y-89589580D02*
X89915476Y-89637200D01*
X89915476Y-89637200D02*
X89820238Y-89684819D01*
X89820238Y-89684819D02*
X89582143Y-89684819D01*
X89582143Y-89684819D02*
X89486905Y-89637200D01*
X89486905Y-89637200D02*
X89439286Y-89589580D01*
X76529580Y-70541666D02*
X76577200Y-70589285D01*
X76577200Y-70589285D02*
X76624819Y-70732142D01*
X76624819Y-70732142D02*
X76624819Y-70827380D01*
X76624819Y-70827380D02*
X76577200Y-70970237D01*
X76577200Y-70970237D02*
X76481961Y-71065475D01*
X76481961Y-71065475D02*
X76386723Y-71113094D01*
X76386723Y-71113094D02*
X76196247Y-71160713D01*
X76196247Y-71160713D02*
X76053390Y-71160713D01*
X76053390Y-71160713D02*
X75862914Y-71113094D01*
X75862914Y-71113094D02*
X75767676Y-71065475D01*
X75767676Y-71065475D02*
X75672438Y-70970237D01*
X75672438Y-70970237D02*
X75624819Y-70827380D01*
X75624819Y-70827380D02*
X75624819Y-70732142D01*
X75624819Y-70732142D02*
X75672438Y-70589285D01*
X75672438Y-70589285D02*
X75720057Y-70541666D01*
X76624819Y-69589285D02*
X76624819Y-70160713D01*
X76624819Y-69874999D02*
X75624819Y-69874999D01*
X75624819Y-69874999D02*
X75767676Y-69970237D01*
X75767676Y-69970237D02*
X75862914Y-70065475D01*
X75862914Y-70065475D02*
X75910533Y-70160713D01*
X81879166Y-70961009D02*
X81545833Y-70961009D01*
X81545833Y-71484819D02*
X81545833Y-70484819D01*
X81545833Y-70484819D02*
X82022023Y-70484819D01*
X82355357Y-70580057D02*
X82402976Y-70532438D01*
X82402976Y-70532438D02*
X82498214Y-70484819D01*
X82498214Y-70484819D02*
X82736309Y-70484819D01*
X82736309Y-70484819D02*
X82831547Y-70532438D01*
X82831547Y-70532438D02*
X82879166Y-70580057D01*
X82879166Y-70580057D02*
X82926785Y-70675295D01*
X82926785Y-70675295D02*
X82926785Y-70770533D01*
X82926785Y-70770533D02*
X82879166Y-70913390D01*
X82879166Y-70913390D02*
X82307738Y-71484819D01*
X82307738Y-71484819D02*
X82926785Y-71484819D01*
X151329580Y-93339857D02*
X151377200Y-93387476D01*
X151377200Y-93387476D02*
X151424819Y-93530333D01*
X151424819Y-93530333D02*
X151424819Y-93625571D01*
X151424819Y-93625571D02*
X151377200Y-93768428D01*
X151377200Y-93768428D02*
X151281961Y-93863666D01*
X151281961Y-93863666D02*
X151186723Y-93911285D01*
X151186723Y-93911285D02*
X150996247Y-93958904D01*
X150996247Y-93958904D02*
X150853390Y-93958904D01*
X150853390Y-93958904D02*
X150662914Y-93911285D01*
X150662914Y-93911285D02*
X150567676Y-93863666D01*
X150567676Y-93863666D02*
X150472438Y-93768428D01*
X150472438Y-93768428D02*
X150424819Y-93625571D01*
X150424819Y-93625571D02*
X150424819Y-93530333D01*
X150424819Y-93530333D02*
X150472438Y-93387476D01*
X150472438Y-93387476D02*
X150520057Y-93339857D01*
X151424819Y-92387476D02*
X151424819Y-92958904D01*
X151424819Y-92673190D02*
X150424819Y-92673190D01*
X150424819Y-92673190D02*
X150567676Y-92768428D01*
X150567676Y-92768428D02*
X150662914Y-92863666D01*
X150662914Y-92863666D02*
X150710533Y-92958904D01*
X150520057Y-92006523D02*
X150472438Y-91958904D01*
X150472438Y-91958904D02*
X150424819Y-91863666D01*
X150424819Y-91863666D02*
X150424819Y-91625571D01*
X150424819Y-91625571D02*
X150472438Y-91530333D01*
X150472438Y-91530333D02*
X150520057Y-91482714D01*
X150520057Y-91482714D02*
X150615295Y-91435095D01*
X150615295Y-91435095D02*
X150710533Y-91435095D01*
X150710533Y-91435095D02*
X150853390Y-91482714D01*
X150853390Y-91482714D02*
X151424819Y-92054142D01*
X151424819Y-92054142D02*
X151424819Y-91435095D01*
X79495180Y-99595514D02*
X80495180Y-99595514D01*
X80495180Y-99595514D02*
X80495180Y-99833609D01*
X80495180Y-99833609D02*
X80447561Y-99976466D01*
X80447561Y-99976466D02*
X80352323Y-100071704D01*
X80352323Y-100071704D02*
X80257085Y-100119323D01*
X80257085Y-100119323D02*
X80066609Y-100166942D01*
X80066609Y-100166942D02*
X79923752Y-100166942D01*
X79923752Y-100166942D02*
X79733276Y-100119323D01*
X79733276Y-100119323D02*
X79638038Y-100071704D01*
X79638038Y-100071704D02*
X79542800Y-99976466D01*
X79542800Y-99976466D02*
X79495180Y-99833609D01*
X79495180Y-99833609D02*
X79495180Y-99595514D01*
X79495180Y-101119323D02*
X79495180Y-100547895D01*
X79495180Y-100833609D02*
X80495180Y-100833609D01*
X80495180Y-100833609D02*
X80352323Y-100738371D01*
X80352323Y-100738371D02*
X80257085Y-100643133D01*
X80257085Y-100643133D02*
X80209466Y-100547895D01*
X80495180Y-101976466D02*
X80495180Y-101785990D01*
X80495180Y-101785990D02*
X80447561Y-101690752D01*
X80447561Y-101690752D02*
X80399942Y-101643133D01*
X80399942Y-101643133D02*
X80257085Y-101547895D01*
X80257085Y-101547895D02*
X80066609Y-101500276D01*
X80066609Y-101500276D02*
X79685657Y-101500276D01*
X79685657Y-101500276D02*
X79590419Y-101547895D01*
X79590419Y-101547895D02*
X79542800Y-101595514D01*
X79542800Y-101595514D02*
X79495180Y-101690752D01*
X79495180Y-101690752D02*
X79495180Y-101881228D01*
X79495180Y-101881228D02*
X79542800Y-101976466D01*
X79542800Y-101976466D02*
X79590419Y-102024085D01*
X79590419Y-102024085D02*
X79685657Y-102071704D01*
X79685657Y-102071704D02*
X79923752Y-102071704D01*
X79923752Y-102071704D02*
X80018990Y-102024085D01*
X80018990Y-102024085D02*
X80066609Y-101976466D01*
X80066609Y-101976466D02*
X80114228Y-101881228D01*
X80114228Y-101881228D02*
X80114228Y-101690752D01*
X80114228Y-101690752D02*
X80066609Y-101595514D01*
X80066609Y-101595514D02*
X80018990Y-101547895D01*
X80018990Y-101547895D02*
X79923752Y-101500276D01*
X154284819Y-97448666D02*
X153808628Y-97781999D01*
X154284819Y-98020094D02*
X153284819Y-98020094D01*
X153284819Y-98020094D02*
X153284819Y-97639142D01*
X153284819Y-97639142D02*
X153332438Y-97543904D01*
X153332438Y-97543904D02*
X153380057Y-97496285D01*
X153380057Y-97496285D02*
X153475295Y-97448666D01*
X153475295Y-97448666D02*
X153618152Y-97448666D01*
X153618152Y-97448666D02*
X153713390Y-97496285D01*
X153713390Y-97496285D02*
X153761009Y-97543904D01*
X153761009Y-97543904D02*
X153808628Y-97639142D01*
X153808628Y-97639142D02*
X153808628Y-98020094D01*
X154284819Y-96496285D02*
X154284819Y-97067713D01*
X154284819Y-96781999D02*
X153284819Y-96781999D01*
X153284819Y-96781999D02*
X153427676Y-96877237D01*
X153427676Y-96877237D02*
X153522914Y-96972475D01*
X153522914Y-96972475D02*
X153570533Y-97067713D01*
X120988095Y-90404819D02*
X120988095Y-91214342D01*
X120988095Y-91214342D02*
X121035714Y-91309580D01*
X121035714Y-91309580D02*
X121083333Y-91357200D01*
X121083333Y-91357200D02*
X121178571Y-91404819D01*
X121178571Y-91404819D02*
X121369047Y-91404819D01*
X121369047Y-91404819D02*
X121464285Y-91357200D01*
X121464285Y-91357200D02*
X121511904Y-91309580D01*
X121511904Y-91309580D02*
X121559523Y-91214342D01*
X121559523Y-91214342D02*
X121559523Y-90404819D01*
X121940476Y-90404819D02*
X122559523Y-90404819D01*
X122559523Y-90404819D02*
X122226190Y-90785771D01*
X122226190Y-90785771D02*
X122369047Y-90785771D01*
X122369047Y-90785771D02*
X122464285Y-90833390D01*
X122464285Y-90833390D02*
X122511904Y-90881009D01*
X122511904Y-90881009D02*
X122559523Y-90976247D01*
X122559523Y-90976247D02*
X122559523Y-91214342D01*
X122559523Y-91214342D02*
X122511904Y-91309580D01*
X122511904Y-91309580D02*
X122464285Y-91357200D01*
X122464285Y-91357200D02*
X122369047Y-91404819D01*
X122369047Y-91404819D02*
X122083333Y-91404819D01*
X122083333Y-91404819D02*
X121988095Y-91357200D01*
X121988095Y-91357200D02*
X121940476Y-91309580D01*
X76929580Y-81191666D02*
X76977200Y-81239285D01*
X76977200Y-81239285D02*
X77024819Y-81382142D01*
X77024819Y-81382142D02*
X77024819Y-81477380D01*
X77024819Y-81477380D02*
X76977200Y-81620237D01*
X76977200Y-81620237D02*
X76881961Y-81715475D01*
X76881961Y-81715475D02*
X76786723Y-81763094D01*
X76786723Y-81763094D02*
X76596247Y-81810713D01*
X76596247Y-81810713D02*
X76453390Y-81810713D01*
X76453390Y-81810713D02*
X76262914Y-81763094D01*
X76262914Y-81763094D02*
X76167676Y-81715475D01*
X76167676Y-81715475D02*
X76072438Y-81620237D01*
X76072438Y-81620237D02*
X76024819Y-81477380D01*
X76024819Y-81477380D02*
X76024819Y-81382142D01*
X76024819Y-81382142D02*
X76072438Y-81239285D01*
X76072438Y-81239285D02*
X76120057Y-81191666D01*
X76024819Y-80858332D02*
X76024819Y-80239285D01*
X76024819Y-80239285D02*
X76405771Y-80572618D01*
X76405771Y-80572618D02*
X76405771Y-80429761D01*
X76405771Y-80429761D02*
X76453390Y-80334523D01*
X76453390Y-80334523D02*
X76501009Y-80286904D01*
X76501009Y-80286904D02*
X76596247Y-80239285D01*
X76596247Y-80239285D02*
X76834342Y-80239285D01*
X76834342Y-80239285D02*
X76929580Y-80286904D01*
X76929580Y-80286904D02*
X76977200Y-80334523D01*
X76977200Y-80334523D02*
X77024819Y-80429761D01*
X77024819Y-80429761D02*
X77024819Y-80715475D01*
X77024819Y-80715475D02*
X76977200Y-80810713D01*
X76977200Y-80810713D02*
X76929580Y-80858332D01*
X131513333Y-85704680D02*
X131465714Y-85752300D01*
X131465714Y-85752300D02*
X131322857Y-85799919D01*
X131322857Y-85799919D02*
X131227619Y-85799919D01*
X131227619Y-85799919D02*
X131084762Y-85752300D01*
X131084762Y-85752300D02*
X130989524Y-85657061D01*
X130989524Y-85657061D02*
X130941905Y-85561823D01*
X130941905Y-85561823D02*
X130894286Y-85371347D01*
X130894286Y-85371347D02*
X130894286Y-85228490D01*
X130894286Y-85228490D02*
X130941905Y-85038014D01*
X130941905Y-85038014D02*
X130989524Y-84942776D01*
X130989524Y-84942776D02*
X131084762Y-84847538D01*
X131084762Y-84847538D02*
X131227619Y-84799919D01*
X131227619Y-84799919D02*
X131322857Y-84799919D01*
X131322857Y-84799919D02*
X131465714Y-84847538D01*
X131465714Y-84847538D02*
X131513333Y-84895157D01*
X131989524Y-85799919D02*
X132180000Y-85799919D01*
X132180000Y-85799919D02*
X132275238Y-85752300D01*
X132275238Y-85752300D02*
X132322857Y-85704680D01*
X132322857Y-85704680D02*
X132418095Y-85561823D01*
X132418095Y-85561823D02*
X132465714Y-85371347D01*
X132465714Y-85371347D02*
X132465714Y-84990395D01*
X132465714Y-84990395D02*
X132418095Y-84895157D01*
X132418095Y-84895157D02*
X132370476Y-84847538D01*
X132370476Y-84847538D02*
X132275238Y-84799919D01*
X132275238Y-84799919D02*
X132084762Y-84799919D01*
X132084762Y-84799919D02*
X131989524Y-84847538D01*
X131989524Y-84847538D02*
X131941905Y-84895157D01*
X131941905Y-84895157D02*
X131894286Y-84990395D01*
X131894286Y-84990395D02*
X131894286Y-85228490D01*
X131894286Y-85228490D02*
X131941905Y-85323728D01*
X131941905Y-85323728D02*
X131989524Y-85371347D01*
X131989524Y-85371347D02*
X132084762Y-85418966D01*
X132084762Y-85418966D02*
X132275238Y-85418966D01*
X132275238Y-85418966D02*
X132370476Y-85371347D01*
X132370476Y-85371347D02*
X132418095Y-85323728D01*
X132418095Y-85323728D02*
X132465714Y-85228490D01*
D11*
X170942856Y-108536659D02*
X171049999Y-108574754D01*
X171049999Y-108574754D02*
X171085713Y-108612850D01*
X171085713Y-108612850D02*
X171121427Y-108689040D01*
X171121427Y-108689040D02*
X171121427Y-108803326D01*
X171121427Y-108803326D02*
X171085713Y-108879516D01*
X171085713Y-108879516D02*
X171049999Y-108917612D01*
X171049999Y-108917612D02*
X170978570Y-108955707D01*
X170978570Y-108955707D02*
X170692856Y-108955707D01*
X170692856Y-108955707D02*
X170692856Y-108155707D01*
X170692856Y-108155707D02*
X170942856Y-108155707D01*
X170942856Y-108155707D02*
X171014285Y-108193802D01*
X171014285Y-108193802D02*
X171049999Y-108231897D01*
X171049999Y-108231897D02*
X171085713Y-108308088D01*
X171085713Y-108308088D02*
X171085713Y-108384278D01*
X171085713Y-108384278D02*
X171049999Y-108460469D01*
X171049999Y-108460469D02*
X171014285Y-108498564D01*
X171014285Y-108498564D02*
X170942856Y-108536659D01*
X170942856Y-108536659D02*
X170692856Y-108536659D01*
X171371427Y-108155707D02*
X171835713Y-108155707D01*
X171835713Y-108155707D02*
X171585713Y-108460469D01*
X171585713Y-108460469D02*
X171692856Y-108460469D01*
X171692856Y-108460469D02*
X171764285Y-108498564D01*
X171764285Y-108498564D02*
X171799999Y-108536659D01*
X171799999Y-108536659D02*
X171835713Y-108612850D01*
X171835713Y-108612850D02*
X171835713Y-108803326D01*
X171835713Y-108803326D02*
X171799999Y-108879516D01*
X171799999Y-108879516D02*
X171764285Y-108917612D01*
X171764285Y-108917612D02*
X171692856Y-108955707D01*
X171692856Y-108955707D02*
X171478570Y-108955707D01*
X171478570Y-108955707D02*
X171407142Y-108917612D01*
X171407142Y-108917612D02*
X171371427Y-108879516D01*
X172192856Y-108955707D02*
X172335713Y-108955707D01*
X172335713Y-108955707D02*
X172407142Y-108917612D01*
X172407142Y-108917612D02*
X172442856Y-108879516D01*
X172442856Y-108879516D02*
X172514285Y-108765231D01*
X172514285Y-108765231D02*
X172549999Y-108612850D01*
X172549999Y-108612850D02*
X172549999Y-108308088D01*
X172549999Y-108308088D02*
X172514285Y-108231897D01*
X172514285Y-108231897D02*
X172478571Y-108193802D01*
X172478571Y-108193802D02*
X172407142Y-108155707D01*
X172407142Y-108155707D02*
X172264285Y-108155707D01*
X172264285Y-108155707D02*
X172192856Y-108193802D01*
X172192856Y-108193802D02*
X172157142Y-108231897D01*
X172157142Y-108231897D02*
X172121428Y-108308088D01*
X172121428Y-108308088D02*
X172121428Y-108498564D01*
X172121428Y-108498564D02*
X172157142Y-108574754D01*
X172157142Y-108574754D02*
X172192856Y-108612850D01*
X172192856Y-108612850D02*
X172264285Y-108650945D01*
X172264285Y-108650945D02*
X172407142Y-108650945D01*
X172407142Y-108650945D02*
X172478571Y-108612850D01*
X172478571Y-108612850D02*
X172514285Y-108574754D01*
X172514285Y-108574754D02*
X172549999Y-108498564D01*
X173049999Y-109222373D02*
X173049999Y-108079516D01*
X173835714Y-108536659D02*
X173942857Y-108574754D01*
X173942857Y-108574754D02*
X173978571Y-108612850D01*
X173978571Y-108612850D02*
X174014285Y-108689040D01*
X174014285Y-108689040D02*
X174014285Y-108803326D01*
X174014285Y-108803326D02*
X173978571Y-108879516D01*
X173978571Y-108879516D02*
X173942857Y-108917612D01*
X173942857Y-108917612D02*
X173871428Y-108955707D01*
X173871428Y-108955707D02*
X173585714Y-108955707D01*
X173585714Y-108955707D02*
X173585714Y-108155707D01*
X173585714Y-108155707D02*
X173835714Y-108155707D01*
X173835714Y-108155707D02*
X173907143Y-108193802D01*
X173907143Y-108193802D02*
X173942857Y-108231897D01*
X173942857Y-108231897D02*
X173978571Y-108308088D01*
X173978571Y-108308088D02*
X173978571Y-108384278D01*
X173978571Y-108384278D02*
X173942857Y-108460469D01*
X173942857Y-108460469D02*
X173907143Y-108498564D01*
X173907143Y-108498564D02*
X173835714Y-108536659D01*
X173835714Y-108536659D02*
X173585714Y-108536659D01*
X174657143Y-108422373D02*
X174657143Y-108955707D01*
X174478571Y-108117612D02*
X174300000Y-108689040D01*
X174300000Y-108689040D02*
X174764285Y-108689040D01*
X175192857Y-108155707D02*
X175264286Y-108155707D01*
X175264286Y-108155707D02*
X175335714Y-108193802D01*
X175335714Y-108193802D02*
X175371429Y-108231897D01*
X175371429Y-108231897D02*
X175407143Y-108308088D01*
X175407143Y-108308088D02*
X175442857Y-108460469D01*
X175442857Y-108460469D02*
X175442857Y-108650945D01*
X175442857Y-108650945D02*
X175407143Y-108803326D01*
X175407143Y-108803326D02*
X175371429Y-108879516D01*
X175371429Y-108879516D02*
X175335714Y-108917612D01*
X175335714Y-108917612D02*
X175264286Y-108955707D01*
X175264286Y-108955707D02*
X175192857Y-108955707D01*
X175192857Y-108955707D02*
X175121429Y-108917612D01*
X175121429Y-108917612D02*
X175085714Y-108879516D01*
X175085714Y-108879516D02*
X175050000Y-108803326D01*
X175050000Y-108803326D02*
X175014286Y-108650945D01*
X175014286Y-108650945D02*
X175014286Y-108460469D01*
X175014286Y-108460469D02*
X175050000Y-108308088D01*
X175050000Y-108308088D02*
X175085714Y-108231897D01*
X175085714Y-108231897D02*
X175121429Y-108193802D01*
X175121429Y-108193802D02*
X175192857Y-108155707D01*
X70208571Y-67084066D02*
X70565714Y-67084066D01*
X70137142Y-67312638D02*
X70387142Y-66512638D01*
X70387142Y-66512638D02*
X70637142Y-67312638D01*
X71279999Y-67312638D02*
X70851428Y-67312638D01*
X71065713Y-67312638D02*
X71065713Y-66512638D01*
X71065713Y-66512638D02*
X70994285Y-66626923D01*
X70994285Y-66626923D02*
X70922856Y-66703114D01*
X70922856Y-66703114D02*
X70851428Y-66741209D01*
X71779999Y-67579304D02*
X71779999Y-66436447D01*
X72280000Y-67084066D02*
X72637143Y-67084066D01*
X72208571Y-67312638D02*
X72458571Y-66512638D01*
X72458571Y-66512638D02*
X72708571Y-67312638D01*
X72922857Y-66588828D02*
X72958571Y-66550733D01*
X72958571Y-66550733D02*
X73030000Y-66512638D01*
X73030000Y-66512638D02*
X73208571Y-66512638D01*
X73208571Y-66512638D02*
X73280000Y-66550733D01*
X73280000Y-66550733D02*
X73315714Y-66588828D01*
X73315714Y-66588828D02*
X73351428Y-66665019D01*
X73351428Y-66665019D02*
X73351428Y-66741209D01*
X73351428Y-66741209D02*
X73315714Y-66855495D01*
X73315714Y-66855495D02*
X72887142Y-67312638D01*
X72887142Y-67312638D02*
X73351428Y-67312638D01*
D10*
X156299166Y-80071009D02*
X155965833Y-80071009D01*
X155965833Y-80594819D02*
X155965833Y-79594819D01*
X155965833Y-79594819D02*
X156442023Y-79594819D01*
X157346785Y-80594819D02*
X156775357Y-80594819D01*
X157061071Y-80594819D02*
X157061071Y-79594819D01*
X157061071Y-79594819D02*
X156965833Y-79737676D01*
X156965833Y-79737676D02*
X156870595Y-79832914D01*
X156870595Y-79832914D02*
X156775357Y-79880533D01*
X81730166Y-81647009D02*
X81396833Y-81647009D01*
X81396833Y-82170819D02*
X81396833Y-81170819D01*
X81396833Y-81170819D02*
X81873023Y-81170819D01*
X82158738Y-81170819D02*
X82777785Y-81170819D01*
X82777785Y-81170819D02*
X82444452Y-81551771D01*
X82444452Y-81551771D02*
X82587309Y-81551771D01*
X82587309Y-81551771D02*
X82682547Y-81599390D01*
X82682547Y-81599390D02*
X82730166Y-81647009D01*
X82730166Y-81647009D02*
X82777785Y-81742247D01*
X82777785Y-81742247D02*
X82777785Y-81980342D01*
X82777785Y-81980342D02*
X82730166Y-82075580D01*
X82730166Y-82075580D02*
X82682547Y-82123200D01*
X82682547Y-82123200D02*
X82587309Y-82170819D01*
X82587309Y-82170819D02*
X82301595Y-82170819D01*
X82301595Y-82170819D02*
X82206357Y-82123200D01*
X82206357Y-82123200D02*
X82158738Y-82075580D01*
X136116819Y-56003333D02*
X136831104Y-56003333D01*
X136831104Y-56003333D02*
X136973961Y-56050952D01*
X136973961Y-56050952D02*
X137069200Y-56146190D01*
X137069200Y-56146190D02*
X137116819Y-56289047D01*
X137116819Y-56289047D02*
X137116819Y-56384285D01*
X136545390Y-55384285D02*
X136497771Y-55479523D01*
X136497771Y-55479523D02*
X136450152Y-55527142D01*
X136450152Y-55527142D02*
X136354914Y-55574761D01*
X136354914Y-55574761D02*
X136307295Y-55574761D01*
X136307295Y-55574761D02*
X136212057Y-55527142D01*
X136212057Y-55527142D02*
X136164438Y-55479523D01*
X136164438Y-55479523D02*
X136116819Y-55384285D01*
X136116819Y-55384285D02*
X136116819Y-55193809D01*
X136116819Y-55193809D02*
X136164438Y-55098571D01*
X136164438Y-55098571D02*
X136212057Y-55050952D01*
X136212057Y-55050952D02*
X136307295Y-55003333D01*
X136307295Y-55003333D02*
X136354914Y-55003333D01*
X136354914Y-55003333D02*
X136450152Y-55050952D01*
X136450152Y-55050952D02*
X136497771Y-55098571D01*
X136497771Y-55098571D02*
X136545390Y-55193809D01*
X136545390Y-55193809D02*
X136545390Y-55384285D01*
X136545390Y-55384285D02*
X136593009Y-55479523D01*
X136593009Y-55479523D02*
X136640628Y-55527142D01*
X136640628Y-55527142D02*
X136735866Y-55574761D01*
X136735866Y-55574761D02*
X136926342Y-55574761D01*
X136926342Y-55574761D02*
X137021580Y-55527142D01*
X137021580Y-55527142D02*
X137069200Y-55479523D01*
X137069200Y-55479523D02*
X137116819Y-55384285D01*
X137116819Y-55384285D02*
X137116819Y-55193809D01*
X137116819Y-55193809D02*
X137069200Y-55098571D01*
X137069200Y-55098571D02*
X137021580Y-55050952D01*
X137021580Y-55050952D02*
X136926342Y-55003333D01*
X136926342Y-55003333D02*
X136735866Y-55003333D01*
X136735866Y-55003333D02*
X136640628Y-55050952D01*
X136640628Y-55050952D02*
X136593009Y-55098571D01*
X136593009Y-55098571D02*
X136545390Y-55193809D01*
X155735866Y-49650951D02*
X155735866Y-48889047D01*
X136457142Y-94359580D02*
X136409523Y-94407200D01*
X136409523Y-94407200D02*
X136266666Y-94454819D01*
X136266666Y-94454819D02*
X136171428Y-94454819D01*
X136171428Y-94454819D02*
X136028571Y-94407200D01*
X136028571Y-94407200D02*
X135933333Y-94311961D01*
X135933333Y-94311961D02*
X135885714Y-94216723D01*
X135885714Y-94216723D02*
X135838095Y-94026247D01*
X135838095Y-94026247D02*
X135838095Y-93883390D01*
X135838095Y-93883390D02*
X135885714Y-93692914D01*
X135885714Y-93692914D02*
X135933333Y-93597676D01*
X135933333Y-93597676D02*
X136028571Y-93502438D01*
X136028571Y-93502438D02*
X136171428Y-93454819D01*
X136171428Y-93454819D02*
X136266666Y-93454819D01*
X136266666Y-93454819D02*
X136409523Y-93502438D01*
X136409523Y-93502438D02*
X136457142Y-93550057D01*
X137409523Y-94454819D02*
X136838095Y-94454819D01*
X137123809Y-94454819D02*
X137123809Y-93454819D01*
X137123809Y-93454819D02*
X137028571Y-93597676D01*
X137028571Y-93597676D02*
X136933333Y-93692914D01*
X136933333Y-93692914D02*
X136838095Y-93740533D01*
X138361904Y-94454819D02*
X137790476Y-94454819D01*
X138076190Y-94454819D02*
X138076190Y-93454819D01*
X138076190Y-93454819D02*
X137980952Y-93597676D01*
X137980952Y-93597676D02*
X137885714Y-93692914D01*
X137885714Y-93692914D02*
X137790476Y-93740533D01*
X147629580Y-82891666D02*
X147677200Y-82939285D01*
X147677200Y-82939285D02*
X147724819Y-83082142D01*
X147724819Y-83082142D02*
X147724819Y-83177380D01*
X147724819Y-83177380D02*
X147677200Y-83320237D01*
X147677200Y-83320237D02*
X147581961Y-83415475D01*
X147581961Y-83415475D02*
X147486723Y-83463094D01*
X147486723Y-83463094D02*
X147296247Y-83510713D01*
X147296247Y-83510713D02*
X147153390Y-83510713D01*
X147153390Y-83510713D02*
X146962914Y-83463094D01*
X146962914Y-83463094D02*
X146867676Y-83415475D01*
X146867676Y-83415475D02*
X146772438Y-83320237D01*
X146772438Y-83320237D02*
X146724819Y-83177380D01*
X146724819Y-83177380D02*
X146724819Y-83082142D01*
X146724819Y-83082142D02*
X146772438Y-82939285D01*
X146772438Y-82939285D02*
X146820057Y-82891666D01*
X146724819Y-82034523D02*
X146724819Y-82224999D01*
X146724819Y-82224999D02*
X146772438Y-82320237D01*
X146772438Y-82320237D02*
X146820057Y-82367856D01*
X146820057Y-82367856D02*
X146962914Y-82463094D01*
X146962914Y-82463094D02*
X147153390Y-82510713D01*
X147153390Y-82510713D02*
X147534342Y-82510713D01*
X147534342Y-82510713D02*
X147629580Y-82463094D01*
X147629580Y-82463094D02*
X147677200Y-82415475D01*
X147677200Y-82415475D02*
X147724819Y-82320237D01*
X147724819Y-82320237D02*
X147724819Y-82129761D01*
X147724819Y-82129761D02*
X147677200Y-82034523D01*
X147677200Y-82034523D02*
X147629580Y-81986904D01*
X147629580Y-81986904D02*
X147534342Y-81939285D01*
X147534342Y-81939285D02*
X147296247Y-81939285D01*
X147296247Y-81939285D02*
X147201009Y-81986904D01*
X147201009Y-81986904D02*
X147153390Y-82034523D01*
X147153390Y-82034523D02*
X147105771Y-82129761D01*
X147105771Y-82129761D02*
X147105771Y-82320237D01*
X147105771Y-82320237D02*
X147153390Y-82415475D01*
X147153390Y-82415475D02*
X147201009Y-82463094D01*
X147201009Y-82463094D02*
X147296247Y-82510713D01*
X89715180Y-70348095D02*
X88905657Y-70348095D01*
X88905657Y-70348095D02*
X88810419Y-70395714D01*
X88810419Y-70395714D02*
X88762800Y-70443333D01*
X88762800Y-70443333D02*
X88715180Y-70538571D01*
X88715180Y-70538571D02*
X88715180Y-70729047D01*
X88715180Y-70729047D02*
X88762800Y-70824285D01*
X88762800Y-70824285D02*
X88810419Y-70871904D01*
X88810419Y-70871904D02*
X88905657Y-70919523D01*
X88905657Y-70919523D02*
X89715180Y-70919523D01*
X88715180Y-71919523D02*
X88715180Y-71348095D01*
X88715180Y-71633809D02*
X89715180Y-71633809D01*
X89715180Y-71633809D02*
X89572323Y-71538571D01*
X89572323Y-71538571D02*
X89477085Y-71443333D01*
X89477085Y-71443333D02*
X89429466Y-71348095D01*
X131057142Y-91409580D02*
X131009523Y-91457200D01*
X131009523Y-91457200D02*
X130866666Y-91504819D01*
X130866666Y-91504819D02*
X130771428Y-91504819D01*
X130771428Y-91504819D02*
X130628571Y-91457200D01*
X130628571Y-91457200D02*
X130533333Y-91361961D01*
X130533333Y-91361961D02*
X130485714Y-91266723D01*
X130485714Y-91266723D02*
X130438095Y-91076247D01*
X130438095Y-91076247D02*
X130438095Y-90933390D01*
X130438095Y-90933390D02*
X130485714Y-90742914D01*
X130485714Y-90742914D02*
X130533333Y-90647676D01*
X130533333Y-90647676D02*
X130628571Y-90552438D01*
X130628571Y-90552438D02*
X130771428Y-90504819D01*
X130771428Y-90504819D02*
X130866666Y-90504819D01*
X130866666Y-90504819D02*
X131009523Y-90552438D01*
X131009523Y-90552438D02*
X131057142Y-90600057D01*
X132009523Y-91504819D02*
X131438095Y-91504819D01*
X131723809Y-91504819D02*
X131723809Y-90504819D01*
X131723809Y-90504819D02*
X131628571Y-90647676D01*
X131628571Y-90647676D02*
X131533333Y-90742914D01*
X131533333Y-90742914D02*
X131438095Y-90790533D01*
X132628571Y-90504819D02*
X132723809Y-90504819D01*
X132723809Y-90504819D02*
X132819047Y-90552438D01*
X132819047Y-90552438D02*
X132866666Y-90600057D01*
X132866666Y-90600057D02*
X132914285Y-90695295D01*
X132914285Y-90695295D02*
X132961904Y-90885771D01*
X132961904Y-90885771D02*
X132961904Y-91123866D01*
X132961904Y-91123866D02*
X132914285Y-91314342D01*
X132914285Y-91314342D02*
X132866666Y-91409580D01*
X132866666Y-91409580D02*
X132819047Y-91457200D01*
X132819047Y-91457200D02*
X132723809Y-91504819D01*
X132723809Y-91504819D02*
X132628571Y-91504819D01*
X132628571Y-91504819D02*
X132533333Y-91457200D01*
X132533333Y-91457200D02*
X132485714Y-91409580D01*
X132485714Y-91409580D02*
X132438095Y-91314342D01*
X132438095Y-91314342D02*
X132390476Y-91123866D01*
X132390476Y-91123866D02*
X132390476Y-90885771D01*
X132390476Y-90885771D02*
X132438095Y-90695295D01*
X132438095Y-90695295D02*
X132485714Y-90600057D01*
X132485714Y-90600057D02*
X132533333Y-90552438D01*
X132533333Y-90552438D02*
X132628571Y-90504819D01*
X147508333Y-87934819D02*
X147175000Y-87458628D01*
X146936905Y-87934819D02*
X146936905Y-86934819D01*
X146936905Y-86934819D02*
X147317857Y-86934819D01*
X147317857Y-86934819D02*
X147413095Y-86982438D01*
X147413095Y-86982438D02*
X147460714Y-87030057D01*
X147460714Y-87030057D02*
X147508333Y-87125295D01*
X147508333Y-87125295D02*
X147508333Y-87268152D01*
X147508333Y-87268152D02*
X147460714Y-87363390D01*
X147460714Y-87363390D02*
X147413095Y-87411009D01*
X147413095Y-87411009D02*
X147317857Y-87458628D01*
X147317857Y-87458628D02*
X146936905Y-87458628D01*
X147841667Y-86934819D02*
X148460714Y-86934819D01*
X148460714Y-86934819D02*
X148127381Y-87315771D01*
X148127381Y-87315771D02*
X148270238Y-87315771D01*
X148270238Y-87315771D02*
X148365476Y-87363390D01*
X148365476Y-87363390D02*
X148413095Y-87411009D01*
X148413095Y-87411009D02*
X148460714Y-87506247D01*
X148460714Y-87506247D02*
X148460714Y-87744342D01*
X148460714Y-87744342D02*
X148413095Y-87839580D01*
X148413095Y-87839580D02*
X148365476Y-87887200D01*
X148365476Y-87887200D02*
X148270238Y-87934819D01*
X148270238Y-87934819D02*
X147984524Y-87934819D01*
X147984524Y-87934819D02*
X147889286Y-87887200D01*
X147889286Y-87887200D02*
X147841667Y-87839580D01*
X131513333Y-81408680D02*
X131465714Y-81456300D01*
X131465714Y-81456300D02*
X131322857Y-81503919D01*
X131322857Y-81503919D02*
X131227619Y-81503919D01*
X131227619Y-81503919D02*
X131084762Y-81456300D01*
X131084762Y-81456300D02*
X130989524Y-81361061D01*
X130989524Y-81361061D02*
X130941905Y-81265823D01*
X130941905Y-81265823D02*
X130894286Y-81075347D01*
X130894286Y-81075347D02*
X130894286Y-80932490D01*
X130894286Y-80932490D02*
X130941905Y-80742014D01*
X130941905Y-80742014D02*
X130989524Y-80646776D01*
X130989524Y-80646776D02*
X131084762Y-80551538D01*
X131084762Y-80551538D02*
X131227619Y-80503919D01*
X131227619Y-80503919D02*
X131322857Y-80503919D01*
X131322857Y-80503919D02*
X131465714Y-80551538D01*
X131465714Y-80551538D02*
X131513333Y-80599157D01*
X132084762Y-80932490D02*
X131989524Y-80884871D01*
X131989524Y-80884871D02*
X131941905Y-80837252D01*
X131941905Y-80837252D02*
X131894286Y-80742014D01*
X131894286Y-80742014D02*
X131894286Y-80694395D01*
X131894286Y-80694395D02*
X131941905Y-80599157D01*
X131941905Y-80599157D02*
X131989524Y-80551538D01*
X131989524Y-80551538D02*
X132084762Y-80503919D01*
X132084762Y-80503919D02*
X132275238Y-80503919D01*
X132275238Y-80503919D02*
X132370476Y-80551538D01*
X132370476Y-80551538D02*
X132418095Y-80599157D01*
X132418095Y-80599157D02*
X132465714Y-80694395D01*
X132465714Y-80694395D02*
X132465714Y-80742014D01*
X132465714Y-80742014D02*
X132418095Y-80837252D01*
X132418095Y-80837252D02*
X132370476Y-80884871D01*
X132370476Y-80884871D02*
X132275238Y-80932490D01*
X132275238Y-80932490D02*
X132084762Y-80932490D01*
X132084762Y-80932490D02*
X131989524Y-80980109D01*
X131989524Y-80980109D02*
X131941905Y-81027728D01*
X131941905Y-81027728D02*
X131894286Y-81122966D01*
X131894286Y-81122966D02*
X131894286Y-81313442D01*
X131894286Y-81313442D02*
X131941905Y-81408680D01*
X131941905Y-81408680D02*
X131989524Y-81456300D01*
X131989524Y-81456300D02*
X132084762Y-81503919D01*
X132084762Y-81503919D02*
X132275238Y-81503919D01*
X132275238Y-81503919D02*
X132370476Y-81456300D01*
X132370476Y-81456300D02*
X132418095Y-81408680D01*
X132418095Y-81408680D02*
X132465714Y-81313442D01*
X132465714Y-81313442D02*
X132465714Y-81122966D01*
X132465714Y-81122966D02*
X132418095Y-81027728D01*
X132418095Y-81027728D02*
X132370476Y-80980109D01*
X132370476Y-80980109D02*
X132275238Y-80932490D01*
X124031666Y-43476819D02*
X124031666Y-44191104D01*
X124031666Y-44191104D02*
X123984047Y-44333961D01*
X123984047Y-44333961D02*
X123888809Y-44429200D01*
X123888809Y-44429200D02*
X123745952Y-44476819D01*
X123745952Y-44476819D02*
X123650714Y-44476819D01*
X124984047Y-43476819D02*
X124507857Y-43476819D01*
X124507857Y-43476819D02*
X124460238Y-43953009D01*
X124460238Y-43953009D02*
X124507857Y-43905390D01*
X124507857Y-43905390D02*
X124603095Y-43857771D01*
X124603095Y-43857771D02*
X124841190Y-43857771D01*
X124841190Y-43857771D02*
X124936428Y-43905390D01*
X124936428Y-43905390D02*
X124984047Y-43953009D01*
X124984047Y-43953009D02*
X125031666Y-44048247D01*
X125031666Y-44048247D02*
X125031666Y-44286342D01*
X125031666Y-44286342D02*
X124984047Y-44381580D01*
X124984047Y-44381580D02*
X124936428Y-44429200D01*
X124936428Y-44429200D02*
X124841190Y-44476819D01*
X124841190Y-44476819D02*
X124603095Y-44476819D01*
X124603095Y-44476819D02*
X124507857Y-44429200D01*
X124507857Y-44429200D02*
X124460238Y-44381580D01*
X157654819Y-96954485D02*
X156654819Y-96954485D01*
X156654819Y-96954485D02*
X156654819Y-96716390D01*
X156654819Y-96716390D02*
X156702438Y-96573533D01*
X156702438Y-96573533D02*
X156797676Y-96478295D01*
X156797676Y-96478295D02*
X156892914Y-96430676D01*
X156892914Y-96430676D02*
X157083390Y-96383057D01*
X157083390Y-96383057D02*
X157226247Y-96383057D01*
X157226247Y-96383057D02*
X157416723Y-96430676D01*
X157416723Y-96430676D02*
X157511961Y-96478295D01*
X157511961Y-96478295D02*
X157607200Y-96573533D01*
X157607200Y-96573533D02*
X157654819Y-96716390D01*
X157654819Y-96716390D02*
X157654819Y-96954485D01*
X157654819Y-95430676D02*
X157654819Y-96002104D01*
X157654819Y-95716390D02*
X156654819Y-95716390D01*
X156654819Y-95716390D02*
X156797676Y-95811628D01*
X156797676Y-95811628D02*
X156892914Y-95906866D01*
X156892914Y-95906866D02*
X156940533Y-96002104D01*
X156654819Y-94525914D02*
X156654819Y-95002104D01*
X156654819Y-95002104D02*
X157131009Y-95049723D01*
X157131009Y-95049723D02*
X157083390Y-95002104D01*
X157083390Y-95002104D02*
X157035771Y-94906866D01*
X157035771Y-94906866D02*
X157035771Y-94668771D01*
X157035771Y-94668771D02*
X157083390Y-94573533D01*
X157083390Y-94573533D02*
X157131009Y-94525914D01*
X157131009Y-94525914D02*
X157226247Y-94478295D01*
X157226247Y-94478295D02*
X157464342Y-94478295D01*
X157464342Y-94478295D02*
X157559580Y-94525914D01*
X157559580Y-94525914D02*
X157607200Y-94573533D01*
X157607200Y-94573533D02*
X157654819Y-94668771D01*
X157654819Y-94668771D02*
X157654819Y-94906866D01*
X157654819Y-94906866D02*
X157607200Y-95002104D01*
X157607200Y-95002104D02*
X157559580Y-95049723D01*
X89695180Y-81048095D02*
X88885657Y-81048095D01*
X88885657Y-81048095D02*
X88790419Y-81095714D01*
X88790419Y-81095714D02*
X88742800Y-81143333D01*
X88742800Y-81143333D02*
X88695180Y-81238571D01*
X88695180Y-81238571D02*
X88695180Y-81429047D01*
X88695180Y-81429047D02*
X88742800Y-81524285D01*
X88742800Y-81524285D02*
X88790419Y-81571904D01*
X88790419Y-81571904D02*
X88885657Y-81619523D01*
X88885657Y-81619523D02*
X89695180Y-81619523D01*
X89361847Y-82524285D02*
X88695180Y-82524285D01*
X89742800Y-82286190D02*
X89028514Y-82048095D01*
X89028514Y-82048095D02*
X89028514Y-82667142D01*
X88908333Y-77939580D02*
X88860714Y-77987200D01*
X88860714Y-77987200D02*
X88717857Y-78034819D01*
X88717857Y-78034819D02*
X88622619Y-78034819D01*
X88622619Y-78034819D02*
X88479762Y-77987200D01*
X88479762Y-77987200D02*
X88384524Y-77891961D01*
X88384524Y-77891961D02*
X88336905Y-77796723D01*
X88336905Y-77796723D02*
X88289286Y-77606247D01*
X88289286Y-77606247D02*
X88289286Y-77463390D01*
X88289286Y-77463390D02*
X88336905Y-77272914D01*
X88336905Y-77272914D02*
X88384524Y-77177676D01*
X88384524Y-77177676D02*
X88479762Y-77082438D01*
X88479762Y-77082438D02*
X88622619Y-77034819D01*
X88622619Y-77034819D02*
X88717857Y-77034819D01*
X88717857Y-77034819D02*
X88860714Y-77082438D01*
X88860714Y-77082438D02*
X88908333Y-77130057D01*
X89289286Y-77130057D02*
X89336905Y-77082438D01*
X89336905Y-77082438D02*
X89432143Y-77034819D01*
X89432143Y-77034819D02*
X89670238Y-77034819D01*
X89670238Y-77034819D02*
X89765476Y-77082438D01*
X89765476Y-77082438D02*
X89813095Y-77130057D01*
X89813095Y-77130057D02*
X89860714Y-77225295D01*
X89860714Y-77225295D02*
X89860714Y-77320533D01*
X89860714Y-77320533D02*
X89813095Y-77463390D01*
X89813095Y-77463390D02*
X89241667Y-78034819D01*
X89241667Y-78034819D02*
X89860714Y-78034819D01*
D12*
%TO.C,C4*%
X131539420Y-79065100D02*
X131820580Y-79065100D01*
X131539420Y-80085100D02*
X131820580Y-80085100D01*
%TO.C,D2*%
X142763000Y-86643500D02*
X144233000Y-86643500D01*
X144233000Y-86643500D02*
X144233000Y-84358500D01*
X142763000Y-84358500D02*
X142763000Y-86643500D01*
%TO.C,C5*%
X89365580Y-88310000D02*
X89084420Y-88310000D01*
X89365580Y-87290000D02*
X89084420Y-87290000D01*
%TO.C,C1*%
X77090000Y-70515580D02*
X77090000Y-70234420D01*
X78110000Y-70515580D02*
X78110000Y-70234420D01*
%TO.C,F2*%
X82375279Y-70110000D02*
X82049721Y-70110000D01*
X82375279Y-69090000D02*
X82049721Y-69090000D01*
%TO.C,C12*%
X151890000Y-92837580D02*
X151890000Y-92556420D01*
X152910000Y-92837580D02*
X152910000Y-92556420D01*
D13*
%TO.C,D16*%
X81537500Y-98307900D02*
X81120940Y-98307900D01*
X78779060Y-98307900D02*
X78362500Y-98307900D01*
X78362500Y-98307900D02*
X78362500Y-103311700D01*
X81537500Y-103311700D02*
X81537500Y-98307900D01*
X81120940Y-103311700D02*
X81537500Y-103311700D01*
X78362500Y-103311700D02*
X78779060Y-103311700D01*
D12*
%TO.C,R1*%
X152922500Y-97044742D02*
X152922500Y-97519258D01*
X151877500Y-97044742D02*
X151877500Y-97519258D01*
D14*
%TO.C,U3*%
X118414999Y-79895100D02*
X123915001Y-79895100D01*
X119914999Y-89695100D02*
X123915001Y-89695100D01*
D15*
X120615000Y-80405100D02*
X123575000Y-80415100D01*
D12*
%TO.C,C3*%
X77490000Y-81165580D02*
X77490000Y-80884420D01*
X78510000Y-81165580D02*
X78510000Y-80884420D01*
%TO.C,C9*%
X131539420Y-86265100D02*
X131820580Y-86265100D01*
X131539420Y-87285100D02*
X131820580Y-87285100D01*
D16*
%TO.C,J1*%
X69240000Y-67866931D02*
X69240000Y-109180131D01*
X69240000Y-67880331D02*
X74288300Y-67880331D01*
X74288300Y-67880331D02*
X74288300Y-109193531D01*
X74288300Y-109193531D02*
X69240000Y-109193531D01*
X170541700Y-66343400D02*
X175558300Y-66343400D01*
X170541700Y-107656600D02*
X170541700Y-66343400D01*
X175558300Y-107656600D02*
X170541700Y-107656600D01*
X175558300Y-107656600D02*
X175558300Y-66343400D01*
D12*
%TO.C,F1*%
X154428748Y-81150000D02*
X158836252Y-81150000D01*
X154428748Y-86490000D02*
X158836252Y-86490000D01*
%TO.C,F3*%
X82226279Y-80796000D02*
X81900721Y-80796000D01*
X82226279Y-79776000D02*
X81900721Y-79776000D01*
%TO.C,J8*%
X145402000Y-63530000D02*
X151012000Y-63530000D01*
X145402000Y-63530000D02*
X145402000Y-62680000D01*
X137702000Y-62680000D02*
X145402000Y-62680000D01*
X137702000Y-62680000D02*
X137702000Y-48660000D01*
X155122000Y-58120000D02*
X155122000Y-54380000D01*
X137702000Y-48660000D02*
X145402000Y-48660000D01*
X145402000Y-48660000D02*
X145402000Y-47810000D01*
X145402000Y-47810000D02*
X151012000Y-47810000D01*
X151012000Y-63529999D02*
G75*
G03*
X154970718Y-60659900I40002J4109997D01*
G01*
X154534958Y-49803194D02*
G75*
G03*
X151012000Y-47810000I-3522958J-2116806D01*
G01*
%TO.C,C11*%
X138565580Y-92560000D02*
X138284420Y-92560000D01*
X138565580Y-91540000D02*
X138284420Y-91540000D01*
%TO.C,C6*%
X148190000Y-82865580D02*
X148190000Y-82584420D01*
X149210000Y-82865580D02*
X149210000Y-82584420D01*
D13*
%TO.C,U1*%
X91049600Y-67731800D02*
X87290400Y-67731800D01*
X87290400Y-67731800D02*
X87290400Y-74488200D01*
X91049600Y-74488200D02*
X91049600Y-67731800D01*
X87290400Y-74488200D02*
X91049600Y-74488200D01*
X85652100Y-66588800D02*
G75*
G03*
X85652100Y-66588800I-127000J0D01*
G01*
D12*
%TO.C,C10*%
X131589420Y-88865100D02*
X131870580Y-88865100D01*
X131589420Y-89885100D02*
X131870580Y-89885100D01*
%TO.C,R3*%
X147912258Y-86572500D02*
X147437742Y-86572500D01*
X147912258Y-85527500D02*
X147437742Y-85527500D01*
%TO.C,C8*%
X131539420Y-81969100D02*
X131820580Y-81969100D01*
X131539420Y-82989100D02*
X131820580Y-82989100D01*
%TO.C,J5*%
X139350000Y-32532000D02*
X109350000Y-32532000D01*
X109350000Y-43032000D02*
X139350000Y-43032000D01*
X139350000Y-43032000D02*
G75*
G03*
X139350000Y-32532000I0J5250000D01*
G01*
X109350000Y-32532000D02*
G75*
G03*
X109350000Y-43032000I0J-5250000D01*
G01*
D13*
%TO.C,D15*%
X155612500Y-98242100D02*
X156029060Y-98242100D01*
X158370940Y-98242100D02*
X158787500Y-98242100D01*
X158787500Y-98242100D02*
X158787500Y-93238300D01*
X155612500Y-93238300D02*
X155612500Y-98242100D01*
X156029060Y-93238300D02*
X155612500Y-93238300D01*
X158787500Y-93238300D02*
X158370940Y-93238300D01*
%TO.C,U4*%
X91029600Y-78431800D02*
X87270400Y-78431800D01*
X87270400Y-78431800D02*
X87270400Y-85188200D01*
X91029600Y-85188200D02*
X91029600Y-78431800D01*
X87270400Y-85188200D02*
X91029600Y-85188200D01*
X85632100Y-77288800D02*
G75*
G03*
X85632100Y-77288800I-127000J0D01*
G01*
D12*
%TO.C,C2*%
X89215580Y-76660000D02*
X88934420Y-76660000D01*
X89215580Y-75640000D02*
X88934420Y-75640000D01*
%TD*%
M02*
