%TF.GenerationSoftware,KiCad,Pcbnew,7.0.7*%
%TF.CreationDate,2024-02-25T13:36:01-08:00*%
%TF.ProjectId,Power-board,506f7765-722d-4626-9f61-72642e6b6963,rev?*%
%TF.SameCoordinates,Original*%
%TF.FileFunction,Soldermask,Bot*%
%TF.FilePolarity,Negative*%
%FSLAX46Y46*%
G04 Gerber Fmt 4.6, Leading zero omitted, Abs format (unit mm)*
G04 Created by KiCad (PCBNEW 7.0.7) date 2024-02-25 13:36:01*
%MOMM*%
%LPD*%
G01*
G04 APERTURE LIST*
G04 Aperture macros list*
%AMRoundRect*
0 Rectangle with rounded corners*
0 $1 Rounding radius*
0 $2 $3 $4 $5 $6 $7 $8 $9 X,Y pos of 4 corners*
0 Add a 4 corners polygon primitive as box body*
4,1,4,$2,$3,$4,$5,$6,$7,$8,$9,$2,$3,0*
0 Add four circle primitives for the rounded corners*
1,1,$1+$1,$2,$3*
1,1,$1+$1,$4,$5*
1,1,$1+$1,$6,$7*
1,1,$1+$1,$8,$9*
0 Add four rect primitives between the rounded corners*
20,1,$1+$1,$2,$3,$4,$5,0*
20,1,$1+$1,$4,$5,$6,$7,0*
20,1,$1+$1,$6,$7,$8,$9,0*
20,1,$1+$1,$8,$9,$2,$3,0*%
G04 Aperture macros list end*
%ADD10C,0.780000*%
%ADD11C,1.371600*%
%ADD12R,2.340000X1.330000*%
%ADD13R,2.450000X1.380000*%
%ADD14RoundRect,1.025000X1.025000X-1.025000X1.025000X1.025000X-1.025000X1.025000X-1.025000X-1.025000X0*%
%ADD15C,4.100000*%
%ADD16C,10.160000*%
G04 APERTURE END LIST*
D10*
%TO.C,U3*%
X120615000Y-80795100D03*
X120615000Y-82095100D03*
X120615000Y-83495100D03*
X120615000Y-84795100D03*
X120615000Y-86095100D03*
X120615003Y-87495100D03*
X120615003Y-88795100D03*
X121915000Y-82095100D03*
X121915003Y-80795100D03*
X121915003Y-83495100D03*
X121915003Y-84795100D03*
X121915003Y-86095100D03*
X121915003Y-87495100D03*
X121915005Y-88795100D03*
X123215000Y-80795100D03*
X123215000Y-82095100D03*
X123215000Y-83495100D03*
X123215000Y-84795100D03*
X123215000Y-86095100D03*
X123215002Y-87495100D03*
X123215002Y-88795100D03*
%TD*%
D11*
%TO.C,J1*%
X70780000Y-69536931D03*
X72780000Y-69536931D03*
X70780000Y-71536931D03*
X72780000Y-71536931D03*
X70780000Y-73536931D03*
X72780000Y-73536931D03*
X70780000Y-75536931D03*
X72780000Y-75536931D03*
X70780000Y-77536931D03*
X72780000Y-77536931D03*
X70780000Y-79536931D03*
X72780000Y-79536931D03*
X70780000Y-81536931D03*
X72780000Y-81536931D03*
X70780000Y-83536931D03*
X72780000Y-83536931D03*
X70780000Y-85536931D03*
X72780000Y-85536931D03*
X70780000Y-87536931D03*
X72780000Y-87536931D03*
X70780000Y-89536931D03*
X72780000Y-89536931D03*
X70780000Y-91536931D03*
X72780000Y-91536931D03*
X70780000Y-93536931D03*
X72780000Y-93536931D03*
X70780000Y-95536931D03*
X72780000Y-95536931D03*
X70780000Y-97536931D03*
X72780000Y-97536931D03*
X70780000Y-99536931D03*
X72780000Y-99536931D03*
X70780000Y-101536831D03*
X72780000Y-101536831D03*
X70780000Y-103536831D03*
X72780000Y-103536831D03*
X70780000Y-105536831D03*
X72780000Y-105536831D03*
X70780000Y-107536831D03*
X72780000Y-107536831D03*
X172050000Y-68000100D03*
X174050000Y-68000100D03*
X172050000Y-70000100D03*
X174050000Y-70000100D03*
X172050000Y-72000100D03*
X174050000Y-72000100D03*
X172050000Y-74000100D03*
X174050000Y-74000100D03*
X172050000Y-76000000D03*
X174050000Y-76000000D03*
X172050000Y-78000000D03*
X174050000Y-78000000D03*
X172050000Y-80000000D03*
X174050000Y-80000000D03*
X172050000Y-82000000D03*
X174050000Y-82000000D03*
X172050000Y-84000000D03*
X174050000Y-84000000D03*
X172050000Y-86000000D03*
X174050000Y-86000000D03*
X172050000Y-88000000D03*
X174050000Y-88000000D03*
X172050000Y-90000000D03*
X174050000Y-90000000D03*
X172050000Y-92000000D03*
X174050000Y-92000000D03*
X172050000Y-94000000D03*
X174050000Y-94000000D03*
X172050000Y-96000000D03*
X174050000Y-96000000D03*
X172050000Y-98000000D03*
X174050000Y-98000000D03*
X172050000Y-100000000D03*
X174050000Y-100000000D03*
X172050000Y-102000000D03*
X174050000Y-102000000D03*
X172050000Y-104000000D03*
X174050000Y-104000000D03*
X172050000Y-106000000D03*
X174050000Y-106000000D03*
%TD*%
D12*
%TO.C,J8*%
X147152000Y-62415000D03*
D13*
X147157000Y-48910000D03*
D14*
X153162000Y-52070000D03*
D15*
X153162000Y-59270000D03*
%TD*%
D16*
%TO.C,J5*%
X139350000Y-37782000D03*
X109380000Y-37782000D03*
%TD*%
M02*
