%TF.GenerationSoftware,KiCad,Pcbnew,7.0.1-0*%
%TF.CreationDate,2023-10-23T10:38:47-07:00*%
%TF.ProjectId,MOSFET-board,4d4f5346-4554-42d6-926f-6172642e6b69,rev?*%
%TF.SameCoordinates,Original*%
%TF.FileFunction,Legend,Bot*%
%TF.FilePolarity,Positive*%
%FSLAX46Y46*%
G04 Gerber Fmt 4.6, Leading zero omitted, Abs format (unit mm)*
G04 Created by KiCad (PCBNEW 7.0.1-0) date 2023-10-23 10:38:47*
%MOMM*%
%LPD*%
G01*
G04 APERTURE LIST*
%ADD10C,0.150000*%
%ADD11C,0.127000*%
%ADD12C,0.120000*%
%ADD13C,0.200000*%
G04 APERTURE END LIST*
D10*
%TO.C,F8*%
X190513333Y-98483809D02*
X190846666Y-98483809D01*
X190846666Y-99007619D02*
X190846666Y-98007619D01*
X190846666Y-98007619D02*
X190370476Y-98007619D01*
X189846666Y-98436190D02*
X189941904Y-98388571D01*
X189941904Y-98388571D02*
X189989523Y-98340952D01*
X189989523Y-98340952D02*
X190037142Y-98245714D01*
X190037142Y-98245714D02*
X190037142Y-98198095D01*
X190037142Y-98198095D02*
X189989523Y-98102857D01*
X189989523Y-98102857D02*
X189941904Y-98055238D01*
X189941904Y-98055238D02*
X189846666Y-98007619D01*
X189846666Y-98007619D02*
X189656190Y-98007619D01*
X189656190Y-98007619D02*
X189560952Y-98055238D01*
X189560952Y-98055238D02*
X189513333Y-98102857D01*
X189513333Y-98102857D02*
X189465714Y-98198095D01*
X189465714Y-98198095D02*
X189465714Y-98245714D01*
X189465714Y-98245714D02*
X189513333Y-98340952D01*
X189513333Y-98340952D02*
X189560952Y-98388571D01*
X189560952Y-98388571D02*
X189656190Y-98436190D01*
X189656190Y-98436190D02*
X189846666Y-98436190D01*
X189846666Y-98436190D02*
X189941904Y-98483809D01*
X189941904Y-98483809D02*
X189989523Y-98531428D01*
X189989523Y-98531428D02*
X190037142Y-98626666D01*
X190037142Y-98626666D02*
X190037142Y-98817142D01*
X190037142Y-98817142D02*
X189989523Y-98912380D01*
X189989523Y-98912380D02*
X189941904Y-98960000D01*
X189941904Y-98960000D02*
X189846666Y-99007619D01*
X189846666Y-99007619D02*
X189656190Y-99007619D01*
X189656190Y-99007619D02*
X189560952Y-98960000D01*
X189560952Y-98960000D02*
X189513333Y-98912380D01*
X189513333Y-98912380D02*
X189465714Y-98817142D01*
X189465714Y-98817142D02*
X189465714Y-98626666D01*
X189465714Y-98626666D02*
X189513333Y-98531428D01*
X189513333Y-98531428D02*
X189560952Y-98483809D01*
X189560952Y-98483809D02*
X189656190Y-98436190D01*
%TO.C,R97*%
X178962619Y-87127142D02*
X178486428Y-86793809D01*
X178962619Y-86555714D02*
X177962619Y-86555714D01*
X177962619Y-86555714D02*
X177962619Y-86936666D01*
X177962619Y-86936666D02*
X178010238Y-87031904D01*
X178010238Y-87031904D02*
X178057857Y-87079523D01*
X178057857Y-87079523D02*
X178153095Y-87127142D01*
X178153095Y-87127142D02*
X178295952Y-87127142D01*
X178295952Y-87127142D02*
X178391190Y-87079523D01*
X178391190Y-87079523D02*
X178438809Y-87031904D01*
X178438809Y-87031904D02*
X178486428Y-86936666D01*
X178486428Y-86936666D02*
X178486428Y-86555714D01*
X178962619Y-87603333D02*
X178962619Y-87793809D01*
X178962619Y-87793809D02*
X178915000Y-87889047D01*
X178915000Y-87889047D02*
X178867380Y-87936666D01*
X178867380Y-87936666D02*
X178724523Y-88031904D01*
X178724523Y-88031904D02*
X178534047Y-88079523D01*
X178534047Y-88079523D02*
X178153095Y-88079523D01*
X178153095Y-88079523D02*
X178057857Y-88031904D01*
X178057857Y-88031904D02*
X178010238Y-87984285D01*
X178010238Y-87984285D02*
X177962619Y-87889047D01*
X177962619Y-87889047D02*
X177962619Y-87698571D01*
X177962619Y-87698571D02*
X178010238Y-87603333D01*
X178010238Y-87603333D02*
X178057857Y-87555714D01*
X178057857Y-87555714D02*
X178153095Y-87508095D01*
X178153095Y-87508095D02*
X178391190Y-87508095D01*
X178391190Y-87508095D02*
X178486428Y-87555714D01*
X178486428Y-87555714D02*
X178534047Y-87603333D01*
X178534047Y-87603333D02*
X178581666Y-87698571D01*
X178581666Y-87698571D02*
X178581666Y-87889047D01*
X178581666Y-87889047D02*
X178534047Y-87984285D01*
X178534047Y-87984285D02*
X178486428Y-88031904D01*
X178486428Y-88031904D02*
X178391190Y-88079523D01*
X177962619Y-88412857D02*
X177962619Y-89079523D01*
X177962619Y-89079523D02*
X178962619Y-88650952D01*
%TO.C,R26*%
X184372857Y-97687619D02*
X184706190Y-97211428D01*
X184944285Y-97687619D02*
X184944285Y-96687619D01*
X184944285Y-96687619D02*
X184563333Y-96687619D01*
X184563333Y-96687619D02*
X184468095Y-96735238D01*
X184468095Y-96735238D02*
X184420476Y-96782857D01*
X184420476Y-96782857D02*
X184372857Y-96878095D01*
X184372857Y-96878095D02*
X184372857Y-97020952D01*
X184372857Y-97020952D02*
X184420476Y-97116190D01*
X184420476Y-97116190D02*
X184468095Y-97163809D01*
X184468095Y-97163809D02*
X184563333Y-97211428D01*
X184563333Y-97211428D02*
X184944285Y-97211428D01*
X183991904Y-96782857D02*
X183944285Y-96735238D01*
X183944285Y-96735238D02*
X183849047Y-96687619D01*
X183849047Y-96687619D02*
X183610952Y-96687619D01*
X183610952Y-96687619D02*
X183515714Y-96735238D01*
X183515714Y-96735238D02*
X183468095Y-96782857D01*
X183468095Y-96782857D02*
X183420476Y-96878095D01*
X183420476Y-96878095D02*
X183420476Y-96973333D01*
X183420476Y-96973333D02*
X183468095Y-97116190D01*
X183468095Y-97116190D02*
X184039523Y-97687619D01*
X184039523Y-97687619D02*
X183420476Y-97687619D01*
X182563333Y-96687619D02*
X182753809Y-96687619D01*
X182753809Y-96687619D02*
X182849047Y-96735238D01*
X182849047Y-96735238D02*
X182896666Y-96782857D01*
X182896666Y-96782857D02*
X182991904Y-96925714D01*
X182991904Y-96925714D02*
X183039523Y-97116190D01*
X183039523Y-97116190D02*
X183039523Y-97497142D01*
X183039523Y-97497142D02*
X182991904Y-97592380D01*
X182991904Y-97592380D02*
X182944285Y-97640000D01*
X182944285Y-97640000D02*
X182849047Y-97687619D01*
X182849047Y-97687619D02*
X182658571Y-97687619D01*
X182658571Y-97687619D02*
X182563333Y-97640000D01*
X182563333Y-97640000D02*
X182515714Y-97592380D01*
X182515714Y-97592380D02*
X182468095Y-97497142D01*
X182468095Y-97497142D02*
X182468095Y-97259047D01*
X182468095Y-97259047D02*
X182515714Y-97163809D01*
X182515714Y-97163809D02*
X182563333Y-97116190D01*
X182563333Y-97116190D02*
X182658571Y-97068571D01*
X182658571Y-97068571D02*
X182849047Y-97068571D01*
X182849047Y-97068571D02*
X182944285Y-97116190D01*
X182944285Y-97116190D02*
X182991904Y-97163809D01*
X182991904Y-97163809D02*
X183039523Y-97259047D01*
%TO.C,D48*%
X187664285Y-123087619D02*
X187664285Y-122087619D01*
X187664285Y-122087619D02*
X187426190Y-122087619D01*
X187426190Y-122087619D02*
X187283333Y-122135238D01*
X187283333Y-122135238D02*
X187188095Y-122230476D01*
X187188095Y-122230476D02*
X187140476Y-122325714D01*
X187140476Y-122325714D02*
X187092857Y-122516190D01*
X187092857Y-122516190D02*
X187092857Y-122659047D01*
X187092857Y-122659047D02*
X187140476Y-122849523D01*
X187140476Y-122849523D02*
X187188095Y-122944761D01*
X187188095Y-122944761D02*
X187283333Y-123040000D01*
X187283333Y-123040000D02*
X187426190Y-123087619D01*
X187426190Y-123087619D02*
X187664285Y-123087619D01*
X186235714Y-122420952D02*
X186235714Y-123087619D01*
X186473809Y-122040000D02*
X186711904Y-122754285D01*
X186711904Y-122754285D02*
X186092857Y-122754285D01*
X185569047Y-122516190D02*
X185664285Y-122468571D01*
X185664285Y-122468571D02*
X185711904Y-122420952D01*
X185711904Y-122420952D02*
X185759523Y-122325714D01*
X185759523Y-122325714D02*
X185759523Y-122278095D01*
X185759523Y-122278095D02*
X185711904Y-122182857D01*
X185711904Y-122182857D02*
X185664285Y-122135238D01*
X185664285Y-122135238D02*
X185569047Y-122087619D01*
X185569047Y-122087619D02*
X185378571Y-122087619D01*
X185378571Y-122087619D02*
X185283333Y-122135238D01*
X185283333Y-122135238D02*
X185235714Y-122182857D01*
X185235714Y-122182857D02*
X185188095Y-122278095D01*
X185188095Y-122278095D02*
X185188095Y-122325714D01*
X185188095Y-122325714D02*
X185235714Y-122420952D01*
X185235714Y-122420952D02*
X185283333Y-122468571D01*
X185283333Y-122468571D02*
X185378571Y-122516190D01*
X185378571Y-122516190D02*
X185569047Y-122516190D01*
X185569047Y-122516190D02*
X185664285Y-122563809D01*
X185664285Y-122563809D02*
X185711904Y-122611428D01*
X185711904Y-122611428D02*
X185759523Y-122706666D01*
X185759523Y-122706666D02*
X185759523Y-122897142D01*
X185759523Y-122897142D02*
X185711904Y-122992380D01*
X185711904Y-122992380D02*
X185664285Y-123040000D01*
X185664285Y-123040000D02*
X185569047Y-123087619D01*
X185569047Y-123087619D02*
X185378571Y-123087619D01*
X185378571Y-123087619D02*
X185283333Y-123040000D01*
X185283333Y-123040000D02*
X185235714Y-122992380D01*
X185235714Y-122992380D02*
X185188095Y-122897142D01*
X185188095Y-122897142D02*
X185188095Y-122706666D01*
X185188095Y-122706666D02*
X185235714Y-122611428D01*
X185235714Y-122611428D02*
X185283333Y-122563809D01*
X185283333Y-122563809D02*
X185378571Y-122516190D01*
%TO.C,R107*%
X194747619Y-84125952D02*
X194271428Y-83792619D01*
X194747619Y-83554524D02*
X193747619Y-83554524D01*
X193747619Y-83554524D02*
X193747619Y-83935476D01*
X193747619Y-83935476D02*
X193795238Y-84030714D01*
X193795238Y-84030714D02*
X193842857Y-84078333D01*
X193842857Y-84078333D02*
X193938095Y-84125952D01*
X193938095Y-84125952D02*
X194080952Y-84125952D01*
X194080952Y-84125952D02*
X194176190Y-84078333D01*
X194176190Y-84078333D02*
X194223809Y-84030714D01*
X194223809Y-84030714D02*
X194271428Y-83935476D01*
X194271428Y-83935476D02*
X194271428Y-83554524D01*
X194747619Y-85078333D02*
X194747619Y-84506905D01*
X194747619Y-84792619D02*
X193747619Y-84792619D01*
X193747619Y-84792619D02*
X193890476Y-84697381D01*
X193890476Y-84697381D02*
X193985714Y-84602143D01*
X193985714Y-84602143D02*
X194033333Y-84506905D01*
X193747619Y-85697381D02*
X193747619Y-85792619D01*
X193747619Y-85792619D02*
X193795238Y-85887857D01*
X193795238Y-85887857D02*
X193842857Y-85935476D01*
X193842857Y-85935476D02*
X193938095Y-85983095D01*
X193938095Y-85983095D02*
X194128571Y-86030714D01*
X194128571Y-86030714D02*
X194366666Y-86030714D01*
X194366666Y-86030714D02*
X194557142Y-85983095D01*
X194557142Y-85983095D02*
X194652380Y-85935476D01*
X194652380Y-85935476D02*
X194700000Y-85887857D01*
X194700000Y-85887857D02*
X194747619Y-85792619D01*
X194747619Y-85792619D02*
X194747619Y-85697381D01*
X194747619Y-85697381D02*
X194700000Y-85602143D01*
X194700000Y-85602143D02*
X194652380Y-85554524D01*
X194652380Y-85554524D02*
X194557142Y-85506905D01*
X194557142Y-85506905D02*
X194366666Y-85459286D01*
X194366666Y-85459286D02*
X194128571Y-85459286D01*
X194128571Y-85459286D02*
X193938095Y-85506905D01*
X193938095Y-85506905D02*
X193842857Y-85554524D01*
X193842857Y-85554524D02*
X193795238Y-85602143D01*
X193795238Y-85602143D02*
X193747619Y-85697381D01*
X193747619Y-86364048D02*
X193747619Y-87030714D01*
X193747619Y-87030714D02*
X194747619Y-86602143D01*
%TO.C,F9*%
X194408333Y-121543809D02*
X194741666Y-121543809D01*
X194741666Y-122067619D02*
X194741666Y-121067619D01*
X194741666Y-121067619D02*
X194265476Y-121067619D01*
X193836904Y-122067619D02*
X193646428Y-122067619D01*
X193646428Y-122067619D02*
X193551190Y-122020000D01*
X193551190Y-122020000D02*
X193503571Y-121972380D01*
X193503571Y-121972380D02*
X193408333Y-121829523D01*
X193408333Y-121829523D02*
X193360714Y-121639047D01*
X193360714Y-121639047D02*
X193360714Y-121258095D01*
X193360714Y-121258095D02*
X193408333Y-121162857D01*
X193408333Y-121162857D02*
X193455952Y-121115238D01*
X193455952Y-121115238D02*
X193551190Y-121067619D01*
X193551190Y-121067619D02*
X193741666Y-121067619D01*
X193741666Y-121067619D02*
X193836904Y-121115238D01*
X193836904Y-121115238D02*
X193884523Y-121162857D01*
X193884523Y-121162857D02*
X193932142Y-121258095D01*
X193932142Y-121258095D02*
X193932142Y-121496190D01*
X193932142Y-121496190D02*
X193884523Y-121591428D01*
X193884523Y-121591428D02*
X193836904Y-121639047D01*
X193836904Y-121639047D02*
X193741666Y-121686666D01*
X193741666Y-121686666D02*
X193551190Y-121686666D01*
X193551190Y-121686666D02*
X193455952Y-121639047D01*
X193455952Y-121639047D02*
X193408333Y-121591428D01*
X193408333Y-121591428D02*
X193360714Y-121496190D01*
%TO.C,R78*%
X176157619Y-108207142D02*
X175681428Y-107873809D01*
X176157619Y-107635714D02*
X175157619Y-107635714D01*
X175157619Y-107635714D02*
X175157619Y-108016666D01*
X175157619Y-108016666D02*
X175205238Y-108111904D01*
X175205238Y-108111904D02*
X175252857Y-108159523D01*
X175252857Y-108159523D02*
X175348095Y-108207142D01*
X175348095Y-108207142D02*
X175490952Y-108207142D01*
X175490952Y-108207142D02*
X175586190Y-108159523D01*
X175586190Y-108159523D02*
X175633809Y-108111904D01*
X175633809Y-108111904D02*
X175681428Y-108016666D01*
X175681428Y-108016666D02*
X175681428Y-107635714D01*
X175157619Y-108540476D02*
X175157619Y-109207142D01*
X175157619Y-109207142D02*
X176157619Y-108778571D01*
X175586190Y-109730952D02*
X175538571Y-109635714D01*
X175538571Y-109635714D02*
X175490952Y-109588095D01*
X175490952Y-109588095D02*
X175395714Y-109540476D01*
X175395714Y-109540476D02*
X175348095Y-109540476D01*
X175348095Y-109540476D02*
X175252857Y-109588095D01*
X175252857Y-109588095D02*
X175205238Y-109635714D01*
X175205238Y-109635714D02*
X175157619Y-109730952D01*
X175157619Y-109730952D02*
X175157619Y-109921428D01*
X175157619Y-109921428D02*
X175205238Y-110016666D01*
X175205238Y-110016666D02*
X175252857Y-110064285D01*
X175252857Y-110064285D02*
X175348095Y-110111904D01*
X175348095Y-110111904D02*
X175395714Y-110111904D01*
X175395714Y-110111904D02*
X175490952Y-110064285D01*
X175490952Y-110064285D02*
X175538571Y-110016666D01*
X175538571Y-110016666D02*
X175586190Y-109921428D01*
X175586190Y-109921428D02*
X175586190Y-109730952D01*
X175586190Y-109730952D02*
X175633809Y-109635714D01*
X175633809Y-109635714D02*
X175681428Y-109588095D01*
X175681428Y-109588095D02*
X175776666Y-109540476D01*
X175776666Y-109540476D02*
X175967142Y-109540476D01*
X175967142Y-109540476D02*
X176062380Y-109588095D01*
X176062380Y-109588095D02*
X176110000Y-109635714D01*
X176110000Y-109635714D02*
X176157619Y-109730952D01*
X176157619Y-109730952D02*
X176157619Y-109921428D01*
X176157619Y-109921428D02*
X176110000Y-110016666D01*
X176110000Y-110016666D02*
X176062380Y-110064285D01*
X176062380Y-110064285D02*
X175967142Y-110111904D01*
X175967142Y-110111904D02*
X175776666Y-110111904D01*
X175776666Y-110111904D02*
X175681428Y-110064285D01*
X175681428Y-110064285D02*
X175633809Y-110016666D01*
X175633809Y-110016666D02*
X175586190Y-109921428D01*
%TO.C,R1*%
X143587619Y-116908333D02*
X143111428Y-116575000D01*
X143587619Y-116336905D02*
X142587619Y-116336905D01*
X142587619Y-116336905D02*
X142587619Y-116717857D01*
X142587619Y-116717857D02*
X142635238Y-116813095D01*
X142635238Y-116813095D02*
X142682857Y-116860714D01*
X142682857Y-116860714D02*
X142778095Y-116908333D01*
X142778095Y-116908333D02*
X142920952Y-116908333D01*
X142920952Y-116908333D02*
X143016190Y-116860714D01*
X143016190Y-116860714D02*
X143063809Y-116813095D01*
X143063809Y-116813095D02*
X143111428Y-116717857D01*
X143111428Y-116717857D02*
X143111428Y-116336905D01*
X143587619Y-117860714D02*
X143587619Y-117289286D01*
X143587619Y-117575000D02*
X142587619Y-117575000D01*
X142587619Y-117575000D02*
X142730476Y-117479762D01*
X142730476Y-117479762D02*
X142825714Y-117384524D01*
X142825714Y-117384524D02*
X142873333Y-117289286D01*
%TO.C,R71*%
X142887619Y-109982142D02*
X142411428Y-109648809D01*
X142887619Y-109410714D02*
X141887619Y-109410714D01*
X141887619Y-109410714D02*
X141887619Y-109791666D01*
X141887619Y-109791666D02*
X141935238Y-109886904D01*
X141935238Y-109886904D02*
X141982857Y-109934523D01*
X141982857Y-109934523D02*
X142078095Y-109982142D01*
X142078095Y-109982142D02*
X142220952Y-109982142D01*
X142220952Y-109982142D02*
X142316190Y-109934523D01*
X142316190Y-109934523D02*
X142363809Y-109886904D01*
X142363809Y-109886904D02*
X142411428Y-109791666D01*
X142411428Y-109791666D02*
X142411428Y-109410714D01*
X141887619Y-110315476D02*
X141887619Y-110982142D01*
X141887619Y-110982142D02*
X142887619Y-110553571D01*
X142887619Y-111886904D02*
X142887619Y-111315476D01*
X142887619Y-111601190D02*
X141887619Y-111601190D01*
X141887619Y-111601190D02*
X142030476Y-111505952D01*
X142030476Y-111505952D02*
X142125714Y-111410714D01*
X142125714Y-111410714D02*
X142173333Y-111315476D01*
%TO.C,D25*%
X184919285Y-94832619D02*
X184919285Y-93832619D01*
X184919285Y-93832619D02*
X184681190Y-93832619D01*
X184681190Y-93832619D02*
X184538333Y-93880238D01*
X184538333Y-93880238D02*
X184443095Y-93975476D01*
X184443095Y-93975476D02*
X184395476Y-94070714D01*
X184395476Y-94070714D02*
X184347857Y-94261190D01*
X184347857Y-94261190D02*
X184347857Y-94404047D01*
X184347857Y-94404047D02*
X184395476Y-94594523D01*
X184395476Y-94594523D02*
X184443095Y-94689761D01*
X184443095Y-94689761D02*
X184538333Y-94785000D01*
X184538333Y-94785000D02*
X184681190Y-94832619D01*
X184681190Y-94832619D02*
X184919285Y-94832619D01*
X183966904Y-93927857D02*
X183919285Y-93880238D01*
X183919285Y-93880238D02*
X183824047Y-93832619D01*
X183824047Y-93832619D02*
X183585952Y-93832619D01*
X183585952Y-93832619D02*
X183490714Y-93880238D01*
X183490714Y-93880238D02*
X183443095Y-93927857D01*
X183443095Y-93927857D02*
X183395476Y-94023095D01*
X183395476Y-94023095D02*
X183395476Y-94118333D01*
X183395476Y-94118333D02*
X183443095Y-94261190D01*
X183443095Y-94261190D02*
X184014523Y-94832619D01*
X184014523Y-94832619D02*
X183395476Y-94832619D01*
X182490714Y-93832619D02*
X182966904Y-93832619D01*
X182966904Y-93832619D02*
X183014523Y-94308809D01*
X183014523Y-94308809D02*
X182966904Y-94261190D01*
X182966904Y-94261190D02*
X182871666Y-94213571D01*
X182871666Y-94213571D02*
X182633571Y-94213571D01*
X182633571Y-94213571D02*
X182538333Y-94261190D01*
X182538333Y-94261190D02*
X182490714Y-94308809D01*
X182490714Y-94308809D02*
X182443095Y-94404047D01*
X182443095Y-94404047D02*
X182443095Y-94642142D01*
X182443095Y-94642142D02*
X182490714Y-94737380D01*
X182490714Y-94737380D02*
X182538333Y-94785000D01*
X182538333Y-94785000D02*
X182633571Y-94832619D01*
X182633571Y-94832619D02*
X182871666Y-94832619D01*
X182871666Y-94832619D02*
X182966904Y-94785000D01*
X182966904Y-94785000D02*
X183014523Y-94737380D01*
%TO.C,U29*%
X186452619Y-103844405D02*
X187262142Y-103844405D01*
X187262142Y-103844405D02*
X187357380Y-103892024D01*
X187357380Y-103892024D02*
X187405000Y-103939643D01*
X187405000Y-103939643D02*
X187452619Y-104034881D01*
X187452619Y-104034881D02*
X187452619Y-104225357D01*
X187452619Y-104225357D02*
X187405000Y-104320595D01*
X187405000Y-104320595D02*
X187357380Y-104368214D01*
X187357380Y-104368214D02*
X187262142Y-104415833D01*
X187262142Y-104415833D02*
X186452619Y-104415833D01*
X186547857Y-104844405D02*
X186500238Y-104892024D01*
X186500238Y-104892024D02*
X186452619Y-104987262D01*
X186452619Y-104987262D02*
X186452619Y-105225357D01*
X186452619Y-105225357D02*
X186500238Y-105320595D01*
X186500238Y-105320595D02*
X186547857Y-105368214D01*
X186547857Y-105368214D02*
X186643095Y-105415833D01*
X186643095Y-105415833D02*
X186738333Y-105415833D01*
X186738333Y-105415833D02*
X186881190Y-105368214D01*
X186881190Y-105368214D02*
X187452619Y-104796786D01*
X187452619Y-104796786D02*
X187452619Y-105415833D01*
X187452619Y-105892024D02*
X187452619Y-106082500D01*
X187452619Y-106082500D02*
X187405000Y-106177738D01*
X187405000Y-106177738D02*
X187357380Y-106225357D01*
X187357380Y-106225357D02*
X187214523Y-106320595D01*
X187214523Y-106320595D02*
X187024047Y-106368214D01*
X187024047Y-106368214D02*
X186643095Y-106368214D01*
X186643095Y-106368214D02*
X186547857Y-106320595D01*
X186547857Y-106320595D02*
X186500238Y-106272976D01*
X186500238Y-106272976D02*
X186452619Y-106177738D01*
X186452619Y-106177738D02*
X186452619Y-105987262D01*
X186452619Y-105987262D02*
X186500238Y-105892024D01*
X186500238Y-105892024D02*
X186547857Y-105844405D01*
X186547857Y-105844405D02*
X186643095Y-105796786D01*
X186643095Y-105796786D02*
X186881190Y-105796786D01*
X186881190Y-105796786D02*
X186976428Y-105844405D01*
X186976428Y-105844405D02*
X187024047Y-105892024D01*
X187024047Y-105892024D02*
X187071666Y-105987262D01*
X187071666Y-105987262D02*
X187071666Y-106177738D01*
X187071666Y-106177738D02*
X187024047Y-106272976D01*
X187024047Y-106272976D02*
X186976428Y-106320595D01*
X186976428Y-106320595D02*
X186881190Y-106368214D01*
%TO.C,U7*%
X134241904Y-108172619D02*
X134241904Y-108982142D01*
X134241904Y-108982142D02*
X134194285Y-109077380D01*
X134194285Y-109077380D02*
X134146666Y-109125000D01*
X134146666Y-109125000D02*
X134051428Y-109172619D01*
X134051428Y-109172619D02*
X133860952Y-109172619D01*
X133860952Y-109172619D02*
X133765714Y-109125000D01*
X133765714Y-109125000D02*
X133718095Y-109077380D01*
X133718095Y-109077380D02*
X133670476Y-108982142D01*
X133670476Y-108982142D02*
X133670476Y-108172619D01*
X133289523Y-108172619D02*
X132622857Y-108172619D01*
X132622857Y-108172619D02*
X133051428Y-109172619D01*
%TO.C,F2*%
X131274404Y-115472808D02*
X131607737Y-115472808D01*
X131607737Y-115996618D02*
X131607737Y-114996618D01*
X131607737Y-114996618D02*
X131131547Y-114996618D01*
X130798213Y-115091856D02*
X130750594Y-115044237D01*
X130750594Y-115044237D02*
X130655356Y-114996618D01*
X130655356Y-114996618D02*
X130417261Y-114996618D01*
X130417261Y-114996618D02*
X130322023Y-115044237D01*
X130322023Y-115044237D02*
X130274404Y-115091856D01*
X130274404Y-115091856D02*
X130226785Y-115187094D01*
X130226785Y-115187094D02*
X130226785Y-115282332D01*
X130226785Y-115282332D02*
X130274404Y-115425189D01*
X130274404Y-115425189D02*
X130845832Y-115996618D01*
X130845832Y-115996618D02*
X130226785Y-115996618D01*
%TO.C,D47*%
X184864285Y-100637619D02*
X184864285Y-99637619D01*
X184864285Y-99637619D02*
X184626190Y-99637619D01*
X184626190Y-99637619D02*
X184483333Y-99685238D01*
X184483333Y-99685238D02*
X184388095Y-99780476D01*
X184388095Y-99780476D02*
X184340476Y-99875714D01*
X184340476Y-99875714D02*
X184292857Y-100066190D01*
X184292857Y-100066190D02*
X184292857Y-100209047D01*
X184292857Y-100209047D02*
X184340476Y-100399523D01*
X184340476Y-100399523D02*
X184388095Y-100494761D01*
X184388095Y-100494761D02*
X184483333Y-100590000D01*
X184483333Y-100590000D02*
X184626190Y-100637619D01*
X184626190Y-100637619D02*
X184864285Y-100637619D01*
X183435714Y-99970952D02*
X183435714Y-100637619D01*
X183673809Y-99590000D02*
X183911904Y-100304285D01*
X183911904Y-100304285D02*
X183292857Y-100304285D01*
X183007142Y-99637619D02*
X182340476Y-99637619D01*
X182340476Y-99637619D02*
X182769047Y-100637619D01*
%TO.C,R77*%
X176087619Y-87177142D02*
X175611428Y-86843809D01*
X176087619Y-86605714D02*
X175087619Y-86605714D01*
X175087619Y-86605714D02*
X175087619Y-86986666D01*
X175087619Y-86986666D02*
X175135238Y-87081904D01*
X175135238Y-87081904D02*
X175182857Y-87129523D01*
X175182857Y-87129523D02*
X175278095Y-87177142D01*
X175278095Y-87177142D02*
X175420952Y-87177142D01*
X175420952Y-87177142D02*
X175516190Y-87129523D01*
X175516190Y-87129523D02*
X175563809Y-87081904D01*
X175563809Y-87081904D02*
X175611428Y-86986666D01*
X175611428Y-86986666D02*
X175611428Y-86605714D01*
X175087619Y-87510476D02*
X175087619Y-88177142D01*
X175087619Y-88177142D02*
X176087619Y-87748571D01*
X175087619Y-88462857D02*
X175087619Y-89129523D01*
X175087619Y-89129523D02*
X176087619Y-88700952D01*
%TO.C,R5*%
X143517369Y-95719333D02*
X143041178Y-95386000D01*
X143517369Y-95147905D02*
X142517369Y-95147905D01*
X142517369Y-95147905D02*
X142517369Y-95528857D01*
X142517369Y-95528857D02*
X142564988Y-95624095D01*
X142564988Y-95624095D02*
X142612607Y-95671714D01*
X142612607Y-95671714D02*
X142707845Y-95719333D01*
X142707845Y-95719333D02*
X142850702Y-95719333D01*
X142850702Y-95719333D02*
X142945940Y-95671714D01*
X142945940Y-95671714D02*
X142993559Y-95624095D01*
X142993559Y-95624095D02*
X143041178Y-95528857D01*
X143041178Y-95528857D02*
X143041178Y-95147905D01*
X142517369Y-96624095D02*
X142517369Y-96147905D01*
X142517369Y-96147905D02*
X142993559Y-96100286D01*
X142993559Y-96100286D02*
X142945940Y-96147905D01*
X142945940Y-96147905D02*
X142898321Y-96243143D01*
X142898321Y-96243143D02*
X142898321Y-96481238D01*
X142898321Y-96481238D02*
X142945940Y-96576476D01*
X142945940Y-96576476D02*
X142993559Y-96624095D01*
X142993559Y-96624095D02*
X143088797Y-96671714D01*
X143088797Y-96671714D02*
X143326892Y-96671714D01*
X143326892Y-96671714D02*
X143422130Y-96624095D01*
X143422130Y-96624095D02*
X143469750Y-96576476D01*
X143469750Y-96576476D02*
X143517369Y-96481238D01*
X143517369Y-96481238D02*
X143517369Y-96243143D01*
X143517369Y-96243143D02*
X143469750Y-96147905D01*
X143469750Y-96147905D02*
X143422130Y-96100286D01*
%TO.C,R88*%
X176842857Y-106337619D02*
X177176190Y-105861428D01*
X177414285Y-106337619D02*
X177414285Y-105337619D01*
X177414285Y-105337619D02*
X177033333Y-105337619D01*
X177033333Y-105337619D02*
X176938095Y-105385238D01*
X176938095Y-105385238D02*
X176890476Y-105432857D01*
X176890476Y-105432857D02*
X176842857Y-105528095D01*
X176842857Y-105528095D02*
X176842857Y-105670952D01*
X176842857Y-105670952D02*
X176890476Y-105766190D01*
X176890476Y-105766190D02*
X176938095Y-105813809D01*
X176938095Y-105813809D02*
X177033333Y-105861428D01*
X177033333Y-105861428D02*
X177414285Y-105861428D01*
X176271428Y-105766190D02*
X176366666Y-105718571D01*
X176366666Y-105718571D02*
X176414285Y-105670952D01*
X176414285Y-105670952D02*
X176461904Y-105575714D01*
X176461904Y-105575714D02*
X176461904Y-105528095D01*
X176461904Y-105528095D02*
X176414285Y-105432857D01*
X176414285Y-105432857D02*
X176366666Y-105385238D01*
X176366666Y-105385238D02*
X176271428Y-105337619D01*
X176271428Y-105337619D02*
X176080952Y-105337619D01*
X176080952Y-105337619D02*
X175985714Y-105385238D01*
X175985714Y-105385238D02*
X175938095Y-105432857D01*
X175938095Y-105432857D02*
X175890476Y-105528095D01*
X175890476Y-105528095D02*
X175890476Y-105575714D01*
X175890476Y-105575714D02*
X175938095Y-105670952D01*
X175938095Y-105670952D02*
X175985714Y-105718571D01*
X175985714Y-105718571D02*
X176080952Y-105766190D01*
X176080952Y-105766190D02*
X176271428Y-105766190D01*
X176271428Y-105766190D02*
X176366666Y-105813809D01*
X176366666Y-105813809D02*
X176414285Y-105861428D01*
X176414285Y-105861428D02*
X176461904Y-105956666D01*
X176461904Y-105956666D02*
X176461904Y-106147142D01*
X176461904Y-106147142D02*
X176414285Y-106242380D01*
X176414285Y-106242380D02*
X176366666Y-106290000D01*
X176366666Y-106290000D02*
X176271428Y-106337619D01*
X176271428Y-106337619D02*
X176080952Y-106337619D01*
X176080952Y-106337619D02*
X175985714Y-106290000D01*
X175985714Y-106290000D02*
X175938095Y-106242380D01*
X175938095Y-106242380D02*
X175890476Y-106147142D01*
X175890476Y-106147142D02*
X175890476Y-105956666D01*
X175890476Y-105956666D02*
X175938095Y-105861428D01*
X175938095Y-105861428D02*
X175985714Y-105813809D01*
X175985714Y-105813809D02*
X176080952Y-105766190D01*
X175319047Y-105766190D02*
X175414285Y-105718571D01*
X175414285Y-105718571D02*
X175461904Y-105670952D01*
X175461904Y-105670952D02*
X175509523Y-105575714D01*
X175509523Y-105575714D02*
X175509523Y-105528095D01*
X175509523Y-105528095D02*
X175461904Y-105432857D01*
X175461904Y-105432857D02*
X175414285Y-105385238D01*
X175414285Y-105385238D02*
X175319047Y-105337619D01*
X175319047Y-105337619D02*
X175128571Y-105337619D01*
X175128571Y-105337619D02*
X175033333Y-105385238D01*
X175033333Y-105385238D02*
X174985714Y-105432857D01*
X174985714Y-105432857D02*
X174938095Y-105528095D01*
X174938095Y-105528095D02*
X174938095Y-105575714D01*
X174938095Y-105575714D02*
X174985714Y-105670952D01*
X174985714Y-105670952D02*
X175033333Y-105718571D01*
X175033333Y-105718571D02*
X175128571Y-105766190D01*
X175128571Y-105766190D02*
X175319047Y-105766190D01*
X175319047Y-105766190D02*
X175414285Y-105813809D01*
X175414285Y-105813809D02*
X175461904Y-105861428D01*
X175461904Y-105861428D02*
X175509523Y-105956666D01*
X175509523Y-105956666D02*
X175509523Y-106147142D01*
X175509523Y-106147142D02*
X175461904Y-106242380D01*
X175461904Y-106242380D02*
X175414285Y-106290000D01*
X175414285Y-106290000D02*
X175319047Y-106337619D01*
X175319047Y-106337619D02*
X175128571Y-106337619D01*
X175128571Y-106337619D02*
X175033333Y-106290000D01*
X175033333Y-106290000D02*
X174985714Y-106242380D01*
X174985714Y-106242380D02*
X174938095Y-106147142D01*
X174938095Y-106147142D02*
X174938095Y-105956666D01*
X174938095Y-105956666D02*
X174985714Y-105861428D01*
X174985714Y-105861428D02*
X175033333Y-105813809D01*
X175033333Y-105813809D02*
X175128571Y-105766190D01*
%TO.C,D5*%
X139367844Y-97148619D02*
X139367844Y-96148619D01*
X139367844Y-96148619D02*
X139129749Y-96148619D01*
X139129749Y-96148619D02*
X138986892Y-96196238D01*
X138986892Y-96196238D02*
X138891654Y-96291476D01*
X138891654Y-96291476D02*
X138844035Y-96386714D01*
X138844035Y-96386714D02*
X138796416Y-96577190D01*
X138796416Y-96577190D02*
X138796416Y-96720047D01*
X138796416Y-96720047D02*
X138844035Y-96910523D01*
X138844035Y-96910523D02*
X138891654Y-97005761D01*
X138891654Y-97005761D02*
X138986892Y-97101000D01*
X138986892Y-97101000D02*
X139129749Y-97148619D01*
X139129749Y-97148619D02*
X139367844Y-97148619D01*
X137891654Y-96148619D02*
X138367844Y-96148619D01*
X138367844Y-96148619D02*
X138415463Y-96624809D01*
X138415463Y-96624809D02*
X138367844Y-96577190D01*
X138367844Y-96577190D02*
X138272606Y-96529571D01*
X138272606Y-96529571D02*
X138034511Y-96529571D01*
X138034511Y-96529571D02*
X137939273Y-96577190D01*
X137939273Y-96577190D02*
X137891654Y-96624809D01*
X137891654Y-96624809D02*
X137844035Y-96720047D01*
X137844035Y-96720047D02*
X137844035Y-96958142D01*
X137844035Y-96958142D02*
X137891654Y-97053380D01*
X137891654Y-97053380D02*
X137939273Y-97101000D01*
X137939273Y-97101000D02*
X138034511Y-97148619D01*
X138034511Y-97148619D02*
X138272606Y-97148619D01*
X138272606Y-97148619D02*
X138367844Y-97101000D01*
X138367844Y-97101000D02*
X138415463Y-97053380D01*
%TO.C,R102*%
X131097369Y-88841952D02*
X130621178Y-88508619D01*
X131097369Y-88270524D02*
X130097369Y-88270524D01*
X130097369Y-88270524D02*
X130097369Y-88651476D01*
X130097369Y-88651476D02*
X130144988Y-88746714D01*
X130144988Y-88746714D02*
X130192607Y-88794333D01*
X130192607Y-88794333D02*
X130287845Y-88841952D01*
X130287845Y-88841952D02*
X130430702Y-88841952D01*
X130430702Y-88841952D02*
X130525940Y-88794333D01*
X130525940Y-88794333D02*
X130573559Y-88746714D01*
X130573559Y-88746714D02*
X130621178Y-88651476D01*
X130621178Y-88651476D02*
X130621178Y-88270524D01*
X131097369Y-89794333D02*
X131097369Y-89222905D01*
X131097369Y-89508619D02*
X130097369Y-89508619D01*
X130097369Y-89508619D02*
X130240226Y-89413381D01*
X130240226Y-89413381D02*
X130335464Y-89318143D01*
X130335464Y-89318143D02*
X130383083Y-89222905D01*
X130097369Y-90413381D02*
X130097369Y-90508619D01*
X130097369Y-90508619D02*
X130144988Y-90603857D01*
X130144988Y-90603857D02*
X130192607Y-90651476D01*
X130192607Y-90651476D02*
X130287845Y-90699095D01*
X130287845Y-90699095D02*
X130478321Y-90746714D01*
X130478321Y-90746714D02*
X130716416Y-90746714D01*
X130716416Y-90746714D02*
X130906892Y-90699095D01*
X130906892Y-90699095D02*
X131002130Y-90651476D01*
X131002130Y-90651476D02*
X131049750Y-90603857D01*
X131049750Y-90603857D02*
X131097369Y-90508619D01*
X131097369Y-90508619D02*
X131097369Y-90413381D01*
X131097369Y-90413381D02*
X131049750Y-90318143D01*
X131049750Y-90318143D02*
X131002130Y-90270524D01*
X131002130Y-90270524D02*
X130906892Y-90222905D01*
X130906892Y-90222905D02*
X130716416Y-90175286D01*
X130716416Y-90175286D02*
X130478321Y-90175286D01*
X130478321Y-90175286D02*
X130287845Y-90222905D01*
X130287845Y-90222905D02*
X130192607Y-90270524D01*
X130192607Y-90270524D02*
X130144988Y-90318143D01*
X130144988Y-90318143D02*
X130097369Y-90413381D01*
X130192607Y-91127667D02*
X130144988Y-91175286D01*
X130144988Y-91175286D02*
X130097369Y-91270524D01*
X130097369Y-91270524D02*
X130097369Y-91508619D01*
X130097369Y-91508619D02*
X130144988Y-91603857D01*
X130144988Y-91603857D02*
X130192607Y-91651476D01*
X130192607Y-91651476D02*
X130287845Y-91699095D01*
X130287845Y-91699095D02*
X130383083Y-91699095D01*
X130383083Y-91699095D02*
X130525940Y-91651476D01*
X130525940Y-91651476D02*
X131097369Y-91080048D01*
X131097369Y-91080048D02*
X131097369Y-91699095D01*
%TO.C,R2*%
X138670237Y-120687619D02*
X139003570Y-120211428D01*
X139241665Y-120687619D02*
X139241665Y-119687619D01*
X139241665Y-119687619D02*
X138860713Y-119687619D01*
X138860713Y-119687619D02*
X138765475Y-119735238D01*
X138765475Y-119735238D02*
X138717856Y-119782857D01*
X138717856Y-119782857D02*
X138670237Y-119878095D01*
X138670237Y-119878095D02*
X138670237Y-120020952D01*
X138670237Y-120020952D02*
X138717856Y-120116190D01*
X138717856Y-120116190D02*
X138765475Y-120163809D01*
X138765475Y-120163809D02*
X138860713Y-120211428D01*
X138860713Y-120211428D02*
X139241665Y-120211428D01*
X138289284Y-119782857D02*
X138241665Y-119735238D01*
X138241665Y-119735238D02*
X138146427Y-119687619D01*
X138146427Y-119687619D02*
X137908332Y-119687619D01*
X137908332Y-119687619D02*
X137813094Y-119735238D01*
X137813094Y-119735238D02*
X137765475Y-119782857D01*
X137765475Y-119782857D02*
X137717856Y-119878095D01*
X137717856Y-119878095D02*
X137717856Y-119973333D01*
X137717856Y-119973333D02*
X137765475Y-120116190D01*
X137765475Y-120116190D02*
X138336903Y-120687619D01*
X138336903Y-120687619D02*
X137717856Y-120687619D01*
%TO.C,R30*%
X187117857Y-120211269D02*
X187451190Y-119787936D01*
X187689285Y-120211269D02*
X187689285Y-119322269D01*
X187689285Y-119322269D02*
X187308333Y-119322269D01*
X187308333Y-119322269D02*
X187213095Y-119364602D01*
X187213095Y-119364602D02*
X187165476Y-119406936D01*
X187165476Y-119406936D02*
X187117857Y-119491602D01*
X187117857Y-119491602D02*
X187117857Y-119618602D01*
X187117857Y-119618602D02*
X187165476Y-119703269D01*
X187165476Y-119703269D02*
X187213095Y-119745602D01*
X187213095Y-119745602D02*
X187308333Y-119787936D01*
X187308333Y-119787936D02*
X187689285Y-119787936D01*
X186784523Y-119322269D02*
X186165476Y-119322269D01*
X186165476Y-119322269D02*
X186498809Y-119660936D01*
X186498809Y-119660936D02*
X186355952Y-119660936D01*
X186355952Y-119660936D02*
X186260714Y-119703269D01*
X186260714Y-119703269D02*
X186213095Y-119745602D01*
X186213095Y-119745602D02*
X186165476Y-119830269D01*
X186165476Y-119830269D02*
X186165476Y-120041936D01*
X186165476Y-120041936D02*
X186213095Y-120126602D01*
X186213095Y-120126602D02*
X186260714Y-120168936D01*
X186260714Y-120168936D02*
X186355952Y-120211269D01*
X186355952Y-120211269D02*
X186641666Y-120211269D01*
X186641666Y-120211269D02*
X186736904Y-120168936D01*
X186736904Y-120168936D02*
X186784523Y-120126602D01*
X185546428Y-119322269D02*
X185451190Y-119322269D01*
X185451190Y-119322269D02*
X185355952Y-119364602D01*
X185355952Y-119364602D02*
X185308333Y-119406936D01*
X185308333Y-119406936D02*
X185260714Y-119491602D01*
X185260714Y-119491602D02*
X185213095Y-119660936D01*
X185213095Y-119660936D02*
X185213095Y-119872602D01*
X185213095Y-119872602D02*
X185260714Y-120041936D01*
X185260714Y-120041936D02*
X185308333Y-120126602D01*
X185308333Y-120126602D02*
X185355952Y-120168936D01*
X185355952Y-120168936D02*
X185451190Y-120211269D01*
X185451190Y-120211269D02*
X185546428Y-120211269D01*
X185546428Y-120211269D02*
X185641666Y-120168936D01*
X185641666Y-120168936D02*
X185689285Y-120126602D01*
X185689285Y-120126602D02*
X185736904Y-120041936D01*
X185736904Y-120041936D02*
X185784523Y-119872602D01*
X185784523Y-119872602D02*
X185784523Y-119660936D01*
X185784523Y-119660936D02*
X185736904Y-119491602D01*
X185736904Y-119491602D02*
X185689285Y-119406936D01*
X185689285Y-119406936D02*
X185641666Y-119364602D01*
X185641666Y-119364602D02*
X185546428Y-119322269D01*
%TO.C,R91*%
X140121519Y-109957142D02*
X139661900Y-109623809D01*
X140121519Y-109385714D02*
X139156319Y-109385714D01*
X139156319Y-109385714D02*
X139156319Y-109766666D01*
X139156319Y-109766666D02*
X139202281Y-109861904D01*
X139202281Y-109861904D02*
X139248243Y-109909523D01*
X139248243Y-109909523D02*
X139340167Y-109957142D01*
X139340167Y-109957142D02*
X139478053Y-109957142D01*
X139478053Y-109957142D02*
X139569977Y-109909523D01*
X139569977Y-109909523D02*
X139615938Y-109861904D01*
X139615938Y-109861904D02*
X139661900Y-109766666D01*
X139661900Y-109766666D02*
X139661900Y-109385714D01*
X140121519Y-110433333D02*
X140121519Y-110623809D01*
X140121519Y-110623809D02*
X140075558Y-110719047D01*
X140075558Y-110719047D02*
X140029596Y-110766666D01*
X140029596Y-110766666D02*
X139891710Y-110861904D01*
X139891710Y-110861904D02*
X139707862Y-110909523D01*
X139707862Y-110909523D02*
X139340167Y-110909523D01*
X139340167Y-110909523D02*
X139248243Y-110861904D01*
X139248243Y-110861904D02*
X139202281Y-110814285D01*
X139202281Y-110814285D02*
X139156319Y-110719047D01*
X139156319Y-110719047D02*
X139156319Y-110528571D01*
X139156319Y-110528571D02*
X139202281Y-110433333D01*
X139202281Y-110433333D02*
X139248243Y-110385714D01*
X139248243Y-110385714D02*
X139340167Y-110338095D01*
X139340167Y-110338095D02*
X139569977Y-110338095D01*
X139569977Y-110338095D02*
X139661900Y-110385714D01*
X139661900Y-110385714D02*
X139707862Y-110433333D01*
X139707862Y-110433333D02*
X139753824Y-110528571D01*
X139753824Y-110528571D02*
X139753824Y-110719047D01*
X139753824Y-110719047D02*
X139707862Y-110814285D01*
X139707862Y-110814285D02*
X139661900Y-110861904D01*
X139661900Y-110861904D02*
X139569977Y-110909523D01*
X140121519Y-111861904D02*
X140121519Y-111290476D01*
X140121519Y-111576190D02*
X139156319Y-111576190D01*
X139156319Y-111576190D02*
X139294205Y-111480952D01*
X139294205Y-111480952D02*
X139386129Y-111385714D01*
X139386129Y-111385714D02*
X139432091Y-111290476D01*
%TO.C,R87*%
X179747857Y-83102619D02*
X180081190Y-82626428D01*
X180319285Y-83102619D02*
X180319285Y-82102619D01*
X180319285Y-82102619D02*
X179938333Y-82102619D01*
X179938333Y-82102619D02*
X179843095Y-82150238D01*
X179843095Y-82150238D02*
X179795476Y-82197857D01*
X179795476Y-82197857D02*
X179747857Y-82293095D01*
X179747857Y-82293095D02*
X179747857Y-82435952D01*
X179747857Y-82435952D02*
X179795476Y-82531190D01*
X179795476Y-82531190D02*
X179843095Y-82578809D01*
X179843095Y-82578809D02*
X179938333Y-82626428D01*
X179938333Y-82626428D02*
X180319285Y-82626428D01*
X179176428Y-82531190D02*
X179271666Y-82483571D01*
X179271666Y-82483571D02*
X179319285Y-82435952D01*
X179319285Y-82435952D02*
X179366904Y-82340714D01*
X179366904Y-82340714D02*
X179366904Y-82293095D01*
X179366904Y-82293095D02*
X179319285Y-82197857D01*
X179319285Y-82197857D02*
X179271666Y-82150238D01*
X179271666Y-82150238D02*
X179176428Y-82102619D01*
X179176428Y-82102619D02*
X178985952Y-82102619D01*
X178985952Y-82102619D02*
X178890714Y-82150238D01*
X178890714Y-82150238D02*
X178843095Y-82197857D01*
X178843095Y-82197857D02*
X178795476Y-82293095D01*
X178795476Y-82293095D02*
X178795476Y-82340714D01*
X178795476Y-82340714D02*
X178843095Y-82435952D01*
X178843095Y-82435952D02*
X178890714Y-82483571D01*
X178890714Y-82483571D02*
X178985952Y-82531190D01*
X178985952Y-82531190D02*
X179176428Y-82531190D01*
X179176428Y-82531190D02*
X179271666Y-82578809D01*
X179271666Y-82578809D02*
X179319285Y-82626428D01*
X179319285Y-82626428D02*
X179366904Y-82721666D01*
X179366904Y-82721666D02*
X179366904Y-82912142D01*
X179366904Y-82912142D02*
X179319285Y-83007380D01*
X179319285Y-83007380D02*
X179271666Y-83055000D01*
X179271666Y-83055000D02*
X179176428Y-83102619D01*
X179176428Y-83102619D02*
X178985952Y-83102619D01*
X178985952Y-83102619D02*
X178890714Y-83055000D01*
X178890714Y-83055000D02*
X178843095Y-83007380D01*
X178843095Y-83007380D02*
X178795476Y-82912142D01*
X178795476Y-82912142D02*
X178795476Y-82721666D01*
X178795476Y-82721666D02*
X178843095Y-82626428D01*
X178843095Y-82626428D02*
X178890714Y-82578809D01*
X178890714Y-82578809D02*
X178985952Y-82531190D01*
X178462142Y-82102619D02*
X177795476Y-82102619D01*
X177795476Y-82102619D02*
X178224047Y-83102619D01*
%TO.C,R82*%
X144172607Y-87978619D02*
X144505940Y-87502428D01*
X144744035Y-87978619D02*
X144744035Y-86978619D01*
X144744035Y-86978619D02*
X144363083Y-86978619D01*
X144363083Y-86978619D02*
X144267845Y-87026238D01*
X144267845Y-87026238D02*
X144220226Y-87073857D01*
X144220226Y-87073857D02*
X144172607Y-87169095D01*
X144172607Y-87169095D02*
X144172607Y-87311952D01*
X144172607Y-87311952D02*
X144220226Y-87407190D01*
X144220226Y-87407190D02*
X144267845Y-87454809D01*
X144267845Y-87454809D02*
X144363083Y-87502428D01*
X144363083Y-87502428D02*
X144744035Y-87502428D01*
X143601178Y-87407190D02*
X143696416Y-87359571D01*
X143696416Y-87359571D02*
X143744035Y-87311952D01*
X143744035Y-87311952D02*
X143791654Y-87216714D01*
X143791654Y-87216714D02*
X143791654Y-87169095D01*
X143791654Y-87169095D02*
X143744035Y-87073857D01*
X143744035Y-87073857D02*
X143696416Y-87026238D01*
X143696416Y-87026238D02*
X143601178Y-86978619D01*
X143601178Y-86978619D02*
X143410702Y-86978619D01*
X143410702Y-86978619D02*
X143315464Y-87026238D01*
X143315464Y-87026238D02*
X143267845Y-87073857D01*
X143267845Y-87073857D02*
X143220226Y-87169095D01*
X143220226Y-87169095D02*
X143220226Y-87216714D01*
X143220226Y-87216714D02*
X143267845Y-87311952D01*
X143267845Y-87311952D02*
X143315464Y-87359571D01*
X143315464Y-87359571D02*
X143410702Y-87407190D01*
X143410702Y-87407190D02*
X143601178Y-87407190D01*
X143601178Y-87407190D02*
X143696416Y-87454809D01*
X143696416Y-87454809D02*
X143744035Y-87502428D01*
X143744035Y-87502428D02*
X143791654Y-87597666D01*
X143791654Y-87597666D02*
X143791654Y-87788142D01*
X143791654Y-87788142D02*
X143744035Y-87883380D01*
X143744035Y-87883380D02*
X143696416Y-87931000D01*
X143696416Y-87931000D02*
X143601178Y-87978619D01*
X143601178Y-87978619D02*
X143410702Y-87978619D01*
X143410702Y-87978619D02*
X143315464Y-87931000D01*
X143315464Y-87931000D02*
X143267845Y-87883380D01*
X143267845Y-87883380D02*
X143220226Y-87788142D01*
X143220226Y-87788142D02*
X143220226Y-87597666D01*
X143220226Y-87597666D02*
X143267845Y-87502428D01*
X143267845Y-87502428D02*
X143315464Y-87454809D01*
X143315464Y-87454809D02*
X143410702Y-87407190D01*
X142839273Y-87073857D02*
X142791654Y-87026238D01*
X142791654Y-87026238D02*
X142696416Y-86978619D01*
X142696416Y-86978619D02*
X142458321Y-86978619D01*
X142458321Y-86978619D02*
X142363083Y-87026238D01*
X142363083Y-87026238D02*
X142315464Y-87073857D01*
X142315464Y-87073857D02*
X142267845Y-87169095D01*
X142267845Y-87169095D02*
X142267845Y-87264333D01*
X142267845Y-87264333D02*
X142315464Y-87407190D01*
X142315464Y-87407190D02*
X142886892Y-87978619D01*
X142886892Y-87978619D02*
X142267845Y-87978619D01*
%TO.C,R29*%
X181837619Y-115657142D02*
X181361428Y-115323809D01*
X181837619Y-115085714D02*
X180837619Y-115085714D01*
X180837619Y-115085714D02*
X180837619Y-115466666D01*
X180837619Y-115466666D02*
X180885238Y-115561904D01*
X180885238Y-115561904D02*
X180932857Y-115609523D01*
X180932857Y-115609523D02*
X181028095Y-115657142D01*
X181028095Y-115657142D02*
X181170952Y-115657142D01*
X181170952Y-115657142D02*
X181266190Y-115609523D01*
X181266190Y-115609523D02*
X181313809Y-115561904D01*
X181313809Y-115561904D02*
X181361428Y-115466666D01*
X181361428Y-115466666D02*
X181361428Y-115085714D01*
X180932857Y-116038095D02*
X180885238Y-116085714D01*
X180885238Y-116085714D02*
X180837619Y-116180952D01*
X180837619Y-116180952D02*
X180837619Y-116419047D01*
X180837619Y-116419047D02*
X180885238Y-116514285D01*
X180885238Y-116514285D02*
X180932857Y-116561904D01*
X180932857Y-116561904D02*
X181028095Y-116609523D01*
X181028095Y-116609523D02*
X181123333Y-116609523D01*
X181123333Y-116609523D02*
X181266190Y-116561904D01*
X181266190Y-116561904D02*
X181837619Y-115990476D01*
X181837619Y-115990476D02*
X181837619Y-116609523D01*
X181837619Y-117085714D02*
X181837619Y-117276190D01*
X181837619Y-117276190D02*
X181790000Y-117371428D01*
X181790000Y-117371428D02*
X181742380Y-117419047D01*
X181742380Y-117419047D02*
X181599523Y-117514285D01*
X181599523Y-117514285D02*
X181409047Y-117561904D01*
X181409047Y-117561904D02*
X181028095Y-117561904D01*
X181028095Y-117561904D02*
X180932857Y-117514285D01*
X180932857Y-117514285D02*
X180885238Y-117466666D01*
X180885238Y-117466666D02*
X180837619Y-117371428D01*
X180837619Y-117371428D02*
X180837619Y-117180952D01*
X180837619Y-117180952D02*
X180885238Y-117085714D01*
X180885238Y-117085714D02*
X180932857Y-117038095D01*
X180932857Y-117038095D02*
X181028095Y-116990476D01*
X181028095Y-116990476D02*
X181266190Y-116990476D01*
X181266190Y-116990476D02*
X181361428Y-117038095D01*
X181361428Y-117038095D02*
X181409047Y-117085714D01*
X181409047Y-117085714D02*
X181456666Y-117180952D01*
X181456666Y-117180952D02*
X181456666Y-117371428D01*
X181456666Y-117371428D02*
X181409047Y-117466666D01*
X181409047Y-117466666D02*
X181361428Y-117514285D01*
X181361428Y-117514285D02*
X181266190Y-117561904D01*
%TO.C,F3*%
X132163083Y-94519809D02*
X132496416Y-94519809D01*
X132496416Y-95043619D02*
X132496416Y-94043619D01*
X132496416Y-94043619D02*
X132020226Y-94043619D01*
X131734511Y-94043619D02*
X131115464Y-94043619D01*
X131115464Y-94043619D02*
X131448797Y-94424571D01*
X131448797Y-94424571D02*
X131305940Y-94424571D01*
X131305940Y-94424571D02*
X131210702Y-94472190D01*
X131210702Y-94472190D02*
X131163083Y-94519809D01*
X131163083Y-94519809D02*
X131115464Y-94615047D01*
X131115464Y-94615047D02*
X131115464Y-94853142D01*
X131115464Y-94853142D02*
X131163083Y-94948380D01*
X131163083Y-94948380D02*
X131210702Y-94996000D01*
X131210702Y-94996000D02*
X131305940Y-95043619D01*
X131305940Y-95043619D02*
X131591654Y-95043619D01*
X131591654Y-95043619D02*
X131686892Y-94996000D01*
X131686892Y-94996000D02*
X131734511Y-94948380D01*
%TO.C,U28*%
X186392619Y-79774405D02*
X187202142Y-79774405D01*
X187202142Y-79774405D02*
X187297380Y-79822024D01*
X187297380Y-79822024D02*
X187345000Y-79869643D01*
X187345000Y-79869643D02*
X187392619Y-79964881D01*
X187392619Y-79964881D02*
X187392619Y-80155357D01*
X187392619Y-80155357D02*
X187345000Y-80250595D01*
X187345000Y-80250595D02*
X187297380Y-80298214D01*
X187297380Y-80298214D02*
X187202142Y-80345833D01*
X187202142Y-80345833D02*
X186392619Y-80345833D01*
X186487857Y-80774405D02*
X186440238Y-80822024D01*
X186440238Y-80822024D02*
X186392619Y-80917262D01*
X186392619Y-80917262D02*
X186392619Y-81155357D01*
X186392619Y-81155357D02*
X186440238Y-81250595D01*
X186440238Y-81250595D02*
X186487857Y-81298214D01*
X186487857Y-81298214D02*
X186583095Y-81345833D01*
X186583095Y-81345833D02*
X186678333Y-81345833D01*
X186678333Y-81345833D02*
X186821190Y-81298214D01*
X186821190Y-81298214D02*
X187392619Y-80726786D01*
X187392619Y-80726786D02*
X187392619Y-81345833D01*
X186821190Y-81917262D02*
X186773571Y-81822024D01*
X186773571Y-81822024D02*
X186725952Y-81774405D01*
X186725952Y-81774405D02*
X186630714Y-81726786D01*
X186630714Y-81726786D02*
X186583095Y-81726786D01*
X186583095Y-81726786D02*
X186487857Y-81774405D01*
X186487857Y-81774405D02*
X186440238Y-81822024D01*
X186440238Y-81822024D02*
X186392619Y-81917262D01*
X186392619Y-81917262D02*
X186392619Y-82107738D01*
X186392619Y-82107738D02*
X186440238Y-82202976D01*
X186440238Y-82202976D02*
X186487857Y-82250595D01*
X186487857Y-82250595D02*
X186583095Y-82298214D01*
X186583095Y-82298214D02*
X186630714Y-82298214D01*
X186630714Y-82298214D02*
X186725952Y-82250595D01*
X186725952Y-82250595D02*
X186773571Y-82202976D01*
X186773571Y-82202976D02*
X186821190Y-82107738D01*
X186821190Y-82107738D02*
X186821190Y-81917262D01*
X186821190Y-81917262D02*
X186868809Y-81822024D01*
X186868809Y-81822024D02*
X186916428Y-81774405D01*
X186916428Y-81774405D02*
X187011666Y-81726786D01*
X187011666Y-81726786D02*
X187202142Y-81726786D01*
X187202142Y-81726786D02*
X187297380Y-81774405D01*
X187297380Y-81774405D02*
X187345000Y-81822024D01*
X187345000Y-81822024D02*
X187392619Y-81917262D01*
X187392619Y-81917262D02*
X187392619Y-82107738D01*
X187392619Y-82107738D02*
X187345000Y-82202976D01*
X187345000Y-82202976D02*
X187297380Y-82250595D01*
X187297380Y-82250595D02*
X187202142Y-82298214D01*
X187202142Y-82298214D02*
X187011666Y-82298214D01*
X187011666Y-82298214D02*
X186916428Y-82250595D01*
X186916428Y-82250595D02*
X186868809Y-82202976D01*
X186868809Y-82202976D02*
X186821190Y-82107738D01*
D11*
%TO.C,U22*%
X140216190Y-108348763D02*
X140216190Y-108862810D01*
X140216190Y-108862810D02*
X140185952Y-108923286D01*
X140185952Y-108923286D02*
X140155714Y-108953525D01*
X140155714Y-108953525D02*
X140095238Y-108983763D01*
X140095238Y-108983763D02*
X139974285Y-108983763D01*
X139974285Y-108983763D02*
X139913809Y-108953525D01*
X139913809Y-108953525D02*
X139883571Y-108923286D01*
X139883571Y-108923286D02*
X139853333Y-108862810D01*
X139853333Y-108862810D02*
X139853333Y-108348763D01*
X139581190Y-108409239D02*
X139550952Y-108379001D01*
X139550952Y-108379001D02*
X139490476Y-108348763D01*
X139490476Y-108348763D02*
X139339285Y-108348763D01*
X139339285Y-108348763D02*
X139278809Y-108379001D01*
X139278809Y-108379001D02*
X139248571Y-108409239D01*
X139248571Y-108409239D02*
X139218333Y-108469715D01*
X139218333Y-108469715D02*
X139218333Y-108530191D01*
X139218333Y-108530191D02*
X139248571Y-108620905D01*
X139248571Y-108620905D02*
X139611428Y-108983763D01*
X139611428Y-108983763D02*
X139218333Y-108983763D01*
X138976428Y-108409239D02*
X138946190Y-108379001D01*
X138946190Y-108379001D02*
X138885714Y-108348763D01*
X138885714Y-108348763D02*
X138734523Y-108348763D01*
X138734523Y-108348763D02*
X138674047Y-108379001D01*
X138674047Y-108379001D02*
X138643809Y-108409239D01*
X138643809Y-108409239D02*
X138613571Y-108469715D01*
X138613571Y-108469715D02*
X138613571Y-108530191D01*
X138613571Y-108530191D02*
X138643809Y-108620905D01*
X138643809Y-108620905D02*
X139006666Y-108983763D01*
X139006666Y-108983763D02*
X138613571Y-108983763D01*
D10*
%TO.C,D1*%
X139213094Y-117862619D02*
X139213094Y-116862619D01*
X139213094Y-116862619D02*
X138974999Y-116862619D01*
X138974999Y-116862619D02*
X138832142Y-116910238D01*
X138832142Y-116910238D02*
X138736904Y-117005476D01*
X138736904Y-117005476D02*
X138689285Y-117100714D01*
X138689285Y-117100714D02*
X138641666Y-117291190D01*
X138641666Y-117291190D02*
X138641666Y-117434047D01*
X138641666Y-117434047D02*
X138689285Y-117624523D01*
X138689285Y-117624523D02*
X138736904Y-117719761D01*
X138736904Y-117719761D02*
X138832142Y-117815000D01*
X138832142Y-117815000D02*
X138974999Y-117862619D01*
X138974999Y-117862619D02*
X139213094Y-117862619D01*
X137689285Y-117862619D02*
X138260713Y-117862619D01*
X137974999Y-117862619D02*
X137974999Y-116862619D01*
X137974999Y-116862619D02*
X138070237Y-117005476D01*
X138070237Y-117005476D02*
X138165475Y-117100714D01*
X138165475Y-117100714D02*
X138260713Y-117148333D01*
%TO.C,D41*%
X139355356Y-123576618D02*
X139355356Y-122576618D01*
X139355356Y-122576618D02*
X139117261Y-122576618D01*
X139117261Y-122576618D02*
X138974404Y-122624237D01*
X138974404Y-122624237D02*
X138879166Y-122719475D01*
X138879166Y-122719475D02*
X138831547Y-122814713D01*
X138831547Y-122814713D02*
X138783928Y-123005189D01*
X138783928Y-123005189D02*
X138783928Y-123148046D01*
X138783928Y-123148046D02*
X138831547Y-123338522D01*
X138831547Y-123338522D02*
X138879166Y-123433760D01*
X138879166Y-123433760D02*
X138974404Y-123528999D01*
X138974404Y-123528999D02*
X139117261Y-123576618D01*
X139117261Y-123576618D02*
X139355356Y-123576618D01*
X137926785Y-122909951D02*
X137926785Y-123576618D01*
X138164880Y-122528999D02*
X138402975Y-123243284D01*
X138402975Y-123243284D02*
X137783928Y-123243284D01*
X136879166Y-123576618D02*
X137450594Y-123576618D01*
X137164880Y-123576618D02*
X137164880Y-122576618D01*
X137164880Y-122576618D02*
X137260118Y-122719475D01*
X137260118Y-122719475D02*
X137355356Y-122814713D01*
X137355356Y-122814713D02*
X137450594Y-122862332D01*
%TO.C,R101*%
X130642619Y-110055952D02*
X130166428Y-109722619D01*
X130642619Y-109484524D02*
X129642619Y-109484524D01*
X129642619Y-109484524D02*
X129642619Y-109865476D01*
X129642619Y-109865476D02*
X129690238Y-109960714D01*
X129690238Y-109960714D02*
X129737857Y-110008333D01*
X129737857Y-110008333D02*
X129833095Y-110055952D01*
X129833095Y-110055952D02*
X129975952Y-110055952D01*
X129975952Y-110055952D02*
X130071190Y-110008333D01*
X130071190Y-110008333D02*
X130118809Y-109960714D01*
X130118809Y-109960714D02*
X130166428Y-109865476D01*
X130166428Y-109865476D02*
X130166428Y-109484524D01*
X130642619Y-111008333D02*
X130642619Y-110436905D01*
X130642619Y-110722619D02*
X129642619Y-110722619D01*
X129642619Y-110722619D02*
X129785476Y-110627381D01*
X129785476Y-110627381D02*
X129880714Y-110532143D01*
X129880714Y-110532143D02*
X129928333Y-110436905D01*
X129642619Y-111627381D02*
X129642619Y-111722619D01*
X129642619Y-111722619D02*
X129690238Y-111817857D01*
X129690238Y-111817857D02*
X129737857Y-111865476D01*
X129737857Y-111865476D02*
X129833095Y-111913095D01*
X129833095Y-111913095D02*
X130023571Y-111960714D01*
X130023571Y-111960714D02*
X130261666Y-111960714D01*
X130261666Y-111960714D02*
X130452142Y-111913095D01*
X130452142Y-111913095D02*
X130547380Y-111865476D01*
X130547380Y-111865476D02*
X130595000Y-111817857D01*
X130595000Y-111817857D02*
X130642619Y-111722619D01*
X130642619Y-111722619D02*
X130642619Y-111627381D01*
X130642619Y-111627381D02*
X130595000Y-111532143D01*
X130595000Y-111532143D02*
X130547380Y-111484524D01*
X130547380Y-111484524D02*
X130452142Y-111436905D01*
X130452142Y-111436905D02*
X130261666Y-111389286D01*
X130261666Y-111389286D02*
X130023571Y-111389286D01*
X130023571Y-111389286D02*
X129833095Y-111436905D01*
X129833095Y-111436905D02*
X129737857Y-111484524D01*
X129737857Y-111484524D02*
X129690238Y-111532143D01*
X129690238Y-111532143D02*
X129642619Y-111627381D01*
X130642619Y-112913095D02*
X130642619Y-112341667D01*
X130642619Y-112627381D02*
X129642619Y-112627381D01*
X129642619Y-112627381D02*
X129785476Y-112532143D01*
X129785476Y-112532143D02*
X129880714Y-112436905D01*
X129880714Y-112436905D02*
X129928333Y-112341667D01*
%TO.C,U8*%
X189116904Y-84107619D02*
X189116904Y-84917142D01*
X189116904Y-84917142D02*
X189069285Y-85012380D01*
X189069285Y-85012380D02*
X189021666Y-85060000D01*
X189021666Y-85060000D02*
X188926428Y-85107619D01*
X188926428Y-85107619D02*
X188735952Y-85107619D01*
X188735952Y-85107619D02*
X188640714Y-85060000D01*
X188640714Y-85060000D02*
X188593095Y-85012380D01*
X188593095Y-85012380D02*
X188545476Y-84917142D01*
X188545476Y-84917142D02*
X188545476Y-84107619D01*
X187926428Y-84536190D02*
X188021666Y-84488571D01*
X188021666Y-84488571D02*
X188069285Y-84440952D01*
X188069285Y-84440952D02*
X188116904Y-84345714D01*
X188116904Y-84345714D02*
X188116904Y-84298095D01*
X188116904Y-84298095D02*
X188069285Y-84202857D01*
X188069285Y-84202857D02*
X188021666Y-84155238D01*
X188021666Y-84155238D02*
X187926428Y-84107619D01*
X187926428Y-84107619D02*
X187735952Y-84107619D01*
X187735952Y-84107619D02*
X187640714Y-84155238D01*
X187640714Y-84155238D02*
X187593095Y-84202857D01*
X187593095Y-84202857D02*
X187545476Y-84298095D01*
X187545476Y-84298095D02*
X187545476Y-84345714D01*
X187545476Y-84345714D02*
X187593095Y-84440952D01*
X187593095Y-84440952D02*
X187640714Y-84488571D01*
X187640714Y-84488571D02*
X187735952Y-84536190D01*
X187735952Y-84536190D02*
X187926428Y-84536190D01*
X187926428Y-84536190D02*
X188021666Y-84583809D01*
X188021666Y-84583809D02*
X188069285Y-84631428D01*
X188069285Y-84631428D02*
X188116904Y-84726666D01*
X188116904Y-84726666D02*
X188116904Y-84917142D01*
X188116904Y-84917142D02*
X188069285Y-85012380D01*
X188069285Y-85012380D02*
X188021666Y-85060000D01*
X188021666Y-85060000D02*
X187926428Y-85107619D01*
X187926428Y-85107619D02*
X187735952Y-85107619D01*
X187735952Y-85107619D02*
X187640714Y-85060000D01*
X187640714Y-85060000D02*
X187593095Y-85012380D01*
X187593095Y-85012380D02*
X187545476Y-84917142D01*
X187545476Y-84917142D02*
X187545476Y-84726666D01*
X187545476Y-84726666D02*
X187593095Y-84631428D01*
X187593095Y-84631428D02*
X187640714Y-84583809D01*
X187640714Y-84583809D02*
X187735952Y-84536190D01*
%TO.C,R98*%
X179032619Y-108182142D02*
X178556428Y-107848809D01*
X179032619Y-107610714D02*
X178032619Y-107610714D01*
X178032619Y-107610714D02*
X178032619Y-107991666D01*
X178032619Y-107991666D02*
X178080238Y-108086904D01*
X178080238Y-108086904D02*
X178127857Y-108134523D01*
X178127857Y-108134523D02*
X178223095Y-108182142D01*
X178223095Y-108182142D02*
X178365952Y-108182142D01*
X178365952Y-108182142D02*
X178461190Y-108134523D01*
X178461190Y-108134523D02*
X178508809Y-108086904D01*
X178508809Y-108086904D02*
X178556428Y-107991666D01*
X178556428Y-107991666D02*
X178556428Y-107610714D01*
X179032619Y-108658333D02*
X179032619Y-108848809D01*
X179032619Y-108848809D02*
X178985000Y-108944047D01*
X178985000Y-108944047D02*
X178937380Y-108991666D01*
X178937380Y-108991666D02*
X178794523Y-109086904D01*
X178794523Y-109086904D02*
X178604047Y-109134523D01*
X178604047Y-109134523D02*
X178223095Y-109134523D01*
X178223095Y-109134523D02*
X178127857Y-109086904D01*
X178127857Y-109086904D02*
X178080238Y-109039285D01*
X178080238Y-109039285D02*
X178032619Y-108944047D01*
X178032619Y-108944047D02*
X178032619Y-108753571D01*
X178032619Y-108753571D02*
X178080238Y-108658333D01*
X178080238Y-108658333D02*
X178127857Y-108610714D01*
X178127857Y-108610714D02*
X178223095Y-108563095D01*
X178223095Y-108563095D02*
X178461190Y-108563095D01*
X178461190Y-108563095D02*
X178556428Y-108610714D01*
X178556428Y-108610714D02*
X178604047Y-108658333D01*
X178604047Y-108658333D02*
X178651666Y-108753571D01*
X178651666Y-108753571D02*
X178651666Y-108944047D01*
X178651666Y-108944047D02*
X178604047Y-109039285D01*
X178604047Y-109039285D02*
X178556428Y-109086904D01*
X178556428Y-109086904D02*
X178461190Y-109134523D01*
X178461190Y-109705952D02*
X178413571Y-109610714D01*
X178413571Y-109610714D02*
X178365952Y-109563095D01*
X178365952Y-109563095D02*
X178270714Y-109515476D01*
X178270714Y-109515476D02*
X178223095Y-109515476D01*
X178223095Y-109515476D02*
X178127857Y-109563095D01*
X178127857Y-109563095D02*
X178080238Y-109610714D01*
X178080238Y-109610714D02*
X178032619Y-109705952D01*
X178032619Y-109705952D02*
X178032619Y-109896428D01*
X178032619Y-109896428D02*
X178080238Y-109991666D01*
X178080238Y-109991666D02*
X178127857Y-110039285D01*
X178127857Y-110039285D02*
X178223095Y-110086904D01*
X178223095Y-110086904D02*
X178270714Y-110086904D01*
X178270714Y-110086904D02*
X178365952Y-110039285D01*
X178365952Y-110039285D02*
X178413571Y-109991666D01*
X178413571Y-109991666D02*
X178461190Y-109896428D01*
X178461190Y-109896428D02*
X178461190Y-109705952D01*
X178461190Y-109705952D02*
X178508809Y-109610714D01*
X178508809Y-109610714D02*
X178556428Y-109563095D01*
X178556428Y-109563095D02*
X178651666Y-109515476D01*
X178651666Y-109515476D02*
X178842142Y-109515476D01*
X178842142Y-109515476D02*
X178937380Y-109563095D01*
X178937380Y-109563095D02*
X178985000Y-109610714D01*
X178985000Y-109610714D02*
X179032619Y-109705952D01*
X179032619Y-109705952D02*
X179032619Y-109896428D01*
X179032619Y-109896428D02*
X178985000Y-109991666D01*
X178985000Y-109991666D02*
X178937380Y-110039285D01*
X178937380Y-110039285D02*
X178842142Y-110086904D01*
X178842142Y-110086904D02*
X178651666Y-110086904D01*
X178651666Y-110086904D02*
X178556428Y-110039285D01*
X178556428Y-110039285D02*
X178508809Y-109991666D01*
X178508809Y-109991666D02*
X178461190Y-109896428D01*
%TO.C,D42*%
X141442369Y-99996714D02*
X140442369Y-99996714D01*
X140442369Y-99996714D02*
X140442369Y-100234809D01*
X140442369Y-100234809D02*
X140489988Y-100377666D01*
X140489988Y-100377666D02*
X140585226Y-100472904D01*
X140585226Y-100472904D02*
X140680464Y-100520523D01*
X140680464Y-100520523D02*
X140870940Y-100568142D01*
X140870940Y-100568142D02*
X141013797Y-100568142D01*
X141013797Y-100568142D02*
X141204273Y-100520523D01*
X141204273Y-100520523D02*
X141299511Y-100472904D01*
X141299511Y-100472904D02*
X141394750Y-100377666D01*
X141394750Y-100377666D02*
X141442369Y-100234809D01*
X141442369Y-100234809D02*
X141442369Y-99996714D01*
X140775702Y-101425285D02*
X141442369Y-101425285D01*
X140394750Y-101187190D02*
X141109035Y-100949095D01*
X141109035Y-100949095D02*
X141109035Y-101568142D01*
X140537607Y-101901476D02*
X140489988Y-101949095D01*
X140489988Y-101949095D02*
X140442369Y-102044333D01*
X140442369Y-102044333D02*
X140442369Y-102282428D01*
X140442369Y-102282428D02*
X140489988Y-102377666D01*
X140489988Y-102377666D02*
X140537607Y-102425285D01*
X140537607Y-102425285D02*
X140632845Y-102472904D01*
X140632845Y-102472904D02*
X140728083Y-102472904D01*
X140728083Y-102472904D02*
X140870940Y-102425285D01*
X140870940Y-102425285D02*
X141442369Y-101853857D01*
X141442369Y-101853857D02*
X141442369Y-102472904D01*
%TO.C,R92*%
X140582619Y-89447142D02*
X140106428Y-89113809D01*
X140582619Y-88875714D02*
X139582619Y-88875714D01*
X139582619Y-88875714D02*
X139582619Y-89256666D01*
X139582619Y-89256666D02*
X139630238Y-89351904D01*
X139630238Y-89351904D02*
X139677857Y-89399523D01*
X139677857Y-89399523D02*
X139773095Y-89447142D01*
X139773095Y-89447142D02*
X139915952Y-89447142D01*
X139915952Y-89447142D02*
X140011190Y-89399523D01*
X140011190Y-89399523D02*
X140058809Y-89351904D01*
X140058809Y-89351904D02*
X140106428Y-89256666D01*
X140106428Y-89256666D02*
X140106428Y-88875714D01*
X140582619Y-89923333D02*
X140582619Y-90113809D01*
X140582619Y-90113809D02*
X140535000Y-90209047D01*
X140535000Y-90209047D02*
X140487380Y-90256666D01*
X140487380Y-90256666D02*
X140344523Y-90351904D01*
X140344523Y-90351904D02*
X140154047Y-90399523D01*
X140154047Y-90399523D02*
X139773095Y-90399523D01*
X139773095Y-90399523D02*
X139677857Y-90351904D01*
X139677857Y-90351904D02*
X139630238Y-90304285D01*
X139630238Y-90304285D02*
X139582619Y-90209047D01*
X139582619Y-90209047D02*
X139582619Y-90018571D01*
X139582619Y-90018571D02*
X139630238Y-89923333D01*
X139630238Y-89923333D02*
X139677857Y-89875714D01*
X139677857Y-89875714D02*
X139773095Y-89828095D01*
X139773095Y-89828095D02*
X140011190Y-89828095D01*
X140011190Y-89828095D02*
X140106428Y-89875714D01*
X140106428Y-89875714D02*
X140154047Y-89923333D01*
X140154047Y-89923333D02*
X140201666Y-90018571D01*
X140201666Y-90018571D02*
X140201666Y-90209047D01*
X140201666Y-90209047D02*
X140154047Y-90304285D01*
X140154047Y-90304285D02*
X140106428Y-90351904D01*
X140106428Y-90351904D02*
X140011190Y-90399523D01*
X139677857Y-90780476D02*
X139630238Y-90828095D01*
X139630238Y-90828095D02*
X139582619Y-90923333D01*
X139582619Y-90923333D02*
X139582619Y-91161428D01*
X139582619Y-91161428D02*
X139630238Y-91256666D01*
X139630238Y-91256666D02*
X139677857Y-91304285D01*
X139677857Y-91304285D02*
X139773095Y-91351904D01*
X139773095Y-91351904D02*
X139868333Y-91351904D01*
X139868333Y-91351904D02*
X140011190Y-91304285D01*
X140011190Y-91304285D02*
X140582619Y-90732857D01*
X140582619Y-90732857D02*
X140582619Y-91351904D01*
%TO.C,D29*%
X187639285Y-117487619D02*
X187639285Y-116487619D01*
X187639285Y-116487619D02*
X187401190Y-116487619D01*
X187401190Y-116487619D02*
X187258333Y-116535238D01*
X187258333Y-116535238D02*
X187163095Y-116630476D01*
X187163095Y-116630476D02*
X187115476Y-116725714D01*
X187115476Y-116725714D02*
X187067857Y-116916190D01*
X187067857Y-116916190D02*
X187067857Y-117059047D01*
X187067857Y-117059047D02*
X187115476Y-117249523D01*
X187115476Y-117249523D02*
X187163095Y-117344761D01*
X187163095Y-117344761D02*
X187258333Y-117440000D01*
X187258333Y-117440000D02*
X187401190Y-117487619D01*
X187401190Y-117487619D02*
X187639285Y-117487619D01*
X186686904Y-116582857D02*
X186639285Y-116535238D01*
X186639285Y-116535238D02*
X186544047Y-116487619D01*
X186544047Y-116487619D02*
X186305952Y-116487619D01*
X186305952Y-116487619D02*
X186210714Y-116535238D01*
X186210714Y-116535238D02*
X186163095Y-116582857D01*
X186163095Y-116582857D02*
X186115476Y-116678095D01*
X186115476Y-116678095D02*
X186115476Y-116773333D01*
X186115476Y-116773333D02*
X186163095Y-116916190D01*
X186163095Y-116916190D02*
X186734523Y-117487619D01*
X186734523Y-117487619D02*
X186115476Y-117487619D01*
X185639285Y-117487619D02*
X185448809Y-117487619D01*
X185448809Y-117487619D02*
X185353571Y-117440000D01*
X185353571Y-117440000D02*
X185305952Y-117392380D01*
X185305952Y-117392380D02*
X185210714Y-117249523D01*
X185210714Y-117249523D02*
X185163095Y-117059047D01*
X185163095Y-117059047D02*
X185163095Y-116678095D01*
X185163095Y-116678095D02*
X185210714Y-116582857D01*
X185210714Y-116582857D02*
X185258333Y-116535238D01*
X185258333Y-116535238D02*
X185353571Y-116487619D01*
X185353571Y-116487619D02*
X185544047Y-116487619D01*
X185544047Y-116487619D02*
X185639285Y-116535238D01*
X185639285Y-116535238D02*
X185686904Y-116582857D01*
X185686904Y-116582857D02*
X185734523Y-116678095D01*
X185734523Y-116678095D02*
X185734523Y-116916190D01*
X185734523Y-116916190D02*
X185686904Y-117011428D01*
X185686904Y-117011428D02*
X185639285Y-117059047D01*
X185639285Y-117059047D02*
X185544047Y-117106666D01*
X185544047Y-117106666D02*
X185353571Y-117106666D01*
X185353571Y-117106666D02*
X185258333Y-117059047D01*
X185258333Y-117059047D02*
X185210714Y-117011428D01*
X185210714Y-117011428D02*
X185163095Y-116916190D01*
%TO.C,R25*%
X179592619Y-93052142D02*
X179116428Y-92718809D01*
X179592619Y-92480714D02*
X178592619Y-92480714D01*
X178592619Y-92480714D02*
X178592619Y-92861666D01*
X178592619Y-92861666D02*
X178640238Y-92956904D01*
X178640238Y-92956904D02*
X178687857Y-93004523D01*
X178687857Y-93004523D02*
X178783095Y-93052142D01*
X178783095Y-93052142D02*
X178925952Y-93052142D01*
X178925952Y-93052142D02*
X179021190Y-93004523D01*
X179021190Y-93004523D02*
X179068809Y-92956904D01*
X179068809Y-92956904D02*
X179116428Y-92861666D01*
X179116428Y-92861666D02*
X179116428Y-92480714D01*
X178687857Y-93433095D02*
X178640238Y-93480714D01*
X178640238Y-93480714D02*
X178592619Y-93575952D01*
X178592619Y-93575952D02*
X178592619Y-93814047D01*
X178592619Y-93814047D02*
X178640238Y-93909285D01*
X178640238Y-93909285D02*
X178687857Y-93956904D01*
X178687857Y-93956904D02*
X178783095Y-94004523D01*
X178783095Y-94004523D02*
X178878333Y-94004523D01*
X178878333Y-94004523D02*
X179021190Y-93956904D01*
X179021190Y-93956904D02*
X179592619Y-93385476D01*
X179592619Y-93385476D02*
X179592619Y-94004523D01*
X178592619Y-94909285D02*
X178592619Y-94433095D01*
X178592619Y-94433095D02*
X179068809Y-94385476D01*
X179068809Y-94385476D02*
X179021190Y-94433095D01*
X179021190Y-94433095D02*
X178973571Y-94528333D01*
X178973571Y-94528333D02*
X178973571Y-94766428D01*
X178973571Y-94766428D02*
X179021190Y-94861666D01*
X179021190Y-94861666D02*
X179068809Y-94909285D01*
X179068809Y-94909285D02*
X179164047Y-94956904D01*
X179164047Y-94956904D02*
X179402142Y-94956904D01*
X179402142Y-94956904D02*
X179497380Y-94909285D01*
X179497380Y-94909285D02*
X179545000Y-94861666D01*
X179545000Y-94861666D02*
X179592619Y-94766428D01*
X179592619Y-94766428D02*
X179592619Y-94528333D01*
X179592619Y-94528333D02*
X179545000Y-94433095D01*
X179545000Y-94433095D02*
X179497380Y-94385476D01*
%TO.C,U10*%
X189438094Y-106537619D02*
X189438094Y-107347142D01*
X189438094Y-107347142D02*
X189390475Y-107442380D01*
X189390475Y-107442380D02*
X189342856Y-107490000D01*
X189342856Y-107490000D02*
X189247618Y-107537619D01*
X189247618Y-107537619D02*
X189057142Y-107537619D01*
X189057142Y-107537619D02*
X188961904Y-107490000D01*
X188961904Y-107490000D02*
X188914285Y-107442380D01*
X188914285Y-107442380D02*
X188866666Y-107347142D01*
X188866666Y-107347142D02*
X188866666Y-106537619D01*
X187866666Y-107537619D02*
X188438094Y-107537619D01*
X188152380Y-107537619D02*
X188152380Y-106537619D01*
X188152380Y-106537619D02*
X188247618Y-106680476D01*
X188247618Y-106680476D02*
X188342856Y-106775714D01*
X188342856Y-106775714D02*
X188438094Y-106823333D01*
X187247618Y-106537619D02*
X187152380Y-106537619D01*
X187152380Y-106537619D02*
X187057142Y-106585238D01*
X187057142Y-106585238D02*
X187009523Y-106632857D01*
X187009523Y-106632857D02*
X186961904Y-106728095D01*
X186961904Y-106728095D02*
X186914285Y-106918571D01*
X186914285Y-106918571D02*
X186914285Y-107156666D01*
X186914285Y-107156666D02*
X186961904Y-107347142D01*
X186961904Y-107347142D02*
X187009523Y-107442380D01*
X187009523Y-107442380D02*
X187057142Y-107490000D01*
X187057142Y-107490000D02*
X187152380Y-107537619D01*
X187152380Y-107537619D02*
X187247618Y-107537619D01*
X187247618Y-107537619D02*
X187342856Y-107490000D01*
X187342856Y-107490000D02*
X187390475Y-107442380D01*
X187390475Y-107442380D02*
X187438094Y-107347142D01*
X187438094Y-107347142D02*
X187485713Y-107156666D01*
X187485713Y-107156666D02*
X187485713Y-106918571D01*
X187485713Y-106918571D02*
X187438094Y-106728095D01*
X187438094Y-106728095D02*
X187390475Y-106632857D01*
X187390475Y-106632857D02*
X187342856Y-106585238D01*
X187342856Y-106585238D02*
X187247618Y-106537619D01*
%TO.C,R72*%
X143437369Y-88993142D02*
X142961178Y-88659809D01*
X143437369Y-88421714D02*
X142437369Y-88421714D01*
X142437369Y-88421714D02*
X142437369Y-88802666D01*
X142437369Y-88802666D02*
X142484988Y-88897904D01*
X142484988Y-88897904D02*
X142532607Y-88945523D01*
X142532607Y-88945523D02*
X142627845Y-88993142D01*
X142627845Y-88993142D02*
X142770702Y-88993142D01*
X142770702Y-88993142D02*
X142865940Y-88945523D01*
X142865940Y-88945523D02*
X142913559Y-88897904D01*
X142913559Y-88897904D02*
X142961178Y-88802666D01*
X142961178Y-88802666D02*
X142961178Y-88421714D01*
X142437369Y-89326476D02*
X142437369Y-89993142D01*
X142437369Y-89993142D02*
X143437369Y-89564571D01*
X142532607Y-90326476D02*
X142484988Y-90374095D01*
X142484988Y-90374095D02*
X142437369Y-90469333D01*
X142437369Y-90469333D02*
X142437369Y-90707428D01*
X142437369Y-90707428D02*
X142484988Y-90802666D01*
X142484988Y-90802666D02*
X142532607Y-90850285D01*
X142532607Y-90850285D02*
X142627845Y-90897904D01*
X142627845Y-90897904D02*
X142723083Y-90897904D01*
X142723083Y-90897904D02*
X142865940Y-90850285D01*
X142865940Y-90850285D02*
X143437369Y-90278857D01*
X143437369Y-90278857D02*
X143437369Y-90897904D01*
%TO.C,R81*%
X143721428Y-107112619D02*
X144054761Y-106636428D01*
X144292856Y-107112619D02*
X144292856Y-106112619D01*
X144292856Y-106112619D02*
X143911904Y-106112619D01*
X143911904Y-106112619D02*
X143816666Y-106160238D01*
X143816666Y-106160238D02*
X143769047Y-106207857D01*
X143769047Y-106207857D02*
X143721428Y-106303095D01*
X143721428Y-106303095D02*
X143721428Y-106445952D01*
X143721428Y-106445952D02*
X143769047Y-106541190D01*
X143769047Y-106541190D02*
X143816666Y-106588809D01*
X143816666Y-106588809D02*
X143911904Y-106636428D01*
X143911904Y-106636428D02*
X144292856Y-106636428D01*
X143149999Y-106541190D02*
X143245237Y-106493571D01*
X143245237Y-106493571D02*
X143292856Y-106445952D01*
X143292856Y-106445952D02*
X143340475Y-106350714D01*
X143340475Y-106350714D02*
X143340475Y-106303095D01*
X143340475Y-106303095D02*
X143292856Y-106207857D01*
X143292856Y-106207857D02*
X143245237Y-106160238D01*
X143245237Y-106160238D02*
X143149999Y-106112619D01*
X143149999Y-106112619D02*
X142959523Y-106112619D01*
X142959523Y-106112619D02*
X142864285Y-106160238D01*
X142864285Y-106160238D02*
X142816666Y-106207857D01*
X142816666Y-106207857D02*
X142769047Y-106303095D01*
X142769047Y-106303095D02*
X142769047Y-106350714D01*
X142769047Y-106350714D02*
X142816666Y-106445952D01*
X142816666Y-106445952D02*
X142864285Y-106493571D01*
X142864285Y-106493571D02*
X142959523Y-106541190D01*
X142959523Y-106541190D02*
X143149999Y-106541190D01*
X143149999Y-106541190D02*
X143245237Y-106588809D01*
X143245237Y-106588809D02*
X143292856Y-106636428D01*
X143292856Y-106636428D02*
X143340475Y-106731666D01*
X143340475Y-106731666D02*
X143340475Y-106922142D01*
X143340475Y-106922142D02*
X143292856Y-107017380D01*
X143292856Y-107017380D02*
X143245237Y-107065000D01*
X143245237Y-107065000D02*
X143149999Y-107112619D01*
X143149999Y-107112619D02*
X142959523Y-107112619D01*
X142959523Y-107112619D02*
X142864285Y-107065000D01*
X142864285Y-107065000D02*
X142816666Y-107017380D01*
X142816666Y-107017380D02*
X142769047Y-106922142D01*
X142769047Y-106922142D02*
X142769047Y-106731666D01*
X142769047Y-106731666D02*
X142816666Y-106636428D01*
X142816666Y-106636428D02*
X142864285Y-106588809D01*
X142864285Y-106588809D02*
X142959523Y-106541190D01*
X141816666Y-107112619D02*
X142388094Y-107112619D01*
X142102380Y-107112619D02*
X142102380Y-106112619D01*
X142102380Y-106112619D02*
X142197618Y-106255476D01*
X142197618Y-106255476D02*
X142292856Y-106350714D01*
X142292856Y-106350714D02*
X142388094Y-106398333D01*
%TO.C,U23*%
X140636190Y-87768763D02*
X140636190Y-88282810D01*
X140636190Y-88282810D02*
X140605952Y-88343286D01*
X140605952Y-88343286D02*
X140575714Y-88373525D01*
X140575714Y-88373525D02*
X140515238Y-88403763D01*
X140515238Y-88403763D02*
X140394285Y-88403763D01*
X140394285Y-88403763D02*
X140333809Y-88373525D01*
X140333809Y-88373525D02*
X140303571Y-88343286D01*
X140303571Y-88343286D02*
X140273333Y-88282810D01*
X140273333Y-88282810D02*
X140273333Y-87768763D01*
X140001190Y-87829239D02*
X139970952Y-87799001D01*
X139970952Y-87799001D02*
X139910476Y-87768763D01*
X139910476Y-87768763D02*
X139759285Y-87768763D01*
X139759285Y-87768763D02*
X139698809Y-87799001D01*
X139698809Y-87799001D02*
X139668571Y-87829239D01*
X139668571Y-87829239D02*
X139638333Y-87889715D01*
X139638333Y-87889715D02*
X139638333Y-87950191D01*
X139638333Y-87950191D02*
X139668571Y-88040905D01*
X139668571Y-88040905D02*
X140031428Y-88403763D01*
X140031428Y-88403763D02*
X139638333Y-88403763D01*
X139426666Y-87768763D02*
X139033571Y-87768763D01*
X139033571Y-87768763D02*
X139245238Y-88010667D01*
X139245238Y-88010667D02*
X139154523Y-88010667D01*
X139154523Y-88010667D02*
X139094047Y-88040905D01*
X139094047Y-88040905D02*
X139063809Y-88071144D01*
X139063809Y-88071144D02*
X139033571Y-88131620D01*
X139033571Y-88131620D02*
X139033571Y-88282810D01*
X139033571Y-88282810D02*
X139063809Y-88343286D01*
X139063809Y-88343286D02*
X139094047Y-88373525D01*
X139094047Y-88373525D02*
X139154523Y-88403763D01*
X139154523Y-88403763D02*
X139335952Y-88403763D01*
X139335952Y-88403763D02*
X139396428Y-88373525D01*
X139396428Y-88373525D02*
X139426666Y-88343286D01*
%TO.C,U9*%
X135926654Y-86967619D02*
X135926654Y-87777142D01*
X135926654Y-87777142D02*
X135879035Y-87872380D01*
X135879035Y-87872380D02*
X135831416Y-87920000D01*
X135831416Y-87920000D02*
X135736178Y-87967619D01*
X135736178Y-87967619D02*
X135545702Y-87967619D01*
X135545702Y-87967619D02*
X135450464Y-87920000D01*
X135450464Y-87920000D02*
X135402845Y-87872380D01*
X135402845Y-87872380D02*
X135355226Y-87777142D01*
X135355226Y-87777142D02*
X135355226Y-86967619D01*
X134831416Y-87967619D02*
X134640940Y-87967619D01*
X134640940Y-87967619D02*
X134545702Y-87920000D01*
X134545702Y-87920000D02*
X134498083Y-87872380D01*
X134498083Y-87872380D02*
X134402845Y-87729523D01*
X134402845Y-87729523D02*
X134355226Y-87539047D01*
X134355226Y-87539047D02*
X134355226Y-87158095D01*
X134355226Y-87158095D02*
X134402845Y-87062857D01*
X134402845Y-87062857D02*
X134450464Y-87015238D01*
X134450464Y-87015238D02*
X134545702Y-86967619D01*
X134545702Y-86967619D02*
X134736178Y-86967619D01*
X134736178Y-86967619D02*
X134831416Y-87015238D01*
X134831416Y-87015238D02*
X134879035Y-87062857D01*
X134879035Y-87062857D02*
X134926654Y-87158095D01*
X134926654Y-87158095D02*
X134926654Y-87396190D01*
X134926654Y-87396190D02*
X134879035Y-87491428D01*
X134879035Y-87491428D02*
X134831416Y-87539047D01*
X134831416Y-87539047D02*
X134736178Y-87586666D01*
X134736178Y-87586666D02*
X134545702Y-87586666D01*
X134545702Y-87586666D02*
X134450464Y-87539047D01*
X134450464Y-87539047D02*
X134402845Y-87491428D01*
X134402845Y-87491428D02*
X134355226Y-87396190D01*
%TO.C,R108*%
X194442619Y-106580952D02*
X193966428Y-106247619D01*
X194442619Y-106009524D02*
X193442619Y-106009524D01*
X193442619Y-106009524D02*
X193442619Y-106390476D01*
X193442619Y-106390476D02*
X193490238Y-106485714D01*
X193490238Y-106485714D02*
X193537857Y-106533333D01*
X193537857Y-106533333D02*
X193633095Y-106580952D01*
X193633095Y-106580952D02*
X193775952Y-106580952D01*
X193775952Y-106580952D02*
X193871190Y-106533333D01*
X193871190Y-106533333D02*
X193918809Y-106485714D01*
X193918809Y-106485714D02*
X193966428Y-106390476D01*
X193966428Y-106390476D02*
X193966428Y-106009524D01*
X194442619Y-107533333D02*
X194442619Y-106961905D01*
X194442619Y-107247619D02*
X193442619Y-107247619D01*
X193442619Y-107247619D02*
X193585476Y-107152381D01*
X193585476Y-107152381D02*
X193680714Y-107057143D01*
X193680714Y-107057143D02*
X193728333Y-106961905D01*
X193442619Y-108152381D02*
X193442619Y-108247619D01*
X193442619Y-108247619D02*
X193490238Y-108342857D01*
X193490238Y-108342857D02*
X193537857Y-108390476D01*
X193537857Y-108390476D02*
X193633095Y-108438095D01*
X193633095Y-108438095D02*
X193823571Y-108485714D01*
X193823571Y-108485714D02*
X194061666Y-108485714D01*
X194061666Y-108485714D02*
X194252142Y-108438095D01*
X194252142Y-108438095D02*
X194347380Y-108390476D01*
X194347380Y-108390476D02*
X194395000Y-108342857D01*
X194395000Y-108342857D02*
X194442619Y-108247619D01*
X194442619Y-108247619D02*
X194442619Y-108152381D01*
X194442619Y-108152381D02*
X194395000Y-108057143D01*
X194395000Y-108057143D02*
X194347380Y-108009524D01*
X194347380Y-108009524D02*
X194252142Y-107961905D01*
X194252142Y-107961905D02*
X194061666Y-107914286D01*
X194061666Y-107914286D02*
X193823571Y-107914286D01*
X193823571Y-107914286D02*
X193633095Y-107961905D01*
X193633095Y-107961905D02*
X193537857Y-108009524D01*
X193537857Y-108009524D02*
X193490238Y-108057143D01*
X193490238Y-108057143D02*
X193442619Y-108152381D01*
X193871190Y-109057143D02*
X193823571Y-108961905D01*
X193823571Y-108961905D02*
X193775952Y-108914286D01*
X193775952Y-108914286D02*
X193680714Y-108866667D01*
X193680714Y-108866667D02*
X193633095Y-108866667D01*
X193633095Y-108866667D02*
X193537857Y-108914286D01*
X193537857Y-108914286D02*
X193490238Y-108961905D01*
X193490238Y-108961905D02*
X193442619Y-109057143D01*
X193442619Y-109057143D02*
X193442619Y-109247619D01*
X193442619Y-109247619D02*
X193490238Y-109342857D01*
X193490238Y-109342857D02*
X193537857Y-109390476D01*
X193537857Y-109390476D02*
X193633095Y-109438095D01*
X193633095Y-109438095D02*
X193680714Y-109438095D01*
X193680714Y-109438095D02*
X193775952Y-109390476D01*
X193775952Y-109390476D02*
X193823571Y-109342857D01*
X193823571Y-109342857D02*
X193871190Y-109247619D01*
X193871190Y-109247619D02*
X193871190Y-109057143D01*
X193871190Y-109057143D02*
X193918809Y-108961905D01*
X193918809Y-108961905D02*
X193966428Y-108914286D01*
X193966428Y-108914286D02*
X194061666Y-108866667D01*
X194061666Y-108866667D02*
X194252142Y-108866667D01*
X194252142Y-108866667D02*
X194347380Y-108914286D01*
X194347380Y-108914286D02*
X194395000Y-108961905D01*
X194395000Y-108961905D02*
X194442619Y-109057143D01*
X194442619Y-109057143D02*
X194442619Y-109247619D01*
X194442619Y-109247619D02*
X194395000Y-109342857D01*
X194395000Y-109342857D02*
X194347380Y-109390476D01*
X194347380Y-109390476D02*
X194252142Y-109438095D01*
X194252142Y-109438095D02*
X194061666Y-109438095D01*
X194061666Y-109438095D02*
X193966428Y-109390476D01*
X193966428Y-109390476D02*
X193918809Y-109342857D01*
X193918809Y-109342857D02*
X193871190Y-109247619D01*
%TO.C,R6*%
X138896416Y-100048619D02*
X139229749Y-99572428D01*
X139467844Y-100048619D02*
X139467844Y-99048619D01*
X139467844Y-99048619D02*
X139086892Y-99048619D01*
X139086892Y-99048619D02*
X138991654Y-99096238D01*
X138991654Y-99096238D02*
X138944035Y-99143857D01*
X138944035Y-99143857D02*
X138896416Y-99239095D01*
X138896416Y-99239095D02*
X138896416Y-99381952D01*
X138896416Y-99381952D02*
X138944035Y-99477190D01*
X138944035Y-99477190D02*
X138991654Y-99524809D01*
X138991654Y-99524809D02*
X139086892Y-99572428D01*
X139086892Y-99572428D02*
X139467844Y-99572428D01*
X138039273Y-99048619D02*
X138229749Y-99048619D01*
X138229749Y-99048619D02*
X138324987Y-99096238D01*
X138324987Y-99096238D02*
X138372606Y-99143857D01*
X138372606Y-99143857D02*
X138467844Y-99286714D01*
X138467844Y-99286714D02*
X138515463Y-99477190D01*
X138515463Y-99477190D02*
X138515463Y-99858142D01*
X138515463Y-99858142D02*
X138467844Y-99953380D01*
X138467844Y-99953380D02*
X138420225Y-100001000D01*
X138420225Y-100001000D02*
X138324987Y-100048619D01*
X138324987Y-100048619D02*
X138134511Y-100048619D01*
X138134511Y-100048619D02*
X138039273Y-100001000D01*
X138039273Y-100001000D02*
X137991654Y-99953380D01*
X137991654Y-99953380D02*
X137944035Y-99858142D01*
X137944035Y-99858142D02*
X137944035Y-99620047D01*
X137944035Y-99620047D02*
X137991654Y-99524809D01*
X137991654Y-99524809D02*
X138039273Y-99477190D01*
X138039273Y-99477190D02*
X138134511Y-99429571D01*
X138134511Y-99429571D02*
X138324987Y-99429571D01*
X138324987Y-99429571D02*
X138420225Y-99477190D01*
X138420225Y-99477190D02*
X138467844Y-99524809D01*
X138467844Y-99524809D02*
X138515463Y-99620047D01*
D12*
%TO.C,F8*%
X189426248Y-92200000D02*
X193833752Y-92200000D01*
X189426248Y-97540000D02*
X193833752Y-97540000D01*
%TO.C,R97*%
X180452500Y-87532742D02*
X180452500Y-88007258D01*
X179407500Y-87532742D02*
X179407500Y-88007258D01*
%TO.C,R26*%
X183492742Y-95272500D02*
X183967258Y-95272500D01*
X183492742Y-96317500D02*
X183967258Y-96317500D01*
%TO.C,D48*%
X185002500Y-120390000D02*
X187287500Y-120390000D01*
X185002500Y-121860000D02*
X185002500Y-120390000D01*
X187287500Y-121860000D02*
X185002500Y-121860000D01*
%TO.C,R107*%
X192332500Y-85482258D02*
X192332500Y-85007742D01*
X193377500Y-85482258D02*
X193377500Y-85007742D01*
%TO.C,F9*%
X191871248Y-115255000D02*
X196278752Y-115255000D01*
X191871248Y-120595000D02*
X196278752Y-120595000D01*
%TO.C,R78*%
X177647500Y-108612742D02*
X177647500Y-109087258D01*
X176602500Y-108612742D02*
X176602500Y-109087258D01*
%TO.C,R1*%
X141152500Y-117012258D02*
X141152500Y-116537742D01*
X142197500Y-117012258D02*
X142197500Y-116537742D01*
%TO.C,R71*%
X144422500Y-110337742D02*
X144422500Y-110812258D01*
X143377500Y-110337742D02*
X143377500Y-110812258D01*
%TO.C,D25*%
X185165000Y-93555000D02*
X182880000Y-93555000D01*
X185165000Y-92085000D02*
X185165000Y-93555000D01*
X182880000Y-92085000D02*
X185165000Y-92085000D01*
D11*
%TO.C,U29*%
X186059000Y-105937500D02*
X186059000Y-104237500D01*
X182941000Y-104237500D02*
X182941000Y-105937500D01*
D13*
X185900000Y-107487500D02*
G75*
G03*
X185900000Y-107487500I-100000J0D01*
G01*
D11*
%TO.C,U7*%
X132615000Y-109576500D02*
X136615000Y-109576500D01*
X132615000Y-114584000D02*
X136615000Y-114584000D01*
D13*
X130715000Y-114330000D02*
G75*
G03*
X130715000Y-114330000I-100000J0D01*
G01*
D12*
%TO.C,F2*%
X133144823Y-121883999D02*
X128737319Y-121883999D01*
X133144823Y-116543999D02*
X128737319Y-116543999D01*
%TO.C,D47*%
X182220000Y-97910000D02*
X184505000Y-97910000D01*
X182220000Y-99380000D02*
X182220000Y-97910000D01*
X184505000Y-99380000D02*
X182220000Y-99380000D01*
%TO.C,R77*%
X177577500Y-87582742D02*
X177577500Y-88057258D01*
X176532500Y-87582742D02*
X176532500Y-88057258D01*
%TO.C,R5*%
X141032250Y-96148258D02*
X141032250Y-95673742D01*
X142077250Y-96148258D02*
X142077250Y-95673742D01*
%TO.C,R88*%
X179337258Y-106397500D02*
X178862742Y-106397500D01*
X179337258Y-105352500D02*
X178862742Y-105352500D01*
%TO.C,D5*%
X137165000Y-94390000D02*
X139450000Y-94390000D01*
X137165000Y-95860000D02*
X137165000Y-94390000D01*
X139450000Y-95860000D02*
X137165000Y-95860000D01*
%TO.C,R102*%
X128682250Y-90198258D02*
X128682250Y-89723742D01*
X129727250Y-90198258D02*
X129727250Y-89723742D01*
%TO.C,R2*%
X138640829Y-119397500D02*
X138166313Y-119397500D01*
X138640829Y-118352500D02*
X138166313Y-118352500D01*
%TO.C,R30*%
X186237742Y-117927500D02*
X186712258Y-117927500D01*
X186237742Y-118972500D02*
X186712258Y-118972500D01*
%TO.C,R91*%
X141547500Y-110362742D02*
X141547500Y-110837258D01*
X140502500Y-110362742D02*
X140502500Y-110837258D01*
%TO.C,R87*%
X179342258Y-84592500D02*
X178867742Y-84592500D01*
X179342258Y-83547500D02*
X178867742Y-83547500D01*
%TO.C,R82*%
X143292492Y-85563500D02*
X143767008Y-85563500D01*
X143292492Y-86608500D02*
X143767008Y-86608500D01*
%TO.C,R29*%
X182302500Y-116537258D02*
X182302500Y-116062742D01*
X183347500Y-116537258D02*
X183347500Y-116062742D01*
%TO.C,F3*%
X134033502Y-100931000D02*
X129625998Y-100931000D01*
X134033502Y-95591000D02*
X129625998Y-95591000D01*
D11*
%TO.C,U28*%
X185914000Y-83137500D02*
X185914000Y-81437500D01*
X182796000Y-81437500D02*
X182796000Y-83137500D01*
D13*
X185755000Y-84687500D02*
G75*
G03*
X185755000Y-84687500I-100000J0D01*
G01*
D11*
%TO.C,U22*%
X136825000Y-108309000D02*
X138525000Y-108309000D01*
X138525000Y-105191000D02*
X136825000Y-105191000D01*
D13*
X135375000Y-108050000D02*
G75*
G03*
X135375000Y-108050000I-100000J0D01*
G01*
D12*
%TO.C,D1*%
X136940000Y-115215000D02*
X139225000Y-115215000D01*
X136940000Y-116685000D02*
X136940000Y-115215000D01*
X139225000Y-116685000D02*
X136940000Y-116685000D01*
%TO.C,D41*%
X139626071Y-122348999D02*
X137341071Y-122348999D01*
X139626071Y-120878999D02*
X139626071Y-122348999D01*
X137341071Y-120878999D02*
X139626071Y-120878999D01*
%TO.C,R101*%
X128227500Y-111412258D02*
X128227500Y-110937742D01*
X129272500Y-111412258D02*
X129272500Y-110937742D01*
D11*
%TO.C,U8*%
X188990000Y-90478500D02*
X184990000Y-90478500D01*
X188990000Y-85471000D02*
X184990000Y-85471000D01*
D13*
X191090000Y-85725000D02*
G75*
G03*
X191090000Y-85725000I-100000J0D01*
G01*
D12*
%TO.C,R98*%
X180522500Y-108587742D02*
X180522500Y-109062258D01*
X179477500Y-108587742D02*
X179477500Y-109062258D01*
%TO.C,D42*%
X140239750Y-101771000D02*
X137954750Y-101771000D01*
X140239750Y-100301000D02*
X140239750Y-101771000D01*
X137954750Y-100301000D02*
X140239750Y-100301000D01*
%TO.C,R92*%
X142052250Y-89373742D02*
X142052250Y-89848258D01*
X141007250Y-89373742D02*
X141007250Y-89848258D01*
%TO.C,D29*%
X187910000Y-116210000D02*
X185625000Y-116210000D01*
X187910000Y-114740000D02*
X187910000Y-116210000D01*
X185625000Y-114740000D02*
X187910000Y-114740000D01*
%TO.C,R25*%
X180082500Y-93882258D02*
X180082500Y-93407742D01*
X181127500Y-93882258D02*
X181127500Y-93407742D01*
D11*
%TO.C,U10*%
X189115000Y-112948500D02*
X185115000Y-112948500D01*
X189115000Y-107941000D02*
X185115000Y-107941000D01*
D13*
X191215000Y-108195000D02*
G75*
G03*
X191215000Y-108195000I-100000J0D01*
G01*
D12*
%TO.C,R72*%
X144927250Y-89398742D02*
X144927250Y-89873258D01*
X143882250Y-89398742D02*
X143882250Y-89873258D01*
%TO.C,R81*%
X142866313Y-107502500D02*
X143340829Y-107502500D01*
X142866313Y-108547500D02*
X143340829Y-108547500D01*
D11*
%TO.C,U23*%
X137702500Y-87429000D02*
X139402500Y-87429000D01*
X139402500Y-84311000D02*
X137702500Y-84311000D01*
D13*
X136252500Y-87170000D02*
G75*
G03*
X136252500Y-87170000I-100000J0D01*
G01*
D11*
%TO.C,U9*%
X133164750Y-88557500D02*
X137164750Y-88557500D01*
X133164750Y-93565000D02*
X137164750Y-93565000D01*
D13*
X131264750Y-93311000D02*
G75*
G03*
X131264750Y-93311000I-100000J0D01*
G01*
D12*
%TO.C,R108*%
X192027500Y-107937258D02*
X192027500Y-107462742D01*
X193072500Y-107937258D02*
X193072500Y-107462742D01*
%TO.C,R6*%
X138967008Y-98633500D02*
X138492492Y-98633500D01*
X138967008Y-97588500D02*
X138492492Y-97588500D01*
%TD*%
M02*
