M48
; DRILL file {KiCad 7.0.1-0} date 2023 October 23, Monday 10:37:19
; FORMAT={-:-/ absolute / inch / decimal}
; #@! TF.CreationDate,2023-10-23T10:37:19-07:00
; #@! TF.GenerationSoftware,Kicad,Pcbnew,7.0.1-0
; #@! TF.FileFunction,Plated,1,2,PTH
FMAT,2
INCH
; #@! TA.AperFunction,Plated,PTH,ViaDrill
T1C0.0120
; #@! TA.AperFunction,Plated,PTH,ViaDrill
T2C0.0240
; #@! TA.AperFunction,Plated,PTH,ComponentDrill
T3C0.0394
; #@! TA.AperFunction,Plated,PTH,ComponentDrill
T4C0.0409
; #@! TA.AperFunction,Plated,PTH,ComponentDrill
T5C0.1260
%
G90
G05
T1
X5.3654Y-4.5598
X5.6594Y-4.7746
X5.6909Y-3.9941
X5.7087Y-4.7756
X5.7362Y-3.9941
X5.7579Y-4.7756
X5.7785Y-3.9951
X5.8258Y-3.6919
X5.8268Y-3.6516
X5.8278Y-3.6122
X5.8681Y-4.5522
X5.8691Y-4.5157
X5.8701Y-4.4774
X5.8937Y-3.9606
X5.8957Y-4.0394
X5.9341Y-4.6211
X5.935Y-4.7106
X5.9366Y-3.9301
X5.939Y-3.8106
X5.9646Y-3.8878
X6.2972Y-4.5016
X6.8398Y-4.6661
X6.8449Y-4.5354
X6.8587Y-4.1083
X6.8819Y-3.6535
X6.8819Y-3.6909
X6.8829Y-3.6171
X6.9464Y-3.8012
X7.0423Y-3.9557
X7.0569Y-3.7997
X7.0797Y-3.9557
X7.0974Y-4.4715
X7.1014Y-4.6516
X7.1171Y-3.9567
X7.127Y-4.6791
X7.1555Y-4.7057
X7.1634Y-4.1772
X7.1732Y-3.4193
X7.1732Y-3.4931
X7.1949Y-5.0601
X7.1949Y-5.1299
X7.3238Y-4.4724
T2
X5.2008Y-4.5709
X5.2451Y-3.3788
X5.4006Y-5.3199
X5.5361Y-5.2177
X5.6122Y-4.4065
X5.6152Y-4.5104
X5.6191Y-5.3524
X5.6614Y-3.8449
X5.7244Y-4.2244
X5.7333Y-3.6043
X5.7579Y-3.8671
X5.7687Y-3.3622
X5.7864Y-4.6919
X5.7953Y-4.2904
X5.842Y-3.3657
X5.8612Y-4.9715
X5.8976Y-3.3091
X5.9524Y-4.9704
X6.001Y-4.6801
X6.1347Y-4.6801
X6.3657Y-4.5677
X6.7543Y-3.5815
X6.9045Y-4.6024
X7.0276Y-3.49
X7.0354Y-4.3179
X7.0768Y-4.5266
X7.3874Y-5.363
X7.4764Y-3.2756
X7.5059Y-5.4577
X7.5581Y-5.3652
X7.5817Y-3.7943
X7.6289Y-4.1063
X7.7582Y-5.4986
X7.8517Y-5.5443
X7.937Y-5.4695
T3
X5.2891Y-2.9425
X5.3436Y-2.8307
X5.3981Y-2.9425
X5.4527Y-2.8307
X5.5072Y-2.9425
X5.5617Y-2.8307
X5.6163Y-2.9425
X5.6708Y-2.8307
X5.7253Y-2.9425
X5.7798Y-2.8307
X5.8344Y-2.9425
X5.8889Y-2.8307
X5.9434Y-2.9425
X5.998Y-2.8307
X6.0525Y-2.9425
X6.9291Y-2.94
X6.9836Y-2.8282
X7.0381Y-2.94
X7.0927Y-2.8282
X7.1472Y-2.94
X7.2017Y-2.8282
X7.2563Y-2.94
X7.3108Y-2.8282
X7.3653Y-2.94
X7.4198Y-2.8282
X7.4744Y-2.94
X7.5289Y-2.8282
X7.5834Y-2.94
X7.638Y-2.8282
X7.6925Y-2.94
T4
X6.0472Y-3.7026
X6.0472Y-3.8026
X6.0472Y-3.9026
X6.0472Y-4.0026
X6.0472Y-4.1026
X6.0472Y-4.2026
X6.0472Y-4.3026
X6.0472Y-4.4026
X6.0472Y-4.5026
X6.0472Y-4.6026
X6.148Y-3.7028
X6.148Y-3.8028
X6.148Y-3.9028
X6.148Y-4.0028
X6.148Y-4.1028
X6.148Y-4.2028
X6.148Y-4.3028
X6.148Y-4.4028
X6.148Y-4.5028
X6.148Y-4.6028
X6.1972Y-4.8426
X6.1972Y-4.7425
X6.2972Y-4.8426
X6.2972Y-4.7425
X6.3972Y-4.8426
X6.3972Y-4.7425
X6.4972Y-4.8426
X6.4972Y-4.7425
X6.5972Y-4.8426
X6.5972Y-4.7425
X6.648Y-3.7028
X6.648Y-3.8028
X6.648Y-3.9028
X6.648Y-4.0028
X6.648Y-4.1028
X6.648Y-4.2028
X6.648Y-4.3028
X6.648Y-4.4028
X6.648Y-4.5028
X6.648Y-4.6028
X6.7472Y-3.7026
X6.7472Y-3.8026
X6.7472Y-3.9026
X6.7472Y-4.0026
X6.7472Y-4.1026
X6.7472Y-4.2026
X6.7472Y-4.3026
X6.7472Y-4.4026
X6.7472Y-4.5026
X6.7472Y-4.6026
T5
X5.0153Y-2.8866
X6.3263Y-2.8866
X6.6553Y-2.8841
X7.9663Y-2.8841
T0
M30
