M48
; DRILL file {KiCad 7.0.7} date 2024 February 25, Sunday 10:58:15
; FORMAT={-:-/ absolute / inch / decimal}
; #@! TF.CreationDate,2024-02-25T10:58:15-08:00
; #@! TF.GenerationSoftware,Kicad,Pcbnew,7.0.7
; #@! TF.FileFunction,Plated,1,4,PTH
FMAT,2
INCH
; #@! TA.AperFunction,Plated,PTH,ComponentDrill
T1C0.0079
; #@! TA.AperFunction,Plated,PTH,ViaDrill
T2C0.0120
; #@! TA.AperFunction,Plated,PTH,ComponentDrill
T3C0.0256
; #@! TA.AperFunction,Plated,PTH,ComponentDrill
T4C0.0276
; #@! TA.AperFunction,Plated,PTH,ComponentDrill
T5C0.0360
; #@! TA.AperFunction,Plated,PTH,ComponentDrill
T6C0.0394
%
G90
G05
T1
X4.273Y-2.1301
X4.273Y-2.1691
X4.312Y-2.0911
X4.312Y-2.1301
X4.312Y-2.1691
X4.312Y-2.2081
X4.351Y-2.0911
X4.351Y-2.1301
X4.351Y-2.1691
X4.351Y-2.2081
X4.39Y-2.1301
X4.39Y-2.1691
T2
X3.4114Y-3.9528
X3.4281Y-3.2955
X3.435Y-4.8644
X3.44Y-3.1159
X3.4626Y-4.8144
X3.4665Y-3.902
X3.591Y-3.0495
X3.6354Y-5.0144
X3.6752Y-4.8644
X3.6844Y-3.952
X3.686Y-5.1244
X3.6952Y-4.2121
X3.7461Y-5.2539
X3.7552Y-4.3416
X3.7869Y-2.7805
X3.9606Y-2.3031
X3.9724Y-2.0768
X4.0059Y-2.3504
X4.0079Y-2.1161
X4.0492Y-2.3602
X4.0571Y-2.4843
X4.1181Y-4.7673
X4.122Y-2.498
X4.1273Y-3.855
X4.1437Y-2.2618
X4.1634Y-2.7618
X4.3485Y-1.7028
X4.3799Y-1.7421
X4.4114Y-1.7815
X4.4783Y-1.8524
X4.4902Y-2.0906
X4.5217Y-5.1041
X4.5236Y-2.7303
X4.5236Y-4.0354
X4.5256Y-1.878
X4.5256Y-2.7894
X4.5541Y-2.6709
X4.561Y-5.1541
X4.563Y-2.5945
X4.5689Y-4.0848
X4.5836Y-2.6949
X4.6575Y-2.4961
X4.6614Y-2.9016
X4.6929Y-2.0453
X4.6988Y-2.4685
X4.7056Y-3.0999
X4.7285Y-5.3041
X4.7539Y-2.1063
X4.7683Y-5.1541
X4.7791Y-5.4142
X4.7992Y-2.3563
X4.813Y-2.7303
X4.8192Y-4.0848
X4.83Y-4.3449
X4.8357Y-2.3228
X4.8392Y-5.5437
X4.8775Y-2.5768
X4.8901Y-4.4744
X4.9252Y-2.0472
X4.9383Y-2.4961
X4.9469Y-2.7593
X4.9469Y-2.8209
X5.0157Y-1.7972
X5.0512Y-2.5374
X5.0531Y-1.563
X5.0906Y-1.6476
X5.2112Y-5.0571
X5.237Y-3.2026
X5.2402Y-3.103
X5.2402Y-3.1522
X5.252Y-1.7579
X5.2621Y-3.9878
X5.4882Y-2.1614
X5.5059Y-1.9882
X5.5472Y-1.5531
X5.6496Y-4.7835
X5.6693Y-3.7874
X5.7126Y-4.7346
X5.7146Y-3.737
X5.8563Y-1.6122
X5.8811Y-4.9346
X5.9209Y-4.7846
X5.9217Y-3.787
X5.9317Y-5.0447
X5.9325Y-4.047
X5.9823Y-1.8701
X5.9843Y-1.3602
X5.9917Y-5.1742
X5.9925Y-4.1766
X6.2559Y-2.4232
X6.3638Y-4.6876
X6.3646Y-3.69
X6.8031Y-3.374
X6.8209Y-3.1614
X6.8445Y-4.2776
X6.8484Y-2.6949
X6.8976Y-2.6594
T5
X3.0965Y-2.9055
X3.0965Y-2.9843
X3.0965Y-3.063
X3.0965Y-3.1417
X3.0965Y-3.2205
X3.0965Y-3.2992
X3.0965Y-3.378
X3.0965Y-3.4567
X3.0965Y-3.5354
X3.0965Y-3.6142
X3.0965Y-3.6929
X3.0965Y-3.7717
X3.0965Y-3.8504
X3.0965Y-3.9291
X3.0965Y-4.0079
X3.0965Y-4.0866
X3.0965Y-4.1654
X3.0965Y-4.2441
X3.0965Y-4.3228
X3.0965Y-4.4016
X3.1752Y-2.9055
X3.1752Y-2.9843
X3.1752Y-3.063
X3.1752Y-3.1417
X3.1752Y-3.2205
X3.1752Y-3.2992
X3.1752Y-3.378
X3.1752Y-3.4567
X3.1752Y-3.5354
X3.1752Y-3.6142
X3.1752Y-3.6929
X3.1752Y-3.7717
X3.1752Y-3.8504
X3.1752Y-3.9291
X3.1752Y-4.0079
X3.1752Y-4.0866
X3.1752Y-4.1654
X3.1752Y-4.2441
X3.1752Y-4.3228
X3.1752Y-4.4016
X7.0835Y-2.845
X7.0835Y-2.9237
X7.0835Y-3.0025
X7.0835Y-3.0812
X7.0835Y-3.16
X7.0835Y-3.2387
X7.0835Y-3.3174
X7.0835Y-3.3962
X7.0835Y-3.4749
X7.0835Y-3.5537
X7.0835Y-3.6324
X7.0835Y-3.7111
X7.0835Y-3.7899
X7.0835Y-3.8686
X7.0835Y-3.9474
X7.0835Y-4.0261
X7.0835Y-4.1048
X7.0835Y-4.1836
X7.0835Y-4.2623
X7.0835Y-4.3411
X7.1622Y-2.845
X7.1622Y-2.9237
X7.1622Y-3.0025
X7.1622Y-3.0812
X7.1622Y-3.16
X7.1622Y-3.2387
X7.1622Y-3.3174
X7.1622Y-3.3962
X7.1622Y-3.4749
X7.1622Y-3.5537
X7.1622Y-3.6324
X7.1622Y-3.7111
X7.1622Y-3.7899
X7.1622Y-3.8686
X7.1622Y-3.9474
X7.1622Y-4.0261
X7.1622Y-4.1048
X7.1622Y-4.1836
X7.1622Y-4.2623
X7.1622Y-4.3411
T6
X4.2805Y-4.9285
X4.2805Y-5.0285
X4.2805Y-5.1285
X4.2897Y-4.0162
X4.2897Y-4.1162
X4.2897Y-4.2162
X4.815Y-2.8524
X4.815Y-2.9524
X4.815Y-3.0524
X4.815Y-3.1524
X4.815Y-3.2524
X4.815Y-3.3524
X5.3736Y-5.2183
X5.3736Y-5.3183
X5.3736Y-5.4183
X5.4245Y-4.149
X5.4245Y-4.249
X5.4245Y-4.349
X6.5262Y-4.8488
X6.5262Y-4.9488
X6.5262Y-5.0488
X6.527Y-3.8512
X6.527Y-3.9512
X6.527Y-4.0512
T3
G00X4.9421Y-1.3748
M15
G01X4.9421Y-1.3906
M16
G05
G00X5.1327Y-1.3748
M15
G01X5.1327Y-1.3906
M16
G05
T4
G00X4.9299Y-1.2547
M15
G01X4.9299Y-1.2744
M16
G05
G00X5.1449Y-1.2547
M15
G01X5.1449Y-1.2744
M16
G05
T0
M30
