%TF.GenerationSoftware,KiCad,Pcbnew,7.0.7*%
%TF.CreationDate,2024-02-25T10:58:23-08:00*%
%TF.ProjectId,Core-board 2,436f7265-2d62-46f6-9172-6420322e6b69,rev?*%
%TF.SameCoordinates,Original*%
%TF.FileFunction,Soldermask,Bot*%
%TF.FilePolarity,Negative*%
%FSLAX46Y46*%
G04 Gerber Fmt 4.6, Leading zero omitted, Abs format (unit mm)*
G04 Created by KiCad (PCBNEW 7.0.7) date 2024-02-25 10:58:23*
%MOMM*%
%LPD*%
G01*
G04 APERTURE LIST*
%ADD10R,1.700000X1.700000*%
%ADD11O,1.700000X1.700000*%
%ADD12O,1.350000X1.700000*%
%ADD13O,1.100000X1.500000*%
%ADD14C,1.371600*%
G04 APERTURE END LIST*
D10*
%TO.C,J9*%
X137782500Y-110465000D03*
D11*
X137782500Y-107925000D03*
X137782500Y-105385000D03*
%TD*%
D10*
%TO.C,J8*%
X165785000Y-102900000D03*
D11*
X165785000Y-100360000D03*
X165785000Y-97820000D03*
%TD*%
D12*
%TO.C,J3*%
X130680000Y-32120000D03*
D13*
X130370000Y-35120000D03*
X125530000Y-35120000D03*
D12*
X125220000Y-32120000D03*
%TD*%
D14*
%TO.C,J1*%
X78650000Y-73800000D03*
X80650000Y-73800000D03*
X78650000Y-75800000D03*
X80650000Y-75800000D03*
X78650000Y-77800000D03*
X80650000Y-77800000D03*
X78650000Y-79800000D03*
X80650000Y-79800000D03*
X78650000Y-81800000D03*
X80650000Y-81800000D03*
X78650000Y-83800000D03*
X80650000Y-83800000D03*
X78650000Y-85800000D03*
X80650000Y-85800000D03*
X78650000Y-87800000D03*
X80650000Y-87800000D03*
X78650000Y-89800000D03*
X80650000Y-89800000D03*
X78650000Y-91800000D03*
X80650000Y-91800000D03*
X78650000Y-93800000D03*
X80650000Y-93800000D03*
X78650000Y-95800000D03*
X80650000Y-95800000D03*
X78650000Y-97800000D03*
X80650000Y-97800000D03*
X78650000Y-99800000D03*
X80650000Y-99800000D03*
X78650000Y-101800000D03*
X80650000Y-101800000D03*
X78650000Y-103800000D03*
X80650000Y-103800000D03*
X78650000Y-105799900D03*
X80650000Y-105799900D03*
X78650000Y-107799900D03*
X80650000Y-107799900D03*
X78650000Y-109799900D03*
X80650000Y-109799900D03*
X78650000Y-111799900D03*
X80650000Y-111799900D03*
X179920000Y-72263169D03*
X181920000Y-72263169D03*
X179920000Y-74263169D03*
X181920000Y-74263169D03*
X179920000Y-76263169D03*
X181920000Y-76263169D03*
X179920000Y-78263169D03*
X181920000Y-78263169D03*
X179920000Y-80263069D03*
X181920000Y-80263069D03*
X179920000Y-82263069D03*
X181920000Y-82263069D03*
X179920000Y-84263069D03*
X181920000Y-84263069D03*
X179920000Y-86263069D03*
X181920000Y-86263069D03*
X179920000Y-88263069D03*
X181920000Y-88263069D03*
X179920000Y-90263069D03*
X181920000Y-90263069D03*
X179920000Y-92263069D03*
X181920000Y-92263069D03*
X179920000Y-94263069D03*
X181920000Y-94263069D03*
X179920000Y-96263069D03*
X181920000Y-96263069D03*
X179920000Y-98263069D03*
X181920000Y-98263069D03*
X179920000Y-100263069D03*
X181920000Y-100263069D03*
X179920000Y-102263069D03*
X181920000Y-102263069D03*
X179920000Y-104263069D03*
X181920000Y-104263069D03*
X179920000Y-106263069D03*
X181920000Y-106263069D03*
X179920000Y-108263069D03*
X181920000Y-108263069D03*
X179920000Y-110263069D03*
X181920000Y-110263069D03*
%TD*%
D10*
%TO.C,J5*%
X108957500Y-107092000D03*
D11*
X108957500Y-104552000D03*
X108957500Y-102012000D03*
%TD*%
D10*
%TO.C,J7*%
X136490000Y-137625000D03*
D11*
X136490000Y-135085000D03*
X136490000Y-132545000D03*
%TD*%
D10*
%TO.C,J4*%
X122300000Y-72450000D03*
D11*
X122300000Y-74990000D03*
X122300000Y-77530000D03*
X122300000Y-80070000D03*
X122300000Y-82610000D03*
X122300000Y-85150000D03*
%TD*%
D10*
%TO.C,J2*%
X165765000Y-128240000D03*
D11*
X165765000Y-125700000D03*
X165765000Y-123160000D03*
%TD*%
D10*
%TO.C,J6*%
X108725000Y-130265000D03*
D11*
X108725000Y-127725000D03*
X108725000Y-125185000D03*
%TD*%
M02*
