%TF.GenerationSoftware,KiCad,Pcbnew,7.0.7*%
%TF.CreationDate,2024-02-25T10:58:23-08:00*%
%TF.ProjectId,Core-board 2,436f7265-2d62-46f6-9172-6420322e6b69,rev?*%
%TF.SameCoordinates,Original*%
%TF.FileFunction,Copper,L4,Bot*%
%TF.FilePolarity,Positive*%
%FSLAX46Y46*%
G04 Gerber Fmt 4.6, Leading zero omitted, Abs format (unit mm)*
G04 Created by KiCad (PCBNEW 7.0.7) date 2024-02-25 10:58:23*
%MOMM*%
%LPD*%
G01*
G04 APERTURE LIST*
%TA.AperFunction,ComponentPad*%
%ADD10R,1.700000X1.700000*%
%TD*%
%TA.AperFunction,ComponentPad*%
%ADD11O,1.700000X1.700000*%
%TD*%
%TA.AperFunction,HeatsinkPad*%
%ADD12C,0.600000*%
%TD*%
%TA.AperFunction,ComponentPad*%
%ADD13O,1.350000X1.700000*%
%TD*%
%TA.AperFunction,ComponentPad*%
%ADD14O,1.100000X1.500000*%
%TD*%
%TA.AperFunction,ComponentPad*%
%ADD15C,1.371600*%
%TD*%
%TA.AperFunction,ViaPad*%
%ADD16C,0.711200*%
%TD*%
%TA.AperFunction,Conductor*%
%ADD17C,0.508000*%
%TD*%
%TA.AperFunction,Conductor*%
%ADD18C,0.254000*%
%TD*%
G04 APERTURE END LIST*
D10*
%TO.P,J9,1,Pin_1*%
%TO.N,/HX2_E+*%
X137782500Y-110465000D03*
D11*
%TO.P,J9,2,Pin_2*%
%TO.N,GND*%
X137782500Y-107925000D03*
%TO.P,J9,3,Pin_3*%
%TO.N,/HX2_A+*%
X137782500Y-105385000D03*
%TD*%
D12*
%TO.P,U10,41,GND__2*%
%TO.N,GND*%
X108535177Y-55094975D03*
X109525127Y-56084924D03*
X108535177Y-54105025D03*
X109525127Y-55094975D03*
X110515076Y-56084924D03*
X109525127Y-54105025D03*
X110515076Y-55094975D03*
X109525127Y-53115076D03*
X110515076Y-54105025D03*
X111505026Y-55094975D03*
X110515076Y-53115076D03*
X111505026Y-54105025D03*
%TD*%
D10*
%TO.P,J8,1,Pin_1*%
%TO.N,/HX3_E+*%
X165785000Y-102900000D03*
D11*
%TO.P,J8,2,Pin_2*%
%TO.N,GND*%
X165785000Y-100360000D03*
%TO.P,J8,3,Pin_3*%
%TO.N,/HX3_A+*%
X165785000Y-97820000D03*
%TD*%
D13*
%TO.P,J3,6,Shield*%
%TO.N,GND*%
X130680000Y-32120000D03*
D14*
X130370000Y-35120000D03*
X125530000Y-35120000D03*
D13*
X125220000Y-32120000D03*
%TD*%
D15*
%TO.P,J1,A1,Pin_1*%
%TO.N,+3.3V*%
X78650000Y-73800000D03*
%TO.P,J1,A2,Pin_2*%
X80650000Y-73800000D03*
%TO.P,J1,A3,Pin_3*%
%TO.N,GND*%
X78650000Y-75800000D03*
%TO.P,J1,A4,Pin_4*%
X80650000Y-75800000D03*
%TO.P,J1,A5,Pin_5*%
%TO.N,+5V*%
X78650000Y-77800000D03*
%TO.P,J1,A6,Pin_6*%
X80650000Y-77800000D03*
%TO.P,J1,A7,Pin_7*%
X78650000Y-79800000D03*
%TO.P,J1,A8,Pin_8*%
X80650000Y-79800000D03*
%TO.P,J1,A9,Pin_9*%
%TO.N,GND*%
X78650000Y-81800000D03*
%TO.P,J1,A10,Pin_10*%
X80650000Y-81800000D03*
%TO.P,J1,A11,Pin_11*%
%TO.N,unconnected-(J1A-Pin_11-PadA11)*%
X78650000Y-83800000D03*
%TO.P,J1,A12,Pin_12*%
%TO.N,unconnected-(J1A-Pin_12-PadA12)*%
X80650000Y-83800000D03*
%TO.P,J1,A13,Pin_13*%
%TO.N,GND*%
X78650000Y-85800000D03*
%TO.P,J1,A14,Pin_14*%
X80650000Y-85800000D03*
%TO.P,J1,A15,Pin_15*%
%TO.N,unconnected-(J1A-Pin_15-PadA15)*%
X78650000Y-87800000D03*
%TO.P,J1,A16,Pin_16*%
%TO.N,unconnected-(J1A-Pin_16-PadA16)*%
X80650000Y-87800000D03*
%TO.P,J1,A17,Pin_17*%
%TO.N,GND*%
X78650000Y-89800000D03*
%TO.P,J1,A18,Pin_18*%
X80650000Y-89800000D03*
%TO.P,J1,A19,Pin_19*%
%TO.N,unconnected-(J1A-Pin_19-PadA19)*%
X78650000Y-91800000D03*
%TO.P,J1,A20,Pin_20*%
%TO.N,unconnected-(J1A-Pin_20-PadA20)*%
X80650000Y-91800000D03*
%TO.P,J1,A21,Pin_21*%
%TO.N,GND*%
X78650000Y-93800000D03*
%TO.P,J1,A22,Pin_22*%
X80650000Y-93800000D03*
%TO.P,J1,A23,Pin_23*%
%TO.N,unconnected-(J1A-Pin_23-PadA23)*%
X78650000Y-95800000D03*
%TO.P,J1,A24,Pin_24*%
%TO.N,unconnected-(J1A-Pin_24-PadA24)*%
X80650000Y-95800000D03*
%TO.P,J1,A25,Pin_25*%
%TO.N,GND*%
X78650000Y-97800000D03*
%TO.P,J1,A26,Pin_26*%
X80650000Y-97800000D03*
%TO.P,J1,A27,Pin_27*%
%TO.N,unconnected-(J1A-Pin_27-PadA27)*%
X78650000Y-99800000D03*
%TO.P,J1,A28,Pin_28*%
%TO.N,unconnected-(J1A-Pin_28-PadA28)*%
X80650000Y-99800000D03*
%TO.P,J1,A29,Pin_29*%
%TO.N,unconnected-(J1A-Pin_29-PadA29)*%
X78650000Y-101800000D03*
%TO.P,J1,A30,Pin_30*%
%TO.N,unconnected-(J1A-Pin_30-PadA30)*%
X80650000Y-101800000D03*
%TO.P,J1,A31,Pin_31*%
%TO.N,unconnected-(J1A-Pin_31-PadA31)*%
X78650000Y-103800000D03*
%TO.P,J1,A32,Pin_32*%
%TO.N,unconnected-(J1A-Pin_32-PadA32)*%
X80650000Y-103800000D03*
%TO.P,J1,A33,Pin_33*%
%TO.N,unconnected-(J1A-Pin_33-PadA33)*%
X78650000Y-105799900D03*
%TO.P,J1,A34,Pin_34*%
%TO.N,unconnected-(J1A-Pin_34-PadA34)*%
X80650000Y-105799900D03*
%TO.P,J1,A35,Pin_35*%
%TO.N,unconnected-(J1A-Pin_35-PadA35)*%
X78650000Y-107799900D03*
%TO.P,J1,A36,Pin_36*%
%TO.N,unconnected-(J1A-Pin_36-PadA36)*%
X80650000Y-107799900D03*
%TO.P,J1,A37,Pin_37*%
%TO.N,unconnected-(J1A-Pin_37-PadA37)*%
X78650000Y-109799900D03*
%TO.P,J1,A38,Pin_38*%
%TO.N,unconnected-(J1A-Pin_38-PadA38)*%
X80650000Y-109799900D03*
%TO.P,J1,A39,Pin_39*%
%TO.N,unconnected-(J1A-Pin_39-PadA39)*%
X78650000Y-111799900D03*
%TO.P,J1,A40,Pin_40*%
%TO.N,unconnected-(J1A-Pin_40-PadA40)*%
X80650000Y-111799900D03*
%TO.P,J1,B1,Pin_1*%
%TO.N,/I2C_SDA*%
X179920000Y-72263169D03*
%TO.P,J1,B2,Pin_2*%
%TO.N,/SPI_CLK*%
X181920000Y-72263169D03*
%TO.P,J1,B3,Pin_3*%
%TO.N,/I2C_SCL*%
X179920000Y-74263169D03*
%TO.P,J1,B4,Pin_4*%
%TO.N,/SPI_MISO*%
X181920000Y-74263169D03*
%TO.P,J1,B5,Pin_5*%
%TO.N,GND*%
X179920000Y-76263169D03*
%TO.P,J1,B6,Pin_6*%
%TO.N,/SPI_MOSI*%
X181920000Y-76263169D03*
%TO.P,J1,B7,Pin_7*%
%TO.N,/PYRO1EN*%
X179920000Y-78263169D03*
%TO.P,J1,B8,Pin_8*%
%TO.N,GND*%
X181920000Y-78263169D03*
%TO.P,J1,B9,Pin_9*%
X179920000Y-80263069D03*
%TO.P,J1,B10,Pin_10*%
%TO.N,/TC1_CS*%
X181920000Y-80263069D03*
%TO.P,J1,B11,Pin_11*%
%TO.N,/HX1_E+*%
X179920000Y-82263069D03*
%TO.P,J1,B12,Pin_12*%
%TO.N,/TC2_CS*%
X181920000Y-82263069D03*
%TO.P,J1,B13,Pin_13*%
%TO.N,GND*%
X179920000Y-84263069D03*
%TO.P,J1,B14,Pin_14*%
%TO.N,/TC3_CS*%
X181920000Y-84263069D03*
%TO.P,J1,B15,Pin_15*%
%TO.N,/HX1_A+*%
X179920000Y-86263069D03*
%TO.P,J1,B16,Pin_16*%
%TO.N,/TC4_CS*%
X181920000Y-86263069D03*
%TO.P,J1,B17,Pin_17*%
%TO.N,GND*%
X179920000Y-88263069D03*
%TO.P,J1,B18,Pin_18*%
X181920000Y-88263069D03*
%TO.P,J1,B19,Pin_19*%
%TO.N,/HX2_E+*%
X179920000Y-90263069D03*
%TO.P,J1,B20,Pin_20*%
%TO.N,/PYRO2EN*%
X181920000Y-90263069D03*
%TO.P,J1,B21,Pin_21*%
%TO.N,GND*%
X179920000Y-92263069D03*
%TO.P,J1,B22,Pin_22*%
%TO.N,/PYRO3EN*%
X181920000Y-92263069D03*
%TO.P,J1,B23,Pin_23*%
%TO.N,/HX2_A+*%
X179920000Y-94263069D03*
%TO.P,J1,B24,Pin_24*%
%TO.N,/PYRO4EN*%
X181920000Y-94263069D03*
%TO.P,J1,B25,Pin_25*%
%TO.N,GND*%
X179920000Y-96263069D03*
%TO.P,J1,B26,Pin_26*%
X181920000Y-96263069D03*
%TO.P,J1,B27,Pin_27*%
%TO.N,/HX3_E+*%
X179920000Y-98263069D03*
%TO.P,J1,B28,Pin_28*%
%TO.N,/HX5_E+*%
X181920000Y-98263069D03*
%TO.P,J1,B29,Pin_29*%
%TO.N,GND*%
X179920000Y-100263069D03*
%TO.P,J1,B30,Pin_30*%
X181920000Y-100263069D03*
%TO.P,J1,B31,Pin_31*%
%TO.N,/HX3_A+*%
X179920000Y-102263069D03*
%TO.P,J1,B32,Pin_32*%
%TO.N,/HX5_A+*%
X181920000Y-102263069D03*
%TO.P,J1,B33,Pin_33*%
%TO.N,GND*%
X179920000Y-104263069D03*
%TO.P,J1,B34,Pin_34*%
X181920000Y-104263069D03*
%TO.P,J1,B35,Pin_35*%
%TO.N,/HX4_E+*%
X179920000Y-106263069D03*
%TO.P,J1,B36,Pin_36*%
%TO.N,/HX6_E+*%
X181920000Y-106263069D03*
%TO.P,J1,B37,Pin_37*%
%TO.N,GND*%
X179920000Y-108263069D03*
%TO.P,J1,B38,Pin_38*%
X181920000Y-108263069D03*
%TO.P,J1,B39,Pin_39*%
%TO.N,/HX4_A+*%
X179920000Y-110263069D03*
%TO.P,J1,B40,Pin_40*%
%TO.N,/HX6_A+*%
X181920000Y-110263069D03*
%TD*%
D10*
%TO.P,J5,1,Pin_1*%
%TO.N,/HX1_E+*%
X108957500Y-107092000D03*
D11*
%TO.P,J5,2,Pin_2*%
%TO.N,GND*%
X108957500Y-104552000D03*
%TO.P,J5,3,Pin_3*%
%TO.N,/HX1_A+*%
X108957500Y-102012000D03*
%TD*%
D10*
%TO.P,J7,1,Pin_1*%
%TO.N,/HX5_E+*%
X136490000Y-137625000D03*
D11*
%TO.P,J7,2,Pin_2*%
%TO.N,GND*%
X136490000Y-135085000D03*
%TO.P,J7,3,Pin_3*%
%TO.N,/HX5_A+*%
X136490000Y-132545000D03*
%TD*%
D10*
%TO.P,J4,1,Pin_1*%
%TO.N,/SPI_MOSI_BUF*%
X122300000Y-72450000D03*
D11*
%TO.P,J4,2,Pin_2*%
%TO.N,/SPI_MISO*%
X122300000Y-74990000D03*
%TO.P,J4,3,Pin_3*%
%TO.N,/SPI_CLK_BUF*%
X122300000Y-77530000D03*
%TO.P,J4,4,Pin_4*%
%TO.N,/SD_CS_BUF*%
X122300000Y-80070000D03*
%TO.P,J4,5,Pin_5*%
%TO.N,+3.3V*%
X122300000Y-82610000D03*
%TO.P,J4,6,Pin_6*%
%TO.N,GND*%
X122300000Y-85150000D03*
%TD*%
D10*
%TO.P,J2,1,Pin_1*%
%TO.N,/HX6_E+*%
X165765000Y-128240000D03*
D11*
%TO.P,J2,2,Pin_2*%
%TO.N,GND*%
X165765000Y-125700000D03*
%TO.P,J2,3,Pin_3*%
%TO.N,/HX6_A+*%
X165765000Y-123160000D03*
%TD*%
D10*
%TO.P,J6,1,Pin_1*%
%TO.N,/HX4_E+*%
X108725000Y-130265000D03*
D11*
%TO.P,J6,2,Pin_2*%
%TO.N,GND*%
X108725000Y-127725000D03*
%TO.P,J6,3,Pin_3*%
%TO.N,/HX4_A+*%
X108725000Y-125185000D03*
%TD*%
D16*
%TO.N,GND*%
X91212500Y-77457500D03*
X161640000Y-119065000D03*
X133100000Y-78815000D03*
X150410553Y-96190000D03*
X96187500Y-70625000D03*
X152190000Y-131425000D03*
X122915000Y-140810000D03*
X93350553Y-123555000D03*
X95150000Y-133450000D03*
X121115553Y-130915000D03*
X124207500Y-113650000D03*
X133657500Y-101290000D03*
X110452373Y-43250000D03*
X152210000Y-106085000D03*
X104832500Y-97917000D03*
X132365000Y-128450000D03*
X87375000Y-79145000D03*
X95382500Y-110277000D03*
X100900000Y-52750000D03*
X150390553Y-121530000D03*
X152000000Y-34550000D03*
X104600000Y-121090000D03*
X93583053Y-100382000D03*
X128350000Y-39700000D03*
X161660000Y-93725000D03*
X118400000Y-73700000D03*
X122408053Y-103755000D03*
X151950000Y-47500000D03*
%TO.N,/ESP32-S3-WROOM-1-Breakout/BOOT*%
X139850000Y-50500000D03*
X125100000Y-52000000D03*
%TO.N,/ESP32-S3-WROOM-1-Breakout/EN*%
X113750000Y-47050000D03*
X140900000Y-39450000D03*
%TO.N,/ESP32-S3-WROOM-1-Breakout/USB_D+*%
X127400000Y-45650000D03*
X120750000Y-53500000D03*
%TO.N,/ESP32-S3-WROOM-1-Breakout/USB_D-*%
X119200000Y-51950000D03*
X129300000Y-41850000D03*
%TO.N,+5V*%
X93857500Y-106987000D03*
X150665000Y-128135000D03*
X87075000Y-83705000D03*
X150685000Y-102795000D03*
X133400000Y-44650000D03*
X121390000Y-137520000D03*
X93625000Y-130160000D03*
X122682500Y-110360000D03*
%TO.N,+3.3V*%
X149380000Y-125340000D03*
X120105000Y-134725000D03*
X148750000Y-40950000D03*
X92340000Y-127365000D03*
X101800000Y-53750000D03*
%TO.N,/I2C_SDA*%
X122250000Y-69350000D03*
X114900000Y-69350000D03*
%TO.N,/SPI_CLK*%
X119350000Y-62700000D03*
X116422700Y-68450000D03*
%TO.N,/I2C_SCL*%
X173950000Y-68450000D03*
%TO.N,/SPI_MISO*%
X125650000Y-70086100D03*
X125650000Y-71650000D03*
X123889448Y-65450000D03*
%TO.N,/SPI_MOSI*%
X175200000Y-67550000D03*
X118300000Y-63400000D03*
X115674936Y-67840493D03*
%TO.N,/PYRO1EN*%
X158900000Y-61550000D03*
%TO.N,/TC1_CS*%
X111248424Y-44250000D03*
%TO.N,/TC2_CS*%
X112050000Y-45250000D03*
%TO.N,/TC3_CS*%
X114950000Y-47700000D03*
%TO.N,/HX1_A+*%
X173250000Y-80300000D03*
%TO.N,/TC4_CS*%
X139400000Y-54900000D03*
%TO.N,/PYRO2EN*%
X122827601Y-59000000D03*
X128300000Y-64450000D03*
%TO.N,/PYRO3EN*%
X125431550Y-63400000D03*
X121900000Y-59850000D03*
%TO.N,/HX2_A+*%
X172800000Y-85700000D03*
%TO.N,/HX4_A+*%
X173850000Y-108650000D03*
%TO.N,/SPI_CLK_BUF*%
X119521998Y-78736998D03*
X133100000Y-80065000D03*
%TO.N,/SD_CS_BUF*%
X133020000Y-81345000D03*
%TO.N,/SD_CS*%
X115900000Y-65900000D03*
X114050000Y-53100000D03*
%TO.N,/HX_CLK*%
X87950000Y-122285000D03*
X88050000Y-99112000D03*
X145150000Y-94920000D03*
X114900000Y-102500000D03*
X145100000Y-120260000D03*
X105750000Y-70150000D03*
X114950000Y-70850000D03*
X114850000Y-129645000D03*
%TO.N,/HX6_DT*%
X104700000Y-63450000D03*
X143500000Y-121500000D03*
%TO.N,/HX1_DT*%
X86650000Y-100400000D03*
X100600000Y-58500000D03*
%TO.N,/HX2_DT*%
X101750000Y-59700000D03*
X116050000Y-103755000D03*
%TO.N,/HX3_DT*%
X144000000Y-96200000D03*
X102850000Y-59950000D03*
%TO.N,/HX4_DT*%
X87250000Y-123555000D03*
X105250000Y-57450000D03*
%TO.N,/HX5_DT*%
X115850000Y-130915000D03*
X103050000Y-63100000D03*
%TD*%
D17*
%TO.N,/ESP32-S3-WROOM-1-Breakout/BOOT*%
X126900000Y-50500000D02*
X126600000Y-50500000D01*
X139850000Y-50500000D02*
X126900000Y-50500000D01*
X126600000Y-50500000D02*
X125100000Y-52000000D01*
%TO.N,/ESP32-S3-WROOM-1-Breakout/EN*%
X120236400Y-40563600D02*
X113750000Y-47050000D01*
X139786400Y-40563600D02*
X120236400Y-40563600D01*
X140900000Y-39450000D02*
X139786400Y-40563600D01*
%TO.N,/HX3_E+*%
X175283069Y-102900000D02*
X179920000Y-98263069D01*
X165785000Y-102900000D02*
X175283069Y-102900000D01*
D18*
%TO.N,/ESP32-S3-WROOM-1-Breakout/USB_D+*%
X127400000Y-46850000D02*
X120750000Y-53500000D01*
X127400000Y-46850000D02*
X127400000Y-45650000D01*
%TO.N,/ESP32-S3-WROOM-1-Breakout/USB_D-*%
X119200000Y-51950000D02*
X129300000Y-41850000D01*
D17*
%TO.N,+3.3V*%
X120105000Y-134725000D02*
X99700000Y-134725000D01*
X113954406Y-38000000D02*
X101800000Y-50154406D01*
X148750000Y-40950000D02*
X145800000Y-38000000D01*
X149380000Y-125340000D02*
X140710000Y-125340000D01*
X99700000Y-134725000D02*
X92340000Y-127365000D01*
X140710000Y-125340000D02*
X131325000Y-134725000D01*
X101800000Y-50154406D02*
X101800000Y-53750000D01*
X145800000Y-38000000D02*
X113954406Y-38000000D01*
X131325000Y-134725000D02*
X120105000Y-134725000D01*
D18*
%TO.N,/I2C_SDA*%
X114900000Y-69350000D02*
X122250000Y-69350000D01*
%TO.N,/SPI_CLK*%
X116422700Y-68450000D02*
X119350000Y-65522700D01*
X119350000Y-65522700D02*
X119350000Y-62700000D01*
%TO.N,/I2C_SCL*%
X174106831Y-68450000D02*
X173950000Y-68450000D01*
X179920000Y-74263169D02*
X174106831Y-68450000D01*
%TO.N,/SPI_MISO*%
X123900000Y-65450000D02*
X125650000Y-67200000D01*
X125640000Y-71650000D02*
X122300000Y-74990000D01*
X125650000Y-67200000D02*
X125650000Y-70086100D01*
X123889448Y-65450000D02*
X123900000Y-65450000D01*
X125650000Y-71650000D02*
X125640000Y-71650000D01*
%TO.N,/SPI_MOSI*%
X183750000Y-71700000D02*
X183750000Y-74433169D01*
X115674936Y-67825064D02*
X118300000Y-65200000D01*
X179600000Y-67550000D02*
X183750000Y-71700000D01*
X183750000Y-74433169D02*
X181920000Y-76263169D01*
X175200000Y-67550000D02*
X179600000Y-67550000D01*
X118300000Y-65200000D02*
X118300000Y-63400000D01*
X115674936Y-67840493D02*
X115674936Y-67825064D01*
%TO.N,/PYRO1EN*%
X158900000Y-61550000D02*
X175613169Y-78263169D01*
X175613169Y-78263169D02*
X179920000Y-78263169D01*
%TO.N,/TC1_CS*%
X185000000Y-70500000D02*
X185000000Y-77183069D01*
X111248424Y-44250000D02*
X111248424Y-47498424D01*
X121700000Y-57950000D02*
X172450000Y-57950000D01*
X172450000Y-57950000D02*
X185000000Y-70500000D01*
X111248424Y-47498424D02*
X121700000Y-57950000D01*
X185000000Y-77183069D02*
X181920000Y-80263069D01*
%TO.N,/TC2_CS*%
X186200000Y-69900000D02*
X186200000Y-77983069D01*
X121900000Y-56900000D02*
X173200000Y-56900000D01*
X186200000Y-77983069D02*
X181920000Y-82263069D01*
X173200000Y-56900000D02*
X186200000Y-69900000D01*
X112050000Y-45250000D02*
X112050000Y-47050000D01*
X112050000Y-47050000D02*
X121900000Y-56900000D01*
%TO.N,/TC3_CS*%
X187300000Y-69350000D02*
X187300000Y-78883069D01*
X114950000Y-47700000D02*
X114950000Y-48741710D01*
X187300000Y-78883069D02*
X181920000Y-84263069D01*
X114950000Y-48741710D02*
X122008290Y-55800000D01*
X122008290Y-55800000D02*
X173750000Y-55800000D01*
X173750000Y-55800000D02*
X187300000Y-69350000D01*
D17*
%TO.N,/HX1_A+*%
X173956931Y-80300000D02*
X179920000Y-86263069D01*
X173250000Y-80300000D02*
X173956931Y-80300000D01*
D18*
%TO.N,/TC4_CS*%
X174150000Y-54900000D02*
X188350000Y-69100000D01*
X188350000Y-69100000D02*
X188350000Y-79833069D01*
X188350000Y-79833069D02*
X181920000Y-86263069D01*
X139400000Y-54900000D02*
X174150000Y-54900000D01*
%TO.N,/PYRO2EN*%
X122827601Y-59000000D02*
X128277601Y-64450000D01*
X128277601Y-64450000D02*
X128300000Y-64450000D01*
%TO.N,/PYRO3EN*%
X121900000Y-59850000D02*
X125431550Y-63381550D01*
X125431550Y-63381550D02*
X125431550Y-63400000D01*
D17*
%TO.N,/HX2_A+*%
X178436931Y-94263069D02*
X179920000Y-94263069D01*
X176700000Y-89650000D02*
X176700000Y-92600000D01*
X176700000Y-92600000D02*
X178400000Y-94300000D01*
X172800000Y-85750000D02*
X176700000Y-89650000D01*
X178400000Y-94300000D02*
X178436931Y-94263069D01*
X172800000Y-85700000D02*
X172800000Y-85750000D01*
%TO.N,/HX4_A+*%
X173850000Y-108650000D02*
X178306931Y-108650000D01*
X178306931Y-108650000D02*
X179920000Y-110263069D01*
D18*
%TO.N,/SPI_CLK_BUF*%
X121093002Y-78736998D02*
X122300000Y-77530000D01*
X124835000Y-80065000D02*
X122300000Y-77530000D01*
X133100000Y-80065000D02*
X124835000Y-80065000D01*
X119521998Y-78736998D02*
X121093002Y-78736998D01*
%TO.N,/SD_CS_BUF*%
X123575000Y-81345000D02*
X122300000Y-80070000D01*
X133020000Y-81345000D02*
X123575000Y-81345000D01*
%TO.N,/SD_CS*%
X115900000Y-55250000D02*
X114050000Y-53400000D01*
X115900000Y-65900000D02*
X115900000Y-55250000D01*
X114050000Y-53400000D02*
X114050000Y-53100000D01*
%TO.N,/HX_CLK*%
X114900000Y-102500000D02*
X114900000Y-129450000D01*
X114900000Y-102500000D02*
X114900000Y-79300000D01*
X114900000Y-79300000D02*
X105750000Y-70150000D01*
X145150000Y-94920000D02*
X145150000Y-120210000D01*
X145150000Y-89823290D02*
X145150000Y-94920000D01*
X145150000Y-120210000D02*
X145100000Y-120260000D01*
X88050000Y-122185000D02*
X88050000Y-99112000D01*
X114950000Y-70850000D02*
X126176710Y-70850000D01*
X105750000Y-70150000D02*
X105750000Y-70550000D01*
X87950000Y-122285000D02*
X88050000Y-122185000D01*
X105750000Y-70550000D02*
X105750000Y-77800000D01*
X105750000Y-77800000D02*
X88050000Y-95500000D01*
X88050000Y-95500000D02*
X88050000Y-99112000D01*
X126176710Y-70850000D02*
X145150000Y-89823290D01*
%TO.N,/HX6_DT*%
X117800000Y-83800000D02*
X117800000Y-76550000D01*
X143500000Y-121500000D02*
X143500000Y-99050000D01*
X117800000Y-76550000D02*
X104700000Y-63450000D01*
X143500000Y-99050000D02*
X141550000Y-97100000D01*
X131100000Y-97100000D02*
X117800000Y-83800000D01*
X141550000Y-97100000D02*
X131100000Y-97100000D01*
%TO.N,/HX1_DT*%
X100400000Y-80850000D02*
X86650000Y-94600000D01*
X100600000Y-58500000D02*
X100400000Y-58700000D01*
X100400000Y-58700000D02*
X100400000Y-80850000D01*
X86650000Y-94600000D02*
X86650000Y-100400000D01*
%TO.N,/HX2_DT*%
X116050000Y-103755000D02*
X116050000Y-78400000D01*
X101750000Y-64100000D02*
X116050000Y-78400000D01*
X101750000Y-64100000D02*
X101750000Y-59700000D01*
%TO.N,/HX3_DT*%
X131609103Y-96200000D02*
X118700000Y-83290897D01*
X102850000Y-60000000D02*
X102850000Y-59950000D01*
X118700000Y-83290897D02*
X118700000Y-75850000D01*
X144000000Y-96200000D02*
X131609103Y-96200000D01*
X118700000Y-75850000D02*
X102850000Y-60000000D01*
%TO.N,/HX4_DT*%
X87250000Y-123555000D02*
X85600000Y-121905000D01*
X100608290Y-57450000D02*
X105250000Y-57450000D01*
X85600000Y-93100000D02*
X98550000Y-80150000D01*
X98550000Y-59508290D02*
X100608290Y-57450000D01*
X85600000Y-121905000D02*
X85600000Y-93100000D01*
X98550000Y-80150000D02*
X98550000Y-59508290D01*
%TO.N,/HX5_DT*%
X115850000Y-118900000D02*
X117100000Y-117650000D01*
X117100000Y-117650000D02*
X117100000Y-77150000D01*
X117100000Y-77150000D02*
X103050000Y-63100000D01*
X115850000Y-130915000D02*
X115850000Y-118900000D01*
%TD*%
M02*
