%TF.GenerationSoftware,KiCad,Pcbnew,7.0.7*%
%TF.CreationDate,2024-02-25T10:58:23-08:00*%
%TF.ProjectId,Core-board 2,436f7265-2d62-46f6-9172-6420322e6b69,rev?*%
%TF.SameCoordinates,Original*%
%TF.FileFunction,Soldermask,Top*%
%TF.FilePolarity,Negative*%
%FSLAX46Y46*%
G04 Gerber Fmt 4.6, Leading zero omitted, Abs format (unit mm)*
G04 Created by KiCad (PCBNEW 7.0.7) date 2024-02-25 10:58:23*
%MOMM*%
%LPD*%
G01*
G04 APERTURE LIST*
G04 Aperture macros list*
%AMRoundRect*
0 Rectangle with rounded corners*
0 $1 Rounding radius*
0 $2 $3 $4 $5 $6 $7 $8 $9 X,Y pos of 4 corners*
0 Add a 4 corners polygon primitive as box body*
4,1,4,$2,$3,$4,$5,$6,$7,$8,$9,$2,$3,0*
0 Add four circle primitives for the rounded corners*
1,1,$1+$1,$2,$3*
1,1,$1+$1,$4,$5*
1,1,$1+$1,$6,$7*
1,1,$1+$1,$8,$9*
0 Add four rect primitives between the rounded corners*
20,1,$1+$1,$2,$3,$4,$5,0*
20,1,$1+$1,$4,$5,$6,$7,0*
20,1,$1+$1,$6,$7,$8,$9,0*
20,1,$1+$1,$8,$9,$2,$3,0*%
%AMRotRect*
0 Rectangle, with rotation*
0 The origin of the aperture is its center*
0 $1 length*
0 $2 width*
0 $3 Rotation angle, in degrees counterclockwise*
0 Add horizontal line*
21,1,$1,$2,0,0,$3*%
G04 Aperture macros list end*
%ADD10RoundRect,0.200000X0.275000X-0.200000X0.275000X0.200000X-0.275000X0.200000X-0.275000X-0.200000X0*%
%ADD11RoundRect,0.200000X0.200000X0.275000X-0.200000X0.275000X-0.200000X-0.275000X0.200000X-0.275000X0*%
%ADD12RoundRect,0.225000X0.250000X-0.225000X0.250000X0.225000X-0.250000X0.225000X-0.250000X-0.225000X0*%
%ADD13RoundRect,0.150000X-0.587500X-0.150000X0.587500X-0.150000X0.587500X0.150000X-0.587500X0.150000X0*%
%ADD14RoundRect,0.200000X-0.200000X-0.275000X0.200000X-0.275000X0.200000X0.275000X-0.200000X0.275000X0*%
%ADD15RoundRect,0.150000X0.150000X-0.587500X0.150000X0.587500X-0.150000X0.587500X-0.150000X-0.587500X0*%
%ADD16RoundRect,0.250000X0.475000X-0.337500X0.475000X0.337500X-0.475000X0.337500X-0.475000X-0.337500X0*%
%ADD17R,1.700000X1.700000*%
%ADD18O,1.700000X1.700000*%
%ADD19RoundRect,0.250001X0.462499X0.624999X-0.462499X0.624999X-0.462499X-0.624999X0.462499X-0.624999X0*%
%ADD20RoundRect,0.225000X0.225000X0.250000X-0.225000X0.250000X-0.225000X-0.250000X0.225000X-0.250000X0*%
%ADD21RoundRect,0.150000X0.850000X0.150000X-0.850000X0.150000X-0.850000X-0.150000X0.850000X-0.150000X0*%
%ADD22RotRect,1.500000X0.900000X45.000000*%
%ADD23RotRect,1.500000X0.900000X225.000000*%
%ADD24RotRect,1.500000X0.900000X315.000000*%
%ADD25C,0.600000*%
%ADD26RotRect,3.900000X3.900000X315.000000*%
%ADD27RoundRect,0.250000X0.337500X0.475000X-0.337500X0.475000X-0.337500X-0.475000X0.337500X-0.475000X0*%
%ADD28RoundRect,0.250000X0.650000X-0.412500X0.650000X0.412500X-0.650000X0.412500X-0.650000X-0.412500X0*%
%ADD29R,0.400000X1.650000*%
%ADD30R,1.825000X0.700000*%
%ADD31R,2.000000X1.500000*%
%ADD32R,1.350000X2.000000*%
%ADD33O,1.350000X1.700000*%
%ADD34O,1.100000X1.500000*%
%ADD35R,1.430000X2.500000*%
%ADD36C,1.371600*%
%ADD37R,1.600000X1.400000*%
%ADD38RoundRect,0.151600X0.555400X0.260400X-0.555400X0.260400X-0.555400X-0.260400X0.555400X-0.260400X0*%
%ADD39RoundRect,0.250000X-0.850000X-0.350000X0.850000X-0.350000X0.850000X0.350000X-0.850000X0.350000X0*%
%ADD40RoundRect,0.249997X-2.950003X-2.650003X2.950003X-2.650003X2.950003X2.650003X-2.950003X2.650003X0*%
%ADD41RoundRect,0.250000X0.800000X-0.450000X0.800000X0.450000X-0.800000X0.450000X-0.800000X-0.450000X0*%
%ADD42RoundRect,0.250000X0.350000X0.450000X-0.350000X0.450000X-0.350000X-0.450000X0.350000X-0.450000X0*%
%ADD43RoundRect,0.250000X-0.350000X-0.450000X0.350000X-0.450000X0.350000X0.450000X-0.350000X0.450000X0*%
%ADD44RoundRect,0.102000X0.600000X-0.300000X0.600000X0.300000X-0.600000X0.300000X-0.600000X-0.300000X0*%
G04 APERTURE END LIST*
D10*
%TO.C,R44*%
X133615000Y-127525000D03*
X133615000Y-125875000D03*
%TD*%
D11*
%TO.C,R47*%
X139132500Y-98795000D03*
X137482500Y-98795000D03*
%TD*%
D12*
%TO.C,C19*%
X126640000Y-127575000D03*
X126640000Y-126025000D03*
%TD*%
D13*
%TO.C,Q5*%
X156010000Y-103785000D03*
X156010000Y-105685000D03*
X157885000Y-104735000D03*
%TD*%
D10*
%TO.C,R38*%
X132132500Y-107965000D03*
X132132500Y-106315000D03*
%TD*%
D12*
%TO.C,C20*%
X126640000Y-131225000D03*
X126640000Y-129675000D03*
%TD*%
D13*
%TO.C,Q1*%
X155990000Y-129125000D03*
X155990000Y-131025000D03*
X157865000Y-130075000D03*
%TD*%
D14*
%TO.C,R27*%
X129265000Y-125950000D03*
X130915000Y-125950000D03*
%TD*%
%TO.C,R31*%
X158560000Y-91225000D03*
X160210000Y-91225000D03*
%TD*%
D13*
%TO.C,Q2*%
X99182500Y-107977000D03*
X99182500Y-109877000D03*
X101057500Y-108927000D03*
%TD*%
D11*
%TO.C,R39*%
X167115000Y-116570000D03*
X165465000Y-116570000D03*
%TD*%
D14*
%TO.C,R24*%
X101525000Y-121090000D03*
X103175000Y-121090000D03*
%TD*%
D12*
%TO.C,C27*%
X127932500Y-100415000D03*
X127932500Y-98865000D03*
%TD*%
D11*
%TO.C,R37*%
X129407500Y-106190000D03*
X127757500Y-106190000D03*
%TD*%
D15*
%TO.C,D1*%
X127400000Y-40375000D03*
X129300000Y-40375000D03*
X128350000Y-38500000D03*
%TD*%
D14*
%TO.C,R23*%
X101500000Y-118590000D03*
X103150000Y-118590000D03*
%TD*%
D16*
%TO.C,C9*%
X153700000Y-50137500D03*
X153700000Y-48062500D03*
%TD*%
D17*
%TO.C,J9*%
X137782500Y-110465000D03*
D18*
X137782500Y-107925000D03*
X137782500Y-105385000D03*
%TD*%
D19*
%TO.C,D3*%
X93600000Y-70600000D03*
X90625000Y-70600000D03*
%TD*%
D20*
%TO.C,C14*%
X95175000Y-131850000D03*
X93625000Y-131850000D03*
%TD*%
D10*
%TO.C,R42*%
X105850000Y-120165000D03*
X105850000Y-118515000D03*
%TD*%
D21*
%TO.C,U4*%
X95150000Y-128635000D03*
X95150000Y-127365000D03*
X95150000Y-126095000D03*
X95150000Y-124825000D03*
X95150000Y-123555000D03*
X95150000Y-122285000D03*
X95150000Y-121015000D03*
X95150000Y-119745000D03*
X90150000Y-119745000D03*
X90150000Y-121015000D03*
X90150000Y-122285000D03*
X90150000Y-123555000D03*
X90150000Y-124825000D03*
X90150000Y-126095000D03*
X90150000Y-127365000D03*
X90150000Y-128635000D03*
%TD*%
D14*
%TO.C,R35*%
X130557500Y-98790000D03*
X132207500Y-98790000D03*
%TD*%
D22*
%TO.C,U10*%
X99434713Y-54267660D03*
X100332739Y-55165685D03*
X101230764Y-56063711D03*
X102128790Y-56961737D03*
X103026815Y-57859762D03*
X103924841Y-58757788D03*
X104822867Y-59655813D03*
X105720892Y-60553839D03*
X106618918Y-61451865D03*
X107516944Y-62349890D03*
X108414969Y-63247916D03*
X109312995Y-64145941D03*
X110211020Y-65043967D03*
D23*
X111109046Y-65941993D03*
D24*
X113240973Y-65577833D03*
X114138999Y-64679807D03*
X115037024Y-63781781D03*
X115935050Y-62883756D03*
X116833075Y-61985730D03*
X117731101Y-61087705D03*
X118629127Y-60189679D03*
X119527152Y-59291653D03*
X120425178Y-58393628D03*
X121323203Y-57495602D03*
X122221229Y-56597577D03*
X123119255Y-55699551D03*
D22*
X123483415Y-53567624D03*
X122585389Y-52669598D03*
X121687363Y-51771573D03*
X120789338Y-50873547D03*
X119891312Y-49975522D03*
X118993287Y-49077496D03*
X118095261Y-48179470D03*
X117197235Y-47281445D03*
X116299210Y-46383419D03*
X115401184Y-45485393D03*
X114503159Y-44587368D03*
X113605133Y-43689342D03*
X112707107Y-42791317D03*
X111809082Y-41893291D03*
D25*
X108535177Y-55094975D03*
X109525127Y-56084924D03*
X108535177Y-54105025D03*
X109525127Y-55094975D03*
X110515076Y-56084924D03*
X109525127Y-54105025D03*
D26*
X110020102Y-54600000D03*
D25*
X110515076Y-55094975D03*
X109525127Y-53115076D03*
X110515076Y-54105025D03*
X111505026Y-55094975D03*
X110515076Y-53115076D03*
X111505026Y-54105025D03*
%TD*%
D12*
%TO.C,C4*%
X155915000Y-121840000D03*
X155915000Y-120290000D03*
%TD*%
D20*
%TO.C,C5*%
X100507500Y-105017000D03*
X98957500Y-105017000D03*
%TD*%
%TO.C,C25*%
X129332500Y-108390000D03*
X127782500Y-108390000D03*
%TD*%
%TO.C,C22*%
X152235000Y-104485000D03*
X150685000Y-104485000D03*
%TD*%
%TO.C,C6*%
X95407500Y-108677000D03*
X93857500Y-108677000D03*
%TD*%
D27*
%TO.C,C12*%
X93287500Y-75600000D03*
X91212500Y-75600000D03*
%TD*%
D20*
%TO.C,C17*%
X128040000Y-135550000D03*
X126490000Y-135550000D03*
%TD*%
D12*
%TO.C,C23*%
X155935000Y-92850000D03*
X155935000Y-91300000D03*
%TD*%
D28*
%TO.C,C11*%
X85300000Y-82912500D03*
X85300000Y-79787500D03*
%TD*%
D14*
%TO.C,R28*%
X129290000Y-128450000D03*
X130940000Y-128450000D03*
%TD*%
D20*
%TO.C,C21*%
X157335000Y-100825000D03*
X155785000Y-100825000D03*
%TD*%
D16*
%TO.C,C10*%
X153800000Y-37250000D03*
X153800000Y-35175000D03*
%TD*%
D11*
%TO.C,R1*%
X110307500Y-95422000D03*
X108657500Y-95422000D03*
%TD*%
%TO.C,R33*%
X157410000Y-98625000D03*
X155760000Y-98625000D03*
%TD*%
D17*
%TO.C,J8*%
X165785000Y-102900000D03*
D18*
X165785000Y-100360000D03*
X165785000Y-97820000D03*
%TD*%
D29*
%TO.C,J3*%
X129250000Y-35000000D03*
X128600000Y-35000000D03*
X127950000Y-35000000D03*
X127300000Y-35000000D03*
X126650000Y-35000000D03*
D30*
X130900000Y-33800000D03*
D31*
X130800000Y-35100000D03*
D32*
X130680000Y-33050000D03*
D33*
X130680000Y-32120000D03*
D34*
X130370000Y-35120000D03*
D35*
X128910000Y-31850000D03*
X126990000Y-31850000D03*
D34*
X125530000Y-35120000D03*
D33*
X125220000Y-32120000D03*
D32*
X125200000Y-33050000D03*
D31*
X125050000Y-35120000D03*
D30*
X124950000Y-33800000D03*
%TD*%
D36*
%TO.C,J1*%
X78650000Y-73800000D03*
X80650000Y-73800000D03*
X78650000Y-75800000D03*
X80650000Y-75800000D03*
X78650000Y-77800000D03*
X80650000Y-77800000D03*
X78650000Y-79800000D03*
X80650000Y-79800000D03*
X78650000Y-81800000D03*
X80650000Y-81800000D03*
X78650000Y-83800000D03*
X80650000Y-83800000D03*
X78650000Y-85800000D03*
X80650000Y-85800000D03*
X78650000Y-87800000D03*
X80650000Y-87800000D03*
X78650000Y-89800000D03*
X80650000Y-89800000D03*
X78650000Y-91800000D03*
X80650000Y-91800000D03*
X78650000Y-93800000D03*
X80650000Y-93800000D03*
X78650000Y-95800000D03*
X80650000Y-95800000D03*
X78650000Y-97800000D03*
X80650000Y-97800000D03*
X78650000Y-99800000D03*
X80650000Y-99800000D03*
X78650000Y-101800000D03*
X80650000Y-101800000D03*
X78650000Y-103800000D03*
X80650000Y-103800000D03*
X78650000Y-105799900D03*
X80650000Y-105799900D03*
X78650000Y-107799900D03*
X80650000Y-107799900D03*
X78650000Y-109799900D03*
X80650000Y-109799900D03*
X78650000Y-111799900D03*
X80650000Y-111799900D03*
X179920000Y-72263169D03*
X181920000Y-72263169D03*
X179920000Y-74263169D03*
X181920000Y-74263169D03*
X179920000Y-76263169D03*
X181920000Y-76263169D03*
X179920000Y-78263169D03*
X181920000Y-78263169D03*
X179920000Y-80263069D03*
X181920000Y-80263069D03*
X179920000Y-82263069D03*
X181920000Y-82263069D03*
X179920000Y-84263069D03*
X181920000Y-84263069D03*
X179920000Y-86263069D03*
X181920000Y-86263069D03*
X179920000Y-88263069D03*
X181920000Y-88263069D03*
X179920000Y-90263069D03*
X181920000Y-90263069D03*
X179920000Y-92263069D03*
X181920000Y-92263069D03*
X179920000Y-94263069D03*
X181920000Y-94263069D03*
X179920000Y-96263069D03*
X181920000Y-96263069D03*
X179920000Y-98263069D03*
X181920000Y-98263069D03*
X179920000Y-100263069D03*
X181920000Y-100263069D03*
X179920000Y-102263069D03*
X181920000Y-102263069D03*
X179920000Y-104263069D03*
X181920000Y-104263069D03*
X179920000Y-106263069D03*
X181920000Y-106263069D03*
X179920000Y-108263069D03*
X181920000Y-108263069D03*
X179920000Y-110263069D03*
X181920000Y-110263069D03*
%TD*%
D10*
%TO.C,R30*%
X130840000Y-135125000D03*
X130840000Y-133475000D03*
%TD*%
D12*
%TO.C,C15*%
X98875000Y-120215000D03*
X98875000Y-118665000D03*
%TD*%
%TO.C,C28*%
X127932500Y-104065000D03*
X127932500Y-102515000D03*
%TD*%
D20*
%TO.C,C26*%
X124232500Y-112050000D03*
X122682500Y-112050000D03*
%TD*%
D10*
%TO.C,R16*%
X160115000Y-125740000D03*
X160115000Y-124090000D03*
%TD*%
D11*
%TO.C,R25*%
X100350000Y-125990000D03*
X98700000Y-125990000D03*
%TD*%
D17*
%TO.C,J5*%
X108957500Y-107092000D03*
D18*
X108957500Y-104552000D03*
X108957500Y-102012000D03*
%TD*%
D20*
%TO.C,C2*%
X152215000Y-129825000D03*
X150665000Y-129825000D03*
%TD*%
D13*
%TO.C,Q3*%
X98950000Y-131150000D03*
X98950000Y-133050000D03*
X100825000Y-132100000D03*
%TD*%
D21*
%TO.C,U5*%
X122915000Y-135995000D03*
X122915000Y-134725000D03*
X122915000Y-133455000D03*
X122915000Y-132185000D03*
X122915000Y-130915000D03*
X122915000Y-129645000D03*
X122915000Y-128375000D03*
X122915000Y-127105000D03*
X117915000Y-127105000D03*
X117915000Y-128375000D03*
X117915000Y-129645000D03*
X117915000Y-130915000D03*
X117915000Y-132185000D03*
X117915000Y-133455000D03*
X117915000Y-134725000D03*
X117915000Y-135995000D03*
%TD*%
D11*
%TO.C,R15*%
X157390000Y-123965000D03*
X155740000Y-123965000D03*
%TD*%
D14*
%TO.C,R36*%
X130582500Y-101290000D03*
X132232500Y-101290000D03*
%TD*%
D21*
%TO.C,U2*%
X124207500Y-108835000D03*
X124207500Y-107565000D03*
X124207500Y-106295000D03*
X124207500Y-105025000D03*
X124207500Y-103755000D03*
X124207500Y-102485000D03*
X124207500Y-101215000D03*
X124207500Y-99945000D03*
X119207500Y-99945000D03*
X119207500Y-101215000D03*
X119207500Y-102485000D03*
X119207500Y-103755000D03*
X119207500Y-105025000D03*
X119207500Y-106295000D03*
X119207500Y-107565000D03*
X119207500Y-108835000D03*
%TD*%
D20*
%TO.C,C18*%
X122940000Y-139210000D03*
X121390000Y-139210000D03*
%TD*%
D11*
%TO.C,R29*%
X128115000Y-133350000D03*
X126465000Y-133350000D03*
%TD*%
D14*
%TO.C,R13*%
X158540000Y-116565000D03*
X160190000Y-116565000D03*
%TD*%
D37*
%TO.C,SW1*%
X142700000Y-47500000D03*
X149900000Y-47500000D03*
X142700000Y-50500000D03*
X149900000Y-50500000D03*
%TD*%
D17*
%TO.C,J7*%
X136490000Y-137625000D03*
D18*
X136490000Y-135085000D03*
X136490000Y-132545000D03*
%TD*%
D17*
%TO.C,J4*%
X122300000Y-72450000D03*
D18*
X122300000Y-74990000D03*
X122300000Y-77530000D03*
X122300000Y-80070000D03*
X122300000Y-82610000D03*
X122300000Y-85150000D03*
%TD*%
D14*
%TO.C,R32*%
X158585000Y-93725000D03*
X160235000Y-93725000D03*
%TD*%
D10*
%TO.C,R20*%
X103307500Y-104592000D03*
X103307500Y-102942000D03*
%TD*%
%TO.C,R34*%
X160135000Y-100400000D03*
X160135000Y-98750000D03*
%TD*%
D12*
%TO.C,C7*%
X99107500Y-97042000D03*
X99107500Y-95492000D03*
%TD*%
D10*
%TO.C,R26*%
X103075000Y-127765000D03*
X103075000Y-126115000D03*
%TD*%
D38*
%TO.C,U7*%
X134790000Y-82615000D03*
X134790000Y-81345000D03*
X134790000Y-80075000D03*
X134790000Y-78805000D03*
X127300000Y-78805000D03*
X127300000Y-80075000D03*
X127300000Y-81345000D03*
X127300000Y-82615000D03*
%TD*%
D14*
%TO.C,R18*%
X101757500Y-97917000D03*
X103407500Y-97917000D03*
%TD*%
D17*
%TO.C,J2*%
X165765000Y-128240000D03*
D18*
X165765000Y-125700000D03*
X165765000Y-123160000D03*
%TD*%
D11*
%TO.C,R41*%
X110075000Y-118595000D03*
X108425000Y-118595000D03*
%TD*%
D13*
%TO.C,Q6*%
X128007500Y-111350000D03*
X128007500Y-113250000D03*
X129882500Y-112300000D03*
%TD*%
D10*
%TO.C,R46*%
X162910000Y-92800000D03*
X162910000Y-91150000D03*
%TD*%
D39*
%TO.C,U9*%
X89525000Y-79145000D03*
D40*
X95825000Y-81425000D03*
D39*
X89525000Y-83705000D03*
%TD*%
D13*
%TO.C,Q4*%
X126715000Y-138510000D03*
X126715000Y-140410000D03*
X128590000Y-139460000D03*
%TD*%
D11*
%TO.C,R45*%
X167135000Y-91230000D03*
X165485000Y-91230000D03*
%TD*%
%TO.C,R19*%
X100582500Y-102817000D03*
X98932500Y-102817000D03*
%TD*%
D14*
%TO.C,R14*%
X158565000Y-119065000D03*
X160215000Y-119065000D03*
%TD*%
D21*
%TO.C,U3*%
X152210000Y-101270000D03*
X152210000Y-100000000D03*
X152210000Y-98730000D03*
X152210000Y-97460000D03*
X152210000Y-96190000D03*
X152210000Y-94920000D03*
X152210000Y-93650000D03*
X152210000Y-92380000D03*
X147210000Y-92380000D03*
X147210000Y-93650000D03*
X147210000Y-94920000D03*
X147210000Y-96190000D03*
X147210000Y-97460000D03*
X147210000Y-98730000D03*
X147210000Y-100000000D03*
X147210000Y-101270000D03*
%TD*%
D41*
%TO.C,D2*%
X133350000Y-42850000D03*
X133350000Y-38450000D03*
%TD*%
D10*
%TO.C,R4*%
X106082500Y-96992000D03*
X106082500Y-95342000D03*
%TD*%
D21*
%TO.C,U6*%
X152190000Y-126610000D03*
X152190000Y-125340000D03*
X152190000Y-124070000D03*
X152190000Y-122800000D03*
X152190000Y-121530000D03*
X152190000Y-120260000D03*
X152190000Y-118990000D03*
X152190000Y-117720000D03*
X147190000Y-117720000D03*
X147190000Y-118990000D03*
X147190000Y-120260000D03*
X147190000Y-121530000D03*
X147190000Y-122800000D03*
X147190000Y-124070000D03*
X147190000Y-125340000D03*
X147190000Y-126610000D03*
%TD*%
D10*
%TO.C,R48*%
X134907500Y-100365000D03*
X134907500Y-98715000D03*
%TD*%
D12*
%TO.C,C3*%
X155915000Y-118190000D03*
X155915000Y-116640000D03*
%TD*%
D17*
%TO.C,J6*%
X108725000Y-130265000D03*
D18*
X108725000Y-127725000D03*
X108725000Y-125185000D03*
%TD*%
D14*
%TO.C,R17*%
X101732500Y-95417000D03*
X103382500Y-95417000D03*
%TD*%
D12*
%TO.C,C24*%
X155935000Y-96500000D03*
X155935000Y-94950000D03*
%TD*%
D42*
%TO.C,R22*%
X87812500Y-70550000D03*
X85812500Y-70550000D03*
%TD*%
D12*
%TO.C,C16*%
X98875000Y-123865000D03*
X98875000Y-122315000D03*
%TD*%
D20*
%TO.C,C1*%
X157315000Y-126165000D03*
X155765000Y-126165000D03*
%TD*%
D43*
%TO.C,R21*%
X151950000Y-40950000D03*
X153950000Y-40950000D03*
%TD*%
D12*
%TO.C,C8*%
X99107500Y-100692000D03*
X99107500Y-99142000D03*
%TD*%
D21*
%TO.C,U1*%
X95382500Y-105462000D03*
X95382500Y-104192000D03*
X95382500Y-102922000D03*
X95382500Y-101652000D03*
X95382500Y-100382000D03*
X95382500Y-99112000D03*
X95382500Y-97842000D03*
X95382500Y-96572000D03*
X90382500Y-96572000D03*
X90382500Y-97842000D03*
X90382500Y-99112000D03*
X90382500Y-100382000D03*
X90382500Y-101652000D03*
X90382500Y-102922000D03*
X90382500Y-104192000D03*
X90382500Y-105462000D03*
%TD*%
D20*
%TO.C,C13*%
X100275000Y-128190000D03*
X98725000Y-128190000D03*
%TD*%
D44*
%TO.C,U8*%
X117050000Y-82585000D03*
X117050000Y-81315000D03*
X117050000Y-80045000D03*
X117050000Y-78775000D03*
X117050000Y-77505000D03*
X117050000Y-76235000D03*
X117050000Y-74965000D03*
X117050000Y-73695000D03*
X111450000Y-73695000D03*
X111450000Y-74965000D03*
X111450000Y-76235000D03*
X111450000Y-77505000D03*
X111450000Y-78775000D03*
X111450000Y-80045000D03*
X111450000Y-81315000D03*
X111450000Y-82585000D03*
%TD*%
D37*
%TO.C,SW2*%
X142800000Y-34550000D03*
X150000000Y-34550000D03*
X142800000Y-37550000D03*
X150000000Y-37550000D03*
%TD*%
D10*
%TO.C,R40*%
X162890000Y-118140000D03*
X162890000Y-116490000D03*
%TD*%
D11*
%TO.C,R43*%
X137840000Y-125955000D03*
X136190000Y-125955000D03*
%TD*%
M02*
