%TF.GenerationSoftware,KiCad,Pcbnew,7.0.7*%
%TF.CreationDate,2024-03-26T08:25:24-07:00*%
%TF.ProjectId,Power-board,506f7765-722d-4626-9f61-72642e6b6963,rev?*%
%TF.SameCoordinates,Original*%
%TF.FileFunction,Copper,L1,Top*%
%TF.FilePolarity,Positive*%
%FSLAX46Y46*%
G04 Gerber Fmt 4.6, Leading zero omitted, Abs format (unit mm)*
G04 Created by KiCad (PCBNEW 7.0.7) date 2024-03-26 08:25:24*
%MOMM*%
%LPD*%
G01*
G04 APERTURE LIST*
G04 Aperture macros list*
%AMRoundRect*
0 Rectangle with rounded corners*
0 $1 Rounding radius*
0 $2 $3 $4 $5 $6 $7 $8 $9 X,Y pos of 4 corners*
0 Add a 4 corners polygon primitive as box body*
4,1,4,$2,$3,$4,$5,$6,$7,$8,$9,$2,$3,0*
0 Add four circle primitives for the rounded corners*
1,1,$1+$1,$2,$3*
1,1,$1+$1,$4,$5*
1,1,$1+$1,$6,$7*
1,1,$1+$1,$8,$9*
0 Add four rect primitives between the rounded corners*
20,1,$1+$1,$2,$3,$4,$5,0*
20,1,$1+$1,$4,$5,$6,$7,0*
20,1,$1+$1,$6,$7,$8,$9,0*
20,1,$1+$1,$8,$9,$2,$3,0*%
%AMFreePoly0*
4,1,19,0.500000,-0.750000,0.000000,-0.750000,0.000000,-0.744911,-0.071157,-0.744911,-0.207708,-0.704816,-0.327430,-0.627875,-0.420627,-0.520320,-0.479746,-0.390866,-0.500000,-0.250000,-0.500000,0.250000,-0.479746,0.390866,-0.420627,0.520320,-0.327430,0.627875,-0.207708,0.704816,-0.071157,0.744911,0.000000,0.744911,0.000000,0.750000,0.500000,0.750000,0.500000,-0.750000,0.500000,-0.750000,
$1*%
%AMFreePoly1*
4,1,19,0.000000,0.744911,0.071157,0.744911,0.207708,0.704816,0.327430,0.627875,0.420627,0.520320,0.479746,0.390866,0.500000,0.250000,0.500000,-0.250000,0.479746,-0.390866,0.420627,-0.520320,0.327430,-0.627875,0.207708,-0.704816,0.071157,-0.744911,0.000000,-0.744911,0.000000,-0.750000,-0.500000,-0.750000,-0.500000,0.750000,0.000000,0.750000,0.000000,0.744911,0.000000,0.744911,
$1*%
G04 Aperture macros list end*
%TA.AperFunction,SMDPad,CuDef*%
%ADD10RoundRect,0.200000X-0.200000X-0.275000X0.200000X-0.275000X0.200000X0.275000X-0.200000X0.275000X0*%
%TD*%
%TA.AperFunction,SMDPad,CuDef*%
%ADD11RoundRect,0.218750X0.218750X0.256250X-0.218750X0.256250X-0.218750X-0.256250X0.218750X-0.256250X0*%
%TD*%
%TA.AperFunction,SMDPad,CuDef*%
%ADD12RoundRect,0.225000X-0.250000X0.225000X-0.250000X-0.225000X0.250000X-0.225000X0.250000X0.225000X0*%
%TD*%
%TA.AperFunction,SMDPad,CuDef*%
%ADD13RoundRect,0.225000X-0.225000X-0.250000X0.225000X-0.250000X0.225000X0.250000X-0.225000X0.250000X0*%
%TD*%
%TA.AperFunction,SMDPad,CuDef*%
%ADD14RoundRect,0.218750X0.256250X-0.218750X0.256250X0.218750X-0.256250X0.218750X-0.256250X-0.218750X0*%
%TD*%
%TA.AperFunction,SMDPad,CuDef*%
%ADD15RoundRect,0.225000X0.225000X0.250000X-0.225000X0.250000X-0.225000X-0.250000X0.225000X-0.250000X0*%
%TD*%
%TA.AperFunction,SMDPad,CuDef*%
%ADD16RoundRect,0.225000X0.250000X-0.225000X0.250000X0.225000X-0.250000X0.225000X-0.250000X-0.225000X0*%
%TD*%
%TA.AperFunction,SMDPad,CuDef*%
%ADD17RoundRect,0.218750X-0.218750X-0.256250X0.218750X-0.256250X0.218750X0.256250X-0.218750X0.256250X0*%
%TD*%
%TA.AperFunction,SMDPad,CuDef*%
%ADD18FreePoly0,0.000000*%
%TD*%
%TA.AperFunction,SMDPad,CuDef*%
%ADD19FreePoly1,0.000000*%
%TD*%
%TA.AperFunction,SMDPad,CuDef*%
%ADD20RoundRect,0.200000X0.200000X0.275000X-0.200000X0.275000X-0.200000X-0.275000X0.200000X-0.275000X0*%
%TD*%
%TA.AperFunction,SMDPad,CuDef*%
%ADD21R,1.676400X1.879600*%
%TD*%
%TA.AperFunction,SMDPad,CuDef*%
%ADD22RoundRect,0.200000X-0.275000X0.200000X-0.275000X-0.200000X0.275000X-0.200000X0.275000X0.200000X0*%
%TD*%
%TA.AperFunction,SMDPad,CuDef*%
%ADD23R,1.400000X0.449999*%
%TD*%
%TA.AperFunction,ComponentPad*%
%ADD24C,0.780000*%
%TD*%
%TA.AperFunction,SMDPad,CuDef*%
%ADD25R,3.400001X9.700001*%
%TD*%
%TA.AperFunction,SMDPad,CuDef*%
%ADD26RoundRect,0.237500X0.287500X0.237500X-0.287500X0.237500X-0.287500X-0.237500X0.287500X-0.237500X0*%
%TD*%
%TA.AperFunction,ComponentPad*%
%ADD27C,1.371600*%
%TD*%
%TA.AperFunction,SMDPad,CuDef*%
%ADD28RoundRect,0.250000X-0.712500X-2.475000X0.712500X-2.475000X0.712500X2.475000X-0.712500X2.475000X0*%
%TD*%
%TA.AperFunction,SMDPad,CuDef*%
%ADD29R,1.549400X0.863600*%
%TD*%
%TA.AperFunction,SMDPad,CuDef*%
%ADD30RoundRect,0.361950X-0.361950X1.098550X-0.361950X-1.098550X0.361950X-1.098550X0.361950X1.098550X0*%
%TD*%
%TA.AperFunction,ComponentPad*%
%ADD31R,2.000000X0.900000*%
%TD*%
%TA.AperFunction,ComponentPad*%
%ADD32RoundRect,1.025000X1.025000X-1.025000X1.025000X1.025000X-1.025000X1.025000X-1.025000X-1.025000X0*%
%TD*%
%TA.AperFunction,ComponentPad*%
%ADD33C,4.100000*%
%TD*%
%TA.AperFunction,ComponentPad*%
%ADD34C,10.160000*%
%TD*%
%TA.AperFunction,ViaPad*%
%ADD35C,0.711200*%
%TD*%
%TA.AperFunction,ViaPad*%
%ADD36C,2.540000*%
%TD*%
%TA.AperFunction,Conductor*%
%ADD37C,0.508000*%
%TD*%
%TA.AperFunction,Conductor*%
%ADD38C,0.254000*%
%TD*%
%TA.AperFunction,Conductor*%
%ADD39C,2.540000*%
%TD*%
%TA.AperFunction,Conductor*%
%ADD40C,0.762000*%
%TD*%
%TA.AperFunction,Conductor*%
%ADD41C,3.048000*%
%TD*%
%TA.AperFunction,Conductor*%
%ADD42C,1.778000*%
%TD*%
G04 APERTURE END LIST*
%TA.AperFunction,EtchedComponent*%
%TO.C,JP5*%
G36*
X97674000Y-82596000D02*
G01*
X97174000Y-82596000D01*
X97174000Y-81996000D01*
X97674000Y-81996000D01*
X97674000Y-82596000D01*
G37*
%TD.AperFunction*%
%TA.AperFunction,EtchedComponent*%
%TO.C,JP4*%
G36*
X97898000Y-75484000D02*
G01*
X97398000Y-75484000D01*
X97398000Y-74884000D01*
X97898000Y-74884000D01*
X97898000Y-75484000D01*
G37*
%TD.AperFunction*%
%TA.AperFunction,EtchedComponent*%
%TO.C,JP2*%
G36*
X97843000Y-69896000D02*
G01*
X97343000Y-69896000D01*
X97343000Y-69296000D01*
X97843000Y-69296000D01*
X97843000Y-69896000D01*
G37*
%TD.AperFunction*%
%TA.AperFunction,EtchedComponent*%
%TO.C,JP1*%
G36*
X97898000Y-67102000D02*
G01*
X97398000Y-67102000D01*
X97398000Y-66502000D01*
X97898000Y-66502000D01*
X97898000Y-67102000D01*
G37*
%TD.AperFunction*%
%TA.AperFunction,EtchedComponent*%
%TO.C,JP6*%
G36*
X97674000Y-85390000D02*
G01*
X97174000Y-85390000D01*
X97174000Y-84790000D01*
X97674000Y-84790000D01*
X97674000Y-85390000D01*
G37*
%TD.AperFunction*%
%TA.AperFunction,EtchedComponent*%
%TO.C,JP3*%
G36*
X97898000Y-72690000D02*
G01*
X97398000Y-72690000D01*
X97398000Y-72090000D01*
X97898000Y-72090000D01*
X97898000Y-72690000D01*
G37*
%TD.AperFunction*%
%TA.AperFunction,EtchedComponent*%
%TO.C,JP7*%
G36*
X97674000Y-88184000D02*
G01*
X97174000Y-88184000D01*
X97174000Y-87584000D01*
X97674000Y-87584000D01*
X97674000Y-88184000D01*
G37*
%TD.AperFunction*%
%TA.AperFunction,EtchedComponent*%
%TO.C,JP8*%
G36*
X97674000Y-90960000D02*
G01*
X97174000Y-90960000D01*
X97174000Y-90360000D01*
X97674000Y-90360000D01*
X97674000Y-90960000D01*
G37*
%TD.AperFunction*%
%TD*%
D10*
%TO.P,R10,1*%
%TO.N,PYRO_EX+*%
X124334000Y-90932000D03*
%TO.P,R10,2*%
%TO.N,GND*%
X125984000Y-90932000D03*
%TD*%
D11*
%TO.P,D19,1,K*%
%TO.N,ETH_MAIIN+*%
X125755500Y-72898000D03*
%TO.P,D19,2,A*%
%TO.N,GND*%
X124180500Y-72898000D03*
%TD*%
D12*
%TO.P,C7,1*%
%TO.N,V_ALL+*%
X162557500Y-101454000D03*
%TO.P,C7,2*%
%TO.N,GND*%
X162557500Y-103004000D03*
%TD*%
D11*
%TO.P,D13,1,K*%
%TO.N,PYRO_EX+*%
X113563500Y-90678000D03*
%TO.P,D13,2,A*%
%TO.N,Net-(D13-A)*%
X111988500Y-90678000D03*
%TD*%
%TO.P,D6,1,K*%
%TO.N,LOX_VENT+*%
X113254003Y-67694000D03*
%TO.P,D6,2,A*%
%TO.N,Net-(D6-A)*%
X111679003Y-67694000D03*
%TD*%
D10*
%TO.P,R7,1*%
%TO.N,LOX_VENT+*%
X124460000Y-81280000D03*
%TO.P,R7,2*%
%TO.N,GND*%
X126110000Y-81280000D03*
%TD*%
D11*
%TO.P,D8,1,K*%
%TO.N,ETH_MAIIN+*%
X113203003Y-74168000D03*
%TO.P,D8,2,A*%
%TO.N,Net-(D8-A)*%
X111628003Y-74168000D03*
%TD*%
%TO.P,D10,1,K*%
%TO.N,LOX_VENT+*%
X113304997Y-81788000D03*
%TO.P,D10,2,A*%
%TO.N,Net-(D10-A)*%
X111729997Y-81788000D03*
%TD*%
D13*
%TO.P,C4,1*%
%TO.N,LOX_VENT+*%
X115892001Y-67735001D03*
%TO.P,C4,2*%
%TO.N,GND*%
X117442001Y-67735001D03*
%TD*%
D14*
%TO.P,D2,1,K*%
%TO.N,Net-(D2-K)*%
X149083500Y-86842000D03*
%TO.P,D2,2,A*%
%TO.N,GND*%
X149083500Y-85267000D03*
%TD*%
D15*
%TO.P,C5,1*%
%TO.N,GND*%
X90000000Y-87800000D03*
%TO.P,C5,2*%
%TO.N,V_ALL+*%
X88450000Y-87800000D03*
%TD*%
D16*
%TO.P,C1,1*%
%TO.N,GND*%
X77600000Y-71150000D03*
%TO.P,C1,2*%
%TO.N,+3.3V*%
X77600000Y-69600000D03*
%TD*%
D17*
%TO.P,D21,1,K*%
%TO.N,ETH_MAIIN+*%
X129286000Y-72948000D03*
%TO.P,D21,2,A*%
%TO.N,GND*%
X130861000Y-72948000D03*
%TD*%
D18*
%TO.P,JP5,1,A*%
%TO.N,PYRO1EN*%
X96774000Y-82296000D03*
D19*
%TO.P,JP5,2,B*%
%TO.N,Net-(JP5-B)*%
X98074000Y-82296000D03*
%TD*%
D11*
%TO.P,F2,1*%
%TO.N,Net-(U1-OUTPUT)*%
X83000000Y-69600000D03*
%TO.P,F2,2*%
%TO.N,+3.3V*%
X81425000Y-69600000D03*
%TD*%
D16*
%TO.P,C12,1*%
%TO.N,Net-(C12-Pad1)*%
X157985500Y-94368000D03*
%TO.P,C12,2*%
%TO.N,V_ALL+*%
X157985500Y-92818000D03*
%TD*%
D20*
%TO.P,R4,1*%
%TO.N,Net-(D3-A)*%
X129794000Y-84285002D03*
%TO.P,R4,2*%
%TO.N,ETH_VENT+*%
X128144000Y-84285002D03*
%TD*%
D13*
%TO.P,C16,1*%
%TO.N,PYRO_EX+*%
X115557000Y-90805000D03*
%TO.P,C16,2*%
%TO.N,GND*%
X117107000Y-90805000D03*
%TD*%
D20*
%TO.P,R5,1*%
%TO.N,Net-(D4-A)*%
X129793000Y-87587002D03*
%TO.P,R5,2*%
%TO.N,ETH_MAIN+*%
X128143000Y-87587002D03*
%TD*%
D18*
%TO.P,JP4,1,A*%
%TO.N,PYRO4EN*%
X96998000Y-75184000D03*
D19*
%TO.P,JP4,2,B*%
%TO.N,Net-(JP4-B)*%
X98298000Y-75184000D03*
%TD*%
D20*
%TO.P,R6,1*%
%TO.N,Net-(D5-A)*%
X129794000Y-90889002D03*
%TO.P,R6,2*%
%TO.N,PYRO_EX+*%
X128144000Y-90889002D03*
%TD*%
D21*
%TO.P,D16,1,K*%
%TO.N,V_ALL+*%
X79950000Y-98600000D03*
%TO.P,D16,2,A*%
%TO.N,PWR_SUP*%
X79950000Y-103019600D03*
%TD*%
D22*
%TO.P,R1,1*%
%TO.N,Net-(C12-Pad1)*%
X157985500Y-97353000D03*
%TO.P,R1,2*%
%TO.N,GND*%
X157985500Y-99003000D03*
%TD*%
D23*
%TO.P,U3,1,GND*%
%TO.N,GND*%
X102938001Y-67563000D03*
%TO.P,U3,2,NC*%
%TO.N,unconnected-(U3-NC-Pad2)*%
X102938001Y-68213001D03*
%TO.P,U3,3,IN1*%
%TO.N,Net-(JP1-B)*%
X102938001Y-68863000D03*
%TO.P,U3,4,IN2*%
%TO.N,Net-(JP2-B)*%
X102938001Y-69513001D03*
%TO.P,U3,5,IN3*%
%TO.N,Net-(JP3-B)*%
X102938001Y-70162999D03*
%TO.P,U3,6,IN4*%
%TO.N,Net-(JP4-B)*%
X102938001Y-70813001D03*
%TO.P,U3,7,ST1_SEH_N*%
%TO.N,unconnected-(U3-ST1_SEH_N-Pad7)*%
X102938001Y-71462999D03*
%TO.P,U3,8,ST2_SEL_N*%
%TO.N,unconnected-(U3-ST2_SEL_N-Pad8)*%
X102938001Y-72113001D03*
%TO.P,U3,9,ST3_FAULT_N*%
%TO.N,unconnected-(U3-ST3_FAULT_N-Pad9)*%
X102938001Y-72762999D03*
%TO.P,U3,10,ST4_CS_N*%
%TO.N,unconnected-(U3-ST4_CS_N-Pad10)*%
X102938001Y-73413001D03*
%TO.P,U3,11,CL*%
%TO.N,GND*%
X102938001Y-74062999D03*
%TO.P,U3,12,GND*%
X102938001Y-74713000D03*
%TO.P,U3,13,THER*%
%TO.N,unconnected-(U3-THER-Pad13)*%
X102938001Y-75362999D03*
%TO.P,U3,14,DIAG_EN*%
%TO.N,unconnected-(U3-DIAG_EN-Pad14)*%
X102938001Y-76013000D03*
%TO.P,U3,15,OUT4*%
%TO.N,Net-(D9-A)*%
X108838002Y-76013000D03*
%TO.P,U3,16,OUT4*%
X108838002Y-75362999D03*
%TO.P,U3,17,OUT3*%
%TO.N,Net-(D8-A)*%
X108838002Y-74713000D03*
%TO.P,U3,18,OUT3*%
X108838002Y-74062999D03*
%TO.P,U3,19,NC*%
%TO.N,unconnected-(U3-NC-Pad19)*%
X108838002Y-73413001D03*
%TO.P,U3,20,VS*%
%TO.N,V_ALL+*%
X108838002Y-72762999D03*
%TO.P,U3,21,VS*%
X108838002Y-72113001D03*
%TO.P,U3,22,VS*%
X108838002Y-71462999D03*
%TO.P,U3,23,VS*%
X108838002Y-70813001D03*
%TO.P,U3,24,NC*%
%TO.N,unconnected-(U3-NC-Pad24)*%
X108838002Y-70162999D03*
%TO.P,U3,25,OUT2*%
%TO.N,Net-(D7-A)*%
X108838002Y-69513001D03*
%TO.P,U3,26,OUT2*%
X108838002Y-68863000D03*
%TO.P,U3,27,OUT1*%
%TO.N,Net-(D6-A)*%
X108838002Y-68213001D03*
%TO.P,U3,28,OUT1*%
X108838002Y-67563000D03*
D24*
%TO.P,U3,29,PAD*%
%TO.N,GND*%
X104588000Y-67788000D03*
X104588000Y-69088000D03*
X104588000Y-70488000D03*
X104588000Y-71788000D03*
X104588000Y-73088000D03*
X104588003Y-74488000D03*
X104588003Y-75788000D03*
X105888000Y-69088000D03*
D25*
X105888000Y-71788000D03*
D24*
X105888003Y-67788000D03*
X105888003Y-70488000D03*
X105888003Y-71788000D03*
X105888003Y-73088000D03*
X105888003Y-74488000D03*
X105888005Y-75788000D03*
X107188000Y-67788000D03*
X107188000Y-69088000D03*
X107188000Y-70488000D03*
X107188000Y-71788000D03*
X107188000Y-73088000D03*
X107188002Y-74488000D03*
X107188002Y-75788000D03*
%TD*%
D16*
%TO.P,C3,1*%
%TO.N,GND*%
X78000000Y-81800000D03*
%TO.P,C3,2*%
%TO.N,+5V*%
X78000000Y-80250000D03*
%TD*%
D10*
%TO.P,R8,1*%
%TO.N,ETH_VENT+*%
X124334000Y-84328000D03*
%TO.P,R8,2*%
%TO.N,GND*%
X125984000Y-84328000D03*
%TD*%
D11*
%TO.P,D7,1,K*%
%TO.N,ETH_VENT+*%
X113203003Y-69472000D03*
%TO.P,D7,2,A*%
%TO.N,Net-(D7-A)*%
X111628003Y-69472000D03*
%TD*%
%TO.P,D11,1,K*%
%TO.N,ETH_MAIIN+*%
X113563500Y-88646000D03*
%TO.P,D11,2,A*%
%TO.N,Net-(D11-A)*%
X111988500Y-88646000D03*
%TD*%
D26*
%TO.P,D1,1,K*%
%TO.N,GND*%
X134551999Y-78018001D03*
%TO.P,D1,2,A*%
%TO.N,Net-(D1-A)*%
X132801999Y-78018001D03*
%TD*%
D13*
%TO.P,C9,1*%
%TO.N,ETH_MAIIN+*%
X115743003Y-74168000D03*
%TO.P,C9,2*%
%TO.N,GND*%
X117293003Y-74168000D03*
%TD*%
%TO.P,C13,1*%
%TO.N,LOX_VENT+*%
X115285997Y-82072000D03*
%TO.P,C13,2*%
%TO.N,GND*%
X116835997Y-82072000D03*
%TD*%
D11*
%TO.P,D9,1,K*%
%TO.N,PYRO_EX+*%
X113254003Y-75972000D03*
%TO.P,D9,2,A*%
%TO.N,Net-(D9-A)*%
X111679003Y-75972000D03*
%TD*%
D18*
%TO.P,JP2,1,A*%
%TO.N,PYRO2EN*%
X96943000Y-69596000D03*
D19*
%TO.P,JP2,2,B*%
%TO.N,Net-(JP2-B)*%
X98243000Y-69596000D03*
%TD*%
D11*
%TO.P,D20,1,K*%
%TO.N,PYRO_EX+*%
X125755500Y-75184000D03*
%TO.P,D20,2,A*%
%TO.N,GND*%
X124180500Y-75184000D03*
%TD*%
D27*
%TO.P,J1,A1,Pin_1*%
%TO.N,+3.3V*%
X70780000Y-69442100D03*
%TO.P,J1,A2,Pin_2*%
X72780000Y-69442100D03*
%TO.P,J1,A3,Pin_3*%
%TO.N,GND*%
X70780000Y-71442100D03*
%TO.P,J1,A4,Pin_4*%
X72780000Y-71442100D03*
%TO.P,J1,A5,Pin_5*%
%TO.N,+5V*%
X70780000Y-73442100D03*
%TO.P,J1,A6,Pin_6*%
X72780000Y-73442100D03*
%TO.P,J1,A7,Pin_7*%
X70780000Y-75442100D03*
%TO.P,J1,A8,Pin_8*%
X72780000Y-75442100D03*
%TO.P,J1,A9,Pin_9*%
%TO.N,GND*%
X70780000Y-77442100D03*
%TO.P,J1,A10,Pin_10*%
X72780000Y-77442100D03*
%TO.P,J1,A11,Pin_11*%
%TO.N,LOX_VENT+*%
X70780000Y-79442100D03*
%TO.P,J1,A12,Pin_12*%
X72780000Y-79442100D03*
%TO.P,J1,A13,Pin_13*%
%TO.N,GND*%
X70780000Y-81442100D03*
%TO.P,J1,A14,Pin_14*%
X72780000Y-81442100D03*
%TO.P,J1,A15,Pin_15*%
%TO.N,ETH_VENT+*%
X70780000Y-83442100D03*
%TO.P,J1,A16,Pin_16*%
X72780000Y-83442100D03*
%TO.P,J1,A17,Pin_17*%
%TO.N,GND*%
X70780000Y-85442100D03*
%TO.P,J1,A18,Pin_18*%
X72780000Y-85442100D03*
%TO.P,J1,A19,Pin_19*%
%TO.N,ETH_MAIN+*%
X70780000Y-87442100D03*
%TO.P,J1,A20,Pin_20*%
X72780000Y-87442100D03*
%TO.P,J1,A21,Pin_21*%
%TO.N,GND*%
X70780000Y-89442100D03*
%TO.P,J1,A22,Pin_22*%
X72780000Y-89442100D03*
%TO.P,J1,A23,Pin_23*%
%TO.N,PYRO_EX+*%
X70780000Y-91442100D03*
%TO.P,J1,A24,Pin_24*%
X72780000Y-91442100D03*
%TO.P,J1,A25,Pin_25*%
%TO.N,GND*%
X70780000Y-93442100D03*
%TO.P,J1,A26,Pin_26*%
X72780000Y-93442100D03*
%TO.P,J1,A27,Pin_27*%
%TO.N,unconnected-(J1A-Pin_27-PadA27)*%
X70780000Y-95442100D03*
%TO.P,J1,A28,Pin_28*%
%TO.N,unconnected-(J1A-Pin_28-PadA28)*%
X72780000Y-95442100D03*
%TO.P,J1,A29,Pin_29*%
%TO.N,unconnected-(J1A-Pin_29-PadA29)*%
X70780000Y-97442100D03*
%TO.P,J1,A30,Pin_30*%
%TO.N,unconnected-(J1A-Pin_30-PadA30)*%
X72780000Y-97442100D03*
%TO.P,J1,A31,Pin_31*%
%TO.N,unconnected-(J1A-Pin_31-PadA31)*%
X70780000Y-99442100D03*
%TO.P,J1,A32,Pin_32*%
%TO.N,unconnected-(J1A-Pin_32-PadA32)*%
X72780000Y-99442100D03*
%TO.P,J1,A33,Pin_33*%
%TO.N,unconnected-(J1A-Pin_33-PadA33)*%
X70780000Y-101442000D03*
%TO.P,J1,A34,Pin_34*%
%TO.N,unconnected-(J1A-Pin_34-PadA34)*%
X72780000Y-101442000D03*
%TO.P,J1,A35,Pin_35*%
%TO.N,PWR_SUP*%
X70780000Y-103442000D03*
%TO.P,J1,A36,Pin_36*%
X72780000Y-103442000D03*
%TO.P,J1,A37,Pin_37*%
X70780000Y-105442000D03*
%TO.P,J1,A38,Pin_38*%
X72780000Y-105442000D03*
%TO.P,J1,A39,Pin_39*%
X70780000Y-107442000D03*
%TO.P,J1,A40,Pin_40*%
X72780000Y-107442000D03*
%TO.P,J1,B1,Pin_1*%
%TO.N,unconnected-(J1B-Pin_1-PadB1)*%
X172050000Y-67905269D03*
%TO.P,J1,B2,Pin_2*%
%TO.N,unconnected-(J1B-Pin_2-PadB2)*%
X174050000Y-67905269D03*
%TO.P,J1,B3,Pin_3*%
%TO.N,unconnected-(J1B-Pin_3-PadB3)*%
X172050000Y-69905269D03*
%TO.P,J1,B4,Pin_4*%
%TO.N,unconnected-(J1B-Pin_4-PadB4)*%
X174050000Y-69905269D03*
%TO.P,J1,B5,Pin_5*%
%TO.N,GND*%
X172050000Y-71905269D03*
%TO.P,J1,B6,Pin_6*%
%TO.N,unconnected-(J1B-Pin_6-PadB6)*%
X174050000Y-71905269D03*
%TO.P,J1,B7,Pin_7*%
%TO.N,PYRO1EN*%
X172050000Y-73905269D03*
%TO.P,J1,B8,Pin_8*%
%TO.N,GND*%
X174050000Y-73905269D03*
%TO.P,J1,B9,Pin_9*%
X172050000Y-75905169D03*
%TO.P,J1,B10,Pin_10*%
%TO.N,unconnected-(J1B-Pin_10-PadB10)*%
X174050000Y-75905169D03*
%TO.P,J1,B11,Pin_11*%
%TO.N,unconnected-(J1B-Pin_11-PadB11)*%
X172050000Y-77905169D03*
%TO.P,J1,B12,Pin_12*%
%TO.N,unconnected-(J1B-Pin_12-PadB12)*%
X174050000Y-77905169D03*
%TO.P,J1,B13,Pin_13*%
%TO.N,unconnected-(J1B-Pin_13-PadB13)*%
X172050000Y-79905169D03*
%TO.P,J1,B14,Pin_14*%
%TO.N,unconnected-(J1B-Pin_14-PadB14)*%
X174050000Y-79905169D03*
%TO.P,J1,B15,Pin_15*%
%TO.N,unconnected-(J1B-Pin_15-PadB15)*%
X172050000Y-81905169D03*
%TO.P,J1,B16,Pin_16*%
%TO.N,unconnected-(J1B-Pin_16-PadB16)*%
X174050000Y-81905169D03*
%TO.P,J1,B17,Pin_17*%
%TO.N,GND*%
X172050000Y-83905169D03*
%TO.P,J1,B18,Pin_18*%
X174050000Y-83905169D03*
%TO.P,J1,B19,Pin_19*%
%TO.N,unconnected-(J1B-Pin_19-PadB19)*%
X172050000Y-85905169D03*
%TO.P,J1,B20,Pin_20*%
%TO.N,PYRO2EN*%
X174050000Y-85905169D03*
%TO.P,J1,B21,Pin_21*%
%TO.N,unconnected-(J1B-Pin_21-PadB21)*%
X172050000Y-87905169D03*
%TO.P,J1,B22,Pin_22*%
%TO.N,PYRO3EN*%
X174050000Y-87905169D03*
%TO.P,J1,B23,Pin_23*%
%TO.N,unconnected-(J1B-Pin_23-PadB23)*%
X172050000Y-89905169D03*
%TO.P,J1,B24,Pin_24*%
%TO.N,PYRO4EN*%
X174050000Y-89905169D03*
%TO.P,J1,B25,Pin_25*%
%TO.N,GND*%
X172050000Y-91905169D03*
%TO.P,J1,B26,Pin_26*%
X174050000Y-91905169D03*
%TO.P,J1,B27,Pin_27*%
%TO.N,unconnected-(J1B-Pin_27-PadB27)*%
X172050000Y-93905169D03*
%TO.P,J1,B28,Pin_28*%
%TO.N,unconnected-(J1B-Pin_28-PadB28)*%
X174050000Y-93905169D03*
%TO.P,J1,B29,Pin_29*%
%TO.N,unconnected-(J1B-Pin_29-PadB29)*%
X172050000Y-95905169D03*
%TO.P,J1,B30,Pin_30*%
%TO.N,unconnected-(J1B-Pin_30-PadB30)*%
X174050000Y-95905169D03*
%TO.P,J1,B31,Pin_31*%
%TO.N,unconnected-(J1B-Pin_31-PadB31)*%
X172050000Y-97905169D03*
%TO.P,J1,B32,Pin_32*%
%TO.N,unconnected-(J1B-Pin_32-PadB32)*%
X174050000Y-97905169D03*
%TO.P,J1,B33,Pin_33*%
%TO.N,GND*%
X172050000Y-99905169D03*
%TO.P,J1,B34,Pin_34*%
X174050000Y-99905169D03*
%TO.P,J1,B35,Pin_35*%
%TO.N,unconnected-(J1B-Pin_35-PadB35)*%
X172050000Y-101905169D03*
%TO.P,J1,B36,Pin_36*%
%TO.N,unconnected-(J1B-Pin_36-PadB36)*%
X174050000Y-101905169D03*
%TO.P,J1,B37,Pin_37*%
%TO.N,unconnected-(J1B-Pin_37-PadB37)*%
X172050000Y-103905169D03*
%TO.P,J1,B38,Pin_38*%
%TO.N,unconnected-(J1B-Pin_38-PadB38)*%
X174050000Y-103905169D03*
%TO.P,J1,B39,Pin_39*%
%TO.N,unconnected-(J1B-Pin_39-PadB39)*%
X172050000Y-105905169D03*
%TO.P,J1,B40,Pin_40*%
%TO.N,unconnected-(J1B-Pin_40-PadB40)*%
X174050000Y-105905169D03*
%TD*%
D28*
%TO.P,F1,1*%
%TO.N,/BAT1_+_pre*%
X158830500Y-84716000D03*
%TO.P,F1,2*%
%TO.N,/BAT1_+*%
X165605500Y-84716000D03*
%TD*%
D17*
%TO.P,D14,1,K*%
%TO.N,LOX_VENT+*%
X129260500Y-68580000D03*
%TO.P,D14,2,A*%
%TO.N,GND*%
X130835500Y-68580000D03*
%TD*%
D11*
%TO.P,F3,1*%
%TO.N,Net-(U4-OUTPUT)*%
X82851000Y-80286000D03*
%TO.P,F3,2*%
%TO.N,+5V*%
X81276000Y-80286000D03*
%TD*%
D15*
%TO.P,C11,1*%
%TO.N,V_ALL+*%
X150378500Y-93352000D03*
%TO.P,C11,2*%
%TO.N,GND*%
X148828500Y-93352000D03*
%TD*%
D18*
%TO.P,JP1,1,A*%
%TO.N,PYRO1EN*%
X96998000Y-66802000D03*
D19*
%TO.P,JP1,2,B*%
%TO.N,Net-(JP1-B)*%
X98298000Y-66802000D03*
%TD*%
D16*
%TO.P,C6,1*%
%TO.N,GND*%
X154285500Y-84396000D03*
%TO.P,C6,2*%
%TO.N,/BAT1_+_pre*%
X154285500Y-82846000D03*
%TD*%
D29*
%TO.P,U1,1,GND*%
%TO.N,GND*%
X85944200Y-68810000D03*
%TO.P,U1,2,OUTPUT*%
%TO.N,Net-(U1-OUTPUT)*%
X85944200Y-71110000D03*
%TO.P,U1,3,INPUT*%
%TO.N,V_ALL+*%
X85944200Y-73410000D03*
D30*
%TO.P,U1,4,VOUT*%
%TO.N,unconnected-(U1-VOUT-Pad4)*%
X92383100Y-71122700D03*
%TD*%
D18*
%TO.P,JP6,1,A*%
%TO.N,PYRO2EN*%
X96774000Y-85090000D03*
D19*
%TO.P,JP6,2,B*%
%TO.N,Net-(JP6-B)*%
X98074000Y-85090000D03*
%TD*%
D11*
%TO.P,D17,1,K*%
%TO.N,LOX_VENT+*%
X125781000Y-68526000D03*
%TO.P,D17,2,A*%
%TO.N,GND*%
X124206000Y-68526000D03*
%TD*%
D13*
%TO.P,C15,1*%
%TO.N,ETH_VENT+*%
X115303000Y-84074000D03*
%TO.P,C15,2*%
%TO.N,GND*%
X116853000Y-84074000D03*
%TD*%
D26*
%TO.P,D3,1,K*%
%TO.N,GND*%
X134657000Y-84285002D03*
%TO.P,D3,2,A*%
%TO.N,Net-(D3-A)*%
X132907000Y-84285002D03*
%TD*%
D23*
%TO.P,U2,1,GND*%
%TO.N,GND*%
X102907998Y-82165000D03*
%TO.P,U2,2,NC*%
%TO.N,unconnected-(U2-NC-Pad2)*%
X102907998Y-82815001D03*
%TO.P,U2,3,IN1*%
%TO.N,Net-(JP5-B)*%
X102907998Y-83465000D03*
%TO.P,U2,4,IN2*%
%TO.N,Net-(JP6-B)*%
X102907998Y-84115001D03*
%TO.P,U2,5,IN3*%
%TO.N,Net-(JP7-B)*%
X102907998Y-84764999D03*
%TO.P,U2,6,IN4*%
%TO.N,Net-(JP8-B)*%
X102907998Y-85415001D03*
%TO.P,U2,7,ST1_SEH_N*%
%TO.N,unconnected-(U2-ST1_SEH_N-Pad7)*%
X102907998Y-86064999D03*
%TO.P,U2,8,ST2_SEL_N*%
%TO.N,unconnected-(U2-ST2_SEL_N-Pad8)*%
X102907998Y-86715001D03*
%TO.P,U2,9,ST3_FAULT_N*%
%TO.N,unconnected-(U2-ST3_FAULT_N-Pad9)*%
X102907998Y-87364999D03*
%TO.P,U2,10,ST4_CS_N*%
%TO.N,unconnected-(U2-ST4_CS_N-Pad10)*%
X102907998Y-88015001D03*
%TO.P,U2,11,CL*%
%TO.N,GND*%
X102907998Y-88664999D03*
%TO.P,U2,12,GND*%
X102907998Y-89315000D03*
%TO.P,U2,13,THER*%
%TO.N,unconnected-(U2-THER-Pad13)*%
X102907998Y-89964999D03*
%TO.P,U2,14,DIAG_EN*%
%TO.N,unconnected-(U2-DIAG_EN-Pad14)*%
X102907998Y-90615000D03*
%TO.P,U2,15,OUT4*%
%TO.N,Net-(D13-A)*%
X108807999Y-90615000D03*
%TO.P,U2,16,OUT4*%
X108807999Y-89964999D03*
%TO.P,U2,17,OUT3*%
%TO.N,Net-(D11-A)*%
X108807999Y-89315000D03*
%TO.P,U2,18,OUT3*%
X108807999Y-88664999D03*
%TO.P,U2,19,NC*%
%TO.N,unconnected-(U2-NC-Pad19)*%
X108807999Y-88015001D03*
%TO.P,U2,20,VS*%
%TO.N,V_ALL+*%
X108807999Y-87364999D03*
%TO.P,U2,21,VS*%
X108807999Y-86715001D03*
%TO.P,U2,22,VS*%
X108807999Y-86064999D03*
%TO.P,U2,23,VS*%
X108807999Y-85415001D03*
%TO.P,U2,24,NC*%
%TO.N,unconnected-(U2-NC-Pad24)*%
X108807999Y-84764999D03*
%TO.P,U2,25,OUT2*%
%TO.N,Net-(D12-A)*%
X108807999Y-84115001D03*
%TO.P,U2,26,OUT2*%
X108807999Y-83465000D03*
%TO.P,U2,27,OUT1*%
%TO.N,Net-(D10-A)*%
X108807999Y-82815001D03*
%TO.P,U2,28,OUT1*%
X108807999Y-82165000D03*
D24*
%TO.P,U2,29,PAD*%
%TO.N,GND*%
X104557997Y-82390000D03*
X104557997Y-83690000D03*
X104557997Y-85090000D03*
X104557997Y-86390000D03*
X104557997Y-87690000D03*
X104558000Y-89090000D03*
X104558000Y-90390000D03*
X105857997Y-83690000D03*
D25*
X105857997Y-86390000D03*
D24*
X105858000Y-82390000D03*
X105858000Y-85090000D03*
X105858000Y-86390000D03*
X105858000Y-87690000D03*
X105858000Y-89090000D03*
X105858002Y-90390000D03*
X107157997Y-82390000D03*
X107157997Y-83690000D03*
X107157997Y-85090000D03*
X107157997Y-86390000D03*
X107157997Y-87690000D03*
X107157999Y-89090000D03*
X107157999Y-90390000D03*
%TD*%
D11*
%TO.P,D18,1,K*%
%TO.N,ETH_VENT+*%
X125755500Y-70612000D03*
%TO.P,D18,2,A*%
%TO.N,GND*%
X124180500Y-70612000D03*
%TD*%
D26*
%TO.P,D5,1,K*%
%TO.N,GND*%
X134634200Y-93512001D03*
%TO.P,D5,2,A*%
%TO.N,Net-(D5-A)*%
X132884200Y-93512001D03*
%TD*%
D13*
%TO.P,C10,1*%
%TO.N,PYRO_EX+*%
X115793003Y-75990001D03*
%TO.P,C10,2*%
%TO.N,GND*%
X117343003Y-75990001D03*
%TD*%
D11*
%TO.P,D12,1,K*%
%TO.N,ETH_VENT+*%
X113055500Y-84074000D03*
%TO.P,D12,2,A*%
%TO.N,Net-(D12-A)*%
X111480500Y-84074000D03*
%TD*%
D18*
%TO.P,JP3,1,A*%
%TO.N,PYRO3EN*%
X96998000Y-72390000D03*
D19*
%TO.P,JP3,2,B*%
%TO.N,Net-(JP3-B)*%
X98298000Y-72390000D03*
%TD*%
D20*
%TO.P,R3,1*%
%TO.N,/BAT1_+_pre*%
X154085500Y-86946000D03*
%TO.P,R3,2*%
%TO.N,Net-(D2-K)*%
X152435500Y-86946000D03*
%TD*%
D18*
%TO.P,JP7,1,A*%
%TO.N,PYRO3EN*%
X96774000Y-87884000D03*
D19*
%TO.P,JP7,2,B*%
%TO.N,Net-(JP7-B)*%
X98074000Y-87884000D03*
%TD*%
D26*
%TO.P,D4,1,K*%
%TO.N,GND*%
X134657000Y-87587002D03*
%TO.P,D4,2,A*%
%TO.N,Net-(D4-A)*%
X132907000Y-87587002D03*
%TD*%
D17*
%TO.P,D22,1,K*%
%TO.N,ETH_VENT+*%
X129286000Y-70712000D03*
%TO.P,D22,2,A*%
%TO.N,GND*%
X130861000Y-70712000D03*
%TD*%
D13*
%TO.P,C8,1*%
%TO.N,ETH_VENT+*%
X115892001Y-69513001D03*
%TO.P,C8,2*%
%TO.N,GND*%
X117442001Y-69513001D03*
%TD*%
D17*
%TO.P,D23,1,K*%
%TO.N,PYRO_EX+*%
X129286000Y-75284000D03*
%TO.P,D23,2,A*%
%TO.N,GND*%
X130861000Y-75284000D03*
%TD*%
D31*
%TO.P,J2,*%
%TO.N,*%
X147167600Y-62420400D03*
X147167600Y-48920400D03*
D32*
%TO.P,J2,1,1*%
%TO.N,/BAT1_+_pre*%
X153167600Y-52070400D03*
D33*
%TO.P,J2,2,2*%
%TO.N,GND*%
X153167600Y-59270400D03*
%TD*%
D34*
%TO.P,J5,1,Pin_1*%
%TO.N,/BAT1_+_pre*%
X139350000Y-37782000D03*
%TO.P,J5,2,Pin_2*%
%TO.N,GND*%
X109380000Y-37782000D03*
%TD*%
D13*
%TO.P,C14,1*%
%TO.N,ETH_MAIIN+*%
X115557000Y-88646000D03*
%TO.P,C14,2*%
%TO.N,GND*%
X117107000Y-88646000D03*
%TD*%
D21*
%TO.P,D15,1,K*%
%TO.N,V_ALL+*%
X162785500Y-98846000D03*
%TO.P,D15,2,A*%
%TO.N,/BAT1_+*%
X162785500Y-94426400D03*
%TD*%
D10*
%TO.P,R9,1*%
%TO.N,ETH_MAIN+*%
X124334000Y-87570000D03*
%TO.P,R9,2*%
%TO.N,GND*%
X125984000Y-87570000D03*
%TD*%
D20*
%TO.P,R2,1*%
%TO.N,Net-(D1-A)*%
X129794000Y-81237002D03*
%TO.P,R2,2*%
%TO.N,LOX_VENT+*%
X128144000Y-81237002D03*
%TD*%
D29*
%TO.P,U4,1,GND*%
%TO.N,GND*%
X85924200Y-79510000D03*
%TO.P,U4,2,OUTPUT*%
%TO.N,Net-(U4-OUTPUT)*%
X85924200Y-81810000D03*
%TO.P,U4,3,INPUT*%
%TO.N,V_ALL+*%
X85924200Y-84110000D03*
D30*
%TO.P,U4,4,VOUT*%
%TO.N,unconnected-(U4-VOUT-Pad4)*%
X92363100Y-81822700D03*
%TD*%
D15*
%TO.P,C2,1*%
%TO.N,GND*%
X89850000Y-76150000D03*
%TO.P,C2,2*%
%TO.N,V_ALL+*%
X88300000Y-76150000D03*
%TD*%
D18*
%TO.P,JP8,1,A*%
%TO.N,PYRO4EN*%
X96774000Y-90660000D03*
D19*
%TO.P,JP8,2,B*%
%TO.N,Net-(JP8-B)*%
X98074000Y-90660000D03*
%TD*%
D35*
%TO.N,GND*%
X91850000Y-88200000D03*
X132842000Y-70739000D03*
X74900000Y-90350000D03*
X75000000Y-86300000D03*
X79400000Y-71650000D03*
X84100000Y-67800000D03*
X126492000Y-82296000D03*
X91300000Y-76700000D03*
X122936000Y-72898000D03*
X75250000Y-72100000D03*
X68600000Y-82300000D03*
X122936000Y-75184000D03*
X119380000Y-74168000D03*
X119380000Y-67564000D03*
X68350000Y-78200000D03*
X126492000Y-88646000D03*
X122936000Y-70612000D03*
X122936000Y-68453000D03*
X102870000Y-80946600D03*
X126492000Y-91948000D03*
X119126000Y-90678000D03*
X118872000Y-82042000D03*
X119380000Y-75946000D03*
X79800000Y-82050000D03*
X118872000Y-84223400D03*
X126492000Y-85344000D03*
X68575000Y-94275000D03*
X132842000Y-68580000D03*
X137091999Y-87670001D03*
X132969000Y-72898000D03*
X136837999Y-93512001D03*
X132969000Y-75311000D03*
X162557500Y-105277000D03*
X136837999Y-78018001D03*
X147228500Y-94052000D03*
X84100000Y-78914600D03*
X119380000Y-69342000D03*
X155985500Y-99496000D03*
X150935500Y-84396000D03*
X137091999Y-84368001D03*
X119126000Y-88392000D03*
D36*
%TO.N,V_ALL+*%
X83312000Y-89154000D03*
X82296000Y-75184000D03*
D35*
X112268000Y-86868000D03*
X111252000Y-71120000D03*
D36*
X151892000Y-90932000D03*
D35*
X114554000Y-72542400D03*
D36*
X154178000Y-94234000D03*
D35*
X77750000Y-96050000D03*
X112268000Y-85852000D03*
D36*
X167386000Y-94742000D03*
D35*
X114808000Y-85852000D03*
D36*
X156210000Y-90932000D03*
D35*
X79790000Y-96860000D03*
X114706400Y-71069200D03*
D36*
X78232000Y-75184000D03*
X86106000Y-87122000D03*
D35*
X113538000Y-86360000D03*
X81750000Y-96150000D03*
D36*
X83058000Y-85344000D03*
D35*
X114808000Y-86868000D03*
D36*
X166624000Y-99060000D03*
D35*
X111252000Y-72491600D03*
%TO.N,LOX_VENT+*%
X114554000Y-67735001D03*
X115130001Y-80435001D03*
X76073000Y-82677000D03*
D36*
%TO.N,/BAT1_+_pre*%
X154581900Y-78620000D03*
X162407600Y-54610000D03*
D35*
%TO.N,ETH_VENT+*%
X110383401Y-82804000D03*
X109474000Y-80264000D03*
X117094000Y-71882000D03*
X80518000Y-83566000D03*
X117094000Y-78994000D03*
%TO.N,ETH_MAIIN+*%
X114554000Y-74930000D03*
X116586000Y-87630000D03*
%TO.N,PYRO_EX+*%
X114554000Y-92202000D03*
X111760000Y-78994000D03*
%TO.N,ETH_MAIN+*%
X80518000Y-87630000D03*
X122242000Y-89662000D03*
%TO.N,PYRO1EN*%
X95250000Y-67818000D03*
X101346000Y-66468600D03*
X96012000Y-76962000D03*
%TO.N,PYRO2EN*%
X169672000Y-75946000D03*
X95065803Y-76962000D03*
X169672000Y-70104000D03*
X94996000Y-71882000D03*
X144272000Y-75692000D03*
%TO.N,PYRO3EN*%
X94234000Y-73914000D03*
X94154600Y-76962000D03*
%TD*%
D37*
%TO.N,GND*%
X117061001Y-90722001D02*
X119081999Y-90722001D01*
X69318069Y-81581931D02*
X68600000Y-82300000D01*
X126110000Y-81914000D02*
X126492000Y-82296000D01*
D38*
X104024998Y-89154000D02*
X103799998Y-89379000D01*
D37*
X126110000Y-81280000D02*
X126110000Y-81914000D01*
X124180500Y-72898000D02*
X122936000Y-72898000D01*
X70815000Y-89581931D02*
X74131931Y-89581931D01*
X119208999Y-69513001D02*
X119380000Y-69342000D01*
X72815000Y-81581931D02*
X69318069Y-81581931D01*
D38*
X103740001Y-74713000D02*
X102938001Y-74713000D01*
D37*
X116809997Y-84104000D02*
X118752600Y-84104000D01*
X150935500Y-84396000D02*
X154285500Y-84396000D01*
X119380000Y-74168000D02*
X117293003Y-74168000D01*
X134634200Y-93512001D02*
X136837999Y-93512001D01*
X148828500Y-93352000D02*
X147928500Y-93352000D01*
X102870000Y-74676000D02*
X102870000Y-74168000D01*
X126492000Y-91948000D02*
X125984000Y-91440000D01*
X137009000Y-87587002D02*
X134657000Y-87587002D01*
X74281931Y-85581931D02*
X75000000Y-86300000D01*
X132815000Y-70712000D02*
X132842000Y-70739000D01*
X102870000Y-80946600D02*
X102907998Y-80984598D01*
X125984000Y-84836000D02*
X126492000Y-85344000D01*
X119208999Y-67735001D02*
X119380000Y-67564000D01*
X116835997Y-82072000D02*
X118842000Y-82072000D01*
X156478500Y-99003000D02*
X155985500Y-99496000D01*
D38*
X104648000Y-89154000D02*
X104024998Y-89154000D01*
D37*
X119081999Y-90722001D02*
X119126000Y-90678000D01*
X118752600Y-84104000D02*
X118872000Y-84223400D01*
X124180500Y-75184000D02*
X122936000Y-75184000D01*
X125984000Y-91440000D02*
X125984000Y-90932000D01*
X72815000Y-77581931D02*
X68968069Y-77581931D01*
X85944200Y-68810000D02*
X85110000Y-68810000D01*
X157985500Y-99003000D02*
X156478500Y-99003000D01*
X119380000Y-75946000D02*
X119335999Y-75990001D01*
X79550000Y-81800000D02*
X79800000Y-82050000D01*
X117442001Y-67735001D02*
X119208999Y-67735001D01*
X104334002Y-67534002D02*
X102938001Y-67534002D01*
X68968069Y-77581931D02*
X68350000Y-78200000D01*
X147928500Y-93352000D02*
X147228500Y-94052000D01*
X70815000Y-85581931D02*
X74281931Y-85581931D01*
X70815000Y-71581931D02*
X74731931Y-71581931D01*
X124206000Y-68526000D02*
X123009000Y-68526000D01*
D38*
X103799998Y-89379000D02*
X102997998Y-89379000D01*
D37*
X134551999Y-78018001D02*
X136837999Y-78018001D01*
X132942000Y-75284000D02*
X132969000Y-75311000D01*
X130861000Y-75284000D02*
X132942000Y-75284000D01*
X78000000Y-81800000D02*
X79550000Y-81800000D01*
X78900000Y-71150000D02*
X79400000Y-71650000D01*
X162557500Y-103004000D02*
X162557500Y-105277000D01*
X68575000Y-94275000D02*
X69268069Y-93581931D01*
X117442001Y-69513001D02*
X119208999Y-69513001D01*
X125984000Y-84328000D02*
X125984000Y-84836000D01*
X137009000Y-84285002D02*
X137091999Y-84368001D01*
X118842000Y-82072000D02*
X118872000Y-82042000D01*
X150064500Y-85267000D02*
X150935500Y-84396000D01*
X124180500Y-70612000D02*
X122936000Y-70612000D01*
X125984000Y-88138000D02*
X126492000Y-88646000D01*
D38*
X103965001Y-74488000D02*
X103740001Y-74713000D01*
D37*
X89850000Y-76150000D02*
X90750000Y-76150000D01*
X69268069Y-93581931D02*
X72815000Y-93581931D01*
X77600000Y-71150000D02*
X78900000Y-71150000D01*
X90750000Y-76150000D02*
X91300000Y-76700000D01*
X85924200Y-79510000D02*
X84695400Y-79510000D01*
X130835500Y-68580000D02*
X132842000Y-68580000D01*
X149083500Y-85267000D02*
X150064500Y-85267000D01*
X119335999Y-75990001D02*
X117343003Y-75990001D01*
X132919000Y-72948000D02*
X132969000Y-72898000D01*
X84695400Y-79510000D02*
X84100000Y-78914600D01*
X102870000Y-89254000D02*
X102870000Y-88746000D01*
X130861000Y-72948000D02*
X132919000Y-72948000D01*
D38*
X104588003Y-74488000D02*
X103965001Y-74488000D01*
D37*
X134657000Y-84285002D02*
X137009000Y-84285002D01*
X102907998Y-80984598D02*
X102907998Y-82136002D01*
X74731931Y-71581931D02*
X75250000Y-72100000D01*
X123009000Y-68526000D02*
X122936000Y-68453000D01*
X91450000Y-87800000D02*
X91850000Y-88200000D01*
X118842000Y-88676000D02*
X119126000Y-88392000D01*
X104588000Y-67788000D02*
X104334002Y-67534002D01*
X90000000Y-87800000D02*
X91450000Y-87800000D01*
X117063997Y-88676000D02*
X118842000Y-88676000D01*
X125984000Y-87570000D02*
X125984000Y-88138000D01*
X74131931Y-89581931D02*
X74900000Y-90350000D01*
X130861000Y-70712000D02*
X132815000Y-70712000D01*
X85110000Y-68810000D02*
X84100000Y-67800000D01*
X137091999Y-87670001D02*
X137009000Y-87587002D01*
D39*
%TO.N,V_ALL+*%
X85944200Y-73794200D02*
X87930000Y-75780000D01*
X85944200Y-73410000D02*
X85944200Y-73794200D01*
D40*
%TO.N,LOX_VENT+*%
X115285997Y-82000910D02*
X116514907Y-80772000D01*
X115995001Y-66294000D02*
X114554000Y-67735001D01*
X129206500Y-68526000D02*
X129260500Y-68580000D01*
X115130001Y-80435001D02*
X115130001Y-81916004D01*
X115892001Y-67735001D02*
X114554000Y-67735001D01*
X114554000Y-67735001D02*
X113295004Y-67735001D01*
X126916998Y-80010000D02*
X125730000Y-80010000D01*
X128144000Y-81237002D02*
X126916998Y-80010000D01*
X124023999Y-66294000D02*
X115995001Y-66294000D01*
X123952000Y-80772000D02*
X124460000Y-81280000D01*
X125781000Y-68051001D02*
X124023999Y-66294000D01*
X113254003Y-67694000D02*
X113295004Y-67735001D01*
X113304997Y-81788000D02*
X115001997Y-81788000D01*
X115130001Y-81916004D02*
X115285997Y-82072000D01*
X72780000Y-79536931D02*
X75920069Y-82677000D01*
X125781000Y-68526000D02*
X129206500Y-68526000D01*
X125730000Y-80010000D02*
X124460000Y-81280000D01*
X116514907Y-80772000D02*
X123952000Y-80772000D01*
X72815000Y-79581931D02*
X70815000Y-79581931D01*
X115001997Y-81788000D02*
X115285997Y-82072000D01*
X125781000Y-68526000D02*
X125781000Y-68051001D01*
X75920069Y-82677000D02*
X76073000Y-82677000D01*
X115285997Y-82072000D02*
X115285997Y-82000910D01*
D39*
%TO.N,/BAT1_+_pre*%
X150050000Y-37782000D02*
X139350000Y-37782000D01*
X158830500Y-84716000D02*
X156410500Y-82296000D01*
D41*
X153167600Y-52070400D02*
X159868000Y-52070400D01*
D38*
X153167600Y-52070400D02*
X153167600Y-52064400D01*
D39*
X153167600Y-52064400D02*
X155448000Y-49784000D01*
X155448000Y-43180000D02*
X150050000Y-37782000D01*
X156704500Y-86842000D02*
X158830500Y-84716000D01*
D41*
X154581900Y-78620000D02*
X154581900Y-82125600D01*
D39*
X155448000Y-49784000D02*
X155448000Y-43180000D01*
D41*
X159868000Y-52070400D02*
X162407600Y-54610000D01*
D39*
X154683500Y-86842000D02*
X156704500Y-86842000D01*
X156410500Y-82296000D02*
X154485500Y-82296000D01*
D40*
%TO.N,ETH_VENT+*%
X117308000Y-71668000D02*
X117094000Y-71882000D01*
X113284000Y-80264000D02*
X109474000Y-80264000D01*
X129286000Y-70712000D02*
X125855500Y-70712000D01*
X117094000Y-78994000D02*
X114554000Y-78994000D01*
X124736580Y-71668000D02*
X117308000Y-71668000D01*
X72780000Y-83536931D02*
X73317069Y-84074000D01*
X116428907Y-85344000D02*
X115259997Y-84175090D01*
X113187000Y-84104000D02*
X112014000Y-82931000D01*
X115259997Y-84175090D02*
X115259997Y-84104000D01*
X80010000Y-84074000D02*
X80518000Y-83566000D01*
X125755500Y-70649080D02*
X124736580Y-71668000D01*
X125429400Y-83232600D02*
X124334000Y-84328000D01*
X123318000Y-85344000D02*
X116428907Y-85344000D01*
X115851000Y-69472000D02*
X115892001Y-69513001D01*
X112014000Y-82931000D02*
X110510401Y-82931000D01*
X117094000Y-71882000D02*
X115892001Y-70680001D01*
X73317069Y-84074000D02*
X80010000Y-84074000D01*
X127091598Y-83232600D02*
X125429400Y-83232600D01*
X114554000Y-78994000D02*
X113284000Y-80264000D01*
X115892001Y-70680001D02*
X115892001Y-69513001D01*
X128144000Y-84285002D02*
X127091598Y-83232600D01*
X125755500Y-70612000D02*
X125755500Y-70649080D01*
X70815000Y-83581931D02*
X72815000Y-83581931D01*
X125855500Y-70712000D02*
X125755500Y-70612000D01*
X110510401Y-82931000D02*
X110383401Y-82804000D01*
X113203003Y-69472000D02*
X115851000Y-69472000D01*
X115259997Y-84104000D02*
X113187000Y-84104000D01*
X124334000Y-84328000D02*
X123318000Y-85344000D01*
%TO.N,ETH_MAIIN+*%
X115743003Y-74168000D02*
X115743003Y-73693000D01*
X115743003Y-73693000D02*
X116324003Y-73112000D01*
D38*
X116586000Y-87630000D02*
X116559997Y-87630000D01*
D40*
X120991000Y-73954000D02*
X125174499Y-73954000D01*
X125174499Y-73954000D02*
X125755500Y-73372999D01*
X116191998Y-87630000D02*
X115513997Y-88308001D01*
X115743003Y-74168000D02*
X114554000Y-74168000D01*
X120149000Y-73112000D02*
X120991000Y-73954000D01*
X115513997Y-88308001D02*
X115513997Y-88676000D01*
X115513997Y-88676000D02*
X113533497Y-88676000D01*
X116559997Y-87630000D02*
X116191998Y-87630000D01*
X116324003Y-73112000D02*
X120149000Y-73112000D01*
X114554000Y-74168000D02*
X113203003Y-74168000D01*
X125755500Y-72898000D02*
X129236000Y-72898000D01*
X129236000Y-72898000D02*
X129286000Y-72948000D01*
X125755500Y-73372999D02*
X125755500Y-72898000D01*
X114554000Y-74930000D02*
X114554000Y-74168000D01*
%TO.N,PYRO_EX+*%
X115511001Y-90722001D02*
X115511001Y-91508001D01*
X84360766Y-95758000D02*
X111252000Y-95758000D01*
X124368498Y-77046001D02*
X116162001Y-77046001D01*
X113533497Y-91190503D02*
X113533497Y-90708000D01*
X114300000Y-92710000D02*
X114554000Y-92710000D01*
X115793003Y-76677003D02*
X115793003Y-75990001D01*
X113533497Y-90708000D02*
X113533497Y-91181497D01*
X113533497Y-91181497D02*
X114554000Y-92202000D01*
X128144000Y-90889002D02*
X126916998Y-89662000D01*
X113533497Y-90708000D02*
X113547498Y-90722001D01*
X129286000Y-75284000D02*
X125855500Y-75284000D01*
X113272004Y-75990001D02*
X113254003Y-75972000D01*
X113547498Y-90722001D02*
X115511001Y-90722001D01*
X115511001Y-91508001D02*
X116459000Y-92456000D01*
X126916998Y-89662000D02*
X125604000Y-89662000D01*
X114554000Y-92202000D02*
X114554000Y-92710000D01*
X72780000Y-91536931D02*
X80139697Y-91536931D01*
X72815000Y-91581931D02*
X70815000Y-91581931D01*
X115793003Y-75990001D02*
X113272004Y-75990001D01*
X116162001Y-77046001D02*
X115793003Y-76677003D01*
X111252000Y-95758000D02*
X114300000Y-92710000D01*
X125755500Y-75184000D02*
X125755500Y-75658999D01*
X116459000Y-92456000D02*
X122810000Y-92456000D01*
X125755500Y-75658999D02*
X124368498Y-77046001D01*
X111760000Y-78994000D02*
X113254003Y-77499997D01*
X125855500Y-75284000D02*
X125755500Y-75184000D01*
X113254003Y-77499997D02*
X113254003Y-75972000D01*
X125604000Y-89662000D02*
X124334000Y-90932000D01*
X80139697Y-91536931D02*
X84360766Y-95758000D01*
X122810000Y-92456000D02*
X124334000Y-90932000D01*
D38*
%TO.N,Net-(C12-Pad1)*%
X157985500Y-97353000D02*
X157985500Y-94368000D01*
%TO.N,Net-(D2-K)*%
X149187500Y-86946000D02*
X149083500Y-86842000D01*
X152435500Y-86946000D02*
X149187500Y-86946000D01*
D39*
%TO.N,/BAT1_+*%
X165605500Y-91218400D02*
X163065500Y-93758400D01*
X165605500Y-84716000D02*
X165605500Y-91218400D01*
D42*
%TO.N,PWR_SUP*%
X70815000Y-103581831D02*
X70815000Y-105581831D01*
X70815000Y-105581831D02*
X70815000Y-107581831D01*
D39*
X77848169Y-105581831D02*
X79800000Y-103630000D01*
D42*
X70815000Y-105581831D02*
X72815000Y-105581831D01*
X70815000Y-107581831D02*
X72815000Y-107581831D01*
X72815000Y-107581831D02*
X72815000Y-103581831D01*
D39*
X72815000Y-105581831D02*
X77848169Y-105581831D01*
D42*
X72815000Y-103581831D02*
X70815000Y-103581831D01*
D38*
%TO.N,Net-(U1-OUTPUT)*%
X84434200Y-69600000D02*
X85944200Y-71110000D01*
X83000000Y-69600000D02*
X84434200Y-69600000D01*
%TO.N,Net-(U4-OUTPUT)*%
X82851000Y-80286000D02*
X84400200Y-80286000D01*
X84400200Y-80286000D02*
X85924200Y-81810000D01*
D40*
%TO.N,ETH_MAIN+*%
X128143000Y-87587002D02*
X126915998Y-86360000D01*
X122242000Y-89662000D02*
X124334000Y-87570000D01*
X72780000Y-87536931D02*
X80424931Y-87536931D01*
X126915998Y-86360000D02*
X125544000Y-86360000D01*
X80424931Y-87536931D02*
X80518000Y-87630000D01*
X125544000Y-86360000D02*
X124334000Y-87570000D01*
X72815000Y-87581931D02*
X70815000Y-87581931D01*
D38*
%TO.N,PYRO1EN*%
X163527900Y-65478000D02*
X172050000Y-74000100D01*
X96774000Y-77724000D02*
X96012000Y-76962000D01*
X95982000Y-67818000D02*
X96998000Y-66802000D01*
X101346000Y-66468600D02*
X101520600Y-66294000D01*
X96774000Y-82296000D02*
X96774000Y-77724000D01*
X101520600Y-66294000D02*
X102108000Y-66294000D01*
X102108000Y-66294000D02*
X102924000Y-65478000D01*
X95250000Y-67818000D02*
X95982000Y-67818000D01*
X102924000Y-65478000D02*
X163527900Y-65478000D01*
%TO.N,PYRO2EN*%
X95504000Y-69596000D02*
X96943000Y-69596000D01*
X94996000Y-71882000D02*
X94996000Y-70104000D01*
X96774000Y-85090000D02*
X95065803Y-83381803D01*
X174732082Y-66421000D02*
X170942000Y-66421000D01*
X175062800Y-66751718D02*
X174732082Y-66421000D01*
X175062800Y-84987200D02*
X175062800Y-66751718D01*
X170942000Y-66421000D02*
X169672000Y-67691000D01*
X95065803Y-83381803D02*
X95065803Y-76962000D01*
X169599000Y-75873000D02*
X144453000Y-75873000D01*
X169672000Y-75946000D02*
X169599000Y-75873000D01*
X169672000Y-67691000D02*
X169672000Y-70104000D01*
X94996000Y-70104000D02*
X95504000Y-69596000D01*
X144453000Y-75873000D02*
X144272000Y-75692000D01*
X174050000Y-86000000D02*
X175062800Y-84987200D01*
%TO.N,PYRO3EN*%
X96278866Y-65024000D02*
X94234000Y-67068866D01*
X94154600Y-85264600D02*
X94154600Y-76962000D01*
X173977134Y-65024000D02*
X96278866Y-65024000D01*
X175516800Y-66563666D02*
X173977134Y-65024000D01*
X94234000Y-67068866D02*
X94234000Y-73914000D01*
X94234000Y-73914000D02*
X95758000Y-72390000D01*
X95758000Y-72390000D02*
X96998000Y-72390000D01*
X96774000Y-87884000D02*
X94154600Y-85264600D01*
X175516800Y-86225200D02*
X175516800Y-66563666D01*
X174050000Y-87692000D02*
X175516800Y-86225200D01*
D37*
%TO.N,+5V*%
X72815000Y-75581931D02*
X70815000Y-75581931D01*
X77483069Y-80250000D02*
X72815000Y-75581931D01*
X78000000Y-80250000D02*
X77483069Y-80250000D01*
X70815000Y-75581931D02*
X70815000Y-73581931D01*
X72815000Y-73581931D02*
X72815000Y-75581931D01*
X81276000Y-80286000D02*
X78036000Y-80286000D01*
X78036000Y-80286000D02*
X78000000Y-80250000D01*
X70815000Y-73581931D02*
X72815000Y-73581931D01*
D38*
%TO.N,PYRO4EN*%
X94754866Y-64262000D02*
X93449728Y-65567138D01*
X174265026Y-64262000D02*
X94754866Y-64262000D01*
X174149840Y-89384000D02*
X176070640Y-87463200D01*
X96774000Y-90660000D02*
X93472000Y-87358000D01*
X176070640Y-66067614D02*
X174265026Y-64262000D01*
X93472000Y-76454000D02*
X94742000Y-75184000D01*
X93449728Y-65567138D02*
X93449728Y-76431728D01*
X94742000Y-75184000D02*
X96998000Y-75184000D01*
X93449728Y-76431728D02*
X93472000Y-76454000D01*
X93472000Y-87358000D02*
X93472000Y-76454000D01*
X176070640Y-87463200D02*
X176070640Y-66067614D01*
D37*
%TO.N,+3.3V*%
X77600000Y-69600000D02*
X72833069Y-69600000D01*
X72833069Y-69600000D02*
X72815000Y-69581931D01*
X81425000Y-69600000D02*
X77600000Y-69600000D01*
X72815000Y-69581931D02*
X70815000Y-69581931D01*
D38*
%TO.N,Net-(D1-A)*%
X129794000Y-81026000D02*
X132801999Y-78018001D01*
%TO.N,Net-(D3-A)*%
X132907000Y-84285002D02*
X129794000Y-84285002D01*
%TO.N,Net-(D4-A)*%
X132907000Y-87587002D02*
X129793000Y-87587002D01*
%TO.N,Net-(D5-A)*%
X132179054Y-93512001D02*
X129794000Y-91126947D01*
X132884200Y-93512001D02*
X132179054Y-93512001D01*
%TO.N,Net-(D10-A)*%
X108807999Y-82815001D02*
X108807999Y-82165000D01*
X111729997Y-82072000D02*
X108900999Y-82072000D01*
X108900999Y-82072000D02*
X108807999Y-82165000D01*
%TO.N,Net-(D11-A)*%
X108880601Y-88737601D02*
X108807999Y-88664999D01*
X111896896Y-88737601D02*
X108880601Y-88737601D01*
X108807999Y-88664999D02*
X108807999Y-89315000D01*
X111958497Y-88676000D02*
X111896896Y-88737601D01*
%TO.N,Net-(D12-A)*%
X108807999Y-83465000D02*
X108807999Y-84115001D01*
X108819000Y-84104000D02*
X108807999Y-84115001D01*
X111678997Y-84104000D02*
X108819000Y-84104000D01*
%TO.N,Net-(D13-A)*%
X111958497Y-90708000D02*
X108900999Y-90708000D01*
X108900999Y-90708000D02*
X108807999Y-90615000D01*
X108807999Y-89964999D02*
X108807999Y-90615000D01*
%TO.N,Net-(D6-A)*%
X108969002Y-67694000D02*
X108838002Y-67563000D01*
X108838002Y-68213001D02*
X108838002Y-67563000D01*
X111679003Y-67694000D02*
X108969002Y-67694000D01*
%TO.N,Net-(D7-A)*%
X108838002Y-69513001D02*
X108838002Y-68863000D01*
X111628003Y-69472000D02*
X108879003Y-69472000D01*
X108879003Y-69472000D02*
X108838002Y-69513001D01*
%TO.N,Net-(D8-A)*%
X111355004Y-74062999D02*
X108838002Y-74062999D01*
X108838002Y-74062999D02*
X108838002Y-74713000D01*
%TO.N,Net-(D9-A)*%
X108879002Y-75972000D02*
X108838002Y-76013000D01*
X108838002Y-76013000D02*
X108838002Y-75362999D01*
X111679003Y-75972000D02*
X108879002Y-75972000D01*
%TO.N,Net-(JP1-B)*%
X100359000Y-68863000D02*
X98298000Y-66802000D01*
X102938001Y-68863000D02*
X100359000Y-68863000D01*
%TO.N,Net-(JP2-B)*%
X98243000Y-69596000D02*
X102855002Y-69596000D01*
X102855002Y-69596000D02*
X102938001Y-69513001D01*
%TO.N,Net-(JP3-B)*%
X98298000Y-72390000D02*
X100525001Y-70162999D01*
X100525001Y-70162999D02*
X102938001Y-70162999D01*
%TO.N,Net-(JP4-B)*%
X98298000Y-74434000D02*
X101918999Y-70813001D01*
X101918999Y-70813001D02*
X102938001Y-70813001D01*
X98298000Y-75184000D02*
X98298000Y-74434000D01*
%TO.N,Net-(JP5-B)*%
X98074000Y-82296000D02*
X99243000Y-83465000D01*
X99243000Y-83465000D02*
X102907998Y-83465000D01*
%TO.N,Net-(JP6-B)*%
X102907998Y-84115001D02*
X99048999Y-84115001D01*
X99048999Y-84115001D02*
X98074000Y-85090000D01*
%TO.N,Net-(JP7-B)*%
X98074000Y-87884000D02*
X101193001Y-84764999D01*
X101193001Y-84764999D02*
X102907998Y-84764999D01*
%TO.N,Net-(JP8-B)*%
X101953998Y-85415001D02*
X98906142Y-88462857D01*
X102907998Y-85415001D02*
X101953998Y-85415001D01*
X98906142Y-89827858D02*
X98074000Y-90660000D01*
X98906142Y-88462857D02*
X98906142Y-89827858D01*
%TD*%
%TA.AperFunction,Conductor*%
%TO.N,V_ALL+*%
G36*
X162607711Y-91499685D02*
G01*
X162653466Y-91552489D01*
X162663410Y-91621647D01*
X162634385Y-91685203D01*
X162628353Y-91691681D01*
X162331290Y-91988745D01*
X161766718Y-92553317D01*
X161766710Y-92553326D01*
X161766710Y-92553325D01*
X161636966Y-92704089D01*
X161537538Y-92862328D01*
X161495784Y-92928781D01*
X161442726Y-93050390D01*
X161389667Y-93172002D01*
X161320987Y-93428320D01*
X161320987Y-93428324D01*
X161291275Y-93692013D01*
X161301198Y-93957188D01*
X161350529Y-94217913D01*
X161350534Y-94217930D01*
X161439708Y-94472774D01*
X161438274Y-94473275D01*
X161446800Y-94514033D01*
X161446800Y-95294637D01*
X161427115Y-95361676D01*
X161410482Y-95382318D01*
X161375800Y-95417000D01*
X161375800Y-97855400D01*
X161410981Y-97890581D01*
X161444466Y-97951904D01*
X161447300Y-97978262D01*
X161447300Y-98596000D01*
X164123700Y-98596000D01*
X164123700Y-97978262D01*
X164143385Y-97911223D01*
X164160019Y-97890581D01*
X164195200Y-97855400D01*
X164195200Y-95417000D01*
X164160518Y-95382318D01*
X164127033Y-95320995D01*
X164124199Y-95294637D01*
X164124199Y-95240038D01*
X164143884Y-95172999D01*
X164167312Y-95146052D01*
X164270583Y-95057182D01*
X166834024Y-92493741D01*
X166907008Y-92426023D01*
X166969078Y-92348189D01*
X167034035Y-92272708D01*
X167049882Y-92247485D01*
X167053890Y-92241836D01*
X167072458Y-92218555D01*
X167122242Y-92132325D01*
X167175215Y-92048020D01*
X167187118Y-92020737D01*
X167190255Y-92014523D01*
X167205139Y-91988745D01*
X167241518Y-91896050D01*
X167281331Y-91804800D01*
X167289034Y-91776049D01*
X167291211Y-91769434D01*
X167302082Y-91741736D01*
X167302085Y-91741729D01*
X167302086Y-91741727D01*
X167324244Y-91644645D01*
X167343736Y-91571905D01*
X167380101Y-91512245D01*
X167442948Y-91481717D01*
X167463510Y-91480000D01*
X169773500Y-91480000D01*
X169840539Y-91499685D01*
X169886294Y-91552489D01*
X169897500Y-91604000D01*
X169897500Y-101931201D01*
X169877815Y-101998240D01*
X169825011Y-102043995D01*
X169774708Y-102055195D01*
X163599607Y-102115334D01*
X163532379Y-102096303D01*
X163486112Y-102043947D01*
X163475495Y-101974889D01*
X163480693Y-101952336D01*
X163522355Y-101826606D01*
X163532499Y-101727322D01*
X163532500Y-101727309D01*
X163532500Y-101704000D01*
X161582501Y-101704000D01*
X161582501Y-101727322D01*
X161592644Y-101826607D01*
X161641003Y-101972545D01*
X161643405Y-102042374D01*
X161607673Y-102102415D01*
X161545153Y-102133608D01*
X161524505Y-102135543D01*
X160370708Y-102146780D01*
X160303480Y-102127749D01*
X160257213Y-102075393D01*
X160245500Y-102022786D01*
X160245500Y-99096000D01*
X161447300Y-99096000D01*
X161447300Y-99833644D01*
X161453701Y-99893172D01*
X161453703Y-99893179D01*
X161503945Y-100027886D01*
X161503949Y-100027893D01*
X161590109Y-100142987D01*
X161590112Y-100142990D01*
X161705206Y-100229150D01*
X161705213Y-100229154D01*
X161839920Y-100279396D01*
X161839927Y-100279398D01*
X161899455Y-100285799D01*
X161899472Y-100285800D01*
X162080565Y-100285800D01*
X162147604Y-100305485D01*
X162193359Y-100358289D01*
X162203303Y-100427447D01*
X162174278Y-100491003D01*
X162119569Y-100527506D01*
X161999018Y-100567452D01*
X161999007Y-100567457D01*
X161854771Y-100656424D01*
X161854767Y-100656427D01*
X161734927Y-100776267D01*
X161734924Y-100776271D01*
X161645957Y-100920507D01*
X161645952Y-100920518D01*
X161592644Y-101081393D01*
X161582500Y-101180677D01*
X161582500Y-101204000D01*
X163532499Y-101204000D01*
X163532499Y-101180692D01*
X163532498Y-101180677D01*
X163522355Y-101081392D01*
X163469047Y-100920518D01*
X163469042Y-100920507D01*
X163380075Y-100776271D01*
X163380072Y-100776267D01*
X163260232Y-100656427D01*
X163260228Y-100656424D01*
X163115992Y-100567457D01*
X163115981Y-100567452D01*
X162995431Y-100527506D01*
X162937986Y-100487733D01*
X162911163Y-100423217D01*
X162923478Y-100354442D01*
X162971021Y-100303242D01*
X163034435Y-100285800D01*
X163671528Y-100285800D01*
X163671544Y-100285799D01*
X163731072Y-100279398D01*
X163731079Y-100279396D01*
X163865786Y-100229154D01*
X163865793Y-100229150D01*
X163980887Y-100142990D01*
X163980890Y-100142987D01*
X164067050Y-100027893D01*
X164067054Y-100027886D01*
X164117296Y-99893179D01*
X164117298Y-99893172D01*
X164123699Y-99833644D01*
X164123700Y-99833627D01*
X164123700Y-99096000D01*
X161447300Y-99096000D01*
X160245500Y-99096000D01*
X160245500Y-91604000D01*
X160265185Y-91536961D01*
X160317989Y-91491206D01*
X160369500Y-91480000D01*
X162540672Y-91480000D01*
X162607711Y-91499685D01*
G37*
%TD.AperFunction*%
%TD*%
%TA.AperFunction,Conductor*%
%TO.N,V_ALL+*%
G36*
X84597885Y-83469685D02*
G01*
X84643640Y-83522489D01*
X84654135Y-83587256D01*
X84649500Y-83630355D01*
X84649500Y-83860000D01*
X87198900Y-83860000D01*
X87198900Y-83630372D01*
X87198899Y-83630355D01*
X87194265Y-83587256D01*
X87206670Y-83518497D01*
X87254280Y-83467359D01*
X87317554Y-83450000D01*
X89371769Y-83450000D01*
X89438808Y-83469685D01*
X89484563Y-83522489D01*
X89495699Y-83578159D01*
X89385134Y-86872971D01*
X89363212Y-86939312D01*
X89326307Y-86974347D01*
X89321960Y-86977028D01*
X89321955Y-86977032D01*
X89312324Y-86986663D01*
X89251000Y-87020146D01*
X89181308Y-87015159D01*
X89136965Y-86986660D01*
X89127732Y-86977427D01*
X89127728Y-86977424D01*
X88983492Y-86888457D01*
X88983481Y-86888452D01*
X88822606Y-86835144D01*
X88723322Y-86825000D01*
X88700000Y-86825000D01*
X88700000Y-88774999D01*
X88723308Y-88774999D01*
X88723322Y-88774998D01*
X88822607Y-88764855D01*
X88983481Y-88711547D01*
X88983488Y-88711544D01*
X89133839Y-88618805D01*
X89201231Y-88600364D01*
X89267895Y-88621286D01*
X89312665Y-88674927D01*
X89322867Y-88728502D01*
X89253971Y-90781658D01*
X89232049Y-90847999D01*
X89177741Y-90891957D01*
X89131601Y-90901489D01*
X81427234Y-90998399D01*
X81359952Y-90979559D01*
X81313536Y-90927335D01*
X81301685Y-90872767D01*
X81302892Y-90781658D01*
X81339073Y-88050000D01*
X87500001Y-88050000D01*
X87500001Y-88098322D01*
X87510144Y-88197607D01*
X87563452Y-88358481D01*
X87563457Y-88358492D01*
X87652424Y-88502728D01*
X87652427Y-88502732D01*
X87772267Y-88622572D01*
X87772271Y-88622575D01*
X87916507Y-88711542D01*
X87916518Y-88711547D01*
X88077393Y-88764855D01*
X88176683Y-88774999D01*
X88200000Y-88774998D01*
X88200000Y-88050000D01*
X87500001Y-88050000D01*
X81339073Y-88050000D01*
X81340096Y-87972745D01*
X81345544Y-87938006D01*
X81388811Y-87797094D01*
X81404373Y-87605988D01*
X81396745Y-87550000D01*
X87500000Y-87550000D01*
X88200000Y-87550000D01*
X88200000Y-86824999D01*
X88176693Y-86825000D01*
X88176674Y-86825001D01*
X88077392Y-86835144D01*
X87916518Y-86888452D01*
X87916507Y-86888457D01*
X87772271Y-86977424D01*
X87772267Y-86977427D01*
X87652427Y-87097267D01*
X87652424Y-87097271D01*
X87563457Y-87241507D01*
X87563452Y-87241518D01*
X87510144Y-87402393D01*
X87500000Y-87501677D01*
X87500000Y-87550000D01*
X81396745Y-87550000D01*
X81378489Y-87416006D01*
X81356447Y-87356009D01*
X81348852Y-87311613D01*
X81387946Y-84360000D01*
X84649500Y-84360000D01*
X84649500Y-84589644D01*
X84655901Y-84649172D01*
X84655903Y-84649179D01*
X84706145Y-84783886D01*
X84706149Y-84783893D01*
X84792309Y-84898987D01*
X84792312Y-84898990D01*
X84907406Y-84985150D01*
X84907413Y-84985154D01*
X85042120Y-85035396D01*
X85042127Y-85035398D01*
X85101655Y-85041799D01*
X85101672Y-85041800D01*
X85674200Y-85041800D01*
X85674200Y-84360000D01*
X86174200Y-84360000D01*
X86174200Y-85041800D01*
X86746728Y-85041800D01*
X86746744Y-85041799D01*
X86806272Y-85035398D01*
X86806279Y-85035396D01*
X86940986Y-84985154D01*
X86940993Y-84985150D01*
X87056087Y-84898990D01*
X87056090Y-84898987D01*
X87142250Y-84783893D01*
X87142254Y-84783886D01*
X87192496Y-84649179D01*
X87192498Y-84649172D01*
X87198899Y-84589644D01*
X87198900Y-84589627D01*
X87198900Y-84360000D01*
X86174200Y-84360000D01*
X85674200Y-84360000D01*
X84649500Y-84360000D01*
X81387946Y-84360000D01*
X81397160Y-83664294D01*
X81399697Y-83570641D01*
X81421192Y-83504160D01*
X81475216Y-83459852D01*
X81523653Y-83450000D01*
X84530846Y-83450000D01*
X84597885Y-83469685D01*
G37*
%TD.AperFunction*%
%TD*%
%TA.AperFunction,Conductor*%
%TO.N,V_ALL+*%
G36*
X84612076Y-72979382D02*
G01*
X84658065Y-73031983D01*
X84669500Y-73083994D01*
X84669500Y-73160000D01*
X86070200Y-73160000D01*
X86137239Y-73179685D01*
X86182994Y-73232489D01*
X86194200Y-73284000D01*
X86194200Y-74341800D01*
X86676000Y-74341800D01*
X86743039Y-74361485D01*
X86788794Y-74414289D01*
X86800000Y-74465800D01*
X86800000Y-76876548D01*
X86780315Y-76943587D01*
X86727511Y-76989342D01*
X86676550Y-77000547D01*
X75644550Y-77049447D01*
X75577424Y-77030060D01*
X75531435Y-76977459D01*
X75520000Y-76925448D01*
X75520000Y-73660000D01*
X84669500Y-73660000D01*
X84669500Y-73889644D01*
X84675901Y-73949172D01*
X84675903Y-73949179D01*
X84726145Y-74083886D01*
X84726149Y-74083893D01*
X84812309Y-74198987D01*
X84812312Y-74198990D01*
X84927406Y-74285150D01*
X84927413Y-74285154D01*
X85062120Y-74335396D01*
X85062127Y-74335398D01*
X85121655Y-74341799D01*
X85121672Y-74341800D01*
X85694200Y-74341800D01*
X85694200Y-73660000D01*
X84669500Y-73660000D01*
X75520000Y-73660000D01*
X75520000Y-73123451D01*
X75539685Y-73056412D01*
X75592489Y-73010657D01*
X75643446Y-72999452D01*
X84544952Y-72959995D01*
X84612076Y-72979382D01*
G37*
%TD.AperFunction*%
%TD*%
%TA.AperFunction,Conductor*%
%TO.N,V_ALL+*%
G36*
X81770917Y-94419097D02*
G01*
X81792414Y-94436277D01*
X82989029Y-95632892D01*
X83022514Y-95694215D01*
X83025241Y-95715411D01*
X83214644Y-100261069D01*
X83197767Y-100328870D01*
X83146914Y-100376783D01*
X83091359Y-100390230D01*
X81484308Y-100398108D01*
X81417173Y-100378752D01*
X81371160Y-100326173D01*
X81359700Y-100274109D01*
X81359700Y-99590599D01*
X81324519Y-99555419D01*
X81291034Y-99494096D01*
X81288200Y-99467738D01*
X81288200Y-98850000D01*
X78611800Y-98850000D01*
X78611800Y-99467738D01*
X78592115Y-99534777D01*
X78575481Y-99555419D01*
X78540300Y-99590600D01*
X78540300Y-100289144D01*
X78520615Y-100356183D01*
X78467811Y-100401938D01*
X78416908Y-100413143D01*
X77219707Y-100419013D01*
X77152572Y-100399657D01*
X77106559Y-100347078D01*
X77095199Y-100299987D01*
X77094764Y-100289144D01*
X77016939Y-98350000D01*
X78611800Y-98350000D01*
X79700000Y-98350000D01*
X79700000Y-97160200D01*
X80200000Y-97160200D01*
X80200000Y-98350000D01*
X81288200Y-98350000D01*
X81288200Y-97612372D01*
X81288199Y-97612355D01*
X81281798Y-97552827D01*
X81281796Y-97552820D01*
X81231554Y-97418113D01*
X81231550Y-97418106D01*
X81145390Y-97303012D01*
X81145387Y-97303009D01*
X81030293Y-97216849D01*
X81030286Y-97216845D01*
X80895579Y-97166603D01*
X80895572Y-97166601D01*
X80836044Y-97160200D01*
X80200000Y-97160200D01*
X79700000Y-97160200D01*
X79063955Y-97160200D01*
X79004427Y-97166601D01*
X79004420Y-97166603D01*
X78869713Y-97216845D01*
X78869706Y-97216849D01*
X78754612Y-97303009D01*
X78754609Y-97303012D01*
X78668449Y-97418106D01*
X78668445Y-97418113D01*
X78618203Y-97552820D01*
X78618201Y-97552827D01*
X78611800Y-97612355D01*
X78611800Y-98350000D01*
X77016939Y-98350000D01*
X76865133Y-94567517D01*
X76882113Y-94499746D01*
X76933040Y-94451910D01*
X76988016Y-94438552D01*
X81703719Y-94399962D01*
X81770917Y-94419097D01*
G37*
%TD.AperFunction*%
%TD*%
%TA.AperFunction,Conductor*%
%TO.N,V_ALL+*%
G36*
X111090106Y-70376463D02*
G01*
X111103208Y-70384545D01*
X111103213Y-70384547D01*
X111103216Y-70384549D01*
X111262818Y-70437436D01*
X111361329Y-70447500D01*
X111361334Y-70447500D01*
X111894672Y-70447500D01*
X111894677Y-70447500D01*
X111993188Y-70437436D01*
X112152790Y-70384549D01*
X112152795Y-70384545D01*
X112152797Y-70384545D01*
X112165900Y-70376463D01*
X112230999Y-70358000D01*
X112600007Y-70358000D01*
X112665106Y-70376463D01*
X112678208Y-70384545D01*
X112678213Y-70384547D01*
X112678216Y-70384549D01*
X112837818Y-70437436D01*
X112936329Y-70447500D01*
X112936334Y-70447500D01*
X113469672Y-70447500D01*
X113469677Y-70447500D01*
X113568188Y-70437436D01*
X113727790Y-70384549D01*
X113727795Y-70384545D01*
X113727797Y-70384545D01*
X113740900Y-70376463D01*
X113805999Y-70358000D01*
X114886501Y-70358000D01*
X114953540Y-70377685D01*
X114999295Y-70430489D01*
X115010501Y-70482000D01*
X115010501Y-70641647D01*
X115010296Y-70646682D01*
X115005627Y-70704009D01*
X115005628Y-70704017D01*
X115016960Y-70787198D01*
X115026034Y-70870614D01*
X115026034Y-70870617D01*
X115026121Y-70870873D01*
X115031472Y-70893706D01*
X115031510Y-70893988D01*
X115031511Y-70893992D01*
X115031511Y-70893994D01*
X115031512Y-70893995D01*
X115050419Y-70945459D01*
X115060464Y-70972800D01*
X115087256Y-71052317D01*
X115087402Y-71052560D01*
X115097533Y-71073701D01*
X115097628Y-71073961D01*
X115097635Y-71073974D01*
X115142830Y-71144683D01*
X115186105Y-71216606D01*
X115186109Y-71216611D01*
X115186295Y-71216807D01*
X115200749Y-71235295D01*
X115200894Y-71235522D01*
X115200901Y-71235531D01*
X115260233Y-71294862D01*
X115317961Y-71355806D01*
X115317964Y-71355808D01*
X115318188Y-71355960D01*
X115336287Y-71370916D01*
X115533681Y-71568310D01*
X115567166Y-71629633D01*
X115570000Y-71655991D01*
X115570000Y-72568011D01*
X115550315Y-72635050D01*
X115533681Y-72655692D01*
X115146818Y-73042555D01*
X115143115Y-73045968D01*
X115099263Y-73083218D01*
X115084195Y-73103041D01*
X115027954Y-73144498D01*
X114985479Y-73152000D01*
X110162002Y-73152000D01*
X110094963Y-73132315D01*
X110049208Y-73079511D01*
X110038002Y-73028000D01*
X110038002Y-72987998D01*
X110022391Y-72972387D01*
X110008515Y-72968313D01*
X109976288Y-72938310D01*
X109895548Y-72830455D01*
X109803124Y-72761266D01*
X109761254Y-72705332D01*
X109756270Y-72635641D01*
X109789756Y-72574318D01*
X109851079Y-72540833D01*
X109877436Y-72538000D01*
X110038001Y-72538000D01*
X110038002Y-72490181D01*
X110038001Y-72490179D01*
X110033817Y-72451254D01*
X110033818Y-72424743D01*
X110038001Y-72385836D01*
X110038002Y-72385819D01*
X110038002Y-72338000D01*
X109063001Y-72338000D01*
X109063001Y-72563501D01*
X109043316Y-72630540D01*
X108990512Y-72676295D01*
X108939001Y-72687501D01*
X108737003Y-72687501D01*
X108669964Y-72667816D01*
X108624209Y-72615012D01*
X108613003Y-72563501D01*
X108613003Y-71687998D01*
X109063001Y-71687998D01*
X109063001Y-71888002D01*
X110038002Y-71888002D01*
X110038001Y-71888001D01*
X110038002Y-71840180D01*
X110038001Y-71840169D01*
X110033817Y-71801258D01*
X110033817Y-71774742D01*
X110038001Y-71735830D01*
X110038002Y-71735820D01*
X110038002Y-71687998D01*
X109063001Y-71687998D01*
X108613003Y-71687998D01*
X108613003Y-71012498D01*
X108632688Y-70945459D01*
X108685492Y-70899704D01*
X108737000Y-70888498D01*
X108939002Y-70888498D01*
X109006040Y-70908183D01*
X109051795Y-70960987D01*
X109063001Y-71012498D01*
X109063001Y-71238000D01*
X110038001Y-71238000D01*
X110038002Y-71190181D01*
X110038000Y-71190161D01*
X110033818Y-71151255D01*
X110033818Y-71124745D01*
X110038000Y-71085838D01*
X110038002Y-71085819D01*
X110038002Y-71038000D01*
X109877436Y-71038000D01*
X109810397Y-71018315D01*
X109764642Y-70965511D01*
X109754698Y-70896353D01*
X109783723Y-70832797D01*
X109803124Y-70814734D01*
X109832722Y-70792576D01*
X109895548Y-70745545D01*
X109976288Y-70637690D01*
X110024119Y-70601884D01*
X110038001Y-70588001D01*
X110038002Y-70540183D01*
X110038001Y-70540179D01*
X110034069Y-70503597D01*
X110034070Y-70477084D01*
X110034969Y-70468729D01*
X110061715Y-70404182D01*
X110119112Y-70364341D01*
X110158257Y-70358000D01*
X111025007Y-70358000D01*
X111090106Y-70376463D01*
G37*
%TD.AperFunction*%
%TD*%
%TA.AperFunction,Conductor*%
%TO.N,V_ALL+*%
G36*
X114943955Y-85109685D02*
G01*
X114964597Y-85126319D01*
X115778467Y-85940189D01*
X115781883Y-85943894D01*
X115794509Y-85958760D01*
X115822905Y-86022599D01*
X115823999Y-86039033D01*
X115823999Y-86751123D01*
X115804314Y-86818162D01*
X115766782Y-86855603D01*
X115727316Y-86880829D01*
X115655391Y-86924106D01*
X115655380Y-86924114D01*
X115655174Y-86924310D01*
X115636719Y-86938738D01*
X115636480Y-86938890D01*
X115636474Y-86938895D01*
X115577136Y-86998232D01*
X115516186Y-87055967D01*
X115516185Y-87055968D01*
X115516026Y-87056204D01*
X115501084Y-87074283D01*
X114917812Y-87657556D01*
X114914109Y-87660969D01*
X114870257Y-87698219D01*
X114846271Y-87729772D01*
X114836878Y-87742130D01*
X114834285Y-87745541D01*
X114778044Y-87786998D01*
X114735569Y-87794500D01*
X114222428Y-87794500D01*
X114157331Y-87776038D01*
X114088287Y-87733451D01*
X113928685Y-87680564D01*
X113928683Y-87680563D01*
X113830181Y-87670500D01*
X113830174Y-87670500D01*
X113296826Y-87670500D01*
X113296818Y-87670500D01*
X113198316Y-87680563D01*
X113198315Y-87680564D01*
X113145036Y-87698219D01*
X113038715Y-87733450D01*
X113038704Y-87733455D01*
X112895612Y-87821716D01*
X112895608Y-87821719D01*
X112869647Y-87847681D01*
X112808324Y-87881166D01*
X112781966Y-87884000D01*
X112770034Y-87884000D01*
X112702995Y-87864315D01*
X112682353Y-87847681D01*
X112656391Y-87821719D01*
X112656387Y-87821716D01*
X112513295Y-87733455D01*
X112513289Y-87733452D01*
X112513287Y-87733451D01*
X112353685Y-87680564D01*
X112353683Y-87680563D01*
X112255181Y-87670500D01*
X112255174Y-87670500D01*
X111721826Y-87670500D01*
X111721818Y-87670500D01*
X111623316Y-87680563D01*
X111623315Y-87680564D01*
X111570036Y-87698219D01*
X111463715Y-87733450D01*
X111463704Y-87733455D01*
X111320612Y-87821716D01*
X111320608Y-87821719D01*
X111294647Y-87847681D01*
X111233324Y-87881166D01*
X111206966Y-87884000D01*
X110132498Y-87884000D01*
X110065459Y-87864315D01*
X110019704Y-87811511D01*
X110008498Y-87760000D01*
X110008498Y-87742130D01*
X110008498Y-87742129D01*
X110004066Y-87700899D01*
X110004067Y-87674393D01*
X110007998Y-87637832D01*
X110007999Y-87637817D01*
X110007999Y-87589998D01*
X109992388Y-87574387D01*
X109978512Y-87570313D01*
X109946285Y-87540310D01*
X109865545Y-87432455D01*
X109773121Y-87363266D01*
X109731251Y-87307332D01*
X109726267Y-87237641D01*
X109759753Y-87176318D01*
X109821076Y-87142833D01*
X109847433Y-87140000D01*
X110007999Y-87140000D01*
X110007999Y-87092181D01*
X110007997Y-87092161D01*
X110003815Y-87053255D01*
X110003815Y-87026745D01*
X110007997Y-86987838D01*
X110007999Y-86987819D01*
X110007999Y-86940000D01*
X109032998Y-86940000D01*
X109032998Y-87165501D01*
X109013313Y-87232540D01*
X108960509Y-87278295D01*
X108908998Y-87289501D01*
X108707000Y-87289501D01*
X108639961Y-87269816D01*
X108594206Y-87217012D01*
X108583000Y-87165501D01*
X108583000Y-86289998D01*
X109032998Y-86289998D01*
X109032998Y-86490002D01*
X110007999Y-86490002D01*
X110007999Y-86442180D01*
X110007998Y-86442169D01*
X110003814Y-86403258D01*
X110003814Y-86376742D01*
X110007998Y-86337830D01*
X110007999Y-86337820D01*
X110007999Y-86289998D01*
X109032998Y-86289998D01*
X108583000Y-86289998D01*
X108583000Y-85614498D01*
X108602685Y-85547459D01*
X108655489Y-85501704D01*
X108706997Y-85490498D01*
X108908999Y-85490498D01*
X108976037Y-85510183D01*
X109021792Y-85562987D01*
X109032998Y-85614498D01*
X109032998Y-85840000D01*
X110007999Y-85840000D01*
X110007999Y-85792181D01*
X110007997Y-85792161D01*
X110003815Y-85753255D01*
X110003815Y-85726745D01*
X110007997Y-85687838D01*
X110007999Y-85687819D01*
X110007999Y-85640000D01*
X109847433Y-85640000D01*
X109780394Y-85620315D01*
X109734639Y-85567511D01*
X109724695Y-85498353D01*
X109753720Y-85434797D01*
X109773121Y-85416734D01*
X109806154Y-85392005D01*
X109865545Y-85347545D01*
X109946285Y-85239690D01*
X109994116Y-85203884D01*
X110017974Y-85180026D01*
X110027684Y-85146961D01*
X110080488Y-85101206D01*
X110131999Y-85090000D01*
X114876916Y-85090000D01*
X114943955Y-85109685D01*
G37*
%TD.AperFunction*%
%TD*%
%TA.AperFunction,Conductor*%
%TO.N,V_ALL+*%
G36*
X159452539Y-88799685D02*
G01*
X159498294Y-88852489D01*
X159509500Y-88904000D01*
X159509500Y-96022000D01*
X159489815Y-96089039D01*
X159437011Y-96134794D01*
X159385500Y-96146000D01*
X158737000Y-96146000D01*
X158669961Y-96126315D01*
X158624206Y-96073511D01*
X158613000Y-96022000D01*
X158613000Y-95281770D01*
X158632685Y-95214731D01*
X158671904Y-95176231D01*
X158688544Y-95165968D01*
X158808468Y-95046044D01*
X158897503Y-94901697D01*
X158950849Y-94740708D01*
X158961000Y-94641345D01*
X158960999Y-94094656D01*
X158956920Y-94054728D01*
X158950849Y-93995292D01*
X158950848Y-93995289D01*
X158922749Y-93910492D01*
X158897503Y-93834303D01*
X158897499Y-93834297D01*
X158897498Y-93834294D01*
X158808470Y-93689959D01*
X158808467Y-93689955D01*
X158798839Y-93680327D01*
X158765354Y-93619004D01*
X158770338Y-93549312D01*
X158798845Y-93504959D01*
X158808073Y-93495731D01*
X158897042Y-93351492D01*
X158897047Y-93351481D01*
X158950355Y-93190606D01*
X158960499Y-93091322D01*
X158960500Y-93091309D01*
X158960500Y-93068000D01*
X157010501Y-93068000D01*
X157010501Y-93091322D01*
X157020644Y-93190607D01*
X157073952Y-93351481D01*
X157073957Y-93351492D01*
X157162924Y-93495728D01*
X157162927Y-93495732D01*
X157172160Y-93504965D01*
X157205645Y-93566288D01*
X157200661Y-93635980D01*
X157172163Y-93680324D01*
X157162533Y-93689953D01*
X157162529Y-93689959D01*
X157073501Y-93834294D01*
X157073496Y-93834305D01*
X157020151Y-93995290D01*
X157010000Y-94094647D01*
X157010000Y-94641337D01*
X157010001Y-94641355D01*
X157020150Y-94740707D01*
X157020151Y-94740710D01*
X157073496Y-94901694D01*
X157073501Y-94901705D01*
X157162529Y-95046040D01*
X157162532Y-95046044D01*
X157282456Y-95165968D01*
X157299094Y-95176230D01*
X157345820Y-95228177D01*
X157358000Y-95281770D01*
X157358000Y-96022000D01*
X157338315Y-96089039D01*
X157285511Y-96134794D01*
X157234000Y-96146000D01*
X149473500Y-96146000D01*
X149406461Y-96126315D01*
X149360706Y-96073511D01*
X149349500Y-96022000D01*
X149349500Y-94341041D01*
X149369185Y-94274002D01*
X149408403Y-94235503D01*
X149448578Y-94210721D01*
X149506544Y-94174968D01*
X149516168Y-94165343D01*
X149577487Y-94131856D01*
X149647179Y-94136835D01*
X149691534Y-94165339D01*
X149700767Y-94174572D01*
X149700771Y-94174575D01*
X149845007Y-94263542D01*
X149845018Y-94263547D01*
X150005893Y-94316855D01*
X150105183Y-94326999D01*
X150128500Y-94326998D01*
X150128500Y-93602000D01*
X150628500Y-93602000D01*
X150628500Y-94326999D01*
X150651808Y-94326999D01*
X150651822Y-94326998D01*
X150751107Y-94316855D01*
X150911981Y-94263547D01*
X150911992Y-94263542D01*
X151056228Y-94174575D01*
X151056232Y-94174572D01*
X151176072Y-94054732D01*
X151176075Y-94054728D01*
X151265042Y-93910492D01*
X151265047Y-93910481D01*
X151318355Y-93749606D01*
X151328499Y-93650322D01*
X151328500Y-93650309D01*
X151328500Y-93602000D01*
X150628500Y-93602000D01*
X150128500Y-93602000D01*
X150128500Y-92377000D01*
X150628500Y-92377000D01*
X150628500Y-93102000D01*
X151328499Y-93102000D01*
X151328499Y-93053692D01*
X151328498Y-93053677D01*
X151318355Y-92954392D01*
X151265047Y-92793518D01*
X151265042Y-92793507D01*
X151176075Y-92649271D01*
X151176072Y-92649267D01*
X151094805Y-92568000D01*
X157010500Y-92568000D01*
X157735500Y-92568000D01*
X157735500Y-91868000D01*
X158235500Y-91868000D01*
X158235500Y-92568000D01*
X158960499Y-92568000D01*
X158960499Y-92544692D01*
X158960498Y-92544677D01*
X158950355Y-92445392D01*
X158897047Y-92284518D01*
X158897042Y-92284507D01*
X158808075Y-92140271D01*
X158808072Y-92140267D01*
X158688232Y-92020427D01*
X158688228Y-92020424D01*
X158543992Y-91931457D01*
X158543981Y-91931452D01*
X158383106Y-91878144D01*
X158283822Y-91868000D01*
X158235500Y-91868000D01*
X157735500Y-91868000D01*
X157735499Y-91867999D01*
X157687193Y-91868000D01*
X157687175Y-91868001D01*
X157587892Y-91878144D01*
X157427018Y-91931452D01*
X157427007Y-91931457D01*
X157282771Y-92020424D01*
X157282767Y-92020427D01*
X157162927Y-92140267D01*
X157162924Y-92140271D01*
X157073957Y-92284507D01*
X157073952Y-92284518D01*
X157020644Y-92445393D01*
X157010500Y-92544677D01*
X157010500Y-92568000D01*
X151094805Y-92568000D01*
X151056232Y-92529427D01*
X151056228Y-92529424D01*
X150911992Y-92440457D01*
X150911981Y-92440452D01*
X150751106Y-92387144D01*
X150651822Y-92377000D01*
X150628500Y-92377000D01*
X150128500Y-92377000D01*
X150128500Y-92376999D01*
X150105193Y-92377000D01*
X150105174Y-92377001D01*
X150005892Y-92387144D01*
X149845018Y-92440452D01*
X149845007Y-92440457D01*
X149700771Y-92529424D01*
X149700765Y-92529428D01*
X149691531Y-92538663D01*
X149630207Y-92572146D01*
X149560515Y-92567159D01*
X149516172Y-92538660D01*
X149506543Y-92529031D01*
X149408402Y-92468496D01*
X149361678Y-92416548D01*
X149349500Y-92362958D01*
X149349500Y-88904000D01*
X149369185Y-88836961D01*
X149421989Y-88791206D01*
X149473500Y-88780000D01*
X159385500Y-88780000D01*
X159452539Y-88799685D01*
G37*
%TD.AperFunction*%
%TD*%
M02*
