%TF.GenerationSoftware,KiCad,Pcbnew,7.0.7*%
%TF.CreationDate,2024-03-26T08:25:24-07:00*%
%TF.ProjectId,Power-board,506f7765-722d-4626-9f61-72642e6b6963,rev?*%
%TF.SameCoordinates,Original*%
%TF.FileFunction,Soldermask,Bot*%
%TF.FilePolarity,Negative*%
%FSLAX46Y46*%
G04 Gerber Fmt 4.6, Leading zero omitted, Abs format (unit mm)*
G04 Created by KiCad (PCBNEW 7.0.7) date 2024-03-26 08:25:24*
%MOMM*%
%LPD*%
G01*
G04 APERTURE LIST*
G04 Aperture macros list*
%AMRoundRect*
0 Rectangle with rounded corners*
0 $1 Rounding radius*
0 $2 $3 $4 $5 $6 $7 $8 $9 X,Y pos of 4 corners*
0 Add a 4 corners polygon primitive as box body*
4,1,4,$2,$3,$4,$5,$6,$7,$8,$9,$2,$3,0*
0 Add four circle primitives for the rounded corners*
1,1,$1+$1,$2,$3*
1,1,$1+$1,$4,$5*
1,1,$1+$1,$6,$7*
1,1,$1+$1,$8,$9*
0 Add four rect primitives between the rounded corners*
20,1,$1+$1,$2,$3,$4,$5,0*
20,1,$1+$1,$4,$5,$6,$7,0*
20,1,$1+$1,$6,$7,$8,$9,0*
20,1,$1+$1,$8,$9,$2,$3,0*%
G04 Aperture macros list end*
%ADD10C,0.780000*%
%ADD11C,1.371600*%
%ADD12R,2.000000X0.900000*%
%ADD13RoundRect,1.025000X1.025000X-1.025000X1.025000X1.025000X-1.025000X1.025000X-1.025000X-1.025000X0*%
%ADD14C,4.100000*%
%ADD15C,10.160000*%
G04 APERTURE END LIST*
D10*
%TO.C,U3*%
X104588000Y-67788000D03*
X104588000Y-69088000D03*
X104588000Y-70488000D03*
X104588000Y-71788000D03*
X104588000Y-73088000D03*
X104588003Y-74488000D03*
X104588003Y-75788000D03*
X105888000Y-69088000D03*
X105888003Y-67788000D03*
X105888003Y-70488000D03*
X105888003Y-71788000D03*
X105888003Y-73088000D03*
X105888003Y-74488000D03*
X105888005Y-75788000D03*
X107188000Y-67788000D03*
X107188000Y-69088000D03*
X107188000Y-70488000D03*
X107188000Y-71788000D03*
X107188000Y-73088000D03*
X107188002Y-74488000D03*
X107188002Y-75788000D03*
%TD*%
D11*
%TO.C,J1*%
X70780000Y-69442100D03*
X72780000Y-69442100D03*
X70780000Y-71442100D03*
X72780000Y-71442100D03*
X70780000Y-73442100D03*
X72780000Y-73442100D03*
X70780000Y-75442100D03*
X72780000Y-75442100D03*
X70780000Y-77442100D03*
X72780000Y-77442100D03*
X70780000Y-79442100D03*
X72780000Y-79442100D03*
X70780000Y-81442100D03*
X72780000Y-81442100D03*
X70780000Y-83442100D03*
X72780000Y-83442100D03*
X70780000Y-85442100D03*
X72780000Y-85442100D03*
X70780000Y-87442100D03*
X72780000Y-87442100D03*
X70780000Y-89442100D03*
X72780000Y-89442100D03*
X70780000Y-91442100D03*
X72780000Y-91442100D03*
X70780000Y-93442100D03*
X72780000Y-93442100D03*
X70780000Y-95442100D03*
X72780000Y-95442100D03*
X70780000Y-97442100D03*
X72780000Y-97442100D03*
X70780000Y-99442100D03*
X72780000Y-99442100D03*
X70780000Y-101442000D03*
X72780000Y-101442000D03*
X70780000Y-103442000D03*
X72780000Y-103442000D03*
X70780000Y-105442000D03*
X72780000Y-105442000D03*
X70780000Y-107442000D03*
X72780000Y-107442000D03*
X172050000Y-67905269D03*
X174050000Y-67905269D03*
X172050000Y-69905269D03*
X174050000Y-69905269D03*
X172050000Y-71905269D03*
X174050000Y-71905269D03*
X172050000Y-73905269D03*
X174050000Y-73905269D03*
X172050000Y-75905169D03*
X174050000Y-75905169D03*
X172050000Y-77905169D03*
X174050000Y-77905169D03*
X172050000Y-79905169D03*
X174050000Y-79905169D03*
X172050000Y-81905169D03*
X174050000Y-81905169D03*
X172050000Y-83905169D03*
X174050000Y-83905169D03*
X172050000Y-85905169D03*
X174050000Y-85905169D03*
X172050000Y-87905169D03*
X174050000Y-87905169D03*
X172050000Y-89905169D03*
X174050000Y-89905169D03*
X172050000Y-91905169D03*
X174050000Y-91905169D03*
X172050000Y-93905169D03*
X174050000Y-93905169D03*
X172050000Y-95905169D03*
X174050000Y-95905169D03*
X172050000Y-97905169D03*
X174050000Y-97905169D03*
X172050000Y-99905169D03*
X174050000Y-99905169D03*
X172050000Y-101905169D03*
X174050000Y-101905169D03*
X172050000Y-103905169D03*
X174050000Y-103905169D03*
X172050000Y-105905169D03*
X174050000Y-105905169D03*
%TD*%
D10*
%TO.C,U2*%
X104557997Y-82390000D03*
X104557997Y-83690000D03*
X104557997Y-85090000D03*
X104557997Y-86390000D03*
X104557997Y-87690000D03*
X104558000Y-89090000D03*
X104558000Y-90390000D03*
X105857997Y-83690000D03*
X105858000Y-82390000D03*
X105858000Y-85090000D03*
X105858000Y-86390000D03*
X105858000Y-87690000D03*
X105858000Y-89090000D03*
X105858002Y-90390000D03*
X107157997Y-82390000D03*
X107157997Y-83690000D03*
X107157997Y-85090000D03*
X107157997Y-86390000D03*
X107157997Y-87690000D03*
X107157999Y-89090000D03*
X107157999Y-90390000D03*
%TD*%
D12*
%TO.C,J2*%
X147167600Y-62420400D03*
X147167600Y-48920400D03*
D13*
X153167600Y-52070400D03*
D14*
X153167600Y-59270400D03*
%TD*%
D15*
%TO.C,J5*%
X139350000Y-37782000D03*
X109380000Y-37782000D03*
%TD*%
M02*
