%TF.GenerationSoftware,KiCad,Pcbnew,7.0.7*%
%TF.CreationDate,2024-03-26T08:25:24-07:00*%
%TF.ProjectId,Power-board,506f7765-722d-4626-9f61-72642e6b6963,rev?*%
%TF.SameCoordinates,Original*%
%TF.FileFunction,Profile,NP*%
%FSLAX46Y46*%
G04 Gerber Fmt 4.6, Leading zero omitted, Abs format (unit mm)*
G04 Created by KiCad (PCBNEW 7.0.7) date 2024-03-26 08:25:24*
%MOMM*%
%LPD*%
G01*
G04 APERTURE LIST*
%TA.AperFunction,Profile*%
%ADD10C,0.250000*%
%TD*%
G04 APERTURE END LIST*
D10*
%TO.C,J1*%
X54314214Y-79527960D02*
G75*
G03*
X54314214Y-90080938I3052846J-5276489D01*
G01*
X60359293Y-98353029D02*
G75*
G03*
X54314214Y-90080939I-12405170J-2720595D01*
G01*
X54314214Y-79527959D02*
G75*
G03*
X60359293Y-71255869I-6360091J10992685D01*
G01*
X61861654Y-65648980D02*
G75*
G03*
X60359293Y-71255869I60274354J-19155183D01*
G01*
X61861653Y-65648980D02*
G75*
G03*
X60762507Y-55462601I-12103488J3846481D01*
G01*
X66038998Y-46323453D02*
G75*
G03*
X60762508Y-55462601I5596J-6095996D01*
G01*
X66038998Y-46323452D02*
G75*
G03*
X75410234Y-42182151I-11661J12699994D01*
G01*
X79514762Y-38077623D02*
G75*
G03*
X75410234Y-42182151I42622962J-46727490D01*
G01*
X60359294Y-98353029D02*
G75*
G03*
X79514762Y-131531275I61777764J13548578D01*
G01*
X83656063Y-140902511D02*
G75*
G03*
X79514762Y-131531275I-12699994J-11661D01*
G01*
X79514762Y-38077623D02*
G75*
G03*
X83656063Y-28706387I-8558693J9382897D01*
G01*
X92795212Y-23429897D02*
G75*
G03*
X83656064Y-28706387I-3043152J-5282086D01*
G01*
X83656064Y-140902511D02*
G75*
G03*
X92795212Y-146179001I6095996J5596D01*
G01*
X102981591Y-145079856D02*
G75*
G03*
X92795212Y-146179002I-3846481J-12103488D01*
G01*
X92795212Y-23429896D02*
G75*
G03*
X102981591Y-24529042I6339898J11004342D01*
G01*
X141292529Y-24529044D02*
G75*
G03*
X102981591Y-24529044I-19155469J-60275413D01*
G01*
X102981591Y-145079855D02*
G75*
G03*
X108588480Y-146582216I19155183J60274354D01*
G01*
X116860570Y-152627295D02*
G75*
G03*
X108588480Y-146582216I-10992685J-6360091D01*
G01*
X116860571Y-152627295D02*
G75*
G03*
X127413549Y-152627295I5276489J3052846D01*
G01*
X135685640Y-146582216D02*
G75*
G03*
X127413550Y-152627295I2720590J-12405163D01*
G01*
X135685640Y-146582215D02*
G75*
G03*
X141292529Y-145079854I-13548595J61777837D01*
G01*
X151478905Y-146179007D02*
G75*
G03*
X141292529Y-145079855I-6339905J-11004362D01*
G01*
X141292526Y-24529051D02*
G75*
G03*
X151478908Y-23429896I3846474J12103482D01*
G01*
X160618052Y-28706387D02*
G75*
G03*
X151478908Y-23429898I-6095992J-5592D01*
G01*
X151478907Y-146179002D02*
G75*
G03*
X160618056Y-140902511I3043183J5282033D01*
G01*
X164759359Y-131531276D02*
G75*
G03*
X160618057Y-140902511I8558591J-9382853D01*
G01*
X160618055Y-28706387D02*
G75*
G03*
X164759358Y-38077623I12700005J11668D01*
G01*
X168863886Y-42182151D02*
G75*
G03*
X164759358Y-38077623I-46727490J-42622962D01*
G01*
X168863887Y-42182150D02*
G75*
G03*
X178235122Y-46323452I9382853J8558591D01*
G01*
X183511693Y-55462648D02*
G75*
G03*
X178235122Y-46323453I-5282093J3043179D01*
G01*
X183511612Y-55462601D02*
G75*
G03*
X182412466Y-65648980I11004348J-6339898D01*
G01*
X183914826Y-71255869D02*
G75*
G03*
X182412465Y-65648980I-61777837J-13548595D01*
G01*
X164759358Y-131531275D02*
G75*
G03*
X183914826Y-98353029I-42622296J46726824D01*
G01*
X189959906Y-90080940D02*
G75*
G03*
X183914827Y-98353029I6360234J-10992789D01*
G01*
X183914825Y-71255869D02*
G75*
G03*
X189959906Y-79527959I12405175J2720600D01*
G01*
X189959906Y-90080938D02*
G75*
G03*
X189959906Y-79527960I-3052846J5276489D01*
G01*
X59272060Y-84804449D02*
G75*
G03*
X59272060Y-84804449I-1905000J0D01*
G01*
X67949595Y-52419449D02*
G75*
G03*
X67949595Y-52419449I-1905000J0D01*
G01*
X91657060Y-28711984D02*
G75*
G03*
X91657060Y-28711984I-1905000J0D01*
G01*
X91657060Y-140896914D02*
G75*
G03*
X91657060Y-140896914I-1905000J0D01*
G01*
X124042060Y-149574449D02*
G75*
G03*
X124042060Y-149574449I-1905000J0D01*
G01*
X156427060Y-28711984D02*
G75*
G03*
X156427060Y-28711984I-1905000J0D01*
G01*
X156427060Y-140896914D02*
G75*
G03*
X156427060Y-140896914I-1905000J0D01*
G01*
X180134525Y-52419449D02*
G75*
G03*
X180134525Y-52419449I-1905000J0D01*
G01*
X188812060Y-84804449D02*
G75*
G03*
X188812060Y-84804449I-1905000J0D01*
G01*
%TD*%
M02*
