M48
; DRILL file {KiCad 7.0.7} date 2024 March 26, Tuesday 08:25:07
; FORMAT={-:-/ absolute / inch / decimal}
; #@! TF.CreationDate,2024-03-26T08:25:07-07:00
; #@! TF.GenerationSoftware,Kicad,Pcbnew,7.0.7
; #@! TF.FileFunction,Plated,1,4,PTH
FMAT,2
INCH
; #@! TA.AperFunction,Plated,PTH,ComponentDrill
T1C0.0080
; #@! TA.AperFunction,Plated,PTH,ViaDrill
T2C0.0120
; #@! TA.AperFunction,Plated,PTH,ComponentDrill
T3C0.0236
; #@! TA.AperFunction,Plated,PTH,ComponentDrill
T4C0.0360
; #@! TA.AperFunction,Plated,PTH,ViaDrill
T5C0.0500
; #@! TA.AperFunction,Plated,PTH,ViaDrill
T6C0.0600
; #@! TA.AperFunction,Plated,PTH,ComponentDrill
T7C0.1063
; #@! TA.AperFunction,Plated,PTH,ComponentDrill
T8C0.2402
%
G90
G05
T1
X4.1165Y-3.2437
X4.1165Y-3.2949
X4.1165Y-3.35
X4.1165Y-3.4012
X4.1165Y-3.4524
X4.1165Y-3.5075
X4.1165Y-3.5587
X4.1176Y-2.6688
X4.1176Y-2.72
X4.1176Y-2.7751
X4.1176Y-2.8263
X4.1176Y-2.8775
X4.1176Y-2.9326
X4.1176Y-2.9838
X4.1676Y-3.2949
X4.1676Y-3.2437
X4.1676Y-3.35
X4.1676Y-3.4012
X4.1676Y-3.4524
X4.1676Y-3.5075
X4.1676Y-3.5587
X4.1688Y-2.72
X4.1688Y-2.6688
X4.1688Y-2.7751
X4.1688Y-2.8263
X4.1688Y-2.8775
X4.1688Y-2.9326
X4.1688Y-2.9838
X4.2188Y-3.2437
X4.2188Y-3.2949
X4.2188Y-3.35
X4.2188Y-3.4012
X4.2188Y-3.4524
X4.2188Y-3.5075
X4.2188Y-3.5587
X4.22Y-2.6688
X4.22Y-2.72
X4.22Y-2.7751
X4.22Y-2.8263
X4.22Y-2.8775
X4.22Y-2.9326
X4.22Y-2.9838
T2
X2.6909Y-3.0787
X2.6998Y-3.7116
X2.7008Y-3.2402
X2.9488Y-3.5571
X2.9528Y-3.3976
X2.9626Y-2.8386
X2.995Y-3.255
X3.061Y-3.7815
X3.126Y-2.8209
X3.1413Y-3.8134
X3.1417Y-3.2303
X3.17Y-3.29
X3.17Y-3.45
X3.2185Y-3.7854
X3.311Y-2.6693
X3.311Y-3.1069
X3.5945Y-3.0197
X3.6161Y-3.4724
X3.7069Y-3.03
X3.71Y-2.91
X3.74Y-2.83
X3.7427Y-3.03
X3.75Y-2.67
X3.78Y-3.03
X3.99Y-2.6169
X4.05Y-3.1869
X4.31Y-3.16
X4.3458Y-3.26
X4.38Y-2.8
X4.38Y-2.854
X4.4Y-3.11
X4.42Y-3.38
X4.42Y-3.42
X4.47Y-3.4
X4.51Y-2.6667
X4.51Y-2.856
X4.51Y-2.95
X4.51Y-3.63
X4.516Y-2.798
X4.52Y-3.38
X4.52Y-3.42
X4.5327Y-3.1667
X4.59Y-3.45
X4.61Y-2.83
X4.61Y-3.11
X4.68Y-3.23
X4.68Y-3.3159
X4.69Y-3.48
X4.69Y-3.57
X4.7Y-2.66
X4.7Y-2.73
X4.7Y-2.92
X4.7Y-2.99
X4.8127Y-3.53
X4.84Y-2.695
X4.84Y-2.78
X4.84Y-2.87
X4.84Y-2.96
X4.98Y-3.24
X4.98Y-3.36
X4.98Y-3.49
X4.98Y-3.62
X5.23Y-2.7
X5.23Y-2.785
X5.235Y-2.87
X5.235Y-2.965
X5.3873Y-3.0716
X5.3873Y-3.6816
X5.3973Y-3.3216
X5.3973Y-3.4516
X5.68Y-2.98
X5.7964Y-3.7028
X5.9423Y-3.3227
X6.1412Y-3.9172
X6.3999Y-4.1448
X6.68Y-2.76
X6.68Y-2.99
T4
X2.7866Y-2.7339
X2.7866Y-2.8127
X2.7866Y-2.8914
X2.7866Y-2.9702
X2.7866Y-3.0489
X2.7866Y-3.1276
X2.7866Y-3.2064
X2.7866Y-3.2851
X2.7866Y-3.3639
X2.7866Y-3.4426
X2.7866Y-3.5213
X2.7866Y-3.6001
X2.7866Y-3.6788
X2.7866Y-3.7576
X2.7866Y-3.8363
X2.7866Y-3.915
X2.7866Y-3.9938
X2.7866Y-4.0725
X2.7866Y-4.1513
X2.7866Y-4.23
X2.8654Y-2.7339
X2.8654Y-2.8127
X2.8654Y-2.8914
X2.8654Y-2.9702
X2.8654Y-3.0489
X2.8654Y-3.1276
X2.8654Y-3.2064
X2.8654Y-3.2851
X2.8654Y-3.3639
X2.8654Y-3.4426
X2.8654Y-3.5213
X2.8654Y-3.6001
X2.8654Y-3.6788
X2.8654Y-3.7576
X2.8654Y-3.8363
X2.8654Y-3.915
X2.8654Y-3.9938
X2.8654Y-4.0725
X2.8654Y-4.1513
X2.8654Y-4.23
X6.7736Y-2.6734
X6.7736Y-2.7522
X6.7736Y-2.8309
X6.7736Y-2.9097
X6.7736Y-2.9884
X6.7736Y-3.0671
X6.7736Y-3.1459
X6.7736Y-3.2246
X6.7736Y-3.3034
X6.7736Y-3.3821
X6.7736Y-3.4608
X6.7736Y-3.5396
X6.7736Y-3.6183
X6.7736Y-3.6971
X6.7736Y-3.7758
X6.7736Y-3.8545
X6.7736Y-3.9333
X6.7736Y-4.012
X6.7736Y-4.0908
X6.7736Y-4.1695
X6.8524Y-2.6734
X6.8524Y-2.7522
X6.8524Y-2.8309
X6.8524Y-2.9097
X6.8524Y-2.9884
X6.8524Y-3.0671
X6.8524Y-3.1459
X6.8524Y-3.2246
X6.8524Y-3.3034
X6.8524Y-3.3821
X6.8524Y-3.4608
X6.8524Y-3.5396
X6.8524Y-3.6183
X6.8524Y-3.6971
X6.8524Y-3.7758
X6.8524Y-3.8545
X6.8524Y-3.9333
X6.8524Y-4.012
X6.8524Y-4.0908
X6.8524Y-4.1695
T5
X6.0859Y-3.0953
X6.394Y-2.15
T6
X3.08Y-2.96
X3.24Y-2.96
X3.27Y-3.36
X3.28Y-3.51
X3.39Y-3.43
X5.98Y-3.58
X6.07Y-3.71
X6.15Y-3.58
X6.56Y-3.9
X6.59Y-3.73
T7
X6.0302Y-2.05
X6.0302Y-2.3335
T8
X4.3063Y-1.4875
X5.4862Y-1.4875
T3
G00X5.7723Y-1.926
M15
G01X5.8157Y-1.926
M16
G05
G00X5.7723Y-2.4575
M15
G01X5.8157Y-2.4575
M16
G05
T0
M30
