%TF.GenerationSoftware,KiCad,Pcbnew,7.0.7*%
%TF.CreationDate,2024-03-26T08:25:24-07:00*%
%TF.ProjectId,Power-board,506f7765-722d-4626-9f61-72642e6b6963,rev?*%
%TF.SameCoordinates,Original*%
%TF.FileFunction,Legend,Top*%
%TF.FilePolarity,Positive*%
%FSLAX46Y46*%
G04 Gerber Fmt 4.6, Leading zero omitted, Abs format (unit mm)*
G04 Created by KiCad (PCBNEW 7.0.7) date 2024-03-26 08:25:24*
%MOMM*%
%LPD*%
G01*
G04 APERTURE LIST*
%ADD10C,0.150000*%
%ADD11C,0.254000*%
%ADD12C,0.084375*%
%ADD13C,0.120000*%
%ADD14C,0.152400*%
%ADD15C,0.010000*%
%ADD16C,0.200000*%
%ADD17C,0.100000*%
%ADD18C,0.127000*%
G04 APERTURE END LIST*
D10*
X116078000Y-109474000D02*
X129794000Y-109474000D01*
X129794000Y-127762000D01*
X116078000Y-127762000D01*
X116078000Y-109474000D01*
D11*
X138323484Y-93851369D02*
X138323484Y-92581369D01*
X138323484Y-92581369D02*
X138807294Y-92581369D01*
X138807294Y-92581369D02*
X138928246Y-92641845D01*
X138928246Y-92641845D02*
X138988723Y-92702321D01*
X138988723Y-92702321D02*
X139049199Y-92823273D01*
X139049199Y-92823273D02*
X139049199Y-93004702D01*
X139049199Y-93004702D02*
X138988723Y-93125654D01*
X138988723Y-93125654D02*
X138928246Y-93186131D01*
X138928246Y-93186131D02*
X138807294Y-93246607D01*
X138807294Y-93246607D02*
X138323484Y-93246607D01*
X139472532Y-93004702D02*
X139774913Y-93851369D01*
X140077294Y-93004702D02*
X139774913Y-93851369D01*
X139774913Y-93851369D02*
X139653961Y-94153750D01*
X139653961Y-94153750D02*
X139593484Y-94214226D01*
X139593484Y-94214226D02*
X139472532Y-94274702D01*
X140561103Y-93851369D02*
X140561103Y-93004702D01*
X140561103Y-93246607D02*
X140621580Y-93125654D01*
X140621580Y-93125654D02*
X140682056Y-93065178D01*
X140682056Y-93065178D02*
X140803008Y-93004702D01*
X140803008Y-93004702D02*
X140923961Y-93004702D01*
X141528722Y-93851369D02*
X141407770Y-93790893D01*
X141407770Y-93790893D02*
X141347293Y-93730416D01*
X141347293Y-93730416D02*
X141286817Y-93609464D01*
X141286817Y-93609464D02*
X141286817Y-93246607D01*
X141286817Y-93246607D02*
X141347293Y-93125654D01*
X141347293Y-93125654D02*
X141407770Y-93065178D01*
X141407770Y-93065178D02*
X141528722Y-93004702D01*
X141528722Y-93004702D02*
X141710151Y-93004702D01*
X141710151Y-93004702D02*
X141831103Y-93065178D01*
X141831103Y-93065178D02*
X141891579Y-93125654D01*
X141891579Y-93125654D02*
X141952055Y-93246607D01*
X141952055Y-93246607D02*
X141952055Y-93609464D01*
X141952055Y-93609464D02*
X141891579Y-93730416D01*
X141891579Y-93730416D02*
X141831103Y-93790893D01*
X141831103Y-93790893D02*
X141710151Y-93851369D01*
X141710151Y-93851369D02*
X141528722Y-93851369D01*
X143947770Y-93790893D02*
X143826818Y-93851369D01*
X143826818Y-93851369D02*
X143584913Y-93851369D01*
X143584913Y-93851369D02*
X143463960Y-93790893D01*
X143463960Y-93790893D02*
X143403484Y-93669940D01*
X143403484Y-93669940D02*
X143403484Y-93186131D01*
X143403484Y-93186131D02*
X143463960Y-93065178D01*
X143463960Y-93065178D02*
X143584913Y-93004702D01*
X143584913Y-93004702D02*
X143826818Y-93004702D01*
X143826818Y-93004702D02*
X143947770Y-93065178D01*
X143947770Y-93065178D02*
X144008246Y-93186131D01*
X144008246Y-93186131D02*
X144008246Y-93307083D01*
X144008246Y-93307083D02*
X143403484Y-93428035D01*
X144431579Y-93851369D02*
X145096817Y-93004702D01*
X144431579Y-93004702D02*
X145096817Y-93851369D01*
D10*
X109093048Y-45031866D02*
X109854953Y-45031866D01*
D11*
X138323484Y-87598131D02*
X138746818Y-87598131D01*
X138928246Y-88263369D02*
X138323484Y-88263369D01*
X138323484Y-88263369D02*
X138323484Y-86993369D01*
X138323484Y-86993369D02*
X138928246Y-86993369D01*
X139291104Y-86993369D02*
X140016818Y-86993369D01*
X139653961Y-88263369D02*
X139653961Y-86993369D01*
X140440151Y-88263369D02*
X140440151Y-86993369D01*
X140440151Y-87598131D02*
X141165866Y-87598131D01*
X141165866Y-88263369D02*
X141165866Y-86993369D01*
X142738246Y-88263369D02*
X142738246Y-86993369D01*
X142738246Y-86993369D02*
X143161580Y-87900512D01*
X143161580Y-87900512D02*
X143584913Y-86993369D01*
X143584913Y-86993369D02*
X143584913Y-88263369D01*
X144733961Y-88263369D02*
X144733961Y-87598131D01*
X144733961Y-87598131D02*
X144673485Y-87477178D01*
X144673485Y-87477178D02*
X144552533Y-87416702D01*
X144552533Y-87416702D02*
X144310628Y-87416702D01*
X144310628Y-87416702D02*
X144189675Y-87477178D01*
X144733961Y-88202893D02*
X144613009Y-88263369D01*
X144613009Y-88263369D02*
X144310628Y-88263369D01*
X144310628Y-88263369D02*
X144189675Y-88202893D01*
X144189675Y-88202893D02*
X144129199Y-88081940D01*
X144129199Y-88081940D02*
X144129199Y-87960988D01*
X144129199Y-87960988D02*
X144189675Y-87840035D01*
X144189675Y-87840035D02*
X144310628Y-87779559D01*
X144310628Y-87779559D02*
X144613009Y-87779559D01*
X144613009Y-87779559D02*
X144733961Y-87719083D01*
X145338723Y-88263369D02*
X145338723Y-87416702D01*
X145338723Y-86993369D02*
X145278247Y-87053845D01*
X145278247Y-87053845D02*
X145338723Y-87114321D01*
X145338723Y-87114321D02*
X145399200Y-87053845D01*
X145399200Y-87053845D02*
X145338723Y-86993369D01*
X145338723Y-86993369D02*
X145338723Y-87114321D01*
X145943485Y-87416702D02*
X145943485Y-88263369D01*
X145943485Y-87537654D02*
X146003962Y-87477178D01*
X146003962Y-87477178D02*
X146124914Y-87416702D01*
X146124914Y-87416702D02*
X146306343Y-87416702D01*
X146306343Y-87416702D02*
X146427295Y-87477178D01*
X146427295Y-87477178D02*
X146487771Y-87598131D01*
X146487771Y-87598131D02*
X146487771Y-88263369D01*
D10*
X117084323Y-120831188D02*
X116660989Y-120831188D01*
X116660989Y-121496426D02*
X116660989Y-120226426D01*
X116660989Y-120226426D02*
X117265751Y-120226426D01*
X117930989Y-121496426D02*
X117810037Y-121435950D01*
X117810037Y-121435950D02*
X117749560Y-121314997D01*
X117749560Y-121314997D02*
X117749560Y-120226426D01*
X118414798Y-121496426D02*
X118414798Y-120649759D01*
X118414798Y-120226426D02*
X118354322Y-120286902D01*
X118354322Y-120286902D02*
X118414798Y-120347378D01*
X118414798Y-120347378D02*
X118475275Y-120286902D01*
X118475275Y-120286902D02*
X118414798Y-120226426D01*
X118414798Y-120226426D02*
X118414798Y-120347378D01*
X119563846Y-120649759D02*
X119563846Y-121677854D01*
X119563846Y-121677854D02*
X119503370Y-121798807D01*
X119503370Y-121798807D02*
X119442894Y-121859283D01*
X119442894Y-121859283D02*
X119321941Y-121919759D01*
X119321941Y-121919759D02*
X119140513Y-121919759D01*
X119140513Y-121919759D02*
X119019560Y-121859283D01*
X119563846Y-121435950D02*
X119442894Y-121496426D01*
X119442894Y-121496426D02*
X119200989Y-121496426D01*
X119200989Y-121496426D02*
X119080037Y-121435950D01*
X119080037Y-121435950D02*
X119019560Y-121375473D01*
X119019560Y-121375473D02*
X118959084Y-121254521D01*
X118959084Y-121254521D02*
X118959084Y-120891664D01*
X118959084Y-120891664D02*
X119019560Y-120770711D01*
X119019560Y-120770711D02*
X119080037Y-120710235D01*
X119080037Y-120710235D02*
X119200989Y-120649759D01*
X119200989Y-120649759D02*
X119442894Y-120649759D01*
X119442894Y-120649759D02*
X119563846Y-120710235D01*
X120168608Y-121496426D02*
X120168608Y-120226426D01*
X120712894Y-121496426D02*
X120712894Y-120831188D01*
X120712894Y-120831188D02*
X120652418Y-120710235D01*
X120652418Y-120710235D02*
X120531466Y-120649759D01*
X120531466Y-120649759D02*
X120350037Y-120649759D01*
X120350037Y-120649759D02*
X120229085Y-120710235D01*
X120229085Y-120710235D02*
X120168608Y-120770711D01*
X121136228Y-120649759D02*
X121620037Y-120649759D01*
X121317656Y-120226426D02*
X121317656Y-121314997D01*
X121317656Y-121314997D02*
X121378133Y-121435950D01*
X121378133Y-121435950D02*
X121499085Y-121496426D01*
X121499085Y-121496426D02*
X121620037Y-121496426D01*
X123010989Y-121496426D02*
X123010989Y-120226426D01*
X123010989Y-120226426D02*
X123434323Y-121133569D01*
X123434323Y-121133569D02*
X123857656Y-120226426D01*
X123857656Y-120226426D02*
X123857656Y-121496426D01*
X124643847Y-121496426D02*
X124522895Y-121435950D01*
X124522895Y-121435950D02*
X124462418Y-121375473D01*
X124462418Y-121375473D02*
X124401942Y-121254521D01*
X124401942Y-121254521D02*
X124401942Y-120891664D01*
X124401942Y-120891664D02*
X124462418Y-120770711D01*
X124462418Y-120770711D02*
X124522895Y-120710235D01*
X124522895Y-120710235D02*
X124643847Y-120649759D01*
X124643847Y-120649759D02*
X124825276Y-120649759D01*
X124825276Y-120649759D02*
X124946228Y-120710235D01*
X124946228Y-120710235D02*
X125006704Y-120770711D01*
X125006704Y-120770711D02*
X125067180Y-120891664D01*
X125067180Y-120891664D02*
X125067180Y-121254521D01*
X125067180Y-121254521D02*
X125006704Y-121375473D01*
X125006704Y-121375473D02*
X124946228Y-121435950D01*
X124946228Y-121435950D02*
X124825276Y-121496426D01*
X124825276Y-121496426D02*
X124643847Y-121496426D01*
X126155752Y-121496426D02*
X126155752Y-120226426D01*
X126155752Y-121435950D02*
X126034800Y-121496426D01*
X126034800Y-121496426D02*
X125792895Y-121496426D01*
X125792895Y-121496426D02*
X125671943Y-121435950D01*
X125671943Y-121435950D02*
X125611466Y-121375473D01*
X125611466Y-121375473D02*
X125550990Y-121254521D01*
X125550990Y-121254521D02*
X125550990Y-120891664D01*
X125550990Y-120891664D02*
X125611466Y-120770711D01*
X125611466Y-120770711D02*
X125671943Y-120710235D01*
X125671943Y-120710235D02*
X125792895Y-120649759D01*
X125792895Y-120649759D02*
X126034800Y-120649759D01*
X126034800Y-120649759D02*
X126155752Y-120710235D01*
X127304800Y-120649759D02*
X127304800Y-121496426D01*
X126760514Y-120649759D02*
X126760514Y-121314997D01*
X126760514Y-121314997D02*
X126820991Y-121435950D01*
X126820991Y-121435950D02*
X126941943Y-121496426D01*
X126941943Y-121496426D02*
X127123372Y-121496426D01*
X127123372Y-121496426D02*
X127244324Y-121435950D01*
X127244324Y-121435950D02*
X127304800Y-121375473D01*
X128090991Y-121496426D02*
X127970039Y-121435950D01*
X127970039Y-121435950D02*
X127909562Y-121314997D01*
X127909562Y-121314997D02*
X127909562Y-120226426D01*
X129058610Y-121435950D02*
X128937658Y-121496426D01*
X128937658Y-121496426D02*
X128695753Y-121496426D01*
X128695753Y-121496426D02*
X128574800Y-121435950D01*
X128574800Y-121435950D02*
X128514324Y-121314997D01*
X128514324Y-121314997D02*
X128514324Y-120831188D01*
X128514324Y-120831188D02*
X128574800Y-120710235D01*
X128574800Y-120710235D02*
X128695753Y-120649759D01*
X128695753Y-120649759D02*
X128937658Y-120649759D01*
X128937658Y-120649759D02*
X129058610Y-120710235D01*
X129058610Y-120710235D02*
X129119086Y-120831188D01*
X129119086Y-120831188D02*
X129119086Y-120952140D01*
X129119086Y-120952140D02*
X128514324Y-121073092D01*
X117114561Y-123541126D02*
X117114561Y-122271126D01*
X117114561Y-122271126D02*
X117598371Y-122271126D01*
X117598371Y-122271126D02*
X117719323Y-122331602D01*
X117719323Y-122331602D02*
X117779800Y-122392078D01*
X117779800Y-122392078D02*
X117840276Y-122513030D01*
X117840276Y-122513030D02*
X117840276Y-122694459D01*
X117840276Y-122694459D02*
X117779800Y-122815411D01*
X117779800Y-122815411D02*
X117719323Y-122875888D01*
X117719323Y-122875888D02*
X117598371Y-122936364D01*
X117598371Y-122936364D02*
X117114561Y-122936364D01*
X118565990Y-123541126D02*
X118445038Y-123480650D01*
X118445038Y-123480650D02*
X118384561Y-123420173D01*
X118384561Y-123420173D02*
X118324085Y-123299221D01*
X118324085Y-123299221D02*
X118324085Y-122936364D01*
X118324085Y-122936364D02*
X118384561Y-122815411D01*
X118384561Y-122815411D02*
X118445038Y-122754935D01*
X118445038Y-122754935D02*
X118565990Y-122694459D01*
X118565990Y-122694459D02*
X118747419Y-122694459D01*
X118747419Y-122694459D02*
X118868371Y-122754935D01*
X118868371Y-122754935D02*
X118928847Y-122815411D01*
X118928847Y-122815411D02*
X118989323Y-122936364D01*
X118989323Y-122936364D02*
X118989323Y-123299221D01*
X118989323Y-123299221D02*
X118928847Y-123420173D01*
X118928847Y-123420173D02*
X118868371Y-123480650D01*
X118868371Y-123480650D02*
X118747419Y-123541126D01*
X118747419Y-123541126D02*
X118565990Y-123541126D01*
X119412657Y-122694459D02*
X119654562Y-123541126D01*
X119654562Y-123541126D02*
X119896467Y-122936364D01*
X119896467Y-122936364D02*
X120138371Y-123541126D01*
X120138371Y-123541126D02*
X120380276Y-122694459D01*
X121347895Y-123480650D02*
X121226943Y-123541126D01*
X121226943Y-123541126D02*
X120985038Y-123541126D01*
X120985038Y-123541126D02*
X120864085Y-123480650D01*
X120864085Y-123480650D02*
X120803609Y-123359697D01*
X120803609Y-123359697D02*
X120803609Y-122875888D01*
X120803609Y-122875888D02*
X120864085Y-122754935D01*
X120864085Y-122754935D02*
X120985038Y-122694459D01*
X120985038Y-122694459D02*
X121226943Y-122694459D01*
X121226943Y-122694459D02*
X121347895Y-122754935D01*
X121347895Y-122754935D02*
X121408371Y-122875888D01*
X121408371Y-122875888D02*
X121408371Y-122996840D01*
X121408371Y-122996840D02*
X120803609Y-123117792D01*
X121952656Y-123541126D02*
X121952656Y-122694459D01*
X121952656Y-122936364D02*
X122013133Y-122815411D01*
X122013133Y-122815411D02*
X122073609Y-122754935D01*
X122073609Y-122754935D02*
X122194561Y-122694459D01*
X122194561Y-122694459D02*
X122315514Y-122694459D01*
X124129799Y-122875888D02*
X124311227Y-122936364D01*
X124311227Y-122936364D02*
X124371704Y-122996840D01*
X124371704Y-122996840D02*
X124432180Y-123117792D01*
X124432180Y-123117792D02*
X124432180Y-123299221D01*
X124432180Y-123299221D02*
X124371704Y-123420173D01*
X124371704Y-123420173D02*
X124311227Y-123480650D01*
X124311227Y-123480650D02*
X124190275Y-123541126D01*
X124190275Y-123541126D02*
X123706465Y-123541126D01*
X123706465Y-123541126D02*
X123706465Y-122271126D01*
X123706465Y-122271126D02*
X124129799Y-122271126D01*
X124129799Y-122271126D02*
X124250751Y-122331602D01*
X124250751Y-122331602D02*
X124311227Y-122392078D01*
X124311227Y-122392078D02*
X124371704Y-122513030D01*
X124371704Y-122513030D02*
X124371704Y-122633983D01*
X124371704Y-122633983D02*
X124311227Y-122754935D01*
X124311227Y-122754935D02*
X124250751Y-122815411D01*
X124250751Y-122815411D02*
X124129799Y-122875888D01*
X124129799Y-122875888D02*
X123706465Y-122875888D01*
X125157894Y-123541126D02*
X125036942Y-123480650D01*
X125036942Y-123480650D02*
X124976465Y-123420173D01*
X124976465Y-123420173D02*
X124915989Y-123299221D01*
X124915989Y-123299221D02*
X124915989Y-122936364D01*
X124915989Y-122936364D02*
X124976465Y-122815411D01*
X124976465Y-122815411D02*
X125036942Y-122754935D01*
X125036942Y-122754935D02*
X125157894Y-122694459D01*
X125157894Y-122694459D02*
X125339323Y-122694459D01*
X125339323Y-122694459D02*
X125460275Y-122754935D01*
X125460275Y-122754935D02*
X125520751Y-122815411D01*
X125520751Y-122815411D02*
X125581227Y-122936364D01*
X125581227Y-122936364D02*
X125581227Y-123299221D01*
X125581227Y-123299221D02*
X125520751Y-123420173D01*
X125520751Y-123420173D02*
X125460275Y-123480650D01*
X125460275Y-123480650D02*
X125339323Y-123541126D01*
X125339323Y-123541126D02*
X125157894Y-123541126D01*
X126669799Y-123541126D02*
X126669799Y-122875888D01*
X126669799Y-122875888D02*
X126609323Y-122754935D01*
X126609323Y-122754935D02*
X126488371Y-122694459D01*
X126488371Y-122694459D02*
X126246466Y-122694459D01*
X126246466Y-122694459D02*
X126125513Y-122754935D01*
X126669799Y-123480650D02*
X126548847Y-123541126D01*
X126548847Y-123541126D02*
X126246466Y-123541126D01*
X126246466Y-123541126D02*
X126125513Y-123480650D01*
X126125513Y-123480650D02*
X126065037Y-123359697D01*
X126065037Y-123359697D02*
X126065037Y-123238745D01*
X126065037Y-123238745D02*
X126125513Y-123117792D01*
X126125513Y-123117792D02*
X126246466Y-123057316D01*
X126246466Y-123057316D02*
X126548847Y-123057316D01*
X126548847Y-123057316D02*
X126669799Y-122996840D01*
X127274561Y-123541126D02*
X127274561Y-122694459D01*
X127274561Y-122936364D02*
X127335038Y-122815411D01*
X127335038Y-122815411D02*
X127395514Y-122754935D01*
X127395514Y-122754935D02*
X127516466Y-122694459D01*
X127516466Y-122694459D02*
X127637419Y-122694459D01*
X128605037Y-123541126D02*
X128605037Y-122271126D01*
X128605037Y-123480650D02*
X128484085Y-123541126D01*
X128484085Y-123541126D02*
X128242180Y-123541126D01*
X128242180Y-123541126D02*
X128121228Y-123480650D01*
X128121228Y-123480650D02*
X128060751Y-123420173D01*
X128060751Y-123420173D02*
X128000275Y-123299221D01*
X128000275Y-123299221D02*
X128000275Y-122936364D01*
X128000275Y-122936364D02*
X128060751Y-122815411D01*
X128060751Y-122815411D02*
X128121228Y-122754935D01*
X128121228Y-122754935D02*
X128242180Y-122694459D01*
X128242180Y-122694459D02*
X128484085Y-122694459D01*
X128484085Y-122694459D02*
X128605037Y-122754935D01*
X121831705Y-124315826D02*
X122255038Y-125585826D01*
X122255038Y-125585826D02*
X122678372Y-124315826D01*
X123041228Y-124436778D02*
X123101704Y-124376302D01*
X123101704Y-124376302D02*
X123222657Y-124315826D01*
X123222657Y-124315826D02*
X123525038Y-124315826D01*
X123525038Y-124315826D02*
X123645990Y-124376302D01*
X123645990Y-124376302D02*
X123706466Y-124436778D01*
X123706466Y-124436778D02*
X123766943Y-124557730D01*
X123766943Y-124557730D02*
X123766943Y-124678683D01*
X123766943Y-124678683D02*
X123706466Y-124860111D01*
X123706466Y-124860111D02*
X122980752Y-125585826D01*
X122980752Y-125585826D02*
X123766943Y-125585826D01*
D11*
X138323484Y-84296131D02*
X138746818Y-84296131D01*
X138928246Y-84961369D02*
X138323484Y-84961369D01*
X138323484Y-84961369D02*
X138323484Y-83691369D01*
X138323484Y-83691369D02*
X138928246Y-83691369D01*
X139291104Y-83691369D02*
X140016818Y-83691369D01*
X139653961Y-84961369D02*
X139653961Y-83691369D01*
X140440151Y-84961369D02*
X140440151Y-83691369D01*
X140440151Y-84296131D02*
X141165866Y-84296131D01*
X141165866Y-84961369D02*
X141165866Y-83691369D01*
X142556818Y-83691369D02*
X142980151Y-84961369D01*
X142980151Y-84961369D02*
X143403485Y-83691369D01*
X144310627Y-84900893D02*
X144189675Y-84961369D01*
X144189675Y-84961369D02*
X143947770Y-84961369D01*
X143947770Y-84961369D02*
X143826817Y-84900893D01*
X143826817Y-84900893D02*
X143766341Y-84779940D01*
X143766341Y-84779940D02*
X143766341Y-84296131D01*
X143766341Y-84296131D02*
X143826817Y-84175178D01*
X143826817Y-84175178D02*
X143947770Y-84114702D01*
X143947770Y-84114702D02*
X144189675Y-84114702D01*
X144189675Y-84114702D02*
X144310627Y-84175178D01*
X144310627Y-84175178D02*
X144371103Y-84296131D01*
X144371103Y-84296131D02*
X144371103Y-84417083D01*
X144371103Y-84417083D02*
X143766341Y-84538035D01*
X144915388Y-84114702D02*
X144915388Y-84961369D01*
X144915388Y-84235654D02*
X144975865Y-84175178D01*
X144975865Y-84175178D02*
X145096817Y-84114702D01*
X145096817Y-84114702D02*
X145278246Y-84114702D01*
X145278246Y-84114702D02*
X145399198Y-84175178D01*
X145399198Y-84175178D02*
X145459674Y-84296131D01*
X145459674Y-84296131D02*
X145459674Y-84961369D01*
X145883008Y-84114702D02*
X146366817Y-84114702D01*
X146064436Y-83691369D02*
X146064436Y-84779940D01*
X146064436Y-84779940D02*
X146124913Y-84900893D01*
X146124913Y-84900893D02*
X146245865Y-84961369D01*
X146245865Y-84961369D02*
X146366817Y-84961369D01*
D10*
X139128571Y-45072700D02*
X140271429Y-45072700D01*
X139700000Y-45644128D02*
X139700000Y-44501271D01*
D11*
X138928246Y-78865369D02*
X138323484Y-78865369D01*
X138323484Y-78865369D02*
X138323484Y-77595369D01*
X139593484Y-77595369D02*
X139835389Y-77595369D01*
X139835389Y-77595369D02*
X139956341Y-77655845D01*
X139956341Y-77655845D02*
X140077294Y-77776797D01*
X140077294Y-77776797D02*
X140137770Y-78018702D01*
X140137770Y-78018702D02*
X140137770Y-78442035D01*
X140137770Y-78442035D02*
X140077294Y-78683940D01*
X140077294Y-78683940D02*
X139956341Y-78804893D01*
X139956341Y-78804893D02*
X139835389Y-78865369D01*
X139835389Y-78865369D02*
X139593484Y-78865369D01*
X139593484Y-78865369D02*
X139472532Y-78804893D01*
X139472532Y-78804893D02*
X139351579Y-78683940D01*
X139351579Y-78683940D02*
X139291103Y-78442035D01*
X139291103Y-78442035D02*
X139291103Y-78018702D01*
X139291103Y-78018702D02*
X139351579Y-77776797D01*
X139351579Y-77776797D02*
X139472532Y-77655845D01*
X139472532Y-77655845D02*
X139593484Y-77595369D01*
X140561103Y-77595369D02*
X141407770Y-78865369D01*
X141407770Y-77595369D02*
X140561103Y-78865369D01*
X142677770Y-77595369D02*
X143101103Y-78865369D01*
X143101103Y-78865369D02*
X143524437Y-77595369D01*
X144431579Y-78804893D02*
X144310627Y-78865369D01*
X144310627Y-78865369D02*
X144068722Y-78865369D01*
X144068722Y-78865369D02*
X143947769Y-78804893D01*
X143947769Y-78804893D02*
X143887293Y-78683940D01*
X143887293Y-78683940D02*
X143887293Y-78200131D01*
X143887293Y-78200131D02*
X143947769Y-78079178D01*
X143947769Y-78079178D02*
X144068722Y-78018702D01*
X144068722Y-78018702D02*
X144310627Y-78018702D01*
X144310627Y-78018702D02*
X144431579Y-78079178D01*
X144431579Y-78079178D02*
X144492055Y-78200131D01*
X144492055Y-78200131D02*
X144492055Y-78321083D01*
X144492055Y-78321083D02*
X143887293Y-78442035D01*
X145036340Y-78018702D02*
X145036340Y-78865369D01*
X145036340Y-78139654D02*
X145096817Y-78079178D01*
X145096817Y-78079178D02*
X145217769Y-78018702D01*
X145217769Y-78018702D02*
X145399198Y-78018702D01*
X145399198Y-78018702D02*
X145520150Y-78079178D01*
X145520150Y-78079178D02*
X145580626Y-78200131D01*
X145580626Y-78200131D02*
X145580626Y-78865369D01*
X146003960Y-78018702D02*
X146487769Y-78018702D01*
X146185388Y-77595369D02*
X146185388Y-78683940D01*
X146185388Y-78683940D02*
X146245865Y-78804893D01*
X146245865Y-78804893D02*
X146366817Y-78865369D01*
X146366817Y-78865369D02*
X146487769Y-78865369D01*
D10*
X124516142Y-89956819D02*
X124182809Y-89480628D01*
X123944714Y-89956819D02*
X123944714Y-88956819D01*
X123944714Y-88956819D02*
X124325666Y-88956819D01*
X124325666Y-88956819D02*
X124420904Y-89004438D01*
X124420904Y-89004438D02*
X124468523Y-89052057D01*
X124468523Y-89052057D02*
X124516142Y-89147295D01*
X124516142Y-89147295D02*
X124516142Y-89290152D01*
X124516142Y-89290152D02*
X124468523Y-89385390D01*
X124468523Y-89385390D02*
X124420904Y-89433009D01*
X124420904Y-89433009D02*
X124325666Y-89480628D01*
X124325666Y-89480628D02*
X123944714Y-89480628D01*
X125468523Y-89956819D02*
X124897095Y-89956819D01*
X125182809Y-89956819D02*
X125182809Y-88956819D01*
X125182809Y-88956819D02*
X125087571Y-89099676D01*
X125087571Y-89099676D02*
X124992333Y-89194914D01*
X124992333Y-89194914D02*
X124897095Y-89242533D01*
X126087571Y-88956819D02*
X126182809Y-88956819D01*
X126182809Y-88956819D02*
X126278047Y-89004438D01*
X126278047Y-89004438D02*
X126325666Y-89052057D01*
X126325666Y-89052057D02*
X126373285Y-89147295D01*
X126373285Y-89147295D02*
X126420904Y-89337771D01*
X126420904Y-89337771D02*
X126420904Y-89575866D01*
X126420904Y-89575866D02*
X126373285Y-89766342D01*
X126373285Y-89766342D02*
X126325666Y-89861580D01*
X126325666Y-89861580D02*
X126278047Y-89909200D01*
X126278047Y-89909200D02*
X126182809Y-89956819D01*
X126182809Y-89956819D02*
X126087571Y-89956819D01*
X126087571Y-89956819D02*
X125992333Y-89909200D01*
X125992333Y-89909200D02*
X125944714Y-89861580D01*
X125944714Y-89861580D02*
X125897095Y-89766342D01*
X125897095Y-89766342D02*
X125849476Y-89575866D01*
X125849476Y-89575866D02*
X125849476Y-89337771D01*
X125849476Y-89337771D02*
X125897095Y-89147295D01*
X125897095Y-89147295D02*
X125944714Y-89052057D01*
X125944714Y-89052057D02*
X125992333Y-89004438D01*
X125992333Y-89004438D02*
X126087571Y-88956819D01*
X120680214Y-73510819D02*
X120680214Y-72510819D01*
X120680214Y-72510819D02*
X120918309Y-72510819D01*
X120918309Y-72510819D02*
X121061166Y-72558438D01*
X121061166Y-72558438D02*
X121156404Y-72653676D01*
X121156404Y-72653676D02*
X121204023Y-72748914D01*
X121204023Y-72748914D02*
X121251642Y-72939390D01*
X121251642Y-72939390D02*
X121251642Y-73082247D01*
X121251642Y-73082247D02*
X121204023Y-73272723D01*
X121204023Y-73272723D02*
X121156404Y-73367961D01*
X121156404Y-73367961D02*
X121061166Y-73463200D01*
X121061166Y-73463200D02*
X120918309Y-73510819D01*
X120918309Y-73510819D02*
X120680214Y-73510819D01*
X122204023Y-73510819D02*
X121632595Y-73510819D01*
X121918309Y-73510819D02*
X121918309Y-72510819D01*
X121918309Y-72510819D02*
X121823071Y-72653676D01*
X121823071Y-72653676D02*
X121727833Y-72748914D01*
X121727833Y-72748914D02*
X121632595Y-72796533D01*
X122680214Y-73510819D02*
X122870690Y-73510819D01*
X122870690Y-73510819D02*
X122965928Y-73463200D01*
X122965928Y-73463200D02*
X123013547Y-73415580D01*
X123013547Y-73415580D02*
X123108785Y-73272723D01*
X123108785Y-73272723D02*
X123156404Y-73082247D01*
X123156404Y-73082247D02*
X123156404Y-72701295D01*
X123156404Y-72701295D02*
X123108785Y-72606057D01*
X123108785Y-72606057D02*
X123061166Y-72558438D01*
X123061166Y-72558438D02*
X122965928Y-72510819D01*
X122965928Y-72510819D02*
X122775452Y-72510819D01*
X122775452Y-72510819D02*
X122680214Y-72558438D01*
X122680214Y-72558438D02*
X122632595Y-72606057D01*
X122632595Y-72606057D02*
X122584976Y-72701295D01*
X122584976Y-72701295D02*
X122584976Y-72939390D01*
X122584976Y-72939390D02*
X122632595Y-73034628D01*
X122632595Y-73034628D02*
X122680214Y-73082247D01*
X122680214Y-73082247D02*
X122775452Y-73129866D01*
X122775452Y-73129866D02*
X122965928Y-73129866D01*
X122965928Y-73129866D02*
X123061166Y-73082247D01*
X123061166Y-73082247D02*
X123108785Y-73034628D01*
X123108785Y-73034628D02*
X123156404Y-72939390D01*
X164347080Y-102395666D02*
X164394700Y-102443285D01*
X164394700Y-102443285D02*
X164442319Y-102586142D01*
X164442319Y-102586142D02*
X164442319Y-102681380D01*
X164442319Y-102681380D02*
X164394700Y-102824237D01*
X164394700Y-102824237D02*
X164299461Y-102919475D01*
X164299461Y-102919475D02*
X164204223Y-102967094D01*
X164204223Y-102967094D02*
X164013747Y-103014713D01*
X164013747Y-103014713D02*
X163870890Y-103014713D01*
X163870890Y-103014713D02*
X163680414Y-102967094D01*
X163680414Y-102967094D02*
X163585176Y-102919475D01*
X163585176Y-102919475D02*
X163489938Y-102824237D01*
X163489938Y-102824237D02*
X163442319Y-102681380D01*
X163442319Y-102681380D02*
X163442319Y-102586142D01*
X163442319Y-102586142D02*
X163489938Y-102443285D01*
X163489938Y-102443285D02*
X163537557Y-102395666D01*
X163442319Y-102062332D02*
X163442319Y-101395666D01*
X163442319Y-101395666D02*
X164442319Y-101824237D01*
X111561714Y-92562819D02*
X111561714Y-91562819D01*
X111561714Y-91562819D02*
X111799809Y-91562819D01*
X111799809Y-91562819D02*
X111942666Y-91610438D01*
X111942666Y-91610438D02*
X112037904Y-91705676D01*
X112037904Y-91705676D02*
X112085523Y-91800914D01*
X112085523Y-91800914D02*
X112133142Y-91991390D01*
X112133142Y-91991390D02*
X112133142Y-92134247D01*
X112133142Y-92134247D02*
X112085523Y-92324723D01*
X112085523Y-92324723D02*
X112037904Y-92419961D01*
X112037904Y-92419961D02*
X111942666Y-92515200D01*
X111942666Y-92515200D02*
X111799809Y-92562819D01*
X111799809Y-92562819D02*
X111561714Y-92562819D01*
X113085523Y-92562819D02*
X112514095Y-92562819D01*
X112799809Y-92562819D02*
X112799809Y-91562819D01*
X112799809Y-91562819D02*
X112704571Y-91705676D01*
X112704571Y-91705676D02*
X112609333Y-91800914D01*
X112609333Y-91800914D02*
X112514095Y-91848533D01*
X113418857Y-91562819D02*
X114037904Y-91562819D01*
X114037904Y-91562819D02*
X113704571Y-91943771D01*
X113704571Y-91943771D02*
X113847428Y-91943771D01*
X113847428Y-91943771D02*
X113942666Y-91991390D01*
X113942666Y-91991390D02*
X113990285Y-92039009D01*
X113990285Y-92039009D02*
X114037904Y-92134247D01*
X114037904Y-92134247D02*
X114037904Y-92372342D01*
X114037904Y-92372342D02*
X113990285Y-92467580D01*
X113990285Y-92467580D02*
X113942666Y-92515200D01*
X113942666Y-92515200D02*
X113847428Y-92562819D01*
X113847428Y-92562819D02*
X113561714Y-92562819D01*
X113561714Y-92562819D02*
X113466476Y-92515200D01*
X113466476Y-92515200D02*
X113418857Y-92467580D01*
X111851906Y-66665820D02*
X111851906Y-65665820D01*
X111851906Y-65665820D02*
X112090001Y-65665820D01*
X112090001Y-65665820D02*
X112232858Y-65713439D01*
X112232858Y-65713439D02*
X112328096Y-65808677D01*
X112328096Y-65808677D02*
X112375715Y-65903915D01*
X112375715Y-65903915D02*
X112423334Y-66094391D01*
X112423334Y-66094391D02*
X112423334Y-66237248D01*
X112423334Y-66237248D02*
X112375715Y-66427724D01*
X112375715Y-66427724D02*
X112328096Y-66522962D01*
X112328096Y-66522962D02*
X112232858Y-66618201D01*
X112232858Y-66618201D02*
X112090001Y-66665820D01*
X112090001Y-66665820D02*
X111851906Y-66665820D01*
X113280477Y-65665820D02*
X113090001Y-65665820D01*
X113090001Y-65665820D02*
X112994763Y-65713439D01*
X112994763Y-65713439D02*
X112947144Y-65761058D01*
X112947144Y-65761058D02*
X112851906Y-65903915D01*
X112851906Y-65903915D02*
X112804287Y-66094391D01*
X112804287Y-66094391D02*
X112804287Y-66475343D01*
X112804287Y-66475343D02*
X112851906Y-66570581D01*
X112851906Y-66570581D02*
X112899525Y-66618201D01*
X112899525Y-66618201D02*
X112994763Y-66665820D01*
X112994763Y-66665820D02*
X113185239Y-66665820D01*
X113185239Y-66665820D02*
X113280477Y-66618201D01*
X113280477Y-66618201D02*
X113328096Y-66570581D01*
X113328096Y-66570581D02*
X113375715Y-66475343D01*
X113375715Y-66475343D02*
X113375715Y-66237248D01*
X113375715Y-66237248D02*
X113328096Y-66142010D01*
X113328096Y-66142010D02*
X113280477Y-66094391D01*
X113280477Y-66094391D02*
X113185239Y-66046772D01*
X113185239Y-66046772D02*
X112994763Y-66046772D01*
X112994763Y-66046772D02*
X112899525Y-66094391D01*
X112899525Y-66094391D02*
X112851906Y-66142010D01*
X112851906Y-66142010D02*
X112804287Y-66237248D01*
X125118333Y-80304819D02*
X124785000Y-79828628D01*
X124546905Y-80304819D02*
X124546905Y-79304819D01*
X124546905Y-79304819D02*
X124927857Y-79304819D01*
X124927857Y-79304819D02*
X125023095Y-79352438D01*
X125023095Y-79352438D02*
X125070714Y-79400057D01*
X125070714Y-79400057D02*
X125118333Y-79495295D01*
X125118333Y-79495295D02*
X125118333Y-79638152D01*
X125118333Y-79638152D02*
X125070714Y-79733390D01*
X125070714Y-79733390D02*
X125023095Y-79781009D01*
X125023095Y-79781009D02*
X124927857Y-79828628D01*
X124927857Y-79828628D02*
X124546905Y-79828628D01*
X125451667Y-79304819D02*
X126118333Y-79304819D01*
X126118333Y-79304819D02*
X125689762Y-80304819D01*
X111677408Y-73139820D02*
X111677408Y-72139820D01*
X111677408Y-72139820D02*
X111915503Y-72139820D01*
X111915503Y-72139820D02*
X112058360Y-72187439D01*
X112058360Y-72187439D02*
X112153598Y-72282677D01*
X112153598Y-72282677D02*
X112201217Y-72377915D01*
X112201217Y-72377915D02*
X112248836Y-72568391D01*
X112248836Y-72568391D02*
X112248836Y-72711248D01*
X112248836Y-72711248D02*
X112201217Y-72901724D01*
X112201217Y-72901724D02*
X112153598Y-72996962D01*
X112153598Y-72996962D02*
X112058360Y-73092201D01*
X112058360Y-73092201D02*
X111915503Y-73139820D01*
X111915503Y-73139820D02*
X111677408Y-73139820D01*
X112820265Y-72568391D02*
X112725027Y-72520772D01*
X112725027Y-72520772D02*
X112677408Y-72473153D01*
X112677408Y-72473153D02*
X112629789Y-72377915D01*
X112629789Y-72377915D02*
X112629789Y-72330296D01*
X112629789Y-72330296D02*
X112677408Y-72235058D01*
X112677408Y-72235058D02*
X112725027Y-72187439D01*
X112725027Y-72187439D02*
X112820265Y-72139820D01*
X112820265Y-72139820D02*
X113010741Y-72139820D01*
X113010741Y-72139820D02*
X113105979Y-72187439D01*
X113105979Y-72187439D02*
X113153598Y-72235058D01*
X113153598Y-72235058D02*
X113201217Y-72330296D01*
X113201217Y-72330296D02*
X113201217Y-72377915D01*
X113201217Y-72377915D02*
X113153598Y-72473153D01*
X113153598Y-72473153D02*
X113105979Y-72520772D01*
X113105979Y-72520772D02*
X113010741Y-72568391D01*
X113010741Y-72568391D02*
X112820265Y-72568391D01*
X112820265Y-72568391D02*
X112725027Y-72616010D01*
X112725027Y-72616010D02*
X112677408Y-72663629D01*
X112677408Y-72663629D02*
X112629789Y-72758867D01*
X112629789Y-72758867D02*
X112629789Y-72949343D01*
X112629789Y-72949343D02*
X112677408Y-73044581D01*
X112677408Y-73044581D02*
X112725027Y-73092201D01*
X112725027Y-73092201D02*
X112820265Y-73139820D01*
X112820265Y-73139820D02*
X113010741Y-73139820D01*
X113010741Y-73139820D02*
X113105979Y-73092201D01*
X113105979Y-73092201D02*
X113153598Y-73044581D01*
X113153598Y-73044581D02*
X113201217Y-72949343D01*
X113201217Y-72949343D02*
X113201217Y-72758867D01*
X113201217Y-72758867D02*
X113153598Y-72663629D01*
X113153598Y-72663629D02*
X113105979Y-72616010D01*
X113105979Y-72616010D02*
X113010741Y-72568391D01*
X111277711Y-80718819D02*
X111277711Y-79718819D01*
X111277711Y-79718819D02*
X111515806Y-79718819D01*
X111515806Y-79718819D02*
X111658663Y-79766438D01*
X111658663Y-79766438D02*
X111753901Y-79861676D01*
X111753901Y-79861676D02*
X111801520Y-79956914D01*
X111801520Y-79956914D02*
X111849139Y-80147390D01*
X111849139Y-80147390D02*
X111849139Y-80290247D01*
X111849139Y-80290247D02*
X111801520Y-80480723D01*
X111801520Y-80480723D02*
X111753901Y-80575961D01*
X111753901Y-80575961D02*
X111658663Y-80671200D01*
X111658663Y-80671200D02*
X111515806Y-80718819D01*
X111515806Y-80718819D02*
X111277711Y-80718819D01*
X112801520Y-80718819D02*
X112230092Y-80718819D01*
X112515806Y-80718819D02*
X112515806Y-79718819D01*
X112515806Y-79718819D02*
X112420568Y-79861676D01*
X112420568Y-79861676D02*
X112325330Y-79956914D01*
X112325330Y-79956914D02*
X112230092Y-80004533D01*
X113420568Y-79718819D02*
X113515806Y-79718819D01*
X113515806Y-79718819D02*
X113611044Y-79766438D01*
X113611044Y-79766438D02*
X113658663Y-79814057D01*
X113658663Y-79814057D02*
X113706282Y-79909295D01*
X113706282Y-79909295D02*
X113753901Y-80099771D01*
X113753901Y-80099771D02*
X113753901Y-80337866D01*
X113753901Y-80337866D02*
X113706282Y-80528342D01*
X113706282Y-80528342D02*
X113658663Y-80623580D01*
X113658663Y-80623580D02*
X113611044Y-80671200D01*
X113611044Y-80671200D02*
X113515806Y-80718819D01*
X113515806Y-80718819D02*
X113420568Y-80718819D01*
X113420568Y-80718819D02*
X113325330Y-80671200D01*
X113325330Y-80671200D02*
X113277711Y-80623580D01*
X113277711Y-80623580D02*
X113230092Y-80528342D01*
X113230092Y-80528342D02*
X113182473Y-80337866D01*
X113182473Y-80337866D02*
X113182473Y-80099771D01*
X113182473Y-80099771D02*
X113230092Y-79909295D01*
X113230092Y-79909295D02*
X113277711Y-79814057D01*
X113277711Y-79814057D02*
X113325330Y-79766438D01*
X113325330Y-79766438D02*
X113420568Y-79718819D01*
X116500334Y-66664581D02*
X116452715Y-66712201D01*
X116452715Y-66712201D02*
X116309858Y-66759820D01*
X116309858Y-66759820D02*
X116214620Y-66759820D01*
X116214620Y-66759820D02*
X116071763Y-66712201D01*
X116071763Y-66712201D02*
X115976525Y-66616962D01*
X115976525Y-66616962D02*
X115928906Y-66521724D01*
X115928906Y-66521724D02*
X115881287Y-66331248D01*
X115881287Y-66331248D02*
X115881287Y-66188391D01*
X115881287Y-66188391D02*
X115928906Y-65997915D01*
X115928906Y-65997915D02*
X115976525Y-65902677D01*
X115976525Y-65902677D02*
X116071763Y-65807439D01*
X116071763Y-65807439D02*
X116214620Y-65759820D01*
X116214620Y-65759820D02*
X116309858Y-65759820D01*
X116309858Y-65759820D02*
X116452715Y-65807439D01*
X116452715Y-65807439D02*
X116500334Y-65855058D01*
X117357477Y-66093153D02*
X117357477Y-66759820D01*
X117119382Y-65712201D02*
X116881287Y-66426486D01*
X116881287Y-66426486D02*
X117500334Y-66426486D01*
X147518319Y-86724094D02*
X146518319Y-86724094D01*
X146518319Y-86724094D02*
X146518319Y-86485999D01*
X146518319Y-86485999D02*
X146565938Y-86343142D01*
X146565938Y-86343142D02*
X146661176Y-86247904D01*
X146661176Y-86247904D02*
X146756414Y-86200285D01*
X146756414Y-86200285D02*
X146946890Y-86152666D01*
X146946890Y-86152666D02*
X147089747Y-86152666D01*
X147089747Y-86152666D02*
X147280223Y-86200285D01*
X147280223Y-86200285D02*
X147375461Y-86247904D01*
X147375461Y-86247904D02*
X147470700Y-86343142D01*
X147470700Y-86343142D02*
X147518319Y-86485999D01*
X147518319Y-86485999D02*
X147518319Y-86724094D01*
X146613557Y-85771713D02*
X146565938Y-85724094D01*
X146565938Y-85724094D02*
X146518319Y-85628856D01*
X146518319Y-85628856D02*
X146518319Y-85390761D01*
X146518319Y-85390761D02*
X146565938Y-85295523D01*
X146565938Y-85295523D02*
X146613557Y-85247904D01*
X146613557Y-85247904D02*
X146708795Y-85200285D01*
X146708795Y-85200285D02*
X146804033Y-85200285D01*
X146804033Y-85200285D02*
X146946890Y-85247904D01*
X146946890Y-85247904D02*
X147518319Y-85819332D01*
X147518319Y-85819332D02*
X147518319Y-85200285D01*
X89058333Y-89589580D02*
X89010714Y-89637200D01*
X89010714Y-89637200D02*
X88867857Y-89684819D01*
X88867857Y-89684819D02*
X88772619Y-89684819D01*
X88772619Y-89684819D02*
X88629762Y-89637200D01*
X88629762Y-89637200D02*
X88534524Y-89541961D01*
X88534524Y-89541961D02*
X88486905Y-89446723D01*
X88486905Y-89446723D02*
X88439286Y-89256247D01*
X88439286Y-89256247D02*
X88439286Y-89113390D01*
X88439286Y-89113390D02*
X88486905Y-88922914D01*
X88486905Y-88922914D02*
X88534524Y-88827676D01*
X88534524Y-88827676D02*
X88629762Y-88732438D01*
X88629762Y-88732438D02*
X88772619Y-88684819D01*
X88772619Y-88684819D02*
X88867857Y-88684819D01*
X88867857Y-88684819D02*
X89010714Y-88732438D01*
X89010714Y-88732438D02*
X89058333Y-88780057D01*
X89963095Y-88684819D02*
X89486905Y-88684819D01*
X89486905Y-88684819D02*
X89439286Y-89161009D01*
X89439286Y-89161009D02*
X89486905Y-89113390D01*
X89486905Y-89113390D02*
X89582143Y-89065771D01*
X89582143Y-89065771D02*
X89820238Y-89065771D01*
X89820238Y-89065771D02*
X89915476Y-89113390D01*
X89915476Y-89113390D02*
X89963095Y-89161009D01*
X89963095Y-89161009D02*
X90010714Y-89256247D01*
X90010714Y-89256247D02*
X90010714Y-89494342D01*
X90010714Y-89494342D02*
X89963095Y-89589580D01*
X89963095Y-89589580D02*
X89915476Y-89637200D01*
X89915476Y-89637200D02*
X89820238Y-89684819D01*
X89820238Y-89684819D02*
X89582143Y-89684819D01*
X89582143Y-89684819D02*
X89486905Y-89637200D01*
X89486905Y-89637200D02*
X89439286Y-89589580D01*
X76529580Y-70541666D02*
X76577200Y-70589285D01*
X76577200Y-70589285D02*
X76624819Y-70732142D01*
X76624819Y-70732142D02*
X76624819Y-70827380D01*
X76624819Y-70827380D02*
X76577200Y-70970237D01*
X76577200Y-70970237D02*
X76481961Y-71065475D01*
X76481961Y-71065475D02*
X76386723Y-71113094D01*
X76386723Y-71113094D02*
X76196247Y-71160713D01*
X76196247Y-71160713D02*
X76053390Y-71160713D01*
X76053390Y-71160713D02*
X75862914Y-71113094D01*
X75862914Y-71113094D02*
X75767676Y-71065475D01*
X75767676Y-71065475D02*
X75672438Y-70970237D01*
X75672438Y-70970237D02*
X75624819Y-70827380D01*
X75624819Y-70827380D02*
X75624819Y-70732142D01*
X75624819Y-70732142D02*
X75672438Y-70589285D01*
X75672438Y-70589285D02*
X75720057Y-70541666D01*
X76624819Y-69589285D02*
X76624819Y-70160713D01*
X76624819Y-69874999D02*
X75624819Y-69874999D01*
X75624819Y-69874999D02*
X75767676Y-69970237D01*
X75767676Y-69970237D02*
X75862914Y-70065475D01*
X75862914Y-70065475D02*
X75910533Y-70160713D01*
X131856214Y-73510819D02*
X131856214Y-72510819D01*
X131856214Y-72510819D02*
X132094309Y-72510819D01*
X132094309Y-72510819D02*
X132237166Y-72558438D01*
X132237166Y-72558438D02*
X132332404Y-72653676D01*
X132332404Y-72653676D02*
X132380023Y-72748914D01*
X132380023Y-72748914D02*
X132427642Y-72939390D01*
X132427642Y-72939390D02*
X132427642Y-73082247D01*
X132427642Y-73082247D02*
X132380023Y-73272723D01*
X132380023Y-73272723D02*
X132332404Y-73367961D01*
X132332404Y-73367961D02*
X132237166Y-73463200D01*
X132237166Y-73463200D02*
X132094309Y-73510819D01*
X132094309Y-73510819D02*
X131856214Y-73510819D01*
X132808595Y-72606057D02*
X132856214Y-72558438D01*
X132856214Y-72558438D02*
X132951452Y-72510819D01*
X132951452Y-72510819D02*
X133189547Y-72510819D01*
X133189547Y-72510819D02*
X133284785Y-72558438D01*
X133284785Y-72558438D02*
X133332404Y-72606057D01*
X133332404Y-72606057D02*
X133380023Y-72701295D01*
X133380023Y-72701295D02*
X133380023Y-72796533D01*
X133380023Y-72796533D02*
X133332404Y-72939390D01*
X133332404Y-72939390D02*
X132760976Y-73510819D01*
X132760976Y-73510819D02*
X133380023Y-73510819D01*
X134332404Y-73510819D02*
X133760976Y-73510819D01*
X134046690Y-73510819D02*
X134046690Y-72510819D01*
X134046690Y-72510819D02*
X133951452Y-72653676D01*
X133951452Y-72653676D02*
X133856214Y-72748914D01*
X133856214Y-72748914D02*
X133760976Y-72796533D01*
X96590666Y-79950819D02*
X96590666Y-80665104D01*
X96590666Y-80665104D02*
X96543047Y-80807961D01*
X96543047Y-80807961D02*
X96447809Y-80903200D01*
X96447809Y-80903200D02*
X96304952Y-80950819D01*
X96304952Y-80950819D02*
X96209714Y-80950819D01*
X97066857Y-80950819D02*
X97066857Y-79950819D01*
X97066857Y-79950819D02*
X97447809Y-79950819D01*
X97447809Y-79950819D02*
X97543047Y-79998438D01*
X97543047Y-79998438D02*
X97590666Y-80046057D01*
X97590666Y-80046057D02*
X97638285Y-80141295D01*
X97638285Y-80141295D02*
X97638285Y-80284152D01*
X97638285Y-80284152D02*
X97590666Y-80379390D01*
X97590666Y-80379390D02*
X97543047Y-80427009D01*
X97543047Y-80427009D02*
X97447809Y-80474628D01*
X97447809Y-80474628D02*
X97066857Y-80474628D01*
X98543047Y-79950819D02*
X98066857Y-79950819D01*
X98066857Y-79950819D02*
X98019238Y-80427009D01*
X98019238Y-80427009D02*
X98066857Y-80379390D01*
X98066857Y-80379390D02*
X98162095Y-80331771D01*
X98162095Y-80331771D02*
X98400190Y-80331771D01*
X98400190Y-80331771D02*
X98495428Y-80379390D01*
X98495428Y-80379390D02*
X98543047Y-80427009D01*
X98543047Y-80427009D02*
X98590666Y-80522247D01*
X98590666Y-80522247D02*
X98590666Y-80760342D01*
X98590666Y-80760342D02*
X98543047Y-80855580D01*
X98543047Y-80855580D02*
X98495428Y-80903200D01*
X98495428Y-80903200D02*
X98400190Y-80950819D01*
X98400190Y-80950819D02*
X98162095Y-80950819D01*
X98162095Y-80950819D02*
X98066857Y-80903200D01*
X98066857Y-80903200D02*
X98019238Y-80855580D01*
X81879166Y-70961009D02*
X81545833Y-70961009D01*
X81545833Y-71484819D02*
X81545833Y-70484819D01*
X81545833Y-70484819D02*
X82022023Y-70484819D01*
X82355357Y-70580057D02*
X82402976Y-70532438D01*
X82402976Y-70532438D02*
X82498214Y-70484819D01*
X82498214Y-70484819D02*
X82736309Y-70484819D01*
X82736309Y-70484819D02*
X82831547Y-70532438D01*
X82831547Y-70532438D02*
X82879166Y-70580057D01*
X82879166Y-70580057D02*
X82926785Y-70675295D01*
X82926785Y-70675295D02*
X82926785Y-70770533D01*
X82926785Y-70770533D02*
X82879166Y-70913390D01*
X82879166Y-70913390D02*
X82307738Y-71484819D01*
X82307738Y-71484819D02*
X82926785Y-71484819D01*
X156915080Y-94235857D02*
X156962700Y-94283476D01*
X156962700Y-94283476D02*
X157010319Y-94426333D01*
X157010319Y-94426333D02*
X157010319Y-94521571D01*
X157010319Y-94521571D02*
X156962700Y-94664428D01*
X156962700Y-94664428D02*
X156867461Y-94759666D01*
X156867461Y-94759666D02*
X156772223Y-94807285D01*
X156772223Y-94807285D02*
X156581747Y-94854904D01*
X156581747Y-94854904D02*
X156438890Y-94854904D01*
X156438890Y-94854904D02*
X156248414Y-94807285D01*
X156248414Y-94807285D02*
X156153176Y-94759666D01*
X156153176Y-94759666D02*
X156057938Y-94664428D01*
X156057938Y-94664428D02*
X156010319Y-94521571D01*
X156010319Y-94521571D02*
X156010319Y-94426333D01*
X156010319Y-94426333D02*
X156057938Y-94283476D01*
X156057938Y-94283476D02*
X156105557Y-94235857D01*
X157010319Y-93283476D02*
X157010319Y-93854904D01*
X157010319Y-93569190D02*
X156010319Y-93569190D01*
X156010319Y-93569190D02*
X156153176Y-93664428D01*
X156153176Y-93664428D02*
X156248414Y-93759666D01*
X156248414Y-93759666D02*
X156296033Y-93854904D01*
X156105557Y-92902523D02*
X156057938Y-92854904D01*
X156057938Y-92854904D02*
X156010319Y-92759666D01*
X156010319Y-92759666D02*
X156010319Y-92521571D01*
X156010319Y-92521571D02*
X156057938Y-92426333D01*
X156057938Y-92426333D02*
X156105557Y-92378714D01*
X156105557Y-92378714D02*
X156200795Y-92331095D01*
X156200795Y-92331095D02*
X156296033Y-92331095D01*
X156296033Y-92331095D02*
X156438890Y-92378714D01*
X156438890Y-92378714D02*
X157010319Y-92950142D01*
X157010319Y-92950142D02*
X157010319Y-92331095D01*
X128802333Y-86169821D02*
X128469000Y-85693630D01*
X128230905Y-86169821D02*
X128230905Y-85169821D01*
X128230905Y-85169821D02*
X128611857Y-85169821D01*
X128611857Y-85169821D02*
X128707095Y-85217440D01*
X128707095Y-85217440D02*
X128754714Y-85265059D01*
X128754714Y-85265059D02*
X128802333Y-85360297D01*
X128802333Y-85360297D02*
X128802333Y-85503154D01*
X128802333Y-85503154D02*
X128754714Y-85598392D01*
X128754714Y-85598392D02*
X128707095Y-85646011D01*
X128707095Y-85646011D02*
X128611857Y-85693630D01*
X128611857Y-85693630D02*
X128230905Y-85693630D01*
X129659476Y-85503154D02*
X129659476Y-86169821D01*
X129421381Y-85122202D02*
X129183286Y-85836487D01*
X129183286Y-85836487D02*
X129802333Y-85836487D01*
X115689142Y-89734580D02*
X115641523Y-89782200D01*
X115641523Y-89782200D02*
X115498666Y-89829819D01*
X115498666Y-89829819D02*
X115403428Y-89829819D01*
X115403428Y-89829819D02*
X115260571Y-89782200D01*
X115260571Y-89782200D02*
X115165333Y-89686961D01*
X115165333Y-89686961D02*
X115117714Y-89591723D01*
X115117714Y-89591723D02*
X115070095Y-89401247D01*
X115070095Y-89401247D02*
X115070095Y-89258390D01*
X115070095Y-89258390D02*
X115117714Y-89067914D01*
X115117714Y-89067914D02*
X115165333Y-88972676D01*
X115165333Y-88972676D02*
X115260571Y-88877438D01*
X115260571Y-88877438D02*
X115403428Y-88829819D01*
X115403428Y-88829819D02*
X115498666Y-88829819D01*
X115498666Y-88829819D02*
X115641523Y-88877438D01*
X115641523Y-88877438D02*
X115689142Y-88925057D01*
X116641523Y-89829819D02*
X116070095Y-89829819D01*
X116355809Y-89829819D02*
X116355809Y-88829819D01*
X116355809Y-88829819D02*
X116260571Y-88972676D01*
X116260571Y-88972676D02*
X116165333Y-89067914D01*
X116165333Y-89067914D02*
X116070095Y-89115533D01*
X117498666Y-88829819D02*
X117308190Y-88829819D01*
X117308190Y-88829819D02*
X117212952Y-88877438D01*
X117212952Y-88877438D02*
X117165333Y-88925057D01*
X117165333Y-88925057D02*
X117070095Y-89067914D01*
X117070095Y-89067914D02*
X117022476Y-89258390D01*
X117022476Y-89258390D02*
X117022476Y-89639342D01*
X117022476Y-89639342D02*
X117070095Y-89734580D01*
X117070095Y-89734580D02*
X117117714Y-89782200D01*
X117117714Y-89782200D02*
X117212952Y-89829819D01*
X117212952Y-89829819D02*
X117403428Y-89829819D01*
X117403428Y-89829819D02*
X117498666Y-89782200D01*
X117498666Y-89782200D02*
X117546285Y-89734580D01*
X117546285Y-89734580D02*
X117593904Y-89639342D01*
X117593904Y-89639342D02*
X117593904Y-89401247D01*
X117593904Y-89401247D02*
X117546285Y-89306009D01*
X117546285Y-89306009D02*
X117498666Y-89258390D01*
X117498666Y-89258390D02*
X117403428Y-89210771D01*
X117403428Y-89210771D02*
X117212952Y-89210771D01*
X117212952Y-89210771D02*
X117117714Y-89258390D01*
X117117714Y-89258390D02*
X117070095Y-89306009D01*
X117070095Y-89306009D02*
X117022476Y-89401247D01*
X128801333Y-89471821D02*
X128468000Y-88995630D01*
X128229905Y-89471821D02*
X128229905Y-88471821D01*
X128229905Y-88471821D02*
X128610857Y-88471821D01*
X128610857Y-88471821D02*
X128706095Y-88519440D01*
X128706095Y-88519440D02*
X128753714Y-88567059D01*
X128753714Y-88567059D02*
X128801333Y-88662297D01*
X128801333Y-88662297D02*
X128801333Y-88805154D01*
X128801333Y-88805154D02*
X128753714Y-88900392D01*
X128753714Y-88900392D02*
X128706095Y-88948011D01*
X128706095Y-88948011D02*
X128610857Y-88995630D01*
X128610857Y-88995630D02*
X128229905Y-88995630D01*
X129706095Y-88471821D02*
X129229905Y-88471821D01*
X129229905Y-88471821D02*
X129182286Y-88948011D01*
X129182286Y-88948011D02*
X129229905Y-88900392D01*
X129229905Y-88900392D02*
X129325143Y-88852773D01*
X129325143Y-88852773D02*
X129563238Y-88852773D01*
X129563238Y-88852773D02*
X129658476Y-88900392D01*
X129658476Y-88900392D02*
X129706095Y-88948011D01*
X129706095Y-88948011D02*
X129753714Y-89043249D01*
X129753714Y-89043249D02*
X129753714Y-89281344D01*
X129753714Y-89281344D02*
X129706095Y-89376582D01*
X129706095Y-89376582D02*
X129658476Y-89424202D01*
X129658476Y-89424202D02*
X129563238Y-89471821D01*
X129563238Y-89471821D02*
X129325143Y-89471821D01*
X129325143Y-89471821D02*
X129229905Y-89424202D01*
X129229905Y-89424202D02*
X129182286Y-89376582D01*
X96814666Y-72838819D02*
X96814666Y-73553104D01*
X96814666Y-73553104D02*
X96767047Y-73695961D01*
X96767047Y-73695961D02*
X96671809Y-73791200D01*
X96671809Y-73791200D02*
X96528952Y-73838819D01*
X96528952Y-73838819D02*
X96433714Y-73838819D01*
X97290857Y-73838819D02*
X97290857Y-72838819D01*
X97290857Y-72838819D02*
X97671809Y-72838819D01*
X97671809Y-72838819D02*
X97767047Y-72886438D01*
X97767047Y-72886438D02*
X97814666Y-72934057D01*
X97814666Y-72934057D02*
X97862285Y-73029295D01*
X97862285Y-73029295D02*
X97862285Y-73172152D01*
X97862285Y-73172152D02*
X97814666Y-73267390D01*
X97814666Y-73267390D02*
X97767047Y-73315009D01*
X97767047Y-73315009D02*
X97671809Y-73362628D01*
X97671809Y-73362628D02*
X97290857Y-73362628D01*
X98719428Y-73172152D02*
X98719428Y-73838819D01*
X98481333Y-72791200D02*
X98243238Y-73505485D01*
X98243238Y-73505485D02*
X98862285Y-73505485D01*
X128802333Y-92773821D02*
X128469000Y-92297630D01*
X128230905Y-92773821D02*
X128230905Y-91773821D01*
X128230905Y-91773821D02*
X128611857Y-91773821D01*
X128611857Y-91773821D02*
X128707095Y-91821440D01*
X128707095Y-91821440D02*
X128754714Y-91869059D01*
X128754714Y-91869059D02*
X128802333Y-91964297D01*
X128802333Y-91964297D02*
X128802333Y-92107154D01*
X128802333Y-92107154D02*
X128754714Y-92202392D01*
X128754714Y-92202392D02*
X128707095Y-92250011D01*
X128707095Y-92250011D02*
X128611857Y-92297630D01*
X128611857Y-92297630D02*
X128230905Y-92297630D01*
X129659476Y-91773821D02*
X129469000Y-91773821D01*
X129469000Y-91773821D02*
X129373762Y-91821440D01*
X129373762Y-91821440D02*
X129326143Y-91869059D01*
X129326143Y-91869059D02*
X129230905Y-92011916D01*
X129230905Y-92011916D02*
X129183286Y-92202392D01*
X129183286Y-92202392D02*
X129183286Y-92583344D01*
X129183286Y-92583344D02*
X129230905Y-92678582D01*
X129230905Y-92678582D02*
X129278524Y-92726202D01*
X129278524Y-92726202D02*
X129373762Y-92773821D01*
X129373762Y-92773821D02*
X129564238Y-92773821D01*
X129564238Y-92773821D02*
X129659476Y-92726202D01*
X129659476Y-92726202D02*
X129707095Y-92678582D01*
X129707095Y-92678582D02*
X129754714Y-92583344D01*
X129754714Y-92583344D02*
X129754714Y-92345249D01*
X129754714Y-92345249D02*
X129707095Y-92250011D01*
X129707095Y-92250011D02*
X129659476Y-92202392D01*
X129659476Y-92202392D02*
X129564238Y-92154773D01*
X129564238Y-92154773D02*
X129373762Y-92154773D01*
X129373762Y-92154773D02*
X129278524Y-92202392D01*
X129278524Y-92202392D02*
X129230905Y-92250011D01*
X129230905Y-92250011D02*
X129183286Y-92345249D01*
X79495180Y-99595514D02*
X80495180Y-99595514D01*
X80495180Y-99595514D02*
X80495180Y-99833609D01*
X80495180Y-99833609D02*
X80447561Y-99976466D01*
X80447561Y-99976466D02*
X80352323Y-100071704D01*
X80352323Y-100071704D02*
X80257085Y-100119323D01*
X80257085Y-100119323D02*
X80066609Y-100166942D01*
X80066609Y-100166942D02*
X79923752Y-100166942D01*
X79923752Y-100166942D02*
X79733276Y-100119323D01*
X79733276Y-100119323D02*
X79638038Y-100071704D01*
X79638038Y-100071704D02*
X79542800Y-99976466D01*
X79542800Y-99976466D02*
X79495180Y-99833609D01*
X79495180Y-99833609D02*
X79495180Y-99595514D01*
X79495180Y-101119323D02*
X79495180Y-100547895D01*
X79495180Y-100833609D02*
X80495180Y-100833609D01*
X80495180Y-100833609D02*
X80352323Y-100738371D01*
X80352323Y-100738371D02*
X80257085Y-100643133D01*
X80257085Y-100643133D02*
X80209466Y-100547895D01*
X80495180Y-101976466D02*
X80495180Y-101785990D01*
X80495180Y-101785990D02*
X80447561Y-101690752D01*
X80447561Y-101690752D02*
X80399942Y-101643133D01*
X80399942Y-101643133D02*
X80257085Y-101547895D01*
X80257085Y-101547895D02*
X80066609Y-101500276D01*
X80066609Y-101500276D02*
X79685657Y-101500276D01*
X79685657Y-101500276D02*
X79590419Y-101547895D01*
X79590419Y-101547895D02*
X79542800Y-101595514D01*
X79542800Y-101595514D02*
X79495180Y-101690752D01*
X79495180Y-101690752D02*
X79495180Y-101881228D01*
X79495180Y-101881228D02*
X79542800Y-101976466D01*
X79542800Y-101976466D02*
X79590419Y-102024085D01*
X79590419Y-102024085D02*
X79685657Y-102071704D01*
X79685657Y-102071704D02*
X79923752Y-102071704D01*
X79923752Y-102071704D02*
X80018990Y-102024085D01*
X80018990Y-102024085D02*
X80066609Y-101976466D01*
X80066609Y-101976466D02*
X80114228Y-101881228D01*
X80114228Y-101881228D02*
X80114228Y-101690752D01*
X80114228Y-101690752D02*
X80066609Y-101595514D01*
X80066609Y-101595514D02*
X80018990Y-101547895D01*
X80018990Y-101547895D02*
X79923752Y-101500276D01*
X159870319Y-98344666D02*
X159394128Y-98677999D01*
X159870319Y-98916094D02*
X158870319Y-98916094D01*
X158870319Y-98916094D02*
X158870319Y-98535142D01*
X158870319Y-98535142D02*
X158917938Y-98439904D01*
X158917938Y-98439904D02*
X158965557Y-98392285D01*
X158965557Y-98392285D02*
X159060795Y-98344666D01*
X159060795Y-98344666D02*
X159203652Y-98344666D01*
X159203652Y-98344666D02*
X159298890Y-98392285D01*
X159298890Y-98392285D02*
X159346509Y-98439904D01*
X159346509Y-98439904D02*
X159394128Y-98535142D01*
X159394128Y-98535142D02*
X159394128Y-98916094D01*
X159870319Y-97392285D02*
X159870319Y-97963713D01*
X159870319Y-97677999D02*
X158870319Y-97677999D01*
X158870319Y-97677999D02*
X159013176Y-97773237D01*
X159013176Y-97773237D02*
X159108414Y-97868475D01*
X159108414Y-97868475D02*
X159156033Y-97963713D01*
X104961095Y-77397719D02*
X104961095Y-78207242D01*
X104961095Y-78207242D02*
X105008714Y-78302480D01*
X105008714Y-78302480D02*
X105056333Y-78350100D01*
X105056333Y-78350100D02*
X105151571Y-78397719D01*
X105151571Y-78397719D02*
X105342047Y-78397719D01*
X105342047Y-78397719D02*
X105437285Y-78350100D01*
X105437285Y-78350100D02*
X105484904Y-78302480D01*
X105484904Y-78302480D02*
X105532523Y-78207242D01*
X105532523Y-78207242D02*
X105532523Y-77397719D01*
X105913476Y-77397719D02*
X106532523Y-77397719D01*
X106532523Y-77397719D02*
X106199190Y-77778671D01*
X106199190Y-77778671D02*
X106342047Y-77778671D01*
X106342047Y-77778671D02*
X106437285Y-77826290D01*
X106437285Y-77826290D02*
X106484904Y-77873909D01*
X106484904Y-77873909D02*
X106532523Y-77969147D01*
X106532523Y-77969147D02*
X106532523Y-78207242D01*
X106532523Y-78207242D02*
X106484904Y-78302480D01*
X106484904Y-78302480D02*
X106437285Y-78350100D01*
X106437285Y-78350100D02*
X106342047Y-78397719D01*
X106342047Y-78397719D02*
X106056333Y-78397719D01*
X106056333Y-78397719D02*
X105961095Y-78350100D01*
X105961095Y-78350100D02*
X105913476Y-78302480D01*
X76929580Y-81191666D02*
X76977200Y-81239285D01*
X76977200Y-81239285D02*
X77024819Y-81382142D01*
X77024819Y-81382142D02*
X77024819Y-81477380D01*
X77024819Y-81477380D02*
X76977200Y-81620237D01*
X76977200Y-81620237D02*
X76881961Y-81715475D01*
X76881961Y-81715475D02*
X76786723Y-81763094D01*
X76786723Y-81763094D02*
X76596247Y-81810713D01*
X76596247Y-81810713D02*
X76453390Y-81810713D01*
X76453390Y-81810713D02*
X76262914Y-81763094D01*
X76262914Y-81763094D02*
X76167676Y-81715475D01*
X76167676Y-81715475D02*
X76072438Y-81620237D01*
X76072438Y-81620237D02*
X76024819Y-81477380D01*
X76024819Y-81477380D02*
X76024819Y-81382142D01*
X76024819Y-81382142D02*
X76072438Y-81239285D01*
X76072438Y-81239285D02*
X76120057Y-81191666D01*
X76024819Y-80858332D02*
X76024819Y-80239285D01*
X76024819Y-80239285D02*
X76405771Y-80572618D01*
X76405771Y-80572618D02*
X76405771Y-80429761D01*
X76405771Y-80429761D02*
X76453390Y-80334523D01*
X76453390Y-80334523D02*
X76501009Y-80286904D01*
X76501009Y-80286904D02*
X76596247Y-80239285D01*
X76596247Y-80239285D02*
X76834342Y-80239285D01*
X76834342Y-80239285D02*
X76929580Y-80286904D01*
X76929580Y-80286904D02*
X76977200Y-80334523D01*
X76977200Y-80334523D02*
X77024819Y-80429761D01*
X77024819Y-80429761D02*
X77024819Y-80715475D01*
X77024819Y-80715475D02*
X76977200Y-80810713D01*
X76977200Y-80810713D02*
X76929580Y-80858332D01*
X124992333Y-83352819D02*
X124659000Y-82876628D01*
X124420905Y-83352819D02*
X124420905Y-82352819D01*
X124420905Y-82352819D02*
X124801857Y-82352819D01*
X124801857Y-82352819D02*
X124897095Y-82400438D01*
X124897095Y-82400438D02*
X124944714Y-82448057D01*
X124944714Y-82448057D02*
X124992333Y-82543295D01*
X124992333Y-82543295D02*
X124992333Y-82686152D01*
X124992333Y-82686152D02*
X124944714Y-82781390D01*
X124944714Y-82781390D02*
X124897095Y-82829009D01*
X124897095Y-82829009D02*
X124801857Y-82876628D01*
X124801857Y-82876628D02*
X124420905Y-82876628D01*
X125563762Y-82781390D02*
X125468524Y-82733771D01*
X125468524Y-82733771D02*
X125420905Y-82686152D01*
X125420905Y-82686152D02*
X125373286Y-82590914D01*
X125373286Y-82590914D02*
X125373286Y-82543295D01*
X125373286Y-82543295D02*
X125420905Y-82448057D01*
X125420905Y-82448057D02*
X125468524Y-82400438D01*
X125468524Y-82400438D02*
X125563762Y-82352819D01*
X125563762Y-82352819D02*
X125754238Y-82352819D01*
X125754238Y-82352819D02*
X125849476Y-82400438D01*
X125849476Y-82400438D02*
X125897095Y-82448057D01*
X125897095Y-82448057D02*
X125944714Y-82543295D01*
X125944714Y-82543295D02*
X125944714Y-82590914D01*
X125944714Y-82590914D02*
X125897095Y-82686152D01*
X125897095Y-82686152D02*
X125849476Y-82733771D01*
X125849476Y-82733771D02*
X125754238Y-82781390D01*
X125754238Y-82781390D02*
X125563762Y-82781390D01*
X125563762Y-82781390D02*
X125468524Y-82829009D01*
X125468524Y-82829009D02*
X125420905Y-82876628D01*
X125420905Y-82876628D02*
X125373286Y-82971866D01*
X125373286Y-82971866D02*
X125373286Y-83162342D01*
X125373286Y-83162342D02*
X125420905Y-83257580D01*
X125420905Y-83257580D02*
X125468524Y-83305200D01*
X125468524Y-83305200D02*
X125563762Y-83352819D01*
X125563762Y-83352819D02*
X125754238Y-83352819D01*
X125754238Y-83352819D02*
X125849476Y-83305200D01*
X125849476Y-83305200D02*
X125897095Y-83257580D01*
X125897095Y-83257580D02*
X125944714Y-83162342D01*
X125944714Y-83162342D02*
X125944714Y-82971866D01*
X125944714Y-82971866D02*
X125897095Y-82876628D01*
X125897095Y-82876628D02*
X125849476Y-82829009D01*
X125849476Y-82829009D02*
X125754238Y-82781390D01*
X111677408Y-71491820D02*
X111677408Y-70491820D01*
X111677408Y-70491820D02*
X111915503Y-70491820D01*
X111915503Y-70491820D02*
X112058360Y-70539439D01*
X112058360Y-70539439D02*
X112153598Y-70634677D01*
X112153598Y-70634677D02*
X112201217Y-70729915D01*
X112201217Y-70729915D02*
X112248836Y-70920391D01*
X112248836Y-70920391D02*
X112248836Y-71063248D01*
X112248836Y-71063248D02*
X112201217Y-71253724D01*
X112201217Y-71253724D02*
X112153598Y-71348962D01*
X112153598Y-71348962D02*
X112058360Y-71444201D01*
X112058360Y-71444201D02*
X111915503Y-71491820D01*
X111915503Y-71491820D02*
X111677408Y-71491820D01*
X112582170Y-70491820D02*
X113248836Y-70491820D01*
X113248836Y-70491820D02*
X112820265Y-71491820D01*
X111561714Y-90530819D02*
X111561714Y-89530819D01*
X111561714Y-89530819D02*
X111799809Y-89530819D01*
X111799809Y-89530819D02*
X111942666Y-89578438D01*
X111942666Y-89578438D02*
X112037904Y-89673676D01*
X112037904Y-89673676D02*
X112085523Y-89768914D01*
X112085523Y-89768914D02*
X112133142Y-89959390D01*
X112133142Y-89959390D02*
X112133142Y-90102247D01*
X112133142Y-90102247D02*
X112085523Y-90292723D01*
X112085523Y-90292723D02*
X112037904Y-90387961D01*
X112037904Y-90387961D02*
X111942666Y-90483200D01*
X111942666Y-90483200D02*
X111799809Y-90530819D01*
X111799809Y-90530819D02*
X111561714Y-90530819D01*
X113085523Y-90530819D02*
X112514095Y-90530819D01*
X112799809Y-90530819D02*
X112799809Y-89530819D01*
X112799809Y-89530819D02*
X112704571Y-89673676D01*
X112704571Y-89673676D02*
X112609333Y-89768914D01*
X112609333Y-89768914D02*
X112514095Y-89816533D01*
X114037904Y-90530819D02*
X113466476Y-90530819D01*
X113752190Y-90530819D02*
X113752190Y-89530819D01*
X113752190Y-89530819D02*
X113656952Y-89673676D01*
X113656952Y-89673676D02*
X113561714Y-89768914D01*
X113561714Y-89768914D02*
X113466476Y-89816533D01*
X132938904Y-79902820D02*
X132938904Y-78902820D01*
X132938904Y-78902820D02*
X133176999Y-78902820D01*
X133176999Y-78902820D02*
X133319856Y-78950439D01*
X133319856Y-78950439D02*
X133415094Y-79045677D01*
X133415094Y-79045677D02*
X133462713Y-79140915D01*
X133462713Y-79140915D02*
X133510332Y-79331391D01*
X133510332Y-79331391D02*
X133510332Y-79474248D01*
X133510332Y-79474248D02*
X133462713Y-79664724D01*
X133462713Y-79664724D02*
X133415094Y-79759962D01*
X133415094Y-79759962D02*
X133319856Y-79855201D01*
X133319856Y-79855201D02*
X133176999Y-79902820D01*
X133176999Y-79902820D02*
X132938904Y-79902820D01*
X134462713Y-79902820D02*
X133891285Y-79902820D01*
X134176999Y-79902820D02*
X134176999Y-78902820D01*
X134176999Y-78902820D02*
X134081761Y-79045677D01*
X134081761Y-79045677D02*
X133986523Y-79140915D01*
X133986523Y-79140915D02*
X133891285Y-79188534D01*
X116351336Y-73097580D02*
X116303717Y-73145200D01*
X116303717Y-73145200D02*
X116160860Y-73192819D01*
X116160860Y-73192819D02*
X116065622Y-73192819D01*
X116065622Y-73192819D02*
X115922765Y-73145200D01*
X115922765Y-73145200D02*
X115827527Y-73049961D01*
X115827527Y-73049961D02*
X115779908Y-72954723D01*
X115779908Y-72954723D02*
X115732289Y-72764247D01*
X115732289Y-72764247D02*
X115732289Y-72621390D01*
X115732289Y-72621390D02*
X115779908Y-72430914D01*
X115779908Y-72430914D02*
X115827527Y-72335676D01*
X115827527Y-72335676D02*
X115922765Y-72240438D01*
X115922765Y-72240438D02*
X116065622Y-72192819D01*
X116065622Y-72192819D02*
X116160860Y-72192819D01*
X116160860Y-72192819D02*
X116303717Y-72240438D01*
X116303717Y-72240438D02*
X116351336Y-72288057D01*
X116827527Y-73192819D02*
X117018003Y-73192819D01*
X117018003Y-73192819D02*
X117113241Y-73145200D01*
X117113241Y-73145200D02*
X117160860Y-73097580D01*
X117160860Y-73097580D02*
X117256098Y-72954723D01*
X117256098Y-72954723D02*
X117303717Y-72764247D01*
X117303717Y-72764247D02*
X117303717Y-72383295D01*
X117303717Y-72383295D02*
X117256098Y-72288057D01*
X117256098Y-72288057D02*
X117208479Y-72240438D01*
X117208479Y-72240438D02*
X117113241Y-72192819D01*
X117113241Y-72192819D02*
X116922765Y-72192819D01*
X116922765Y-72192819D02*
X116827527Y-72240438D01*
X116827527Y-72240438D02*
X116779908Y-72288057D01*
X116779908Y-72288057D02*
X116732289Y-72383295D01*
X116732289Y-72383295D02*
X116732289Y-72621390D01*
X116732289Y-72621390D02*
X116779908Y-72716628D01*
X116779908Y-72716628D02*
X116827527Y-72764247D01*
X116827527Y-72764247D02*
X116922765Y-72811866D01*
X116922765Y-72811866D02*
X117113241Y-72811866D01*
X117113241Y-72811866D02*
X117208479Y-72764247D01*
X117208479Y-72764247D02*
X117256098Y-72716628D01*
X117256098Y-72716628D02*
X117303717Y-72621390D01*
X115418139Y-81001580D02*
X115370520Y-81049200D01*
X115370520Y-81049200D02*
X115227663Y-81096819D01*
X115227663Y-81096819D02*
X115132425Y-81096819D01*
X115132425Y-81096819D02*
X114989568Y-81049200D01*
X114989568Y-81049200D02*
X114894330Y-80953961D01*
X114894330Y-80953961D02*
X114846711Y-80858723D01*
X114846711Y-80858723D02*
X114799092Y-80668247D01*
X114799092Y-80668247D02*
X114799092Y-80525390D01*
X114799092Y-80525390D02*
X114846711Y-80334914D01*
X114846711Y-80334914D02*
X114894330Y-80239676D01*
X114894330Y-80239676D02*
X114989568Y-80144438D01*
X114989568Y-80144438D02*
X115132425Y-80096819D01*
X115132425Y-80096819D02*
X115227663Y-80096819D01*
X115227663Y-80096819D02*
X115370520Y-80144438D01*
X115370520Y-80144438D02*
X115418139Y-80192057D01*
X116370520Y-81096819D02*
X115799092Y-81096819D01*
X116084806Y-81096819D02*
X116084806Y-80096819D01*
X116084806Y-80096819D02*
X115989568Y-80239676D01*
X115989568Y-80239676D02*
X115894330Y-80334914D01*
X115894330Y-80334914D02*
X115799092Y-80382533D01*
X116703854Y-80096819D02*
X117322901Y-80096819D01*
X117322901Y-80096819D02*
X116989568Y-80477771D01*
X116989568Y-80477771D02*
X117132425Y-80477771D01*
X117132425Y-80477771D02*
X117227663Y-80525390D01*
X117227663Y-80525390D02*
X117275282Y-80573009D01*
X117275282Y-80573009D02*
X117322901Y-80668247D01*
X117322901Y-80668247D02*
X117322901Y-80906342D01*
X117322901Y-80906342D02*
X117275282Y-81001580D01*
X117275282Y-81001580D02*
X117227663Y-81049200D01*
X117227663Y-81049200D02*
X117132425Y-81096819D01*
X117132425Y-81096819D02*
X116846711Y-81096819D01*
X116846711Y-81096819D02*
X116751473Y-81049200D01*
X116751473Y-81049200D02*
X116703854Y-81001580D01*
X111753908Y-78095820D02*
X111753908Y-77095820D01*
X111753908Y-77095820D02*
X111992003Y-77095820D01*
X111992003Y-77095820D02*
X112134860Y-77143439D01*
X112134860Y-77143439D02*
X112230098Y-77238677D01*
X112230098Y-77238677D02*
X112277717Y-77333915D01*
X112277717Y-77333915D02*
X112325336Y-77524391D01*
X112325336Y-77524391D02*
X112325336Y-77667248D01*
X112325336Y-77667248D02*
X112277717Y-77857724D01*
X112277717Y-77857724D02*
X112230098Y-77952962D01*
X112230098Y-77952962D02*
X112134860Y-78048201D01*
X112134860Y-78048201D02*
X111992003Y-78095820D01*
X111992003Y-78095820D02*
X111753908Y-78095820D01*
X112801527Y-78095820D02*
X112992003Y-78095820D01*
X112992003Y-78095820D02*
X113087241Y-78048201D01*
X113087241Y-78048201D02*
X113134860Y-78000581D01*
X113134860Y-78000581D02*
X113230098Y-77857724D01*
X113230098Y-77857724D02*
X113277717Y-77667248D01*
X113277717Y-77667248D02*
X113277717Y-77286296D01*
X113277717Y-77286296D02*
X113230098Y-77191058D01*
X113230098Y-77191058D02*
X113182479Y-77143439D01*
X113182479Y-77143439D02*
X113087241Y-77095820D01*
X113087241Y-77095820D02*
X112896765Y-77095820D01*
X112896765Y-77095820D02*
X112801527Y-77143439D01*
X112801527Y-77143439D02*
X112753908Y-77191058D01*
X112753908Y-77191058D02*
X112706289Y-77286296D01*
X112706289Y-77286296D02*
X112706289Y-77524391D01*
X112706289Y-77524391D02*
X112753908Y-77619629D01*
X112753908Y-77619629D02*
X112801527Y-77667248D01*
X112801527Y-77667248D02*
X112896765Y-77714867D01*
X112896765Y-77714867D02*
X113087241Y-77714867D01*
X113087241Y-77714867D02*
X113182479Y-77667248D01*
X113182479Y-77667248D02*
X113230098Y-77619629D01*
X113230098Y-77619629D02*
X113277717Y-77524391D01*
X96759666Y-67250819D02*
X96759666Y-67965104D01*
X96759666Y-67965104D02*
X96712047Y-68107961D01*
X96712047Y-68107961D02*
X96616809Y-68203200D01*
X96616809Y-68203200D02*
X96473952Y-68250819D01*
X96473952Y-68250819D02*
X96378714Y-68250819D01*
X97235857Y-68250819D02*
X97235857Y-67250819D01*
X97235857Y-67250819D02*
X97616809Y-67250819D01*
X97616809Y-67250819D02*
X97712047Y-67298438D01*
X97712047Y-67298438D02*
X97759666Y-67346057D01*
X97759666Y-67346057D02*
X97807285Y-67441295D01*
X97807285Y-67441295D02*
X97807285Y-67584152D01*
X97807285Y-67584152D02*
X97759666Y-67679390D01*
X97759666Y-67679390D02*
X97712047Y-67727009D01*
X97712047Y-67727009D02*
X97616809Y-67774628D01*
X97616809Y-67774628D02*
X97235857Y-67774628D01*
X98188238Y-67346057D02*
X98235857Y-67298438D01*
X98235857Y-67298438D02*
X98331095Y-67250819D01*
X98331095Y-67250819D02*
X98569190Y-67250819D01*
X98569190Y-67250819D02*
X98664428Y-67298438D01*
X98664428Y-67298438D02*
X98712047Y-67346057D01*
X98712047Y-67346057D02*
X98759666Y-67441295D01*
X98759666Y-67441295D02*
X98759666Y-67536533D01*
X98759666Y-67536533D02*
X98712047Y-67679390D01*
X98712047Y-67679390D02*
X98140619Y-68250819D01*
X98140619Y-68250819D02*
X98759666Y-68250819D01*
X120680214Y-75796819D02*
X120680214Y-74796819D01*
X120680214Y-74796819D02*
X120918309Y-74796819D01*
X120918309Y-74796819D02*
X121061166Y-74844438D01*
X121061166Y-74844438D02*
X121156404Y-74939676D01*
X121156404Y-74939676D02*
X121204023Y-75034914D01*
X121204023Y-75034914D02*
X121251642Y-75225390D01*
X121251642Y-75225390D02*
X121251642Y-75368247D01*
X121251642Y-75368247D02*
X121204023Y-75558723D01*
X121204023Y-75558723D02*
X121156404Y-75653961D01*
X121156404Y-75653961D02*
X121061166Y-75749200D01*
X121061166Y-75749200D02*
X120918309Y-75796819D01*
X120918309Y-75796819D02*
X120680214Y-75796819D01*
X121632595Y-74892057D02*
X121680214Y-74844438D01*
X121680214Y-74844438D02*
X121775452Y-74796819D01*
X121775452Y-74796819D02*
X122013547Y-74796819D01*
X122013547Y-74796819D02*
X122108785Y-74844438D01*
X122108785Y-74844438D02*
X122156404Y-74892057D01*
X122156404Y-74892057D02*
X122204023Y-74987295D01*
X122204023Y-74987295D02*
X122204023Y-75082533D01*
X122204023Y-75082533D02*
X122156404Y-75225390D01*
X122156404Y-75225390D02*
X121584976Y-75796819D01*
X121584976Y-75796819D02*
X122204023Y-75796819D01*
X122823071Y-74796819D02*
X122918309Y-74796819D01*
X122918309Y-74796819D02*
X123013547Y-74844438D01*
X123013547Y-74844438D02*
X123061166Y-74892057D01*
X123061166Y-74892057D02*
X123108785Y-74987295D01*
X123108785Y-74987295D02*
X123156404Y-75177771D01*
X123156404Y-75177771D02*
X123156404Y-75415866D01*
X123156404Y-75415866D02*
X123108785Y-75606342D01*
X123108785Y-75606342D02*
X123061166Y-75701580D01*
X123061166Y-75701580D02*
X123013547Y-75749200D01*
X123013547Y-75749200D02*
X122918309Y-75796819D01*
X122918309Y-75796819D02*
X122823071Y-75796819D01*
X122823071Y-75796819D02*
X122727833Y-75749200D01*
X122727833Y-75749200D02*
X122680214Y-75701580D01*
X122680214Y-75701580D02*
X122632595Y-75606342D01*
X122632595Y-75606342D02*
X122584976Y-75415866D01*
X122584976Y-75415866D02*
X122584976Y-75177771D01*
X122584976Y-75177771D02*
X122632595Y-74987295D01*
X122632595Y-74987295D02*
X122680214Y-74892057D01*
X122680214Y-74892057D02*
X122727833Y-74844438D01*
X122727833Y-74844438D02*
X122823071Y-74796819D01*
D12*
X170942856Y-108441828D02*
X171049999Y-108479923D01*
X171049999Y-108479923D02*
X171085713Y-108518019D01*
X171085713Y-108518019D02*
X171121427Y-108594209D01*
X171121427Y-108594209D02*
X171121427Y-108708495D01*
X171121427Y-108708495D02*
X171085713Y-108784685D01*
X171085713Y-108784685D02*
X171049999Y-108822781D01*
X171049999Y-108822781D02*
X170978570Y-108860876D01*
X170978570Y-108860876D02*
X170692856Y-108860876D01*
X170692856Y-108860876D02*
X170692856Y-108060876D01*
X170692856Y-108060876D02*
X170942856Y-108060876D01*
X170942856Y-108060876D02*
X171014285Y-108098971D01*
X171014285Y-108098971D02*
X171049999Y-108137066D01*
X171049999Y-108137066D02*
X171085713Y-108213257D01*
X171085713Y-108213257D02*
X171085713Y-108289447D01*
X171085713Y-108289447D02*
X171049999Y-108365638D01*
X171049999Y-108365638D02*
X171014285Y-108403733D01*
X171014285Y-108403733D02*
X170942856Y-108441828D01*
X170942856Y-108441828D02*
X170692856Y-108441828D01*
X171371427Y-108060876D02*
X171835713Y-108060876D01*
X171835713Y-108060876D02*
X171585713Y-108365638D01*
X171585713Y-108365638D02*
X171692856Y-108365638D01*
X171692856Y-108365638D02*
X171764285Y-108403733D01*
X171764285Y-108403733D02*
X171799999Y-108441828D01*
X171799999Y-108441828D02*
X171835713Y-108518019D01*
X171835713Y-108518019D02*
X171835713Y-108708495D01*
X171835713Y-108708495D02*
X171799999Y-108784685D01*
X171799999Y-108784685D02*
X171764285Y-108822781D01*
X171764285Y-108822781D02*
X171692856Y-108860876D01*
X171692856Y-108860876D02*
X171478570Y-108860876D01*
X171478570Y-108860876D02*
X171407142Y-108822781D01*
X171407142Y-108822781D02*
X171371427Y-108784685D01*
X172192856Y-108860876D02*
X172335713Y-108860876D01*
X172335713Y-108860876D02*
X172407142Y-108822781D01*
X172407142Y-108822781D02*
X172442856Y-108784685D01*
X172442856Y-108784685D02*
X172514285Y-108670400D01*
X172514285Y-108670400D02*
X172549999Y-108518019D01*
X172549999Y-108518019D02*
X172549999Y-108213257D01*
X172549999Y-108213257D02*
X172514285Y-108137066D01*
X172514285Y-108137066D02*
X172478571Y-108098971D01*
X172478571Y-108098971D02*
X172407142Y-108060876D01*
X172407142Y-108060876D02*
X172264285Y-108060876D01*
X172264285Y-108060876D02*
X172192856Y-108098971D01*
X172192856Y-108098971D02*
X172157142Y-108137066D01*
X172157142Y-108137066D02*
X172121428Y-108213257D01*
X172121428Y-108213257D02*
X172121428Y-108403733D01*
X172121428Y-108403733D02*
X172157142Y-108479923D01*
X172157142Y-108479923D02*
X172192856Y-108518019D01*
X172192856Y-108518019D02*
X172264285Y-108556114D01*
X172264285Y-108556114D02*
X172407142Y-108556114D01*
X172407142Y-108556114D02*
X172478571Y-108518019D01*
X172478571Y-108518019D02*
X172514285Y-108479923D01*
X172514285Y-108479923D02*
X172549999Y-108403733D01*
X173049999Y-109127542D02*
X173049999Y-107984685D01*
X173835714Y-108441828D02*
X173942857Y-108479923D01*
X173942857Y-108479923D02*
X173978571Y-108518019D01*
X173978571Y-108518019D02*
X174014285Y-108594209D01*
X174014285Y-108594209D02*
X174014285Y-108708495D01*
X174014285Y-108708495D02*
X173978571Y-108784685D01*
X173978571Y-108784685D02*
X173942857Y-108822781D01*
X173942857Y-108822781D02*
X173871428Y-108860876D01*
X173871428Y-108860876D02*
X173585714Y-108860876D01*
X173585714Y-108860876D02*
X173585714Y-108060876D01*
X173585714Y-108060876D02*
X173835714Y-108060876D01*
X173835714Y-108060876D02*
X173907143Y-108098971D01*
X173907143Y-108098971D02*
X173942857Y-108137066D01*
X173942857Y-108137066D02*
X173978571Y-108213257D01*
X173978571Y-108213257D02*
X173978571Y-108289447D01*
X173978571Y-108289447D02*
X173942857Y-108365638D01*
X173942857Y-108365638D02*
X173907143Y-108403733D01*
X173907143Y-108403733D02*
X173835714Y-108441828D01*
X173835714Y-108441828D02*
X173585714Y-108441828D01*
X174657143Y-108327542D02*
X174657143Y-108860876D01*
X174478571Y-108022781D02*
X174300000Y-108594209D01*
X174300000Y-108594209D02*
X174764285Y-108594209D01*
X175192857Y-108060876D02*
X175264286Y-108060876D01*
X175264286Y-108060876D02*
X175335714Y-108098971D01*
X175335714Y-108098971D02*
X175371429Y-108137066D01*
X175371429Y-108137066D02*
X175407143Y-108213257D01*
X175407143Y-108213257D02*
X175442857Y-108365638D01*
X175442857Y-108365638D02*
X175442857Y-108556114D01*
X175442857Y-108556114D02*
X175407143Y-108708495D01*
X175407143Y-108708495D02*
X175371429Y-108784685D01*
X175371429Y-108784685D02*
X175335714Y-108822781D01*
X175335714Y-108822781D02*
X175264286Y-108860876D01*
X175264286Y-108860876D02*
X175192857Y-108860876D01*
X175192857Y-108860876D02*
X175121429Y-108822781D01*
X175121429Y-108822781D02*
X175085714Y-108784685D01*
X175085714Y-108784685D02*
X175050000Y-108708495D01*
X175050000Y-108708495D02*
X175014286Y-108556114D01*
X175014286Y-108556114D02*
X175014286Y-108365638D01*
X175014286Y-108365638D02*
X175050000Y-108213257D01*
X175050000Y-108213257D02*
X175085714Y-108137066D01*
X175085714Y-108137066D02*
X175121429Y-108098971D01*
X175121429Y-108098971D02*
X175192857Y-108060876D01*
X70208571Y-66989235D02*
X70565714Y-66989235D01*
X70137142Y-67217807D02*
X70387142Y-66417807D01*
X70387142Y-66417807D02*
X70637142Y-67217807D01*
X71279999Y-67217807D02*
X70851428Y-67217807D01*
X71065713Y-67217807D02*
X71065713Y-66417807D01*
X71065713Y-66417807D02*
X70994285Y-66532092D01*
X70994285Y-66532092D02*
X70922856Y-66608283D01*
X70922856Y-66608283D02*
X70851428Y-66646378D01*
X71779999Y-67484473D02*
X71779999Y-66341616D01*
X72280000Y-66989235D02*
X72637143Y-66989235D01*
X72208571Y-67217807D02*
X72458571Y-66417807D01*
X72458571Y-66417807D02*
X72708571Y-67217807D01*
X72922857Y-66493997D02*
X72958571Y-66455902D01*
X72958571Y-66455902D02*
X73030000Y-66417807D01*
X73030000Y-66417807D02*
X73208571Y-66417807D01*
X73208571Y-66417807D02*
X73280000Y-66455902D01*
X73280000Y-66455902D02*
X73315714Y-66493997D01*
X73315714Y-66493997D02*
X73351428Y-66570188D01*
X73351428Y-66570188D02*
X73351428Y-66646378D01*
X73351428Y-66646378D02*
X73315714Y-66760664D01*
X73315714Y-66760664D02*
X72887142Y-67217807D01*
X72887142Y-67217807D02*
X73351428Y-67217807D01*
D10*
X161884666Y-80967009D02*
X161551333Y-80967009D01*
X161551333Y-81490819D02*
X161551333Y-80490819D01*
X161551333Y-80490819D02*
X162027523Y-80490819D01*
X162932285Y-81490819D02*
X162360857Y-81490819D01*
X162646571Y-81490819D02*
X162646571Y-80490819D01*
X162646571Y-80490819D02*
X162551333Y-80633676D01*
X162551333Y-80633676D02*
X162456095Y-80728914D01*
X162456095Y-80728914D02*
X162360857Y-80776533D01*
X131907214Y-69034819D02*
X131907214Y-68034819D01*
X131907214Y-68034819D02*
X132145309Y-68034819D01*
X132145309Y-68034819D02*
X132288166Y-68082438D01*
X132288166Y-68082438D02*
X132383404Y-68177676D01*
X132383404Y-68177676D02*
X132431023Y-68272914D01*
X132431023Y-68272914D02*
X132478642Y-68463390D01*
X132478642Y-68463390D02*
X132478642Y-68606247D01*
X132478642Y-68606247D02*
X132431023Y-68796723D01*
X132431023Y-68796723D02*
X132383404Y-68891961D01*
X132383404Y-68891961D02*
X132288166Y-68987200D01*
X132288166Y-68987200D02*
X132145309Y-69034819D01*
X132145309Y-69034819D02*
X131907214Y-69034819D01*
X133431023Y-69034819D02*
X132859595Y-69034819D01*
X133145309Y-69034819D02*
X133145309Y-68034819D01*
X133145309Y-68034819D02*
X133050071Y-68177676D01*
X133050071Y-68177676D02*
X132954833Y-68272914D01*
X132954833Y-68272914D02*
X132859595Y-68320533D01*
X134288166Y-68368152D02*
X134288166Y-69034819D01*
X134050071Y-67987200D02*
X133811976Y-68701485D01*
X133811976Y-68701485D02*
X134431023Y-68701485D01*
X81730166Y-81647009D02*
X81396833Y-81647009D01*
X81396833Y-82170819D02*
X81396833Y-81170819D01*
X81396833Y-81170819D02*
X81873023Y-81170819D01*
X82158738Y-81170819D02*
X82777785Y-81170819D01*
X82777785Y-81170819D02*
X82444452Y-81551771D01*
X82444452Y-81551771D02*
X82587309Y-81551771D01*
X82587309Y-81551771D02*
X82682547Y-81599390D01*
X82682547Y-81599390D02*
X82730166Y-81647009D01*
X82730166Y-81647009D02*
X82777785Y-81742247D01*
X82777785Y-81742247D02*
X82777785Y-81980342D01*
X82777785Y-81980342D02*
X82730166Y-82075580D01*
X82730166Y-82075580D02*
X82682547Y-82123200D01*
X82682547Y-82123200D02*
X82587309Y-82170819D01*
X82587309Y-82170819D02*
X82301595Y-82170819D01*
X82301595Y-82170819D02*
X82206357Y-82123200D01*
X82206357Y-82123200D02*
X82158738Y-82075580D01*
X147635642Y-95661580D02*
X147588023Y-95709200D01*
X147588023Y-95709200D02*
X147445166Y-95756819D01*
X147445166Y-95756819D02*
X147349928Y-95756819D01*
X147349928Y-95756819D02*
X147207071Y-95709200D01*
X147207071Y-95709200D02*
X147111833Y-95613961D01*
X147111833Y-95613961D02*
X147064214Y-95518723D01*
X147064214Y-95518723D02*
X147016595Y-95328247D01*
X147016595Y-95328247D02*
X147016595Y-95185390D01*
X147016595Y-95185390D02*
X147064214Y-94994914D01*
X147064214Y-94994914D02*
X147111833Y-94899676D01*
X147111833Y-94899676D02*
X147207071Y-94804438D01*
X147207071Y-94804438D02*
X147349928Y-94756819D01*
X147349928Y-94756819D02*
X147445166Y-94756819D01*
X147445166Y-94756819D02*
X147588023Y-94804438D01*
X147588023Y-94804438D02*
X147635642Y-94852057D01*
X148588023Y-95756819D02*
X148016595Y-95756819D01*
X148302309Y-95756819D02*
X148302309Y-94756819D01*
X148302309Y-94756819D02*
X148207071Y-94899676D01*
X148207071Y-94899676D02*
X148111833Y-94994914D01*
X148111833Y-94994914D02*
X148016595Y-95042533D01*
X149540404Y-95756819D02*
X148968976Y-95756819D01*
X149254690Y-95756819D02*
X149254690Y-94756819D01*
X149254690Y-94756819D02*
X149159452Y-94899676D01*
X149159452Y-94899676D02*
X149064214Y-94994914D01*
X149064214Y-94994914D02*
X148968976Y-95042533D01*
X96814666Y-64456819D02*
X96814666Y-65171104D01*
X96814666Y-65171104D02*
X96767047Y-65313961D01*
X96767047Y-65313961D02*
X96671809Y-65409200D01*
X96671809Y-65409200D02*
X96528952Y-65456819D01*
X96528952Y-65456819D02*
X96433714Y-65456819D01*
X97290857Y-65456819D02*
X97290857Y-64456819D01*
X97290857Y-64456819D02*
X97671809Y-64456819D01*
X97671809Y-64456819D02*
X97767047Y-64504438D01*
X97767047Y-64504438D02*
X97814666Y-64552057D01*
X97814666Y-64552057D02*
X97862285Y-64647295D01*
X97862285Y-64647295D02*
X97862285Y-64790152D01*
X97862285Y-64790152D02*
X97814666Y-64885390D01*
X97814666Y-64885390D02*
X97767047Y-64933009D01*
X97767047Y-64933009D02*
X97671809Y-64980628D01*
X97671809Y-64980628D02*
X97290857Y-64980628D01*
X98814666Y-65456819D02*
X98243238Y-65456819D01*
X98528952Y-65456819D02*
X98528952Y-64456819D01*
X98528952Y-64456819D02*
X98433714Y-64599676D01*
X98433714Y-64599676D02*
X98338476Y-64694914D01*
X98338476Y-64694914D02*
X98243238Y-64742533D01*
X153215080Y-83787666D02*
X153262700Y-83835285D01*
X153262700Y-83835285D02*
X153310319Y-83978142D01*
X153310319Y-83978142D02*
X153310319Y-84073380D01*
X153310319Y-84073380D02*
X153262700Y-84216237D01*
X153262700Y-84216237D02*
X153167461Y-84311475D01*
X153167461Y-84311475D02*
X153072223Y-84359094D01*
X153072223Y-84359094D02*
X152881747Y-84406713D01*
X152881747Y-84406713D02*
X152738890Y-84406713D01*
X152738890Y-84406713D02*
X152548414Y-84359094D01*
X152548414Y-84359094D02*
X152453176Y-84311475D01*
X152453176Y-84311475D02*
X152357938Y-84216237D01*
X152357938Y-84216237D02*
X152310319Y-84073380D01*
X152310319Y-84073380D02*
X152310319Y-83978142D01*
X152310319Y-83978142D02*
X152357938Y-83835285D01*
X152357938Y-83835285D02*
X152405557Y-83787666D01*
X152310319Y-82930523D02*
X152310319Y-83120999D01*
X152310319Y-83120999D02*
X152357938Y-83216237D01*
X152357938Y-83216237D02*
X152405557Y-83263856D01*
X152405557Y-83263856D02*
X152548414Y-83359094D01*
X152548414Y-83359094D02*
X152738890Y-83406713D01*
X152738890Y-83406713D02*
X153119842Y-83406713D01*
X153119842Y-83406713D02*
X153215080Y-83359094D01*
X153215080Y-83359094D02*
X153262700Y-83311475D01*
X153262700Y-83311475D02*
X153310319Y-83216237D01*
X153310319Y-83216237D02*
X153310319Y-83025761D01*
X153310319Y-83025761D02*
X153262700Y-82930523D01*
X153262700Y-82930523D02*
X153215080Y-82882904D01*
X153215080Y-82882904D02*
X153119842Y-82835285D01*
X153119842Y-82835285D02*
X152881747Y-82835285D01*
X152881747Y-82835285D02*
X152786509Y-82882904D01*
X152786509Y-82882904D02*
X152738890Y-82930523D01*
X152738890Y-82930523D02*
X152691271Y-83025761D01*
X152691271Y-83025761D02*
X152691271Y-83216237D01*
X152691271Y-83216237D02*
X152738890Y-83311475D01*
X152738890Y-83311475D02*
X152786509Y-83359094D01*
X152786509Y-83359094D02*
X152881747Y-83406713D01*
X89715180Y-70348095D02*
X88905657Y-70348095D01*
X88905657Y-70348095D02*
X88810419Y-70395714D01*
X88810419Y-70395714D02*
X88762800Y-70443333D01*
X88762800Y-70443333D02*
X88715180Y-70538571D01*
X88715180Y-70538571D02*
X88715180Y-70729047D01*
X88715180Y-70729047D02*
X88762800Y-70824285D01*
X88762800Y-70824285D02*
X88810419Y-70871904D01*
X88810419Y-70871904D02*
X88905657Y-70919523D01*
X88905657Y-70919523D02*
X89715180Y-70919523D01*
X88715180Y-71919523D02*
X88715180Y-71348095D01*
X88715180Y-71633809D02*
X89715180Y-71633809D01*
X89715180Y-71633809D02*
X89572323Y-71538571D01*
X89572323Y-71538571D02*
X89477085Y-71443333D01*
X89477085Y-71443333D02*
X89429466Y-71348095D01*
X96590666Y-82744819D02*
X96590666Y-83459104D01*
X96590666Y-83459104D02*
X96543047Y-83601961D01*
X96543047Y-83601961D02*
X96447809Y-83697200D01*
X96447809Y-83697200D02*
X96304952Y-83744819D01*
X96304952Y-83744819D02*
X96209714Y-83744819D01*
X97066857Y-83744819D02*
X97066857Y-82744819D01*
X97066857Y-82744819D02*
X97447809Y-82744819D01*
X97447809Y-82744819D02*
X97543047Y-82792438D01*
X97543047Y-82792438D02*
X97590666Y-82840057D01*
X97590666Y-82840057D02*
X97638285Y-82935295D01*
X97638285Y-82935295D02*
X97638285Y-83078152D01*
X97638285Y-83078152D02*
X97590666Y-83173390D01*
X97590666Y-83173390D02*
X97543047Y-83221009D01*
X97543047Y-83221009D02*
X97447809Y-83268628D01*
X97447809Y-83268628D02*
X97066857Y-83268628D01*
X98495428Y-82744819D02*
X98304952Y-82744819D01*
X98304952Y-82744819D02*
X98209714Y-82792438D01*
X98209714Y-82792438D02*
X98162095Y-82840057D01*
X98162095Y-82840057D02*
X98066857Y-82982914D01*
X98066857Y-82982914D02*
X98019238Y-83173390D01*
X98019238Y-83173390D02*
X98019238Y-83554342D01*
X98019238Y-83554342D02*
X98066857Y-83649580D01*
X98066857Y-83649580D02*
X98114476Y-83697200D01*
X98114476Y-83697200D02*
X98209714Y-83744819D01*
X98209714Y-83744819D02*
X98400190Y-83744819D01*
X98400190Y-83744819D02*
X98495428Y-83697200D01*
X98495428Y-83697200D02*
X98543047Y-83649580D01*
X98543047Y-83649580D02*
X98590666Y-83554342D01*
X98590666Y-83554342D02*
X98590666Y-83316247D01*
X98590666Y-83316247D02*
X98543047Y-83221009D01*
X98543047Y-83221009D02*
X98495428Y-83173390D01*
X98495428Y-83173390D02*
X98400190Y-83125771D01*
X98400190Y-83125771D02*
X98209714Y-83125771D01*
X98209714Y-83125771D02*
X98114476Y-83173390D01*
X98114476Y-83173390D02*
X98066857Y-83221009D01*
X98066857Y-83221009D02*
X98019238Y-83316247D01*
X120731214Y-69034819D02*
X120731214Y-68034819D01*
X120731214Y-68034819D02*
X120969309Y-68034819D01*
X120969309Y-68034819D02*
X121112166Y-68082438D01*
X121112166Y-68082438D02*
X121207404Y-68177676D01*
X121207404Y-68177676D02*
X121255023Y-68272914D01*
X121255023Y-68272914D02*
X121302642Y-68463390D01*
X121302642Y-68463390D02*
X121302642Y-68606247D01*
X121302642Y-68606247D02*
X121255023Y-68796723D01*
X121255023Y-68796723D02*
X121207404Y-68891961D01*
X121207404Y-68891961D02*
X121112166Y-68987200D01*
X121112166Y-68987200D02*
X120969309Y-69034819D01*
X120969309Y-69034819D02*
X120731214Y-69034819D01*
X122255023Y-69034819D02*
X121683595Y-69034819D01*
X121969309Y-69034819D02*
X121969309Y-68034819D01*
X121969309Y-68034819D02*
X121874071Y-68177676D01*
X121874071Y-68177676D02*
X121778833Y-68272914D01*
X121778833Y-68272914D02*
X121683595Y-68320533D01*
X122588357Y-68034819D02*
X123255023Y-68034819D01*
X123255023Y-68034819D02*
X122826452Y-69034819D01*
X115435142Y-83003580D02*
X115387523Y-83051200D01*
X115387523Y-83051200D02*
X115244666Y-83098819D01*
X115244666Y-83098819D02*
X115149428Y-83098819D01*
X115149428Y-83098819D02*
X115006571Y-83051200D01*
X115006571Y-83051200D02*
X114911333Y-82955961D01*
X114911333Y-82955961D02*
X114863714Y-82860723D01*
X114863714Y-82860723D02*
X114816095Y-82670247D01*
X114816095Y-82670247D02*
X114816095Y-82527390D01*
X114816095Y-82527390D02*
X114863714Y-82336914D01*
X114863714Y-82336914D02*
X114911333Y-82241676D01*
X114911333Y-82241676D02*
X115006571Y-82146438D01*
X115006571Y-82146438D02*
X115149428Y-82098819D01*
X115149428Y-82098819D02*
X115244666Y-82098819D01*
X115244666Y-82098819D02*
X115387523Y-82146438D01*
X115387523Y-82146438D02*
X115435142Y-82194057D01*
X116387523Y-83098819D02*
X115816095Y-83098819D01*
X116101809Y-83098819D02*
X116101809Y-82098819D01*
X116101809Y-82098819D02*
X116006571Y-82241676D01*
X116006571Y-82241676D02*
X115911333Y-82336914D01*
X115911333Y-82336914D02*
X115816095Y-82384533D01*
X117292285Y-82098819D02*
X116816095Y-82098819D01*
X116816095Y-82098819D02*
X116768476Y-82575009D01*
X116768476Y-82575009D02*
X116816095Y-82527390D01*
X116816095Y-82527390D02*
X116911333Y-82479771D01*
X116911333Y-82479771D02*
X117149428Y-82479771D01*
X117149428Y-82479771D02*
X117244666Y-82527390D01*
X117244666Y-82527390D02*
X117292285Y-82575009D01*
X117292285Y-82575009D02*
X117339904Y-82670247D01*
X117339904Y-82670247D02*
X117339904Y-82908342D01*
X117339904Y-82908342D02*
X117292285Y-83003580D01*
X117292285Y-83003580D02*
X117244666Y-83051200D01*
X117244666Y-83051200D02*
X117149428Y-83098819D01*
X117149428Y-83098819D02*
X116911333Y-83098819D01*
X116911333Y-83098819D02*
X116816095Y-83051200D01*
X116816095Y-83051200D02*
X116768476Y-83003580D01*
X133043905Y-86169821D02*
X133043905Y-85169821D01*
X133043905Y-85169821D02*
X133282000Y-85169821D01*
X133282000Y-85169821D02*
X133424857Y-85217440D01*
X133424857Y-85217440D02*
X133520095Y-85312678D01*
X133520095Y-85312678D02*
X133567714Y-85407916D01*
X133567714Y-85407916D02*
X133615333Y-85598392D01*
X133615333Y-85598392D02*
X133615333Y-85741249D01*
X133615333Y-85741249D02*
X133567714Y-85931725D01*
X133567714Y-85931725D02*
X133520095Y-86026963D01*
X133520095Y-86026963D02*
X133424857Y-86122202D01*
X133424857Y-86122202D02*
X133282000Y-86169821D01*
X133282000Y-86169821D02*
X133043905Y-86169821D01*
X133948667Y-85169821D02*
X134567714Y-85169821D01*
X134567714Y-85169821D02*
X134234381Y-85550773D01*
X134234381Y-85550773D02*
X134377238Y-85550773D01*
X134377238Y-85550773D02*
X134472476Y-85598392D01*
X134472476Y-85598392D02*
X134520095Y-85646011D01*
X134520095Y-85646011D02*
X134567714Y-85741249D01*
X134567714Y-85741249D02*
X134567714Y-85979344D01*
X134567714Y-85979344D02*
X134520095Y-86074582D01*
X134520095Y-86074582D02*
X134472476Y-86122202D01*
X134472476Y-86122202D02*
X134377238Y-86169821D01*
X134377238Y-86169821D02*
X134091524Y-86169821D01*
X134091524Y-86169821D02*
X133996286Y-86122202D01*
X133996286Y-86122202D02*
X133948667Y-86074582D01*
X104902095Y-91910819D02*
X104902095Y-92720342D01*
X104902095Y-92720342D02*
X104949714Y-92815580D01*
X104949714Y-92815580D02*
X104997333Y-92863200D01*
X104997333Y-92863200D02*
X105092571Y-92910819D01*
X105092571Y-92910819D02*
X105283047Y-92910819D01*
X105283047Y-92910819D02*
X105378285Y-92863200D01*
X105378285Y-92863200D02*
X105425904Y-92815580D01*
X105425904Y-92815580D02*
X105473523Y-92720342D01*
X105473523Y-92720342D02*
X105473523Y-91910819D01*
X105902095Y-92006057D02*
X105949714Y-91958438D01*
X105949714Y-91958438D02*
X106044952Y-91910819D01*
X106044952Y-91910819D02*
X106283047Y-91910819D01*
X106283047Y-91910819D02*
X106378285Y-91958438D01*
X106378285Y-91958438D02*
X106425904Y-92006057D01*
X106425904Y-92006057D02*
X106473523Y-92101295D01*
X106473523Y-92101295D02*
X106473523Y-92196533D01*
X106473523Y-92196533D02*
X106425904Y-92339390D01*
X106425904Y-92339390D02*
X105854476Y-92910819D01*
X105854476Y-92910819D02*
X106473523Y-92910819D01*
X120680214Y-71224819D02*
X120680214Y-70224819D01*
X120680214Y-70224819D02*
X120918309Y-70224819D01*
X120918309Y-70224819D02*
X121061166Y-70272438D01*
X121061166Y-70272438D02*
X121156404Y-70367676D01*
X121156404Y-70367676D02*
X121204023Y-70462914D01*
X121204023Y-70462914D02*
X121251642Y-70653390D01*
X121251642Y-70653390D02*
X121251642Y-70796247D01*
X121251642Y-70796247D02*
X121204023Y-70986723D01*
X121204023Y-70986723D02*
X121156404Y-71081961D01*
X121156404Y-71081961D02*
X121061166Y-71177200D01*
X121061166Y-71177200D02*
X120918309Y-71224819D01*
X120918309Y-71224819D02*
X120680214Y-71224819D01*
X122204023Y-71224819D02*
X121632595Y-71224819D01*
X121918309Y-71224819D02*
X121918309Y-70224819D01*
X121918309Y-70224819D02*
X121823071Y-70367676D01*
X121823071Y-70367676D02*
X121727833Y-70462914D01*
X121727833Y-70462914D02*
X121632595Y-70510533D01*
X122775452Y-70653390D02*
X122680214Y-70605771D01*
X122680214Y-70605771D02*
X122632595Y-70558152D01*
X122632595Y-70558152D02*
X122584976Y-70462914D01*
X122584976Y-70462914D02*
X122584976Y-70415295D01*
X122584976Y-70415295D02*
X122632595Y-70320057D01*
X122632595Y-70320057D02*
X122680214Y-70272438D01*
X122680214Y-70272438D02*
X122775452Y-70224819D01*
X122775452Y-70224819D02*
X122965928Y-70224819D01*
X122965928Y-70224819D02*
X123061166Y-70272438D01*
X123061166Y-70272438D02*
X123108785Y-70320057D01*
X123108785Y-70320057D02*
X123156404Y-70415295D01*
X123156404Y-70415295D02*
X123156404Y-70462914D01*
X123156404Y-70462914D02*
X123108785Y-70558152D01*
X123108785Y-70558152D02*
X123061166Y-70605771D01*
X123061166Y-70605771D02*
X122965928Y-70653390D01*
X122965928Y-70653390D02*
X122775452Y-70653390D01*
X122775452Y-70653390D02*
X122680214Y-70701009D01*
X122680214Y-70701009D02*
X122632595Y-70748628D01*
X122632595Y-70748628D02*
X122584976Y-70843866D01*
X122584976Y-70843866D02*
X122584976Y-71034342D01*
X122584976Y-71034342D02*
X122632595Y-71129580D01*
X122632595Y-71129580D02*
X122680214Y-71177200D01*
X122680214Y-71177200D02*
X122775452Y-71224819D01*
X122775452Y-71224819D02*
X122965928Y-71224819D01*
X122965928Y-71224819D02*
X123061166Y-71177200D01*
X123061166Y-71177200D02*
X123108785Y-71129580D01*
X123108785Y-71129580D02*
X123156404Y-71034342D01*
X123156404Y-71034342D02*
X123156404Y-70843866D01*
X123156404Y-70843866D02*
X123108785Y-70748628D01*
X123108785Y-70748628D02*
X123061166Y-70701009D01*
X123061166Y-70701009D02*
X122965928Y-70653390D01*
X133021105Y-95396820D02*
X133021105Y-94396820D01*
X133021105Y-94396820D02*
X133259200Y-94396820D01*
X133259200Y-94396820D02*
X133402057Y-94444439D01*
X133402057Y-94444439D02*
X133497295Y-94539677D01*
X133497295Y-94539677D02*
X133544914Y-94634915D01*
X133544914Y-94634915D02*
X133592533Y-94825391D01*
X133592533Y-94825391D02*
X133592533Y-94968248D01*
X133592533Y-94968248D02*
X133544914Y-95158724D01*
X133544914Y-95158724D02*
X133497295Y-95253962D01*
X133497295Y-95253962D02*
X133402057Y-95349201D01*
X133402057Y-95349201D02*
X133259200Y-95396820D01*
X133259200Y-95396820D02*
X133021105Y-95396820D01*
X134497295Y-94396820D02*
X134021105Y-94396820D01*
X134021105Y-94396820D02*
X133973486Y-94873010D01*
X133973486Y-94873010D02*
X134021105Y-94825391D01*
X134021105Y-94825391D02*
X134116343Y-94777772D01*
X134116343Y-94777772D02*
X134354438Y-94777772D01*
X134354438Y-94777772D02*
X134449676Y-94825391D01*
X134449676Y-94825391D02*
X134497295Y-94873010D01*
X134497295Y-94873010D02*
X134544914Y-94968248D01*
X134544914Y-94968248D02*
X134544914Y-95206343D01*
X134544914Y-95206343D02*
X134497295Y-95301581D01*
X134497295Y-95301581D02*
X134449676Y-95349201D01*
X134449676Y-95349201D02*
X134354438Y-95396820D01*
X134354438Y-95396820D02*
X134116343Y-95396820D01*
X134116343Y-95396820D02*
X134021105Y-95349201D01*
X134021105Y-95349201D02*
X133973486Y-95301581D01*
X115895145Y-78024481D02*
X115847526Y-78072101D01*
X115847526Y-78072101D02*
X115704669Y-78119720D01*
X115704669Y-78119720D02*
X115609431Y-78119720D01*
X115609431Y-78119720D02*
X115466574Y-78072101D01*
X115466574Y-78072101D02*
X115371336Y-77976862D01*
X115371336Y-77976862D02*
X115323717Y-77881624D01*
X115323717Y-77881624D02*
X115276098Y-77691148D01*
X115276098Y-77691148D02*
X115276098Y-77548291D01*
X115276098Y-77548291D02*
X115323717Y-77357815D01*
X115323717Y-77357815D02*
X115371336Y-77262577D01*
X115371336Y-77262577D02*
X115466574Y-77167339D01*
X115466574Y-77167339D02*
X115609431Y-77119720D01*
X115609431Y-77119720D02*
X115704669Y-77119720D01*
X115704669Y-77119720D02*
X115847526Y-77167339D01*
X115847526Y-77167339D02*
X115895145Y-77214958D01*
X116847526Y-78119720D02*
X116276098Y-78119720D01*
X116561812Y-78119720D02*
X116561812Y-77119720D01*
X116561812Y-77119720D02*
X116466574Y-77262577D01*
X116466574Y-77262577D02*
X116371336Y-77357815D01*
X116371336Y-77357815D02*
X116276098Y-77405434D01*
X117466574Y-77119720D02*
X117561812Y-77119720D01*
X117561812Y-77119720D02*
X117657050Y-77167339D01*
X117657050Y-77167339D02*
X117704669Y-77214958D01*
X117704669Y-77214958D02*
X117752288Y-77310196D01*
X117752288Y-77310196D02*
X117799907Y-77500672D01*
X117799907Y-77500672D02*
X117799907Y-77738767D01*
X117799907Y-77738767D02*
X117752288Y-77929243D01*
X117752288Y-77929243D02*
X117704669Y-78024481D01*
X117704669Y-78024481D02*
X117657050Y-78072101D01*
X117657050Y-78072101D02*
X117561812Y-78119720D01*
X117561812Y-78119720D02*
X117466574Y-78119720D01*
X117466574Y-78119720D02*
X117371336Y-78072101D01*
X117371336Y-78072101D02*
X117323717Y-78024481D01*
X117323717Y-78024481D02*
X117276098Y-77929243D01*
X117276098Y-77929243D02*
X117228479Y-77738767D01*
X117228479Y-77738767D02*
X117228479Y-77500672D01*
X117228479Y-77500672D02*
X117276098Y-77310196D01*
X117276098Y-77310196D02*
X117323717Y-77214958D01*
X117323717Y-77214958D02*
X117371336Y-77167339D01*
X117371336Y-77167339D02*
X117466574Y-77119720D01*
X111053714Y-85958819D02*
X111053714Y-84958819D01*
X111053714Y-84958819D02*
X111291809Y-84958819D01*
X111291809Y-84958819D02*
X111434666Y-85006438D01*
X111434666Y-85006438D02*
X111529904Y-85101676D01*
X111529904Y-85101676D02*
X111577523Y-85196914D01*
X111577523Y-85196914D02*
X111625142Y-85387390D01*
X111625142Y-85387390D02*
X111625142Y-85530247D01*
X111625142Y-85530247D02*
X111577523Y-85720723D01*
X111577523Y-85720723D02*
X111529904Y-85815961D01*
X111529904Y-85815961D02*
X111434666Y-85911200D01*
X111434666Y-85911200D02*
X111291809Y-85958819D01*
X111291809Y-85958819D02*
X111053714Y-85958819D01*
X112577523Y-85958819D02*
X112006095Y-85958819D01*
X112291809Y-85958819D02*
X112291809Y-84958819D01*
X112291809Y-84958819D02*
X112196571Y-85101676D01*
X112196571Y-85101676D02*
X112101333Y-85196914D01*
X112101333Y-85196914D02*
X112006095Y-85244533D01*
X112958476Y-85054057D02*
X113006095Y-85006438D01*
X113006095Y-85006438D02*
X113101333Y-84958819D01*
X113101333Y-84958819D02*
X113339428Y-84958819D01*
X113339428Y-84958819D02*
X113434666Y-85006438D01*
X113434666Y-85006438D02*
X113482285Y-85054057D01*
X113482285Y-85054057D02*
X113529904Y-85149295D01*
X113529904Y-85149295D02*
X113529904Y-85244533D01*
X113529904Y-85244533D02*
X113482285Y-85387390D01*
X113482285Y-85387390D02*
X112910857Y-85958819D01*
X112910857Y-85958819D02*
X113529904Y-85958819D01*
X96814666Y-70044819D02*
X96814666Y-70759104D01*
X96814666Y-70759104D02*
X96767047Y-70901961D01*
X96767047Y-70901961D02*
X96671809Y-70997200D01*
X96671809Y-70997200D02*
X96528952Y-71044819D01*
X96528952Y-71044819D02*
X96433714Y-71044819D01*
X97290857Y-71044819D02*
X97290857Y-70044819D01*
X97290857Y-70044819D02*
X97671809Y-70044819D01*
X97671809Y-70044819D02*
X97767047Y-70092438D01*
X97767047Y-70092438D02*
X97814666Y-70140057D01*
X97814666Y-70140057D02*
X97862285Y-70235295D01*
X97862285Y-70235295D02*
X97862285Y-70378152D01*
X97862285Y-70378152D02*
X97814666Y-70473390D01*
X97814666Y-70473390D02*
X97767047Y-70521009D01*
X97767047Y-70521009D02*
X97671809Y-70568628D01*
X97671809Y-70568628D02*
X97290857Y-70568628D01*
X98195619Y-70044819D02*
X98814666Y-70044819D01*
X98814666Y-70044819D02*
X98481333Y-70425771D01*
X98481333Y-70425771D02*
X98624190Y-70425771D01*
X98624190Y-70425771D02*
X98719428Y-70473390D01*
X98719428Y-70473390D02*
X98767047Y-70521009D01*
X98767047Y-70521009D02*
X98814666Y-70616247D01*
X98814666Y-70616247D02*
X98814666Y-70854342D01*
X98814666Y-70854342D02*
X98767047Y-70949580D01*
X98767047Y-70949580D02*
X98719428Y-70997200D01*
X98719428Y-70997200D02*
X98624190Y-71044819D01*
X98624190Y-71044819D02*
X98338476Y-71044819D01*
X98338476Y-71044819D02*
X98243238Y-70997200D01*
X98243238Y-70997200D02*
X98195619Y-70949580D01*
X153093833Y-88830819D02*
X152760500Y-88354628D01*
X152522405Y-88830819D02*
X152522405Y-87830819D01*
X152522405Y-87830819D02*
X152903357Y-87830819D01*
X152903357Y-87830819D02*
X152998595Y-87878438D01*
X152998595Y-87878438D02*
X153046214Y-87926057D01*
X153046214Y-87926057D02*
X153093833Y-88021295D01*
X153093833Y-88021295D02*
X153093833Y-88164152D01*
X153093833Y-88164152D02*
X153046214Y-88259390D01*
X153046214Y-88259390D02*
X152998595Y-88307009D01*
X152998595Y-88307009D02*
X152903357Y-88354628D01*
X152903357Y-88354628D02*
X152522405Y-88354628D01*
X153427167Y-87830819D02*
X154046214Y-87830819D01*
X154046214Y-87830819D02*
X153712881Y-88211771D01*
X153712881Y-88211771D02*
X153855738Y-88211771D01*
X153855738Y-88211771D02*
X153950976Y-88259390D01*
X153950976Y-88259390D02*
X153998595Y-88307009D01*
X153998595Y-88307009D02*
X154046214Y-88402247D01*
X154046214Y-88402247D02*
X154046214Y-88640342D01*
X154046214Y-88640342D02*
X153998595Y-88735580D01*
X153998595Y-88735580D02*
X153950976Y-88783200D01*
X153950976Y-88783200D02*
X153855738Y-88830819D01*
X153855738Y-88830819D02*
X153570024Y-88830819D01*
X153570024Y-88830819D02*
X153474786Y-88783200D01*
X153474786Y-88783200D02*
X153427167Y-88735580D01*
X96590666Y-85538819D02*
X96590666Y-86253104D01*
X96590666Y-86253104D02*
X96543047Y-86395961D01*
X96543047Y-86395961D02*
X96447809Y-86491200D01*
X96447809Y-86491200D02*
X96304952Y-86538819D01*
X96304952Y-86538819D02*
X96209714Y-86538819D01*
X97066857Y-86538819D02*
X97066857Y-85538819D01*
X97066857Y-85538819D02*
X97447809Y-85538819D01*
X97447809Y-85538819D02*
X97543047Y-85586438D01*
X97543047Y-85586438D02*
X97590666Y-85634057D01*
X97590666Y-85634057D02*
X97638285Y-85729295D01*
X97638285Y-85729295D02*
X97638285Y-85872152D01*
X97638285Y-85872152D02*
X97590666Y-85967390D01*
X97590666Y-85967390D02*
X97543047Y-86015009D01*
X97543047Y-86015009D02*
X97447809Y-86062628D01*
X97447809Y-86062628D02*
X97066857Y-86062628D01*
X97971619Y-85538819D02*
X98638285Y-85538819D01*
X98638285Y-85538819D02*
X98209714Y-86538819D01*
X133043905Y-89648820D02*
X133043905Y-88648820D01*
X133043905Y-88648820D02*
X133282000Y-88648820D01*
X133282000Y-88648820D02*
X133424857Y-88696439D01*
X133424857Y-88696439D02*
X133520095Y-88791677D01*
X133520095Y-88791677D02*
X133567714Y-88886915D01*
X133567714Y-88886915D02*
X133615333Y-89077391D01*
X133615333Y-89077391D02*
X133615333Y-89220248D01*
X133615333Y-89220248D02*
X133567714Y-89410724D01*
X133567714Y-89410724D02*
X133520095Y-89505962D01*
X133520095Y-89505962D02*
X133424857Y-89601201D01*
X133424857Y-89601201D02*
X133282000Y-89648820D01*
X133282000Y-89648820D02*
X133043905Y-89648820D01*
X134472476Y-88982153D02*
X134472476Y-89648820D01*
X134234381Y-88601201D02*
X133996286Y-89315486D01*
X133996286Y-89315486D02*
X134615333Y-89315486D01*
X131856214Y-71224819D02*
X131856214Y-70224819D01*
X131856214Y-70224819D02*
X132094309Y-70224819D01*
X132094309Y-70224819D02*
X132237166Y-70272438D01*
X132237166Y-70272438D02*
X132332404Y-70367676D01*
X132332404Y-70367676D02*
X132380023Y-70462914D01*
X132380023Y-70462914D02*
X132427642Y-70653390D01*
X132427642Y-70653390D02*
X132427642Y-70796247D01*
X132427642Y-70796247D02*
X132380023Y-70986723D01*
X132380023Y-70986723D02*
X132332404Y-71081961D01*
X132332404Y-71081961D02*
X132237166Y-71177200D01*
X132237166Y-71177200D02*
X132094309Y-71224819D01*
X132094309Y-71224819D02*
X131856214Y-71224819D01*
X132808595Y-70320057D02*
X132856214Y-70272438D01*
X132856214Y-70272438D02*
X132951452Y-70224819D01*
X132951452Y-70224819D02*
X133189547Y-70224819D01*
X133189547Y-70224819D02*
X133284785Y-70272438D01*
X133284785Y-70272438D02*
X133332404Y-70320057D01*
X133332404Y-70320057D02*
X133380023Y-70415295D01*
X133380023Y-70415295D02*
X133380023Y-70510533D01*
X133380023Y-70510533D02*
X133332404Y-70653390D01*
X133332404Y-70653390D02*
X132760976Y-71224819D01*
X132760976Y-71224819D02*
X133380023Y-71224819D01*
X133760976Y-70320057D02*
X133808595Y-70272438D01*
X133808595Y-70272438D02*
X133903833Y-70224819D01*
X133903833Y-70224819D02*
X134141928Y-70224819D01*
X134141928Y-70224819D02*
X134237166Y-70272438D01*
X134237166Y-70272438D02*
X134284785Y-70320057D01*
X134284785Y-70320057D02*
X134332404Y-70415295D01*
X134332404Y-70415295D02*
X134332404Y-70510533D01*
X134332404Y-70510533D02*
X134284785Y-70653390D01*
X134284785Y-70653390D02*
X133713357Y-71224819D01*
X133713357Y-71224819D02*
X134332404Y-71224819D01*
X116297334Y-71336581D02*
X116249715Y-71384201D01*
X116249715Y-71384201D02*
X116106858Y-71431820D01*
X116106858Y-71431820D02*
X116011620Y-71431820D01*
X116011620Y-71431820D02*
X115868763Y-71384201D01*
X115868763Y-71384201D02*
X115773525Y-71288962D01*
X115773525Y-71288962D02*
X115725906Y-71193724D01*
X115725906Y-71193724D02*
X115678287Y-71003248D01*
X115678287Y-71003248D02*
X115678287Y-70860391D01*
X115678287Y-70860391D02*
X115725906Y-70669915D01*
X115725906Y-70669915D02*
X115773525Y-70574677D01*
X115773525Y-70574677D02*
X115868763Y-70479439D01*
X115868763Y-70479439D02*
X116011620Y-70431820D01*
X116011620Y-70431820D02*
X116106858Y-70431820D01*
X116106858Y-70431820D02*
X116249715Y-70479439D01*
X116249715Y-70479439D02*
X116297334Y-70527058D01*
X116868763Y-70860391D02*
X116773525Y-70812772D01*
X116773525Y-70812772D02*
X116725906Y-70765153D01*
X116725906Y-70765153D02*
X116678287Y-70669915D01*
X116678287Y-70669915D02*
X116678287Y-70622296D01*
X116678287Y-70622296D02*
X116725906Y-70527058D01*
X116725906Y-70527058D02*
X116773525Y-70479439D01*
X116773525Y-70479439D02*
X116868763Y-70431820D01*
X116868763Y-70431820D02*
X117059239Y-70431820D01*
X117059239Y-70431820D02*
X117154477Y-70479439D01*
X117154477Y-70479439D02*
X117202096Y-70527058D01*
X117202096Y-70527058D02*
X117249715Y-70622296D01*
X117249715Y-70622296D02*
X117249715Y-70669915D01*
X117249715Y-70669915D02*
X117202096Y-70765153D01*
X117202096Y-70765153D02*
X117154477Y-70812772D01*
X117154477Y-70812772D02*
X117059239Y-70860391D01*
X117059239Y-70860391D02*
X116868763Y-70860391D01*
X116868763Y-70860391D02*
X116773525Y-70908010D01*
X116773525Y-70908010D02*
X116725906Y-70955629D01*
X116725906Y-70955629D02*
X116678287Y-71050867D01*
X116678287Y-71050867D02*
X116678287Y-71241343D01*
X116678287Y-71241343D02*
X116725906Y-71336581D01*
X116725906Y-71336581D02*
X116773525Y-71384201D01*
X116773525Y-71384201D02*
X116868763Y-71431820D01*
X116868763Y-71431820D02*
X117059239Y-71431820D01*
X117059239Y-71431820D02*
X117154477Y-71384201D01*
X117154477Y-71384201D02*
X117202096Y-71336581D01*
X117202096Y-71336581D02*
X117249715Y-71241343D01*
X117249715Y-71241343D02*
X117249715Y-71050867D01*
X117249715Y-71050867D02*
X117202096Y-70955629D01*
X117202096Y-70955629D02*
X117154477Y-70908010D01*
X117154477Y-70908010D02*
X117059239Y-70860391D01*
X132110214Y-75796819D02*
X132110214Y-74796819D01*
X132110214Y-74796819D02*
X132348309Y-74796819D01*
X132348309Y-74796819D02*
X132491166Y-74844438D01*
X132491166Y-74844438D02*
X132586404Y-74939676D01*
X132586404Y-74939676D02*
X132634023Y-75034914D01*
X132634023Y-75034914D02*
X132681642Y-75225390D01*
X132681642Y-75225390D02*
X132681642Y-75368247D01*
X132681642Y-75368247D02*
X132634023Y-75558723D01*
X132634023Y-75558723D02*
X132586404Y-75653961D01*
X132586404Y-75653961D02*
X132491166Y-75749200D01*
X132491166Y-75749200D02*
X132348309Y-75796819D01*
X132348309Y-75796819D02*
X132110214Y-75796819D01*
X133062595Y-74892057D02*
X133110214Y-74844438D01*
X133110214Y-74844438D02*
X133205452Y-74796819D01*
X133205452Y-74796819D02*
X133443547Y-74796819D01*
X133443547Y-74796819D02*
X133538785Y-74844438D01*
X133538785Y-74844438D02*
X133586404Y-74892057D01*
X133586404Y-74892057D02*
X133634023Y-74987295D01*
X133634023Y-74987295D02*
X133634023Y-75082533D01*
X133634023Y-75082533D02*
X133586404Y-75225390D01*
X133586404Y-75225390D02*
X133014976Y-75796819D01*
X133014976Y-75796819D02*
X133634023Y-75796819D01*
X133967357Y-74796819D02*
X134586404Y-74796819D01*
X134586404Y-74796819D02*
X134253071Y-75177771D01*
X134253071Y-75177771D02*
X134395928Y-75177771D01*
X134395928Y-75177771D02*
X134491166Y-75225390D01*
X134491166Y-75225390D02*
X134538785Y-75273009D01*
X134538785Y-75273009D02*
X134586404Y-75368247D01*
X134586404Y-75368247D02*
X134586404Y-75606342D01*
X134586404Y-75606342D02*
X134538785Y-75701580D01*
X134538785Y-75701580D02*
X134491166Y-75749200D01*
X134491166Y-75749200D02*
X134395928Y-75796819D01*
X134395928Y-75796819D02*
X134110214Y-75796819D01*
X134110214Y-75796819D02*
X134014976Y-75749200D01*
X134014976Y-75749200D02*
X133967357Y-75701580D01*
X136122419Y-56003733D02*
X136836704Y-56003733D01*
X136836704Y-56003733D02*
X136979561Y-56051352D01*
X136979561Y-56051352D02*
X137074800Y-56146590D01*
X137074800Y-56146590D02*
X137122419Y-56289447D01*
X137122419Y-56289447D02*
X137122419Y-56384685D01*
X136217657Y-55575161D02*
X136170038Y-55527542D01*
X136170038Y-55527542D02*
X136122419Y-55432304D01*
X136122419Y-55432304D02*
X136122419Y-55194209D01*
X136122419Y-55194209D02*
X136170038Y-55098971D01*
X136170038Y-55098971D02*
X136217657Y-55051352D01*
X136217657Y-55051352D02*
X136312895Y-55003733D01*
X136312895Y-55003733D02*
X136408133Y-55003733D01*
X136408133Y-55003733D02*
X136550990Y-55051352D01*
X136550990Y-55051352D02*
X137122419Y-55622780D01*
X137122419Y-55622780D02*
X137122419Y-55003733D01*
X154292700Y-47815428D02*
X154292700Y-46672571D01*
X154864128Y-47243999D02*
X153721271Y-47243999D01*
X154251866Y-63880951D02*
X154251866Y-63119047D01*
X124031666Y-43476819D02*
X124031666Y-44191104D01*
X124031666Y-44191104D02*
X123984047Y-44333961D01*
X123984047Y-44333961D02*
X123888809Y-44429200D01*
X123888809Y-44429200D02*
X123745952Y-44476819D01*
X123745952Y-44476819D02*
X123650714Y-44476819D01*
X124984047Y-43476819D02*
X124507857Y-43476819D01*
X124507857Y-43476819D02*
X124460238Y-43953009D01*
X124460238Y-43953009D02*
X124507857Y-43905390D01*
X124507857Y-43905390D02*
X124603095Y-43857771D01*
X124603095Y-43857771D02*
X124841190Y-43857771D01*
X124841190Y-43857771D02*
X124936428Y-43905390D01*
X124936428Y-43905390D02*
X124984047Y-43953009D01*
X124984047Y-43953009D02*
X125031666Y-44048247D01*
X125031666Y-44048247D02*
X125031666Y-44286342D01*
X125031666Y-44286342D02*
X124984047Y-44381580D01*
X124984047Y-44381580D02*
X124936428Y-44429200D01*
X124936428Y-44429200D02*
X124841190Y-44476819D01*
X124841190Y-44476819D02*
X124603095Y-44476819D01*
X124603095Y-44476819D02*
X124507857Y-44429200D01*
X124507857Y-44429200D02*
X124460238Y-44381580D01*
X115689142Y-87575580D02*
X115641523Y-87623200D01*
X115641523Y-87623200D02*
X115498666Y-87670819D01*
X115498666Y-87670819D02*
X115403428Y-87670819D01*
X115403428Y-87670819D02*
X115260571Y-87623200D01*
X115260571Y-87623200D02*
X115165333Y-87527961D01*
X115165333Y-87527961D02*
X115117714Y-87432723D01*
X115117714Y-87432723D02*
X115070095Y-87242247D01*
X115070095Y-87242247D02*
X115070095Y-87099390D01*
X115070095Y-87099390D02*
X115117714Y-86908914D01*
X115117714Y-86908914D02*
X115165333Y-86813676D01*
X115165333Y-86813676D02*
X115260571Y-86718438D01*
X115260571Y-86718438D02*
X115403428Y-86670819D01*
X115403428Y-86670819D02*
X115498666Y-86670819D01*
X115498666Y-86670819D02*
X115641523Y-86718438D01*
X115641523Y-86718438D02*
X115689142Y-86766057D01*
X116641523Y-87670819D02*
X116070095Y-87670819D01*
X116355809Y-87670819D02*
X116355809Y-86670819D01*
X116355809Y-86670819D02*
X116260571Y-86813676D01*
X116260571Y-86813676D02*
X116165333Y-86908914D01*
X116165333Y-86908914D02*
X116070095Y-86956533D01*
X117498666Y-87004152D02*
X117498666Y-87670819D01*
X117260571Y-86623200D02*
X117022476Y-87337485D01*
X117022476Y-87337485D02*
X117641523Y-87337485D01*
X163240319Y-97850485D02*
X162240319Y-97850485D01*
X162240319Y-97850485D02*
X162240319Y-97612390D01*
X162240319Y-97612390D02*
X162287938Y-97469533D01*
X162287938Y-97469533D02*
X162383176Y-97374295D01*
X162383176Y-97374295D02*
X162478414Y-97326676D01*
X162478414Y-97326676D02*
X162668890Y-97279057D01*
X162668890Y-97279057D02*
X162811747Y-97279057D01*
X162811747Y-97279057D02*
X163002223Y-97326676D01*
X163002223Y-97326676D02*
X163097461Y-97374295D01*
X163097461Y-97374295D02*
X163192700Y-97469533D01*
X163192700Y-97469533D02*
X163240319Y-97612390D01*
X163240319Y-97612390D02*
X163240319Y-97850485D01*
X163240319Y-96326676D02*
X163240319Y-96898104D01*
X163240319Y-96612390D02*
X162240319Y-96612390D01*
X162240319Y-96612390D02*
X162383176Y-96707628D01*
X162383176Y-96707628D02*
X162478414Y-96802866D01*
X162478414Y-96802866D02*
X162526033Y-96898104D01*
X162240319Y-95421914D02*
X162240319Y-95898104D01*
X162240319Y-95898104D02*
X162716509Y-95945723D01*
X162716509Y-95945723D02*
X162668890Y-95898104D01*
X162668890Y-95898104D02*
X162621271Y-95802866D01*
X162621271Y-95802866D02*
X162621271Y-95564771D01*
X162621271Y-95564771D02*
X162668890Y-95469533D01*
X162668890Y-95469533D02*
X162716509Y-95421914D01*
X162716509Y-95421914D02*
X162811747Y-95374295D01*
X162811747Y-95374295D02*
X163049842Y-95374295D01*
X163049842Y-95374295D02*
X163145080Y-95421914D01*
X163145080Y-95421914D02*
X163192700Y-95469533D01*
X163192700Y-95469533D02*
X163240319Y-95564771D01*
X163240319Y-95564771D02*
X163240319Y-95802866D01*
X163240319Y-95802866D02*
X163192700Y-95898104D01*
X163192700Y-95898104D02*
X163145080Y-95945723D01*
X124992333Y-86594819D02*
X124659000Y-86118628D01*
X124420905Y-86594819D02*
X124420905Y-85594819D01*
X124420905Y-85594819D02*
X124801857Y-85594819D01*
X124801857Y-85594819D02*
X124897095Y-85642438D01*
X124897095Y-85642438D02*
X124944714Y-85690057D01*
X124944714Y-85690057D02*
X124992333Y-85785295D01*
X124992333Y-85785295D02*
X124992333Y-85928152D01*
X124992333Y-85928152D02*
X124944714Y-86023390D01*
X124944714Y-86023390D02*
X124897095Y-86071009D01*
X124897095Y-86071009D02*
X124801857Y-86118628D01*
X124801857Y-86118628D02*
X124420905Y-86118628D01*
X125468524Y-86594819D02*
X125659000Y-86594819D01*
X125659000Y-86594819D02*
X125754238Y-86547200D01*
X125754238Y-86547200D02*
X125801857Y-86499580D01*
X125801857Y-86499580D02*
X125897095Y-86356723D01*
X125897095Y-86356723D02*
X125944714Y-86166247D01*
X125944714Y-86166247D02*
X125944714Y-85785295D01*
X125944714Y-85785295D02*
X125897095Y-85690057D01*
X125897095Y-85690057D02*
X125849476Y-85642438D01*
X125849476Y-85642438D02*
X125754238Y-85594819D01*
X125754238Y-85594819D02*
X125563762Y-85594819D01*
X125563762Y-85594819D02*
X125468524Y-85642438D01*
X125468524Y-85642438D02*
X125420905Y-85690057D01*
X125420905Y-85690057D02*
X125373286Y-85785295D01*
X125373286Y-85785295D02*
X125373286Y-86023390D01*
X125373286Y-86023390D02*
X125420905Y-86118628D01*
X125420905Y-86118628D02*
X125468524Y-86166247D01*
X125468524Y-86166247D02*
X125563762Y-86213866D01*
X125563762Y-86213866D02*
X125754238Y-86213866D01*
X125754238Y-86213866D02*
X125849476Y-86166247D01*
X125849476Y-86166247D02*
X125897095Y-86118628D01*
X125897095Y-86118628D02*
X125944714Y-86023390D01*
X128802333Y-83121821D02*
X128469000Y-82645630D01*
X128230905Y-83121821D02*
X128230905Y-82121821D01*
X128230905Y-82121821D02*
X128611857Y-82121821D01*
X128611857Y-82121821D02*
X128707095Y-82169440D01*
X128707095Y-82169440D02*
X128754714Y-82217059D01*
X128754714Y-82217059D02*
X128802333Y-82312297D01*
X128802333Y-82312297D02*
X128802333Y-82455154D01*
X128802333Y-82455154D02*
X128754714Y-82550392D01*
X128754714Y-82550392D02*
X128707095Y-82598011D01*
X128707095Y-82598011D02*
X128611857Y-82645630D01*
X128611857Y-82645630D02*
X128230905Y-82645630D01*
X129183286Y-82217059D02*
X129230905Y-82169440D01*
X129230905Y-82169440D02*
X129326143Y-82121821D01*
X129326143Y-82121821D02*
X129564238Y-82121821D01*
X129564238Y-82121821D02*
X129659476Y-82169440D01*
X129659476Y-82169440D02*
X129707095Y-82217059D01*
X129707095Y-82217059D02*
X129754714Y-82312297D01*
X129754714Y-82312297D02*
X129754714Y-82407535D01*
X129754714Y-82407535D02*
X129707095Y-82550392D01*
X129707095Y-82550392D02*
X129135667Y-83121821D01*
X129135667Y-83121821D02*
X129754714Y-83121821D01*
X89695180Y-81048095D02*
X88885657Y-81048095D01*
X88885657Y-81048095D02*
X88790419Y-81095714D01*
X88790419Y-81095714D02*
X88742800Y-81143333D01*
X88742800Y-81143333D02*
X88695180Y-81238571D01*
X88695180Y-81238571D02*
X88695180Y-81429047D01*
X88695180Y-81429047D02*
X88742800Y-81524285D01*
X88742800Y-81524285D02*
X88790419Y-81571904D01*
X88790419Y-81571904D02*
X88885657Y-81619523D01*
X88885657Y-81619523D02*
X89695180Y-81619523D01*
X89361847Y-82524285D02*
X88695180Y-82524285D01*
X89742800Y-82286190D02*
X89028514Y-82048095D01*
X89028514Y-82048095D02*
X89028514Y-82667142D01*
X88908333Y-77939580D02*
X88860714Y-77987200D01*
X88860714Y-77987200D02*
X88717857Y-78034819D01*
X88717857Y-78034819D02*
X88622619Y-78034819D01*
X88622619Y-78034819D02*
X88479762Y-77987200D01*
X88479762Y-77987200D02*
X88384524Y-77891961D01*
X88384524Y-77891961D02*
X88336905Y-77796723D01*
X88336905Y-77796723D02*
X88289286Y-77606247D01*
X88289286Y-77606247D02*
X88289286Y-77463390D01*
X88289286Y-77463390D02*
X88336905Y-77272914D01*
X88336905Y-77272914D02*
X88384524Y-77177676D01*
X88384524Y-77177676D02*
X88479762Y-77082438D01*
X88479762Y-77082438D02*
X88622619Y-77034819D01*
X88622619Y-77034819D02*
X88717857Y-77034819D01*
X88717857Y-77034819D02*
X88860714Y-77082438D01*
X88860714Y-77082438D02*
X88908333Y-77130057D01*
X89289286Y-77130057D02*
X89336905Y-77082438D01*
X89336905Y-77082438D02*
X89432143Y-77034819D01*
X89432143Y-77034819D02*
X89670238Y-77034819D01*
X89670238Y-77034819D02*
X89765476Y-77082438D01*
X89765476Y-77082438D02*
X89813095Y-77130057D01*
X89813095Y-77130057D02*
X89860714Y-77225295D01*
X89860714Y-77225295D02*
X89860714Y-77320533D01*
X89860714Y-77320533D02*
X89813095Y-77463390D01*
X89813095Y-77463390D02*
X89241667Y-78034819D01*
X89241667Y-78034819D02*
X89860714Y-78034819D01*
X96590666Y-88314819D02*
X96590666Y-89029104D01*
X96590666Y-89029104D02*
X96543047Y-89171961D01*
X96543047Y-89171961D02*
X96447809Y-89267200D01*
X96447809Y-89267200D02*
X96304952Y-89314819D01*
X96304952Y-89314819D02*
X96209714Y-89314819D01*
X97066857Y-89314819D02*
X97066857Y-88314819D01*
X97066857Y-88314819D02*
X97447809Y-88314819D01*
X97447809Y-88314819D02*
X97543047Y-88362438D01*
X97543047Y-88362438D02*
X97590666Y-88410057D01*
X97590666Y-88410057D02*
X97638285Y-88505295D01*
X97638285Y-88505295D02*
X97638285Y-88648152D01*
X97638285Y-88648152D02*
X97590666Y-88743390D01*
X97590666Y-88743390D02*
X97543047Y-88791009D01*
X97543047Y-88791009D02*
X97447809Y-88838628D01*
X97447809Y-88838628D02*
X97066857Y-88838628D01*
X98209714Y-88743390D02*
X98114476Y-88695771D01*
X98114476Y-88695771D02*
X98066857Y-88648152D01*
X98066857Y-88648152D02*
X98019238Y-88552914D01*
X98019238Y-88552914D02*
X98019238Y-88505295D01*
X98019238Y-88505295D02*
X98066857Y-88410057D01*
X98066857Y-88410057D02*
X98114476Y-88362438D01*
X98114476Y-88362438D02*
X98209714Y-88314819D01*
X98209714Y-88314819D02*
X98400190Y-88314819D01*
X98400190Y-88314819D02*
X98495428Y-88362438D01*
X98495428Y-88362438D02*
X98543047Y-88410057D01*
X98543047Y-88410057D02*
X98590666Y-88505295D01*
X98590666Y-88505295D02*
X98590666Y-88552914D01*
X98590666Y-88552914D02*
X98543047Y-88648152D01*
X98543047Y-88648152D02*
X98495428Y-88695771D01*
X98495428Y-88695771D02*
X98400190Y-88743390D01*
X98400190Y-88743390D02*
X98209714Y-88743390D01*
X98209714Y-88743390D02*
X98114476Y-88791009D01*
X98114476Y-88791009D02*
X98066857Y-88838628D01*
X98066857Y-88838628D02*
X98019238Y-88933866D01*
X98019238Y-88933866D02*
X98019238Y-89124342D01*
X98019238Y-89124342D02*
X98066857Y-89219580D01*
X98066857Y-89219580D02*
X98114476Y-89267200D01*
X98114476Y-89267200D02*
X98209714Y-89314819D01*
X98209714Y-89314819D02*
X98400190Y-89314819D01*
X98400190Y-89314819D02*
X98495428Y-89267200D01*
X98495428Y-89267200D02*
X98543047Y-89219580D01*
X98543047Y-89219580D02*
X98590666Y-89124342D01*
X98590666Y-89124342D02*
X98590666Y-88933866D01*
X98590666Y-88933866D02*
X98543047Y-88838628D01*
X98543047Y-88838628D02*
X98495428Y-88791009D01*
X98495428Y-88791009D02*
X98400190Y-88743390D01*
D13*
%TO.C,R10*%
X124921742Y-90409500D02*
X125396258Y-90409500D01*
X124921742Y-91454500D02*
X125396258Y-91454500D01*
%TO.C,D19*%
X126453000Y-73633000D02*
X126453000Y-72163000D01*
X126453000Y-72163000D02*
X124168000Y-72163000D01*
X124168000Y-73633000D02*
X126453000Y-73633000D01*
%TO.C,C7*%
X163067500Y-102088420D02*
X163067500Y-102369580D01*
X162047500Y-102088420D02*
X162047500Y-102369580D01*
%TO.C,D13*%
X114261000Y-91413000D02*
X114261000Y-89943000D01*
X114261000Y-89943000D02*
X111976000Y-89943000D01*
X111976000Y-91413000D02*
X114261000Y-91413000D01*
%TO.C,D6*%
X113951503Y-68429000D02*
X113951503Y-66959000D01*
X113951503Y-66959000D02*
X111666503Y-66959000D01*
X111666503Y-68429000D02*
X113951503Y-68429000D01*
%TO.C,R7*%
X125047742Y-80757500D02*
X125522258Y-80757500D01*
X125047742Y-81802500D02*
X125522258Y-81802500D01*
%TO.C,D8*%
X113900503Y-74903000D02*
X113900503Y-73433000D01*
X113900503Y-73433000D02*
X111615503Y-73433000D01*
X111615503Y-74903000D02*
X113900503Y-74903000D01*
%TO.C,D10*%
X114002497Y-82523000D02*
X114002497Y-81053000D01*
X114002497Y-81053000D02*
X111717497Y-81053000D01*
X111717497Y-82523000D02*
X114002497Y-82523000D01*
%TO.C,C4*%
X116526421Y-67225001D02*
X116807581Y-67225001D01*
X116526421Y-68245001D02*
X116807581Y-68245001D01*
%TO.C,D2*%
X148348500Y-87539500D02*
X149818500Y-87539500D01*
X149818500Y-87539500D02*
X149818500Y-85254500D01*
X148348500Y-85254500D02*
X148348500Y-87539500D01*
%TO.C,C5*%
X89365580Y-88310000D02*
X89084420Y-88310000D01*
X89365580Y-87290000D02*
X89084420Y-87290000D01*
%TO.C,C1*%
X77090000Y-70515580D02*
X77090000Y-70234420D01*
X78110000Y-70515580D02*
X78110000Y-70234420D01*
%TO.C,D21*%
X128588500Y-72213000D02*
X128588500Y-73683000D01*
X128588500Y-73683000D02*
X130873500Y-73683000D01*
X130873500Y-72213000D02*
X128588500Y-72213000D01*
%TO.C,JP5*%
X96024000Y-82596000D02*
X96024000Y-81996000D01*
X96724000Y-81296000D02*
X98124000Y-81296000D01*
X98124000Y-83296000D02*
X96724000Y-83296000D01*
X98824000Y-81996000D02*
X98824000Y-82596000D01*
X96724000Y-81296000D02*
G75*
G03*
X96024000Y-81996000I-1J-699999D01*
G01*
X96024000Y-82596000D02*
G75*
G03*
X96724000Y-83296000I699999J-1D01*
G01*
X98824000Y-81996000D02*
G75*
G03*
X98124000Y-81296000I-700000J0D01*
G01*
X98124000Y-83296000D02*
G75*
G03*
X98824000Y-82596000I0J700000D01*
G01*
%TO.C,F2*%
X82375279Y-70110000D02*
X82049721Y-70110000D01*
X82375279Y-69090000D02*
X82049721Y-69090000D01*
%TO.C,C12*%
X157475500Y-93733580D02*
X157475500Y-93452420D01*
X158495500Y-93733580D02*
X158495500Y-93452420D01*
%TO.C,R4*%
X129206258Y-84807502D02*
X128731742Y-84807502D01*
X129206258Y-83762502D02*
X128731742Y-83762502D01*
%TO.C,C16*%
X116191420Y-90295000D02*
X116472580Y-90295000D01*
X116191420Y-91315000D02*
X116472580Y-91315000D01*
%TO.C,R5*%
X129205258Y-88109502D02*
X128730742Y-88109502D01*
X129205258Y-87064502D02*
X128730742Y-87064502D01*
%TO.C,JP4*%
X96248000Y-75484000D02*
X96248000Y-74884000D01*
X96948000Y-74184000D02*
X98348000Y-74184000D01*
X98348000Y-76184000D02*
X96948000Y-76184000D01*
X99048000Y-74884000D02*
X99048000Y-75484000D01*
X96948000Y-74184000D02*
G75*
G03*
X96248000Y-74884000I-1J-699999D01*
G01*
X96248000Y-75484000D02*
G75*
G03*
X96948000Y-76184000I699999J-1D01*
G01*
X99048000Y-74884000D02*
G75*
G03*
X98348000Y-74184000I-700000J0D01*
G01*
X98348000Y-76184000D02*
G75*
G03*
X99048000Y-75484000I0J700000D01*
G01*
%TO.C,R6*%
X129206258Y-91411502D02*
X128731742Y-91411502D01*
X129206258Y-90366502D02*
X128731742Y-90366502D01*
D14*
%TO.C,D16*%
X81537500Y-98307900D02*
X81120940Y-98307900D01*
X78779060Y-98307900D02*
X78362500Y-98307900D01*
X78362500Y-98307900D02*
X78362500Y-103311700D01*
X81537500Y-103311700D02*
X81537500Y-98307900D01*
X81120940Y-103311700D02*
X81537500Y-103311700D01*
X78362500Y-103311700D02*
X78779060Y-103311700D01*
%TO.C,G\u002A\u002A\u002A*%
D15*
X122853945Y-111080599D02*
X122900144Y-111080783D01*
X122940384Y-111081162D01*
X122975918Y-111081795D01*
X123008000Y-111082740D01*
X123037882Y-111084057D01*
X123066820Y-111085805D01*
X123096065Y-111088041D01*
X123126872Y-111090826D01*
X123160494Y-111094219D01*
X123198185Y-111098277D01*
X123213283Y-111099945D01*
X123384470Y-111123162D01*
X123553771Y-111154540D01*
X123720907Y-111193943D01*
X123885596Y-111241236D01*
X124047559Y-111296282D01*
X124206517Y-111358946D01*
X124362189Y-111429092D01*
X124514295Y-111506584D01*
X124662556Y-111591286D01*
X124806692Y-111683063D01*
X124946423Y-111781778D01*
X125081468Y-111887296D01*
X125211548Y-111999480D01*
X125336383Y-112118195D01*
X125359619Y-112141614D01*
X125473388Y-112262377D01*
X125579350Y-112385379D01*
X125678028Y-112511354D01*
X125769948Y-112641037D01*
X125855633Y-112775164D01*
X125935608Y-112914469D01*
X126001016Y-113040583D01*
X126070375Y-113189728D01*
X126132550Y-113341958D01*
X126187269Y-113496469D01*
X126234259Y-113652454D01*
X126273249Y-113809108D01*
X126293501Y-113907347D01*
X126307741Y-113982478D01*
X126335312Y-113991468D01*
X126367563Y-114002706D01*
X126404776Y-114016861D01*
X126444427Y-114032896D01*
X126483992Y-114049774D01*
X126520946Y-114066458D01*
X126540683Y-114075878D01*
X126601087Y-114106993D01*
X126654574Y-114138005D01*
X126702621Y-114169923D01*
X126746704Y-114203753D01*
X126788301Y-114240504D01*
X126803795Y-114255477D01*
X126843983Y-114298304D01*
X126876862Y-114340459D01*
X126903318Y-114383397D01*
X126924239Y-114428569D01*
X126940510Y-114477430D01*
X126941570Y-114481291D01*
X126946581Y-114506742D01*
X126949831Y-114537912D01*
X126951295Y-114572235D01*
X126950949Y-114607142D01*
X126948770Y-114640067D01*
X126944731Y-114668442D01*
X126943399Y-114674650D01*
X126924206Y-114739747D01*
X126897011Y-114804968D01*
X126861769Y-114870363D01*
X126818436Y-114935982D01*
X126766966Y-115001877D01*
X126707314Y-115068099D01*
X126639435Y-115134697D01*
X126563283Y-115201724D01*
X126478815Y-115269229D01*
X126385984Y-115337263D01*
X126305165Y-115392439D01*
X126240781Y-115435109D01*
X126218500Y-115512079D01*
X126168626Y-115669347D01*
X126110648Y-115824821D01*
X126044840Y-115977939D01*
X125971475Y-116128139D01*
X125890826Y-116274858D01*
X125803165Y-116417535D01*
X125717300Y-116543710D01*
X125613862Y-116681353D01*
X125504022Y-116813541D01*
X125388011Y-116940077D01*
X125266062Y-117060764D01*
X125138409Y-117175405D01*
X125005283Y-117283804D01*
X124866918Y-117385763D01*
X124723545Y-117481085D01*
X124575399Y-117569574D01*
X124422711Y-117651033D01*
X124388033Y-117668236D01*
X124232024Y-117739895D01*
X124072496Y-117803986D01*
X123909902Y-117860406D01*
X123744693Y-117909050D01*
X123577321Y-117949818D01*
X123408240Y-117982605D01*
X123237900Y-118007309D01*
X123066755Y-118023827D01*
X122895257Y-118032056D01*
X122785716Y-118032926D01*
X122755941Y-118032652D01*
X122727290Y-118032309D01*
X122701435Y-118031925D01*
X122680047Y-118031524D01*
X122664795Y-118031133D01*
X122660833Y-118030988D01*
X122481939Y-118019280D01*
X122305985Y-117999635D01*
X122132933Y-117972042D01*
X121962747Y-117936492D01*
X121795391Y-117892974D01*
X121630829Y-117841477D01*
X121469025Y-117781991D01*
X121309941Y-117714505D01*
X121153541Y-117639010D01*
X121001691Y-117556585D01*
X120856769Y-117468849D01*
X120716778Y-117374616D01*
X120581298Y-117273569D01*
X120449913Y-117165390D01*
X120322203Y-117049762D01*
X120280616Y-117009742D01*
X120258743Y-116988138D01*
X120241223Y-116970357D01*
X120228257Y-116956680D01*
X120220050Y-116947388D01*
X120216803Y-116942759D01*
X120218721Y-116943074D01*
X120226006Y-116948614D01*
X120238860Y-116959657D01*
X120254558Y-116973800D01*
X120362754Y-117069653D01*
X120469788Y-117158156D01*
X120576801Y-117240110D01*
X120684934Y-117316312D01*
X120795327Y-117387561D01*
X120909122Y-117454655D01*
X121027458Y-117518394D01*
X121045817Y-117527789D01*
X121189797Y-117597061D01*
X121334936Y-117658978D01*
X121481872Y-117713718D01*
X121631244Y-117761461D01*
X121783689Y-117802385D01*
X121939846Y-117836670D01*
X122100353Y-117864494D01*
X122265849Y-117886036D01*
X122356033Y-117894987D01*
X122381299Y-117896717D01*
X122413792Y-117898128D01*
X122452277Y-117899226D01*
X122495519Y-117900015D01*
X122542286Y-117900501D01*
X122591341Y-117900688D01*
X122641452Y-117900581D01*
X122691384Y-117900185D01*
X122739903Y-117899505D01*
X122785775Y-117898546D01*
X122827765Y-117897312D01*
X122864640Y-117895809D01*
X122895164Y-117894041D01*
X122910600Y-117892792D01*
X123078657Y-117873633D01*
X123241490Y-117848191D01*
X123399743Y-117816287D01*
X123554059Y-117777740D01*
X123705083Y-117732370D01*
X123853460Y-117679996D01*
X123999833Y-117620440D01*
X124144847Y-117553520D01*
X124172133Y-117540041D01*
X124322929Y-117460091D01*
X124469035Y-117373165D01*
X124610249Y-117279432D01*
X124746371Y-117179058D01*
X124877201Y-117072211D01*
X125002538Y-116959058D01*
X125122181Y-116839766D01*
X125235930Y-116714503D01*
X125343584Y-116583436D01*
X125386906Y-116526734D01*
X125482006Y-116392861D01*
X125569868Y-116255232D01*
X125650735Y-116113405D01*
X125724844Y-115966938D01*
X125792437Y-115815387D01*
X125844564Y-115683270D01*
X125856766Y-115650490D01*
X125801159Y-115678355D01*
X125692869Y-115730932D01*
X125576994Y-115783993D01*
X125454372Y-115837196D01*
X125325844Y-115890205D01*
X125192251Y-115942678D01*
X125054432Y-115994276D01*
X124913228Y-116044661D01*
X124790200Y-116086605D01*
X124689861Y-116119661D01*
X124593569Y-116150473D01*
X124499618Y-116179536D01*
X124406300Y-116207347D01*
X124311908Y-116234403D01*
X124214735Y-116261199D01*
X124113073Y-116288232D01*
X124005216Y-116315999D01*
X123975283Y-116323568D01*
X123776317Y-116373699D01*
X123773320Y-116394125D01*
X123771922Y-116405253D01*
X123769981Y-116422890D01*
X123767698Y-116445109D01*
X123765272Y-116469985D01*
X123763690Y-116486920D01*
X123749657Y-116608624D01*
X123730309Y-116726666D01*
X123729280Y-116732050D01*
X123725165Y-116752501D01*
X123719971Y-116776863D01*
X123714011Y-116803809D01*
X123707601Y-116832008D01*
X123701052Y-116860132D01*
X123694680Y-116886853D01*
X123688798Y-116910840D01*
X123683720Y-116930765D01*
X123679758Y-116945299D01*
X123677228Y-116953112D01*
X123676964Y-116953674D01*
X123675865Y-116951496D01*
X123674621Y-116942038D01*
X123673330Y-116926482D01*
X123672089Y-116906010D01*
X123670993Y-116881805D01*
X123670909Y-116879591D01*
X123663512Y-116756815D01*
X123650716Y-116637510D01*
X123632692Y-116523176D01*
X123627803Y-116497631D01*
X123622051Y-116468769D01*
X123617556Y-116447201D01*
X123613948Y-116431911D01*
X123610854Y-116421884D01*
X123607903Y-116416105D01*
X123604724Y-116413559D01*
X123600946Y-116413230D01*
X123597168Y-116413897D01*
X123566842Y-116420284D01*
X123532197Y-116427509D01*
X123494517Y-116435311D01*
X123455086Y-116443428D01*
X123415187Y-116451598D01*
X123376106Y-116459561D01*
X123339125Y-116467053D01*
X123305528Y-116473814D01*
X123276599Y-116479581D01*
X123253623Y-116484093D01*
X123240134Y-116486672D01*
X123178086Y-116498258D01*
X123141165Y-116574937D01*
X123129943Y-116597897D01*
X123119945Y-116617695D01*
X123111734Y-116633268D01*
X123105875Y-116643554D01*
X123102931Y-116647490D01*
X123102725Y-116647384D01*
X123103294Y-116642069D01*
X123105838Y-116630063D01*
X123110010Y-116612815D01*
X123115464Y-116591776D01*
X123119890Y-116575457D01*
X123126048Y-116552914D01*
X123131242Y-116533442D01*
X123135120Y-116518405D01*
X123137327Y-116509168D01*
X123137680Y-116506870D01*
X123133433Y-116507265D01*
X123122286Y-116508939D01*
X123105674Y-116511661D01*
X123085028Y-116515197D01*
X123071317Y-116517611D01*
X123005850Y-116529247D01*
X122993042Y-116590432D01*
X122980235Y-116651617D01*
X122902026Y-116814196D01*
X122885507Y-116848321D01*
X122870117Y-116879707D01*
X122856233Y-116907612D01*
X122844235Y-116931292D01*
X122834501Y-116950005D01*
X122827411Y-116963009D01*
X122823342Y-116969561D01*
X122822506Y-116970071D01*
X122822564Y-116964375D01*
X122823331Y-116951287D01*
X122824726Y-116931846D01*
X122826670Y-116907090D01*
X122829081Y-116878056D01*
X122831878Y-116845784D01*
X122833980Y-116822309D01*
X122839052Y-116766009D01*
X122843341Y-116717646D01*
X122846882Y-116676726D01*
X122849713Y-116642760D01*
X122851870Y-116615256D01*
X122853390Y-116593722D01*
X122854311Y-116577668D01*
X122854670Y-116566603D01*
X122854502Y-116560034D01*
X122853882Y-116557505D01*
X122849169Y-116557418D01*
X122837262Y-116558514D01*
X122819326Y-116560647D01*
X122796529Y-116563672D01*
X122770038Y-116567442D01*
X122748685Y-116570635D01*
X122717539Y-116575342D01*
X122686766Y-116579915D01*
X122658137Y-116584096D01*
X122633426Y-116587628D01*
X122614404Y-116590253D01*
X122607458Y-116591160D01*
X122588870Y-116593769D01*
X122577379Y-116596176D01*
X122571635Y-116598798D01*
X122570292Y-116602053D01*
X122570394Y-116602655D01*
X122571798Y-116608531D01*
X122574916Y-116621375D01*
X122579443Y-116639932D01*
X122585072Y-116662949D01*
X122591497Y-116689171D01*
X122595193Y-116704239D01*
X122601843Y-116731534D01*
X122607754Y-116756183D01*
X122612640Y-116776962D01*
X122616215Y-116792648D01*
X122618195Y-116802017D01*
X122618500Y-116804041D01*
X122616038Y-116809521D01*
X122609537Y-116819531D01*
X122600324Y-116832053D01*
X122598833Y-116833969D01*
X122570629Y-116872321D01*
X122541321Y-116916466D01*
X122512270Y-116964095D01*
X122484836Y-117012900D01*
X122460379Y-117060573D01*
X122443055Y-117098234D01*
X122431195Y-117125750D01*
X122408264Y-117058017D01*
X122389530Y-117001814D01*
X122369840Y-116941190D01*
X122350030Y-116878789D01*
X122330934Y-116817258D01*
X122313384Y-116759244D01*
X122302884Y-116723584D01*
X122295410Y-116698104D01*
X122288617Y-116675420D01*
X122282892Y-116656779D01*
X122278620Y-116643431D01*
X122276185Y-116636623D01*
X122275885Y-116636060D01*
X122271291Y-116635695D01*
X122260213Y-116636167D01*
X122244570Y-116637292D01*
X122226283Y-116638882D01*
X122207272Y-116640753D01*
X122189457Y-116642718D01*
X122174758Y-116644591D01*
X122165096Y-116646187D01*
X122162337Y-116647057D01*
X122160838Y-116651683D01*
X122157917Y-116663330D01*
X122153851Y-116680721D01*
X122148917Y-116702583D01*
X122143392Y-116727640D01*
X122137553Y-116754618D01*
X122131679Y-116782243D01*
X122126046Y-116809239D01*
X122120931Y-116834332D01*
X122116611Y-116856248D01*
X122115063Y-116864403D01*
X122109865Y-116893197D01*
X122104090Y-116926822D01*
X122098331Y-116961725D01*
X122093184Y-116994351D01*
X122091583Y-117004931D01*
X122080561Y-117078846D01*
X122056372Y-117099744D01*
X122035697Y-117118473D01*
X122011318Y-117141943D01*
X121984907Y-117168422D01*
X121958135Y-117196178D01*
X121932673Y-117223476D01*
X121910194Y-117248585D01*
X121892483Y-117269628D01*
X121878687Y-117287527D01*
X121862251Y-117309946D01*
X121844332Y-117335196D01*
X121826085Y-117361594D01*
X121808665Y-117387451D01*
X121793229Y-117411082D01*
X121780931Y-117430800D01*
X121774876Y-117441250D01*
X121769590Y-117449663D01*
X121765961Y-117453269D01*
X121765519Y-117453164D01*
X121764227Y-117447932D01*
X121762687Y-117435137D01*
X121760950Y-117415674D01*
X121759069Y-117390443D01*
X121757096Y-117360340D01*
X121755082Y-117326263D01*
X121753080Y-117289109D01*
X121751142Y-117249775D01*
X121749319Y-117209160D01*
X121747664Y-117168160D01*
X121746228Y-117127672D01*
X121745699Y-117110934D01*
X121743752Y-117032011D01*
X121742920Y-116959180D01*
X121743196Y-116890136D01*
X121744572Y-116822580D01*
X121744807Y-116814600D01*
X121745792Y-116781961D01*
X121746681Y-116752197D01*
X121747444Y-116726322D01*
X121748053Y-116705347D01*
X121748477Y-116690284D01*
X121748686Y-116682144D01*
X121748701Y-116680983D01*
X121744639Y-116681145D01*
X121733392Y-116681753D01*
X121716229Y-116682733D01*
X121694415Y-116684014D01*
X121669217Y-116685522D01*
X121663883Y-116685844D01*
X121520414Y-116693309D01*
X121374313Y-116698545D01*
X121227175Y-116701555D01*
X121080597Y-116702339D01*
X120936177Y-116700897D01*
X120795510Y-116697231D01*
X120660192Y-116691340D01*
X120561100Y-116685321D01*
X120416572Y-116673654D01*
X120276997Y-116658948D01*
X120142691Y-116641274D01*
X120013972Y-116620704D01*
X119891157Y-116597310D01*
X119774561Y-116571162D01*
X119664504Y-116542332D01*
X119561301Y-116510892D01*
X119465269Y-116476914D01*
X119376726Y-116440467D01*
X119295988Y-116401625D01*
X119291100Y-116399062D01*
X119218235Y-116357459D01*
X119153053Y-116313537D01*
X119095638Y-116267393D01*
X119046075Y-116219123D01*
X119004448Y-116168822D01*
X118970842Y-116116587D01*
X118945341Y-116062515D01*
X118928029Y-116006701D01*
X118922710Y-115979671D01*
X118919476Y-115947345D01*
X118918970Y-115910120D01*
X118921026Y-115871056D01*
X118925478Y-115833212D01*
X118932160Y-115799646D01*
X118932555Y-115798115D01*
X118953047Y-115735318D01*
X118981837Y-115671786D01*
X119018795Y-115607617D01*
X119063794Y-115542911D01*
X119116704Y-115477765D01*
X119177398Y-115412280D01*
X119245746Y-115346552D01*
X119321621Y-115280680D01*
X119404894Y-115214764D01*
X119495436Y-115148902D01*
X119593119Y-115083192D01*
X119697815Y-115017733D01*
X119809395Y-114952624D01*
X119927730Y-114887962D01*
X120052693Y-114823848D01*
X120184155Y-114760378D01*
X120321986Y-114697653D01*
X120424276Y-114653355D01*
X120449321Y-114642591D01*
X120467424Y-114634422D01*
X120479517Y-114628330D01*
X120486533Y-114623801D01*
X120489403Y-114620320D01*
X120489135Y-114617504D01*
X120486899Y-114615757D01*
X120481603Y-114613861D01*
X120472631Y-114611719D01*
X120459367Y-114609237D01*
X120441195Y-114606320D01*
X120417498Y-114602873D01*
X120387661Y-114598800D01*
X120351068Y-114594007D01*
X120307101Y-114588397D01*
X120272476Y-114584043D01*
X120230995Y-114578824D01*
X120192121Y-114573886D01*
X120156650Y-114569333D01*
X120125381Y-114565270D01*
X120099111Y-114561801D01*
X120078638Y-114559031D01*
X120064759Y-114557064D01*
X120058272Y-114556006D01*
X120057892Y-114555891D01*
X120057791Y-114555144D01*
X120059442Y-114554295D01*
X120063482Y-114553256D01*
X120070547Y-114551935D01*
X120081273Y-114550244D01*
X120096296Y-114548092D01*
X120116254Y-114545391D01*
X120141783Y-114542049D01*
X120173518Y-114537978D01*
X120212096Y-114533087D01*
X120258153Y-114527287D01*
X120281528Y-114524352D01*
X120322177Y-114519234D01*
X120360178Y-114514420D01*
X120394722Y-114510014D01*
X120425000Y-114506119D01*
X120450205Y-114502842D01*
X120469527Y-114500285D01*
X120482159Y-114498555D01*
X120487291Y-114497755D01*
X120487365Y-114497728D01*
X120489542Y-114493766D01*
X120493958Y-114485231D01*
X120494637Y-114483898D01*
X120504525Y-114469276D01*
X120519076Y-114453347D01*
X120535520Y-114438850D01*
X120550139Y-114429024D01*
X120562035Y-114420129D01*
X120567329Y-114408980D01*
X120567501Y-114408053D01*
X120568490Y-114401314D01*
X120570454Y-114387080D01*
X120573273Y-114366250D01*
X120576826Y-114339722D01*
X120580995Y-114308397D01*
X120585658Y-114273174D01*
X120590696Y-114234953D01*
X120595192Y-114200708D01*
X120600413Y-114161119D01*
X120605348Y-114124159D01*
X120609882Y-114090665D01*
X120613898Y-114061472D01*
X120617281Y-114037415D01*
X120619914Y-114019331D01*
X120621683Y-114008055D01*
X120622439Y-114004417D01*
X120623236Y-114004186D01*
X120624106Y-114005512D01*
X120625142Y-114009045D01*
X120626442Y-114015435D01*
X120628101Y-114025331D01*
X120630214Y-114039382D01*
X120632878Y-114058237D01*
X120636187Y-114082547D01*
X120640238Y-114112960D01*
X120645127Y-114150126D01*
X120650949Y-114194693D01*
X120654465Y-114221684D01*
X120659755Y-114261727D01*
X120664846Y-114299138D01*
X120669616Y-114333089D01*
X120673942Y-114362757D01*
X120677700Y-114387317D01*
X120680768Y-114405944D01*
X120683022Y-114417812D01*
X120684332Y-114422094D01*
X120700670Y-114430932D01*
X120718824Y-114445423D01*
X120736793Y-114463666D01*
X120752575Y-114483757D01*
X120757950Y-114492090D01*
X120760222Y-114493910D01*
X120765302Y-114495830D01*
X120773840Y-114497953D01*
X120786485Y-114500378D01*
X120803884Y-114503209D01*
X120826686Y-114506546D01*
X120855541Y-114510491D01*
X120891096Y-114515146D01*
X120934001Y-114520612D01*
X120965383Y-114524553D01*
X121014860Y-114530752D01*
X121056568Y-114536008D01*
X121091145Y-114540410D01*
X121119224Y-114544048D01*
X121141442Y-114547012D01*
X121158435Y-114549392D01*
X121170837Y-114551278D01*
X121179284Y-114552760D01*
X121184412Y-114553926D01*
X121186855Y-114554869D01*
X121187251Y-114555676D01*
X121187074Y-114555897D01*
X121182696Y-114556699D01*
X121170712Y-114558442D01*
X121151922Y-114561022D01*
X121127121Y-114564334D01*
X121097108Y-114568271D01*
X121062680Y-114572729D01*
X121024633Y-114577602D01*
X120983765Y-114582786D01*
X120972359Y-114584225D01*
X120759201Y-114611068D01*
X120751524Y-114626116D01*
X120742006Y-114640066D01*
X120727765Y-114655617D01*
X120711448Y-114670208D01*
X120695707Y-114681278D01*
X120692817Y-114682866D01*
X120684030Y-114688203D01*
X120679722Y-114692373D01*
X120679633Y-114692777D01*
X120679094Y-114697742D01*
X120677567Y-114710091D01*
X120675183Y-114728815D01*
X120672077Y-114752905D01*
X120668381Y-114781352D01*
X120664229Y-114813148D01*
X120659752Y-114847284D01*
X120655085Y-114882752D01*
X120650361Y-114918542D01*
X120645711Y-114953646D01*
X120641270Y-114987056D01*
X120637171Y-115017763D01*
X120633546Y-115044758D01*
X120630529Y-115067032D01*
X120628252Y-115083578D01*
X120626848Y-115093386D01*
X120626553Y-115095241D01*
X120624506Y-115104273D01*
X120622733Y-115107983D01*
X120622525Y-115107903D01*
X120621681Y-115103526D01*
X120619862Y-115091582D01*
X120617181Y-115072900D01*
X120613753Y-115048311D01*
X120609693Y-115018643D01*
X120605115Y-114984726D01*
X120600134Y-114947389D01*
X120595140Y-114909562D01*
X120589833Y-114869269D01*
X120584795Y-114831212D01*
X120580146Y-114796284D01*
X120576005Y-114765377D01*
X120572494Y-114739385D01*
X120569732Y-114719201D01*
X120567838Y-114705716D01*
X120566977Y-114700050D01*
X120561163Y-114687801D01*
X120551243Y-114680576D01*
X120545302Y-114677858D01*
X120539752Y-114676700D01*
X120532927Y-114677470D01*
X120523160Y-114680538D01*
X120508787Y-114686272D01*
X120490570Y-114694002D01*
X120369056Y-114747549D01*
X120250010Y-114803164D01*
X120134245Y-114860406D01*
X120022575Y-114918833D01*
X119915815Y-114978003D01*
X119814779Y-115037474D01*
X119720281Y-115096804D01*
X119633135Y-115155552D01*
X119610717Y-115171439D01*
X119558171Y-115210476D01*
X119505662Y-115252095D01*
X119454226Y-115295346D01*
X119404897Y-115339274D01*
X119358714Y-115382928D01*
X119316711Y-115425355D01*
X119279926Y-115465602D01*
X119249394Y-115502718D01*
X119247229Y-115505555D01*
X119203307Y-115568386D01*
X119167746Y-115629985D01*
X119140538Y-115690300D01*
X119121674Y-115749280D01*
X119111147Y-115806874D01*
X119108948Y-115863032D01*
X119115068Y-115917701D01*
X119129499Y-115970832D01*
X119152233Y-116022373D01*
X119183262Y-116072274D01*
X119222577Y-116120483D01*
X119270170Y-116166949D01*
X119326032Y-116211621D01*
X119367300Y-116240015D01*
X119430143Y-116277409D01*
X119500837Y-116313095D01*
X119578911Y-116346926D01*
X119663896Y-116378755D01*
X119755319Y-116408434D01*
X119852711Y-116435817D01*
X119955601Y-116460755D01*
X120063519Y-116483103D01*
X120175993Y-116502712D01*
X120235988Y-116511758D01*
X120312751Y-116522305D01*
X120386735Y-116531547D01*
X120459289Y-116539588D01*
X120531764Y-116546536D01*
X120605511Y-116552496D01*
X120681880Y-116557575D01*
X120762220Y-116561877D01*
X120847882Y-116565509D01*
X120940216Y-116568577D01*
X120971497Y-116569460D01*
X121041051Y-116570861D01*
X121116301Y-116571497D01*
X121195638Y-116571399D01*
X121277452Y-116570603D01*
X121360133Y-116569141D01*
X121442072Y-116567047D01*
X121521660Y-116564354D01*
X121597286Y-116561096D01*
X121667341Y-116557306D01*
X121717749Y-116553953D01*
X121754682Y-116551252D01*
X121756630Y-116537934D01*
X121757520Y-116530106D01*
X121758987Y-116515166D01*
X121759295Y-116511839D01*
X122199400Y-116511839D01*
X122203064Y-116512951D01*
X122212010Y-116512928D01*
X122223171Y-116512035D01*
X122233478Y-116510537D01*
X122239864Y-116508696D01*
X122240403Y-116508308D01*
X122240032Y-116503857D01*
X122237819Y-116493154D01*
X122234180Y-116478105D01*
X122232010Y-116469752D01*
X122222161Y-116432651D01*
X122210780Y-116470572D01*
X122205814Y-116487457D01*
X122201946Y-116501251D01*
X122199724Y-116509969D01*
X122199400Y-116511839D01*
X121759295Y-116511839D01*
X121760912Y-116494436D01*
X121763172Y-116469244D01*
X121765646Y-116440913D01*
X121767537Y-116418784D01*
X121788129Y-116221752D01*
X121816672Y-116022764D01*
X121853049Y-115822427D01*
X121897140Y-115621349D01*
X121948829Y-115420137D01*
X121986771Y-115288484D01*
X122003318Y-115233450D01*
X121997766Y-115182650D01*
X121987969Y-115086741D01*
X121979758Y-114992270D01*
X121973045Y-114897597D01*
X121967737Y-114801082D01*
X121963746Y-114701085D01*
X121961102Y-114600567D01*
X122305301Y-114600567D01*
X122305730Y-114683448D01*
X122307092Y-114762735D01*
X122309478Y-114839746D01*
X122312978Y-114915801D01*
X122317686Y-114992220D01*
X122323692Y-115070322D01*
X122331088Y-115151428D01*
X122339965Y-115236855D01*
X122350416Y-115327925D01*
X122362530Y-115425956D01*
X122362544Y-115426067D01*
X122380905Y-115565686D01*
X122399611Y-115698459D01*
X122418929Y-115826005D01*
X122439129Y-115949943D01*
X122460476Y-116071893D01*
X122483240Y-116193475D01*
X122507687Y-116316309D01*
X122517716Y-116364809D01*
X122540043Y-116471700D01*
X122551521Y-116471700D01*
X122558618Y-116471107D01*
X122572890Y-116469433D01*
X122593140Y-116466837D01*
X122618166Y-116463476D01*
X122646770Y-116459508D01*
X122677753Y-116455093D01*
X122680708Y-116454666D01*
X122725255Y-116448191D01*
X122762146Y-116442765D01*
X122792113Y-116438274D01*
X122815887Y-116434604D01*
X122834199Y-116431644D01*
X122847779Y-116429280D01*
X122857360Y-116427398D01*
X122857979Y-116427264D01*
X122859903Y-116426862D01*
X122861566Y-116426139D01*
X122863029Y-116424469D01*
X122864353Y-116421223D01*
X122865596Y-116415774D01*
X122866821Y-116407493D01*
X122868086Y-116395753D01*
X122869453Y-116379925D01*
X122870981Y-116359382D01*
X122872731Y-116333496D01*
X122874763Y-116301638D01*
X122877138Y-116263182D01*
X122879915Y-116217499D01*
X122882978Y-116166900D01*
X122890254Y-116038184D01*
X122896665Y-115907142D01*
X122902205Y-115774537D01*
X122906868Y-115641128D01*
X122910648Y-115507675D01*
X122913539Y-115374940D01*
X122915534Y-115243682D01*
X122916627Y-115114662D01*
X122916813Y-114988640D01*
X122916085Y-114866377D01*
X122914436Y-114748634D01*
X122911862Y-114636170D01*
X122908355Y-114529746D01*
X122903910Y-114430123D01*
X122898520Y-114338061D01*
X122897807Y-114327517D01*
X122879531Y-114120148D01*
X122853141Y-113912169D01*
X122818598Y-113703385D01*
X122775867Y-113493602D01*
X122724911Y-113282625D01*
X122682975Y-113132237D01*
X123012188Y-113132237D01*
X123012934Y-113137579D01*
X123013494Y-113140067D01*
X123015337Y-113149537D01*
X123018195Y-113166316D01*
X123021908Y-113189326D01*
X123026315Y-113217492D01*
X123031256Y-113249736D01*
X123036570Y-113284982D01*
X123042097Y-113322154D01*
X123047676Y-113360175D01*
X123053147Y-113397969D01*
X123058349Y-113434459D01*
X123063122Y-113468569D01*
X123067305Y-113499222D01*
X123069361Y-113514717D01*
X123097840Y-113748194D01*
X123121259Y-113975645D01*
X123139625Y-114197827D01*
X123152945Y-114415496D01*
X123161229Y-114629408D01*
X123164483Y-114840320D01*
X123162715Y-115048988D01*
X123155933Y-115256168D01*
X123144146Y-115462616D01*
X123127360Y-115669090D01*
X123105584Y-115876344D01*
X123094698Y-115965817D01*
X123089278Y-116007511D01*
X123083201Y-116052320D01*
X123076649Y-116099033D01*
X123069805Y-116146442D01*
X123062852Y-116193339D01*
X123055973Y-116238515D01*
X123049350Y-116280761D01*
X123043167Y-116318868D01*
X123037606Y-116351628D01*
X123032851Y-116377832D01*
X123030745Y-116388523D01*
X123029687Y-116396897D01*
X123032897Y-116399203D01*
X123040344Y-116398016D01*
X123048866Y-116396344D01*
X123063806Y-116393559D01*
X123083241Y-116390016D01*
X123105250Y-116386066D01*
X123111209Y-116385006D01*
X123132449Y-116381146D01*
X123150516Y-116377688D01*
X123163867Y-116374940D01*
X123170955Y-116373213D01*
X123171670Y-116372908D01*
X123173431Y-116367997D01*
X123175713Y-116359461D01*
X123245033Y-116359461D01*
X123249042Y-116359168D01*
X123260533Y-116357290D01*
X123278702Y-116353986D01*
X123302746Y-116349410D01*
X123331860Y-116343720D01*
X123365240Y-116337071D01*
X123402082Y-116329621D01*
X123441583Y-116321524D01*
X123462399Y-116317216D01*
X123491720Y-116311053D01*
X123518270Y-116305328D01*
X123540932Y-116300295D01*
X123558592Y-116296206D01*
X123570132Y-116293312D01*
X123574412Y-116291899D01*
X123574564Y-116286431D01*
X123571809Y-116274127D01*
X123566510Y-116255963D01*
X123559028Y-116232912D01*
X123549724Y-116205949D01*
X123538960Y-116176051D01*
X123527097Y-116144190D01*
X123514498Y-116111343D01*
X123501522Y-116078484D01*
X123488532Y-116046588D01*
X123475889Y-116016631D01*
X123463955Y-115989585D01*
X123455862Y-115972167D01*
X123430593Y-115919250D01*
X123413505Y-115963700D01*
X123399029Y-116000571D01*
X123381769Y-116043228D01*
X123362519Y-116089783D01*
X123342071Y-116138348D01*
X123321221Y-116187037D01*
X123300759Y-116233960D01*
X123285638Y-116267992D01*
X123274180Y-116293571D01*
X123263975Y-116316429D01*
X123255502Y-116335483D01*
X123249244Y-116349651D01*
X123245679Y-116357851D01*
X123245033Y-116359461D01*
X123175713Y-116359461D01*
X123176688Y-116355817D01*
X123181215Y-116337389D01*
X123186784Y-116313732D01*
X123193165Y-116285866D01*
X123200132Y-116254812D01*
X123207456Y-116221589D01*
X123214910Y-116187219D01*
X123222266Y-116152720D01*
X123229295Y-116119114D01*
X123235771Y-116087420D01*
X123238500Y-116073767D01*
X123263413Y-115944067D01*
X123285329Y-115820976D01*
X123304376Y-115703234D01*
X123320687Y-115589581D01*
X123334392Y-115478758D01*
X123345620Y-115369507D01*
X123354503Y-115260567D01*
X123361171Y-115150679D01*
X123365754Y-115038583D01*
X123368382Y-114923022D01*
X123369187Y-114812233D01*
X123369070Y-114751454D01*
X123368604Y-114697504D01*
X123367723Y-114648754D01*
X123366360Y-114603571D01*
X123364450Y-114560323D01*
X123361927Y-114517381D01*
X123358725Y-114473111D01*
X123354777Y-114425882D01*
X123352591Y-114401600D01*
X123331853Y-114221867D01*
X123302751Y-114043365D01*
X123265313Y-113866204D01*
X123219568Y-113690496D01*
X123165544Y-113516349D01*
X123103269Y-113343874D01*
X123044208Y-113199451D01*
X123032296Y-113172051D01*
X123023360Y-113152060D01*
X123017179Y-113139048D01*
X123013529Y-113132584D01*
X123012188Y-113132237D01*
X122682975Y-113132237D01*
X122665693Y-113070262D01*
X122649230Y-113015747D01*
X122641614Y-112990911D01*
X122602874Y-113070781D01*
X122540196Y-113209175D01*
X122484927Y-113350473D01*
X122437301Y-113493937D01*
X122397553Y-113638828D01*
X122365917Y-113784411D01*
X122353945Y-113852695D01*
X122342084Y-113934679D01*
X122331776Y-114024140D01*
X122323074Y-114120220D01*
X122316037Y-114222061D01*
X122310718Y-114328805D01*
X122307174Y-114439597D01*
X122305461Y-114553577D01*
X122305301Y-114600567D01*
X121961102Y-114600567D01*
X121960980Y-114595965D01*
X121959351Y-114484150D01*
X121958944Y-114362587D01*
X121960164Y-114248418D01*
X121963116Y-114140709D01*
X121967908Y-114038526D01*
X121974644Y-113940934D01*
X121983432Y-113847000D01*
X121994377Y-113755788D01*
X122007585Y-113666364D01*
X122023163Y-113577794D01*
X122041217Y-113489144D01*
X122061852Y-113399479D01*
X122085176Y-113307864D01*
X122098552Y-113258600D01*
X122152676Y-113078579D01*
X122214579Y-112901040D01*
X122284037Y-112726478D01*
X122360824Y-112555384D01*
X122444715Y-112388251D01*
X122535487Y-112225572D01*
X122632913Y-112067841D01*
X122662818Y-112022437D01*
X122683296Y-111992052D01*
X122704206Y-111961495D01*
X122724742Y-111931907D01*
X122744101Y-111904425D01*
X122761476Y-111880189D01*
X122776064Y-111860339D01*
X122787060Y-111846014D01*
X122789882Y-111842550D01*
X122800496Y-111829850D01*
X122810040Y-111842090D01*
X122822746Y-111858952D01*
X122839167Y-111881605D01*
X122858403Y-111908746D01*
X122879557Y-111939066D01*
X122901728Y-111971259D01*
X122924018Y-112004019D01*
X122945527Y-112036039D01*
X122965357Y-112066013D01*
X122982609Y-112092635D01*
X122984664Y-112095857D01*
X123082673Y-112257772D01*
X123173441Y-112423981D01*
X123256855Y-112594213D01*
X123332805Y-112768197D01*
X123401180Y-112945663D01*
X123461868Y-113126340D01*
X123514758Y-113309957D01*
X123559740Y-113496243D01*
X123560077Y-113497784D01*
X123575672Y-113574183D01*
X123589517Y-113652714D01*
X123601753Y-113734482D01*
X123612522Y-113820591D01*
X123621967Y-113912146D01*
X123630231Y-114010253D01*
X123635294Y-114081984D01*
X123636618Y-114107616D01*
X123637759Y-114140628D01*
X123638716Y-114179933D01*
X123639489Y-114224447D01*
X123640078Y-114273082D01*
X123640483Y-114324755D01*
X123640705Y-114378378D01*
X123640743Y-114432868D01*
X123640597Y-114487137D01*
X123640267Y-114540101D01*
X123639752Y-114590674D01*
X123639054Y-114637770D01*
X123638172Y-114680304D01*
X123637106Y-114717190D01*
X123635856Y-114747343D01*
X123635309Y-114757200D01*
X123630578Y-114832411D01*
X123625950Y-114900690D01*
X123621309Y-114963568D01*
X123616536Y-115022578D01*
X123611515Y-115079250D01*
X123606621Y-115130156D01*
X123595827Y-115238528D01*
X123619768Y-115305839D01*
X123665149Y-115445093D01*
X123702751Y-115585987D01*
X123732679Y-115729074D01*
X123755033Y-115874903D01*
X123769916Y-116024028D01*
X123776814Y-116155259D01*
X123777715Y-116182147D01*
X123778609Y-116205940D01*
X123779443Y-116225423D01*
X123780163Y-116239382D01*
X123780716Y-116246603D01*
X123780885Y-116247334D01*
X123786013Y-116246329D01*
X123798318Y-116243485D01*
X123816775Y-116239059D01*
X123840356Y-116233306D01*
X123868037Y-116226484D01*
X123898791Y-116218849D01*
X123931593Y-116210656D01*
X123965415Y-116202163D01*
X123999232Y-116193625D01*
X124032018Y-116185300D01*
X124062748Y-116177443D01*
X124090394Y-116170312D01*
X124113931Y-116164161D01*
X124117100Y-116163324D01*
X124330967Y-116104572D01*
X124539649Y-116042882D01*
X124742675Y-115978418D01*
X124939576Y-115911342D01*
X125129882Y-115841817D01*
X125313124Y-115770007D01*
X125488831Y-115696074D01*
X125580218Y-115655415D01*
X125598396Y-115647038D01*
X125621196Y-115636331D01*
X125647660Y-115623760D01*
X125676832Y-115609792D01*
X125707754Y-115594895D01*
X125739469Y-115579535D01*
X125771018Y-115564179D01*
X125801445Y-115549294D01*
X125829793Y-115535347D01*
X125855102Y-115522806D01*
X125876417Y-115512136D01*
X125892780Y-115503805D01*
X125903233Y-115498280D01*
X125906707Y-115496186D01*
X125908572Y-115491463D01*
X125912118Y-115479736D01*
X125917027Y-115462231D01*
X125922983Y-115440172D01*
X125929668Y-115414785D01*
X125936766Y-115387293D01*
X125943961Y-115358921D01*
X125950934Y-115330894D01*
X125957370Y-115304437D01*
X125962951Y-115280775D01*
X125965231Y-115270690D01*
X126279017Y-115270690D01*
X126292638Y-115262653D01*
X126300361Y-115257571D01*
X126313482Y-115248372D01*
X126330637Y-115236036D01*
X126350462Y-115221541D01*
X126369830Y-115207185D01*
X126453171Y-115142231D01*
X126528435Y-115077771D01*
X126595573Y-115013861D01*
X126654536Y-114950558D01*
X126705276Y-114887917D01*
X126747745Y-114825995D01*
X126781893Y-114764846D01*
X126807673Y-114704528D01*
X126808854Y-114701214D01*
X126825366Y-114643020D01*
X126833629Y-114585596D01*
X126833645Y-114529229D01*
X126825416Y-114474204D01*
X126808942Y-114420807D01*
X126807542Y-114417292D01*
X126793757Y-114386847D01*
X126777449Y-114358339D01*
X126757469Y-114330149D01*
X126732666Y-114300655D01*
X126701891Y-114268238D01*
X126701550Y-114267894D01*
X126661513Y-114230126D01*
X126619808Y-114196154D01*
X126574663Y-114164727D01*
X126524308Y-114134592D01*
X126478679Y-114110370D01*
X126456881Y-114099642D01*
X126433182Y-114088512D01*
X126408840Y-114077514D01*
X126385120Y-114067179D01*
X126363281Y-114058041D01*
X126344585Y-114050632D01*
X126330294Y-114045486D01*
X126321669Y-114043135D01*
X126319771Y-114043251D01*
X126319648Y-114047866D01*
X126320502Y-114059441D01*
X126322195Y-114076541D01*
X126324589Y-114097733D01*
X126326623Y-114114355D01*
X126343707Y-114282029D01*
X126352801Y-114450116D01*
X126353911Y-114617908D01*
X126347044Y-114784699D01*
X126332206Y-114949780D01*
X126318003Y-115057767D01*
X126314578Y-115079885D01*
X126310345Y-115105771D01*
X126305582Y-115133867D01*
X126300566Y-115162617D01*
X126295577Y-115190464D01*
X126290892Y-115215853D01*
X126286788Y-115237225D01*
X126283545Y-115253025D01*
X126281776Y-115260537D01*
X126279017Y-115270690D01*
X125965231Y-115270690D01*
X125966522Y-115264980D01*
X125990741Y-115145375D01*
X126009987Y-115028578D01*
X126024526Y-114912272D01*
X126034628Y-114794136D01*
X126040560Y-114671851D01*
X126042002Y-114611150D01*
X126041631Y-114466030D01*
X126035556Y-114325620D01*
X126023583Y-114188204D01*
X126005520Y-114052065D01*
X125981172Y-113915486D01*
X125950347Y-113776750D01*
X125946240Y-113760020D01*
X125902260Y-113600107D01*
X125850363Y-113443162D01*
X125790591Y-113289262D01*
X125722984Y-113138486D01*
X125647584Y-112990911D01*
X125564432Y-112846614D01*
X125473570Y-112705674D01*
X125375038Y-112568167D01*
X125268879Y-112434173D01*
X125199070Y-112352694D01*
X125173857Y-112324870D01*
X125143682Y-112292802D01*
X125109918Y-112257861D01*
X125073941Y-112221416D01*
X125037126Y-112184838D01*
X125000846Y-112149496D01*
X124966478Y-112116762D01*
X124935395Y-112088006D01*
X124917200Y-112071741D01*
X124784333Y-111960629D01*
X124647258Y-111856805D01*
X124506108Y-111760338D01*
X124361019Y-111671301D01*
X124212125Y-111589763D01*
X124059562Y-111515796D01*
X123903464Y-111449471D01*
X123743967Y-111390858D01*
X123581206Y-111340029D01*
X123467283Y-111309586D01*
X123300783Y-111272381D01*
X123133353Y-111243441D01*
X122965305Y-111222719D01*
X122796949Y-111210170D01*
X122628597Y-111205747D01*
X122460558Y-111209404D01*
X122293145Y-111221095D01*
X122126669Y-111240773D01*
X121961439Y-111268393D01*
X121797768Y-111303907D01*
X121635966Y-111347271D01*
X121476344Y-111398437D01*
X121319213Y-111457359D01*
X121164884Y-111523992D01*
X121013668Y-111598289D01*
X120865876Y-111680203D01*
X120829916Y-111701615D01*
X120693778Y-111788149D01*
X120562417Y-111880379D01*
X120436691Y-111977661D01*
X120317452Y-112079352D01*
X120267740Y-112124881D01*
X120250795Y-112140440D01*
X120235975Y-112153469D01*
X120224366Y-112163062D01*
X120217051Y-112168308D01*
X120215094Y-112168939D01*
X120217112Y-112165218D01*
X120224626Y-112156482D01*
X120236904Y-112143454D01*
X120253213Y-112126855D01*
X120272821Y-112107406D01*
X120294997Y-112085828D01*
X120319007Y-112062844D01*
X120344120Y-112039175D01*
X120369604Y-112015542D01*
X120385791Y-112000750D01*
X120515584Y-111888577D01*
X120650469Y-111783071D01*
X120790158Y-111684364D01*
X120934363Y-111592586D01*
X121082794Y-111507868D01*
X121235165Y-111430341D01*
X121391186Y-111360135D01*
X121550568Y-111297380D01*
X121713025Y-111242208D01*
X121878267Y-111194749D01*
X122046006Y-111155133D01*
X122215954Y-111123492D01*
X122369025Y-111102122D01*
X122409969Y-111097376D01*
X122446435Y-111093375D01*
X122479673Y-111090056D01*
X122510929Y-111087355D01*
X122541451Y-111085212D01*
X122572487Y-111083564D01*
X122605285Y-111082348D01*
X122641093Y-111081501D01*
X122681158Y-111080962D01*
X122726729Y-111080669D01*
X122779053Y-111080557D01*
X122800533Y-111080550D01*
X122853945Y-111080599D01*
G36*
X122853945Y-111080599D02*
G01*
X122900144Y-111080783D01*
X122940384Y-111081162D01*
X122975918Y-111081795D01*
X123008000Y-111082740D01*
X123037882Y-111084057D01*
X123066820Y-111085805D01*
X123096065Y-111088041D01*
X123126872Y-111090826D01*
X123160494Y-111094219D01*
X123198185Y-111098277D01*
X123213283Y-111099945D01*
X123384470Y-111123162D01*
X123553771Y-111154540D01*
X123720907Y-111193943D01*
X123885596Y-111241236D01*
X124047559Y-111296282D01*
X124206517Y-111358946D01*
X124362189Y-111429092D01*
X124514295Y-111506584D01*
X124662556Y-111591286D01*
X124806692Y-111683063D01*
X124946423Y-111781778D01*
X125081468Y-111887296D01*
X125211548Y-111999480D01*
X125336383Y-112118195D01*
X125359619Y-112141614D01*
X125473388Y-112262377D01*
X125579350Y-112385379D01*
X125678028Y-112511354D01*
X125769948Y-112641037D01*
X125855633Y-112775164D01*
X125935608Y-112914469D01*
X126001016Y-113040583D01*
X126070375Y-113189728D01*
X126132550Y-113341958D01*
X126187269Y-113496469D01*
X126234259Y-113652454D01*
X126273249Y-113809108D01*
X126293501Y-113907347D01*
X126307741Y-113982478D01*
X126335312Y-113991468D01*
X126367563Y-114002706D01*
X126404776Y-114016861D01*
X126444427Y-114032896D01*
X126483992Y-114049774D01*
X126520946Y-114066458D01*
X126540683Y-114075878D01*
X126601087Y-114106993D01*
X126654574Y-114138005D01*
X126702621Y-114169923D01*
X126746704Y-114203753D01*
X126788301Y-114240504D01*
X126803795Y-114255477D01*
X126843983Y-114298304D01*
X126876862Y-114340459D01*
X126903318Y-114383397D01*
X126924239Y-114428569D01*
X126940510Y-114477430D01*
X126941570Y-114481291D01*
X126946581Y-114506742D01*
X126949831Y-114537912D01*
X126951295Y-114572235D01*
X126950949Y-114607142D01*
X126948770Y-114640067D01*
X126944731Y-114668442D01*
X126943399Y-114674650D01*
X126924206Y-114739747D01*
X126897011Y-114804968D01*
X126861769Y-114870363D01*
X126818436Y-114935982D01*
X126766966Y-115001877D01*
X126707314Y-115068099D01*
X126639435Y-115134697D01*
X126563283Y-115201724D01*
X126478815Y-115269229D01*
X126385984Y-115337263D01*
X126305165Y-115392439D01*
X126240781Y-115435109D01*
X126218500Y-115512079D01*
X126168626Y-115669347D01*
X126110648Y-115824821D01*
X126044840Y-115977939D01*
X125971475Y-116128139D01*
X125890826Y-116274858D01*
X125803165Y-116417535D01*
X125717300Y-116543710D01*
X125613862Y-116681353D01*
X125504022Y-116813541D01*
X125388011Y-116940077D01*
X125266062Y-117060764D01*
X125138409Y-117175405D01*
X125005283Y-117283804D01*
X124866918Y-117385763D01*
X124723545Y-117481085D01*
X124575399Y-117569574D01*
X124422711Y-117651033D01*
X124388033Y-117668236D01*
X124232024Y-117739895D01*
X124072496Y-117803986D01*
X123909902Y-117860406D01*
X123744693Y-117909050D01*
X123577321Y-117949818D01*
X123408240Y-117982605D01*
X123237900Y-118007309D01*
X123066755Y-118023827D01*
X122895257Y-118032056D01*
X122785716Y-118032926D01*
X122755941Y-118032652D01*
X122727290Y-118032309D01*
X122701435Y-118031925D01*
X122680047Y-118031524D01*
X122664795Y-118031133D01*
X122660833Y-118030988D01*
X122481939Y-118019280D01*
X122305985Y-117999635D01*
X122132933Y-117972042D01*
X121962747Y-117936492D01*
X121795391Y-117892974D01*
X121630829Y-117841477D01*
X121469025Y-117781991D01*
X121309941Y-117714505D01*
X121153541Y-117639010D01*
X121001691Y-117556585D01*
X120856769Y-117468849D01*
X120716778Y-117374616D01*
X120581298Y-117273569D01*
X120449913Y-117165390D01*
X120322203Y-117049762D01*
X120280616Y-117009742D01*
X120258743Y-116988138D01*
X120241223Y-116970357D01*
X120228257Y-116956680D01*
X120220050Y-116947388D01*
X120216803Y-116942759D01*
X120218721Y-116943074D01*
X120226006Y-116948614D01*
X120238860Y-116959657D01*
X120254558Y-116973800D01*
X120362754Y-117069653D01*
X120469788Y-117158156D01*
X120576801Y-117240110D01*
X120684934Y-117316312D01*
X120795327Y-117387561D01*
X120909122Y-117454655D01*
X121027458Y-117518394D01*
X121045817Y-117527789D01*
X121189797Y-117597061D01*
X121334936Y-117658978D01*
X121481872Y-117713718D01*
X121631244Y-117761461D01*
X121783689Y-117802385D01*
X121939846Y-117836670D01*
X122100353Y-117864494D01*
X122265849Y-117886036D01*
X122356033Y-117894987D01*
X122381299Y-117896717D01*
X122413792Y-117898128D01*
X122452277Y-117899226D01*
X122495519Y-117900015D01*
X122542286Y-117900501D01*
X122591341Y-117900688D01*
X122641452Y-117900581D01*
X122691384Y-117900185D01*
X122739903Y-117899505D01*
X122785775Y-117898546D01*
X122827765Y-117897312D01*
X122864640Y-117895809D01*
X122895164Y-117894041D01*
X122910600Y-117892792D01*
X123078657Y-117873633D01*
X123241490Y-117848191D01*
X123399743Y-117816287D01*
X123554059Y-117777740D01*
X123705083Y-117732370D01*
X123853460Y-117679996D01*
X123999833Y-117620440D01*
X124144847Y-117553520D01*
X124172133Y-117540041D01*
X124322929Y-117460091D01*
X124469035Y-117373165D01*
X124610249Y-117279432D01*
X124746371Y-117179058D01*
X124877201Y-117072211D01*
X125002538Y-116959058D01*
X125122181Y-116839766D01*
X125235930Y-116714503D01*
X125343584Y-116583436D01*
X125386906Y-116526734D01*
X125482006Y-116392861D01*
X125569868Y-116255232D01*
X125650735Y-116113405D01*
X125724844Y-115966938D01*
X125792437Y-115815387D01*
X125844564Y-115683270D01*
X125856766Y-115650490D01*
X125801159Y-115678355D01*
X125692869Y-115730932D01*
X125576994Y-115783993D01*
X125454372Y-115837196D01*
X125325844Y-115890205D01*
X125192251Y-115942678D01*
X125054432Y-115994276D01*
X124913228Y-116044661D01*
X124790200Y-116086605D01*
X124689861Y-116119661D01*
X124593569Y-116150473D01*
X124499618Y-116179536D01*
X124406300Y-116207347D01*
X124311908Y-116234403D01*
X124214735Y-116261199D01*
X124113073Y-116288232D01*
X124005216Y-116315999D01*
X123975283Y-116323568D01*
X123776317Y-116373699D01*
X123773320Y-116394125D01*
X123771922Y-116405253D01*
X123769981Y-116422890D01*
X123767698Y-116445109D01*
X123765272Y-116469985D01*
X123763690Y-116486920D01*
X123749657Y-116608624D01*
X123730309Y-116726666D01*
X123729280Y-116732050D01*
X123725165Y-116752501D01*
X123719971Y-116776863D01*
X123714011Y-116803809D01*
X123707601Y-116832008D01*
X123701052Y-116860132D01*
X123694680Y-116886853D01*
X123688798Y-116910840D01*
X123683720Y-116930765D01*
X123679758Y-116945299D01*
X123677228Y-116953112D01*
X123676964Y-116953674D01*
X123675865Y-116951496D01*
X123674621Y-116942038D01*
X123673330Y-116926482D01*
X123672089Y-116906010D01*
X123670993Y-116881805D01*
X123670909Y-116879591D01*
X123663512Y-116756815D01*
X123650716Y-116637510D01*
X123632692Y-116523176D01*
X123627803Y-116497631D01*
X123622051Y-116468769D01*
X123617556Y-116447201D01*
X123613948Y-116431911D01*
X123610854Y-116421884D01*
X123607903Y-116416105D01*
X123604724Y-116413559D01*
X123600946Y-116413230D01*
X123597168Y-116413897D01*
X123566842Y-116420284D01*
X123532197Y-116427509D01*
X123494517Y-116435311D01*
X123455086Y-116443428D01*
X123415187Y-116451598D01*
X123376106Y-116459561D01*
X123339125Y-116467053D01*
X123305528Y-116473814D01*
X123276599Y-116479581D01*
X123253623Y-116484093D01*
X123240134Y-116486672D01*
X123178086Y-116498258D01*
X123141165Y-116574937D01*
X123129943Y-116597897D01*
X123119945Y-116617695D01*
X123111734Y-116633268D01*
X123105875Y-116643554D01*
X123102931Y-116647490D01*
X123102725Y-116647384D01*
X123103294Y-116642069D01*
X123105838Y-116630063D01*
X123110010Y-116612815D01*
X123115464Y-116591776D01*
X123119890Y-116575457D01*
X123126048Y-116552914D01*
X123131242Y-116533442D01*
X123135120Y-116518405D01*
X123137327Y-116509168D01*
X123137680Y-116506870D01*
X123133433Y-116507265D01*
X123122286Y-116508939D01*
X123105674Y-116511661D01*
X123085028Y-116515197D01*
X123071317Y-116517611D01*
X123005850Y-116529247D01*
X122993042Y-116590432D01*
X122980235Y-116651617D01*
X122902026Y-116814196D01*
X122885507Y-116848321D01*
X122870117Y-116879707D01*
X122856233Y-116907612D01*
X122844235Y-116931292D01*
X122834501Y-116950005D01*
X122827411Y-116963009D01*
X122823342Y-116969561D01*
X122822506Y-116970071D01*
X122822564Y-116964375D01*
X122823331Y-116951287D01*
X122824726Y-116931846D01*
X122826670Y-116907090D01*
X122829081Y-116878056D01*
X122831878Y-116845784D01*
X122833980Y-116822309D01*
X122839052Y-116766009D01*
X122843341Y-116717646D01*
X122846882Y-116676726D01*
X122849713Y-116642760D01*
X122851870Y-116615256D01*
X122853390Y-116593722D01*
X122854311Y-116577668D01*
X122854670Y-116566603D01*
X122854502Y-116560034D01*
X122853882Y-116557505D01*
X122849169Y-116557418D01*
X122837262Y-116558514D01*
X122819326Y-116560647D01*
X122796529Y-116563672D01*
X122770038Y-116567442D01*
X122748685Y-116570635D01*
X122717539Y-116575342D01*
X122686766Y-116579915D01*
X122658137Y-116584096D01*
X122633426Y-116587628D01*
X122614404Y-116590253D01*
X122607458Y-116591160D01*
X122588870Y-116593769D01*
X122577379Y-116596176D01*
X122571635Y-116598798D01*
X122570292Y-116602053D01*
X122570394Y-116602655D01*
X122571798Y-116608531D01*
X122574916Y-116621375D01*
X122579443Y-116639932D01*
X122585072Y-116662949D01*
X122591497Y-116689171D01*
X122595193Y-116704239D01*
X122601843Y-116731534D01*
X122607754Y-116756183D01*
X122612640Y-116776962D01*
X122616215Y-116792648D01*
X122618195Y-116802017D01*
X122618500Y-116804041D01*
X122616038Y-116809521D01*
X122609537Y-116819531D01*
X122600324Y-116832053D01*
X122598833Y-116833969D01*
X122570629Y-116872321D01*
X122541321Y-116916466D01*
X122512270Y-116964095D01*
X122484836Y-117012900D01*
X122460379Y-117060573D01*
X122443055Y-117098234D01*
X122431195Y-117125750D01*
X122408264Y-117058017D01*
X122389530Y-117001814D01*
X122369840Y-116941190D01*
X122350030Y-116878789D01*
X122330934Y-116817258D01*
X122313384Y-116759244D01*
X122302884Y-116723584D01*
X122295410Y-116698104D01*
X122288617Y-116675420D01*
X122282892Y-116656779D01*
X122278620Y-116643431D01*
X122276185Y-116636623D01*
X122275885Y-116636060D01*
X122271291Y-116635695D01*
X122260213Y-116636167D01*
X122244570Y-116637292D01*
X122226283Y-116638882D01*
X122207272Y-116640753D01*
X122189457Y-116642718D01*
X122174758Y-116644591D01*
X122165096Y-116646187D01*
X122162337Y-116647057D01*
X122160838Y-116651683D01*
X122157917Y-116663330D01*
X122153851Y-116680721D01*
X122148917Y-116702583D01*
X122143392Y-116727640D01*
X122137553Y-116754618D01*
X122131679Y-116782243D01*
X122126046Y-116809239D01*
X122120931Y-116834332D01*
X122116611Y-116856248D01*
X122115063Y-116864403D01*
X122109865Y-116893197D01*
X122104090Y-116926822D01*
X122098331Y-116961725D01*
X122093184Y-116994351D01*
X122091583Y-117004931D01*
X122080561Y-117078846D01*
X122056372Y-117099744D01*
X122035697Y-117118473D01*
X122011318Y-117141943D01*
X121984907Y-117168422D01*
X121958135Y-117196178D01*
X121932673Y-117223476D01*
X121910194Y-117248585D01*
X121892483Y-117269628D01*
X121878687Y-117287527D01*
X121862251Y-117309946D01*
X121844332Y-117335196D01*
X121826085Y-117361594D01*
X121808665Y-117387451D01*
X121793229Y-117411082D01*
X121780931Y-117430800D01*
X121774876Y-117441250D01*
X121769590Y-117449663D01*
X121765961Y-117453269D01*
X121765519Y-117453164D01*
X121764227Y-117447932D01*
X121762687Y-117435137D01*
X121760950Y-117415674D01*
X121759069Y-117390443D01*
X121757096Y-117360340D01*
X121755082Y-117326263D01*
X121753080Y-117289109D01*
X121751142Y-117249775D01*
X121749319Y-117209160D01*
X121747664Y-117168160D01*
X121746228Y-117127672D01*
X121745699Y-117110934D01*
X121743752Y-117032011D01*
X121742920Y-116959180D01*
X121743196Y-116890136D01*
X121744572Y-116822580D01*
X121744807Y-116814600D01*
X121745792Y-116781961D01*
X121746681Y-116752197D01*
X121747444Y-116726322D01*
X121748053Y-116705347D01*
X121748477Y-116690284D01*
X121748686Y-116682144D01*
X121748701Y-116680983D01*
X121744639Y-116681145D01*
X121733392Y-116681753D01*
X121716229Y-116682733D01*
X121694415Y-116684014D01*
X121669217Y-116685522D01*
X121663883Y-116685844D01*
X121520414Y-116693309D01*
X121374313Y-116698545D01*
X121227175Y-116701555D01*
X121080597Y-116702339D01*
X120936177Y-116700897D01*
X120795510Y-116697231D01*
X120660192Y-116691340D01*
X120561100Y-116685321D01*
X120416572Y-116673654D01*
X120276997Y-116658948D01*
X120142691Y-116641274D01*
X120013972Y-116620704D01*
X119891157Y-116597310D01*
X119774561Y-116571162D01*
X119664504Y-116542332D01*
X119561301Y-116510892D01*
X119465269Y-116476914D01*
X119376726Y-116440467D01*
X119295988Y-116401625D01*
X119291100Y-116399062D01*
X119218235Y-116357459D01*
X119153053Y-116313537D01*
X119095638Y-116267393D01*
X119046075Y-116219123D01*
X119004448Y-116168822D01*
X118970842Y-116116587D01*
X118945341Y-116062515D01*
X118928029Y-116006701D01*
X118922710Y-115979671D01*
X118919476Y-115947345D01*
X118918970Y-115910120D01*
X118921026Y-115871056D01*
X118925478Y-115833212D01*
X118932160Y-115799646D01*
X118932555Y-115798115D01*
X118953047Y-115735318D01*
X118981837Y-115671786D01*
X119018795Y-115607617D01*
X119063794Y-115542911D01*
X119116704Y-115477765D01*
X119177398Y-115412280D01*
X119245746Y-115346552D01*
X119321621Y-115280680D01*
X119404894Y-115214764D01*
X119495436Y-115148902D01*
X119593119Y-115083192D01*
X119697815Y-115017733D01*
X119809395Y-114952624D01*
X119927730Y-114887962D01*
X120052693Y-114823848D01*
X120184155Y-114760378D01*
X120321986Y-114697653D01*
X120424276Y-114653355D01*
X120449321Y-114642591D01*
X120467424Y-114634422D01*
X120479517Y-114628330D01*
X120486533Y-114623801D01*
X120489403Y-114620320D01*
X120489135Y-114617504D01*
X120486899Y-114615757D01*
X120481603Y-114613861D01*
X120472631Y-114611719D01*
X120459367Y-114609237D01*
X120441195Y-114606320D01*
X120417498Y-114602873D01*
X120387661Y-114598800D01*
X120351068Y-114594007D01*
X120307101Y-114588397D01*
X120272476Y-114584043D01*
X120230995Y-114578824D01*
X120192121Y-114573886D01*
X120156650Y-114569333D01*
X120125381Y-114565270D01*
X120099111Y-114561801D01*
X120078638Y-114559031D01*
X120064759Y-114557064D01*
X120058272Y-114556006D01*
X120057892Y-114555891D01*
X120057791Y-114555144D01*
X120059442Y-114554295D01*
X120063482Y-114553256D01*
X120070547Y-114551935D01*
X120081273Y-114550244D01*
X120096296Y-114548092D01*
X120116254Y-114545391D01*
X120141783Y-114542049D01*
X120173518Y-114537978D01*
X120212096Y-114533087D01*
X120258153Y-114527287D01*
X120281528Y-114524352D01*
X120322177Y-114519234D01*
X120360178Y-114514420D01*
X120394722Y-114510014D01*
X120425000Y-114506119D01*
X120450205Y-114502842D01*
X120469527Y-114500285D01*
X120482159Y-114498555D01*
X120487291Y-114497755D01*
X120487365Y-114497728D01*
X120489542Y-114493766D01*
X120493958Y-114485231D01*
X120494637Y-114483898D01*
X120504525Y-114469276D01*
X120519076Y-114453347D01*
X120535520Y-114438850D01*
X120550139Y-114429024D01*
X120562035Y-114420129D01*
X120567329Y-114408980D01*
X120567501Y-114408053D01*
X120568490Y-114401314D01*
X120570454Y-114387080D01*
X120573273Y-114366250D01*
X120576826Y-114339722D01*
X120580995Y-114308397D01*
X120585658Y-114273174D01*
X120590696Y-114234953D01*
X120595192Y-114200708D01*
X120600413Y-114161119D01*
X120605348Y-114124159D01*
X120609882Y-114090665D01*
X120613898Y-114061472D01*
X120617281Y-114037415D01*
X120619914Y-114019331D01*
X120621683Y-114008055D01*
X120622439Y-114004417D01*
X120623236Y-114004186D01*
X120624106Y-114005512D01*
X120625142Y-114009045D01*
X120626442Y-114015435D01*
X120628101Y-114025331D01*
X120630214Y-114039382D01*
X120632878Y-114058237D01*
X120636187Y-114082547D01*
X120640238Y-114112960D01*
X120645127Y-114150126D01*
X120650949Y-114194693D01*
X120654465Y-114221684D01*
X120659755Y-114261727D01*
X120664846Y-114299138D01*
X120669616Y-114333089D01*
X120673942Y-114362757D01*
X120677700Y-114387317D01*
X120680768Y-114405944D01*
X120683022Y-114417812D01*
X120684332Y-114422094D01*
X120700670Y-114430932D01*
X120718824Y-114445423D01*
X120736793Y-114463666D01*
X120752575Y-114483757D01*
X120757950Y-114492090D01*
X120760222Y-114493910D01*
X120765302Y-114495830D01*
X120773840Y-114497953D01*
X120786485Y-114500378D01*
X120803884Y-114503209D01*
X120826686Y-114506546D01*
X120855541Y-114510491D01*
X120891096Y-114515146D01*
X120934001Y-114520612D01*
X120965383Y-114524553D01*
X121014860Y-114530752D01*
X121056568Y-114536008D01*
X121091145Y-114540410D01*
X121119224Y-114544048D01*
X121141442Y-114547012D01*
X121158435Y-114549392D01*
X121170837Y-114551278D01*
X121179284Y-114552760D01*
X121184412Y-114553926D01*
X121186855Y-114554869D01*
X121187251Y-114555676D01*
X121187074Y-114555897D01*
X121182696Y-114556699D01*
X121170712Y-114558442D01*
X121151922Y-114561022D01*
X121127121Y-114564334D01*
X121097108Y-114568271D01*
X121062680Y-114572729D01*
X121024633Y-114577602D01*
X120983765Y-114582786D01*
X120972359Y-114584225D01*
X120759201Y-114611068D01*
X120751524Y-114626116D01*
X120742006Y-114640066D01*
X120727765Y-114655617D01*
X120711448Y-114670208D01*
X120695707Y-114681278D01*
X120692817Y-114682866D01*
X120684030Y-114688203D01*
X120679722Y-114692373D01*
X120679633Y-114692777D01*
X120679094Y-114697742D01*
X120677567Y-114710091D01*
X120675183Y-114728815D01*
X120672077Y-114752905D01*
X120668381Y-114781352D01*
X120664229Y-114813148D01*
X120659752Y-114847284D01*
X120655085Y-114882752D01*
X120650361Y-114918542D01*
X120645711Y-114953646D01*
X120641270Y-114987056D01*
X120637171Y-115017763D01*
X120633546Y-115044758D01*
X120630529Y-115067032D01*
X120628252Y-115083578D01*
X120626848Y-115093386D01*
X120626553Y-115095241D01*
X120624506Y-115104273D01*
X120622733Y-115107983D01*
X120622525Y-115107903D01*
X120621681Y-115103526D01*
X120619862Y-115091582D01*
X120617181Y-115072900D01*
X120613753Y-115048311D01*
X120609693Y-115018643D01*
X120605115Y-114984726D01*
X120600134Y-114947389D01*
X120595140Y-114909562D01*
X120589833Y-114869269D01*
X120584795Y-114831212D01*
X120580146Y-114796284D01*
X120576005Y-114765377D01*
X120572494Y-114739385D01*
X120569732Y-114719201D01*
X120567838Y-114705716D01*
X120566977Y-114700050D01*
X120561163Y-114687801D01*
X120551243Y-114680576D01*
X120545302Y-114677858D01*
X120539752Y-114676700D01*
X120532927Y-114677470D01*
X120523160Y-114680538D01*
X120508787Y-114686272D01*
X120490570Y-114694002D01*
X120369056Y-114747549D01*
X120250010Y-114803164D01*
X120134245Y-114860406D01*
X120022575Y-114918833D01*
X119915815Y-114978003D01*
X119814779Y-115037474D01*
X119720281Y-115096804D01*
X119633135Y-115155552D01*
X119610717Y-115171439D01*
X119558171Y-115210476D01*
X119505662Y-115252095D01*
X119454226Y-115295346D01*
X119404897Y-115339274D01*
X119358714Y-115382928D01*
X119316711Y-115425355D01*
X119279926Y-115465602D01*
X119249394Y-115502718D01*
X119247229Y-115505555D01*
X119203307Y-115568386D01*
X119167746Y-115629985D01*
X119140538Y-115690300D01*
X119121674Y-115749280D01*
X119111147Y-115806874D01*
X119108948Y-115863032D01*
X119115068Y-115917701D01*
X119129499Y-115970832D01*
X119152233Y-116022373D01*
X119183262Y-116072274D01*
X119222577Y-116120483D01*
X119270170Y-116166949D01*
X119326032Y-116211621D01*
X119367300Y-116240015D01*
X119430143Y-116277409D01*
X119500837Y-116313095D01*
X119578911Y-116346926D01*
X119663896Y-116378755D01*
X119755319Y-116408434D01*
X119852711Y-116435817D01*
X119955601Y-116460755D01*
X120063519Y-116483103D01*
X120175993Y-116502712D01*
X120235988Y-116511758D01*
X120312751Y-116522305D01*
X120386735Y-116531547D01*
X120459289Y-116539588D01*
X120531764Y-116546536D01*
X120605511Y-116552496D01*
X120681880Y-116557575D01*
X120762220Y-116561877D01*
X120847882Y-116565509D01*
X120940216Y-116568577D01*
X120971497Y-116569460D01*
X121041051Y-116570861D01*
X121116301Y-116571497D01*
X121195638Y-116571399D01*
X121277452Y-116570603D01*
X121360133Y-116569141D01*
X121442072Y-116567047D01*
X121521660Y-116564354D01*
X121597286Y-116561096D01*
X121667341Y-116557306D01*
X121717749Y-116553953D01*
X121754682Y-116551252D01*
X121756630Y-116537934D01*
X121757520Y-116530106D01*
X121758987Y-116515166D01*
X121759295Y-116511839D01*
X122199400Y-116511839D01*
X122203064Y-116512951D01*
X122212010Y-116512928D01*
X122223171Y-116512035D01*
X122233478Y-116510537D01*
X122239864Y-116508696D01*
X122240403Y-116508308D01*
X122240032Y-116503857D01*
X122237819Y-116493154D01*
X122234180Y-116478105D01*
X122232010Y-116469752D01*
X122222161Y-116432651D01*
X122210780Y-116470572D01*
X122205814Y-116487457D01*
X122201946Y-116501251D01*
X122199724Y-116509969D01*
X122199400Y-116511839D01*
X121759295Y-116511839D01*
X121760912Y-116494436D01*
X121763172Y-116469244D01*
X121765646Y-116440913D01*
X121767537Y-116418784D01*
X121788129Y-116221752D01*
X121816672Y-116022764D01*
X121853049Y-115822427D01*
X121897140Y-115621349D01*
X121948829Y-115420137D01*
X121986771Y-115288484D01*
X122003318Y-115233450D01*
X121997766Y-115182650D01*
X121987969Y-115086741D01*
X121979758Y-114992270D01*
X121973045Y-114897597D01*
X121967737Y-114801082D01*
X121963746Y-114701085D01*
X121961102Y-114600567D01*
X122305301Y-114600567D01*
X122305730Y-114683448D01*
X122307092Y-114762735D01*
X122309478Y-114839746D01*
X122312978Y-114915801D01*
X122317686Y-114992220D01*
X122323692Y-115070322D01*
X122331088Y-115151428D01*
X122339965Y-115236855D01*
X122350416Y-115327925D01*
X122362530Y-115425956D01*
X122362544Y-115426067D01*
X122380905Y-115565686D01*
X122399611Y-115698459D01*
X122418929Y-115826005D01*
X122439129Y-115949943D01*
X122460476Y-116071893D01*
X122483240Y-116193475D01*
X122507687Y-116316309D01*
X122517716Y-116364809D01*
X122540043Y-116471700D01*
X122551521Y-116471700D01*
X122558618Y-116471107D01*
X122572890Y-116469433D01*
X122593140Y-116466837D01*
X122618166Y-116463476D01*
X122646770Y-116459508D01*
X122677753Y-116455093D01*
X122680708Y-116454666D01*
X122725255Y-116448191D01*
X122762146Y-116442765D01*
X122792113Y-116438274D01*
X122815887Y-116434604D01*
X122834199Y-116431644D01*
X122847779Y-116429280D01*
X122857360Y-116427398D01*
X122857979Y-116427264D01*
X122859903Y-116426862D01*
X122861566Y-116426139D01*
X122863029Y-116424469D01*
X122864353Y-116421223D01*
X122865596Y-116415774D01*
X122866821Y-116407493D01*
X122868086Y-116395753D01*
X122869453Y-116379925D01*
X122870981Y-116359382D01*
X122872731Y-116333496D01*
X122874763Y-116301638D01*
X122877138Y-116263182D01*
X122879915Y-116217499D01*
X122882978Y-116166900D01*
X122890254Y-116038184D01*
X122896665Y-115907142D01*
X122902205Y-115774537D01*
X122906868Y-115641128D01*
X122910648Y-115507675D01*
X122913539Y-115374940D01*
X122915534Y-115243682D01*
X122916627Y-115114662D01*
X122916813Y-114988640D01*
X122916085Y-114866377D01*
X122914436Y-114748634D01*
X122911862Y-114636170D01*
X122908355Y-114529746D01*
X122903910Y-114430123D01*
X122898520Y-114338061D01*
X122897807Y-114327517D01*
X122879531Y-114120148D01*
X122853141Y-113912169D01*
X122818598Y-113703385D01*
X122775867Y-113493602D01*
X122724911Y-113282625D01*
X122682975Y-113132237D01*
X123012188Y-113132237D01*
X123012934Y-113137579D01*
X123013494Y-113140067D01*
X123015337Y-113149537D01*
X123018195Y-113166316D01*
X123021908Y-113189326D01*
X123026315Y-113217492D01*
X123031256Y-113249736D01*
X123036570Y-113284982D01*
X123042097Y-113322154D01*
X123047676Y-113360175D01*
X123053147Y-113397969D01*
X123058349Y-113434459D01*
X123063122Y-113468569D01*
X123067305Y-113499222D01*
X123069361Y-113514717D01*
X123097840Y-113748194D01*
X123121259Y-113975645D01*
X123139625Y-114197827D01*
X123152945Y-114415496D01*
X123161229Y-114629408D01*
X123164483Y-114840320D01*
X123162715Y-115048988D01*
X123155933Y-115256168D01*
X123144146Y-115462616D01*
X123127360Y-115669090D01*
X123105584Y-115876344D01*
X123094698Y-115965817D01*
X123089278Y-116007511D01*
X123083201Y-116052320D01*
X123076649Y-116099033D01*
X123069805Y-116146442D01*
X123062852Y-116193339D01*
X123055973Y-116238515D01*
X123049350Y-116280761D01*
X123043167Y-116318868D01*
X123037606Y-116351628D01*
X123032851Y-116377832D01*
X123030745Y-116388523D01*
X123029687Y-116396897D01*
X123032897Y-116399203D01*
X123040344Y-116398016D01*
X123048866Y-116396344D01*
X123063806Y-116393559D01*
X123083241Y-116390016D01*
X123105250Y-116386066D01*
X123111209Y-116385006D01*
X123132449Y-116381146D01*
X123150516Y-116377688D01*
X123163867Y-116374940D01*
X123170955Y-116373213D01*
X123171670Y-116372908D01*
X123173431Y-116367997D01*
X123175713Y-116359461D01*
X123245033Y-116359461D01*
X123249042Y-116359168D01*
X123260533Y-116357290D01*
X123278702Y-116353986D01*
X123302746Y-116349410D01*
X123331860Y-116343720D01*
X123365240Y-116337071D01*
X123402082Y-116329621D01*
X123441583Y-116321524D01*
X123462399Y-116317216D01*
X123491720Y-116311053D01*
X123518270Y-116305328D01*
X123540932Y-116300295D01*
X123558592Y-116296206D01*
X123570132Y-116293312D01*
X123574412Y-116291899D01*
X123574564Y-116286431D01*
X123571809Y-116274127D01*
X123566510Y-116255963D01*
X123559028Y-116232912D01*
X123549724Y-116205949D01*
X123538960Y-116176051D01*
X123527097Y-116144190D01*
X123514498Y-116111343D01*
X123501522Y-116078484D01*
X123488532Y-116046588D01*
X123475889Y-116016631D01*
X123463955Y-115989585D01*
X123455862Y-115972167D01*
X123430593Y-115919250D01*
X123413505Y-115963700D01*
X123399029Y-116000571D01*
X123381769Y-116043228D01*
X123362519Y-116089783D01*
X123342071Y-116138348D01*
X123321221Y-116187037D01*
X123300759Y-116233960D01*
X123285638Y-116267992D01*
X123274180Y-116293571D01*
X123263975Y-116316429D01*
X123255502Y-116335483D01*
X123249244Y-116349651D01*
X123245679Y-116357851D01*
X123245033Y-116359461D01*
X123175713Y-116359461D01*
X123176688Y-116355817D01*
X123181215Y-116337389D01*
X123186784Y-116313732D01*
X123193165Y-116285866D01*
X123200132Y-116254812D01*
X123207456Y-116221589D01*
X123214910Y-116187219D01*
X123222266Y-116152720D01*
X123229295Y-116119114D01*
X123235771Y-116087420D01*
X123238500Y-116073767D01*
X123263413Y-115944067D01*
X123285329Y-115820976D01*
X123304376Y-115703234D01*
X123320687Y-115589581D01*
X123334392Y-115478758D01*
X123345620Y-115369507D01*
X123354503Y-115260567D01*
X123361171Y-115150679D01*
X123365754Y-115038583D01*
X123368382Y-114923022D01*
X123369187Y-114812233D01*
X123369070Y-114751454D01*
X123368604Y-114697504D01*
X123367723Y-114648754D01*
X123366360Y-114603571D01*
X123364450Y-114560323D01*
X123361927Y-114517381D01*
X123358725Y-114473111D01*
X123354777Y-114425882D01*
X123352591Y-114401600D01*
X123331853Y-114221867D01*
X123302751Y-114043365D01*
X123265313Y-113866204D01*
X123219568Y-113690496D01*
X123165544Y-113516349D01*
X123103269Y-113343874D01*
X123044208Y-113199451D01*
X123032296Y-113172051D01*
X123023360Y-113152060D01*
X123017179Y-113139048D01*
X123013529Y-113132584D01*
X123012188Y-113132237D01*
X122682975Y-113132237D01*
X122665693Y-113070262D01*
X122649230Y-113015747D01*
X122641614Y-112990911D01*
X122602874Y-113070781D01*
X122540196Y-113209175D01*
X122484927Y-113350473D01*
X122437301Y-113493937D01*
X122397553Y-113638828D01*
X122365917Y-113784411D01*
X122353945Y-113852695D01*
X122342084Y-113934679D01*
X122331776Y-114024140D01*
X122323074Y-114120220D01*
X122316037Y-114222061D01*
X122310718Y-114328805D01*
X122307174Y-114439597D01*
X122305461Y-114553577D01*
X122305301Y-114600567D01*
X121961102Y-114600567D01*
X121960980Y-114595965D01*
X121959351Y-114484150D01*
X121958944Y-114362587D01*
X121960164Y-114248418D01*
X121963116Y-114140709D01*
X121967908Y-114038526D01*
X121974644Y-113940934D01*
X121983432Y-113847000D01*
X121994377Y-113755788D01*
X122007585Y-113666364D01*
X122023163Y-113577794D01*
X122041217Y-113489144D01*
X122061852Y-113399479D01*
X122085176Y-113307864D01*
X122098552Y-113258600D01*
X122152676Y-113078579D01*
X122214579Y-112901040D01*
X122284037Y-112726478D01*
X122360824Y-112555384D01*
X122444715Y-112388251D01*
X122535487Y-112225572D01*
X122632913Y-112067841D01*
X122662818Y-112022437D01*
X122683296Y-111992052D01*
X122704206Y-111961495D01*
X122724742Y-111931907D01*
X122744101Y-111904425D01*
X122761476Y-111880189D01*
X122776064Y-111860339D01*
X122787060Y-111846014D01*
X122789882Y-111842550D01*
X122800496Y-111829850D01*
X122810040Y-111842090D01*
X122822746Y-111858952D01*
X122839167Y-111881605D01*
X122858403Y-111908746D01*
X122879557Y-111939066D01*
X122901728Y-111971259D01*
X122924018Y-112004019D01*
X122945527Y-112036039D01*
X122965357Y-112066013D01*
X122982609Y-112092635D01*
X122984664Y-112095857D01*
X123082673Y-112257772D01*
X123173441Y-112423981D01*
X123256855Y-112594213D01*
X123332805Y-112768197D01*
X123401180Y-112945663D01*
X123461868Y-113126340D01*
X123514758Y-113309957D01*
X123559740Y-113496243D01*
X123560077Y-113497784D01*
X123575672Y-113574183D01*
X123589517Y-113652714D01*
X123601753Y-113734482D01*
X123612522Y-113820591D01*
X123621967Y-113912146D01*
X123630231Y-114010253D01*
X123635294Y-114081984D01*
X123636618Y-114107616D01*
X123637759Y-114140628D01*
X123638716Y-114179933D01*
X123639489Y-114224447D01*
X123640078Y-114273082D01*
X123640483Y-114324755D01*
X123640705Y-114378378D01*
X123640743Y-114432868D01*
X123640597Y-114487137D01*
X123640267Y-114540101D01*
X123639752Y-114590674D01*
X123639054Y-114637770D01*
X123638172Y-114680304D01*
X123637106Y-114717190D01*
X123635856Y-114747343D01*
X123635309Y-114757200D01*
X123630578Y-114832411D01*
X123625950Y-114900690D01*
X123621309Y-114963568D01*
X123616536Y-115022578D01*
X123611515Y-115079250D01*
X123606621Y-115130156D01*
X123595827Y-115238528D01*
X123619768Y-115305839D01*
X123665149Y-115445093D01*
X123702751Y-115585987D01*
X123732679Y-115729074D01*
X123755033Y-115874903D01*
X123769916Y-116024028D01*
X123776814Y-116155259D01*
X123777715Y-116182147D01*
X123778609Y-116205940D01*
X123779443Y-116225423D01*
X123780163Y-116239382D01*
X123780716Y-116246603D01*
X123780885Y-116247334D01*
X123786013Y-116246329D01*
X123798318Y-116243485D01*
X123816775Y-116239059D01*
X123840356Y-116233306D01*
X123868037Y-116226484D01*
X123898791Y-116218849D01*
X123931593Y-116210656D01*
X123965415Y-116202163D01*
X123999232Y-116193625D01*
X124032018Y-116185300D01*
X124062748Y-116177443D01*
X124090394Y-116170312D01*
X124113931Y-116164161D01*
X124117100Y-116163324D01*
X124330967Y-116104572D01*
X124539649Y-116042882D01*
X124742675Y-115978418D01*
X124939576Y-115911342D01*
X125129882Y-115841817D01*
X125313124Y-115770007D01*
X125488831Y-115696074D01*
X125580218Y-115655415D01*
X125598396Y-115647038D01*
X125621196Y-115636331D01*
X125647660Y-115623760D01*
X125676832Y-115609792D01*
X125707754Y-115594895D01*
X125739469Y-115579535D01*
X125771018Y-115564179D01*
X125801445Y-115549294D01*
X125829793Y-115535347D01*
X125855102Y-115522806D01*
X125876417Y-115512136D01*
X125892780Y-115503805D01*
X125903233Y-115498280D01*
X125906707Y-115496186D01*
X125908572Y-115491463D01*
X125912118Y-115479736D01*
X125917027Y-115462231D01*
X125922983Y-115440172D01*
X125929668Y-115414785D01*
X125936766Y-115387293D01*
X125943961Y-115358921D01*
X125950934Y-115330894D01*
X125957370Y-115304437D01*
X125962951Y-115280775D01*
X125965231Y-115270690D01*
X126279017Y-115270690D01*
X126292638Y-115262653D01*
X126300361Y-115257571D01*
X126313482Y-115248372D01*
X126330637Y-115236036D01*
X126350462Y-115221541D01*
X126369830Y-115207185D01*
X126453171Y-115142231D01*
X126528435Y-115077771D01*
X126595573Y-115013861D01*
X126654536Y-114950558D01*
X126705276Y-114887917D01*
X126747745Y-114825995D01*
X126781893Y-114764846D01*
X126807673Y-114704528D01*
X126808854Y-114701214D01*
X126825366Y-114643020D01*
X126833629Y-114585596D01*
X126833645Y-114529229D01*
X126825416Y-114474204D01*
X126808942Y-114420807D01*
X126807542Y-114417292D01*
X126793757Y-114386847D01*
X126777449Y-114358339D01*
X126757469Y-114330149D01*
X126732666Y-114300655D01*
X126701891Y-114268238D01*
X126701550Y-114267894D01*
X126661513Y-114230126D01*
X126619808Y-114196154D01*
X126574663Y-114164727D01*
X126524308Y-114134592D01*
X126478679Y-114110370D01*
X126456881Y-114099642D01*
X126433182Y-114088512D01*
X126408840Y-114077514D01*
X126385120Y-114067179D01*
X126363281Y-114058041D01*
X126344585Y-114050632D01*
X126330294Y-114045486D01*
X126321669Y-114043135D01*
X126319771Y-114043251D01*
X126319648Y-114047866D01*
X126320502Y-114059441D01*
X126322195Y-114076541D01*
X126324589Y-114097733D01*
X126326623Y-114114355D01*
X126343707Y-114282029D01*
X126352801Y-114450116D01*
X126353911Y-114617908D01*
X126347044Y-114784699D01*
X126332206Y-114949780D01*
X126318003Y-115057767D01*
X126314578Y-115079885D01*
X126310345Y-115105771D01*
X126305582Y-115133867D01*
X126300566Y-115162617D01*
X126295577Y-115190464D01*
X126290892Y-115215853D01*
X126286788Y-115237225D01*
X126283545Y-115253025D01*
X126281776Y-115260537D01*
X126279017Y-115270690D01*
X125965231Y-115270690D01*
X125966522Y-115264980D01*
X125990741Y-115145375D01*
X126009987Y-115028578D01*
X126024526Y-114912272D01*
X126034628Y-114794136D01*
X126040560Y-114671851D01*
X126042002Y-114611150D01*
X126041631Y-114466030D01*
X126035556Y-114325620D01*
X126023583Y-114188204D01*
X126005520Y-114052065D01*
X125981172Y-113915486D01*
X125950347Y-113776750D01*
X125946240Y-113760020D01*
X125902260Y-113600107D01*
X125850363Y-113443162D01*
X125790591Y-113289262D01*
X125722984Y-113138486D01*
X125647584Y-112990911D01*
X125564432Y-112846614D01*
X125473570Y-112705674D01*
X125375038Y-112568167D01*
X125268879Y-112434173D01*
X125199070Y-112352694D01*
X125173857Y-112324870D01*
X125143682Y-112292802D01*
X125109918Y-112257861D01*
X125073941Y-112221416D01*
X125037126Y-112184838D01*
X125000846Y-112149496D01*
X124966478Y-112116762D01*
X124935395Y-112088006D01*
X124917200Y-112071741D01*
X124784333Y-111960629D01*
X124647258Y-111856805D01*
X124506108Y-111760338D01*
X124361019Y-111671301D01*
X124212125Y-111589763D01*
X124059562Y-111515796D01*
X123903464Y-111449471D01*
X123743967Y-111390858D01*
X123581206Y-111340029D01*
X123467283Y-111309586D01*
X123300783Y-111272381D01*
X123133353Y-111243441D01*
X122965305Y-111222719D01*
X122796949Y-111210170D01*
X122628597Y-111205747D01*
X122460558Y-111209404D01*
X122293145Y-111221095D01*
X122126669Y-111240773D01*
X121961439Y-111268393D01*
X121797768Y-111303907D01*
X121635966Y-111347271D01*
X121476344Y-111398437D01*
X121319213Y-111457359D01*
X121164884Y-111523992D01*
X121013668Y-111598289D01*
X120865876Y-111680203D01*
X120829916Y-111701615D01*
X120693778Y-111788149D01*
X120562417Y-111880379D01*
X120436691Y-111977661D01*
X120317452Y-112079352D01*
X120267740Y-112124881D01*
X120250795Y-112140440D01*
X120235975Y-112153469D01*
X120224366Y-112163062D01*
X120217051Y-112168308D01*
X120215094Y-112168939D01*
X120217112Y-112165218D01*
X120224626Y-112156482D01*
X120236904Y-112143454D01*
X120253213Y-112126855D01*
X120272821Y-112107406D01*
X120294997Y-112085828D01*
X120319007Y-112062844D01*
X120344120Y-112039175D01*
X120369604Y-112015542D01*
X120385791Y-112000750D01*
X120515584Y-111888577D01*
X120650469Y-111783071D01*
X120790158Y-111684364D01*
X120934363Y-111592586D01*
X121082794Y-111507868D01*
X121235165Y-111430341D01*
X121391186Y-111360135D01*
X121550568Y-111297380D01*
X121713025Y-111242208D01*
X121878267Y-111194749D01*
X122046006Y-111155133D01*
X122215954Y-111123492D01*
X122369025Y-111102122D01*
X122409969Y-111097376D01*
X122446435Y-111093375D01*
X122479673Y-111090056D01*
X122510929Y-111087355D01*
X122541451Y-111085212D01*
X122572487Y-111083564D01*
X122605285Y-111082348D01*
X122641093Y-111081501D01*
X122681158Y-111080962D01*
X122726729Y-111080669D01*
X122779053Y-111080557D01*
X122800533Y-111080550D01*
X122853945Y-111080599D01*
G37*
D13*
%TO.C,R1*%
X158508000Y-97940742D02*
X158508000Y-98415258D01*
X157463000Y-97940742D02*
X157463000Y-98415258D01*
D16*
%TO.C,U3*%
X102387999Y-66888000D02*
X107888001Y-66888000D01*
X103887999Y-76688000D02*
X107888001Y-76688000D01*
D17*
X104588000Y-67398000D02*
X107548000Y-67408000D01*
D13*
%TO.C,C3*%
X77490000Y-81165580D02*
X77490000Y-80884420D01*
X78510000Y-81165580D02*
X78510000Y-80884420D01*
%TO.C,R8*%
X124921742Y-83805500D02*
X125396258Y-83805500D01*
X124921742Y-84850500D02*
X125396258Y-84850500D01*
%TO.C,D7*%
X113900503Y-70207000D02*
X113900503Y-68737000D01*
X113900503Y-68737000D02*
X111615503Y-68737000D01*
X111615503Y-70207000D02*
X113900503Y-70207000D01*
%TO.C,D11*%
X114261000Y-89381000D02*
X114261000Y-87911000D01*
X114261000Y-87911000D02*
X111976000Y-87911000D01*
X111976000Y-89381000D02*
X114261000Y-89381000D01*
%TO.C,D1*%
X135336999Y-78753001D02*
X135336999Y-77283001D01*
X135336999Y-77283001D02*
X132876999Y-77283001D01*
X132876999Y-78753001D02*
X135336999Y-78753001D01*
%TO.C,C9*%
X116377423Y-73658000D02*
X116658583Y-73658000D01*
X116377423Y-74678000D02*
X116658583Y-74678000D01*
%TO.C,C13*%
X115920417Y-81562000D02*
X116201577Y-81562000D01*
X115920417Y-82582000D02*
X116201577Y-82582000D01*
%TO.C,D9*%
X113951503Y-76707000D02*
X113951503Y-75237000D01*
X113951503Y-75237000D02*
X111666503Y-75237000D01*
X111666503Y-76707000D02*
X113951503Y-76707000D01*
%TO.C,JP2*%
X96193000Y-69896000D02*
X96193000Y-69296000D01*
X96893000Y-68596000D02*
X98293000Y-68596000D01*
X98293000Y-70596000D02*
X96893000Y-70596000D01*
X98993000Y-69296000D02*
X98993000Y-69896000D01*
X96893000Y-68596000D02*
G75*
G03*
X96193000Y-69296000I-1J-699999D01*
G01*
X96193000Y-69896000D02*
G75*
G03*
X96893000Y-70596000I699999J-1D01*
G01*
X98993000Y-69296000D02*
G75*
G03*
X98293000Y-68596000I-700000J0D01*
G01*
X98293000Y-70596000D02*
G75*
G03*
X98993000Y-69896000I0J700000D01*
G01*
%TO.C,D20*%
X126453000Y-75919000D02*
X126453000Y-74449000D01*
X126453000Y-74449000D02*
X124168000Y-74449000D01*
X124168000Y-75919000D02*
X126453000Y-75919000D01*
D18*
%TO.C,J1*%
X69240000Y-67772100D02*
X69240000Y-109085300D01*
X69240000Y-67785500D02*
X74288300Y-67785500D01*
X74288300Y-67785500D02*
X74288300Y-109098700D01*
X74288300Y-109098700D02*
X69240000Y-109098700D01*
X170541700Y-66248569D02*
X175558300Y-66248569D01*
X170541700Y-107561769D02*
X170541700Y-66248569D01*
X175558300Y-107561769D02*
X170541700Y-107561769D01*
X175558300Y-107561769D02*
X175558300Y-66248569D01*
D13*
%TO.C,F1*%
X160014248Y-82046000D02*
X164421752Y-82046000D01*
X160014248Y-87386000D02*
X164421752Y-87386000D01*
%TO.C,D14*%
X128563000Y-67845000D02*
X128563000Y-69315000D01*
X128563000Y-69315000D02*
X130848000Y-69315000D01*
X130848000Y-67845000D02*
X128563000Y-67845000D01*
%TO.C,F3*%
X82226279Y-80796000D02*
X81900721Y-80796000D01*
X82226279Y-79776000D02*
X81900721Y-79776000D01*
%TO.C,C11*%
X149744080Y-93862000D02*
X149462920Y-93862000D01*
X149744080Y-92842000D02*
X149462920Y-92842000D01*
%TO.C,JP1*%
X96248000Y-67102000D02*
X96248000Y-66502000D01*
X96948000Y-65802000D02*
X98348000Y-65802000D01*
X98348000Y-67802000D02*
X96948000Y-67802000D01*
X99048000Y-66502000D02*
X99048000Y-67102000D01*
X96948000Y-65802000D02*
G75*
G03*
X96248000Y-66502000I-1J-699999D01*
G01*
X96248000Y-67102000D02*
G75*
G03*
X96948000Y-67802000I699999J-1D01*
G01*
X99048000Y-66502000D02*
G75*
G03*
X98348000Y-65802000I-700000J0D01*
G01*
X98348000Y-67802000D02*
G75*
G03*
X99048000Y-67102000I0J700000D01*
G01*
%TO.C,C6*%
X153775500Y-83761580D02*
X153775500Y-83480420D01*
X154795500Y-83761580D02*
X154795500Y-83480420D01*
D14*
%TO.C,U1*%
X91049600Y-67731800D02*
X87290400Y-67731800D01*
X87290400Y-67731800D02*
X87290400Y-74488200D01*
X91049600Y-74488200D02*
X91049600Y-67731800D01*
X87290400Y-74488200D02*
X91049600Y-74488200D01*
X85652100Y-66588800D02*
G75*
G03*
X85652100Y-66588800I-127000J0D01*
G01*
D13*
%TO.C,JP6*%
X96024000Y-85390000D02*
X96024000Y-84790000D01*
X96724000Y-84090000D02*
X98124000Y-84090000D01*
X98124000Y-86090000D02*
X96724000Y-86090000D01*
X98824000Y-84790000D02*
X98824000Y-85390000D01*
X96724000Y-84090000D02*
G75*
G03*
X96024000Y-84790000I-1J-699999D01*
G01*
X96024000Y-85390000D02*
G75*
G03*
X96724000Y-86090000I699999J-1D01*
G01*
X98824000Y-84790000D02*
G75*
G03*
X98124000Y-84090000I-700000J0D01*
G01*
X98124000Y-86090000D02*
G75*
G03*
X98824000Y-85390000I0J700000D01*
G01*
%TO.C,D17*%
X126478500Y-69261000D02*
X126478500Y-67791000D01*
X126478500Y-67791000D02*
X124193500Y-67791000D01*
X124193500Y-69261000D02*
X126478500Y-69261000D01*
%TO.C,C15*%
X115937420Y-83564000D02*
X116218580Y-83564000D01*
X115937420Y-84584000D02*
X116218580Y-84584000D01*
%TO.C,D3*%
X135442000Y-85020002D02*
X135442000Y-83550002D01*
X135442000Y-83550002D02*
X132982000Y-83550002D01*
X132982000Y-85020002D02*
X135442000Y-85020002D01*
D16*
%TO.C,U2*%
X102357996Y-81490000D02*
X107857998Y-81490000D01*
X103857996Y-91290000D02*
X107857998Y-91290000D01*
D17*
X104557997Y-82000000D02*
X107517997Y-82010000D01*
D13*
%TO.C,D18*%
X126453000Y-71347000D02*
X126453000Y-69877000D01*
X126453000Y-69877000D02*
X124168000Y-69877000D01*
X124168000Y-71347000D02*
X126453000Y-71347000D01*
%TO.C,D5*%
X135419200Y-94247001D02*
X135419200Y-92777001D01*
X135419200Y-92777001D02*
X132959200Y-92777001D01*
X132959200Y-94247001D02*
X135419200Y-94247001D01*
%TO.C,C10*%
X116427423Y-75480001D02*
X116708583Y-75480001D01*
X116427423Y-76500001D02*
X116708583Y-76500001D01*
%TO.C,D12*%
X113753000Y-84809000D02*
X113753000Y-83339000D01*
X113753000Y-83339000D02*
X111468000Y-83339000D01*
X111468000Y-84809000D02*
X113753000Y-84809000D01*
%TO.C,JP3*%
X96248000Y-72690000D02*
X96248000Y-72090000D01*
X96948000Y-71390000D02*
X98348000Y-71390000D01*
X98348000Y-73390000D02*
X96948000Y-73390000D01*
X99048000Y-72090000D02*
X99048000Y-72690000D01*
X96948000Y-71390000D02*
G75*
G03*
X96248000Y-72090000I-1J-699999D01*
G01*
X96248000Y-72690000D02*
G75*
G03*
X96948000Y-73390000I699999J-1D01*
G01*
X99048000Y-72090000D02*
G75*
G03*
X98348000Y-71390000I-700000J0D01*
G01*
X98348000Y-73390000D02*
G75*
G03*
X99048000Y-72690000I0J700000D01*
G01*
%TO.C,R3*%
X153497758Y-87468500D02*
X153023242Y-87468500D01*
X153497758Y-86423500D02*
X153023242Y-86423500D01*
%TO.C,JP7*%
X96024000Y-88184000D02*
X96024000Y-87584000D01*
X96724000Y-86884000D02*
X98124000Y-86884000D01*
X98124000Y-88884000D02*
X96724000Y-88884000D01*
X98824000Y-87584000D02*
X98824000Y-88184000D01*
X96724000Y-86884000D02*
G75*
G03*
X96024000Y-87584000I-1J-699999D01*
G01*
X96024000Y-88184000D02*
G75*
G03*
X96724000Y-88884000I699999J-1D01*
G01*
X98824000Y-87584000D02*
G75*
G03*
X98124000Y-86884000I-700000J0D01*
G01*
X98124000Y-88884000D02*
G75*
G03*
X98824000Y-88184000I0J700000D01*
G01*
%TO.C,D4*%
X135442000Y-88322002D02*
X135442000Y-86852002D01*
X135442000Y-86852002D02*
X132982000Y-86852002D01*
X132982000Y-88322002D02*
X135442000Y-88322002D01*
%TO.C,D22*%
X128588500Y-69977000D02*
X128588500Y-71447000D01*
X128588500Y-71447000D02*
X130873500Y-71447000D01*
X130873500Y-69977000D02*
X128588500Y-69977000D01*
%TO.C,C8*%
X116526421Y-69003001D02*
X116807581Y-69003001D01*
X116526421Y-70023001D02*
X116807581Y-70023001D01*
%TO.C,D23*%
X128588500Y-74549000D02*
X128588500Y-76019000D01*
X128588500Y-76019000D02*
X130873500Y-76019000D01*
X130873500Y-74549000D02*
X128588500Y-74549000D01*
%TO.C,J2*%
X145407600Y-63530400D02*
X151017600Y-63530400D01*
X145407600Y-63530400D02*
X145407600Y-62680400D01*
X137707600Y-62680400D02*
X145407600Y-62680400D01*
X137707600Y-62680400D02*
X137707600Y-48660400D01*
X155127600Y-58120400D02*
X155127600Y-54380400D01*
X137707600Y-48660400D02*
X145407600Y-48660400D01*
X145407600Y-48660400D02*
X145407600Y-47810400D01*
X145407600Y-47810400D02*
X151017600Y-47810400D01*
X151017600Y-63530399D02*
G75*
G03*
X154976318Y-60660300I40002J4109997D01*
G01*
X154540558Y-49803594D02*
G75*
G03*
X151017600Y-47810400I-3522958J-2116806D01*
G01*
%TO.C,J5*%
X139350000Y-32532000D02*
X109350000Y-32532000D01*
X109350000Y-43032000D02*
X139350000Y-43032000D01*
X139350000Y-43032000D02*
G75*
G03*
X139350000Y-32532000I0J5250000D01*
G01*
X109350000Y-32532000D02*
G75*
G03*
X109350000Y-43032000I0J-5250000D01*
G01*
%TO.C,C14*%
X116191420Y-88136000D02*
X116472580Y-88136000D01*
X116191420Y-89156000D02*
X116472580Y-89156000D01*
D14*
%TO.C,D15*%
X161198000Y-99138100D02*
X161614560Y-99138100D01*
X163956440Y-99138100D02*
X164373000Y-99138100D01*
X164373000Y-99138100D02*
X164373000Y-94134300D01*
X161198000Y-94134300D02*
X161198000Y-99138100D01*
X161614560Y-94134300D02*
X161198000Y-94134300D01*
X164373000Y-94134300D02*
X163956440Y-94134300D01*
D13*
%TO.C,R9*%
X124921742Y-87047500D02*
X125396258Y-87047500D01*
X124921742Y-88092500D02*
X125396258Y-88092500D01*
%TO.C,R2*%
X129206258Y-81759502D02*
X128731742Y-81759502D01*
X129206258Y-80714502D02*
X128731742Y-80714502D01*
D14*
%TO.C,U4*%
X91029600Y-78431800D02*
X87270400Y-78431800D01*
X87270400Y-78431800D02*
X87270400Y-85188200D01*
X91029600Y-85188200D02*
X91029600Y-78431800D01*
X87270400Y-85188200D02*
X91029600Y-85188200D01*
X85632100Y-77288800D02*
G75*
G03*
X85632100Y-77288800I-127000J0D01*
G01*
D13*
%TO.C,C2*%
X89215580Y-76660000D02*
X88934420Y-76660000D01*
X89215580Y-75640000D02*
X88934420Y-75640000D01*
%TO.C,JP8*%
X96024000Y-90960000D02*
X96024000Y-90360000D01*
X96724000Y-89660000D02*
X98124000Y-89660000D01*
X98124000Y-91660000D02*
X96724000Y-91660000D01*
X98824000Y-90360000D02*
X98824000Y-90960000D01*
X96724000Y-89660000D02*
G75*
G03*
X96024000Y-90360000I-1J-699999D01*
G01*
X96024000Y-90960000D02*
G75*
G03*
X96724000Y-91660000I699999J-1D01*
G01*
X98824000Y-90360000D02*
G75*
G03*
X98124000Y-89660000I-700000J0D01*
G01*
X98124000Y-91660000D02*
G75*
G03*
X98824000Y-90960000I0J700000D01*
G01*
%TD*%
M02*
