%TF.GenerationSoftware,KiCad,Pcbnew,7.0.7*%
%TF.CreationDate,2024-03-26T08:25:24-07:00*%
%TF.ProjectId,Power-board,506f7765-722d-4626-9f61-72642e6b6963,rev?*%
%TF.SameCoordinates,Original*%
%TF.FileFunction,Soldermask,Top*%
%TF.FilePolarity,Negative*%
%FSLAX46Y46*%
G04 Gerber Fmt 4.6, Leading zero omitted, Abs format (unit mm)*
G04 Created by KiCad (PCBNEW 7.0.7) date 2024-03-26 08:25:24*
%MOMM*%
%LPD*%
G01*
G04 APERTURE LIST*
G04 Aperture macros list*
%AMRoundRect*
0 Rectangle with rounded corners*
0 $1 Rounding radius*
0 $2 $3 $4 $5 $6 $7 $8 $9 X,Y pos of 4 corners*
0 Add a 4 corners polygon primitive as box body*
4,1,4,$2,$3,$4,$5,$6,$7,$8,$9,$2,$3,0*
0 Add four circle primitives for the rounded corners*
1,1,$1+$1,$2,$3*
1,1,$1+$1,$4,$5*
1,1,$1+$1,$6,$7*
1,1,$1+$1,$8,$9*
0 Add four rect primitives between the rounded corners*
20,1,$1+$1,$2,$3,$4,$5,0*
20,1,$1+$1,$4,$5,$6,$7,0*
20,1,$1+$1,$6,$7,$8,$9,0*
20,1,$1+$1,$8,$9,$2,$3,0*%
%AMFreePoly0*
4,1,19,0.500000,-0.750000,0.000000,-0.750000,0.000000,-0.744911,-0.071157,-0.744911,-0.207708,-0.704816,-0.327430,-0.627875,-0.420627,-0.520320,-0.479746,-0.390866,-0.500000,-0.250000,-0.500000,0.250000,-0.479746,0.390866,-0.420627,0.520320,-0.327430,0.627875,-0.207708,0.704816,-0.071157,0.744911,0.000000,0.744911,0.000000,0.750000,0.500000,0.750000,0.500000,-0.750000,0.500000,-0.750000,
$1*%
%AMFreePoly1*
4,1,19,0.000000,0.744911,0.071157,0.744911,0.207708,0.704816,0.327430,0.627875,0.420627,0.520320,0.479746,0.390866,0.500000,0.250000,0.500000,-0.250000,0.479746,-0.390866,0.420627,-0.520320,0.327430,-0.627875,0.207708,-0.704816,0.071157,-0.744911,0.000000,-0.744911,0.000000,-0.750000,-0.500000,-0.750000,-0.500000,0.750000,0.000000,0.750000,0.000000,0.744911,0.000000,0.744911,
$1*%
G04 Aperture macros list end*
%ADD10RoundRect,0.200000X-0.200000X-0.275000X0.200000X-0.275000X0.200000X0.275000X-0.200000X0.275000X0*%
%ADD11RoundRect,0.218750X0.218750X0.256250X-0.218750X0.256250X-0.218750X-0.256250X0.218750X-0.256250X0*%
%ADD12RoundRect,0.225000X-0.250000X0.225000X-0.250000X-0.225000X0.250000X-0.225000X0.250000X0.225000X0*%
%ADD13RoundRect,0.225000X-0.225000X-0.250000X0.225000X-0.250000X0.225000X0.250000X-0.225000X0.250000X0*%
%ADD14RoundRect,0.218750X0.256250X-0.218750X0.256250X0.218750X-0.256250X0.218750X-0.256250X-0.218750X0*%
%ADD15RoundRect,0.225000X0.225000X0.250000X-0.225000X0.250000X-0.225000X-0.250000X0.225000X-0.250000X0*%
%ADD16RoundRect,0.225000X0.250000X-0.225000X0.250000X0.225000X-0.250000X0.225000X-0.250000X-0.225000X0*%
%ADD17RoundRect,0.218750X-0.218750X-0.256250X0.218750X-0.256250X0.218750X0.256250X-0.218750X0.256250X0*%
%ADD18FreePoly0,0.000000*%
%ADD19FreePoly1,0.000000*%
%ADD20RoundRect,0.200000X0.200000X0.275000X-0.200000X0.275000X-0.200000X-0.275000X0.200000X-0.275000X0*%
%ADD21R,1.676400X1.879600*%
%ADD22RoundRect,0.200000X-0.275000X0.200000X-0.275000X-0.200000X0.275000X-0.200000X0.275000X0.200000X0*%
%ADD23R,1.400000X0.449999*%
%ADD24C,0.780000*%
%ADD25R,3.400001X9.700001*%
%ADD26RoundRect,0.237500X0.287500X0.237500X-0.287500X0.237500X-0.287500X-0.237500X0.287500X-0.237500X0*%
%ADD27C,1.371600*%
%ADD28RoundRect,0.250000X-0.712500X-2.475000X0.712500X-2.475000X0.712500X2.475000X-0.712500X2.475000X0*%
%ADD29R,1.549400X0.863600*%
%ADD30RoundRect,0.361950X-0.361950X1.098550X-0.361950X-1.098550X0.361950X-1.098550X0.361950X1.098550X0*%
%ADD31R,2.000000X0.900000*%
%ADD32RoundRect,1.025000X1.025000X-1.025000X1.025000X1.025000X-1.025000X1.025000X-1.025000X-1.025000X0*%
%ADD33C,4.100000*%
%ADD34C,10.160000*%
G04 APERTURE END LIST*
%TO.C,U3*%
G36*
X107400570Y-69198894D02*
G01*
X107409295Y-69201541D01*
X107417334Y-69205836D01*
X107424380Y-69211620D01*
X107430164Y-69218666D01*
X107434459Y-69226705D01*
X107437105Y-69235430D01*
X107437999Y-69244500D01*
X107437999Y-74331500D01*
X107437105Y-74340570D01*
X107434459Y-74349295D01*
X107430164Y-74357334D01*
X107424380Y-74364380D01*
X107417334Y-74370164D01*
X107409295Y-74374459D01*
X107400570Y-74377106D01*
X107391500Y-74378000D01*
X104384500Y-74378000D01*
X104375430Y-74377106D01*
X104366705Y-74374459D01*
X104358666Y-74370164D01*
X104351620Y-74364380D01*
X104345836Y-74357334D01*
X104341541Y-74349295D01*
X104338895Y-74340570D01*
X104338001Y-74331500D01*
X104338001Y-69244500D01*
X104338895Y-69235430D01*
X104341541Y-69226705D01*
X104345836Y-69218666D01*
X104351620Y-69211620D01*
X104358666Y-69205836D01*
X104366705Y-69201541D01*
X104375430Y-69198894D01*
X104384500Y-69198000D01*
X107391500Y-69198000D01*
X107400570Y-69198894D01*
G37*
%TO.C,U1*%
G36*
X93526100Y-72710200D02*
G01*
X91265500Y-72710200D01*
X91265500Y-69509800D01*
X93526100Y-69509800D01*
X93526100Y-72710200D01*
G37*
%TO.C,U2*%
G36*
X107370567Y-83800894D02*
G01*
X107379292Y-83803541D01*
X107387331Y-83807836D01*
X107394377Y-83813620D01*
X107400161Y-83820666D01*
X107404456Y-83828705D01*
X107407102Y-83837430D01*
X107407996Y-83846500D01*
X107407996Y-88933500D01*
X107407102Y-88942570D01*
X107404456Y-88951295D01*
X107400161Y-88959334D01*
X107394377Y-88966380D01*
X107387331Y-88972164D01*
X107379292Y-88976459D01*
X107370567Y-88979106D01*
X107361497Y-88980000D01*
X104354497Y-88980000D01*
X104345427Y-88979106D01*
X104336702Y-88976459D01*
X104328663Y-88972164D01*
X104321617Y-88966380D01*
X104315833Y-88959334D01*
X104311538Y-88951295D01*
X104308892Y-88942570D01*
X104307998Y-88933500D01*
X104307998Y-83846500D01*
X104308892Y-83837430D01*
X104311538Y-83828705D01*
X104315833Y-83820666D01*
X104321617Y-83813620D01*
X104328663Y-83807836D01*
X104336702Y-83803541D01*
X104345427Y-83800894D01*
X104354497Y-83800000D01*
X107361497Y-83800000D01*
X107370567Y-83800894D01*
G37*
%TO.C,U4*%
G36*
X93506100Y-83410200D02*
G01*
X91245500Y-83410200D01*
X91245500Y-80209800D01*
X93506100Y-80209800D01*
X93506100Y-83410200D01*
G37*
%TD*%
D10*
%TO.C,R10*%
X124334000Y-90932000D03*
X125984000Y-90932000D03*
%TD*%
D11*
%TO.C,D19*%
X125755500Y-72898000D03*
X124180500Y-72898000D03*
%TD*%
D12*
%TO.C,C7*%
X162557500Y-101454000D03*
X162557500Y-103004000D03*
%TD*%
D11*
%TO.C,D13*%
X113563500Y-90678000D03*
X111988500Y-90678000D03*
%TD*%
%TO.C,D6*%
X113254003Y-67694000D03*
X111679003Y-67694000D03*
%TD*%
D10*
%TO.C,R7*%
X124460000Y-81280000D03*
X126110000Y-81280000D03*
%TD*%
D11*
%TO.C,D8*%
X113203003Y-74168000D03*
X111628003Y-74168000D03*
%TD*%
%TO.C,D10*%
X113304997Y-81788000D03*
X111729997Y-81788000D03*
%TD*%
D13*
%TO.C,C4*%
X115892001Y-67735001D03*
X117442001Y-67735001D03*
%TD*%
D14*
%TO.C,D2*%
X149083500Y-86842000D03*
X149083500Y-85267000D03*
%TD*%
D15*
%TO.C,C5*%
X90000000Y-87800000D03*
X88450000Y-87800000D03*
%TD*%
D16*
%TO.C,C1*%
X77600000Y-71150000D03*
X77600000Y-69600000D03*
%TD*%
D17*
%TO.C,D21*%
X129286000Y-72948000D03*
X130861000Y-72948000D03*
%TD*%
D18*
%TO.C,JP5*%
X96774000Y-82296000D03*
D19*
X98074000Y-82296000D03*
%TD*%
D11*
%TO.C,F2*%
X83000000Y-69600000D03*
X81425000Y-69600000D03*
%TD*%
D16*
%TO.C,C12*%
X157985500Y-94368000D03*
X157985500Y-92818000D03*
%TD*%
D20*
%TO.C,R4*%
X129794000Y-84285002D03*
X128144000Y-84285002D03*
%TD*%
D13*
%TO.C,C16*%
X115557000Y-90805000D03*
X117107000Y-90805000D03*
%TD*%
D20*
%TO.C,R5*%
X129793000Y-87587002D03*
X128143000Y-87587002D03*
%TD*%
D18*
%TO.C,JP4*%
X96998000Y-75184000D03*
D19*
X98298000Y-75184000D03*
%TD*%
D20*
%TO.C,R6*%
X129794000Y-90889002D03*
X128144000Y-90889002D03*
%TD*%
D21*
%TO.C,D16*%
X79950000Y-98600000D03*
X79950000Y-103019600D03*
%TD*%
D22*
%TO.C,R1*%
X157985500Y-97353000D03*
X157985500Y-99003000D03*
%TD*%
D23*
%TO.C,U3*%
X102938001Y-67563000D03*
X102938001Y-68213001D03*
X102938001Y-68863000D03*
X102938001Y-69513001D03*
X102938001Y-70162999D03*
X102938001Y-70813001D03*
X102938001Y-71462999D03*
X102938001Y-72113001D03*
X102938001Y-72762999D03*
X102938001Y-73413001D03*
X102938001Y-74062999D03*
X102938001Y-74713000D03*
X102938001Y-75362999D03*
X102938001Y-76013000D03*
X108838002Y-76013000D03*
X108838002Y-75362999D03*
X108838002Y-74713000D03*
X108838002Y-74062999D03*
X108838002Y-73413001D03*
X108838002Y-72762999D03*
X108838002Y-72113001D03*
X108838002Y-71462999D03*
X108838002Y-70813001D03*
X108838002Y-70162999D03*
X108838002Y-69513001D03*
X108838002Y-68863000D03*
X108838002Y-68213001D03*
X108838002Y-67563000D03*
D24*
X104588000Y-67788000D03*
X104588000Y-69088000D03*
X104588000Y-70488000D03*
X104588000Y-71788000D03*
X104588000Y-73088000D03*
X104588003Y-74488000D03*
X104588003Y-75788000D03*
X105888000Y-69088000D03*
D25*
X105888000Y-71788000D03*
D24*
X105888003Y-67788000D03*
X105888003Y-70488000D03*
X105888003Y-71788000D03*
X105888003Y-73088000D03*
X105888003Y-74488000D03*
X105888005Y-75788000D03*
X107188000Y-67788000D03*
X107188000Y-69088000D03*
X107188000Y-70488000D03*
X107188000Y-71788000D03*
X107188000Y-73088000D03*
X107188002Y-74488000D03*
X107188002Y-75788000D03*
%TD*%
D16*
%TO.C,C3*%
X78000000Y-81800000D03*
X78000000Y-80250000D03*
%TD*%
D10*
%TO.C,R8*%
X124334000Y-84328000D03*
X125984000Y-84328000D03*
%TD*%
D11*
%TO.C,D7*%
X113203003Y-69472000D03*
X111628003Y-69472000D03*
%TD*%
%TO.C,D11*%
X113563500Y-88646000D03*
X111988500Y-88646000D03*
%TD*%
D26*
%TO.C,D1*%
X134551999Y-78018001D03*
X132801999Y-78018001D03*
%TD*%
D13*
%TO.C,C9*%
X115743003Y-74168000D03*
X117293003Y-74168000D03*
%TD*%
%TO.C,C13*%
X115285997Y-82072000D03*
X116835997Y-82072000D03*
%TD*%
D11*
%TO.C,D9*%
X113254003Y-75972000D03*
X111679003Y-75972000D03*
%TD*%
D18*
%TO.C,JP2*%
X96943000Y-69596000D03*
D19*
X98243000Y-69596000D03*
%TD*%
D11*
%TO.C,D20*%
X125755500Y-75184000D03*
X124180500Y-75184000D03*
%TD*%
D27*
%TO.C,J1*%
X70780000Y-69442100D03*
X72780000Y-69442100D03*
X70780000Y-71442100D03*
X72780000Y-71442100D03*
X70780000Y-73442100D03*
X72780000Y-73442100D03*
X70780000Y-75442100D03*
X72780000Y-75442100D03*
X70780000Y-77442100D03*
X72780000Y-77442100D03*
X70780000Y-79442100D03*
X72780000Y-79442100D03*
X70780000Y-81442100D03*
X72780000Y-81442100D03*
X70780000Y-83442100D03*
X72780000Y-83442100D03*
X70780000Y-85442100D03*
X72780000Y-85442100D03*
X70780000Y-87442100D03*
X72780000Y-87442100D03*
X70780000Y-89442100D03*
X72780000Y-89442100D03*
X70780000Y-91442100D03*
X72780000Y-91442100D03*
X70780000Y-93442100D03*
X72780000Y-93442100D03*
X70780000Y-95442100D03*
X72780000Y-95442100D03*
X70780000Y-97442100D03*
X72780000Y-97442100D03*
X70780000Y-99442100D03*
X72780000Y-99442100D03*
X70780000Y-101442000D03*
X72780000Y-101442000D03*
X70780000Y-103442000D03*
X72780000Y-103442000D03*
X70780000Y-105442000D03*
X72780000Y-105442000D03*
X70780000Y-107442000D03*
X72780000Y-107442000D03*
X172050000Y-67905269D03*
X174050000Y-67905269D03*
X172050000Y-69905269D03*
X174050000Y-69905269D03*
X172050000Y-71905269D03*
X174050000Y-71905269D03*
X172050000Y-73905269D03*
X174050000Y-73905269D03*
X172050000Y-75905169D03*
X174050000Y-75905169D03*
X172050000Y-77905169D03*
X174050000Y-77905169D03*
X172050000Y-79905169D03*
X174050000Y-79905169D03*
X172050000Y-81905169D03*
X174050000Y-81905169D03*
X172050000Y-83905169D03*
X174050000Y-83905169D03*
X172050000Y-85905169D03*
X174050000Y-85905169D03*
X172050000Y-87905169D03*
X174050000Y-87905169D03*
X172050000Y-89905169D03*
X174050000Y-89905169D03*
X172050000Y-91905169D03*
X174050000Y-91905169D03*
X172050000Y-93905169D03*
X174050000Y-93905169D03*
X172050000Y-95905169D03*
X174050000Y-95905169D03*
X172050000Y-97905169D03*
X174050000Y-97905169D03*
X172050000Y-99905169D03*
X174050000Y-99905169D03*
X172050000Y-101905169D03*
X174050000Y-101905169D03*
X172050000Y-103905169D03*
X174050000Y-103905169D03*
X172050000Y-105905169D03*
X174050000Y-105905169D03*
%TD*%
D28*
%TO.C,F1*%
X158830500Y-84716000D03*
X165605500Y-84716000D03*
%TD*%
D17*
%TO.C,D14*%
X129260500Y-68580000D03*
X130835500Y-68580000D03*
%TD*%
D11*
%TO.C,F3*%
X82851000Y-80286000D03*
X81276000Y-80286000D03*
%TD*%
D15*
%TO.C,C11*%
X150378500Y-93352000D03*
X148828500Y-93352000D03*
%TD*%
D18*
%TO.C,JP1*%
X96998000Y-66802000D03*
D19*
X98298000Y-66802000D03*
%TD*%
D16*
%TO.C,C6*%
X154285500Y-84396000D03*
X154285500Y-82846000D03*
%TD*%
D29*
%TO.C,U1*%
X85944200Y-68810000D03*
X85944200Y-71110000D03*
X85944200Y-73410000D03*
D30*
X92383100Y-71122700D03*
%TD*%
D18*
%TO.C,JP6*%
X96774000Y-85090000D03*
D19*
X98074000Y-85090000D03*
%TD*%
D11*
%TO.C,D17*%
X125781000Y-68526000D03*
X124206000Y-68526000D03*
%TD*%
D13*
%TO.C,C15*%
X115303000Y-84074000D03*
X116853000Y-84074000D03*
%TD*%
D26*
%TO.C,D3*%
X134657000Y-84285002D03*
X132907000Y-84285002D03*
%TD*%
D23*
%TO.C,U2*%
X102907998Y-82165000D03*
X102907998Y-82815001D03*
X102907998Y-83465000D03*
X102907998Y-84115001D03*
X102907998Y-84764999D03*
X102907998Y-85415001D03*
X102907998Y-86064999D03*
X102907998Y-86715001D03*
X102907998Y-87364999D03*
X102907998Y-88015001D03*
X102907998Y-88664999D03*
X102907998Y-89315000D03*
X102907998Y-89964999D03*
X102907998Y-90615000D03*
X108807999Y-90615000D03*
X108807999Y-89964999D03*
X108807999Y-89315000D03*
X108807999Y-88664999D03*
X108807999Y-88015001D03*
X108807999Y-87364999D03*
X108807999Y-86715001D03*
X108807999Y-86064999D03*
X108807999Y-85415001D03*
X108807999Y-84764999D03*
X108807999Y-84115001D03*
X108807999Y-83465000D03*
X108807999Y-82815001D03*
X108807999Y-82165000D03*
D24*
X104557997Y-82390000D03*
X104557997Y-83690000D03*
X104557997Y-85090000D03*
X104557997Y-86390000D03*
X104557997Y-87690000D03*
X104558000Y-89090000D03*
X104558000Y-90390000D03*
X105857997Y-83690000D03*
D25*
X105857997Y-86390000D03*
D24*
X105858000Y-82390000D03*
X105858000Y-85090000D03*
X105858000Y-86390000D03*
X105858000Y-87690000D03*
X105858000Y-89090000D03*
X105858002Y-90390000D03*
X107157997Y-82390000D03*
X107157997Y-83690000D03*
X107157997Y-85090000D03*
X107157997Y-86390000D03*
X107157997Y-87690000D03*
X107157999Y-89090000D03*
X107157999Y-90390000D03*
%TD*%
D11*
%TO.C,D18*%
X125755500Y-70612000D03*
X124180500Y-70612000D03*
%TD*%
D26*
%TO.C,D5*%
X134634200Y-93512001D03*
X132884200Y-93512001D03*
%TD*%
D13*
%TO.C,C10*%
X115793003Y-75990001D03*
X117343003Y-75990001D03*
%TD*%
D11*
%TO.C,D12*%
X113055500Y-84074000D03*
X111480500Y-84074000D03*
%TD*%
D18*
%TO.C,JP3*%
X96998000Y-72390000D03*
D19*
X98298000Y-72390000D03*
%TD*%
D20*
%TO.C,R3*%
X154085500Y-86946000D03*
X152435500Y-86946000D03*
%TD*%
D18*
%TO.C,JP7*%
X96774000Y-87884000D03*
D19*
X98074000Y-87884000D03*
%TD*%
D26*
%TO.C,D4*%
X134657000Y-87587002D03*
X132907000Y-87587002D03*
%TD*%
D17*
%TO.C,D22*%
X129286000Y-70712000D03*
X130861000Y-70712000D03*
%TD*%
D13*
%TO.C,C8*%
X115892001Y-69513001D03*
X117442001Y-69513001D03*
%TD*%
D17*
%TO.C,D23*%
X129286000Y-75284000D03*
X130861000Y-75284000D03*
%TD*%
D31*
%TO.C,J2*%
X147167600Y-62420400D03*
X147167600Y-48920400D03*
D32*
X153167600Y-52070400D03*
D33*
X153167600Y-59270400D03*
%TD*%
D34*
%TO.C,J5*%
X139350000Y-37782000D03*
X109380000Y-37782000D03*
%TD*%
D13*
%TO.C,C14*%
X115557000Y-88646000D03*
X117107000Y-88646000D03*
%TD*%
D21*
%TO.C,D15*%
X162785500Y-98846000D03*
X162785500Y-94426400D03*
%TD*%
D10*
%TO.C,R9*%
X124334000Y-87570000D03*
X125984000Y-87570000D03*
%TD*%
D20*
%TO.C,R2*%
X129794000Y-81237002D03*
X128144000Y-81237002D03*
%TD*%
D29*
%TO.C,U4*%
X85924200Y-79510000D03*
X85924200Y-81810000D03*
X85924200Y-84110000D03*
D30*
X92363100Y-81822700D03*
%TD*%
D15*
%TO.C,C2*%
X89850000Y-76150000D03*
X88300000Y-76150000D03*
%TD*%
D18*
%TO.C,JP8*%
X96774000Y-90660000D03*
D19*
X98074000Y-90660000D03*
%TD*%
M02*
