%TF.GenerationSoftware,KiCad,Pcbnew,7.0.1-0*%
%TF.CreationDate,2023-09-14T23:18:32-07:00*%
%TF.ProjectId,HX-board,48582d62-6f61-4726-942e-6b696361645f,rev?*%
%TF.SameCoordinates,Original*%
%TF.FileFunction,Soldermask,Top*%
%TF.FilePolarity,Negative*%
%FSLAX46Y46*%
G04 Gerber Fmt 4.6, Leading zero omitted, Abs format (unit mm)*
G04 Created by KiCad (PCBNEW 7.0.1-0) date 2023-09-14 23:18:32*
%MOMM*%
%LPD*%
G01*
G04 APERTURE LIST*
G04 Aperture macros list*
%AMRoundRect*
0 Rectangle with rounded corners*
0 $1 Rounding radius*
0 $2 $3 $4 $5 $6 $7 $8 $9 X,Y pos of 4 corners*
0 Add a 4 corners polygon primitive as box body*
4,1,4,$2,$3,$4,$5,$6,$7,$8,$9,$2,$3,0*
0 Add four circle primitives for the rounded corners*
1,1,$1+$1,$2,$3*
1,1,$1+$1,$4,$5*
1,1,$1+$1,$6,$7*
1,1,$1+$1,$8,$9*
0 Add four rect primitives between the rounded corners*
20,1,$1+$1,$2,$3,$4,$5,0*
20,1,$1+$1,$4,$5,$6,$7,0*
20,1,$1+$1,$6,$7,$8,$9,0*
20,1,$1+$1,$8,$9,$2,$3,0*%
G04 Aperture macros list end*
%ADD10RoundRect,0.225000X0.225000X0.250000X-0.225000X0.250000X-0.225000X-0.250000X0.225000X-0.250000X0*%
%ADD11RoundRect,0.200000X-0.200000X-0.275000X0.200000X-0.275000X0.200000X0.275000X-0.200000X0.275000X0*%
%ADD12RoundRect,0.200000X0.200000X0.275000X-0.200000X0.275000X-0.200000X-0.275000X0.200000X-0.275000X0*%
%ADD13RoundRect,0.150000X0.587500X0.150000X-0.587500X0.150000X-0.587500X-0.150000X0.587500X-0.150000X0*%
%ADD14R,1.000000X1.000000*%
%ADD15O,1.000000X1.000000*%
%ADD16RoundRect,0.150000X-0.850000X-0.150000X0.850000X-0.150000X0.850000X0.150000X-0.850000X0.150000X0*%
%ADD17RoundRect,0.200000X0.275000X-0.200000X0.275000X0.200000X-0.275000X0.200000X-0.275000X-0.200000X0*%
%ADD18RoundRect,0.225000X-0.225000X-0.250000X0.225000X-0.250000X0.225000X0.250000X-0.225000X0.250000X0*%
%ADD19RoundRect,0.200000X-0.275000X0.200000X-0.275000X-0.200000X0.275000X-0.200000X0.275000X0.200000X0*%
%ADD20C,4.000000*%
%ADD21R,1.600000X1.600000*%
%ADD22C,1.600000*%
%ADD23R,0.700000X4.300000*%
%ADD24R,0.700000X3.200000*%
%ADD25RoundRect,0.225000X-0.250000X0.225000X-0.250000X-0.225000X0.250000X-0.225000X0.250000X0.225000X0*%
%ADD26RoundRect,0.225000X0.250000X-0.225000X0.250000X0.225000X-0.250000X0.225000X-0.250000X-0.225000X0*%
%ADD27RoundRect,0.150000X0.150000X-0.587500X0.150000X0.587500X-0.150000X0.587500X-0.150000X-0.587500X0*%
G04 APERTURE END LIST*
D10*
%TO.C,C2*%
X161303000Y-102870000D03*
X159753000Y-102870000D03*
%TD*%
D11*
%TO.C,R20*%
X162547000Y-119888000D03*
X164197000Y-119888000D03*
%TD*%
D12*
%TO.C,R6*%
X156019000Y-122936000D03*
X154369000Y-122936000D03*
%TD*%
D13*
%TO.C,Q2*%
X133350000Y-107696000D03*
X133350000Y-105796000D03*
X131475000Y-106746000D03*
%TD*%
D11*
%TO.C,R23*%
X140844000Y-122174000D03*
X142494000Y-122174000D03*
%TD*%
D14*
%TO.C,J4*%
X128768000Y-80264000D03*
D15*
X130038000Y-80264000D03*
X131308000Y-80264000D03*
X132578000Y-80264000D03*
X133848000Y-80264000D03*
X135118000Y-80264000D03*
X136388000Y-80264000D03*
X137658000Y-80264000D03*
X138928000Y-80264000D03*
X140198000Y-80264000D03*
X141468000Y-80264000D03*
X142738000Y-80264000D03*
X144008000Y-80264000D03*
X145278000Y-80264000D03*
X146548000Y-80264000D03*
%TD*%
D10*
%TO.C,C32*%
X139967000Y-101346000D03*
X138417000Y-101346000D03*
%TD*%
D16*
%TO.C,U2*%
X136184000Y-108585000D03*
X136184000Y-109855000D03*
X136184000Y-111125000D03*
X136184000Y-112395000D03*
X136184000Y-113665000D03*
X136184000Y-114935000D03*
X136184000Y-116205000D03*
X136184000Y-117475000D03*
X141184000Y-117475000D03*
X141184000Y-116205000D03*
X141184000Y-114935000D03*
X141184000Y-113665000D03*
X141184000Y-112395000D03*
X141184000Y-111125000D03*
X141184000Y-109855000D03*
X141184000Y-108585000D03*
%TD*%
D11*
%TO.C,R32*%
X162497000Y-97536000D03*
X164147000Y-97536000D03*
%TD*%
D17*
%TO.C,R21*%
X132588000Y-112585000D03*
X132588000Y-110935000D03*
%TD*%
%TO.C,R48*%
X143510000Y-101917000D03*
X143510000Y-100267000D03*
%TD*%
D11*
%TO.C,R7*%
X122365000Y-90424000D03*
X124015000Y-90424000D03*
%TD*%
D13*
%TO.C,Q4*%
X153513000Y-86040000D03*
X153513000Y-84140000D03*
X151638000Y-85090000D03*
%TD*%
D11*
%TO.C,R46*%
X126175000Y-92456000D03*
X127825000Y-92456000D03*
%TD*%
D18*
%TO.C,C12*%
X110985000Y-120142000D03*
X112535000Y-120142000D03*
%TD*%
D10*
%TO.C,C5*%
X137948000Y-105918000D03*
X136398000Y-105918000D03*
%TD*%
D11*
%TO.C,R1*%
X115557000Y-124968000D03*
X117207000Y-124968000D03*
%TD*%
D19*
%TO.C,R5*%
X129794000Y-119571000D03*
X129794000Y-121221000D03*
%TD*%
D11*
%TO.C,R13*%
X122365000Y-94488000D03*
X124015000Y-94488000D03*
%TD*%
D17*
%TO.C,R29*%
X152908000Y-90678000D03*
X152908000Y-89028000D03*
%TD*%
D10*
%TO.C,C10*%
X120663000Y-105410000D03*
X119113000Y-105410000D03*
%TD*%
D16*
%TO.C,U4*%
X156290000Y-86614000D03*
X156290000Y-87884000D03*
X156290000Y-89154000D03*
X156290000Y-90424000D03*
X156290000Y-91694000D03*
X156290000Y-92964000D03*
X156290000Y-94234000D03*
X156290000Y-95504000D03*
X161290000Y-95504000D03*
X161290000Y-94234000D03*
X161290000Y-92964000D03*
X161290000Y-91694000D03*
X161290000Y-90424000D03*
X161290000Y-89154000D03*
X161290000Y-87884000D03*
X161290000Y-86614000D03*
%TD*%
D17*
%TO.C,R45*%
X131064000Y-92773000D03*
X131064000Y-91123000D03*
%TD*%
D12*
%TO.C,R17*%
X152717000Y-112776000D03*
X151067000Y-112776000D03*
%TD*%
D17*
%TO.C,R26*%
X109220000Y-115570000D03*
X109220000Y-113920000D03*
%TD*%
D12*
%TO.C,R2*%
X148653000Y-121412000D03*
X147003000Y-121412000D03*
%TD*%
D10*
%TO.C,C29*%
X140729000Y-86614000D03*
X139179000Y-86614000D03*
%TD*%
D20*
%TO.C,J3*%
X111610000Y-65857000D03*
X111610000Y-99157000D03*
D21*
X113030000Y-92202000D03*
D22*
X113030000Y-89432000D03*
X113030000Y-86662000D03*
X113030000Y-83892000D03*
X113030000Y-81122000D03*
X113030000Y-78352000D03*
X113030000Y-75582000D03*
X113030000Y-72812000D03*
X110190000Y-90817000D03*
X110190000Y-88047000D03*
X110190000Y-85277000D03*
X110190000Y-82507000D03*
X110190000Y-79737000D03*
X110190000Y-76967000D03*
X110190000Y-74197000D03*
%TD*%
D13*
%TO.C,Q8*%
X132842000Y-87630000D03*
X132842000Y-85730000D03*
X130967000Y-86680000D03*
%TD*%
D23*
%TO.C,J2*%
X144932000Y-132322000D03*
X145932000Y-132322000D03*
X146932000Y-132322000D03*
X147932000Y-132322000D03*
X148932000Y-132322000D03*
X149932000Y-132322000D03*
X150932000Y-132322000D03*
X151932000Y-132322000D03*
X152932000Y-132322000D03*
X153932000Y-132322000D03*
X154932000Y-132322000D03*
X157932000Y-132322000D03*
X158932000Y-132322000D03*
X159932000Y-132322000D03*
X160932000Y-132322000D03*
X161932000Y-132322000D03*
D24*
X162932000Y-131772000D03*
D23*
X163932000Y-132322000D03*
%TD*%
D16*
%TO.C,U8*%
X134406000Y-89535000D03*
X134406000Y-90805000D03*
X134406000Y-92075000D03*
X134406000Y-93345000D03*
X134406000Y-94615000D03*
X134406000Y-95885000D03*
X134406000Y-97155000D03*
X134406000Y-98425000D03*
X139406000Y-98425000D03*
X139406000Y-97155000D03*
X139406000Y-95885000D03*
X139406000Y-94615000D03*
X139406000Y-93345000D03*
X139406000Y-92075000D03*
X139406000Y-90805000D03*
X139406000Y-89535000D03*
%TD*%
D10*
%TO.C,C1*%
X164097000Y-105664000D03*
X162547000Y-105664000D03*
%TD*%
D11*
%TO.C,R10*%
X123127000Y-80518000D03*
X124777000Y-80518000D03*
%TD*%
D17*
%TO.C,R22*%
X130302000Y-115887000D03*
X130302000Y-114237000D03*
%TD*%
D16*
%TO.C,U3*%
X115142000Y-108458000D03*
X115142000Y-109728000D03*
X115142000Y-110998000D03*
X115142000Y-112268000D03*
X115142000Y-113538000D03*
X115142000Y-114808000D03*
X115142000Y-116078000D03*
X115142000Y-117348000D03*
X120142000Y-117348000D03*
X120142000Y-116078000D03*
X120142000Y-114808000D03*
X120142000Y-113538000D03*
X120142000Y-112268000D03*
X120142000Y-110998000D03*
X120142000Y-109728000D03*
X120142000Y-108458000D03*
%TD*%
D12*
%TO.C,R16*%
X144589000Y-84328000D03*
X142939000Y-84328000D03*
%TD*%
D18*
%TO.C,C3*%
X150863000Y-121412000D03*
X152413000Y-121412000D03*
%TD*%
D25*
%TO.C,C14*%
X148590000Y-87122000D03*
X148590000Y-88672000D03*
%TD*%
D10*
%TO.C,C13*%
X162065000Y-83566000D03*
X160515000Y-83566000D03*
%TD*%
D13*
%TO.C,Q3*%
X111173500Y-107376000D03*
X111173500Y-105476000D03*
X109298500Y-106426000D03*
%TD*%
D17*
%TO.C,R30*%
X148590000Y-92773000D03*
X148590000Y-91123000D03*
%TD*%
D26*
%TO.C,C15*%
X152908000Y-94755000D03*
X152908000Y-93205000D03*
%TD*%
D11*
%TO.C,R4*%
X120841000Y-98298000D03*
X122491000Y-98298000D03*
%TD*%
D12*
%TO.C,R19*%
X156781000Y-119634000D03*
X155131000Y-119634000D03*
%TD*%
%TO.C,R47*%
X134429000Y-101346000D03*
X132779000Y-101346000D03*
%TD*%
%TO.C,R24*%
X134429000Y-122174000D03*
X132779000Y-122174000D03*
%TD*%
D17*
%TO.C,R18*%
X150622000Y-116649000D03*
X150622000Y-114999000D03*
%TD*%
D18*
%TO.C,C30*%
X127495000Y-88138000D03*
X129045000Y-88138000D03*
%TD*%
%TO.C,C31*%
X130289000Y-95758000D03*
X131839000Y-95758000D03*
%TD*%
D10*
%TO.C,C9*%
X116345000Y-105410000D03*
X114795000Y-105410000D03*
%TD*%
D18*
%TO.C,C11*%
X110972000Y-124968000D03*
X112522000Y-124968000D03*
%TD*%
D10*
%TO.C,C21*%
X162065000Y-79502000D03*
X160515000Y-79502000D03*
%TD*%
D14*
%TO.C,J1*%
X118618000Y-96774000D03*
D15*
X118618000Y-95504000D03*
X118618000Y-94234000D03*
X118618000Y-92964000D03*
X118618000Y-91694000D03*
X118618000Y-90424000D03*
X118618000Y-89154000D03*
X118618000Y-87884000D03*
X118618000Y-86614000D03*
X118618000Y-85344000D03*
X118618000Y-84074000D03*
X118618000Y-82804000D03*
X118618000Y-81534000D03*
X118618000Y-80264000D03*
X118618000Y-78994000D03*
%TD*%
D10*
%TO.C,C6*%
X142507000Y-105918000D03*
X140957000Y-105918000D03*
%TD*%
D17*
%TO.C,R25*%
X109220000Y-111760000D03*
X109220000Y-110110000D03*
%TD*%
D11*
%TO.C,R27*%
X114999000Y-120142000D03*
X116649000Y-120142000D03*
%TD*%
%TO.C,R28*%
X119317000Y-121920000D03*
X120967000Y-121920000D03*
%TD*%
D10*
%TO.C,C4*%
X160541000Y-119888000D03*
X158991000Y-119888000D03*
%TD*%
%TO.C,C16*%
X160541000Y-97536000D03*
X158991000Y-97536000D03*
%TD*%
D12*
%TO.C,R31*%
X157098000Y-97536000D03*
X155448000Y-97536000D03*
%TD*%
D27*
%TO.C,Q1*%
X155006000Y-104999000D03*
X156906000Y-104999000D03*
X155956000Y-103124000D03*
%TD*%
D18*
%TO.C,C8*%
X136880000Y-122174000D03*
X138430000Y-122174000D03*
%TD*%
D11*
%TO.C,R14*%
X127699000Y-84074000D03*
X129349000Y-84074000D03*
%TD*%
D20*
%TO.C,J5*%
X154338000Y-73320331D03*
X121038000Y-73320331D03*
D21*
X127993000Y-74740331D03*
D22*
X130763000Y-74740331D03*
X133533000Y-74740331D03*
X136303000Y-74740331D03*
X139073000Y-74740331D03*
X141843000Y-74740331D03*
X144613000Y-74740331D03*
X147383000Y-74740331D03*
X129378000Y-71900331D03*
X132148000Y-71900331D03*
X134918000Y-71900331D03*
X137688000Y-71900331D03*
X140458000Y-71900331D03*
X143228000Y-71900331D03*
X145998000Y-71900331D03*
%TD*%
D26*
%TO.C,C7*%
X132842000Y-119139000D03*
X132842000Y-117589000D03*
%TD*%
D16*
%TO.C,U1*%
X155448000Y-108458000D03*
X155448000Y-109728000D03*
X155448000Y-110998000D03*
X155448000Y-112268000D03*
X155448000Y-113538000D03*
X155448000Y-114808000D03*
X155448000Y-116078000D03*
X155448000Y-117348000D03*
X160448000Y-117348000D03*
X160448000Y-116078000D03*
X160448000Y-114808000D03*
X160448000Y-113538000D03*
X160448000Y-112268000D03*
X160448000Y-110998000D03*
X160448000Y-109728000D03*
X160448000Y-108458000D03*
%TD*%
M02*
