M48
; DRILL file {KiCad 7.0.7} date 2023 September 27, Wednesday 23:09:12
; FORMAT={-:-/ absolute / inch / decimal}
; #@! TF.CreationDate,2023-09-27T23:09:12-07:00
; #@! TF.GenerationSoftware,Kicad,Pcbnew,7.0.7
; #@! TF.FileFunction,Plated,1,2,PTH
FMAT,2
INCH
; #@! TA.AperFunction,Plated,PTH,ViaDrill
T1C0.0120
; #@! TA.AperFunction,Plated,PTH,ComponentDrill
T2C0.0256
; #@! TA.AperFunction,Plated,PTH,ComponentDrill
T3C0.0300
; #@! TA.AperFunction,Plated,PTH,ComponentDrill
T4C0.0394
; #@! TA.AperFunction,Plated,PTH,ComponentDrill
T5C0.1260
%
G90
G05
T1
X4.2874Y-3.1378
X4.3543Y-3.2047
X4.3858Y-2.8346
X4.4213Y-3.6181
X4.4409Y-2.2323
X4.5236Y-2.5
X4.5236Y-2.5906
X4.6693Y-2.4055
X4.6693Y-2.7441
X4.7283Y-2.4173
X4.7283Y-2.8465
X5.0146Y-2.9878
X5.0165Y-2.8138
X5.3614Y-3.6102
X5.5055Y-3.8154
X5.6488Y-3.8898
X5.6496Y-2.4961
X5.6496Y-2.5906
X5.7165Y-2.4843
X5.7165Y-2.7087
X5.7295Y-3.0575
X5.7494Y-3.9857
X5.7677Y-2.5276
X5.7677Y-2.5906
X5.7795Y-3.2126
X5.7872Y-3.8938
X5.7894Y-3.9547
X5.796Y-4.0881
X5.9056Y-3.9785
X5.9843Y-3.0039
X5.9843Y-3.5748
X5.9843Y-3.7165
X5.9898Y-3.7858
X6.0197Y-3.4921
X6.0551Y-2.2008
X6.063Y-3.2087
X6.063Y-3.5866
X6.063Y-3.7008
X6.0748Y-3.3307
X6.1063Y-3.4961
X6.1063Y-3.5866
X6.1102Y-3.7126
X6.1339Y-2.7992
X6.139Y-3.8894
X6.189Y-2.4843
X6.1984Y-3.9563
X6.2047Y-3.2047
X6.2087Y-3.0079
X6.228Y-3.7984
X6.2756Y-2.9843
X6.2764Y-3.0441
X6.3031Y-3.878
X6.3259Y-4.093
X6.3701Y-2.9843
T2
X4.4748Y-2.12
X4.5248Y-2.12
X4.5748Y-2.12
X4.6248Y-2.12
X4.6748Y-2.12
X4.7248Y-2.12
X4.7748Y-2.12
X4.8248Y-2.12
X6.2256Y-3.6181
X6.2264Y-3.3819
X6.2756Y-3.6181
X6.2764Y-3.3819
T3
X4.2Y-3.26
X4.2Y-3.36
X4.2Y-3.46
X4.2Y-3.56
X4.2Y-3.66
X4.2Y-3.76
X4.21Y-2.39
X4.21Y-2.49
X4.21Y-2.59
X4.21Y-2.69
X4.21Y-2.79
X4.21Y-2.89
X4.87Y-3.44
X4.87Y-3.58
X4.88Y-2.57
X4.88Y-2.71
X5.21Y-3.27
X5.21Y-3.37
X5.21Y-3.47
X5.21Y-3.57
X5.21Y-3.67
X5.21Y-3.77
X5.22Y-2.38
X5.22Y-2.48
X5.22Y-2.58
X5.22Y-2.68
X5.22Y-2.78
X5.22Y-2.88
X5.88Y-3.45
X5.88Y-3.59
X5.89Y-2.56
X5.89Y-2.7
T4
X4.4391Y-1.9325
X4.4936Y-1.8207
X4.5481Y-1.9325
X4.6027Y-1.8207
X4.6572Y-1.9325
X4.7117Y-1.8207
X4.7663Y-1.9325
X4.8208Y-1.8207
X4.8753Y-1.9325
X4.9298Y-1.8207
X4.9844Y-1.9325
X5.0389Y-1.8207
X5.0934Y-1.9325
X5.148Y-1.8207
X5.2025Y-1.9325
T5
X4.1653Y-1.8766
X5.4763Y-1.8766
T0
M30
