M48
; DRILL file {KiCad 7.0.7} date 2024 February 25, Sunday 13:35:55
; FORMAT={-:-/ absolute / inch / decimal}
; #@! TF.CreationDate,2024-02-25T13:35:55-08:00
; #@! TF.GenerationSoftware,Kicad,Pcbnew,7.0.7
; #@! TF.FileFunction,Plated,1,4,PTH
FMAT,2
INCH
; #@! TA.AperFunction,Plated,PTH,ComponentDrill
T1C0.0080
; #@! TA.AperFunction,Plated,PTH,ViaDrill
T2C0.0120
; #@! TA.AperFunction,Plated,PTH,ComponentDrill
T3C0.0236
; #@! TA.AperFunction,Plated,PTH,ComponentDrill
T4C0.0360
; #@! TA.AperFunction,Plated,PTH,ComponentDrill
T5C0.1063
; #@! TA.AperFunction,Plated,PTH,ComponentDrill
T6C0.2402
%
G90
G05
T1
X4.7486Y-3.1809
X4.7486Y-3.2321
X4.7486Y-3.2872
X4.7486Y-3.3384
X4.7486Y-3.3896
X4.7486Y-3.4447
X4.7486Y-3.4959
X4.7998Y-3.2321
X4.7998Y-3.1809
X4.7998Y-3.2872
X4.7998Y-3.3384
X4.7998Y-3.3896
X4.7998Y-3.4447
X4.7998Y-3.4959
X4.851Y-3.1809
X4.851Y-3.2321
X4.851Y-3.2872
X4.851Y-3.3384
X4.851Y-3.3896
X4.851Y-3.4447
X4.851Y-3.4959
T2
X2.6909Y-3.0787
X2.6998Y-3.7116
X2.7008Y-3.2402
X2.9488Y-3.5571
X2.9528Y-3.3976
X2.9626Y-2.8386
X2.98Y-3.18
X3.061Y-3.7815
X3.126Y-2.8209
X3.1413Y-3.8134
X3.1417Y-3.2303
X3.2165Y-2.9094
X3.2165Y-2.9587
X3.2185Y-3.0039
X3.2185Y-3.7854
X3.2618Y-3.3799
X3.2638Y-3.4705
X3.2815Y-2.9075
X3.2835Y-2.9528
X3.2854Y-3.0039
X3.311Y-2.6693
X3.311Y-3.1069
X3.3327Y-3.5433
X3.3642Y-3.4193
X3.4173Y-3.5157
X3.4626Y-3.3681
X3.5945Y-3.0197
X3.6161Y-3.4724
X4.59Y-2.96
X4.7402Y-3.1069
X4.88Y-3.08
X5.0Y-3.311
X5.0Y-3.3701
X5.0413Y-3.3386
X5.07Y-3.19
X5.0807Y-3.3071
X5.0827Y-3.3681
X5.2874Y-3.4232
X5.2894Y-3.2677
X5.2933Y-3.1516
X5.2933Y-3.5394
X5.3563Y-3.6516
X5.5669Y-3.6831
X5.6083Y-3.5866
X5.7008Y-3.687
X5.7224Y-3.2874
X5.7224Y-3.5945
X5.86Y-3.63
X5.92Y-3.58
X5.92Y-3.68
X5.9213Y-3.8819
X6.03Y-3.1
X6.27Y-2.39
X6.319Y-3.8163
X6.3197Y-3.9279
X6.3307Y-3.7087
X6.409Y-3.8663
X6.42Y-3.62
X6.42Y-3.72
T4
X2.7866Y-2.7377
X2.7866Y-2.8164
X2.7866Y-2.8952
X2.7866Y-2.9739
X2.7866Y-3.0526
X2.7866Y-3.1314
X2.7866Y-3.2101
X2.7866Y-3.2889
X2.7866Y-3.3676
X2.7866Y-3.4463
X2.7866Y-3.5251
X2.7866Y-3.6038
X2.7866Y-3.6826
X2.7866Y-3.7613
X2.7866Y-3.84
X2.7866Y-3.9188
X2.7866Y-3.9975
X2.7866Y-4.0763
X2.7866Y-4.155
X2.7866Y-4.2337
X2.8654Y-2.7377
X2.8654Y-2.8164
X2.8654Y-2.8952
X2.8654Y-2.9739
X2.8654Y-3.0526
X2.8654Y-3.1314
X2.8654Y-3.2101
X2.8654Y-3.2889
X2.8654Y-3.3676
X2.8654Y-3.4463
X2.8654Y-3.5251
X2.8654Y-3.6038
X2.8654Y-3.6826
X2.8654Y-3.7613
X2.8654Y-3.84
X2.8654Y-3.9188
X2.8654Y-3.9975
X2.8654Y-4.0763
X2.8654Y-4.155
X2.8654Y-4.2337
X6.7736Y-2.6772
X6.7736Y-2.7559
X6.7736Y-2.8346
X6.7736Y-2.9134
X6.7736Y-2.9921
X6.7736Y-3.0709
X6.7736Y-3.1496
X6.7736Y-3.2283
X6.7736Y-3.3071
X6.7736Y-3.3858
X6.7736Y-3.4646
X6.7736Y-3.5433
X6.7736Y-3.622
X6.7736Y-3.7008
X6.7736Y-3.7795
X6.7736Y-3.8583
X6.7736Y-3.937
X6.7736Y-4.0157
X6.7736Y-4.0945
X6.7736Y-4.1732
X6.8524Y-2.6772
X6.8524Y-2.7559
X6.8524Y-2.8346
X6.8524Y-2.9134
X6.8524Y-2.9921
X6.8524Y-3.0709
X6.8524Y-3.1496
X6.8524Y-3.2283
X6.8524Y-3.3071
X6.8524Y-3.3858
X6.8524Y-3.4646
X6.8524Y-3.5433
X6.8524Y-3.622
X6.8524Y-3.7008
X6.8524Y-3.7795
X6.8524Y-3.8583
X6.8524Y-3.937
X6.8524Y-4.0157
X6.8524Y-4.0945
X6.8524Y-4.1732
T5
X6.03Y-2.05
X6.03Y-2.3335
T6
X4.3063Y-1.4875
X5.4862Y-1.4875
T3
G00X5.7721Y-1.926
M15
G01X5.8154Y-1.926
M16
G05
G00X5.7721Y-2.4575
M15
G01X5.8154Y-2.4575
M16
G05
T0
M30
