%TF.GenerationSoftware,KiCad,Pcbnew,7.0.7*%
%TF.CreationDate,2024-02-25T13:36:01-08:00*%
%TF.ProjectId,Power-board,506f7765-722d-4626-9f61-72642e6b6963,rev?*%
%TF.SameCoordinates,Original*%
%TF.FileFunction,Soldermask,Top*%
%TF.FilePolarity,Negative*%
%FSLAX46Y46*%
G04 Gerber Fmt 4.6, Leading zero omitted, Abs format (unit mm)*
G04 Created by KiCad (PCBNEW 7.0.7) date 2024-02-25 13:36:01*
%MOMM*%
%LPD*%
G01*
G04 APERTURE LIST*
G04 Aperture macros list*
%AMRoundRect*
0 Rectangle with rounded corners*
0 $1 Rounding radius*
0 $2 $3 $4 $5 $6 $7 $8 $9 X,Y pos of 4 corners*
0 Add a 4 corners polygon primitive as box body*
4,1,4,$2,$3,$4,$5,$6,$7,$8,$9,$2,$3,0*
0 Add four circle primitives for the rounded corners*
1,1,$1+$1,$2,$3*
1,1,$1+$1,$4,$5*
1,1,$1+$1,$6,$7*
1,1,$1+$1,$8,$9*
0 Add four rect primitives between the rounded corners*
20,1,$1+$1,$2,$3,$4,$5,0*
20,1,$1+$1,$4,$5,$6,$7,0*
20,1,$1+$1,$6,$7,$8,$9,0*
20,1,$1+$1,$8,$9,$2,$3,0*%
G04 Aperture macros list end*
%ADD10RoundRect,0.225000X-0.225000X-0.250000X0.225000X-0.250000X0.225000X0.250000X-0.225000X0.250000X0*%
%ADD11RoundRect,0.218750X0.256250X-0.218750X0.256250X0.218750X-0.256250X0.218750X-0.256250X-0.218750X0*%
%ADD12RoundRect,0.225000X0.225000X0.250000X-0.225000X0.250000X-0.225000X-0.250000X0.225000X-0.250000X0*%
%ADD13RoundRect,0.225000X0.250000X-0.225000X0.250000X0.225000X-0.250000X0.225000X-0.250000X-0.225000X0*%
%ADD14RoundRect,0.218750X0.218750X0.256250X-0.218750X0.256250X-0.218750X-0.256250X0.218750X-0.256250X0*%
%ADD15R,1.676400X1.879600*%
%ADD16RoundRect,0.200000X-0.275000X0.200000X-0.275000X-0.200000X0.275000X-0.200000X0.275000X0.200000X0*%
%ADD17R,1.400000X0.449999*%
%ADD18C,0.780000*%
%ADD19R,3.400001X9.700001*%
%ADD20C,1.371600*%
%ADD21RoundRect,0.250000X-0.712500X-2.475000X0.712500X-2.475000X0.712500X2.475000X-0.712500X2.475000X0*%
%ADD22R,2.340000X1.330000*%
%ADD23R,2.450000X1.380000*%
%ADD24RoundRect,1.025000X1.025000X-1.025000X1.025000X1.025000X-1.025000X1.025000X-1.025000X-1.025000X0*%
%ADD25C,4.100000*%
%ADD26R,1.549400X0.863600*%
%ADD27RoundRect,0.361950X-0.361950X1.098550X-0.361950X-1.098550X0.361950X-1.098550X0.361950X1.098550X0*%
%ADD28RoundRect,0.200000X0.200000X0.275000X-0.200000X0.275000X-0.200000X-0.275000X0.200000X-0.275000X0*%
%ADD29C,10.160000*%
G04 APERTURE END LIST*
%TO.C,U3*%
G36*
X123427570Y-82205994D02*
G01*
X123436295Y-82208641D01*
X123444334Y-82212936D01*
X123451380Y-82218720D01*
X123457164Y-82225766D01*
X123461459Y-82233805D01*
X123464105Y-82242530D01*
X123464999Y-82251600D01*
X123464999Y-87338600D01*
X123464105Y-87347670D01*
X123461459Y-87356395D01*
X123457164Y-87364434D01*
X123451380Y-87371480D01*
X123444334Y-87377264D01*
X123436295Y-87381559D01*
X123427570Y-87384206D01*
X123418500Y-87385100D01*
X120411500Y-87385100D01*
X120402430Y-87384206D01*
X120393705Y-87381559D01*
X120385666Y-87377264D01*
X120378620Y-87371480D01*
X120372836Y-87364434D01*
X120368541Y-87356395D01*
X120365895Y-87347670D01*
X120365001Y-87338600D01*
X120365001Y-82251600D01*
X120365895Y-82242530D01*
X120368541Y-82233805D01*
X120372836Y-82225766D01*
X120378620Y-82218720D01*
X120385666Y-82212936D01*
X120393705Y-82208641D01*
X120402430Y-82205994D01*
X120411500Y-82205100D01*
X123418500Y-82205100D01*
X123427570Y-82205994D01*
G37*
%TO.C,U1*%
G36*
X93526100Y-72710200D02*
G01*
X91265500Y-72710200D01*
X91265500Y-69509800D01*
X93526100Y-69509800D01*
X93526100Y-72710200D01*
G37*
%TO.C,U4*%
G36*
X93506100Y-83410200D02*
G01*
X91245500Y-83410200D01*
X91245500Y-80209800D01*
X93506100Y-80209800D01*
X93506100Y-83410200D01*
G37*
%TD*%
D10*
%TO.C,C4*%
X130905000Y-79575100D03*
X132455000Y-79575100D03*
%TD*%
D11*
%TO.C,D2*%
X143498000Y-85946000D03*
X143498000Y-84371000D03*
%TD*%
D12*
%TO.C,C5*%
X90000000Y-87800000D03*
X88450000Y-87800000D03*
%TD*%
D13*
%TO.C,C1*%
X77600000Y-71150000D03*
X77600000Y-69600000D03*
%TD*%
D14*
%TO.C,F2*%
X83000000Y-69600000D03*
X81425000Y-69600000D03*
%TD*%
D13*
%TO.C,C12*%
X152400000Y-93472000D03*
X152400000Y-91922000D03*
%TD*%
D15*
%TO.C,D16*%
X79950000Y-98600000D03*
X79950000Y-103019600D03*
%TD*%
D16*
%TO.C,R1*%
X152400000Y-96457000D03*
X152400000Y-98107000D03*
%TD*%
D17*
%TO.C,U3*%
X118965001Y-80570100D03*
X118965001Y-81220101D03*
X118965001Y-81870100D03*
X118965001Y-82520101D03*
X118965001Y-83170099D03*
X118965001Y-83820101D03*
X118965001Y-84470099D03*
X118965001Y-85120101D03*
X118965001Y-85770099D03*
X118965001Y-86420101D03*
X118965001Y-87070099D03*
X118965001Y-87720100D03*
X118965001Y-88370099D03*
X118965001Y-89020100D03*
X124865002Y-89020100D03*
X124865002Y-88370099D03*
X124865002Y-87720100D03*
X124865002Y-87070099D03*
X124865002Y-86420101D03*
X124865002Y-85770099D03*
X124865002Y-85120101D03*
X124865002Y-84470099D03*
X124865002Y-83820101D03*
X124865002Y-83170099D03*
X124865002Y-82520101D03*
X124865002Y-81870100D03*
X124865002Y-81220101D03*
X124865002Y-80570100D03*
D18*
X120615000Y-80795100D03*
X120615000Y-82095100D03*
X120615000Y-83495100D03*
X120615000Y-84795100D03*
X120615000Y-86095100D03*
X120615003Y-87495100D03*
X120615003Y-88795100D03*
X121915000Y-82095100D03*
D19*
X121915000Y-84795100D03*
D18*
X121915003Y-80795100D03*
X121915003Y-83495100D03*
X121915003Y-84795100D03*
X121915003Y-86095100D03*
X121915003Y-87495100D03*
X121915005Y-88795100D03*
X123215000Y-80795100D03*
X123215000Y-82095100D03*
X123215000Y-83495100D03*
X123215000Y-84795100D03*
X123215000Y-86095100D03*
X123215002Y-87495100D03*
X123215002Y-88795100D03*
%TD*%
D13*
%TO.C,C3*%
X78000000Y-81800000D03*
X78000000Y-80250000D03*
%TD*%
D10*
%TO.C,C9*%
X130905000Y-86775100D03*
X132455000Y-86775100D03*
%TD*%
D20*
%TO.C,J1*%
X70780000Y-69536931D03*
X72780000Y-69536931D03*
X70780000Y-71536931D03*
X72780000Y-71536931D03*
X70780000Y-73536931D03*
X72780000Y-73536931D03*
X70780000Y-75536931D03*
X72780000Y-75536931D03*
X70780000Y-77536931D03*
X72780000Y-77536931D03*
X70780000Y-79536931D03*
X72780000Y-79536931D03*
X70780000Y-81536931D03*
X72780000Y-81536931D03*
X70780000Y-83536931D03*
X72780000Y-83536931D03*
X70780000Y-85536931D03*
X72780000Y-85536931D03*
X70780000Y-87536931D03*
X72780000Y-87536931D03*
X70780000Y-89536931D03*
X72780000Y-89536931D03*
X70780000Y-91536931D03*
X72780000Y-91536931D03*
X70780000Y-93536931D03*
X72780000Y-93536931D03*
X70780000Y-95536931D03*
X72780000Y-95536931D03*
X70780000Y-97536931D03*
X72780000Y-97536931D03*
X70780000Y-99536931D03*
X72780000Y-99536931D03*
X70780000Y-101536831D03*
X72780000Y-101536831D03*
X70780000Y-103536831D03*
X72780000Y-103536831D03*
X70780000Y-105536831D03*
X72780000Y-105536831D03*
X70780000Y-107536831D03*
X72780000Y-107536831D03*
X172050000Y-68000100D03*
X174050000Y-68000100D03*
X172050000Y-70000100D03*
X174050000Y-70000100D03*
X172050000Y-72000100D03*
X174050000Y-72000100D03*
X172050000Y-74000100D03*
X174050000Y-74000100D03*
X172050000Y-76000000D03*
X174050000Y-76000000D03*
X172050000Y-78000000D03*
X174050000Y-78000000D03*
X172050000Y-80000000D03*
X174050000Y-80000000D03*
X172050000Y-82000000D03*
X174050000Y-82000000D03*
X172050000Y-84000000D03*
X174050000Y-84000000D03*
X172050000Y-86000000D03*
X174050000Y-86000000D03*
X172050000Y-88000000D03*
X174050000Y-88000000D03*
X172050000Y-90000000D03*
X174050000Y-90000000D03*
X172050000Y-92000000D03*
X174050000Y-92000000D03*
X172050000Y-94000000D03*
X174050000Y-94000000D03*
X172050000Y-96000000D03*
X174050000Y-96000000D03*
X172050000Y-98000000D03*
X174050000Y-98000000D03*
X172050000Y-100000000D03*
X174050000Y-100000000D03*
X172050000Y-102000000D03*
X174050000Y-102000000D03*
X172050000Y-104000000D03*
X174050000Y-104000000D03*
X172050000Y-106000000D03*
X174050000Y-106000000D03*
%TD*%
D21*
%TO.C,F1*%
X153245000Y-83820000D03*
X160020000Y-83820000D03*
%TD*%
D14*
%TO.C,F3*%
X82851000Y-80286000D03*
X81276000Y-80286000D03*
%TD*%
D22*
%TO.C,J8*%
X147152000Y-62415000D03*
D23*
X147157000Y-48910000D03*
D24*
X153162000Y-52070000D03*
D25*
X153162000Y-59270000D03*
%TD*%
D12*
%TO.C,C11*%
X139200000Y-92050000D03*
X137650000Y-92050000D03*
%TD*%
D13*
%TO.C,C6*%
X148700000Y-83500000D03*
X148700000Y-81950000D03*
%TD*%
D26*
%TO.C,U1*%
X85944200Y-68810000D03*
X85944200Y-71110000D03*
X85944200Y-73410000D03*
D27*
X92383100Y-71122700D03*
%TD*%
D10*
%TO.C,C10*%
X130955000Y-89375100D03*
X132505000Y-89375100D03*
%TD*%
D28*
%TO.C,R3*%
X148500000Y-86050000D03*
X146850000Y-86050000D03*
%TD*%
D10*
%TO.C,C8*%
X130905000Y-82479100D03*
X132455000Y-82479100D03*
%TD*%
D29*
%TO.C,J5*%
X139350000Y-37782000D03*
X109380000Y-37782000D03*
%TD*%
D15*
%TO.C,D15*%
X157200000Y-97950000D03*
X157200000Y-93530400D03*
%TD*%
D26*
%TO.C,U4*%
X85924200Y-79510000D03*
X85924200Y-81810000D03*
X85924200Y-84110000D03*
D27*
X92363100Y-81822700D03*
%TD*%
D12*
%TO.C,C2*%
X89850000Y-76150000D03*
X88300000Y-76150000D03*
%TD*%
M02*
