M48
; DRILL file {KiCad 7.0.7} date 2024 February 19, Monday 11:00:18
; FORMAT={-:-/ absolute / inch / decimal}
; #@! TF.CreationDate,2024-02-19T11:00:18-08:00
; #@! TF.GenerationSoftware,Kicad,Pcbnew,7.0.7
; #@! TF.FileFunction,Plated,1,4,PTH
FMAT,2
INCH
; #@! TA.AperFunction,Plated,PTH,ViaDrill
T1C0.0120
; #@! TA.AperFunction,Plated,PTH,ViaDrill
T2C0.0240
; #@! TA.AperFunction,Plated,PTH,ComponentDrill
T3C0.0276
; #@! TA.AperFunction,Plated,PTH,ComponentDrill
T4C0.0394
; #@! TA.AperFunction,Plated,PTH,ComponentDrill
T5C0.0409
; #@! TA.AperFunction,Plated,PTH,ComponentDrill
T6C0.1791
; #@! TA.AperFunction,Plated,PTH,ComponentDrill
T7C0.2402
%
G90
G05
T1
X5.295Y-3.725
X6.016Y-3.526
X6.05Y-3.73
X6.138Y-5.132
X6.356Y-5.05
X6.485Y-3.52
X6.593Y-5.166
X6.625Y-2.9
X6.675Y-2.9
X6.75Y-2.9
X6.83Y-4.428
X6.832Y-3.85
X6.8503Y-3.3
X6.975Y-2.95
X7.0078Y-3.3112
X7.0875Y-3.3365
X7.161Y-3.525
X7.272Y-3.992
X7.31Y-3.392
X7.313Y-3.521
X7.45Y-2.925
X7.585Y-5.255
X7.59Y-5.355
X7.61Y-4.805
X7.664Y-3.054
T2
X4.98Y-5.955
X5.212Y-3.424
X6.196Y-4.67
X7.524Y-5.01
X7.7074Y-4.6324
X7.84Y-5.38
X7.88Y-2.8
X7.94Y-5.75
X7.9847Y-5.96
X8.015Y-5.565
X8.0665Y-4.542
X8.0863Y-4.4297
X8.2259Y-6.0506
X8.3394Y-5.5806
X8.522Y-4.126
T3
X4.8916Y-2.995
X4.8916Y-3.2509
X4.931Y-3.0737
X4.931Y-3.1722
X4.9704Y-2.995
X4.9704Y-3.2509
X5.0097Y-3.0737
X5.0097Y-3.1722
X5.0491Y-2.995
X5.0491Y-3.2509
X5.0885Y-3.0737
X5.0885Y-3.1722
X5.1278Y-2.995
X5.1278Y-3.2509
X5.1672Y-3.0737
X5.1672Y-3.1722
X5.2066Y-2.995
X5.2066Y-3.2509
X5.2459Y-3.0737
X5.2459Y-3.1722
X5.2853Y-2.995
X5.2853Y-3.2509
X5.3247Y-3.0737
X5.3247Y-3.1722
X5.3641Y-2.995
X5.3641Y-3.2509
X5.4034Y-3.0737
X5.4034Y-3.1722
X5.4428Y-2.995
X5.4428Y-3.2509
X5.4822Y-3.0737
X5.4822Y-3.1722
X5.5215Y-2.995
X5.5215Y-3.2509
X5.5609Y-3.0737
X5.5609Y-3.1722
X5.6003Y-2.995
X5.6003Y-3.2509
X5.6396Y-3.0737
X5.6396Y-3.1722
X5.679Y-2.995
X5.679Y-3.2509
X5.7184Y-3.0737
X5.7184Y-3.1722
X5.7578Y-2.995
X5.7578Y-3.2509
X5.7971Y-3.0737
X5.7971Y-3.1722
X5.8365Y-2.995
X5.8365Y-3.2509
X5.8759Y-3.0737
X5.8759Y-3.1722
X5.9152Y-2.995
X5.9152Y-3.2509
X5.9546Y-3.0737
X5.9546Y-3.1722
X5.994Y-2.995
X5.994Y-3.2509
X6.0333Y-3.0737
X6.0333Y-3.1722
X6.0727Y-2.995
X6.0727Y-3.2509
X6.1121Y-3.0737
X6.1121Y-3.1722
X6.1515Y-2.995
X6.1515Y-3.2509
X6.1908Y-3.0737
X6.1908Y-3.1722
X6.2302Y-2.995
X6.2302Y-3.2509
X6.2696Y-3.0737
X6.2696Y-3.1722
X6.3089Y-2.995
X6.3089Y-3.2509
X6.3483Y-3.0737
X6.3483Y-3.1722
X6.3877Y-2.995
X6.3877Y-3.2509
X6.427Y-3.0737
X6.427Y-3.1722
X6.4664Y-2.995
X6.4664Y-3.2509
X6.5058Y-3.0737
X6.5058Y-3.1722
X6.5452Y-2.995
X6.5452Y-3.2509
X6.5845Y-3.0737
X6.5845Y-3.1722
X6.6239Y-2.995
X6.6239Y-3.2509
X6.6633Y-3.0737
X6.6633Y-3.1722
X6.7026Y-2.995
X6.7026Y-3.2509
X6.742Y-3.0737
X6.742Y-3.1722
X6.7814Y-2.995
X6.7814Y-3.2509
X6.8207Y-3.0737
X6.8207Y-3.1722
X6.8601Y-2.995
X6.8601Y-3.2509
X6.8995Y-3.0737
X6.8995Y-3.1722
X6.9389Y-2.995
X6.9389Y-3.2509
X6.9782Y-3.0737
X6.9782Y-3.1722
X7.0176Y-2.995
X7.0176Y-3.2509
X7.057Y-3.0737
X7.057Y-3.1722
X7.0963Y-2.995
X7.0963Y-3.2509
X7.1357Y-3.0737
X7.1357Y-3.1722
X7.1751Y-2.995
X7.1751Y-3.2509
X7.2144Y-3.0737
X7.2144Y-3.1722
X7.2538Y-2.995
X7.2538Y-3.2509
X7.2932Y-3.0737
X7.2932Y-3.1722
X7.3326Y-2.995
X7.3326Y-3.2509
X7.3719Y-3.0737
X7.3719Y-3.1722
X7.4113Y-2.995
X7.4113Y-3.2509
X7.4507Y-3.0737
X7.4507Y-3.1722
X7.49Y-2.995
X7.49Y-3.2509
X7.5294Y-3.0737
X7.5294Y-3.1722
X7.5688Y-2.995
X7.5688Y-3.2509
X7.6081Y-3.0737
X7.6081Y-3.1722
X7.6475Y-2.995
X7.6475Y-3.2509
X7.7656Y-3.0737
X7.7656Y-3.1722
X7.805Y-2.995
X7.805Y-3.2509
X7.8444Y-3.0737
X7.8444Y-3.1722
X7.8837Y-2.995
X7.8837Y-3.2509
X7.9231Y-3.0737
X7.9231Y-3.1722
X7.9625Y-2.995
X7.9625Y-3.2509
X8.0019Y-3.0737
X8.0019Y-3.1722
X8.0412Y-2.995
X8.0412Y-3.2509
X8.0806Y-3.0737
X8.0806Y-3.1722
X8.12Y-2.995
X8.12Y-3.2509
X8.1593Y-3.0737
X8.1593Y-3.1722
T4
X4.8924Y-3.874
X4.8946Y-5.615
X4.9924Y-3.874
X4.9946Y-5.615
X5.0924Y-3.874
X5.0946Y-5.615
X5.1924Y-3.874
X5.1946Y-5.615
X5.2924Y-3.874
X5.2946Y-5.615
X5.3924Y-3.874
X5.3946Y-5.615
X5.4924Y-3.874
X5.4946Y-5.615
X5.5924Y-3.874
X5.5946Y-5.615
X5.6924Y-3.874
X5.6946Y-5.615
X5.7924Y-3.874
X5.7946Y-5.615
X5.8924Y-3.874
X5.8946Y-5.615
X5.9924Y-3.874
X5.9946Y-5.615
X6.0924Y-3.874
X6.0946Y-5.615
X6.1924Y-3.874
X6.1946Y-5.615
X6.2924Y-3.874
X6.2946Y-5.615
X6.3924Y-3.874
X6.3946Y-5.615
X6.4924Y-3.874
X6.4946Y-5.615
X6.5924Y-3.874
X6.5946Y-5.615
X6.6924Y-3.874
X6.6946Y-5.615
X7.3Y-5.0
X7.3Y-5.1
T5
X4.893Y-4.2654
X4.893Y-5.2654
X4.993Y-4.2654
X4.993Y-5.2654
X5.093Y-4.2654
X5.093Y-5.2654
X5.193Y-4.2654
X5.193Y-5.2654
X5.293Y-4.2654
X5.293Y-5.2654
X5.393Y-4.2654
X5.393Y-5.2654
X5.493Y-4.2654
X5.493Y-5.2654
X5.593Y-4.2654
X5.593Y-5.2654
X5.693Y-4.2654
X5.693Y-5.2654
X5.793Y-4.2654
X5.793Y-5.2654
X5.893Y-4.2654
X5.893Y-5.2654
X5.993Y-4.2654
X5.993Y-5.2654
X6.093Y-4.2654
X6.093Y-5.2654
X6.193Y-4.2654
X6.193Y-5.2654
X6.293Y-4.2654
X6.293Y-5.2654
X6.393Y-4.2654
X6.393Y-5.2654
X6.493Y-4.2654
X6.493Y-5.2654
X6.593Y-4.2654
X6.593Y-5.2654
X6.693Y-4.2654
X6.693Y-5.2654
T6
X9.214Y-3.7845
X9.214Y-4.068
T7
X9.21Y-4.7
X9.21Y-5.8799
T0
M30
