%TF.GenerationSoftware,KiCad,Pcbnew,7.0.7*%
%TF.CreationDate,2024-02-19T11:00:26-08:00*%
%TF.ProjectId,Core-Board,436f7265-2d42-46f6-9172-642e6b696361,rev?*%
%TF.SameCoordinates,Original*%
%TF.FileFunction,Legend,Top*%
%TF.FilePolarity,Positive*%
%FSLAX46Y46*%
G04 Gerber Fmt 4.6, Leading zero omitted, Abs format (unit mm)*
G04 Created by KiCad (PCBNEW 7.0.7) date 2024-02-19 11:00:26*
%MOMM*%
%LPD*%
G01*
G04 APERTURE LIST*
%ADD10C,0.150000*%
%ADD11C,0.127000*%
%ADD12C,0.200000*%
%ADD13C,0.152400*%
%ADD14C,0.050800*%
%ADD15C,0.120000*%
G04 APERTURE END LIST*
D10*
X184353200Y-96062800D02*
X198069200Y-96062800D01*
X198069200Y-114350800D01*
X184353200Y-114350800D01*
X184353200Y-96062800D01*
X149231919Y-100903400D02*
X150331919Y-100903400D01*
X149808109Y-100903400D02*
X149808109Y-101474828D01*
X149231919Y-101474828D02*
X150331919Y-101474828D01*
X150331919Y-101855781D02*
X149231919Y-102522447D01*
X150331919Y-102522447D02*
X149231919Y-101855781D01*
X150331919Y-102808162D02*
X150331919Y-103474828D01*
X150331919Y-103474828D02*
X149231919Y-103046257D01*
X149231919Y-104617686D02*
X150331919Y-104617686D01*
X150331919Y-104617686D02*
X150331919Y-104855781D01*
X150331919Y-104855781D02*
X150279538Y-104998638D01*
X150279538Y-104998638D02*
X150174776Y-105093876D01*
X150174776Y-105093876D02*
X150070014Y-105141495D01*
X150070014Y-105141495D02*
X149860490Y-105189114D01*
X149860490Y-105189114D02*
X149703347Y-105189114D01*
X149703347Y-105189114D02*
X149493823Y-105141495D01*
X149493823Y-105141495D02*
X149389061Y-105093876D01*
X149389061Y-105093876D02*
X149284300Y-104998638D01*
X149284300Y-104998638D02*
X149231919Y-104855781D01*
X149231919Y-104855781D02*
X149231919Y-104617686D01*
X150331919Y-105474829D02*
X150331919Y-106046257D01*
X149231919Y-105760543D02*
X150331919Y-105760543D01*
X146718900Y-136007743D02*
X146666519Y-136150600D01*
X146666519Y-136150600D02*
X146666519Y-136388695D01*
X146666519Y-136388695D02*
X146718900Y-136483933D01*
X146718900Y-136483933D02*
X146771280Y-136531552D01*
X146771280Y-136531552D02*
X146876042Y-136579171D01*
X146876042Y-136579171D02*
X146980804Y-136579171D01*
X146980804Y-136579171D02*
X147085566Y-136531552D01*
X147085566Y-136531552D02*
X147137947Y-136483933D01*
X147137947Y-136483933D02*
X147190328Y-136388695D01*
X147190328Y-136388695D02*
X147242709Y-136198219D01*
X147242709Y-136198219D02*
X147295090Y-136102981D01*
X147295090Y-136102981D02*
X147347471Y-136055362D01*
X147347471Y-136055362D02*
X147452233Y-136007743D01*
X147452233Y-136007743D02*
X147556995Y-136007743D01*
X147556995Y-136007743D02*
X147661757Y-136055362D01*
X147661757Y-136055362D02*
X147714138Y-136102981D01*
X147714138Y-136102981D02*
X147766519Y-136198219D01*
X147766519Y-136198219D02*
X147766519Y-136436314D01*
X147766519Y-136436314D02*
X147714138Y-136579171D01*
X146666519Y-137007743D02*
X147766519Y-137007743D01*
X147766519Y-137007743D02*
X147766519Y-137245838D01*
X147766519Y-137245838D02*
X147714138Y-137388695D01*
X147714138Y-137388695D02*
X147609376Y-137483933D01*
X147609376Y-137483933D02*
X147504614Y-137531552D01*
X147504614Y-137531552D02*
X147295090Y-137579171D01*
X147295090Y-137579171D02*
X147137947Y-137579171D01*
X147137947Y-137579171D02*
X146928423Y-137531552D01*
X146928423Y-137531552D02*
X146823661Y-137483933D01*
X146823661Y-137483933D02*
X146718900Y-137388695D01*
X146718900Y-137388695D02*
X146666519Y-137245838D01*
X146666519Y-137245838D02*
X146666519Y-137007743D01*
X146771280Y-139341076D02*
X146718900Y-139293457D01*
X146718900Y-139293457D02*
X146666519Y-139150600D01*
X146666519Y-139150600D02*
X146666519Y-139055362D01*
X146666519Y-139055362D02*
X146718900Y-138912505D01*
X146718900Y-138912505D02*
X146823661Y-138817267D01*
X146823661Y-138817267D02*
X146928423Y-138769648D01*
X146928423Y-138769648D02*
X147137947Y-138722029D01*
X147137947Y-138722029D02*
X147295090Y-138722029D01*
X147295090Y-138722029D02*
X147504614Y-138769648D01*
X147504614Y-138769648D02*
X147609376Y-138817267D01*
X147609376Y-138817267D02*
X147714138Y-138912505D01*
X147714138Y-138912505D02*
X147766519Y-139055362D01*
X147766519Y-139055362D02*
X147766519Y-139150600D01*
X147766519Y-139150600D02*
X147714138Y-139293457D01*
X147714138Y-139293457D02*
X147661757Y-139341076D01*
X146718900Y-139722029D02*
X146666519Y-139864886D01*
X146666519Y-139864886D02*
X146666519Y-140102981D01*
X146666519Y-140102981D02*
X146718900Y-140198219D01*
X146718900Y-140198219D02*
X146771280Y-140245838D01*
X146771280Y-140245838D02*
X146876042Y-140293457D01*
X146876042Y-140293457D02*
X146980804Y-140293457D01*
X146980804Y-140293457D02*
X147085566Y-140245838D01*
X147085566Y-140245838D02*
X147137947Y-140198219D01*
X147137947Y-140198219D02*
X147190328Y-140102981D01*
X147190328Y-140102981D02*
X147242709Y-139912505D01*
X147242709Y-139912505D02*
X147295090Y-139817267D01*
X147295090Y-139817267D02*
X147347471Y-139769648D01*
X147347471Y-139769648D02*
X147452233Y-139722029D01*
X147452233Y-139722029D02*
X147556995Y-139722029D01*
X147556995Y-139722029D02*
X147661757Y-139769648D01*
X147661757Y-139769648D02*
X147714138Y-139817267D01*
X147714138Y-139817267D02*
X147766519Y-139912505D01*
X147766519Y-139912505D02*
X147766519Y-140150600D01*
X147766519Y-140150600D02*
X147714138Y-140293457D01*
X240002266Y-130886151D02*
X240002266Y-130124247D01*
X140121119Y-135607752D02*
X140121119Y-136179180D01*
X139021119Y-135893466D02*
X140121119Y-135893466D01*
X139125880Y-137083942D02*
X139073500Y-137036323D01*
X139073500Y-137036323D02*
X139021119Y-136893466D01*
X139021119Y-136893466D02*
X139021119Y-136798228D01*
X139021119Y-136798228D02*
X139073500Y-136655371D01*
X139073500Y-136655371D02*
X139178261Y-136560133D01*
X139178261Y-136560133D02*
X139283023Y-136512514D01*
X139283023Y-136512514D02*
X139492547Y-136464895D01*
X139492547Y-136464895D02*
X139649690Y-136464895D01*
X139649690Y-136464895D02*
X139859214Y-136512514D01*
X139859214Y-136512514D02*
X139963976Y-136560133D01*
X139963976Y-136560133D02*
X140068738Y-136655371D01*
X140068738Y-136655371D02*
X140121119Y-136798228D01*
X140121119Y-136798228D02*
X140121119Y-136893466D01*
X140121119Y-136893466D02*
X140068738Y-137036323D01*
X140068738Y-137036323D02*
X140016357Y-137083942D01*
X140121119Y-137417276D02*
X140121119Y-138036323D01*
X140121119Y-138036323D02*
X139702071Y-137702990D01*
X139702071Y-137702990D02*
X139702071Y-137845847D01*
X139702071Y-137845847D02*
X139649690Y-137941085D01*
X139649690Y-137941085D02*
X139597309Y-137988704D01*
X139597309Y-137988704D02*
X139492547Y-138036323D01*
X139492547Y-138036323D02*
X139230642Y-138036323D01*
X139230642Y-138036323D02*
X139125880Y-137988704D01*
X139125880Y-137988704D02*
X139073500Y-137941085D01*
X139073500Y-137941085D02*
X139021119Y-137845847D01*
X139021119Y-137845847D02*
X139021119Y-137560133D01*
X139021119Y-137560133D02*
X139073500Y-137464895D01*
X139073500Y-137464895D02*
X139125880Y-137417276D01*
X139125880Y-139798228D02*
X139073500Y-139750609D01*
X139073500Y-139750609D02*
X139021119Y-139607752D01*
X139021119Y-139607752D02*
X139021119Y-139512514D01*
X139021119Y-139512514D02*
X139073500Y-139369657D01*
X139073500Y-139369657D02*
X139178261Y-139274419D01*
X139178261Y-139274419D02*
X139283023Y-139226800D01*
X139283023Y-139226800D02*
X139492547Y-139179181D01*
X139492547Y-139179181D02*
X139649690Y-139179181D01*
X139649690Y-139179181D02*
X139859214Y-139226800D01*
X139859214Y-139226800D02*
X139963976Y-139274419D01*
X139963976Y-139274419D02*
X140068738Y-139369657D01*
X140068738Y-139369657D02*
X140121119Y-139512514D01*
X140121119Y-139512514D02*
X140121119Y-139607752D01*
X140121119Y-139607752D02*
X140068738Y-139750609D01*
X140068738Y-139750609D02*
X140016357Y-139798228D01*
X139073500Y-140179181D02*
X139021119Y-140322038D01*
X139021119Y-140322038D02*
X139021119Y-140560133D01*
X139021119Y-140560133D02*
X139073500Y-140655371D01*
X139073500Y-140655371D02*
X139125880Y-140702990D01*
X139125880Y-140702990D02*
X139230642Y-140750609D01*
X139230642Y-140750609D02*
X139335404Y-140750609D01*
X139335404Y-140750609D02*
X139440166Y-140702990D01*
X139440166Y-140702990D02*
X139492547Y-140655371D01*
X139492547Y-140655371D02*
X139544928Y-140560133D01*
X139544928Y-140560133D02*
X139597309Y-140369657D01*
X139597309Y-140369657D02*
X139649690Y-140274419D01*
X139649690Y-140274419D02*
X139702071Y-140226800D01*
X139702071Y-140226800D02*
X139806833Y-140179181D01*
X139806833Y-140179181D02*
X139911595Y-140179181D01*
X139911595Y-140179181D02*
X140016357Y-140226800D01*
X140016357Y-140226800D02*
X140068738Y-140274419D01*
X140068738Y-140274419D02*
X140121119Y-140369657D01*
X140121119Y-140369657D02*
X140121119Y-140607752D01*
X140121119Y-140607752D02*
X140068738Y-140750609D01*
X144126519Y-100855781D02*
X145226519Y-100855781D01*
X144702709Y-100855781D02*
X144702709Y-101427209D01*
X144126519Y-101427209D02*
X145226519Y-101427209D01*
X145226519Y-101808162D02*
X144126519Y-102474828D01*
X145226519Y-102474828D02*
X144126519Y-101808162D01*
X144231280Y-104189114D02*
X144178900Y-104141495D01*
X144178900Y-104141495D02*
X144126519Y-103998638D01*
X144126519Y-103998638D02*
X144126519Y-103903400D01*
X144126519Y-103903400D02*
X144178900Y-103760543D01*
X144178900Y-103760543D02*
X144283661Y-103665305D01*
X144283661Y-103665305D02*
X144388423Y-103617686D01*
X144388423Y-103617686D02*
X144597947Y-103570067D01*
X144597947Y-103570067D02*
X144755090Y-103570067D01*
X144755090Y-103570067D02*
X144964614Y-103617686D01*
X144964614Y-103617686D02*
X145069376Y-103665305D01*
X145069376Y-103665305D02*
X145174138Y-103760543D01*
X145174138Y-103760543D02*
X145226519Y-103903400D01*
X145226519Y-103903400D02*
X145226519Y-103998638D01*
X145226519Y-103998638D02*
X145174138Y-104141495D01*
X145174138Y-104141495D02*
X145121757Y-104189114D01*
X144126519Y-105093876D02*
X144126519Y-104617686D01*
X144126519Y-104617686D02*
X145226519Y-104617686D01*
X144126519Y-105427210D02*
X145226519Y-105427210D01*
X144126519Y-105998638D02*
X144755090Y-105570067D01*
X145226519Y-105998638D02*
X144597947Y-105427210D01*
X142711919Y-100781171D02*
X142711919Y-101352599D01*
X141611919Y-101066885D02*
X142711919Y-101066885D01*
X141716680Y-102257361D02*
X141664300Y-102209742D01*
X141664300Y-102209742D02*
X141611919Y-102066885D01*
X141611919Y-102066885D02*
X141611919Y-101971647D01*
X141611919Y-101971647D02*
X141664300Y-101828790D01*
X141664300Y-101828790D02*
X141769061Y-101733552D01*
X141769061Y-101733552D02*
X141873823Y-101685933D01*
X141873823Y-101685933D02*
X142083347Y-101638314D01*
X142083347Y-101638314D02*
X142240490Y-101638314D01*
X142240490Y-101638314D02*
X142450014Y-101685933D01*
X142450014Y-101685933D02*
X142554776Y-101733552D01*
X142554776Y-101733552D02*
X142659538Y-101828790D01*
X142659538Y-101828790D02*
X142711919Y-101971647D01*
X142711919Y-101971647D02*
X142711919Y-102066885D01*
X142711919Y-102066885D02*
X142659538Y-102209742D01*
X142659538Y-102209742D02*
X142607157Y-102257361D01*
X141716680Y-104019266D02*
X141664300Y-103971647D01*
X141664300Y-103971647D02*
X141611919Y-103828790D01*
X141611919Y-103828790D02*
X141611919Y-103733552D01*
X141611919Y-103733552D02*
X141664300Y-103590695D01*
X141664300Y-103590695D02*
X141769061Y-103495457D01*
X141769061Y-103495457D02*
X141873823Y-103447838D01*
X141873823Y-103447838D02*
X142083347Y-103400219D01*
X142083347Y-103400219D02*
X142240490Y-103400219D01*
X142240490Y-103400219D02*
X142450014Y-103447838D01*
X142450014Y-103447838D02*
X142554776Y-103495457D01*
X142554776Y-103495457D02*
X142659538Y-103590695D01*
X142659538Y-103590695D02*
X142711919Y-103733552D01*
X142711919Y-103733552D02*
X142711919Y-103828790D01*
X142711919Y-103828790D02*
X142659538Y-103971647D01*
X142659538Y-103971647D02*
X142607157Y-104019266D01*
X141611919Y-104924028D02*
X141611919Y-104447838D01*
X141611919Y-104447838D02*
X142711919Y-104447838D01*
X141611919Y-105257362D02*
X142711919Y-105257362D01*
X141611919Y-105828790D02*
X142240490Y-105400219D01*
X142711919Y-105828790D02*
X142083347Y-105257362D01*
X146666519Y-101030400D02*
X147766519Y-101030400D01*
X147242709Y-101030400D02*
X147242709Y-101601828D01*
X146666519Y-101601828D02*
X147766519Y-101601828D01*
X147766519Y-101982781D02*
X146666519Y-102649447D01*
X147766519Y-102649447D02*
X146666519Y-101982781D01*
X147295090Y-103173257D02*
X147347471Y-103078019D01*
X147347471Y-103078019D02*
X147399852Y-103030400D01*
X147399852Y-103030400D02*
X147504614Y-102982781D01*
X147504614Y-102982781D02*
X147556995Y-102982781D01*
X147556995Y-102982781D02*
X147661757Y-103030400D01*
X147661757Y-103030400D02*
X147714138Y-103078019D01*
X147714138Y-103078019D02*
X147766519Y-103173257D01*
X147766519Y-103173257D02*
X147766519Y-103363733D01*
X147766519Y-103363733D02*
X147714138Y-103458971D01*
X147714138Y-103458971D02*
X147661757Y-103506590D01*
X147661757Y-103506590D02*
X147556995Y-103554209D01*
X147556995Y-103554209D02*
X147504614Y-103554209D01*
X147504614Y-103554209D02*
X147399852Y-103506590D01*
X147399852Y-103506590D02*
X147347471Y-103458971D01*
X147347471Y-103458971D02*
X147295090Y-103363733D01*
X147295090Y-103363733D02*
X147295090Y-103173257D01*
X147295090Y-103173257D02*
X147242709Y-103078019D01*
X147242709Y-103078019D02*
X147190328Y-103030400D01*
X147190328Y-103030400D02*
X147085566Y-102982781D01*
X147085566Y-102982781D02*
X146876042Y-102982781D01*
X146876042Y-102982781D02*
X146771280Y-103030400D01*
X146771280Y-103030400D02*
X146718900Y-103078019D01*
X146718900Y-103078019D02*
X146666519Y-103173257D01*
X146666519Y-103173257D02*
X146666519Y-103363733D01*
X146666519Y-103363733D02*
X146718900Y-103458971D01*
X146718900Y-103458971D02*
X146771280Y-103506590D01*
X146771280Y-103506590D02*
X146876042Y-103554209D01*
X146876042Y-103554209D02*
X147085566Y-103554209D01*
X147085566Y-103554209D02*
X147190328Y-103506590D01*
X147190328Y-103506590D02*
X147242709Y-103458971D01*
X147242709Y-103458971D02*
X147295090Y-103363733D01*
X146666519Y-104744686D02*
X147766519Y-104744686D01*
X147766519Y-104744686D02*
X147766519Y-104982781D01*
X147766519Y-104982781D02*
X147714138Y-105125638D01*
X147714138Y-105125638D02*
X147609376Y-105220876D01*
X147609376Y-105220876D02*
X147504614Y-105268495D01*
X147504614Y-105268495D02*
X147295090Y-105316114D01*
X147295090Y-105316114D02*
X147137947Y-105316114D01*
X147137947Y-105316114D02*
X146928423Y-105268495D01*
X146928423Y-105268495D02*
X146823661Y-105220876D01*
X146823661Y-105220876D02*
X146718900Y-105125638D01*
X146718900Y-105125638D02*
X146666519Y-104982781D01*
X146666519Y-104982781D02*
X146666519Y-104744686D01*
X147766519Y-105601829D02*
X147766519Y-106173257D01*
X146666519Y-105887543D02*
X147766519Y-105887543D01*
X239859409Y-141604476D02*
X239907028Y-141461619D01*
X239907028Y-141461619D02*
X239954647Y-141414000D01*
X239954647Y-141414000D02*
X240049885Y-141366381D01*
X240049885Y-141366381D02*
X240192742Y-141366381D01*
X240192742Y-141366381D02*
X240287980Y-141414000D01*
X240287980Y-141414000D02*
X240335600Y-141461619D01*
X240335600Y-141461619D02*
X240383219Y-141556857D01*
X240383219Y-141556857D02*
X240383219Y-141937809D01*
X240383219Y-141937809D02*
X239383219Y-141937809D01*
X239383219Y-141937809D02*
X239383219Y-141604476D01*
X239383219Y-141604476D02*
X239430838Y-141509238D01*
X239430838Y-141509238D02*
X239478457Y-141461619D01*
X239478457Y-141461619D02*
X239573695Y-141414000D01*
X239573695Y-141414000D02*
X239668933Y-141414000D01*
X239668933Y-141414000D02*
X239764171Y-141461619D01*
X239764171Y-141461619D02*
X239811790Y-141509238D01*
X239811790Y-141509238D02*
X239859409Y-141604476D01*
X239859409Y-141604476D02*
X239859409Y-141937809D01*
X240383219Y-140509238D02*
X239859409Y-140509238D01*
X239859409Y-140509238D02*
X239764171Y-140556857D01*
X239764171Y-140556857D02*
X239716552Y-140652095D01*
X239716552Y-140652095D02*
X239716552Y-140842571D01*
X239716552Y-140842571D02*
X239764171Y-140937809D01*
X240335600Y-140509238D02*
X240383219Y-140604476D01*
X240383219Y-140604476D02*
X240383219Y-140842571D01*
X240383219Y-140842571D02*
X240335600Y-140937809D01*
X240335600Y-140937809D02*
X240240361Y-140985428D01*
X240240361Y-140985428D02*
X240145123Y-140985428D01*
X240145123Y-140985428D02*
X240049885Y-140937809D01*
X240049885Y-140937809D02*
X240002266Y-140842571D01*
X240002266Y-140842571D02*
X240002266Y-140604476D01*
X240002266Y-140604476D02*
X239954647Y-140509238D01*
X239716552Y-140033047D02*
X240383219Y-140033047D01*
X239811790Y-140033047D02*
X239764171Y-139985428D01*
X239764171Y-139985428D02*
X239716552Y-139890190D01*
X239716552Y-139890190D02*
X239716552Y-139747333D01*
X239716552Y-139747333D02*
X239764171Y-139652095D01*
X239764171Y-139652095D02*
X239859409Y-139604476D01*
X239859409Y-139604476D02*
X240383219Y-139604476D01*
X240383219Y-138699714D02*
X239859409Y-138699714D01*
X239859409Y-138699714D02*
X239764171Y-138747333D01*
X239764171Y-138747333D02*
X239716552Y-138842571D01*
X239716552Y-138842571D02*
X239716552Y-139033047D01*
X239716552Y-139033047D02*
X239764171Y-139128285D01*
X240335600Y-138699714D02*
X240383219Y-138794952D01*
X240383219Y-138794952D02*
X240383219Y-139033047D01*
X240383219Y-139033047D02*
X240335600Y-139128285D01*
X240335600Y-139128285D02*
X240240361Y-139175904D01*
X240240361Y-139175904D02*
X240145123Y-139175904D01*
X240145123Y-139175904D02*
X240049885Y-139128285D01*
X240049885Y-139128285D02*
X240002266Y-139033047D01*
X240002266Y-139033047D02*
X240002266Y-138794952D01*
X240002266Y-138794952D02*
X239954647Y-138699714D01*
X239716552Y-138223523D02*
X240383219Y-138223523D01*
X239811790Y-138223523D02*
X239764171Y-138175904D01*
X239764171Y-138175904D02*
X239716552Y-138080666D01*
X239716552Y-138080666D02*
X239716552Y-137937809D01*
X239716552Y-137937809D02*
X239764171Y-137842571D01*
X239764171Y-137842571D02*
X239859409Y-137794952D01*
X239859409Y-137794952D02*
X240383219Y-137794952D01*
X240383219Y-136890190D02*
X239859409Y-136890190D01*
X239859409Y-136890190D02*
X239764171Y-136937809D01*
X239764171Y-136937809D02*
X239716552Y-137033047D01*
X239716552Y-137033047D02*
X239716552Y-137223523D01*
X239716552Y-137223523D02*
X239764171Y-137318761D01*
X240335600Y-136890190D02*
X240383219Y-136985428D01*
X240383219Y-136985428D02*
X240383219Y-137223523D01*
X240383219Y-137223523D02*
X240335600Y-137318761D01*
X240335600Y-137318761D02*
X240240361Y-137366380D01*
X240240361Y-137366380D02*
X240145123Y-137366380D01*
X240145123Y-137366380D02*
X240049885Y-137318761D01*
X240049885Y-137318761D02*
X240002266Y-137223523D01*
X240002266Y-137223523D02*
X240002266Y-136985428D01*
X240002266Y-136985428D02*
X239954647Y-136890190D01*
X239716552Y-135652094D02*
X240716552Y-135652094D01*
X239764171Y-135652094D02*
X239716552Y-135556856D01*
X239716552Y-135556856D02*
X239716552Y-135366380D01*
X239716552Y-135366380D02*
X239764171Y-135271142D01*
X239764171Y-135271142D02*
X239811790Y-135223523D01*
X239811790Y-135223523D02*
X239907028Y-135175904D01*
X239907028Y-135175904D02*
X240192742Y-135175904D01*
X240192742Y-135175904D02*
X240287980Y-135223523D01*
X240287980Y-135223523D02*
X240335600Y-135271142D01*
X240335600Y-135271142D02*
X240383219Y-135366380D01*
X240383219Y-135366380D02*
X240383219Y-135556856D01*
X240383219Y-135556856D02*
X240335600Y-135652094D01*
X240383219Y-134604475D02*
X240335600Y-134699713D01*
X240335600Y-134699713D02*
X240240361Y-134747332D01*
X240240361Y-134747332D02*
X239383219Y-134747332D01*
X239716552Y-133794951D02*
X240383219Y-133794951D01*
X239716552Y-134223522D02*
X240240361Y-134223522D01*
X240240361Y-134223522D02*
X240335600Y-134175903D01*
X240335600Y-134175903D02*
X240383219Y-134080665D01*
X240383219Y-134080665D02*
X240383219Y-133937808D01*
X240383219Y-133937808D02*
X240335600Y-133842570D01*
X240335600Y-133842570D02*
X240287980Y-133794951D01*
X239716552Y-132890189D02*
X240526076Y-132890189D01*
X240526076Y-132890189D02*
X240621314Y-132937808D01*
X240621314Y-132937808D02*
X240668933Y-132985427D01*
X240668933Y-132985427D02*
X240716552Y-133080665D01*
X240716552Y-133080665D02*
X240716552Y-133223522D01*
X240716552Y-133223522D02*
X240668933Y-133318760D01*
X240335600Y-132890189D02*
X240383219Y-132985427D01*
X240383219Y-132985427D02*
X240383219Y-133175903D01*
X240383219Y-133175903D02*
X240335600Y-133271141D01*
X240335600Y-133271141D02*
X240287980Y-133318760D01*
X240287980Y-133318760D02*
X240192742Y-133366379D01*
X240192742Y-133366379D02*
X239907028Y-133366379D01*
X239907028Y-133366379D02*
X239811790Y-133318760D01*
X239811790Y-133318760D02*
X239764171Y-133271141D01*
X239764171Y-133271141D02*
X239716552Y-133175903D01*
X239716552Y-133175903D02*
X239716552Y-132985427D01*
X239716552Y-132985427D02*
X239764171Y-132890189D01*
X149233500Y-135604571D02*
X149181119Y-135747428D01*
X149181119Y-135747428D02*
X149181119Y-135985523D01*
X149181119Y-135985523D02*
X149233500Y-136080761D01*
X149233500Y-136080761D02*
X149285880Y-136128380D01*
X149285880Y-136128380D02*
X149390642Y-136175999D01*
X149390642Y-136175999D02*
X149495404Y-136175999D01*
X149495404Y-136175999D02*
X149600166Y-136128380D01*
X149600166Y-136128380D02*
X149652547Y-136080761D01*
X149652547Y-136080761D02*
X149704928Y-135985523D01*
X149704928Y-135985523D02*
X149757309Y-135795047D01*
X149757309Y-135795047D02*
X149809690Y-135699809D01*
X149809690Y-135699809D02*
X149862071Y-135652190D01*
X149862071Y-135652190D02*
X149966833Y-135604571D01*
X149966833Y-135604571D02*
X150071595Y-135604571D01*
X150071595Y-135604571D02*
X150176357Y-135652190D01*
X150176357Y-135652190D02*
X150228738Y-135699809D01*
X150228738Y-135699809D02*
X150281119Y-135795047D01*
X150281119Y-135795047D02*
X150281119Y-136033142D01*
X150281119Y-136033142D02*
X150228738Y-136175999D01*
X149181119Y-136604571D02*
X150281119Y-136604571D01*
X150281119Y-136604571D02*
X150281119Y-136842666D01*
X150281119Y-136842666D02*
X150228738Y-136985523D01*
X150228738Y-136985523D02*
X150123976Y-137080761D01*
X150123976Y-137080761D02*
X150019214Y-137128380D01*
X150019214Y-137128380D02*
X149809690Y-137175999D01*
X149809690Y-137175999D02*
X149652547Y-137175999D01*
X149652547Y-137175999D02*
X149443023Y-137128380D01*
X149443023Y-137128380D02*
X149338261Y-137080761D01*
X149338261Y-137080761D02*
X149233500Y-136985523D01*
X149233500Y-136985523D02*
X149181119Y-136842666D01*
X149181119Y-136842666D02*
X149181119Y-136604571D01*
X149285880Y-138937904D02*
X149233500Y-138890285D01*
X149233500Y-138890285D02*
X149181119Y-138747428D01*
X149181119Y-138747428D02*
X149181119Y-138652190D01*
X149181119Y-138652190D02*
X149233500Y-138509333D01*
X149233500Y-138509333D02*
X149338261Y-138414095D01*
X149338261Y-138414095D02*
X149443023Y-138366476D01*
X149443023Y-138366476D02*
X149652547Y-138318857D01*
X149652547Y-138318857D02*
X149809690Y-138318857D01*
X149809690Y-138318857D02*
X150019214Y-138366476D01*
X150019214Y-138366476D02*
X150123976Y-138414095D01*
X150123976Y-138414095D02*
X150228738Y-138509333D01*
X150228738Y-138509333D02*
X150281119Y-138652190D01*
X150281119Y-138652190D02*
X150281119Y-138747428D01*
X150281119Y-138747428D02*
X150228738Y-138890285D01*
X150228738Y-138890285D02*
X150176357Y-138937904D01*
X149181119Y-139842666D02*
X149181119Y-139366476D01*
X149181119Y-139366476D02*
X150281119Y-139366476D01*
X149181119Y-140176000D02*
X150281119Y-140176000D01*
X149181119Y-140747428D02*
X149809690Y-140318857D01*
X150281119Y-140747428D02*
X149652547Y-140176000D01*
X156801119Y-100903400D02*
X157901119Y-100903400D01*
X157377309Y-100903400D02*
X157377309Y-101474828D01*
X156801119Y-101474828D02*
X157901119Y-101474828D01*
X157901119Y-101855781D02*
X156801119Y-102522447D01*
X157901119Y-102522447D02*
X156801119Y-101855781D01*
X157534452Y-103331971D02*
X156801119Y-103331971D01*
X157953500Y-103093876D02*
X157167785Y-102855781D01*
X157167785Y-102855781D02*
X157167785Y-103474828D01*
X156801119Y-104617686D02*
X157901119Y-104617686D01*
X157901119Y-104617686D02*
X157901119Y-104855781D01*
X157901119Y-104855781D02*
X157848738Y-104998638D01*
X157848738Y-104998638D02*
X157743976Y-105093876D01*
X157743976Y-105093876D02*
X157639214Y-105141495D01*
X157639214Y-105141495D02*
X157429690Y-105189114D01*
X157429690Y-105189114D02*
X157272547Y-105189114D01*
X157272547Y-105189114D02*
X157063023Y-105141495D01*
X157063023Y-105141495D02*
X156958261Y-105093876D01*
X156958261Y-105093876D02*
X156853500Y-104998638D01*
X156853500Y-104998638D02*
X156801119Y-104855781D01*
X156801119Y-104855781D02*
X156801119Y-104617686D01*
X157901119Y-105474829D02*
X157901119Y-106046257D01*
X156801119Y-105760543D02*
X157901119Y-105760543D01*
X167486509Y-102614505D02*
X167486509Y-102947838D01*
X166910319Y-103090695D02*
X166910319Y-102614505D01*
X166910319Y-102614505D02*
X168010319Y-102614505D01*
X168010319Y-102614505D02*
X168010319Y-103090695D01*
X166910319Y-103519267D02*
X168010319Y-103519267D01*
X168010319Y-103519267D02*
X166910319Y-104090695D01*
X166910319Y-104090695D02*
X168010319Y-104090695D01*
X156928119Y-135414095D02*
X158028119Y-135414095D01*
X157923357Y-135842666D02*
X157975738Y-135890285D01*
X157975738Y-135890285D02*
X158028119Y-135985523D01*
X158028119Y-135985523D02*
X158028119Y-136223618D01*
X158028119Y-136223618D02*
X157975738Y-136318856D01*
X157975738Y-136318856D02*
X157923357Y-136366475D01*
X157923357Y-136366475D02*
X157818595Y-136414094D01*
X157818595Y-136414094D02*
X157713833Y-136414094D01*
X157713833Y-136414094D02*
X157556690Y-136366475D01*
X157556690Y-136366475D02*
X156928119Y-135795047D01*
X156928119Y-135795047D02*
X156928119Y-136414094D01*
X157032880Y-137414094D02*
X156980500Y-137366475D01*
X156980500Y-137366475D02*
X156928119Y-137223618D01*
X156928119Y-137223618D02*
X156928119Y-137128380D01*
X156928119Y-137128380D02*
X156980500Y-136985523D01*
X156980500Y-136985523D02*
X157085261Y-136890285D01*
X157085261Y-136890285D02*
X157190023Y-136842666D01*
X157190023Y-136842666D02*
X157399547Y-136795047D01*
X157399547Y-136795047D02*
X157556690Y-136795047D01*
X157556690Y-136795047D02*
X157766214Y-136842666D01*
X157766214Y-136842666D02*
X157870976Y-136890285D01*
X157870976Y-136890285D02*
X157975738Y-136985523D01*
X157975738Y-136985523D02*
X158028119Y-137128380D01*
X158028119Y-137128380D02*
X158028119Y-137223618D01*
X158028119Y-137223618D02*
X157975738Y-137366475D01*
X157975738Y-137366475D02*
X157923357Y-137414094D01*
X156980500Y-138556952D02*
X156928119Y-138699809D01*
X156928119Y-138699809D02*
X156928119Y-138937904D01*
X156928119Y-138937904D02*
X156980500Y-139033142D01*
X156980500Y-139033142D02*
X157032880Y-139080761D01*
X157032880Y-139080761D02*
X157137642Y-139128380D01*
X157137642Y-139128380D02*
X157242404Y-139128380D01*
X157242404Y-139128380D02*
X157347166Y-139080761D01*
X157347166Y-139080761D02*
X157399547Y-139033142D01*
X157399547Y-139033142D02*
X157451928Y-138937904D01*
X157451928Y-138937904D02*
X157504309Y-138747428D01*
X157504309Y-138747428D02*
X157556690Y-138652190D01*
X157556690Y-138652190D02*
X157609071Y-138604571D01*
X157609071Y-138604571D02*
X157713833Y-138556952D01*
X157713833Y-138556952D02*
X157818595Y-138556952D01*
X157818595Y-138556952D02*
X157923357Y-138604571D01*
X157923357Y-138604571D02*
X157975738Y-138652190D01*
X157975738Y-138652190D02*
X158028119Y-138747428D01*
X158028119Y-138747428D02*
X158028119Y-138985523D01*
X158028119Y-138985523D02*
X157975738Y-139128380D01*
X156928119Y-139556952D02*
X158028119Y-139556952D01*
X158028119Y-139556952D02*
X158028119Y-139795047D01*
X158028119Y-139795047D02*
X157975738Y-139937904D01*
X157975738Y-139937904D02*
X157870976Y-140033142D01*
X157870976Y-140033142D02*
X157766214Y-140080761D01*
X157766214Y-140080761D02*
X157556690Y-140128380D01*
X157556690Y-140128380D02*
X157399547Y-140128380D01*
X157399547Y-140128380D02*
X157190023Y-140080761D01*
X157190023Y-140080761D02*
X157085261Y-140033142D01*
X157085261Y-140033142D02*
X156980500Y-139937904D01*
X156980500Y-139937904D02*
X156928119Y-139795047D01*
X156928119Y-139795047D02*
X156928119Y-139556952D01*
X157242404Y-140509333D02*
X157242404Y-140985523D01*
X156928119Y-140414095D02*
X158028119Y-140747428D01*
X158028119Y-140747428D02*
X156928119Y-141080761D01*
X240002266Y-144602151D02*
X240002266Y-143840247D01*
X240383219Y-144221199D02*
X239621314Y-144221199D01*
X151849700Y-135225210D02*
X151797319Y-135368067D01*
X151797319Y-135368067D02*
X151797319Y-135606162D01*
X151797319Y-135606162D02*
X151849700Y-135701400D01*
X151849700Y-135701400D02*
X151902080Y-135749019D01*
X151902080Y-135749019D02*
X152006842Y-135796638D01*
X152006842Y-135796638D02*
X152111604Y-135796638D01*
X152111604Y-135796638D02*
X152216366Y-135749019D01*
X152216366Y-135749019D02*
X152268747Y-135701400D01*
X152268747Y-135701400D02*
X152321128Y-135606162D01*
X152321128Y-135606162D02*
X152373509Y-135415686D01*
X152373509Y-135415686D02*
X152425890Y-135320448D01*
X152425890Y-135320448D02*
X152478271Y-135272829D01*
X152478271Y-135272829D02*
X152583033Y-135225210D01*
X152583033Y-135225210D02*
X152687795Y-135225210D01*
X152687795Y-135225210D02*
X152792557Y-135272829D01*
X152792557Y-135272829D02*
X152844938Y-135320448D01*
X152844938Y-135320448D02*
X152897319Y-135415686D01*
X152897319Y-135415686D02*
X152897319Y-135653781D01*
X152897319Y-135653781D02*
X152844938Y-135796638D01*
X151797319Y-136225210D02*
X152897319Y-136225210D01*
X152897319Y-136225210D02*
X152897319Y-136463305D01*
X152897319Y-136463305D02*
X152844938Y-136606162D01*
X152844938Y-136606162D02*
X152740176Y-136701400D01*
X152740176Y-136701400D02*
X152635414Y-136749019D01*
X152635414Y-136749019D02*
X152425890Y-136796638D01*
X152425890Y-136796638D02*
X152268747Y-136796638D01*
X152268747Y-136796638D02*
X152059223Y-136749019D01*
X152059223Y-136749019D02*
X151954461Y-136701400D01*
X151954461Y-136701400D02*
X151849700Y-136606162D01*
X151849700Y-136606162D02*
X151797319Y-136463305D01*
X151797319Y-136463305D02*
X151797319Y-136225210D01*
X151797319Y-137987115D02*
X152897319Y-137987115D01*
X152897319Y-137987115D02*
X152111604Y-138320448D01*
X152111604Y-138320448D02*
X152897319Y-138653781D01*
X152897319Y-138653781D02*
X151797319Y-138653781D01*
X152897319Y-139320448D02*
X152897319Y-139510924D01*
X152897319Y-139510924D02*
X152844938Y-139606162D01*
X152844938Y-139606162D02*
X152740176Y-139701400D01*
X152740176Y-139701400D02*
X152530652Y-139749019D01*
X152530652Y-139749019D02*
X152163985Y-139749019D01*
X152163985Y-139749019D02*
X151954461Y-139701400D01*
X151954461Y-139701400D02*
X151849700Y-139606162D01*
X151849700Y-139606162D02*
X151797319Y-139510924D01*
X151797319Y-139510924D02*
X151797319Y-139320448D01*
X151797319Y-139320448D02*
X151849700Y-139225210D01*
X151849700Y-139225210D02*
X151954461Y-139129972D01*
X151954461Y-139129972D02*
X152163985Y-139082353D01*
X152163985Y-139082353D02*
X152530652Y-139082353D01*
X152530652Y-139082353D02*
X152740176Y-139129972D01*
X152740176Y-139129972D02*
X152844938Y-139225210D01*
X152844938Y-139225210D02*
X152897319Y-139320448D01*
X151849700Y-140129972D02*
X151797319Y-140272829D01*
X151797319Y-140272829D02*
X151797319Y-140510924D01*
X151797319Y-140510924D02*
X151849700Y-140606162D01*
X151849700Y-140606162D02*
X151902080Y-140653781D01*
X151902080Y-140653781D02*
X152006842Y-140701400D01*
X152006842Y-140701400D02*
X152111604Y-140701400D01*
X152111604Y-140701400D02*
X152216366Y-140653781D01*
X152216366Y-140653781D02*
X152268747Y-140606162D01*
X152268747Y-140606162D02*
X152321128Y-140510924D01*
X152321128Y-140510924D02*
X152373509Y-140320448D01*
X152373509Y-140320448D02*
X152425890Y-140225210D01*
X152425890Y-140225210D02*
X152478271Y-140177591D01*
X152478271Y-140177591D02*
X152583033Y-140129972D01*
X152583033Y-140129972D02*
X152687795Y-140129972D01*
X152687795Y-140129972D02*
X152792557Y-140177591D01*
X152792557Y-140177591D02*
X152844938Y-140225210D01*
X152844938Y-140225210D02*
X152897319Y-140320448D01*
X152897319Y-140320448D02*
X152897319Y-140558543D01*
X152897319Y-140558543D02*
X152844938Y-140701400D01*
X151797319Y-141129972D02*
X152897319Y-141129972D01*
X135041119Y-100528810D02*
X135041119Y-101100238D01*
X133941119Y-100814524D02*
X135041119Y-100814524D01*
X134045880Y-102005000D02*
X133993500Y-101957381D01*
X133993500Y-101957381D02*
X133941119Y-101814524D01*
X133941119Y-101814524D02*
X133941119Y-101719286D01*
X133941119Y-101719286D02*
X133993500Y-101576429D01*
X133993500Y-101576429D02*
X134098261Y-101481191D01*
X134098261Y-101481191D02*
X134203023Y-101433572D01*
X134203023Y-101433572D02*
X134412547Y-101385953D01*
X134412547Y-101385953D02*
X134569690Y-101385953D01*
X134569690Y-101385953D02*
X134779214Y-101433572D01*
X134779214Y-101433572D02*
X134883976Y-101481191D01*
X134883976Y-101481191D02*
X134988738Y-101576429D01*
X134988738Y-101576429D02*
X135041119Y-101719286D01*
X135041119Y-101719286D02*
X135041119Y-101814524D01*
X135041119Y-101814524D02*
X134988738Y-101957381D01*
X134988738Y-101957381D02*
X134936357Y-102005000D01*
X133941119Y-103195477D02*
X135041119Y-103195477D01*
X135041119Y-103195477D02*
X134255404Y-103528810D01*
X134255404Y-103528810D02*
X135041119Y-103862143D01*
X135041119Y-103862143D02*
X133941119Y-103862143D01*
X133941119Y-104338334D02*
X135041119Y-104338334D01*
X133993500Y-104766905D02*
X133941119Y-104909762D01*
X133941119Y-104909762D02*
X133941119Y-105147857D01*
X133941119Y-105147857D02*
X133993500Y-105243095D01*
X133993500Y-105243095D02*
X134045880Y-105290714D01*
X134045880Y-105290714D02*
X134150642Y-105338333D01*
X134150642Y-105338333D02*
X134255404Y-105338333D01*
X134255404Y-105338333D02*
X134360166Y-105290714D01*
X134360166Y-105290714D02*
X134412547Y-105243095D01*
X134412547Y-105243095D02*
X134464928Y-105147857D01*
X134464928Y-105147857D02*
X134517309Y-104957381D01*
X134517309Y-104957381D02*
X134569690Y-104862143D01*
X134569690Y-104862143D02*
X134622071Y-104814524D01*
X134622071Y-104814524D02*
X134726833Y-104766905D01*
X134726833Y-104766905D02*
X134831595Y-104766905D01*
X134831595Y-104766905D02*
X134936357Y-104814524D01*
X134936357Y-104814524D02*
X134988738Y-104862143D01*
X134988738Y-104862143D02*
X135041119Y-104957381D01*
X135041119Y-104957381D02*
X135041119Y-105195476D01*
X135041119Y-105195476D02*
X134988738Y-105338333D01*
X135041119Y-105957381D02*
X135041119Y-106147857D01*
X135041119Y-106147857D02*
X134988738Y-106243095D01*
X134988738Y-106243095D02*
X134883976Y-106338333D01*
X134883976Y-106338333D02*
X134674452Y-106385952D01*
X134674452Y-106385952D02*
X134307785Y-106385952D01*
X134307785Y-106385952D02*
X134098261Y-106338333D01*
X134098261Y-106338333D02*
X133993500Y-106243095D01*
X133993500Y-106243095D02*
X133941119Y-106147857D01*
X133941119Y-106147857D02*
X133941119Y-105957381D01*
X133941119Y-105957381D02*
X133993500Y-105862143D01*
X133993500Y-105862143D02*
X134098261Y-105766905D01*
X134098261Y-105766905D02*
X134307785Y-105719286D01*
X134307785Y-105719286D02*
X134674452Y-105719286D01*
X134674452Y-105719286D02*
X134883976Y-105766905D01*
X134883976Y-105766905D02*
X134988738Y-105862143D01*
X134988738Y-105862143D02*
X135041119Y-105957381D01*
X178995294Y-96772909D02*
X178661961Y-96772909D01*
X178519104Y-96196719D02*
X178995294Y-96196719D01*
X178995294Y-96196719D02*
X178995294Y-97296719D01*
X178995294Y-97296719D02*
X178519104Y-97296719D01*
X178090532Y-96196719D02*
X178090532Y-97296719D01*
X178090532Y-97296719D02*
X177519104Y-96196719D01*
X177519104Y-96196719D02*
X177519104Y-97296719D01*
X145175719Y-135607752D02*
X145175719Y-136179180D01*
X144075719Y-135893466D02*
X145175719Y-135893466D01*
X144180480Y-137083942D02*
X144128100Y-137036323D01*
X144128100Y-137036323D02*
X144075719Y-136893466D01*
X144075719Y-136893466D02*
X144075719Y-136798228D01*
X144075719Y-136798228D02*
X144128100Y-136655371D01*
X144128100Y-136655371D02*
X144232861Y-136560133D01*
X144232861Y-136560133D02*
X144337623Y-136512514D01*
X144337623Y-136512514D02*
X144547147Y-136464895D01*
X144547147Y-136464895D02*
X144704290Y-136464895D01*
X144704290Y-136464895D02*
X144913814Y-136512514D01*
X144913814Y-136512514D02*
X145018576Y-136560133D01*
X145018576Y-136560133D02*
X145123338Y-136655371D01*
X145123338Y-136655371D02*
X145175719Y-136798228D01*
X145175719Y-136798228D02*
X145175719Y-136893466D01*
X145175719Y-136893466D02*
X145123338Y-137036323D01*
X145123338Y-137036323D02*
X145070957Y-137083942D01*
X144075719Y-138036323D02*
X144075719Y-137464895D01*
X144075719Y-137750609D02*
X145175719Y-137750609D01*
X145175719Y-137750609D02*
X145018576Y-137655371D01*
X145018576Y-137655371D02*
X144913814Y-137560133D01*
X144913814Y-137560133D02*
X144861433Y-137464895D01*
X144180480Y-139798228D02*
X144128100Y-139750609D01*
X144128100Y-139750609D02*
X144075719Y-139607752D01*
X144075719Y-139607752D02*
X144075719Y-139512514D01*
X144075719Y-139512514D02*
X144128100Y-139369657D01*
X144128100Y-139369657D02*
X144232861Y-139274419D01*
X144232861Y-139274419D02*
X144337623Y-139226800D01*
X144337623Y-139226800D02*
X144547147Y-139179181D01*
X144547147Y-139179181D02*
X144704290Y-139179181D01*
X144704290Y-139179181D02*
X144913814Y-139226800D01*
X144913814Y-139226800D02*
X145018576Y-139274419D01*
X145018576Y-139274419D02*
X145123338Y-139369657D01*
X145123338Y-139369657D02*
X145175719Y-139512514D01*
X145175719Y-139512514D02*
X145175719Y-139607752D01*
X145175719Y-139607752D02*
X145123338Y-139750609D01*
X145123338Y-139750609D02*
X145070957Y-139798228D01*
X144128100Y-140179181D02*
X144075719Y-140322038D01*
X144075719Y-140322038D02*
X144075719Y-140560133D01*
X144075719Y-140560133D02*
X144128100Y-140655371D01*
X144128100Y-140655371D02*
X144180480Y-140702990D01*
X144180480Y-140702990D02*
X144285242Y-140750609D01*
X144285242Y-140750609D02*
X144390004Y-140750609D01*
X144390004Y-140750609D02*
X144494766Y-140702990D01*
X144494766Y-140702990D02*
X144547147Y-140655371D01*
X144547147Y-140655371D02*
X144599528Y-140560133D01*
X144599528Y-140560133D02*
X144651909Y-140369657D01*
X144651909Y-140369657D02*
X144704290Y-140274419D01*
X144704290Y-140274419D02*
X144756671Y-140226800D01*
X144756671Y-140226800D02*
X144861433Y-140179181D01*
X144861433Y-140179181D02*
X144966195Y-140179181D01*
X144966195Y-140179181D02*
X145070957Y-140226800D01*
X145070957Y-140226800D02*
X145123338Y-140274419D01*
X145123338Y-140274419D02*
X145175719Y-140369657D01*
X145175719Y-140369657D02*
X145175719Y-140607752D01*
X145175719Y-140607752D02*
X145123338Y-140750609D01*
X167038900Y-135199810D02*
X166986519Y-135342667D01*
X166986519Y-135342667D02*
X166986519Y-135580762D01*
X166986519Y-135580762D02*
X167038900Y-135676000D01*
X167038900Y-135676000D02*
X167091280Y-135723619D01*
X167091280Y-135723619D02*
X167196042Y-135771238D01*
X167196042Y-135771238D02*
X167300804Y-135771238D01*
X167300804Y-135771238D02*
X167405566Y-135723619D01*
X167405566Y-135723619D02*
X167457947Y-135676000D01*
X167457947Y-135676000D02*
X167510328Y-135580762D01*
X167510328Y-135580762D02*
X167562709Y-135390286D01*
X167562709Y-135390286D02*
X167615090Y-135295048D01*
X167615090Y-135295048D02*
X167667471Y-135247429D01*
X167667471Y-135247429D02*
X167772233Y-135199810D01*
X167772233Y-135199810D02*
X167876995Y-135199810D01*
X167876995Y-135199810D02*
X167981757Y-135247429D01*
X167981757Y-135247429D02*
X168034138Y-135295048D01*
X168034138Y-135295048D02*
X168086519Y-135390286D01*
X168086519Y-135390286D02*
X168086519Y-135628381D01*
X168086519Y-135628381D02*
X168034138Y-135771238D01*
X166986519Y-136199810D02*
X168086519Y-136199810D01*
X168086519Y-136199810D02*
X168086519Y-136437905D01*
X168086519Y-136437905D02*
X168034138Y-136580762D01*
X168034138Y-136580762D02*
X167929376Y-136676000D01*
X167929376Y-136676000D02*
X167824614Y-136723619D01*
X167824614Y-136723619D02*
X167615090Y-136771238D01*
X167615090Y-136771238D02*
X167457947Y-136771238D01*
X167457947Y-136771238D02*
X167248423Y-136723619D01*
X167248423Y-136723619D02*
X167143661Y-136676000D01*
X167143661Y-136676000D02*
X167038900Y-136580762D01*
X167038900Y-136580762D02*
X166986519Y-136437905D01*
X166986519Y-136437905D02*
X166986519Y-136199810D01*
X166986519Y-137961715D02*
X168086519Y-137961715D01*
X168086519Y-137961715D02*
X167300804Y-138295048D01*
X167300804Y-138295048D02*
X168086519Y-138628381D01*
X168086519Y-138628381D02*
X166986519Y-138628381D01*
X166986519Y-139104572D02*
X168086519Y-139104572D01*
X167038900Y-139533143D02*
X166986519Y-139676000D01*
X166986519Y-139676000D02*
X166986519Y-139914095D01*
X166986519Y-139914095D02*
X167038900Y-140009333D01*
X167038900Y-140009333D02*
X167091280Y-140056952D01*
X167091280Y-140056952D02*
X167196042Y-140104571D01*
X167196042Y-140104571D02*
X167300804Y-140104571D01*
X167300804Y-140104571D02*
X167405566Y-140056952D01*
X167405566Y-140056952D02*
X167457947Y-140009333D01*
X167457947Y-140009333D02*
X167510328Y-139914095D01*
X167510328Y-139914095D02*
X167562709Y-139723619D01*
X167562709Y-139723619D02*
X167615090Y-139628381D01*
X167615090Y-139628381D02*
X167667471Y-139580762D01*
X167667471Y-139580762D02*
X167772233Y-139533143D01*
X167772233Y-139533143D02*
X167876995Y-139533143D01*
X167876995Y-139533143D02*
X167981757Y-139580762D01*
X167981757Y-139580762D02*
X168034138Y-139628381D01*
X168034138Y-139628381D02*
X168086519Y-139723619D01*
X168086519Y-139723619D02*
X168086519Y-139961714D01*
X168086519Y-139961714D02*
X168034138Y-140104571D01*
X168086519Y-140723619D02*
X168086519Y-140914095D01*
X168086519Y-140914095D02*
X168034138Y-141009333D01*
X168034138Y-141009333D02*
X167929376Y-141104571D01*
X167929376Y-141104571D02*
X167719852Y-141152190D01*
X167719852Y-141152190D02*
X167353185Y-141152190D01*
X167353185Y-141152190D02*
X167143661Y-141104571D01*
X167143661Y-141104571D02*
X167038900Y-141009333D01*
X167038900Y-141009333D02*
X166986519Y-140914095D01*
X166986519Y-140914095D02*
X166986519Y-140723619D01*
X166986519Y-140723619D02*
X167038900Y-140628381D01*
X167038900Y-140628381D02*
X167143661Y-140533143D01*
X167143661Y-140533143D02*
X167353185Y-140485524D01*
X167353185Y-140485524D02*
X167719852Y-140485524D01*
X167719852Y-140485524D02*
X167929376Y-140533143D01*
X167929376Y-140533143D02*
X168034138Y-140628381D01*
X168034138Y-140628381D02*
X168086519Y-140723619D01*
X122039790Y-114304086D02*
X122039790Y-114637419D01*
X121515980Y-114780276D02*
X121515980Y-114304086D01*
X121515980Y-114304086D02*
X122515980Y-114304086D01*
X122515980Y-114304086D02*
X122515980Y-114780276D01*
X121563600Y-115161229D02*
X121515980Y-115304086D01*
X121515980Y-115304086D02*
X121515980Y-115542181D01*
X121515980Y-115542181D02*
X121563600Y-115637419D01*
X121563600Y-115637419D02*
X121611219Y-115685038D01*
X121611219Y-115685038D02*
X121706457Y-115732657D01*
X121706457Y-115732657D02*
X121801695Y-115732657D01*
X121801695Y-115732657D02*
X121896933Y-115685038D01*
X121896933Y-115685038D02*
X121944552Y-115637419D01*
X121944552Y-115637419D02*
X121992171Y-115542181D01*
X121992171Y-115542181D02*
X122039790Y-115351705D01*
X122039790Y-115351705D02*
X122087409Y-115256467D01*
X122087409Y-115256467D02*
X122135028Y-115208848D01*
X122135028Y-115208848D02*
X122230266Y-115161229D01*
X122230266Y-115161229D02*
X122325504Y-115161229D01*
X122325504Y-115161229D02*
X122420742Y-115208848D01*
X122420742Y-115208848D02*
X122468361Y-115256467D01*
X122468361Y-115256467D02*
X122515980Y-115351705D01*
X122515980Y-115351705D02*
X122515980Y-115589800D01*
X122515980Y-115589800D02*
X122468361Y-115732657D01*
X121515980Y-116161229D02*
X122515980Y-116161229D01*
X122515980Y-116161229D02*
X122515980Y-116542181D01*
X122515980Y-116542181D02*
X122468361Y-116637419D01*
X122468361Y-116637419D02*
X122420742Y-116685038D01*
X122420742Y-116685038D02*
X122325504Y-116732657D01*
X122325504Y-116732657D02*
X122182647Y-116732657D01*
X122182647Y-116732657D02*
X122087409Y-116685038D01*
X122087409Y-116685038D02*
X122039790Y-116637419D01*
X122039790Y-116637419D02*
X121992171Y-116542181D01*
X121992171Y-116542181D02*
X121992171Y-116161229D01*
X122515980Y-117065991D02*
X122515980Y-117685038D01*
X122515980Y-117685038D02*
X122135028Y-117351705D01*
X122135028Y-117351705D02*
X122135028Y-117494562D01*
X122135028Y-117494562D02*
X122087409Y-117589800D01*
X122087409Y-117589800D02*
X122039790Y-117637419D01*
X122039790Y-117637419D02*
X121944552Y-117685038D01*
X121944552Y-117685038D02*
X121706457Y-117685038D01*
X121706457Y-117685038D02*
X121611219Y-117637419D01*
X121611219Y-117637419D02*
X121563600Y-117589800D01*
X121563600Y-117589800D02*
X121515980Y-117494562D01*
X121515980Y-117494562D02*
X121515980Y-117208848D01*
X121515980Y-117208848D02*
X121563600Y-117113610D01*
X121563600Y-117113610D02*
X121611219Y-117065991D01*
X122420742Y-118065991D02*
X122468361Y-118113610D01*
X122468361Y-118113610D02*
X122515980Y-118208848D01*
X122515980Y-118208848D02*
X122515980Y-118446943D01*
X122515980Y-118446943D02*
X122468361Y-118542181D01*
X122468361Y-118542181D02*
X122420742Y-118589800D01*
X122420742Y-118589800D02*
X122325504Y-118637419D01*
X122325504Y-118637419D02*
X122230266Y-118637419D01*
X122230266Y-118637419D02*
X122087409Y-118589800D01*
X122087409Y-118589800D02*
X121515980Y-118018372D01*
X121515980Y-118018372D02*
X121515980Y-118637419D01*
X121896933Y-119065991D02*
X121896933Y-119827896D01*
X121515980Y-120304086D02*
X122515980Y-120304086D01*
X122515980Y-120304086D02*
X122515980Y-120542181D01*
X122515980Y-120542181D02*
X122468361Y-120685038D01*
X122468361Y-120685038D02*
X122373123Y-120780276D01*
X122373123Y-120780276D02*
X122277885Y-120827895D01*
X122277885Y-120827895D02*
X122087409Y-120875514D01*
X122087409Y-120875514D02*
X121944552Y-120875514D01*
X121944552Y-120875514D02*
X121754076Y-120827895D01*
X121754076Y-120827895D02*
X121658838Y-120780276D01*
X121658838Y-120780276D02*
X121563600Y-120685038D01*
X121563600Y-120685038D02*
X121515980Y-120542181D01*
X121515980Y-120542181D02*
X121515980Y-120304086D01*
X122039790Y-121304086D02*
X122039790Y-121637419D01*
X121515980Y-121780276D02*
X121515980Y-121304086D01*
X121515980Y-121304086D02*
X122515980Y-121304086D01*
X122515980Y-121304086D02*
X122515980Y-121780276D01*
X122515980Y-122065991D02*
X121515980Y-122399324D01*
X121515980Y-122399324D02*
X122515980Y-122732657D01*
X121515980Y-123065991D02*
X122515980Y-123065991D01*
X121515980Y-123637419D02*
X122087409Y-123208848D01*
X122515980Y-123637419D02*
X121944552Y-123065991D01*
X121515980Y-124065991D02*
X122515980Y-124065991D01*
X122515980Y-124399324D02*
X122515980Y-124970752D01*
X121515980Y-124685038D02*
X122515980Y-124685038D01*
X121611219Y-125875514D02*
X121563600Y-125827895D01*
X121563600Y-125827895D02*
X121515980Y-125685038D01*
X121515980Y-125685038D02*
X121515980Y-125589800D01*
X121515980Y-125589800D02*
X121563600Y-125446943D01*
X121563600Y-125446943D02*
X121658838Y-125351705D01*
X121658838Y-125351705D02*
X121754076Y-125304086D01*
X121754076Y-125304086D02*
X121944552Y-125256467D01*
X121944552Y-125256467D02*
X122087409Y-125256467D01*
X122087409Y-125256467D02*
X122277885Y-125304086D01*
X122277885Y-125304086D02*
X122373123Y-125351705D01*
X122373123Y-125351705D02*
X122468361Y-125446943D01*
X122468361Y-125446943D02*
X122515980Y-125589800D01*
X122515980Y-125589800D02*
X122515980Y-125685038D01*
X122515980Y-125685038D02*
X122468361Y-125827895D01*
X122468361Y-125827895D02*
X122420742Y-125875514D01*
X121896933Y-126304086D02*
X121896933Y-127065991D01*
X122515980Y-127399324D02*
X121515980Y-127732657D01*
X121515980Y-127732657D02*
X122515980Y-128065990D01*
X122182647Y-128827895D02*
X121515980Y-128827895D01*
X122563600Y-128589800D02*
X121849314Y-128351705D01*
X121849314Y-128351705D02*
X121849314Y-128970752D01*
X185813095Y-108085226D02*
X185813095Y-106815226D01*
X185813095Y-106815226D02*
X186296905Y-106815226D01*
X186296905Y-106815226D02*
X186417857Y-106875702D01*
X186417857Y-106875702D02*
X186478334Y-106936178D01*
X186478334Y-106936178D02*
X186538810Y-107057130D01*
X186538810Y-107057130D02*
X186538810Y-107238559D01*
X186538810Y-107238559D02*
X186478334Y-107359511D01*
X186478334Y-107359511D02*
X186417857Y-107419988D01*
X186417857Y-107419988D02*
X186296905Y-107480464D01*
X186296905Y-107480464D02*
X185813095Y-107480464D01*
X187264524Y-108085226D02*
X187143572Y-108024750D01*
X187143572Y-108024750D02*
X187083095Y-107964273D01*
X187083095Y-107964273D02*
X187022619Y-107843321D01*
X187022619Y-107843321D02*
X187022619Y-107480464D01*
X187022619Y-107480464D02*
X187083095Y-107359511D01*
X187083095Y-107359511D02*
X187143572Y-107299035D01*
X187143572Y-107299035D02*
X187264524Y-107238559D01*
X187264524Y-107238559D02*
X187445953Y-107238559D01*
X187445953Y-107238559D02*
X187566905Y-107299035D01*
X187566905Y-107299035D02*
X187627381Y-107359511D01*
X187627381Y-107359511D02*
X187687857Y-107480464D01*
X187687857Y-107480464D02*
X187687857Y-107843321D01*
X187687857Y-107843321D02*
X187627381Y-107964273D01*
X187627381Y-107964273D02*
X187566905Y-108024750D01*
X187566905Y-108024750D02*
X187445953Y-108085226D01*
X187445953Y-108085226D02*
X187264524Y-108085226D01*
X188111191Y-107238559D02*
X188353096Y-108085226D01*
X188353096Y-108085226D02*
X188595001Y-107480464D01*
X188595001Y-107480464D02*
X188836905Y-108085226D01*
X188836905Y-108085226D02*
X189078810Y-107238559D01*
X190046429Y-108024750D02*
X189925477Y-108085226D01*
X189925477Y-108085226D02*
X189683572Y-108085226D01*
X189683572Y-108085226D02*
X189562619Y-108024750D01*
X189562619Y-108024750D02*
X189502143Y-107903797D01*
X189502143Y-107903797D02*
X189502143Y-107419988D01*
X189502143Y-107419988D02*
X189562619Y-107299035D01*
X189562619Y-107299035D02*
X189683572Y-107238559D01*
X189683572Y-107238559D02*
X189925477Y-107238559D01*
X189925477Y-107238559D02*
X190046429Y-107299035D01*
X190046429Y-107299035D02*
X190106905Y-107419988D01*
X190106905Y-107419988D02*
X190106905Y-107540940D01*
X190106905Y-107540940D02*
X189502143Y-107661892D01*
X190651190Y-108085226D02*
X190651190Y-107238559D01*
X190651190Y-107480464D02*
X190711667Y-107359511D01*
X190711667Y-107359511D02*
X190772143Y-107299035D01*
X190772143Y-107299035D02*
X190893095Y-107238559D01*
X190893095Y-107238559D02*
X191014048Y-107238559D01*
X192404999Y-108085226D02*
X192404999Y-106815226D01*
X192404999Y-106815226D02*
X192707380Y-106815226D01*
X192707380Y-106815226D02*
X192888809Y-106875702D01*
X192888809Y-106875702D02*
X193009761Y-106996654D01*
X193009761Y-106996654D02*
X193070238Y-107117607D01*
X193070238Y-107117607D02*
X193130714Y-107359511D01*
X193130714Y-107359511D02*
X193130714Y-107540940D01*
X193130714Y-107540940D02*
X193070238Y-107782845D01*
X193070238Y-107782845D02*
X193009761Y-107903797D01*
X193009761Y-107903797D02*
X192888809Y-108024750D01*
X192888809Y-108024750D02*
X192707380Y-108085226D01*
X192707380Y-108085226D02*
X192404999Y-108085226D01*
X193614523Y-107722369D02*
X194219285Y-107722369D01*
X193493571Y-108085226D02*
X193916904Y-106815226D01*
X193916904Y-106815226D02*
X194340238Y-108085226D01*
X195610237Y-108206178D02*
X195489285Y-108145702D01*
X195489285Y-108145702D02*
X195368332Y-108024750D01*
X195368332Y-108024750D02*
X195186904Y-107843321D01*
X195186904Y-107843321D02*
X195065951Y-107782845D01*
X195065951Y-107782845D02*
X194944999Y-107782845D01*
X195005475Y-108085226D02*
X194884523Y-108024750D01*
X194884523Y-108024750D02*
X194763570Y-107903797D01*
X194763570Y-107903797D02*
X194703094Y-107661892D01*
X194703094Y-107661892D02*
X194703094Y-107238559D01*
X194703094Y-107238559D02*
X194763570Y-106996654D01*
X194763570Y-106996654D02*
X194884523Y-106875702D01*
X194884523Y-106875702D02*
X195005475Y-106815226D01*
X195005475Y-106815226D02*
X195247380Y-106815226D01*
X195247380Y-106815226D02*
X195368332Y-106875702D01*
X195368332Y-106875702D02*
X195489285Y-106996654D01*
X195489285Y-106996654D02*
X195549761Y-107238559D01*
X195549761Y-107238559D02*
X195549761Y-107661892D01*
X195549761Y-107661892D02*
X195489285Y-107903797D01*
X195489285Y-107903797D02*
X195368332Y-108024750D01*
X195368332Y-108024750D02*
X195247380Y-108085226D01*
X195247380Y-108085226D02*
X195005475Y-108085226D01*
X186659762Y-110129926D02*
X186055000Y-110129926D01*
X186055000Y-110129926D02*
X186055000Y-108859926D01*
X187083095Y-109464688D02*
X187506429Y-109464688D01*
X187687857Y-110129926D02*
X187083095Y-110129926D01*
X187083095Y-110129926D02*
X187083095Y-108859926D01*
X187083095Y-108859926D02*
X187687857Y-108859926D01*
X188171667Y-108980878D02*
X188232143Y-108920402D01*
X188232143Y-108920402D02*
X188353096Y-108859926D01*
X188353096Y-108859926D02*
X188655477Y-108859926D01*
X188655477Y-108859926D02*
X188776429Y-108920402D01*
X188776429Y-108920402D02*
X188836905Y-108980878D01*
X188836905Y-108980878D02*
X188897382Y-109101830D01*
X188897382Y-109101830D02*
X188897382Y-109222783D01*
X188897382Y-109222783D02*
X188836905Y-109404211D01*
X188836905Y-109404211D02*
X188111191Y-110129926D01*
X188111191Y-110129926D02*
X188897382Y-110129926D01*
X190409286Y-110129926D02*
X190409286Y-108859926D01*
X190409286Y-109464688D02*
X191135001Y-109464688D01*
X191135001Y-110129926D02*
X191135001Y-108859926D01*
X191921191Y-110129926D02*
X191800239Y-110069450D01*
X191800239Y-110069450D02*
X191739762Y-110008973D01*
X191739762Y-110008973D02*
X191679286Y-109888021D01*
X191679286Y-109888021D02*
X191679286Y-109525164D01*
X191679286Y-109525164D02*
X191739762Y-109404211D01*
X191739762Y-109404211D02*
X191800239Y-109343735D01*
X191800239Y-109343735D02*
X191921191Y-109283259D01*
X191921191Y-109283259D02*
X192102620Y-109283259D01*
X192102620Y-109283259D02*
X192223572Y-109343735D01*
X192223572Y-109343735D02*
X192284048Y-109404211D01*
X192284048Y-109404211D02*
X192344524Y-109525164D01*
X192344524Y-109525164D02*
X192344524Y-109888021D01*
X192344524Y-109888021D02*
X192284048Y-110008973D01*
X192284048Y-110008973D02*
X192223572Y-110069450D01*
X192223572Y-110069450D02*
X192102620Y-110129926D01*
X192102620Y-110129926D02*
X191921191Y-110129926D01*
X192707382Y-109283259D02*
X193191191Y-109283259D01*
X192888810Y-108859926D02*
X192888810Y-109948497D01*
X192888810Y-109948497D02*
X192949287Y-110069450D01*
X192949287Y-110069450D02*
X193070239Y-110129926D01*
X193070239Y-110129926D02*
X193191191Y-110129926D01*
X193433096Y-109283259D02*
X193916905Y-109283259D01*
X193614524Y-110129926D02*
X193614524Y-109041354D01*
X193614524Y-109041354D02*
X193675001Y-108920402D01*
X193675001Y-108920402D02*
X193795953Y-108859926D01*
X193795953Y-108859926D02*
X193916905Y-108859926D01*
X194340238Y-110129926D02*
X194340238Y-109283259D01*
X194340238Y-108859926D02*
X194279762Y-108920402D01*
X194279762Y-108920402D02*
X194340238Y-108980878D01*
X194340238Y-108980878D02*
X194400715Y-108920402D01*
X194400715Y-108920402D02*
X194340238Y-108859926D01*
X194340238Y-108859926D02*
X194340238Y-108980878D01*
X194945000Y-110129926D02*
X194945000Y-109283259D01*
X194945000Y-109525164D02*
X195005477Y-109404211D01*
X195005477Y-109404211D02*
X195065953Y-109343735D01*
X195065953Y-109343735D02*
X195186905Y-109283259D01*
X195186905Y-109283259D02*
X195307858Y-109283259D01*
X196215000Y-110069450D02*
X196094048Y-110129926D01*
X196094048Y-110129926D02*
X195852143Y-110129926D01*
X195852143Y-110129926D02*
X195731190Y-110069450D01*
X195731190Y-110069450D02*
X195670714Y-109948497D01*
X195670714Y-109948497D02*
X195670714Y-109464688D01*
X195670714Y-109464688D02*
X195731190Y-109343735D01*
X195731190Y-109343735D02*
X195852143Y-109283259D01*
X195852143Y-109283259D02*
X196094048Y-109283259D01*
X196094048Y-109283259D02*
X196215000Y-109343735D01*
X196215000Y-109343735D02*
X196275476Y-109464688D01*
X196275476Y-109464688D02*
X196275476Y-109585640D01*
X196275476Y-109585640D02*
X195670714Y-109706592D01*
X188957856Y-111025578D02*
X189018332Y-110965102D01*
X189018332Y-110965102D02*
X189139285Y-110904626D01*
X189139285Y-110904626D02*
X189441666Y-110904626D01*
X189441666Y-110904626D02*
X189562618Y-110965102D01*
X189562618Y-110965102D02*
X189623094Y-111025578D01*
X189623094Y-111025578D02*
X189683571Y-111146530D01*
X189683571Y-111146530D02*
X189683571Y-111267483D01*
X189683571Y-111267483D02*
X189623094Y-111448911D01*
X189623094Y-111448911D02*
X188897380Y-112174626D01*
X188897380Y-112174626D02*
X189683571Y-112174626D01*
X190469761Y-110904626D02*
X190590714Y-110904626D01*
X190590714Y-110904626D02*
X190711666Y-110965102D01*
X190711666Y-110965102D02*
X190772142Y-111025578D01*
X190772142Y-111025578D02*
X190832618Y-111146530D01*
X190832618Y-111146530D02*
X190893095Y-111388435D01*
X190893095Y-111388435D02*
X190893095Y-111690816D01*
X190893095Y-111690816D02*
X190832618Y-111932721D01*
X190832618Y-111932721D02*
X190772142Y-112053673D01*
X190772142Y-112053673D02*
X190711666Y-112114150D01*
X190711666Y-112114150D02*
X190590714Y-112174626D01*
X190590714Y-112174626D02*
X190469761Y-112174626D01*
X190469761Y-112174626D02*
X190348809Y-112114150D01*
X190348809Y-112114150D02*
X190288333Y-112053673D01*
X190288333Y-112053673D02*
X190227856Y-111932721D01*
X190227856Y-111932721D02*
X190167380Y-111690816D01*
X190167380Y-111690816D02*
X190167380Y-111388435D01*
X190167380Y-111388435D02*
X190227856Y-111146530D01*
X190227856Y-111146530D02*
X190288333Y-111025578D01*
X190288333Y-111025578D02*
X190348809Y-110965102D01*
X190348809Y-110965102D02*
X190469761Y-110904626D01*
X191376904Y-111025578D02*
X191437380Y-110965102D01*
X191437380Y-110965102D02*
X191558333Y-110904626D01*
X191558333Y-110904626D02*
X191860714Y-110904626D01*
X191860714Y-110904626D02*
X191981666Y-110965102D01*
X191981666Y-110965102D02*
X192042142Y-111025578D01*
X192042142Y-111025578D02*
X192102619Y-111146530D01*
X192102619Y-111146530D02*
X192102619Y-111267483D01*
X192102619Y-111267483D02*
X192042142Y-111448911D01*
X192042142Y-111448911D02*
X191316428Y-112174626D01*
X191316428Y-112174626D02*
X192102619Y-112174626D01*
X193191190Y-111327959D02*
X193191190Y-112174626D01*
X192888809Y-110844150D02*
X192586428Y-111751292D01*
X192586428Y-111751292D02*
X193372619Y-111751292D01*
X164471919Y-135412505D02*
X165571919Y-135412505D01*
X165467157Y-135841076D02*
X165519538Y-135888695D01*
X165519538Y-135888695D02*
X165571919Y-135983933D01*
X165571919Y-135983933D02*
X165571919Y-136222028D01*
X165571919Y-136222028D02*
X165519538Y-136317266D01*
X165519538Y-136317266D02*
X165467157Y-136364885D01*
X165467157Y-136364885D02*
X165362395Y-136412504D01*
X165362395Y-136412504D02*
X165257633Y-136412504D01*
X165257633Y-136412504D02*
X165100490Y-136364885D01*
X165100490Y-136364885D02*
X164471919Y-135793457D01*
X164471919Y-135793457D02*
X164471919Y-136412504D01*
X164576680Y-137412504D02*
X164524300Y-137364885D01*
X164524300Y-137364885D02*
X164471919Y-137222028D01*
X164471919Y-137222028D02*
X164471919Y-137126790D01*
X164471919Y-137126790D02*
X164524300Y-136983933D01*
X164524300Y-136983933D02*
X164629061Y-136888695D01*
X164629061Y-136888695D02*
X164733823Y-136841076D01*
X164733823Y-136841076D02*
X164943347Y-136793457D01*
X164943347Y-136793457D02*
X165100490Y-136793457D01*
X165100490Y-136793457D02*
X165310014Y-136841076D01*
X165310014Y-136841076D02*
X165414776Y-136888695D01*
X165414776Y-136888695D02*
X165519538Y-136983933D01*
X165519538Y-136983933D02*
X165571919Y-137126790D01*
X165571919Y-137126790D02*
X165571919Y-137222028D01*
X165571919Y-137222028D02*
X165519538Y-137364885D01*
X165519538Y-137364885D02*
X165467157Y-137412504D01*
X164524300Y-138555362D02*
X164471919Y-138698219D01*
X164471919Y-138698219D02*
X164471919Y-138936314D01*
X164471919Y-138936314D02*
X164524300Y-139031552D01*
X164524300Y-139031552D02*
X164576680Y-139079171D01*
X164576680Y-139079171D02*
X164681442Y-139126790D01*
X164681442Y-139126790D02*
X164786204Y-139126790D01*
X164786204Y-139126790D02*
X164890966Y-139079171D01*
X164890966Y-139079171D02*
X164943347Y-139031552D01*
X164943347Y-139031552D02*
X164995728Y-138936314D01*
X164995728Y-138936314D02*
X165048109Y-138745838D01*
X165048109Y-138745838D02*
X165100490Y-138650600D01*
X165100490Y-138650600D02*
X165152871Y-138602981D01*
X165152871Y-138602981D02*
X165257633Y-138555362D01*
X165257633Y-138555362D02*
X165362395Y-138555362D01*
X165362395Y-138555362D02*
X165467157Y-138602981D01*
X165467157Y-138602981D02*
X165519538Y-138650600D01*
X165519538Y-138650600D02*
X165571919Y-138745838D01*
X165571919Y-138745838D02*
X165571919Y-138983933D01*
X165571919Y-138983933D02*
X165519538Y-139126790D01*
X164576680Y-140126790D02*
X164524300Y-140079171D01*
X164524300Y-140079171D02*
X164471919Y-139936314D01*
X164471919Y-139936314D02*
X164471919Y-139841076D01*
X164471919Y-139841076D02*
X164524300Y-139698219D01*
X164524300Y-139698219D02*
X164629061Y-139602981D01*
X164629061Y-139602981D02*
X164733823Y-139555362D01*
X164733823Y-139555362D02*
X164943347Y-139507743D01*
X164943347Y-139507743D02*
X165100490Y-139507743D01*
X165100490Y-139507743D02*
X165310014Y-139555362D01*
X165310014Y-139555362D02*
X165414776Y-139602981D01*
X165414776Y-139602981D02*
X165519538Y-139698219D01*
X165519538Y-139698219D02*
X165571919Y-139841076D01*
X165571919Y-139841076D02*
X165571919Y-139936314D01*
X165571919Y-139936314D02*
X165519538Y-140079171D01*
X165519538Y-140079171D02*
X165467157Y-140126790D01*
X164471919Y-141031552D02*
X164471919Y-140555362D01*
X164471919Y-140555362D02*
X165571919Y-140555362D01*
X181387358Y-117088051D02*
X181387358Y-117488051D01*
X180587258Y-117188039D02*
X181387358Y-117288051D01*
X180587258Y-117621372D02*
X181387358Y-117721384D01*
X180587258Y-117921372D02*
X181006358Y-117973759D01*
X181006358Y-117973759D02*
X181082558Y-117949951D01*
X181082558Y-117949951D02*
X181120658Y-117888047D01*
X181120658Y-117888047D02*
X181120658Y-117788047D01*
X181120658Y-117788047D02*
X181082558Y-117716618D01*
X181082558Y-117716618D02*
X181044458Y-117678522D01*
X180587258Y-118254705D02*
X181120658Y-118321380D01*
X181387358Y-118354717D02*
X181349258Y-118316621D01*
X181349258Y-118316621D02*
X181311158Y-118345192D01*
X181311158Y-118345192D02*
X181349258Y-118383288D01*
X181349258Y-118383288D02*
X181387358Y-118354717D01*
X181387358Y-118354717D02*
X181311158Y-118345192D01*
X180625358Y-118559467D02*
X180587258Y-118621371D01*
X180587258Y-118621371D02*
X180587258Y-118754704D01*
X180587258Y-118754704D02*
X180625358Y-118826134D01*
X180625358Y-118826134D02*
X180701558Y-118868992D01*
X180701558Y-118868992D02*
X180739658Y-118873754D01*
X180739658Y-118873754D02*
X180815858Y-118849946D01*
X180815858Y-118849946D02*
X180853958Y-118788042D01*
X180853958Y-118788042D02*
X180853958Y-118688042D01*
X180853958Y-118688042D02*
X180892058Y-118626138D01*
X180892058Y-118626138D02*
X180968258Y-118602329D01*
X180968258Y-118602329D02*
X181006358Y-118607092D01*
X181006358Y-118607092D02*
X181082558Y-118649950D01*
X181082558Y-118649950D02*
X181120658Y-118721379D01*
X181120658Y-118721379D02*
X181120658Y-118821379D01*
X181120658Y-118821379D02*
X181082558Y-118883284D01*
X180625358Y-119659467D02*
X180587258Y-119721371D01*
X180587258Y-119721371D02*
X180587258Y-119854704D01*
X180587258Y-119854704D02*
X180625358Y-119926134D01*
X180625358Y-119926134D02*
X180701558Y-119968992D01*
X180701558Y-119968992D02*
X180739658Y-119973754D01*
X180739658Y-119973754D02*
X180815858Y-119949946D01*
X180815858Y-119949946D02*
X180853958Y-119888042D01*
X180853958Y-119888042D02*
X180853958Y-119788042D01*
X180853958Y-119788042D02*
X180892058Y-119726138D01*
X180892058Y-119726138D02*
X180968258Y-119702329D01*
X180968258Y-119702329D02*
X181006358Y-119707092D01*
X181006358Y-119707092D02*
X181082558Y-119749950D01*
X181082558Y-119749950D02*
X181120658Y-119821379D01*
X181120658Y-119821379D02*
X181120658Y-119921379D01*
X181120658Y-119921379D02*
X181082558Y-119983284D01*
X180587258Y-120254705D02*
X181120658Y-120321380D01*
X181387358Y-120354717D02*
X181349258Y-120316621D01*
X181349258Y-120316621D02*
X181311158Y-120345192D01*
X181311158Y-120345192D02*
X181349258Y-120383288D01*
X181349258Y-120383288D02*
X181387358Y-120354717D01*
X181387358Y-120354717D02*
X181311158Y-120345192D01*
X180587258Y-120888038D02*
X181387358Y-120988050D01*
X180625358Y-120892800D02*
X180587258Y-120821371D01*
X180587258Y-120821371D02*
X180587258Y-120688038D01*
X180587258Y-120688038D02*
X180625358Y-120626134D01*
X180625358Y-120626134D02*
X180663458Y-120597563D01*
X180663458Y-120597563D02*
X180739658Y-120573754D01*
X180739658Y-120573754D02*
X180968258Y-120602329D01*
X180968258Y-120602329D02*
X181044458Y-120645188D01*
X181044458Y-120645188D02*
X181082558Y-120683284D01*
X181082558Y-120683284D02*
X181120658Y-120754713D01*
X181120658Y-120754713D02*
X181120658Y-120888046D01*
X181120658Y-120888046D02*
X181082558Y-120949950D01*
X180625358Y-121492800D02*
X180587258Y-121421371D01*
X180587258Y-121421371D02*
X180587258Y-121288037D01*
X180587258Y-121288037D02*
X180625358Y-121226133D01*
X180625358Y-121226133D02*
X180701558Y-121202325D01*
X180701558Y-121202325D02*
X181006358Y-121240425D01*
X181006358Y-121240425D02*
X181082558Y-121283283D01*
X181082558Y-121283283D02*
X181120658Y-121354712D01*
X181120658Y-121354712D02*
X181120658Y-121488046D01*
X181120658Y-121488046D02*
X181082558Y-121549950D01*
X181082558Y-121549950D02*
X181006358Y-121573758D01*
X181006358Y-121573758D02*
X180930158Y-121564233D01*
X180930158Y-121564233D02*
X180853958Y-121221375D01*
X181120658Y-122721379D02*
X180587258Y-122654704D01*
X181120658Y-122421379D02*
X180701558Y-122368991D01*
X180701558Y-122368991D02*
X180625358Y-122392800D01*
X180625358Y-122392800D02*
X180587258Y-122454704D01*
X180587258Y-122454704D02*
X180587258Y-122554704D01*
X180587258Y-122554704D02*
X180625358Y-122626133D01*
X180625358Y-122626133D02*
X180663458Y-122664229D01*
X181120658Y-123054712D02*
X180320558Y-122954699D01*
X181082558Y-123049949D02*
X181120658Y-123121378D01*
X181120658Y-123121378D02*
X181120658Y-123254712D01*
X181120658Y-123254712D02*
X181082558Y-123316616D01*
X181082558Y-123316616D02*
X181044458Y-123345187D01*
X181044458Y-123345187D02*
X180968258Y-123368995D01*
X180968258Y-123368995D02*
X180739658Y-123340420D01*
X180739658Y-123340420D02*
X180663458Y-123297562D01*
X180663458Y-123297562D02*
X180625358Y-123259466D01*
X180625358Y-123259466D02*
X180587258Y-123188037D01*
X180587258Y-123188037D02*
X180587258Y-123054703D01*
X180587258Y-123054703D02*
X180625358Y-122992799D01*
X161881119Y-100852600D02*
X162981119Y-100852600D01*
X162457309Y-100852600D02*
X162457309Y-101424028D01*
X161881119Y-101424028D02*
X162981119Y-101424028D01*
X162981119Y-101804981D02*
X161881119Y-102471647D01*
X162981119Y-102471647D02*
X161881119Y-101804981D01*
X162876357Y-102804981D02*
X162928738Y-102852600D01*
X162928738Y-102852600D02*
X162981119Y-102947838D01*
X162981119Y-102947838D02*
X162981119Y-103185933D01*
X162981119Y-103185933D02*
X162928738Y-103281171D01*
X162928738Y-103281171D02*
X162876357Y-103328790D01*
X162876357Y-103328790D02*
X162771595Y-103376409D01*
X162771595Y-103376409D02*
X162666833Y-103376409D01*
X162666833Y-103376409D02*
X162509690Y-103328790D01*
X162509690Y-103328790D02*
X161881119Y-102757362D01*
X161881119Y-102757362D02*
X161881119Y-103376409D01*
X161881119Y-104566886D02*
X162981119Y-104566886D01*
X162981119Y-104566886D02*
X162981119Y-104804981D01*
X162981119Y-104804981D02*
X162928738Y-104947838D01*
X162928738Y-104947838D02*
X162823976Y-105043076D01*
X162823976Y-105043076D02*
X162719214Y-105090695D01*
X162719214Y-105090695D02*
X162509690Y-105138314D01*
X162509690Y-105138314D02*
X162352547Y-105138314D01*
X162352547Y-105138314D02*
X162143023Y-105090695D01*
X162143023Y-105090695D02*
X162038261Y-105043076D01*
X162038261Y-105043076D02*
X161933500Y-104947838D01*
X161933500Y-104947838D02*
X161881119Y-104804981D01*
X161881119Y-104804981D02*
X161881119Y-104566886D01*
X162981119Y-105424029D02*
X162981119Y-105995457D01*
X161881119Y-105709743D02*
X162981119Y-105709743D01*
X187808001Y-151541819D02*
X187808001Y-150541819D01*
X187808001Y-150541819D02*
X187974668Y-150541819D01*
X187974668Y-150541819D02*
X188074668Y-150589438D01*
X188074668Y-150589438D02*
X188141335Y-150684676D01*
X188141335Y-150684676D02*
X188174668Y-150779914D01*
X188174668Y-150779914D02*
X188208001Y-150970390D01*
X188208001Y-150970390D02*
X188208001Y-151113247D01*
X188208001Y-151113247D02*
X188174668Y-151303723D01*
X188174668Y-151303723D02*
X188141335Y-151398961D01*
X188141335Y-151398961D02*
X188074668Y-151494200D01*
X188074668Y-151494200D02*
X187974668Y-151541819D01*
X187974668Y-151541819D02*
X187808001Y-151541819D01*
X188774668Y-151494200D02*
X188708001Y-151541819D01*
X188708001Y-151541819D02*
X188574668Y-151541819D01*
X188574668Y-151541819D02*
X188508001Y-151494200D01*
X188508001Y-151494200D02*
X188474668Y-151398961D01*
X188474668Y-151398961D02*
X188474668Y-151018009D01*
X188474668Y-151018009D02*
X188508001Y-150922771D01*
X188508001Y-150922771D02*
X188574668Y-150875152D01*
X188574668Y-150875152D02*
X188708001Y-150875152D01*
X188708001Y-150875152D02*
X188774668Y-150922771D01*
X188774668Y-150922771D02*
X188808001Y-151018009D01*
X188808001Y-151018009D02*
X188808001Y-151113247D01*
X188808001Y-151113247D02*
X188474668Y-151208485D01*
X189074668Y-151494200D02*
X189141335Y-151541819D01*
X189141335Y-151541819D02*
X189274668Y-151541819D01*
X189274668Y-151541819D02*
X189341335Y-151494200D01*
X189341335Y-151494200D02*
X189374668Y-151398961D01*
X189374668Y-151398961D02*
X189374668Y-151351342D01*
X189374668Y-151351342D02*
X189341335Y-151256104D01*
X189341335Y-151256104D02*
X189274668Y-151208485D01*
X189274668Y-151208485D02*
X189174668Y-151208485D01*
X189174668Y-151208485D02*
X189108001Y-151160866D01*
X189108001Y-151160866D02*
X189074668Y-151065628D01*
X189074668Y-151065628D02*
X189074668Y-151018009D01*
X189074668Y-151018009D02*
X189108001Y-150922771D01*
X189108001Y-150922771D02*
X189174668Y-150875152D01*
X189174668Y-150875152D02*
X189274668Y-150875152D01*
X189274668Y-150875152D02*
X189341335Y-150922771D01*
X189674668Y-151541819D02*
X189674668Y-150875152D01*
X189674668Y-150541819D02*
X189641335Y-150589438D01*
X189641335Y-150589438D02*
X189674668Y-150637057D01*
X189674668Y-150637057D02*
X189708002Y-150589438D01*
X189708002Y-150589438D02*
X189674668Y-150541819D01*
X189674668Y-150541819D02*
X189674668Y-150637057D01*
X190308001Y-150875152D02*
X190308001Y-151684676D01*
X190308001Y-151684676D02*
X190274668Y-151779914D01*
X190274668Y-151779914D02*
X190241335Y-151827533D01*
X190241335Y-151827533D02*
X190174668Y-151875152D01*
X190174668Y-151875152D02*
X190074668Y-151875152D01*
X190074668Y-151875152D02*
X190008001Y-151827533D01*
X190308001Y-151494200D02*
X190241335Y-151541819D01*
X190241335Y-151541819D02*
X190108001Y-151541819D01*
X190108001Y-151541819D02*
X190041335Y-151494200D01*
X190041335Y-151494200D02*
X190008001Y-151446580D01*
X190008001Y-151446580D02*
X189974668Y-151351342D01*
X189974668Y-151351342D02*
X189974668Y-151065628D01*
X189974668Y-151065628D02*
X190008001Y-150970390D01*
X190008001Y-150970390D02*
X190041335Y-150922771D01*
X190041335Y-150922771D02*
X190108001Y-150875152D01*
X190108001Y-150875152D02*
X190241335Y-150875152D01*
X190241335Y-150875152D02*
X190308001Y-150922771D01*
X190641334Y-150875152D02*
X190641334Y-151541819D01*
X190641334Y-150970390D02*
X190674668Y-150922771D01*
X190674668Y-150922771D02*
X190741334Y-150875152D01*
X190741334Y-150875152D02*
X190841334Y-150875152D01*
X190841334Y-150875152D02*
X190908001Y-150922771D01*
X190908001Y-150922771D02*
X190941334Y-151018009D01*
X190941334Y-151018009D02*
X190941334Y-151541819D01*
X191541334Y-151494200D02*
X191474667Y-151541819D01*
X191474667Y-151541819D02*
X191341334Y-151541819D01*
X191341334Y-151541819D02*
X191274667Y-151494200D01*
X191274667Y-151494200D02*
X191241334Y-151398961D01*
X191241334Y-151398961D02*
X191241334Y-151018009D01*
X191241334Y-151018009D02*
X191274667Y-150922771D01*
X191274667Y-150922771D02*
X191341334Y-150875152D01*
X191341334Y-150875152D02*
X191474667Y-150875152D01*
X191474667Y-150875152D02*
X191541334Y-150922771D01*
X191541334Y-150922771D02*
X191574667Y-151018009D01*
X191574667Y-151018009D02*
X191574667Y-151113247D01*
X191574667Y-151113247D02*
X191241334Y-151208485D01*
X192174667Y-151541819D02*
X192174667Y-150541819D01*
X192174667Y-151494200D02*
X192108001Y-151541819D01*
X192108001Y-151541819D02*
X191974667Y-151541819D01*
X191974667Y-151541819D02*
X191908001Y-151494200D01*
X191908001Y-151494200D02*
X191874667Y-151446580D01*
X191874667Y-151446580D02*
X191841334Y-151351342D01*
X191841334Y-151351342D02*
X191841334Y-151065628D01*
X191841334Y-151065628D02*
X191874667Y-150970390D01*
X191874667Y-150970390D02*
X191908001Y-150922771D01*
X191908001Y-150922771D02*
X191974667Y-150875152D01*
X191974667Y-150875152D02*
X192108001Y-150875152D01*
X192108001Y-150875152D02*
X192174667Y-150922771D01*
X193041333Y-151541819D02*
X193041333Y-150541819D01*
X193041333Y-150922771D02*
X193108000Y-150875152D01*
X193108000Y-150875152D02*
X193241333Y-150875152D01*
X193241333Y-150875152D02*
X193308000Y-150922771D01*
X193308000Y-150922771D02*
X193341333Y-150970390D01*
X193341333Y-150970390D02*
X193374667Y-151065628D01*
X193374667Y-151065628D02*
X193374667Y-151351342D01*
X193374667Y-151351342D02*
X193341333Y-151446580D01*
X193341333Y-151446580D02*
X193308000Y-151494200D01*
X193308000Y-151494200D02*
X193241333Y-151541819D01*
X193241333Y-151541819D02*
X193108000Y-151541819D01*
X193108000Y-151541819D02*
X193041333Y-151494200D01*
X193608000Y-150875152D02*
X193774666Y-151541819D01*
X193941333Y-150875152D02*
X193774666Y-151541819D01*
X193774666Y-151541819D02*
X193708000Y-151779914D01*
X193708000Y-151779914D02*
X193674666Y-151827533D01*
X193674666Y-151827533D02*
X193608000Y-151875152D01*
X194207999Y-151446580D02*
X194241333Y-151494200D01*
X194241333Y-151494200D02*
X194207999Y-151541819D01*
X194207999Y-151541819D02*
X194174666Y-151494200D01*
X194174666Y-151494200D02*
X194207999Y-151446580D01*
X194207999Y-151446580D02*
X194207999Y-151541819D01*
X194207999Y-150922771D02*
X194241333Y-150970390D01*
X194241333Y-150970390D02*
X194207999Y-151018009D01*
X194207999Y-151018009D02*
X194174666Y-150970390D01*
X194174666Y-150970390D02*
X194207999Y-150922771D01*
X194207999Y-150922771D02*
X194207999Y-151018009D01*
X188374667Y-153151819D02*
X188374667Y-152151819D01*
X188774667Y-153151819D02*
X188474667Y-152580390D01*
X188774667Y-152151819D02*
X188374667Y-152723247D01*
X189074667Y-153151819D02*
X189074667Y-152151819D01*
X189374667Y-153151819D02*
X189374667Y-152628009D01*
X189374667Y-152628009D02*
X189341334Y-152532771D01*
X189341334Y-152532771D02*
X189274667Y-152485152D01*
X189274667Y-152485152D02*
X189174667Y-152485152D01*
X189174667Y-152485152D02*
X189108001Y-152532771D01*
X189108001Y-152532771D02*
X189074667Y-152580390D01*
X190008000Y-153151819D02*
X190008000Y-152628009D01*
X190008000Y-152628009D02*
X189974667Y-152532771D01*
X189974667Y-152532771D02*
X189908000Y-152485152D01*
X189908000Y-152485152D02*
X189774667Y-152485152D01*
X189774667Y-152485152D02*
X189708000Y-152532771D01*
X190008000Y-153104200D02*
X189941334Y-153151819D01*
X189941334Y-153151819D02*
X189774667Y-153151819D01*
X189774667Y-153151819D02*
X189708000Y-153104200D01*
X189708000Y-153104200D02*
X189674667Y-153008961D01*
X189674667Y-153008961D02*
X189674667Y-152913723D01*
X189674667Y-152913723D02*
X189708000Y-152818485D01*
X189708000Y-152818485D02*
X189774667Y-152770866D01*
X189774667Y-152770866D02*
X189941334Y-152770866D01*
X189941334Y-152770866D02*
X190008000Y-152723247D01*
X190341333Y-153151819D02*
X190341333Y-152485152D01*
X190341333Y-152151819D02*
X190308000Y-152199438D01*
X190308000Y-152199438D02*
X190341333Y-152247057D01*
X190341333Y-152247057D02*
X190374667Y-152199438D01*
X190374667Y-152199438D02*
X190341333Y-152151819D01*
X190341333Y-152151819D02*
X190341333Y-152247057D01*
X191174666Y-153104200D02*
X191274666Y-153151819D01*
X191274666Y-153151819D02*
X191441333Y-153151819D01*
X191441333Y-153151819D02*
X191507999Y-153104200D01*
X191507999Y-153104200D02*
X191541333Y-153056580D01*
X191541333Y-153056580D02*
X191574666Y-152961342D01*
X191574666Y-152961342D02*
X191574666Y-152866104D01*
X191574666Y-152866104D02*
X191541333Y-152770866D01*
X191541333Y-152770866D02*
X191507999Y-152723247D01*
X191507999Y-152723247D02*
X191441333Y-152675628D01*
X191441333Y-152675628D02*
X191307999Y-152628009D01*
X191307999Y-152628009D02*
X191241333Y-152580390D01*
X191241333Y-152580390D02*
X191207999Y-152532771D01*
X191207999Y-152532771D02*
X191174666Y-152437533D01*
X191174666Y-152437533D02*
X191174666Y-152342295D01*
X191174666Y-152342295D02*
X191207999Y-152247057D01*
X191207999Y-152247057D02*
X191241333Y-152199438D01*
X191241333Y-152199438D02*
X191307999Y-152151819D01*
X191307999Y-152151819D02*
X191474666Y-152151819D01*
X191474666Y-152151819D02*
X191574666Y-152199438D01*
X192174666Y-153151819D02*
X192174666Y-152628009D01*
X192174666Y-152628009D02*
X192141333Y-152532771D01*
X192141333Y-152532771D02*
X192074666Y-152485152D01*
X192074666Y-152485152D02*
X191941333Y-152485152D01*
X191941333Y-152485152D02*
X191874666Y-152532771D01*
X192174666Y-153104200D02*
X192108000Y-153151819D01*
X192108000Y-153151819D02*
X191941333Y-153151819D01*
X191941333Y-153151819D02*
X191874666Y-153104200D01*
X191874666Y-153104200D02*
X191841333Y-153008961D01*
X191841333Y-153008961D02*
X191841333Y-152913723D01*
X191841333Y-152913723D02*
X191874666Y-152818485D01*
X191874666Y-152818485D02*
X191941333Y-152770866D01*
X191941333Y-152770866D02*
X192108000Y-152770866D01*
X192108000Y-152770866D02*
X192174666Y-152723247D01*
X192507999Y-153151819D02*
X192507999Y-152485152D01*
X192507999Y-152580390D02*
X192541333Y-152532771D01*
X192541333Y-152532771D02*
X192607999Y-152485152D01*
X192607999Y-152485152D02*
X192707999Y-152485152D01*
X192707999Y-152485152D02*
X192774666Y-152532771D01*
X192774666Y-152532771D02*
X192807999Y-152628009D01*
X192807999Y-152628009D02*
X192807999Y-153151819D01*
X192807999Y-152628009D02*
X192841333Y-152532771D01*
X192841333Y-152532771D02*
X192907999Y-152485152D01*
X192907999Y-152485152D02*
X193007999Y-152485152D01*
X193007999Y-152485152D02*
X193074666Y-152532771D01*
X193074666Y-152532771D02*
X193107999Y-152628009D01*
X193107999Y-152628009D02*
X193107999Y-153151819D01*
X164395719Y-100801800D02*
X165495719Y-100801800D01*
X164971909Y-100801800D02*
X164971909Y-101373228D01*
X164395719Y-101373228D02*
X165495719Y-101373228D01*
X165495719Y-101754181D02*
X164395719Y-102420847D01*
X165495719Y-102420847D02*
X164395719Y-101754181D01*
X164395719Y-103325609D02*
X164395719Y-102754181D01*
X164395719Y-103039895D02*
X165495719Y-103039895D01*
X165495719Y-103039895D02*
X165338576Y-102944657D01*
X165338576Y-102944657D02*
X165233814Y-102849419D01*
X165233814Y-102849419D02*
X165181433Y-102754181D01*
X164395719Y-104516086D02*
X165495719Y-104516086D01*
X165495719Y-104516086D02*
X165495719Y-104754181D01*
X165495719Y-104754181D02*
X165443338Y-104897038D01*
X165443338Y-104897038D02*
X165338576Y-104992276D01*
X165338576Y-104992276D02*
X165233814Y-105039895D01*
X165233814Y-105039895D02*
X165024290Y-105087514D01*
X165024290Y-105087514D02*
X164867147Y-105087514D01*
X164867147Y-105087514D02*
X164657623Y-105039895D01*
X164657623Y-105039895D02*
X164552861Y-104992276D01*
X164552861Y-104992276D02*
X164448100Y-104897038D01*
X164448100Y-104897038D02*
X164395719Y-104754181D01*
X164395719Y-104754181D02*
X164395719Y-104516086D01*
X165495719Y-105373229D02*
X165495719Y-105944657D01*
X164395719Y-105658943D02*
X165495719Y-105658943D01*
X238392619Y-109956313D02*
X239392619Y-109289647D01*
X238392619Y-109289647D02*
X239392619Y-109956313D01*
X238392619Y-109051551D02*
X238392619Y-108480123D01*
X239392619Y-108765837D02*
X238392619Y-108765837D01*
X239011666Y-108146789D02*
X239011666Y-107384885D01*
X238392619Y-106480123D02*
X238392619Y-106670599D01*
X238392619Y-106670599D02*
X238440238Y-106765837D01*
X238440238Y-106765837D02*
X238487857Y-106813456D01*
X238487857Y-106813456D02*
X238630714Y-106908694D01*
X238630714Y-106908694D02*
X238821190Y-106956313D01*
X238821190Y-106956313D02*
X239202142Y-106956313D01*
X239202142Y-106956313D02*
X239297380Y-106908694D01*
X239297380Y-106908694D02*
X239345000Y-106861075D01*
X239345000Y-106861075D02*
X239392619Y-106765837D01*
X239392619Y-106765837D02*
X239392619Y-106575361D01*
X239392619Y-106575361D02*
X239345000Y-106480123D01*
X239345000Y-106480123D02*
X239297380Y-106432504D01*
X239297380Y-106432504D02*
X239202142Y-106384885D01*
X239202142Y-106384885D02*
X238964047Y-106384885D01*
X238964047Y-106384885D02*
X238868809Y-106432504D01*
X238868809Y-106432504D02*
X238821190Y-106480123D01*
X238821190Y-106480123D02*
X238773571Y-106575361D01*
X238773571Y-106575361D02*
X238773571Y-106765837D01*
X238773571Y-106765837D02*
X238821190Y-106861075D01*
X238821190Y-106861075D02*
X238868809Y-106908694D01*
X238868809Y-106908694D02*
X238964047Y-106956313D01*
X238392619Y-105765837D02*
X238392619Y-105670599D01*
X238392619Y-105670599D02*
X238440238Y-105575361D01*
X238440238Y-105575361D02*
X238487857Y-105527742D01*
X238487857Y-105527742D02*
X238583095Y-105480123D01*
X238583095Y-105480123D02*
X238773571Y-105432504D01*
X238773571Y-105432504D02*
X239011666Y-105432504D01*
X239011666Y-105432504D02*
X239202142Y-105480123D01*
X239202142Y-105480123D02*
X239297380Y-105527742D01*
X239297380Y-105527742D02*
X239345000Y-105575361D01*
X239345000Y-105575361D02*
X239392619Y-105670599D01*
X239392619Y-105670599D02*
X239392619Y-105765837D01*
X239392619Y-105765837D02*
X239345000Y-105861075D01*
X239345000Y-105861075D02*
X239297380Y-105908694D01*
X239297380Y-105908694D02*
X239202142Y-105956313D01*
X239202142Y-105956313D02*
X239011666Y-106003932D01*
X239011666Y-106003932D02*
X238773571Y-106003932D01*
X238773571Y-106003932D02*
X238583095Y-105956313D01*
X238583095Y-105956313D02*
X238487857Y-105908694D01*
X238487857Y-105908694D02*
X238440238Y-105861075D01*
X238440238Y-105861075D02*
X238392619Y-105765837D01*
X170575719Y-101631905D02*
X170575719Y-102250952D01*
X170575719Y-102250952D02*
X170156671Y-101917619D01*
X170156671Y-101917619D02*
X170156671Y-102060476D01*
X170156671Y-102060476D02*
X170104290Y-102155714D01*
X170104290Y-102155714D02*
X170051909Y-102203333D01*
X170051909Y-102203333D02*
X169947147Y-102250952D01*
X169947147Y-102250952D02*
X169685242Y-102250952D01*
X169685242Y-102250952D02*
X169580480Y-102203333D01*
X169580480Y-102203333D02*
X169528100Y-102155714D01*
X169528100Y-102155714D02*
X169475719Y-102060476D01*
X169475719Y-102060476D02*
X169475719Y-101774762D01*
X169475719Y-101774762D02*
X169528100Y-101679524D01*
X169528100Y-101679524D02*
X169580480Y-101631905D01*
X170575719Y-102536667D02*
X169475719Y-102870000D01*
X169475719Y-102870000D02*
X170575719Y-103203333D01*
X170575719Y-103441429D02*
X170575719Y-104060476D01*
X170575719Y-104060476D02*
X170156671Y-103727143D01*
X170156671Y-103727143D02*
X170156671Y-103870000D01*
X170156671Y-103870000D02*
X170104290Y-103965238D01*
X170104290Y-103965238D02*
X170051909Y-104012857D01*
X170051909Y-104012857D02*
X169947147Y-104060476D01*
X169947147Y-104060476D02*
X169685242Y-104060476D01*
X169685242Y-104060476D02*
X169580480Y-104012857D01*
X169580480Y-104012857D02*
X169528100Y-103965238D01*
X169528100Y-103965238D02*
X169475719Y-103870000D01*
X169475719Y-103870000D02*
X169475719Y-103584286D01*
X169475719Y-103584286D02*
X169528100Y-103489048D01*
X169528100Y-103489048D02*
X169580480Y-103441429D01*
X154286519Y-101081200D02*
X155386519Y-101081200D01*
X154862709Y-101081200D02*
X154862709Y-101652628D01*
X154286519Y-101652628D02*
X155386519Y-101652628D01*
X155386519Y-102033581D02*
X154286519Y-102700247D01*
X155386519Y-102700247D02*
X154286519Y-102033581D01*
X155386519Y-103557390D02*
X155386519Y-103081200D01*
X155386519Y-103081200D02*
X154862709Y-103033581D01*
X154862709Y-103033581D02*
X154915090Y-103081200D01*
X154915090Y-103081200D02*
X154967471Y-103176438D01*
X154967471Y-103176438D02*
X154967471Y-103414533D01*
X154967471Y-103414533D02*
X154915090Y-103509771D01*
X154915090Y-103509771D02*
X154862709Y-103557390D01*
X154862709Y-103557390D02*
X154757947Y-103605009D01*
X154757947Y-103605009D02*
X154496042Y-103605009D01*
X154496042Y-103605009D02*
X154391280Y-103557390D01*
X154391280Y-103557390D02*
X154338900Y-103509771D01*
X154338900Y-103509771D02*
X154286519Y-103414533D01*
X154286519Y-103414533D02*
X154286519Y-103176438D01*
X154286519Y-103176438D02*
X154338900Y-103081200D01*
X154338900Y-103081200D02*
X154391280Y-103033581D01*
X154286519Y-104795486D02*
X155386519Y-104795486D01*
X155386519Y-104795486D02*
X155386519Y-105033581D01*
X155386519Y-105033581D02*
X155334138Y-105176438D01*
X155334138Y-105176438D02*
X155229376Y-105271676D01*
X155229376Y-105271676D02*
X155124614Y-105319295D01*
X155124614Y-105319295D02*
X154915090Y-105366914D01*
X154915090Y-105366914D02*
X154757947Y-105366914D01*
X154757947Y-105366914D02*
X154548423Y-105319295D01*
X154548423Y-105319295D02*
X154443661Y-105271676D01*
X154443661Y-105271676D02*
X154338900Y-105176438D01*
X154338900Y-105176438D02*
X154286519Y-105033581D01*
X154286519Y-105033581D02*
X154286519Y-104795486D01*
X155386519Y-105652629D02*
X155386519Y-106224057D01*
X154286519Y-105938343D02*
X155386519Y-105938343D01*
X159391919Y-100903400D02*
X160491919Y-100903400D01*
X159968109Y-100903400D02*
X159968109Y-101474828D01*
X159391919Y-101474828D02*
X160491919Y-101474828D01*
X160491919Y-101855781D02*
X159391919Y-102522447D01*
X160491919Y-102522447D02*
X159391919Y-101855781D01*
X160491919Y-102808162D02*
X160491919Y-103427209D01*
X160491919Y-103427209D02*
X160072871Y-103093876D01*
X160072871Y-103093876D02*
X160072871Y-103236733D01*
X160072871Y-103236733D02*
X160020490Y-103331971D01*
X160020490Y-103331971D02*
X159968109Y-103379590D01*
X159968109Y-103379590D02*
X159863347Y-103427209D01*
X159863347Y-103427209D02*
X159601442Y-103427209D01*
X159601442Y-103427209D02*
X159496680Y-103379590D01*
X159496680Y-103379590D02*
X159444300Y-103331971D01*
X159444300Y-103331971D02*
X159391919Y-103236733D01*
X159391919Y-103236733D02*
X159391919Y-102951019D01*
X159391919Y-102951019D02*
X159444300Y-102855781D01*
X159444300Y-102855781D02*
X159496680Y-102808162D01*
X159391919Y-104617686D02*
X160491919Y-104617686D01*
X160491919Y-104617686D02*
X160491919Y-104855781D01*
X160491919Y-104855781D02*
X160439538Y-104998638D01*
X160439538Y-104998638D02*
X160334776Y-105093876D01*
X160334776Y-105093876D02*
X160230014Y-105141495D01*
X160230014Y-105141495D02*
X160020490Y-105189114D01*
X160020490Y-105189114D02*
X159863347Y-105189114D01*
X159863347Y-105189114D02*
X159653823Y-105141495D01*
X159653823Y-105141495D02*
X159549061Y-105093876D01*
X159549061Y-105093876D02*
X159444300Y-104998638D01*
X159444300Y-104998638D02*
X159391919Y-104855781D01*
X159391919Y-104855781D02*
X159391919Y-104617686D01*
X160491919Y-105474829D02*
X160491919Y-106046257D01*
X159391919Y-105760543D02*
X160491919Y-105760543D01*
X132577319Y-135607752D02*
X132577319Y-136179180D01*
X131477319Y-135893466D02*
X132577319Y-135893466D01*
X131582080Y-137083942D02*
X131529700Y-137036323D01*
X131529700Y-137036323D02*
X131477319Y-136893466D01*
X131477319Y-136893466D02*
X131477319Y-136798228D01*
X131477319Y-136798228D02*
X131529700Y-136655371D01*
X131529700Y-136655371D02*
X131634461Y-136560133D01*
X131634461Y-136560133D02*
X131739223Y-136512514D01*
X131739223Y-136512514D02*
X131948747Y-136464895D01*
X131948747Y-136464895D02*
X132105890Y-136464895D01*
X132105890Y-136464895D02*
X132315414Y-136512514D01*
X132315414Y-136512514D02*
X132420176Y-136560133D01*
X132420176Y-136560133D02*
X132524938Y-136655371D01*
X132524938Y-136655371D02*
X132577319Y-136798228D01*
X132577319Y-136798228D02*
X132577319Y-136893466D01*
X132577319Y-136893466D02*
X132524938Y-137036323D01*
X132524938Y-137036323D02*
X132472557Y-137083942D01*
X132210652Y-137941085D02*
X131477319Y-137941085D01*
X132629700Y-137702990D02*
X131843985Y-137464895D01*
X131843985Y-137464895D02*
X131843985Y-138083942D01*
X131582080Y-139798228D02*
X131529700Y-139750609D01*
X131529700Y-139750609D02*
X131477319Y-139607752D01*
X131477319Y-139607752D02*
X131477319Y-139512514D01*
X131477319Y-139512514D02*
X131529700Y-139369657D01*
X131529700Y-139369657D02*
X131634461Y-139274419D01*
X131634461Y-139274419D02*
X131739223Y-139226800D01*
X131739223Y-139226800D02*
X131948747Y-139179181D01*
X131948747Y-139179181D02*
X132105890Y-139179181D01*
X132105890Y-139179181D02*
X132315414Y-139226800D01*
X132315414Y-139226800D02*
X132420176Y-139274419D01*
X132420176Y-139274419D02*
X132524938Y-139369657D01*
X132524938Y-139369657D02*
X132577319Y-139512514D01*
X132577319Y-139512514D02*
X132577319Y-139607752D01*
X132577319Y-139607752D02*
X132524938Y-139750609D01*
X132524938Y-139750609D02*
X132472557Y-139798228D01*
X131529700Y-140179181D02*
X131477319Y-140322038D01*
X131477319Y-140322038D02*
X131477319Y-140560133D01*
X131477319Y-140560133D02*
X131529700Y-140655371D01*
X131529700Y-140655371D02*
X131582080Y-140702990D01*
X131582080Y-140702990D02*
X131686842Y-140750609D01*
X131686842Y-140750609D02*
X131791604Y-140750609D01*
X131791604Y-140750609D02*
X131896366Y-140702990D01*
X131896366Y-140702990D02*
X131948747Y-140655371D01*
X131948747Y-140655371D02*
X132001128Y-140560133D01*
X132001128Y-140560133D02*
X132053509Y-140369657D01*
X132053509Y-140369657D02*
X132105890Y-140274419D01*
X132105890Y-140274419D02*
X132158271Y-140226800D01*
X132158271Y-140226800D02*
X132263033Y-140179181D01*
X132263033Y-140179181D02*
X132367795Y-140179181D01*
X132367795Y-140179181D02*
X132472557Y-140226800D01*
X132472557Y-140226800D02*
X132524938Y-140274419D01*
X132524938Y-140274419D02*
X132577319Y-140369657D01*
X132577319Y-140369657D02*
X132577319Y-140607752D01*
X132577319Y-140607752D02*
X132524938Y-140750609D01*
X151746519Y-101055800D02*
X152846519Y-101055800D01*
X152322709Y-101055800D02*
X152322709Y-101627228D01*
X151746519Y-101627228D02*
X152846519Y-101627228D01*
X152846519Y-102008181D02*
X151746519Y-102674847D01*
X152846519Y-102674847D02*
X151746519Y-102008181D01*
X152846519Y-103484371D02*
X152846519Y-103293895D01*
X152846519Y-103293895D02*
X152794138Y-103198657D01*
X152794138Y-103198657D02*
X152741757Y-103151038D01*
X152741757Y-103151038D02*
X152584614Y-103055800D01*
X152584614Y-103055800D02*
X152375090Y-103008181D01*
X152375090Y-103008181D02*
X151956042Y-103008181D01*
X151956042Y-103008181D02*
X151851280Y-103055800D01*
X151851280Y-103055800D02*
X151798900Y-103103419D01*
X151798900Y-103103419D02*
X151746519Y-103198657D01*
X151746519Y-103198657D02*
X151746519Y-103389133D01*
X151746519Y-103389133D02*
X151798900Y-103484371D01*
X151798900Y-103484371D02*
X151851280Y-103531990D01*
X151851280Y-103531990D02*
X151956042Y-103579609D01*
X151956042Y-103579609D02*
X152217947Y-103579609D01*
X152217947Y-103579609D02*
X152322709Y-103531990D01*
X152322709Y-103531990D02*
X152375090Y-103484371D01*
X152375090Y-103484371D02*
X152427471Y-103389133D01*
X152427471Y-103389133D02*
X152427471Y-103198657D01*
X152427471Y-103198657D02*
X152375090Y-103103419D01*
X152375090Y-103103419D02*
X152322709Y-103055800D01*
X152322709Y-103055800D02*
X152217947Y-103008181D01*
X151746519Y-104770086D02*
X152846519Y-104770086D01*
X152846519Y-104770086D02*
X152846519Y-105008181D01*
X152846519Y-105008181D02*
X152794138Y-105151038D01*
X152794138Y-105151038D02*
X152689376Y-105246276D01*
X152689376Y-105246276D02*
X152584614Y-105293895D01*
X152584614Y-105293895D02*
X152375090Y-105341514D01*
X152375090Y-105341514D02*
X152217947Y-105341514D01*
X152217947Y-105341514D02*
X152008423Y-105293895D01*
X152008423Y-105293895D02*
X151903661Y-105246276D01*
X151903661Y-105246276D02*
X151798900Y-105151038D01*
X151798900Y-105151038D02*
X151746519Y-105008181D01*
X151746519Y-105008181D02*
X151746519Y-104770086D01*
X152846519Y-105627229D02*
X152846519Y-106198657D01*
X151746519Y-105912943D02*
X152846519Y-105912943D01*
X170548738Y-137439495D02*
X170601119Y-137344257D01*
X170601119Y-137344257D02*
X170601119Y-137201400D01*
X170601119Y-137201400D02*
X170548738Y-137058543D01*
X170548738Y-137058543D02*
X170443976Y-136963305D01*
X170443976Y-136963305D02*
X170339214Y-136915686D01*
X170339214Y-136915686D02*
X170129690Y-136868067D01*
X170129690Y-136868067D02*
X169972547Y-136868067D01*
X169972547Y-136868067D02*
X169763023Y-136915686D01*
X169763023Y-136915686D02*
X169658261Y-136963305D01*
X169658261Y-136963305D02*
X169553500Y-137058543D01*
X169553500Y-137058543D02*
X169501119Y-137201400D01*
X169501119Y-137201400D02*
X169501119Y-137296638D01*
X169501119Y-137296638D02*
X169553500Y-137439495D01*
X169553500Y-137439495D02*
X169605880Y-137487114D01*
X169605880Y-137487114D02*
X169972547Y-137487114D01*
X169972547Y-137487114D02*
X169972547Y-137296638D01*
X169501119Y-137915686D02*
X170601119Y-137915686D01*
X170601119Y-137915686D02*
X169501119Y-138487114D01*
X169501119Y-138487114D02*
X170601119Y-138487114D01*
X169501119Y-138963305D02*
X170601119Y-138963305D01*
X170601119Y-138963305D02*
X170601119Y-139201400D01*
X170601119Y-139201400D02*
X170548738Y-139344257D01*
X170548738Y-139344257D02*
X170443976Y-139439495D01*
X170443976Y-139439495D02*
X170339214Y-139487114D01*
X170339214Y-139487114D02*
X170129690Y-139534733D01*
X170129690Y-139534733D02*
X169972547Y-139534733D01*
X169972547Y-139534733D02*
X169763023Y-139487114D01*
X169763023Y-139487114D02*
X169658261Y-139439495D01*
X169658261Y-139439495D02*
X169553500Y-139344257D01*
X169553500Y-139344257D02*
X169501119Y-139201400D01*
X169501119Y-139201400D02*
X169501119Y-138963305D01*
X142635719Y-135556952D02*
X142635719Y-136128380D01*
X141535719Y-135842666D02*
X142635719Y-135842666D01*
X141640480Y-137033142D02*
X141588100Y-136985523D01*
X141588100Y-136985523D02*
X141535719Y-136842666D01*
X141535719Y-136842666D02*
X141535719Y-136747428D01*
X141535719Y-136747428D02*
X141588100Y-136604571D01*
X141588100Y-136604571D02*
X141692861Y-136509333D01*
X141692861Y-136509333D02*
X141797623Y-136461714D01*
X141797623Y-136461714D02*
X142007147Y-136414095D01*
X142007147Y-136414095D02*
X142164290Y-136414095D01*
X142164290Y-136414095D02*
X142373814Y-136461714D01*
X142373814Y-136461714D02*
X142478576Y-136509333D01*
X142478576Y-136509333D02*
X142583338Y-136604571D01*
X142583338Y-136604571D02*
X142635719Y-136747428D01*
X142635719Y-136747428D02*
X142635719Y-136842666D01*
X142635719Y-136842666D02*
X142583338Y-136985523D01*
X142583338Y-136985523D02*
X142530957Y-137033142D01*
X142530957Y-137414095D02*
X142583338Y-137461714D01*
X142583338Y-137461714D02*
X142635719Y-137556952D01*
X142635719Y-137556952D02*
X142635719Y-137795047D01*
X142635719Y-137795047D02*
X142583338Y-137890285D01*
X142583338Y-137890285D02*
X142530957Y-137937904D01*
X142530957Y-137937904D02*
X142426195Y-137985523D01*
X142426195Y-137985523D02*
X142321433Y-137985523D01*
X142321433Y-137985523D02*
X142164290Y-137937904D01*
X142164290Y-137937904D02*
X141535719Y-137366476D01*
X141535719Y-137366476D02*
X141535719Y-137985523D01*
X141640480Y-139747428D02*
X141588100Y-139699809D01*
X141588100Y-139699809D02*
X141535719Y-139556952D01*
X141535719Y-139556952D02*
X141535719Y-139461714D01*
X141535719Y-139461714D02*
X141588100Y-139318857D01*
X141588100Y-139318857D02*
X141692861Y-139223619D01*
X141692861Y-139223619D02*
X141797623Y-139176000D01*
X141797623Y-139176000D02*
X142007147Y-139128381D01*
X142007147Y-139128381D02*
X142164290Y-139128381D01*
X142164290Y-139128381D02*
X142373814Y-139176000D01*
X142373814Y-139176000D02*
X142478576Y-139223619D01*
X142478576Y-139223619D02*
X142583338Y-139318857D01*
X142583338Y-139318857D02*
X142635719Y-139461714D01*
X142635719Y-139461714D02*
X142635719Y-139556952D01*
X142635719Y-139556952D02*
X142583338Y-139699809D01*
X142583338Y-139699809D02*
X142530957Y-139747428D01*
X141588100Y-140128381D02*
X141535719Y-140271238D01*
X141535719Y-140271238D02*
X141535719Y-140509333D01*
X141535719Y-140509333D02*
X141588100Y-140604571D01*
X141588100Y-140604571D02*
X141640480Y-140652190D01*
X141640480Y-140652190D02*
X141745242Y-140699809D01*
X141745242Y-140699809D02*
X141850004Y-140699809D01*
X141850004Y-140699809D02*
X141954766Y-140652190D01*
X141954766Y-140652190D02*
X142007147Y-140604571D01*
X142007147Y-140604571D02*
X142059528Y-140509333D01*
X142059528Y-140509333D02*
X142111909Y-140318857D01*
X142111909Y-140318857D02*
X142164290Y-140223619D01*
X142164290Y-140223619D02*
X142216671Y-140176000D01*
X142216671Y-140176000D02*
X142321433Y-140128381D01*
X142321433Y-140128381D02*
X142426195Y-140128381D01*
X142426195Y-140128381D02*
X142530957Y-140176000D01*
X142530957Y-140176000D02*
X142583338Y-140223619D01*
X142583338Y-140223619D02*
X142635719Y-140318857D01*
X142635719Y-140318857D02*
X142635719Y-140556952D01*
X142635719Y-140556952D02*
X142583338Y-140699809D01*
X191185895Y-125159419D02*
X191185895Y-125968942D01*
X191185895Y-125968942D02*
X191233514Y-126064180D01*
X191233514Y-126064180D02*
X191281133Y-126111800D01*
X191281133Y-126111800D02*
X191376371Y-126159419D01*
X191376371Y-126159419D02*
X191566847Y-126159419D01*
X191566847Y-126159419D02*
X191662085Y-126111800D01*
X191662085Y-126111800D02*
X191709704Y-126064180D01*
X191709704Y-126064180D02*
X191757323Y-125968942D01*
X191757323Y-125968942D02*
X191757323Y-125159419D01*
X192662085Y-125492752D02*
X192662085Y-126159419D01*
X192423990Y-125111800D02*
X192185895Y-125826085D01*
X192185895Y-125826085D02*
X192804942Y-125826085D01*
X191033291Y-139916675D02*
X191033291Y-140726416D01*
X191033291Y-140726416D02*
X191080922Y-140821680D01*
X191080922Y-140821680D02*
X191128554Y-140869312D01*
X191128554Y-140869312D02*
X191223818Y-140916943D01*
X191223818Y-140916943D02*
X191414345Y-140916943D01*
X191414345Y-140916943D02*
X191509609Y-140869312D01*
X191509609Y-140869312D02*
X191557240Y-140821680D01*
X191557240Y-140821680D02*
X191604872Y-140726416D01*
X191604872Y-140726416D02*
X191604872Y-139916675D01*
X191985927Y-139916675D02*
X192605140Y-139916675D01*
X192605140Y-139916675D02*
X192271718Y-140297730D01*
X192271718Y-140297730D02*
X192414613Y-140297730D01*
X192414613Y-140297730D02*
X192509877Y-140345362D01*
X192509877Y-140345362D02*
X192557509Y-140392993D01*
X192557509Y-140392993D02*
X192605140Y-140488257D01*
X192605140Y-140488257D02*
X192605140Y-140726416D01*
X192605140Y-140726416D02*
X192557509Y-140821680D01*
X192557509Y-140821680D02*
X192509877Y-140869312D01*
X192509877Y-140869312D02*
X192414613Y-140916943D01*
X192414613Y-140916943D02*
X192128822Y-140916943D01*
X192128822Y-140916943D02*
X192033559Y-140869312D01*
X192033559Y-140869312D02*
X191985927Y-140821680D01*
X205852733Y-153496180D02*
X205805114Y-153543800D01*
X205805114Y-153543800D02*
X205662257Y-153591419D01*
X205662257Y-153591419D02*
X205567019Y-153591419D01*
X205567019Y-153591419D02*
X205424162Y-153543800D01*
X205424162Y-153543800D02*
X205328924Y-153448561D01*
X205328924Y-153448561D02*
X205281305Y-153353323D01*
X205281305Y-153353323D02*
X205233686Y-153162847D01*
X205233686Y-153162847D02*
X205233686Y-153019990D01*
X205233686Y-153019990D02*
X205281305Y-152829514D01*
X205281305Y-152829514D02*
X205328924Y-152734276D01*
X205328924Y-152734276D02*
X205424162Y-152639038D01*
X205424162Y-152639038D02*
X205567019Y-152591419D01*
X205567019Y-152591419D02*
X205662257Y-152591419D01*
X205662257Y-152591419D02*
X205805114Y-152639038D01*
X205805114Y-152639038D02*
X205852733Y-152686657D01*
X206233686Y-152686657D02*
X206281305Y-152639038D01*
X206281305Y-152639038D02*
X206376543Y-152591419D01*
X206376543Y-152591419D02*
X206614638Y-152591419D01*
X206614638Y-152591419D02*
X206709876Y-152639038D01*
X206709876Y-152639038D02*
X206757495Y-152686657D01*
X206757495Y-152686657D02*
X206805114Y-152781895D01*
X206805114Y-152781895D02*
X206805114Y-152877133D01*
X206805114Y-152877133D02*
X206757495Y-153019990D01*
X206757495Y-153019990D02*
X206186067Y-153591419D01*
X206186067Y-153591419D02*
X206805114Y-153591419D01*
X201869833Y-150313580D02*
X201822214Y-150361200D01*
X201822214Y-150361200D02*
X201679357Y-150408819D01*
X201679357Y-150408819D02*
X201584119Y-150408819D01*
X201584119Y-150408819D02*
X201441262Y-150361200D01*
X201441262Y-150361200D02*
X201346024Y-150265961D01*
X201346024Y-150265961D02*
X201298405Y-150170723D01*
X201298405Y-150170723D02*
X201250786Y-149980247D01*
X201250786Y-149980247D02*
X201250786Y-149837390D01*
X201250786Y-149837390D02*
X201298405Y-149646914D01*
X201298405Y-149646914D02*
X201346024Y-149551676D01*
X201346024Y-149551676D02*
X201441262Y-149456438D01*
X201441262Y-149456438D02*
X201584119Y-149408819D01*
X201584119Y-149408819D02*
X201679357Y-149408819D01*
X201679357Y-149408819D02*
X201822214Y-149456438D01*
X201822214Y-149456438D02*
X201869833Y-149504057D01*
X202726976Y-149742152D02*
X202726976Y-150408819D01*
X202488881Y-149361200D02*
X202250786Y-150075485D01*
X202250786Y-150075485D02*
X202869833Y-150075485D01*
X217600305Y-131645819D02*
X217600305Y-130645819D01*
X217600305Y-130645819D02*
X217838400Y-130645819D01*
X217838400Y-130645819D02*
X217981257Y-130693438D01*
X217981257Y-130693438D02*
X218076495Y-130788676D01*
X218076495Y-130788676D02*
X218124114Y-130883914D01*
X218124114Y-130883914D02*
X218171733Y-131074390D01*
X218171733Y-131074390D02*
X218171733Y-131217247D01*
X218171733Y-131217247D02*
X218124114Y-131407723D01*
X218124114Y-131407723D02*
X218076495Y-131502961D01*
X218076495Y-131502961D02*
X217981257Y-131598200D01*
X217981257Y-131598200D02*
X217838400Y-131645819D01*
X217838400Y-131645819D02*
X217600305Y-131645819D01*
X219124114Y-131645819D02*
X218552686Y-131645819D01*
X218838400Y-131645819D02*
X218838400Y-130645819D01*
X218838400Y-130645819D02*
X218743162Y-130788676D01*
X218743162Y-130788676D02*
X218647924Y-130883914D01*
X218647924Y-130883914D02*
X218552686Y-130931533D01*
X123688666Y-72542819D02*
X123688666Y-73257104D01*
X123688666Y-73257104D02*
X123641047Y-73399961D01*
X123641047Y-73399961D02*
X123545809Y-73495200D01*
X123545809Y-73495200D02*
X123402952Y-73542819D01*
X123402952Y-73542819D02*
X123307714Y-73542819D01*
X124117238Y-72638057D02*
X124164857Y-72590438D01*
X124164857Y-72590438D02*
X124260095Y-72542819D01*
X124260095Y-72542819D02*
X124498190Y-72542819D01*
X124498190Y-72542819D02*
X124593428Y-72590438D01*
X124593428Y-72590438D02*
X124641047Y-72638057D01*
X124641047Y-72638057D02*
X124688666Y-72733295D01*
X124688666Y-72733295D02*
X124688666Y-72828533D01*
X124688666Y-72828533D02*
X124641047Y-72971390D01*
X124641047Y-72971390D02*
X124069619Y-73542819D01*
X124069619Y-73542819D02*
X124688666Y-73542819D01*
X205259166Y-149791009D02*
X204925833Y-149791009D01*
X204925833Y-150314819D02*
X204925833Y-149314819D01*
X204925833Y-149314819D02*
X205402023Y-149314819D01*
X205735357Y-149410057D02*
X205782976Y-149362438D01*
X205782976Y-149362438D02*
X205878214Y-149314819D01*
X205878214Y-149314819D02*
X206116309Y-149314819D01*
X206116309Y-149314819D02*
X206211547Y-149362438D01*
X206211547Y-149362438D02*
X206259166Y-149410057D01*
X206259166Y-149410057D02*
X206306785Y-149505295D01*
X206306785Y-149505295D02*
X206306785Y-149600533D01*
X206306785Y-149600533D02*
X206259166Y-149743390D01*
X206259166Y-149743390D02*
X205687738Y-150314819D01*
X205687738Y-150314819D02*
X206306785Y-150314819D01*
X202473333Y-138375580D02*
X202425714Y-138423200D01*
X202425714Y-138423200D02*
X202282857Y-138470819D01*
X202282857Y-138470819D02*
X202187619Y-138470819D01*
X202187619Y-138470819D02*
X202044762Y-138423200D01*
X202044762Y-138423200D02*
X201949524Y-138327961D01*
X201949524Y-138327961D02*
X201901905Y-138232723D01*
X201901905Y-138232723D02*
X201854286Y-138042247D01*
X201854286Y-138042247D02*
X201854286Y-137899390D01*
X201854286Y-137899390D02*
X201901905Y-137708914D01*
X201901905Y-137708914D02*
X201949524Y-137613676D01*
X201949524Y-137613676D02*
X202044762Y-137518438D01*
X202044762Y-137518438D02*
X202187619Y-137470819D01*
X202187619Y-137470819D02*
X202282857Y-137470819D01*
X202282857Y-137470819D02*
X202425714Y-137518438D01*
X202425714Y-137518438D02*
X202473333Y-137566057D01*
X202806667Y-137470819D02*
X203425714Y-137470819D01*
X203425714Y-137470819D02*
X203092381Y-137851771D01*
X203092381Y-137851771D02*
X203235238Y-137851771D01*
X203235238Y-137851771D02*
X203330476Y-137899390D01*
X203330476Y-137899390D02*
X203378095Y-137947009D01*
X203378095Y-137947009D02*
X203425714Y-138042247D01*
X203425714Y-138042247D02*
X203425714Y-138280342D01*
X203425714Y-138280342D02*
X203378095Y-138375580D01*
X203378095Y-138375580D02*
X203330476Y-138423200D01*
X203330476Y-138423200D02*
X203235238Y-138470819D01*
X203235238Y-138470819D02*
X202949524Y-138470819D01*
X202949524Y-138470819D02*
X202854286Y-138423200D01*
X202854286Y-138423200D02*
X202806667Y-138375580D01*
X121391619Y-98732933D02*
X122105904Y-98732933D01*
X122105904Y-98732933D02*
X122248761Y-98780552D01*
X122248761Y-98780552D02*
X122344000Y-98875790D01*
X122344000Y-98875790D02*
X122391619Y-99018647D01*
X122391619Y-99018647D02*
X122391619Y-99113885D01*
X121724952Y-97828171D02*
X122391619Y-97828171D01*
X121344000Y-98066266D02*
X122058285Y-98304361D01*
X122058285Y-98304361D02*
X122058285Y-97685314D01*
X119977612Y-121882463D02*
X120692173Y-121882463D01*
X120692173Y-121882463D02*
X120835086Y-121930100D01*
X120835086Y-121930100D02*
X120930361Y-122025375D01*
X120930361Y-122025375D02*
X120977998Y-122168287D01*
X120977998Y-122168287D02*
X120977998Y-122263562D01*
X119977612Y-121501363D02*
X119977612Y-120882077D01*
X119977612Y-120882077D02*
X120358711Y-121215539D01*
X120358711Y-121215539D02*
X120358711Y-121072626D01*
X120358711Y-121072626D02*
X120406349Y-120977352D01*
X120406349Y-120977352D02*
X120453986Y-120929714D01*
X120453986Y-120929714D02*
X120549261Y-120882077D01*
X120549261Y-120882077D02*
X120787448Y-120882077D01*
X120787448Y-120882077D02*
X120882723Y-120929714D01*
X120882723Y-120929714D02*
X120930361Y-120977352D01*
X120930361Y-120977352D02*
X120977998Y-121072626D01*
X120977998Y-121072626D02*
X120977998Y-121358451D01*
X120977998Y-121358451D02*
X120930361Y-121453726D01*
X120930361Y-121453726D02*
X120882723Y-121501363D01*
X121501819Y-142725733D02*
X122216104Y-142725733D01*
X122216104Y-142725733D02*
X122358961Y-142773352D01*
X122358961Y-142773352D02*
X122454200Y-142868590D01*
X122454200Y-142868590D02*
X122501819Y-143011447D01*
X122501819Y-143011447D02*
X122501819Y-143106685D01*
X121501819Y-141773352D02*
X121501819Y-142249542D01*
X121501819Y-142249542D02*
X121978009Y-142297161D01*
X121978009Y-142297161D02*
X121930390Y-142249542D01*
X121930390Y-142249542D02*
X121882771Y-142154304D01*
X121882771Y-142154304D02*
X121882771Y-141916209D01*
X121882771Y-141916209D02*
X121930390Y-141820971D01*
X121930390Y-141820971D02*
X121978009Y-141773352D01*
X121978009Y-141773352D02*
X122073247Y-141725733D01*
X122073247Y-141725733D02*
X122311342Y-141725733D01*
X122311342Y-141725733D02*
X122406580Y-141773352D01*
X122406580Y-141773352D02*
X122454200Y-141820971D01*
X122454200Y-141820971D02*
X122501819Y-141916209D01*
X122501819Y-141916209D02*
X122501819Y-142154304D01*
X122501819Y-142154304D02*
X122454200Y-142249542D01*
X122454200Y-142249542D02*
X122406580Y-142297161D01*
X218095533Y-127531019D02*
X217762200Y-127054828D01*
X217524105Y-127531019D02*
X217524105Y-126531019D01*
X217524105Y-126531019D02*
X217905057Y-126531019D01*
X217905057Y-126531019D02*
X218000295Y-126578638D01*
X218000295Y-126578638D02*
X218047914Y-126626257D01*
X218047914Y-126626257D02*
X218095533Y-126721495D01*
X218095533Y-126721495D02*
X218095533Y-126864352D01*
X218095533Y-126864352D02*
X218047914Y-126959590D01*
X218047914Y-126959590D02*
X218000295Y-127007209D01*
X218000295Y-127007209D02*
X217905057Y-127054828D01*
X217905057Y-127054828D02*
X217524105Y-127054828D01*
X219047914Y-127531019D02*
X218476486Y-127531019D01*
X218762200Y-127531019D02*
X218762200Y-126531019D01*
X218762200Y-126531019D02*
X218666962Y-126673876D01*
X218666962Y-126673876D02*
X218571724Y-126769114D01*
X218571724Y-126769114D02*
X218476486Y-126816733D01*
X211175695Y-146597019D02*
X211175695Y-147406542D01*
X211175695Y-147406542D02*
X211223314Y-147501780D01*
X211223314Y-147501780D02*
X211270933Y-147549400D01*
X211270933Y-147549400D02*
X211366171Y-147597019D01*
X211366171Y-147597019D02*
X211556647Y-147597019D01*
X211556647Y-147597019D02*
X211651885Y-147549400D01*
X211651885Y-147549400D02*
X211699504Y-147501780D01*
X211699504Y-147501780D02*
X211747123Y-147406542D01*
X211747123Y-147406542D02*
X211747123Y-146597019D01*
X212175695Y-146692257D02*
X212223314Y-146644638D01*
X212223314Y-146644638D02*
X212318552Y-146597019D01*
X212318552Y-146597019D02*
X212556647Y-146597019D01*
X212556647Y-146597019D02*
X212651885Y-146644638D01*
X212651885Y-146644638D02*
X212699504Y-146692257D01*
X212699504Y-146692257D02*
X212747123Y-146787495D01*
X212747123Y-146787495D02*
X212747123Y-146882733D01*
X212747123Y-146882733D02*
X212699504Y-147025590D01*
X212699504Y-147025590D02*
X212128076Y-147597019D01*
X212128076Y-147597019D02*
X212747123Y-147597019D01*
X208226066Y-117507609D02*
X207892733Y-117507609D01*
X207892733Y-118031419D02*
X207892733Y-117031419D01*
X207892733Y-117031419D02*
X208368923Y-117031419D01*
X209178447Y-117364752D02*
X209178447Y-118031419D01*
X208940352Y-116983800D02*
X208702257Y-117698085D01*
X208702257Y-117698085D02*
X209321304Y-117698085D01*
X227555419Y-104885533D02*
X228269704Y-104885533D01*
X228269704Y-104885533D02*
X228412561Y-104933152D01*
X228412561Y-104933152D02*
X228507800Y-105028390D01*
X228507800Y-105028390D02*
X228555419Y-105171247D01*
X228555419Y-105171247D02*
X228555419Y-105266485D01*
X227555419Y-104504580D02*
X227555419Y-103885533D01*
X227555419Y-103885533D02*
X227936371Y-104218866D01*
X227936371Y-104218866D02*
X227936371Y-104076009D01*
X227936371Y-104076009D02*
X227983990Y-103980771D01*
X227983990Y-103980771D02*
X228031609Y-103933152D01*
X228031609Y-103933152D02*
X228126847Y-103885533D01*
X228126847Y-103885533D02*
X228364942Y-103885533D01*
X228364942Y-103885533D02*
X228460180Y-103933152D01*
X228460180Y-103933152D02*
X228507800Y-103980771D01*
X228507800Y-103980771D02*
X228555419Y-104076009D01*
X228555419Y-104076009D02*
X228555419Y-104361723D01*
X228555419Y-104361723D02*
X228507800Y-104456961D01*
X228507800Y-104456961D02*
X228460180Y-104504580D01*
X227148819Y-134698333D02*
X227863104Y-134698333D01*
X227863104Y-134698333D02*
X228005961Y-134745952D01*
X228005961Y-134745952D02*
X228101200Y-134841190D01*
X228101200Y-134841190D02*
X228148819Y-134984047D01*
X228148819Y-134984047D02*
X228148819Y-135079285D01*
X228148819Y-133698333D02*
X228148819Y-134269761D01*
X228148819Y-133984047D02*
X227148819Y-133984047D01*
X227148819Y-133984047D02*
X227291676Y-134079285D01*
X227291676Y-134079285D02*
X227386914Y-134174523D01*
X227386914Y-134174523D02*
X227434533Y-134269761D01*
X209815133Y-127410380D02*
X209767514Y-127458000D01*
X209767514Y-127458000D02*
X209624657Y-127505619D01*
X209624657Y-127505619D02*
X209529419Y-127505619D01*
X209529419Y-127505619D02*
X209386562Y-127458000D01*
X209386562Y-127458000D02*
X209291324Y-127362761D01*
X209291324Y-127362761D02*
X209243705Y-127267523D01*
X209243705Y-127267523D02*
X209196086Y-127077047D01*
X209196086Y-127077047D02*
X209196086Y-126934190D01*
X209196086Y-126934190D02*
X209243705Y-126743714D01*
X209243705Y-126743714D02*
X209291324Y-126648476D01*
X209291324Y-126648476D02*
X209386562Y-126553238D01*
X209386562Y-126553238D02*
X209529419Y-126505619D01*
X209529419Y-126505619D02*
X209624657Y-126505619D01*
X209624657Y-126505619D02*
X209767514Y-126553238D01*
X209767514Y-126553238D02*
X209815133Y-126600857D01*
X210672276Y-126838952D02*
X210672276Y-127505619D01*
X210434181Y-126458000D02*
X210196086Y-127172285D01*
X210196086Y-127172285D02*
X210815133Y-127172285D01*
X205862666Y-137878409D02*
X205529333Y-137878409D01*
X205529333Y-138402219D02*
X205529333Y-137402219D01*
X205529333Y-137402219D02*
X206005523Y-137402219D01*
X206910285Y-138402219D02*
X206338857Y-138402219D01*
X206624571Y-138402219D02*
X206624571Y-137402219D01*
X206624571Y-137402219D02*
X206529333Y-137545076D01*
X206529333Y-137545076D02*
X206434095Y-137640314D01*
X206434095Y-137640314D02*
X206338857Y-137687933D01*
X206513133Y-141405780D02*
X206465514Y-141453400D01*
X206465514Y-141453400D02*
X206322657Y-141501019D01*
X206322657Y-141501019D02*
X206227419Y-141501019D01*
X206227419Y-141501019D02*
X206084562Y-141453400D01*
X206084562Y-141453400D02*
X205989324Y-141358161D01*
X205989324Y-141358161D02*
X205941705Y-141262923D01*
X205941705Y-141262923D02*
X205894086Y-141072447D01*
X205894086Y-141072447D02*
X205894086Y-140929590D01*
X205894086Y-140929590D02*
X205941705Y-140739114D01*
X205941705Y-140739114D02*
X205989324Y-140643876D01*
X205989324Y-140643876D02*
X206084562Y-140548638D01*
X206084562Y-140548638D02*
X206227419Y-140501019D01*
X206227419Y-140501019D02*
X206322657Y-140501019D01*
X206322657Y-140501019D02*
X206465514Y-140548638D01*
X206465514Y-140548638D02*
X206513133Y-140596257D01*
X207465514Y-141501019D02*
X206894086Y-141501019D01*
X207179800Y-141501019D02*
X207179800Y-140501019D01*
X207179800Y-140501019D02*
X207084562Y-140643876D01*
X207084562Y-140643876D02*
X206989324Y-140739114D01*
X206989324Y-140739114D02*
X206894086Y-140786733D01*
X211709095Y-134582819D02*
X211709095Y-135392342D01*
X211709095Y-135392342D02*
X211756714Y-135487580D01*
X211756714Y-135487580D02*
X211804333Y-135535200D01*
X211804333Y-135535200D02*
X211899571Y-135582819D01*
X211899571Y-135582819D02*
X212090047Y-135582819D01*
X212090047Y-135582819D02*
X212185285Y-135535200D01*
X212185285Y-135535200D02*
X212232904Y-135487580D01*
X212232904Y-135487580D02*
X212280523Y-135392342D01*
X212280523Y-135392342D02*
X212280523Y-134582819D01*
X213280523Y-135582819D02*
X212709095Y-135582819D01*
X212994809Y-135582819D02*
X212994809Y-134582819D01*
X212994809Y-134582819D02*
X212899571Y-134725676D01*
X212899571Y-134725676D02*
X212804333Y-134820914D01*
X212804333Y-134820914D02*
X212709095Y-134868533D01*
X185086666Y-124124819D02*
X185086666Y-124839104D01*
X185086666Y-124839104D02*
X185039047Y-124981961D01*
X185039047Y-124981961D02*
X184943809Y-125077200D01*
X184943809Y-125077200D02*
X184800952Y-125124819D01*
X184800952Y-125124819D02*
X184705714Y-125124819D01*
X186086666Y-125124819D02*
X185515238Y-125124819D01*
X185800952Y-125124819D02*
X185800952Y-124124819D01*
X185800952Y-124124819D02*
X185705714Y-124267676D01*
X185705714Y-124267676D02*
X185610476Y-124362914D01*
X185610476Y-124362914D02*
X185515238Y-124410533D01*
X219582366Y-117500809D02*
X219249033Y-117500809D01*
X219249033Y-118024619D02*
X219249033Y-117024619D01*
X219249033Y-117024619D02*
X219725223Y-117024619D01*
X220629985Y-118024619D02*
X220058557Y-118024619D01*
X220344271Y-118024619D02*
X220344271Y-117024619D01*
X220344271Y-117024619D02*
X220249033Y-117167476D01*
X220249033Y-117167476D02*
X220153795Y-117262714D01*
X220153795Y-117262714D02*
X220058557Y-117310333D01*
D11*
%TO.C,U4*%
X188024000Y-118412000D02*
X196024000Y-118412000D01*
X188024000Y-124412000D02*
X196024000Y-124412000D01*
D12*
X186969000Y-119507000D02*
G75*
G03*
X186969000Y-119507000I-100000J0D01*
G01*
D13*
%TO.C,U3*%
X191135000Y-139192000D02*
X189814200Y-139192000D01*
D14*
X193370200Y-139192000D02*
X193370200Y-129032000D01*
D13*
X193725800Y-139192000D02*
X192405000Y-139192000D01*
X193725800Y-139192000D02*
X193725800Y-129032000D01*
X189814200Y-129032000D02*
X189814200Y-139192000D01*
X193725800Y-129032000D02*
X189814200Y-129032000D01*
X192405000Y-139192000D02*
G75*
G03*
X191135000Y-139192000I-635000J0D01*
G01*
D15*
%TO.C,C2*%
X205590500Y-155588580D02*
X205590500Y-155307420D01*
X206610500Y-155588580D02*
X206610500Y-155307420D01*
%TO.C,C4*%
X201895920Y-150874000D02*
X202177080Y-150874000D01*
X201895920Y-151894000D02*
X202177080Y-151894000D01*
%TO.C,D1*%
X217394500Y-129408000D02*
X215924500Y-129408000D01*
X215924500Y-129408000D02*
X215924500Y-131693000D01*
X217394500Y-131693000D02*
X217394500Y-129408000D01*
D12*
%TO.C,J2*%
X120947000Y-74423000D02*
X209947000Y-74423000D01*
X120947000Y-77723000D02*
X120947000Y-74423000D01*
X120947000Y-83033000D02*
X120947000Y-81123000D01*
X122897000Y-83033000D02*
X120947000Y-83033000D01*
X209947000Y-74423000D02*
X209947000Y-83033000D01*
X209947000Y-83033000D02*
X207297000Y-83033000D01*
X210797000Y-80523000D02*
G75*
G03*
X210797000Y-80523000I-100000J0D01*
G01*
D15*
%TO.C,F2*%
X205755279Y-151894000D02*
X205429721Y-151894000D01*
X205755279Y-150874000D02*
X205429721Y-150874000D01*
%TO.C,C3*%
X202499420Y-138936000D02*
X202780580Y-138936000D01*
X202499420Y-139956000D02*
X202780580Y-139956000D01*
%TO.C,J4*%
X122936800Y-99729600D02*
X122936800Y-98399600D01*
X124266800Y-99729600D02*
X122936800Y-99729600D01*
X125536800Y-99729600D02*
X171316800Y-99729600D01*
X125536800Y-99729600D02*
X125536800Y-97069600D01*
X171316800Y-99729600D02*
X171316800Y-97069600D01*
X125536800Y-97069600D02*
X171316800Y-97069600D01*
D11*
%TO.C,J3*%
X177391000Y-107091001D02*
X177391000Y-134991001D01*
X122991000Y-107091001D02*
X177391000Y-107091001D01*
X177391000Y-134991001D02*
X122991000Y-134991001D01*
X122991000Y-134991001D02*
X122991000Y-107091001D01*
D15*
%TO.C,J5*%
X171373000Y-141291000D02*
X171373000Y-142621000D01*
X170043000Y-141291000D02*
X171373000Y-141291000D01*
X168773000Y-141291000D02*
X122993000Y-141291000D01*
X168773000Y-141291000D02*
X168773000Y-143951000D01*
X122993000Y-141291000D02*
X122993000Y-143951000D01*
X168773000Y-143951000D02*
X122993000Y-143951000D01*
%TO.C,R1*%
X217182000Y-126845742D02*
X217182000Y-127320258D01*
X216137000Y-126845742D02*
X216137000Y-127320258D01*
D12*
%TO.C,U2*%
X210288000Y-148134000D02*
X213788000Y-148134000D01*
X213788000Y-148134000D02*
X213788000Y-149284000D01*
X213788000Y-153484000D02*
X213788000Y-154634000D01*
X213788000Y-154634000D02*
X210288000Y-154634000D01*
X207038000Y-149084000D02*
G75*
G03*
X207038000Y-149084000I-100000J0D01*
G01*
D15*
%TO.C,F4*%
X210481252Y-123911000D02*
X206073748Y-123911000D01*
X210481252Y-118571000D02*
X206073748Y-118571000D01*
D11*
%TO.C,J3*%
X234035600Y-109227200D02*
X234035600Y-108227200D01*
X233535600Y-108727200D02*
X234535600Y-108727200D01*
X229985600Y-107477200D02*
X229985600Y-94777200D01*
X238085600Y-107477200D02*
X229985600Y-107477200D01*
X229985600Y-94777200D02*
X232435600Y-91977200D01*
X238085600Y-94777200D02*
X238085600Y-107477200D01*
X232435600Y-91977200D02*
X235635600Y-91977200D01*
X235635600Y-91977200D02*
X238085600Y-94777200D01*
X234035600Y-91227200D02*
X234035600Y-90227200D01*
D15*
%TO.C,J1*%
X239184000Y-149350000D02*
X239184000Y-119350000D01*
X228684000Y-119350000D02*
X228684000Y-149350000D01*
X228684000Y-149350000D02*
G75*
G03*
X239184000Y-149350000I5250000J0D01*
G01*
X239184000Y-119350000D02*
G75*
G03*
X228684000Y-119350000I-5250000J0D01*
G01*
%TO.C,C4*%
X211323500Y-127223580D02*
X211323500Y-126942420D01*
X212343500Y-127223580D02*
X212343500Y-126942420D01*
%TO.C,F1*%
X206358779Y-139956000D02*
X206033221Y-139956000D01*
X206358779Y-138936000D02*
X206033221Y-138936000D01*
%TO.C,C1*%
X206194000Y-143396580D02*
X206194000Y-143115420D01*
X207214000Y-143396580D02*
X207214000Y-143115420D01*
D12*
%TO.C,U1*%
X210796000Y-136196000D02*
X214296000Y-136196000D01*
X214296000Y-136196000D02*
X214296000Y-137346000D01*
X214296000Y-141546000D02*
X214296000Y-142696000D01*
X214296000Y-142696000D02*
X210796000Y-142696000D01*
X207546000Y-137146000D02*
G75*
G03*
X207546000Y-137146000I-100000J0D01*
G01*
D15*
%TO.C,J1*%
X184090000Y-125670000D02*
X185420000Y-125670000D01*
X184090000Y-127000000D02*
X184090000Y-125670000D01*
X184090000Y-128270000D02*
X184090000Y-130870000D01*
X184090000Y-128270000D02*
X186750000Y-128270000D01*
X184090000Y-130870000D02*
X186750000Y-130870000D01*
X186750000Y-128270000D02*
X186750000Y-130870000D01*
%TO.C,F1*%
X222574152Y-123878800D02*
X218166648Y-123878800D01*
X222574152Y-118538800D02*
X218166648Y-118538800D01*
%TD*%
M02*
