%TF.GenerationSoftware,KiCad,Pcbnew,7.0.7*%
%TF.CreationDate,2024-03-26T11:25:22-07:00*%
%TF.ProjectId,Core-board,436f7265-2d62-46f6-9172-642e6b696361,rev?*%
%TF.SameCoordinates,Original*%
%TF.FileFunction,Profile,NP*%
%FSLAX46Y46*%
G04 Gerber Fmt 4.6, Leading zero omitted, Abs format (unit mm)*
G04 Created by KiCad (PCBNEW 7.0.7) date 2024-03-26 11:25:22*
%MOMM*%
%LPD*%
G01*
G04 APERTURE LIST*
%TA.AperFunction,Profile*%
%ADD10C,0.250000*%
%TD*%
G04 APERTURE END LIST*
D10*
%TO.C,J1*%
X62184214Y-83885860D02*
G75*
G03*
X62184214Y-94438838I3052846J-5276489D01*
G01*
X68229293Y-102710929D02*
G75*
G03*
X62184214Y-94438839I-12405170J-2720595D01*
G01*
X62184214Y-83885859D02*
G75*
G03*
X68229293Y-75613769I-6360091J10992685D01*
G01*
X69731654Y-70006880D02*
G75*
G03*
X68229293Y-75613769I60274354J-19155183D01*
G01*
X69731653Y-70006880D02*
G75*
G03*
X68632507Y-59820501I-12103488J3846481D01*
G01*
X73908998Y-50681353D02*
G75*
G03*
X68632508Y-59820501I5596J-6095996D01*
G01*
X73908998Y-50681352D02*
G75*
G03*
X83280234Y-46540051I-11661J12699994D01*
G01*
X87384762Y-42435523D02*
G75*
G03*
X83280234Y-46540051I42622962J-46727490D01*
G01*
X68229294Y-102710929D02*
G75*
G03*
X87384762Y-135889175I61777764J13548578D01*
G01*
X91526063Y-145260411D02*
G75*
G03*
X87384762Y-135889175I-12699994J-11661D01*
G01*
X87384762Y-42435523D02*
G75*
G03*
X91526063Y-33064287I-8558693J9382897D01*
G01*
X100665212Y-27787797D02*
G75*
G03*
X91526064Y-33064287I-3043152J-5282086D01*
G01*
X91526064Y-145260411D02*
G75*
G03*
X100665212Y-150536901I6095996J5596D01*
G01*
X110851591Y-149437756D02*
G75*
G03*
X100665212Y-150536902I-3846481J-12103488D01*
G01*
X100665212Y-27787796D02*
G75*
G03*
X110851591Y-28886942I6339898J11004342D01*
G01*
X149162529Y-28886944D02*
G75*
G03*
X110851591Y-28886944I-19155469J-60275413D01*
G01*
X110851591Y-149437755D02*
G75*
G03*
X116458480Y-150940116I19155183J60274354D01*
G01*
X124730570Y-156985195D02*
G75*
G03*
X116458480Y-150940116I-10992685J-6360091D01*
G01*
X124730571Y-156985195D02*
G75*
G03*
X135283549Y-156985195I5276489J3052846D01*
G01*
X143555640Y-150940116D02*
G75*
G03*
X135283550Y-156985195I2720590J-12405163D01*
G01*
X143555640Y-150940115D02*
G75*
G03*
X149162529Y-149437754I-13548595J61777837D01*
G01*
X159348905Y-150536907D02*
G75*
G03*
X149162529Y-149437755I-6339905J-11004362D01*
G01*
X149162530Y-28886940D02*
G75*
G03*
X159348908Y-27787797I3846490J12103431D01*
G01*
X168488052Y-33064287D02*
G75*
G03*
X159348908Y-27787798I-6095992J-5592D01*
G01*
X159348907Y-150536902D02*
G75*
G03*
X168488056Y-145260411I3043183J5282033D01*
G01*
X172629359Y-135889176D02*
G75*
G03*
X168488057Y-145260411I8558591J-9382853D01*
G01*
X168488055Y-33064287D02*
G75*
G03*
X172629358Y-42435523I12700005J11668D01*
G01*
X176733886Y-46540051D02*
G75*
G03*
X172629358Y-42435523I-46727490J-42622962D01*
G01*
X176733887Y-46540050D02*
G75*
G03*
X186105122Y-50681352I9382853J8558591D01*
G01*
X191381639Y-59820516D02*
G75*
G03*
X186105122Y-50681352I-5281939J3043247D01*
G01*
X191381612Y-59820501D02*
G75*
G03*
X190282466Y-70006880I11004348J-6339898D01*
G01*
X191784826Y-75613769D02*
G75*
G03*
X190282465Y-70006880I-61777837J-13548595D01*
G01*
X172629358Y-135889175D02*
G75*
G03*
X191784826Y-102710929I-42622296J46726824D01*
G01*
X197829906Y-94438840D02*
G75*
G03*
X191784827Y-102710929I6360234J-10992789D01*
G01*
X191784825Y-75613769D02*
G75*
G03*
X197829906Y-83885859I12405175J2720600D01*
G01*
X197829906Y-94438838D02*
G75*
G03*
X197829906Y-83885860I-3052846J5276489D01*
G01*
X67142060Y-89162349D02*
G75*
G03*
X67142060Y-89162349I-1905000J0D01*
G01*
X75819595Y-56777349D02*
G75*
G03*
X75819595Y-56777349I-1905000J0D01*
G01*
X99527060Y-33069884D02*
G75*
G03*
X99527060Y-33069884I-1905000J0D01*
G01*
X99527060Y-145254814D02*
G75*
G03*
X99527060Y-145254814I-1905000J0D01*
G01*
X131912060Y-153932349D02*
G75*
G03*
X131912060Y-153932349I-1905000J0D01*
G01*
X164297060Y-33069884D02*
G75*
G03*
X164297060Y-33069884I-1905000J0D01*
G01*
X164297060Y-145254814D02*
G75*
G03*
X164297060Y-145254814I-1905000J0D01*
G01*
X188004525Y-56777349D02*
G75*
G03*
X188004525Y-56777349I-1905000J0D01*
G01*
X196682060Y-89162349D02*
G75*
G03*
X196682060Y-89162349I-1905000J0D01*
G01*
%TD*%
M02*
