%TF.GenerationSoftware,KiCad,Pcbnew,7.0.7*%
%TF.CreationDate,2024-04-13T21:05:36-07:00*%
%TF.ProjectId,SD-Breakout,53442d42-7265-4616-9b6f-75742e6b6963,rev?*%
%TF.SameCoordinates,Original*%
%TF.FileFunction,Copper,L2,Bot*%
%TF.FilePolarity,Positive*%
%FSLAX46Y46*%
G04 Gerber Fmt 4.6, Leading zero omitted, Abs format (unit mm)*
G04 Created by KiCad (PCBNEW 7.0.7) date 2024-04-13 21:05:36*
%MOMM*%
%LPD*%
G01*
G04 APERTURE LIST*
%TA.AperFunction,ComponentPad*%
%ADD10R,1.700000X1.700000*%
%TD*%
%TA.AperFunction,ComponentPad*%
%ADD11O,1.700000X1.700000*%
%TD*%
%TA.AperFunction,Conductor*%
%ADD12C,0.250000*%
%TD*%
%TA.AperFunction,Conductor*%
%ADD13C,0.508000*%
%TD*%
G04 APERTURE END LIST*
D10*
%TO.P,J2,1,Pin_1*%
%TO.N,/3.3V*%
X147574000Y-73660000D03*
D11*
%TO.P,J2,2,Pin_2*%
%TO.N,unconnected-(J2-Pin_2-Pad2)*%
X147574000Y-71120000D03*
%TO.P,J2,3,Pin_3*%
%TO.N,GND*%
X147574000Y-68580000D03*
%TO.P,J2,4,Pin_4*%
%TO.N,/CLK*%
X147574000Y-66040000D03*
%TO.P,J2,5,Pin_5*%
%TO.N,/MISO*%
X147574000Y-63500000D03*
%TO.P,J2,6,Pin_6*%
%TO.N,/MOSI*%
X147574000Y-60960000D03*
%TO.P,J2,7,Pin_7*%
%TO.N,/CS*%
X147574000Y-58420000D03*
%TD*%
D10*
%TO.P,J1,1,Pin_1*%
%TO.N,/MOSI*%
X122350000Y-58420000D03*
D11*
%TO.P,J1,2,Pin_2*%
%TO.N,/MISO*%
X122350000Y-60960000D03*
%TO.P,J1,3,Pin_3*%
%TO.N,/CLK*%
X122350000Y-63500000D03*
%TO.P,J1,4,Pin_4*%
%TO.N,/CS*%
X122350000Y-66040000D03*
%TO.P,J1,5,Pin_5*%
%TO.N,/3.3V*%
X122350000Y-68580000D03*
%TO.P,J1,6,Pin_6*%
%TO.N,GND*%
X122350000Y-71120000D03*
%TD*%
D12*
%TO.N,/CS*%
X122350000Y-66040000D02*
X139954000Y-66040000D01*
X139954000Y-66040000D02*
X147574000Y-58420000D01*
D13*
%TO.N,/3.3V*%
X142494000Y-68580000D02*
X147574000Y-73660000D01*
X122350000Y-68580000D02*
X142494000Y-68580000D01*
%TD*%
%TA.AperFunction,Conductor*%
%TO.N,GND*%
G36*
X146137675Y-60843428D02*
G01*
X146193608Y-60885300D01*
X146218025Y-60950764D01*
X146218341Y-60959610D01*
X146218341Y-60960000D01*
X146238936Y-61195403D01*
X146238938Y-61195413D01*
X146300094Y-61423655D01*
X146300096Y-61423659D01*
X146300097Y-61423663D01*
X146399965Y-61637830D01*
X146399967Y-61637834D01*
X146535501Y-61831395D01*
X146535506Y-61831402D01*
X146702597Y-61998493D01*
X146702603Y-61998498D01*
X146888158Y-62128425D01*
X146931783Y-62183002D01*
X146938977Y-62252500D01*
X146907454Y-62314855D01*
X146888158Y-62331575D01*
X146702597Y-62461505D01*
X146535505Y-62628597D01*
X146399965Y-62822169D01*
X146399964Y-62822171D01*
X146300098Y-63036335D01*
X146300094Y-63036344D01*
X146238938Y-63264586D01*
X146238936Y-63264596D01*
X146218341Y-63499999D01*
X146218341Y-63500000D01*
X146238936Y-63735403D01*
X146238938Y-63735413D01*
X146300094Y-63963655D01*
X146300096Y-63963659D01*
X146300097Y-63963663D01*
X146399964Y-64177830D01*
X146399965Y-64177830D01*
X146399967Y-64177834D01*
X146535501Y-64371395D01*
X146535506Y-64371402D01*
X146702597Y-64538493D01*
X146702603Y-64538498D01*
X146888158Y-64668425D01*
X146931783Y-64723002D01*
X146938977Y-64792500D01*
X146907454Y-64854855D01*
X146888158Y-64871575D01*
X146702597Y-65001505D01*
X146535505Y-65168597D01*
X146399965Y-65362169D01*
X146399964Y-65362171D01*
X146300098Y-65576335D01*
X146300094Y-65576344D01*
X146238938Y-65804586D01*
X146238936Y-65804596D01*
X146218341Y-66039999D01*
X146218341Y-66040000D01*
X146238936Y-66275403D01*
X146238938Y-66275413D01*
X146300094Y-66503655D01*
X146300096Y-66503659D01*
X146300097Y-66503663D01*
X146346630Y-66603453D01*
X146399965Y-66717830D01*
X146399967Y-66717834D01*
X146508281Y-66872521D01*
X146535501Y-66911396D01*
X146535506Y-66911402D01*
X146702597Y-67078493D01*
X146702603Y-67078498D01*
X146888594Y-67208730D01*
X146932219Y-67263307D01*
X146939413Y-67332805D01*
X146907890Y-67395160D01*
X146888595Y-67411880D01*
X146702922Y-67541890D01*
X146702920Y-67541891D01*
X146535891Y-67708920D01*
X146535886Y-67708926D01*
X146400400Y-67902420D01*
X146400399Y-67902422D01*
X146300570Y-68116507D01*
X146300567Y-68116513D01*
X146243364Y-68329999D01*
X146243364Y-68330000D01*
X146960653Y-68330000D01*
X147027692Y-68349685D01*
X147073447Y-68402489D01*
X147083391Y-68471647D01*
X147079631Y-68488933D01*
X147074000Y-68508111D01*
X147074000Y-68651888D01*
X147079631Y-68671067D01*
X147079630Y-68740936D01*
X147041855Y-68799714D01*
X146978299Y-68828738D01*
X146960653Y-68830000D01*
X146243364Y-68830000D01*
X146300567Y-69043486D01*
X146300570Y-69043492D01*
X146400399Y-69257578D01*
X146535894Y-69451082D01*
X146702917Y-69618105D01*
X146888595Y-69748119D01*
X146932219Y-69802696D01*
X146939412Y-69872195D01*
X146907890Y-69934549D01*
X146888595Y-69951269D01*
X146702594Y-70081508D01*
X146535505Y-70248597D01*
X146399965Y-70442169D01*
X146399964Y-70442171D01*
X146300098Y-70656335D01*
X146300094Y-70656344D01*
X146238938Y-70884586D01*
X146238936Y-70884596D01*
X146232079Y-70962973D01*
X146206626Y-71028042D01*
X146150035Y-71069020D01*
X146080273Y-71072898D01*
X146020870Y-71039846D01*
X143072766Y-68091742D01*
X143060984Y-68078109D01*
X143057604Y-68073569D01*
X143046539Y-68058706D01*
X143046537Y-68058704D01*
X143046538Y-68058704D01*
X143018932Y-68035541D01*
X143006285Y-68024928D01*
X143002310Y-68021286D01*
X142996441Y-68015417D01*
X142996440Y-68015416D01*
X142996438Y-68015414D01*
X142970584Y-67994972D01*
X142911427Y-67945333D01*
X142905394Y-67941365D01*
X142905422Y-67941321D01*
X142898961Y-67937204D01*
X142898934Y-67937250D01*
X142892790Y-67933460D01*
X142822808Y-67900827D01*
X142753815Y-67866177D01*
X142747031Y-67863708D01*
X142747049Y-67863658D01*
X142739807Y-67861141D01*
X142739791Y-67861191D01*
X142732938Y-67858920D01*
X142657311Y-67843304D01*
X142582181Y-67825498D01*
X142575014Y-67824661D01*
X142575020Y-67824607D01*
X142567405Y-67823829D01*
X142567401Y-67823883D01*
X142560210Y-67823253D01*
X142483018Y-67825500D01*
X123534901Y-67825500D01*
X123467862Y-67805815D01*
X123433326Y-67772624D01*
X123426128Y-67762345D01*
X123388495Y-67708599D01*
X123221401Y-67541505D01*
X123221399Y-67541504D01*
X123221396Y-67541501D01*
X123035842Y-67411575D01*
X122992217Y-67356998D01*
X122985023Y-67287500D01*
X123016546Y-67225145D01*
X123035842Y-67208425D01*
X123058026Y-67192891D01*
X123221401Y-67078495D01*
X123388495Y-66911401D01*
X123523651Y-66718377D01*
X123578229Y-66674752D01*
X123625227Y-66665500D01*
X139871257Y-66665500D01*
X139886877Y-66667224D01*
X139886904Y-66666939D01*
X139894660Y-66667671D01*
X139894667Y-66667673D01*
X139963814Y-66665500D01*
X139993350Y-66665500D01*
X140000228Y-66664630D01*
X140006041Y-66664172D01*
X140052627Y-66662709D01*
X140071869Y-66657117D01*
X140090912Y-66653174D01*
X140110792Y-66650664D01*
X140154122Y-66633507D01*
X140159646Y-66631617D01*
X140163396Y-66630527D01*
X140204390Y-66618618D01*
X140221629Y-66608422D01*
X140239103Y-66599862D01*
X140257727Y-66592488D01*
X140257727Y-66592487D01*
X140257732Y-66592486D01*
X140295449Y-66565082D01*
X140300305Y-66561892D01*
X140340420Y-66538170D01*
X140354589Y-66523999D01*
X140369379Y-66511368D01*
X140385587Y-66499594D01*
X140415299Y-66463676D01*
X140419212Y-66459376D01*
X146006662Y-60871927D01*
X146067983Y-60838444D01*
X146137675Y-60843428D01*
G37*
%TD.AperFunction*%
%TA.AperFunction,Conductor*%
G36*
X152700302Y-54059158D02*
G01*
X152743055Y-54062897D01*
X152872306Y-54075626D01*
X152892229Y-54079250D01*
X152959813Y-54097358D01*
X153054962Y-54126220D01*
X153071367Y-54132497D01*
X153139817Y-54164415D01*
X153142834Y-54165923D01*
X153228395Y-54211655D01*
X153234714Y-54215537D01*
X153301881Y-54262568D01*
X153305635Y-54265415D01*
X153358751Y-54309006D01*
X153379233Y-54325815D01*
X153383733Y-54329893D01*
X153442104Y-54388264D01*
X153446183Y-54392765D01*
X153506573Y-54466350D01*
X153509435Y-54470123D01*
X153556456Y-54537276D01*
X153560348Y-54543612D01*
X153606071Y-54629156D01*
X153607583Y-54632181D01*
X153639501Y-54700631D01*
X153645779Y-54717038D01*
X153674642Y-54812188D01*
X153692746Y-54879762D01*
X153696373Y-54899698D01*
X153709099Y-55028925D01*
X153712837Y-55071650D01*
X153713073Y-55077185D01*
X153669607Y-75894289D01*
X153669500Y-75894650D01*
X153669500Y-75943601D01*
X153669315Y-75948389D01*
X153667013Y-75978119D01*
X153650575Y-76154877D01*
X153649181Y-76163391D01*
X153631227Y-76239447D01*
X153630502Y-76242229D01*
X153595078Y-76366262D01*
X153592890Y-76372605D01*
X153560568Y-76452052D01*
X153558592Y-76456417D01*
X153503487Y-76566628D01*
X153501180Y-76570828D01*
X153457021Y-76644342D01*
X153453261Y-76649898D01*
X153375274Y-76752677D01*
X153373483Y-76754926D01*
X153323430Y-76814900D01*
X153317456Y-76821123D01*
X153197990Y-76929383D01*
X153135096Y-76959814D01*
X153114724Y-76961499D01*
X117604705Y-76961499D01*
X117599303Y-76961263D01*
X117572473Y-76958916D01*
X117556484Y-76957517D01*
X117427282Y-76944791D01*
X117407344Y-76941163D01*
X117339758Y-76923054D01*
X117244624Y-76894196D01*
X117228215Y-76887917D01*
X117183632Y-76867128D01*
X117159751Y-76855992D01*
X117156737Y-76854485D01*
X117071196Y-76808762D01*
X117064862Y-76804871D01*
X116997707Y-76757849D01*
X116993942Y-76754992D01*
X116920346Y-76694593D01*
X116915845Y-76690514D01*
X116857483Y-76632152D01*
X116853405Y-76627652D01*
X116793002Y-76554051D01*
X116790156Y-76550300D01*
X116743122Y-76483128D01*
X116739242Y-76476812D01*
X116693498Y-76391232D01*
X116692021Y-76388278D01*
X116660079Y-76319778D01*
X116653806Y-76303384D01*
X116624945Y-76208241D01*
X116624662Y-76207185D01*
X116606834Y-76140649D01*
X116603208Y-76120724D01*
X116590482Y-75991516D01*
X116586733Y-75948670D01*
X116586500Y-75943317D01*
X116586500Y-68580000D01*
X120994341Y-68580000D01*
X121014936Y-68815403D01*
X121014938Y-68815413D01*
X121076094Y-69043655D01*
X121076096Y-69043659D01*
X121076097Y-69043663D01*
X121175847Y-69257578D01*
X121175965Y-69257830D01*
X121175967Y-69257834D01*
X121255081Y-69370819D01*
X121311504Y-69451400D01*
X121311506Y-69451402D01*
X121478597Y-69618493D01*
X121478603Y-69618498D01*
X121664594Y-69748730D01*
X121708219Y-69803307D01*
X121715413Y-69872805D01*
X121683890Y-69935160D01*
X121664595Y-69951880D01*
X121478922Y-70081890D01*
X121478920Y-70081891D01*
X121311891Y-70248920D01*
X121311886Y-70248926D01*
X121176400Y-70442420D01*
X121176399Y-70442422D01*
X121076570Y-70656507D01*
X121076567Y-70656513D01*
X121019364Y-70869999D01*
X121019364Y-70870000D01*
X121736653Y-70870000D01*
X121803692Y-70889685D01*
X121849447Y-70942489D01*
X121859391Y-71011647D01*
X121855631Y-71028933D01*
X121850000Y-71048111D01*
X121850000Y-71191888D01*
X121855631Y-71211067D01*
X121855630Y-71280936D01*
X121817855Y-71339714D01*
X121754299Y-71368738D01*
X121736653Y-71370000D01*
X121019364Y-71370000D01*
X121076567Y-71583486D01*
X121076570Y-71583492D01*
X121176399Y-71797578D01*
X121311894Y-71991082D01*
X121478917Y-72158105D01*
X121672421Y-72293600D01*
X121886507Y-72393429D01*
X121886516Y-72393433D01*
X122099998Y-72450635D01*
X122099998Y-71732300D01*
X122119682Y-71665261D01*
X122172486Y-71619506D01*
X122241642Y-71609562D01*
X122314237Y-71620000D01*
X122314240Y-71620000D01*
X122385762Y-71620000D01*
X122385763Y-71620000D01*
X122458353Y-71609563D01*
X122527512Y-71619507D01*
X122580315Y-71665262D01*
X122600000Y-71732301D01*
X122599999Y-72450633D01*
X122813483Y-72393433D01*
X122813492Y-72393429D01*
X123027578Y-72293600D01*
X123221082Y-72158105D01*
X123388105Y-71991082D01*
X123523600Y-71797578D01*
X123623429Y-71583492D01*
X123623432Y-71583486D01*
X123680636Y-71370000D01*
X122963347Y-71370000D01*
X122896308Y-71350315D01*
X122850553Y-71297511D01*
X122840609Y-71228353D01*
X122844369Y-71211067D01*
X122850000Y-71191888D01*
X122850000Y-71048111D01*
X122844369Y-71028933D01*
X122844370Y-70959064D01*
X122882145Y-70900286D01*
X122945701Y-70871262D01*
X122963347Y-70870000D01*
X123680636Y-70870000D01*
X123680635Y-70869999D01*
X123623432Y-70656513D01*
X123623429Y-70656507D01*
X123523600Y-70442422D01*
X123523599Y-70442420D01*
X123388113Y-70248926D01*
X123388108Y-70248920D01*
X123221078Y-70081890D01*
X123035405Y-69951879D01*
X122991780Y-69897302D01*
X122984588Y-69827804D01*
X123016110Y-69765449D01*
X123035406Y-69748730D01*
X123036279Y-69748119D01*
X123221401Y-69618495D01*
X123388495Y-69451401D01*
X123433325Y-69387376D01*
X123487904Y-69343751D01*
X123534901Y-69334500D01*
X142130114Y-69334500D01*
X142197153Y-69354185D01*
X142217795Y-69370819D01*
X146187181Y-73340205D01*
X146220666Y-73401528D01*
X146223500Y-73427886D01*
X146223500Y-74557870D01*
X146223501Y-74557876D01*
X146229908Y-74617483D01*
X146280202Y-74752328D01*
X146280206Y-74752335D01*
X146366452Y-74867544D01*
X146366455Y-74867547D01*
X146481664Y-74953793D01*
X146481671Y-74953797D01*
X146616517Y-75004091D01*
X146616516Y-75004091D01*
X146623444Y-75004835D01*
X146676127Y-75010500D01*
X148471872Y-75010499D01*
X148531483Y-75004091D01*
X148666331Y-74953796D01*
X148781546Y-74867546D01*
X148867796Y-74752331D01*
X148918091Y-74617483D01*
X148924500Y-74557873D01*
X148924499Y-72762128D01*
X148918091Y-72702517D01*
X148867796Y-72567669D01*
X148867795Y-72567668D01*
X148867793Y-72567664D01*
X148781547Y-72452455D01*
X148781544Y-72452452D01*
X148666335Y-72366206D01*
X148666328Y-72366202D01*
X148534917Y-72317189D01*
X148478983Y-72275318D01*
X148454566Y-72209853D01*
X148469418Y-72141580D01*
X148490563Y-72113332D01*
X148612495Y-71991401D01*
X148748035Y-71797830D01*
X148847903Y-71583663D01*
X148909063Y-71355408D01*
X148929659Y-71120000D01*
X148909063Y-70884592D01*
X148847903Y-70656337D01*
X148748035Y-70442171D01*
X148612495Y-70248599D01*
X148612494Y-70248597D01*
X148445402Y-70081506D01*
X148445401Y-70081505D01*
X148277844Y-69964180D01*
X148259405Y-69951269D01*
X148215781Y-69896692D01*
X148208588Y-69827193D01*
X148240110Y-69764839D01*
X148259405Y-69748119D01*
X148445082Y-69618105D01*
X148612105Y-69451082D01*
X148747600Y-69257578D01*
X148847429Y-69043492D01*
X148847432Y-69043486D01*
X148904636Y-68830000D01*
X148187347Y-68830000D01*
X148120308Y-68810315D01*
X148074553Y-68757511D01*
X148064609Y-68688353D01*
X148068369Y-68671067D01*
X148074000Y-68651888D01*
X148074000Y-68508111D01*
X148068369Y-68488933D01*
X148068370Y-68419064D01*
X148106145Y-68360286D01*
X148169701Y-68331262D01*
X148187347Y-68330000D01*
X148904636Y-68330000D01*
X148904635Y-68329999D01*
X148847432Y-68116513D01*
X148847429Y-68116507D01*
X148747600Y-67902422D01*
X148747599Y-67902420D01*
X148612113Y-67708926D01*
X148612108Y-67708920D01*
X148445078Y-67541890D01*
X148259405Y-67411879D01*
X148215780Y-67357302D01*
X148208588Y-67287804D01*
X148240110Y-67225449D01*
X148259406Y-67208730D01*
X148259842Y-67208425D01*
X148445401Y-67078495D01*
X148612495Y-66911401D01*
X148748035Y-66717830D01*
X148847903Y-66503663D01*
X148909063Y-66275408D01*
X148929659Y-66040000D01*
X148909063Y-65804592D01*
X148847903Y-65576337D01*
X148748035Y-65362171D01*
X148747652Y-65361623D01*
X148612494Y-65168597D01*
X148445402Y-65001506D01*
X148445396Y-65001501D01*
X148259842Y-64871575D01*
X148216217Y-64816998D01*
X148209023Y-64747500D01*
X148240546Y-64685145D01*
X148259842Y-64668425D01*
X148282026Y-64652891D01*
X148445401Y-64538495D01*
X148612495Y-64371401D01*
X148748035Y-64177830D01*
X148847903Y-63963663D01*
X148909063Y-63735408D01*
X148929659Y-63500000D01*
X148909063Y-63264592D01*
X148847903Y-63036337D01*
X148748035Y-62822171D01*
X148612495Y-62628599D01*
X148612494Y-62628597D01*
X148445402Y-62461506D01*
X148445401Y-62461505D01*
X148259842Y-62331575D01*
X148259841Y-62331574D01*
X148216216Y-62276997D01*
X148209024Y-62207498D01*
X148240546Y-62145144D01*
X148259836Y-62128428D01*
X148445401Y-61998495D01*
X148612495Y-61831401D01*
X148748035Y-61637830D01*
X148847903Y-61423663D01*
X148909063Y-61195408D01*
X148929659Y-60960000D01*
X148909063Y-60724592D01*
X148847903Y-60496337D01*
X148748035Y-60282171D01*
X148612495Y-60088599D01*
X148612494Y-60088597D01*
X148445402Y-59921506D01*
X148445396Y-59921501D01*
X148259842Y-59791575D01*
X148216217Y-59736998D01*
X148209023Y-59667500D01*
X148240546Y-59605145D01*
X148259842Y-59588425D01*
X148282026Y-59572891D01*
X148445401Y-59458495D01*
X148612495Y-59291401D01*
X148748035Y-59097830D01*
X148847903Y-58883663D01*
X148909063Y-58655408D01*
X148929659Y-58420000D01*
X148909063Y-58184592D01*
X148847903Y-57956337D01*
X148748035Y-57742171D01*
X148612495Y-57548599D01*
X148612494Y-57548597D01*
X148445402Y-57381506D01*
X148445395Y-57381501D01*
X148251834Y-57245967D01*
X148251830Y-57245965D01*
X148251830Y-57245964D01*
X148037663Y-57146097D01*
X148037659Y-57146096D01*
X148037655Y-57146094D01*
X147809413Y-57084938D01*
X147809403Y-57084936D01*
X147574001Y-57064341D01*
X147573999Y-57064341D01*
X147338596Y-57084936D01*
X147338586Y-57084938D01*
X147110344Y-57146094D01*
X147110335Y-57146098D01*
X146896171Y-57245964D01*
X146896169Y-57245965D01*
X146702597Y-57381505D01*
X146535505Y-57548597D01*
X146399965Y-57742169D01*
X146399964Y-57742171D01*
X146300098Y-57956335D01*
X146300094Y-57956344D01*
X146238938Y-58184586D01*
X146238936Y-58184596D01*
X146218341Y-58419999D01*
X146218341Y-58420000D01*
X146238937Y-58655408D01*
X146265855Y-58755873D01*
X146264192Y-58825723D01*
X146233761Y-58875646D01*
X139731228Y-65378181D01*
X139669905Y-65411666D01*
X139643547Y-65414500D01*
X123625227Y-65414500D01*
X123558188Y-65394815D01*
X123523652Y-65361623D01*
X123388494Y-65168597D01*
X123221402Y-65001506D01*
X123221396Y-65001501D01*
X123035842Y-64871575D01*
X122992217Y-64816998D01*
X122985023Y-64747500D01*
X123016546Y-64685145D01*
X123035842Y-64668425D01*
X123058026Y-64652891D01*
X123221401Y-64538495D01*
X123388495Y-64371401D01*
X123524035Y-64177830D01*
X123623903Y-63963663D01*
X123685063Y-63735408D01*
X123705659Y-63500000D01*
X123685063Y-63264592D01*
X123623903Y-63036337D01*
X123524035Y-62822171D01*
X123388495Y-62628599D01*
X123388494Y-62628597D01*
X123221402Y-62461506D01*
X123221396Y-62461501D01*
X123035842Y-62331575D01*
X122992217Y-62276998D01*
X122985023Y-62207500D01*
X123016546Y-62145145D01*
X123035842Y-62128425D01*
X123058026Y-62112891D01*
X123221401Y-61998495D01*
X123388495Y-61831401D01*
X123524035Y-61637830D01*
X123623903Y-61423663D01*
X123685063Y-61195408D01*
X123705659Y-60960000D01*
X123685063Y-60724592D01*
X123623903Y-60496337D01*
X123524035Y-60282171D01*
X123388495Y-60088599D01*
X123266567Y-59966671D01*
X123233084Y-59905351D01*
X123238068Y-59835659D01*
X123279939Y-59779725D01*
X123310915Y-59762810D01*
X123442331Y-59713796D01*
X123557546Y-59627546D01*
X123643796Y-59512331D01*
X123694091Y-59377483D01*
X123700500Y-59317873D01*
X123700499Y-57522128D01*
X123694091Y-57462517D01*
X123643796Y-57327669D01*
X123643795Y-57327668D01*
X123643793Y-57327664D01*
X123557547Y-57212455D01*
X123557544Y-57212452D01*
X123442335Y-57126206D01*
X123442328Y-57126202D01*
X123307482Y-57075908D01*
X123307483Y-57075908D01*
X123247883Y-57069501D01*
X123247881Y-57069500D01*
X123247873Y-57069500D01*
X123247864Y-57069500D01*
X121452129Y-57069500D01*
X121452123Y-57069501D01*
X121392516Y-57075908D01*
X121257671Y-57126202D01*
X121257664Y-57126206D01*
X121142455Y-57212452D01*
X121142452Y-57212455D01*
X121056206Y-57327664D01*
X121056202Y-57327671D01*
X121005908Y-57462517D01*
X120999501Y-57522116D01*
X120999501Y-57522123D01*
X120999500Y-57522135D01*
X120999500Y-59317870D01*
X120999501Y-59317876D01*
X121005908Y-59377483D01*
X121056202Y-59512328D01*
X121056206Y-59512335D01*
X121142452Y-59627544D01*
X121142455Y-59627547D01*
X121257664Y-59713793D01*
X121257671Y-59713797D01*
X121389081Y-59762810D01*
X121445015Y-59804681D01*
X121469432Y-59870145D01*
X121454580Y-59938418D01*
X121433430Y-59966673D01*
X121311503Y-60088600D01*
X121175965Y-60282169D01*
X121175964Y-60282171D01*
X121076098Y-60496335D01*
X121076094Y-60496344D01*
X121014938Y-60724586D01*
X121014936Y-60724596D01*
X120994341Y-60959999D01*
X120994341Y-60960000D01*
X121014936Y-61195403D01*
X121014938Y-61195413D01*
X121076094Y-61423655D01*
X121076096Y-61423659D01*
X121076097Y-61423663D01*
X121175964Y-61637830D01*
X121175965Y-61637830D01*
X121175967Y-61637834D01*
X121311501Y-61831395D01*
X121311506Y-61831402D01*
X121478597Y-61998493D01*
X121478603Y-61998498D01*
X121664158Y-62128425D01*
X121707783Y-62183002D01*
X121714977Y-62252500D01*
X121683454Y-62314855D01*
X121664158Y-62331575D01*
X121478597Y-62461505D01*
X121311505Y-62628597D01*
X121175965Y-62822169D01*
X121175964Y-62822171D01*
X121076098Y-63036335D01*
X121076094Y-63036344D01*
X121014938Y-63264586D01*
X121014936Y-63264596D01*
X120994341Y-63499999D01*
X120994341Y-63500000D01*
X121014936Y-63735403D01*
X121014938Y-63735413D01*
X121076094Y-63963655D01*
X121076096Y-63963659D01*
X121076097Y-63963663D01*
X121175965Y-64177830D01*
X121175967Y-64177834D01*
X121311501Y-64371395D01*
X121311506Y-64371402D01*
X121478597Y-64538493D01*
X121478603Y-64538498D01*
X121664158Y-64668425D01*
X121707783Y-64723002D01*
X121714977Y-64792500D01*
X121683454Y-64854855D01*
X121664158Y-64871575D01*
X121478597Y-65001505D01*
X121311505Y-65168597D01*
X121175965Y-65362169D01*
X121175964Y-65362171D01*
X121076098Y-65576335D01*
X121076094Y-65576344D01*
X121014938Y-65804586D01*
X121014936Y-65804596D01*
X120994341Y-66039999D01*
X120994341Y-66040000D01*
X121014936Y-66275403D01*
X121014938Y-66275413D01*
X121076094Y-66503655D01*
X121076096Y-66503659D01*
X121076097Y-66503663D01*
X121122630Y-66603453D01*
X121175965Y-66717830D01*
X121175967Y-66717834D01*
X121284281Y-66872521D01*
X121311501Y-66911396D01*
X121311506Y-66911402D01*
X121478597Y-67078493D01*
X121478603Y-67078498D01*
X121664158Y-67208425D01*
X121707783Y-67263002D01*
X121714977Y-67332500D01*
X121683454Y-67394855D01*
X121664158Y-67411575D01*
X121478597Y-67541505D01*
X121311505Y-67708597D01*
X121175965Y-67902169D01*
X121175964Y-67902171D01*
X121076098Y-68116335D01*
X121076094Y-68116344D01*
X121014938Y-68344586D01*
X121014936Y-68344596D01*
X120994341Y-68579999D01*
X120994341Y-68580000D01*
X116586500Y-68580000D01*
X116586500Y-55120680D01*
X116586733Y-55115329D01*
X116590477Y-55072535D01*
X116594773Y-55028925D01*
X116603208Y-54943273D01*
X116606832Y-54923356D01*
X116624947Y-54855750D01*
X116653809Y-54760605D01*
X116660074Y-54744230D01*
X116692035Y-54675691D01*
X116693482Y-54672796D01*
X116739250Y-54587171D01*
X116743112Y-54580885D01*
X116790174Y-54513673D01*
X116792982Y-54509972D01*
X116853424Y-54436324D01*
X116857463Y-54431867D01*
X116915867Y-54373463D01*
X116920324Y-54369424D01*
X116993972Y-54308982D01*
X116997673Y-54306174D01*
X117064885Y-54259112D01*
X117071171Y-54255250D01*
X117156796Y-54209482D01*
X117159691Y-54208035D01*
X117228230Y-54176074D01*
X117244605Y-54169809D01*
X117339725Y-54140953D01*
X117407356Y-54122832D01*
X117427271Y-54119209D01*
X117556494Y-54106481D01*
X117599306Y-54102735D01*
X117604705Y-54102500D01*
X117653192Y-54102500D01*
X117653768Y-54102435D01*
X152694850Y-54058923D01*
X152700302Y-54059158D01*
G37*
%TD.AperFunction*%
%TD*%
M02*
