%TF.GenerationSoftware,KiCad,Pcbnew,7.0.7*%
%TF.CreationDate,2024-04-13T21:05:36-07:00*%
%TF.ProjectId,SD-Breakout,53442d42-7265-4616-9b6f-75742e6b6963,rev?*%
%TF.SameCoordinates,Original*%
%TF.FileFunction,Legend,Top*%
%TF.FilePolarity,Positive*%
%FSLAX46Y46*%
G04 Gerber Fmt 4.6, Leading zero omitted, Abs format (unit mm)*
G04 Created by KiCad (PCBNEW 7.0.7) date 2024-04-13 21:05:36*
%MOMM*%
%LPD*%
G01*
G04 APERTURE LIST*
%ADD10C,0.150000*%
%ADD11C,0.120000*%
G04 APERTURE END LIST*
D10*
X117430779Y-59615628D02*
X117430779Y-58115628D01*
X117430779Y-58115628D02*
X117764112Y-59187057D01*
X117764112Y-59187057D02*
X118097445Y-58115628D01*
X118097445Y-58115628D02*
X118097445Y-59615628D01*
X118764112Y-58115628D02*
X118954588Y-58115628D01*
X118954588Y-58115628D02*
X119049826Y-58187057D01*
X119049826Y-58187057D02*
X119145064Y-58329914D01*
X119145064Y-58329914D02*
X119192683Y-58615628D01*
X119192683Y-58615628D02*
X119192683Y-59115628D01*
X119192683Y-59115628D02*
X119145064Y-59401342D01*
X119145064Y-59401342D02*
X119049826Y-59544200D01*
X119049826Y-59544200D02*
X118954588Y-59615628D01*
X118954588Y-59615628D02*
X118764112Y-59615628D01*
X118764112Y-59615628D02*
X118668874Y-59544200D01*
X118668874Y-59544200D02*
X118573636Y-59401342D01*
X118573636Y-59401342D02*
X118526017Y-59115628D01*
X118526017Y-59115628D02*
X118526017Y-58615628D01*
X118526017Y-58615628D02*
X118573636Y-58329914D01*
X118573636Y-58329914D02*
X118668874Y-58187057D01*
X118668874Y-58187057D02*
X118764112Y-58115628D01*
X119573636Y-59544200D02*
X119716493Y-59615628D01*
X119716493Y-59615628D02*
X119954588Y-59615628D01*
X119954588Y-59615628D02*
X120049826Y-59544200D01*
X120049826Y-59544200D02*
X120097445Y-59472771D01*
X120097445Y-59472771D02*
X120145064Y-59329914D01*
X120145064Y-59329914D02*
X120145064Y-59187057D01*
X120145064Y-59187057D02*
X120097445Y-59044200D01*
X120097445Y-59044200D02*
X120049826Y-58972771D01*
X120049826Y-58972771D02*
X119954588Y-58901342D01*
X119954588Y-58901342D02*
X119764112Y-58829914D01*
X119764112Y-58829914D02*
X119668874Y-58758485D01*
X119668874Y-58758485D02*
X119621255Y-58687057D01*
X119621255Y-58687057D02*
X119573636Y-58544200D01*
X119573636Y-58544200D02*
X119573636Y-58401342D01*
X119573636Y-58401342D02*
X119621255Y-58258485D01*
X119621255Y-58258485D02*
X119668874Y-58187057D01*
X119668874Y-58187057D02*
X119764112Y-58115628D01*
X119764112Y-58115628D02*
X120002207Y-58115628D01*
X120002207Y-58115628D02*
X120145064Y-58187057D01*
X120573636Y-59615628D02*
X120573636Y-58115628D01*
X117430779Y-62030628D02*
X117430779Y-60530628D01*
X117430779Y-60530628D02*
X117764112Y-61602057D01*
X117764112Y-61602057D02*
X118097445Y-60530628D01*
X118097445Y-60530628D02*
X118097445Y-62030628D01*
X118573636Y-62030628D02*
X118573636Y-60530628D01*
X119002207Y-61959200D02*
X119145064Y-62030628D01*
X119145064Y-62030628D02*
X119383159Y-62030628D01*
X119383159Y-62030628D02*
X119478397Y-61959200D01*
X119478397Y-61959200D02*
X119526016Y-61887771D01*
X119526016Y-61887771D02*
X119573635Y-61744914D01*
X119573635Y-61744914D02*
X119573635Y-61602057D01*
X119573635Y-61602057D02*
X119526016Y-61459200D01*
X119526016Y-61459200D02*
X119478397Y-61387771D01*
X119478397Y-61387771D02*
X119383159Y-61316342D01*
X119383159Y-61316342D02*
X119192683Y-61244914D01*
X119192683Y-61244914D02*
X119097445Y-61173485D01*
X119097445Y-61173485D02*
X119049826Y-61102057D01*
X119049826Y-61102057D02*
X119002207Y-60959200D01*
X119002207Y-60959200D02*
X119002207Y-60816342D01*
X119002207Y-60816342D02*
X119049826Y-60673485D01*
X119049826Y-60673485D02*
X119097445Y-60602057D01*
X119097445Y-60602057D02*
X119192683Y-60530628D01*
X119192683Y-60530628D02*
X119430778Y-60530628D01*
X119430778Y-60530628D02*
X119573635Y-60602057D01*
X120192683Y-60530628D02*
X120383159Y-60530628D01*
X120383159Y-60530628D02*
X120478397Y-60602057D01*
X120478397Y-60602057D02*
X120573635Y-60744914D01*
X120573635Y-60744914D02*
X120621254Y-61030628D01*
X120621254Y-61030628D02*
X120621254Y-61530628D01*
X120621254Y-61530628D02*
X120573635Y-61816342D01*
X120573635Y-61816342D02*
X120478397Y-61959200D01*
X120478397Y-61959200D02*
X120383159Y-62030628D01*
X120383159Y-62030628D02*
X120192683Y-62030628D01*
X120192683Y-62030628D02*
X120097445Y-61959200D01*
X120097445Y-61959200D02*
X120002207Y-61816342D01*
X120002207Y-61816342D02*
X119954588Y-61530628D01*
X119954588Y-61530628D02*
X119954588Y-61030628D01*
X119954588Y-61030628D02*
X120002207Y-60744914D01*
X120002207Y-60744914D02*
X120097445Y-60602057D01*
X120097445Y-60602057D02*
X120192683Y-60530628D01*
X118002207Y-64302771D02*
X117954588Y-64374200D01*
X117954588Y-64374200D02*
X117811731Y-64445628D01*
X117811731Y-64445628D02*
X117716493Y-64445628D01*
X117716493Y-64445628D02*
X117573636Y-64374200D01*
X117573636Y-64374200D02*
X117478398Y-64231342D01*
X117478398Y-64231342D02*
X117430779Y-64088485D01*
X117430779Y-64088485D02*
X117383160Y-63802771D01*
X117383160Y-63802771D02*
X117383160Y-63588485D01*
X117383160Y-63588485D02*
X117430779Y-63302771D01*
X117430779Y-63302771D02*
X117478398Y-63159914D01*
X117478398Y-63159914D02*
X117573636Y-63017057D01*
X117573636Y-63017057D02*
X117716493Y-62945628D01*
X117716493Y-62945628D02*
X117811731Y-62945628D01*
X117811731Y-62945628D02*
X117954588Y-63017057D01*
X117954588Y-63017057D02*
X118002207Y-63088485D01*
X118906969Y-64445628D02*
X118430779Y-64445628D01*
X118430779Y-64445628D02*
X118430779Y-62945628D01*
X119240303Y-64445628D02*
X119240303Y-62945628D01*
X119811731Y-64445628D02*
X119383160Y-63588485D01*
X119811731Y-62945628D02*
X119240303Y-63802771D01*
X118002207Y-66717771D02*
X117954588Y-66789200D01*
X117954588Y-66789200D02*
X117811731Y-66860628D01*
X117811731Y-66860628D02*
X117716493Y-66860628D01*
X117716493Y-66860628D02*
X117573636Y-66789200D01*
X117573636Y-66789200D02*
X117478398Y-66646342D01*
X117478398Y-66646342D02*
X117430779Y-66503485D01*
X117430779Y-66503485D02*
X117383160Y-66217771D01*
X117383160Y-66217771D02*
X117383160Y-66003485D01*
X117383160Y-66003485D02*
X117430779Y-65717771D01*
X117430779Y-65717771D02*
X117478398Y-65574914D01*
X117478398Y-65574914D02*
X117573636Y-65432057D01*
X117573636Y-65432057D02*
X117716493Y-65360628D01*
X117716493Y-65360628D02*
X117811731Y-65360628D01*
X117811731Y-65360628D02*
X117954588Y-65432057D01*
X117954588Y-65432057D02*
X118002207Y-65503485D01*
X118383160Y-66789200D02*
X118526017Y-66860628D01*
X118526017Y-66860628D02*
X118764112Y-66860628D01*
X118764112Y-66860628D02*
X118859350Y-66789200D01*
X118859350Y-66789200D02*
X118906969Y-66717771D01*
X118906969Y-66717771D02*
X118954588Y-66574914D01*
X118954588Y-66574914D02*
X118954588Y-66432057D01*
X118954588Y-66432057D02*
X118906969Y-66289200D01*
X118906969Y-66289200D02*
X118859350Y-66217771D01*
X118859350Y-66217771D02*
X118764112Y-66146342D01*
X118764112Y-66146342D02*
X118573636Y-66074914D01*
X118573636Y-66074914D02*
X118478398Y-66003485D01*
X118478398Y-66003485D02*
X118430779Y-65932057D01*
X118430779Y-65932057D02*
X118383160Y-65789200D01*
X118383160Y-65789200D02*
X118383160Y-65646342D01*
X118383160Y-65646342D02*
X118430779Y-65503485D01*
X118430779Y-65503485D02*
X118478398Y-65432057D01*
X118478398Y-65432057D02*
X118573636Y-65360628D01*
X118573636Y-65360628D02*
X118811731Y-65360628D01*
X118811731Y-65360628D02*
X118954588Y-65432057D01*
X117335541Y-67775628D02*
X117954588Y-67775628D01*
X117954588Y-67775628D02*
X117621255Y-68347057D01*
X117621255Y-68347057D02*
X117764112Y-68347057D01*
X117764112Y-68347057D02*
X117859350Y-68418485D01*
X117859350Y-68418485D02*
X117906969Y-68489914D01*
X117906969Y-68489914D02*
X117954588Y-68632771D01*
X117954588Y-68632771D02*
X117954588Y-68989914D01*
X117954588Y-68989914D02*
X117906969Y-69132771D01*
X117906969Y-69132771D02*
X117859350Y-69204200D01*
X117859350Y-69204200D02*
X117764112Y-69275628D01*
X117764112Y-69275628D02*
X117478398Y-69275628D01*
X117478398Y-69275628D02*
X117383160Y-69204200D01*
X117383160Y-69204200D02*
X117335541Y-69132771D01*
X118383160Y-69132771D02*
X118430779Y-69204200D01*
X118430779Y-69204200D02*
X118383160Y-69275628D01*
X118383160Y-69275628D02*
X118335541Y-69204200D01*
X118335541Y-69204200D02*
X118383160Y-69132771D01*
X118383160Y-69132771D02*
X118383160Y-69275628D01*
X118764112Y-67775628D02*
X119383159Y-67775628D01*
X119383159Y-67775628D02*
X119049826Y-68347057D01*
X119049826Y-68347057D02*
X119192683Y-68347057D01*
X119192683Y-68347057D02*
X119287921Y-68418485D01*
X119287921Y-68418485D02*
X119335540Y-68489914D01*
X119335540Y-68489914D02*
X119383159Y-68632771D01*
X119383159Y-68632771D02*
X119383159Y-68989914D01*
X119383159Y-68989914D02*
X119335540Y-69132771D01*
X119335540Y-69132771D02*
X119287921Y-69204200D01*
X119287921Y-69204200D02*
X119192683Y-69275628D01*
X119192683Y-69275628D02*
X118906969Y-69275628D01*
X118906969Y-69275628D02*
X118811731Y-69204200D01*
X118811731Y-69204200D02*
X118764112Y-69132771D01*
X119668874Y-67775628D02*
X120002207Y-69275628D01*
X120002207Y-69275628D02*
X120335540Y-67775628D01*
X117954588Y-70262057D02*
X117859350Y-70190628D01*
X117859350Y-70190628D02*
X117716493Y-70190628D01*
X117716493Y-70190628D02*
X117573636Y-70262057D01*
X117573636Y-70262057D02*
X117478398Y-70404914D01*
X117478398Y-70404914D02*
X117430779Y-70547771D01*
X117430779Y-70547771D02*
X117383160Y-70833485D01*
X117383160Y-70833485D02*
X117383160Y-71047771D01*
X117383160Y-71047771D02*
X117430779Y-71333485D01*
X117430779Y-71333485D02*
X117478398Y-71476342D01*
X117478398Y-71476342D02*
X117573636Y-71619200D01*
X117573636Y-71619200D02*
X117716493Y-71690628D01*
X117716493Y-71690628D02*
X117811731Y-71690628D01*
X117811731Y-71690628D02*
X117954588Y-71619200D01*
X117954588Y-71619200D02*
X118002207Y-71547771D01*
X118002207Y-71547771D02*
X118002207Y-71047771D01*
X118002207Y-71047771D02*
X117811731Y-71047771D01*
X118430779Y-71690628D02*
X118430779Y-70190628D01*
X118430779Y-70190628D02*
X119002207Y-71690628D01*
X119002207Y-71690628D02*
X119002207Y-70190628D01*
X119478398Y-71690628D02*
X119478398Y-70190628D01*
X119478398Y-70190628D02*
X119716493Y-70190628D01*
X119716493Y-70190628D02*
X119859350Y-70262057D01*
X119859350Y-70262057D02*
X119954588Y-70404914D01*
X119954588Y-70404914D02*
X120002207Y-70547771D01*
X120002207Y-70547771D02*
X120049826Y-70833485D01*
X120049826Y-70833485D02*
X120049826Y-71047771D01*
X120049826Y-71047771D02*
X120002207Y-71333485D01*
X120002207Y-71333485D02*
X119954588Y-71476342D01*
X119954588Y-71476342D02*
X119859350Y-71619200D01*
X119859350Y-71619200D02*
X119716493Y-71690628D01*
X119716493Y-71690628D02*
X119478398Y-71690628D01*
G36*
X144790455Y-55847180D02*
G01*
X144816949Y-55873674D01*
X144851207Y-55942189D01*
X144851207Y-56049636D01*
X144816948Y-56118153D01*
X144786541Y-56148561D01*
X144718026Y-56182819D01*
X144429779Y-56182819D01*
X144429779Y-55809009D01*
X144675942Y-55809009D01*
X144790455Y-55847180D01*
G37*
G36*
X144738923Y-55367077D02*
G01*
X144769330Y-55397483D01*
X144803588Y-55466000D01*
X144803588Y-55525827D01*
X144769329Y-55594344D01*
X144738923Y-55624750D01*
X144670407Y-55659009D01*
X144429779Y-55659009D01*
X144429779Y-55332819D01*
X144670407Y-55332819D01*
X144738923Y-55367077D01*
G37*
G36*
X146298877Y-55694672D02*
G01*
X146327398Y-55751713D01*
X146327398Y-55767762D01*
X146001208Y-55832999D01*
X146001208Y-55751713D01*
X146029728Y-55694672D01*
X146086770Y-55666152D01*
X146241836Y-55666152D01*
X146298877Y-55694672D01*
G37*
G36*
X147184541Y-56163847D02*
G01*
X147146598Y-56182819D01*
X146943913Y-56182819D01*
X146886871Y-56154298D01*
X146858351Y-56097256D01*
X146858351Y-56037427D01*
X146886871Y-55980386D01*
X146943913Y-55951866D01*
X147164303Y-55951866D01*
X147168516Y-55950332D01*
X147172877Y-55951374D01*
X147184541Y-55947904D01*
X147184541Y-56163847D01*
G37*
G36*
X148881781Y-55700410D02*
G01*
X148912188Y-55730816D01*
X148946446Y-55799333D01*
X148946446Y-56049636D01*
X148912187Y-56118153D01*
X148881780Y-56148561D01*
X148813265Y-56182819D01*
X148705818Y-56182819D01*
X148637302Y-56148561D01*
X148606895Y-56118153D01*
X148572637Y-56049637D01*
X148572637Y-55799332D01*
X148606895Y-55730816D01*
X148637302Y-55700409D01*
X148705818Y-55666152D01*
X148813265Y-55666152D01*
X148881781Y-55700410D01*
G37*
G36*
X150809593Y-56475676D02*
G01*
X144136922Y-56475676D01*
X144136922Y-56257819D01*
X144279779Y-56257819D01*
X144286442Y-56276127D01*
X144289827Y-56295319D01*
X144295011Y-56299669D01*
X144297326Y-56306028D01*
X144314199Y-56315770D01*
X144329127Y-56328296D01*
X144338869Y-56330013D01*
X144341755Y-56331680D01*
X144345037Y-56331101D01*
X144354779Y-56332819D01*
X144735731Y-56332819D01*
X144739944Y-56331285D01*
X144744305Y-56332327D01*
X144769272Y-56324901D01*
X144864510Y-56277282D01*
X144865634Y-56276094D01*
X144884003Y-56263232D01*
X144889416Y-56257819D01*
X145279779Y-56257819D01*
X145297326Y-56306028D01*
X145341755Y-56331680D01*
X145392279Y-56322771D01*
X145425256Y-56283471D01*
X145429779Y-56257819D01*
X145429779Y-56114961D01*
X145851208Y-56114961D01*
X145852741Y-56119173D01*
X145851699Y-56123535D01*
X145859126Y-56148502D01*
X145906745Y-56243741D01*
X145914898Y-56251460D01*
X145919365Y-56261765D01*
X145940286Y-56277282D01*
X146035524Y-56324901D01*
X146039977Y-56325413D01*
X146043413Y-56328296D01*
X146069065Y-56332819D01*
X146259541Y-56332819D01*
X146263754Y-56331285D01*
X146268115Y-56332327D01*
X146293082Y-56324901D01*
X146388320Y-56277282D01*
X146423592Y-56240028D01*
X146426667Y-56188818D01*
X146396103Y-56147612D01*
X146346204Y-56135692D01*
X146321238Y-56143118D01*
X146241836Y-56182819D01*
X146086770Y-56182819D01*
X146029728Y-56154298D01*
X146010060Y-56114961D01*
X146708351Y-56114961D01*
X146709884Y-56119173D01*
X146708842Y-56123535D01*
X146716269Y-56148502D01*
X146763888Y-56243741D01*
X146772041Y-56251460D01*
X146776508Y-56261765D01*
X146797429Y-56277282D01*
X146892667Y-56324901D01*
X146897120Y-56325413D01*
X146900556Y-56328296D01*
X146926208Y-56332819D01*
X147164303Y-56332819D01*
X147168516Y-56331285D01*
X147172877Y-56332327D01*
X147197844Y-56324901D01*
X147217636Y-56315004D01*
X147246517Y-56331680D01*
X147297041Y-56322771D01*
X147330018Y-56283471D01*
X147334541Y-56257819D01*
X147660732Y-56257819D01*
X147678279Y-56306028D01*
X147722708Y-56331680D01*
X147773232Y-56322771D01*
X147806209Y-56283471D01*
X147810732Y-56257819D01*
X147810732Y-56003170D01*
X147822855Y-55991046D01*
X148056684Y-56302819D01*
X148099647Y-56330858D01*
X148150581Y-56324722D01*
X148185655Y-56287281D01*
X148188457Y-56236055D01*
X148176684Y-56212819D01*
X148067577Y-56067342D01*
X148422637Y-56067342D01*
X148424170Y-56071555D01*
X148423129Y-56075916D01*
X148430555Y-56100883D01*
X148478174Y-56196121D01*
X148479362Y-56197246D01*
X148492222Y-56215612D01*
X148539841Y-56263232D01*
X148541322Y-56263922D01*
X148559334Y-56277282D01*
X148654572Y-56324901D01*
X148659025Y-56325413D01*
X148662461Y-56328296D01*
X148688113Y-56332819D01*
X148830970Y-56332819D01*
X148835183Y-56331285D01*
X148839544Y-56332327D01*
X148864511Y-56324901D01*
X148959749Y-56277282D01*
X148960873Y-56276094D01*
X148979242Y-56263232D01*
X149026860Y-56215613D01*
X149027550Y-56214131D01*
X149040909Y-56196121D01*
X149081489Y-56114961D01*
X149375018Y-56114961D01*
X149376551Y-56119173D01*
X149375509Y-56123535D01*
X149382936Y-56148502D01*
X149430555Y-56243741D01*
X149438708Y-56251460D01*
X149443175Y-56261765D01*
X149464096Y-56277282D01*
X149559334Y-56324901D01*
X149563787Y-56325413D01*
X149567223Y-56328296D01*
X149592875Y-56332819D01*
X149735732Y-56332819D01*
X149739945Y-56331285D01*
X149744306Y-56332327D01*
X149769273Y-56324901D01*
X149818962Y-56300056D01*
X149821136Y-56306028D01*
X149865565Y-56331680D01*
X149916089Y-56322771D01*
X149949066Y-56283471D01*
X149953589Y-56257819D01*
X149953589Y-55591152D01*
X149948849Y-55578128D01*
X150138062Y-55578128D01*
X150146971Y-55628652D01*
X150186271Y-55661629D01*
X150211923Y-55666152D01*
X150279780Y-55666152D01*
X150279780Y-56114961D01*
X150281313Y-56119173D01*
X150280271Y-56123535D01*
X150287698Y-56148502D01*
X150335317Y-56243741D01*
X150343470Y-56251460D01*
X150347937Y-56261765D01*
X150368858Y-56277282D01*
X150464096Y-56324901D01*
X150468549Y-56325413D01*
X150471985Y-56328296D01*
X150497637Y-56332819D01*
X150592875Y-56332819D01*
X150641084Y-56315272D01*
X150666736Y-56270843D01*
X150657827Y-56220319D01*
X150618527Y-56187342D01*
X150592875Y-56182819D01*
X150515342Y-56182819D01*
X150458300Y-56154298D01*
X150429780Y-56097256D01*
X150429780Y-55666152D01*
X150592875Y-55666152D01*
X150641084Y-55648605D01*
X150666736Y-55604176D01*
X150657827Y-55553652D01*
X150618527Y-55520675D01*
X150592875Y-55516152D01*
X150429780Y-55516152D01*
X150429780Y-55257819D01*
X150412233Y-55209610D01*
X150367804Y-55183958D01*
X150317280Y-55192867D01*
X150284303Y-55232167D01*
X150279780Y-55257819D01*
X150279780Y-55516152D01*
X150211923Y-55516152D01*
X150163714Y-55533699D01*
X150138062Y-55578128D01*
X149948849Y-55578128D01*
X149936042Y-55542943D01*
X149891613Y-55517291D01*
X149841089Y-55526200D01*
X149808112Y-55565500D01*
X149803589Y-55591152D01*
X149803589Y-56131514D01*
X149786542Y-56148561D01*
X149718027Y-56182819D01*
X149610580Y-56182819D01*
X149553538Y-56154298D01*
X149525018Y-56097256D01*
X149525018Y-55591152D01*
X149507471Y-55542943D01*
X149463042Y-55517291D01*
X149412518Y-55526200D01*
X149379541Y-55565500D01*
X149375018Y-55591152D01*
X149375018Y-56114961D01*
X149081489Y-56114961D01*
X149088528Y-56100883D01*
X149089040Y-56096429D01*
X149091923Y-56092994D01*
X149096446Y-56067342D01*
X149096446Y-55781628D01*
X149094912Y-55777414D01*
X149095954Y-55773053D01*
X149088528Y-55748087D01*
X149040909Y-55652849D01*
X149039719Y-55651723D01*
X149026860Y-55633357D01*
X148979241Y-55585738D01*
X148977759Y-55585047D01*
X148959749Y-55571689D01*
X148864511Y-55524070D01*
X148860057Y-55523557D01*
X148856622Y-55520675D01*
X148830970Y-55516152D01*
X148688113Y-55516152D01*
X148683899Y-55517685D01*
X148679538Y-55516644D01*
X148654572Y-55524070D01*
X148559334Y-55571689D01*
X148558208Y-55572878D01*
X148539842Y-55585738D01*
X148492223Y-55633357D01*
X148491532Y-55634838D01*
X148478174Y-55652849D01*
X148430555Y-55748087D01*
X148430042Y-55752540D01*
X148427160Y-55755976D01*
X148422637Y-55781628D01*
X148422637Y-56067342D01*
X148067577Y-56067342D01*
X147929998Y-55883903D01*
X148169717Y-55644185D01*
X148191398Y-55597689D01*
X148178121Y-55548134D01*
X148136095Y-55518708D01*
X148084988Y-55523179D01*
X148063651Y-55538119D01*
X147810732Y-55791037D01*
X147810732Y-55257819D01*
X147793185Y-55209610D01*
X147748756Y-55183958D01*
X147698232Y-55192867D01*
X147665255Y-55232167D01*
X147660732Y-55257819D01*
X147660732Y-56257819D01*
X147334541Y-56257819D01*
X147334541Y-55734009D01*
X147333007Y-55729795D01*
X147334049Y-55725434D01*
X147326623Y-55700468D01*
X147279004Y-55605230D01*
X147270850Y-55597510D01*
X147266384Y-55587206D01*
X147245463Y-55571689D01*
X147150225Y-55524070D01*
X147145771Y-55523557D01*
X147142336Y-55520675D01*
X147116684Y-55516152D01*
X146926208Y-55516152D01*
X146921994Y-55517685D01*
X146917633Y-55516644D01*
X146892667Y-55524070D01*
X146797429Y-55571689D01*
X146762157Y-55608943D01*
X146759082Y-55660154D01*
X146789646Y-55701359D01*
X146839544Y-55713279D01*
X146864511Y-55705853D01*
X146943913Y-55666152D01*
X147098979Y-55666152D01*
X147156020Y-55694672D01*
X147184541Y-55751713D01*
X147184541Y-55782894D01*
X147146598Y-55801866D01*
X146926208Y-55801866D01*
X146921994Y-55803399D01*
X146917633Y-55802358D01*
X146892667Y-55809784D01*
X146797429Y-55857403D01*
X146789709Y-55865556D01*
X146779405Y-55870023D01*
X146763888Y-55890944D01*
X146716269Y-55986182D01*
X146715756Y-55990635D01*
X146712874Y-55994071D01*
X146708351Y-56019723D01*
X146708351Y-56114961D01*
X146010060Y-56114961D01*
X146001208Y-56097256D01*
X146001208Y-55985970D01*
X146417106Y-55902791D01*
X146427693Y-55896351D01*
X146439898Y-55894199D01*
X146448932Y-55883432D01*
X146460938Y-55876130D01*
X146464908Y-55864392D01*
X146472875Y-55854899D01*
X146477398Y-55829247D01*
X146477398Y-55734009D01*
X146475864Y-55729795D01*
X146476906Y-55725434D01*
X146469480Y-55700468D01*
X146421861Y-55605230D01*
X146413707Y-55597510D01*
X146409241Y-55587206D01*
X146388320Y-55571689D01*
X146293082Y-55524070D01*
X146288628Y-55523557D01*
X146285193Y-55520675D01*
X146259541Y-55516152D01*
X146069065Y-55516152D01*
X146064851Y-55517685D01*
X146060490Y-55516644D01*
X146035524Y-55524070D01*
X145940286Y-55571689D01*
X145932566Y-55579842D01*
X145922262Y-55584309D01*
X145906745Y-55605230D01*
X145859126Y-55700468D01*
X145858613Y-55704921D01*
X145855731Y-55708357D01*
X145851208Y-55734009D01*
X145851208Y-56114961D01*
X145429779Y-56114961D01*
X145429779Y-55799332D01*
X145464037Y-55730816D01*
X145494444Y-55700409D01*
X145562960Y-55666152D01*
X145640493Y-55666152D01*
X145688702Y-55648605D01*
X145714354Y-55604176D01*
X145705445Y-55553652D01*
X145666145Y-55520675D01*
X145640493Y-55516152D01*
X145545255Y-55516152D01*
X145541041Y-55517685D01*
X145536680Y-55516644D01*
X145511714Y-55524070D01*
X145421737Y-55569058D01*
X145412232Y-55542943D01*
X145367803Y-55517291D01*
X145317279Y-55526200D01*
X145284302Y-55565500D01*
X145279779Y-55591152D01*
X145279779Y-56257819D01*
X144889416Y-56257819D01*
X144931621Y-56215613D01*
X144932311Y-56214131D01*
X144945670Y-56196121D01*
X144993289Y-56100883D01*
X144993801Y-56096429D01*
X144996684Y-56092994D01*
X145001207Y-56067342D01*
X145001207Y-55924485D01*
X144999673Y-55920271D01*
X145000715Y-55915910D01*
X144993289Y-55890944D01*
X144945670Y-55795706D01*
X144944480Y-55794580D01*
X144931621Y-55776214D01*
X144884002Y-55728595D01*
X144879938Y-55726700D01*
X144877591Y-55722879D01*
X144861590Y-55714215D01*
X144884002Y-55691804D01*
X144884693Y-55690322D01*
X144898051Y-55672312D01*
X144945670Y-55577074D01*
X144946182Y-55572620D01*
X144949065Y-55569185D01*
X144953588Y-55543533D01*
X144953588Y-55448295D01*
X144952054Y-55444081D01*
X144953096Y-55439720D01*
X144945670Y-55414754D01*
X144898051Y-55319516D01*
X144896861Y-55318390D01*
X144884002Y-55300024D01*
X144836383Y-55252405D01*
X144834901Y-55251714D01*
X144816891Y-55238356D01*
X144721653Y-55190737D01*
X144717199Y-55190224D01*
X144713764Y-55187342D01*
X144688112Y-55182819D01*
X144354779Y-55182819D01*
X144336470Y-55189482D01*
X144317279Y-55192867D01*
X144312928Y-55198051D01*
X144306570Y-55200366D01*
X144296827Y-55217239D01*
X144284302Y-55232167D01*
X144282584Y-55241909D01*
X144280918Y-55244795D01*
X144281496Y-55248077D01*
X144279779Y-55257819D01*
X144279779Y-56257819D01*
X144136922Y-56257819D01*
X144136922Y-55039962D01*
X150809593Y-55039962D01*
X150809593Y-56475676D01*
G37*
X150514207Y-59347771D02*
X150466588Y-59419200D01*
X150466588Y-59419200D02*
X150323731Y-59490628D01*
X150323731Y-59490628D02*
X150228493Y-59490628D01*
X150228493Y-59490628D02*
X150085636Y-59419200D01*
X150085636Y-59419200D02*
X149990398Y-59276342D01*
X149990398Y-59276342D02*
X149942779Y-59133485D01*
X149942779Y-59133485D02*
X149895160Y-58847771D01*
X149895160Y-58847771D02*
X149895160Y-58633485D01*
X149895160Y-58633485D02*
X149942779Y-58347771D01*
X149942779Y-58347771D02*
X149990398Y-58204914D01*
X149990398Y-58204914D02*
X150085636Y-58062057D01*
X150085636Y-58062057D02*
X150228493Y-57990628D01*
X150228493Y-57990628D02*
X150323731Y-57990628D01*
X150323731Y-57990628D02*
X150466588Y-58062057D01*
X150466588Y-58062057D02*
X150514207Y-58133485D01*
X150895160Y-59419200D02*
X151038017Y-59490628D01*
X151038017Y-59490628D02*
X151276112Y-59490628D01*
X151276112Y-59490628D02*
X151371350Y-59419200D01*
X151371350Y-59419200D02*
X151418969Y-59347771D01*
X151418969Y-59347771D02*
X151466588Y-59204914D01*
X151466588Y-59204914D02*
X151466588Y-59062057D01*
X151466588Y-59062057D02*
X151418969Y-58919200D01*
X151418969Y-58919200D02*
X151371350Y-58847771D01*
X151371350Y-58847771D02*
X151276112Y-58776342D01*
X151276112Y-58776342D02*
X151085636Y-58704914D01*
X151085636Y-58704914D02*
X150990398Y-58633485D01*
X150990398Y-58633485D02*
X150942779Y-58562057D01*
X150942779Y-58562057D02*
X150895160Y-58419200D01*
X150895160Y-58419200D02*
X150895160Y-58276342D01*
X150895160Y-58276342D02*
X150942779Y-58133485D01*
X150942779Y-58133485D02*
X150990398Y-58062057D01*
X150990398Y-58062057D02*
X151085636Y-57990628D01*
X151085636Y-57990628D02*
X151323731Y-57990628D01*
X151323731Y-57990628D02*
X151466588Y-58062057D01*
X149942779Y-61905628D02*
X149942779Y-60405628D01*
X149942779Y-60405628D02*
X150276112Y-61477057D01*
X150276112Y-61477057D02*
X150609445Y-60405628D01*
X150609445Y-60405628D02*
X150609445Y-61905628D01*
X151276112Y-60405628D02*
X151466588Y-60405628D01*
X151466588Y-60405628D02*
X151561826Y-60477057D01*
X151561826Y-60477057D02*
X151657064Y-60619914D01*
X151657064Y-60619914D02*
X151704683Y-60905628D01*
X151704683Y-60905628D02*
X151704683Y-61405628D01*
X151704683Y-61405628D02*
X151657064Y-61691342D01*
X151657064Y-61691342D02*
X151561826Y-61834200D01*
X151561826Y-61834200D02*
X151466588Y-61905628D01*
X151466588Y-61905628D02*
X151276112Y-61905628D01*
X151276112Y-61905628D02*
X151180874Y-61834200D01*
X151180874Y-61834200D02*
X151085636Y-61691342D01*
X151085636Y-61691342D02*
X151038017Y-61405628D01*
X151038017Y-61405628D02*
X151038017Y-60905628D01*
X151038017Y-60905628D02*
X151085636Y-60619914D01*
X151085636Y-60619914D02*
X151180874Y-60477057D01*
X151180874Y-60477057D02*
X151276112Y-60405628D01*
X152085636Y-61834200D02*
X152228493Y-61905628D01*
X152228493Y-61905628D02*
X152466588Y-61905628D01*
X152466588Y-61905628D02*
X152561826Y-61834200D01*
X152561826Y-61834200D02*
X152609445Y-61762771D01*
X152609445Y-61762771D02*
X152657064Y-61619914D01*
X152657064Y-61619914D02*
X152657064Y-61477057D01*
X152657064Y-61477057D02*
X152609445Y-61334200D01*
X152609445Y-61334200D02*
X152561826Y-61262771D01*
X152561826Y-61262771D02*
X152466588Y-61191342D01*
X152466588Y-61191342D02*
X152276112Y-61119914D01*
X152276112Y-61119914D02*
X152180874Y-61048485D01*
X152180874Y-61048485D02*
X152133255Y-60977057D01*
X152133255Y-60977057D02*
X152085636Y-60834200D01*
X152085636Y-60834200D02*
X152085636Y-60691342D01*
X152085636Y-60691342D02*
X152133255Y-60548485D01*
X152133255Y-60548485D02*
X152180874Y-60477057D01*
X152180874Y-60477057D02*
X152276112Y-60405628D01*
X152276112Y-60405628D02*
X152514207Y-60405628D01*
X152514207Y-60405628D02*
X152657064Y-60477057D01*
X153085636Y-61905628D02*
X153085636Y-60405628D01*
X149942779Y-64320628D02*
X149942779Y-62820628D01*
X149942779Y-62820628D02*
X150276112Y-63892057D01*
X150276112Y-63892057D02*
X150609445Y-62820628D01*
X150609445Y-62820628D02*
X150609445Y-64320628D01*
X151085636Y-64320628D02*
X151085636Y-62820628D01*
X151514207Y-64249200D02*
X151657064Y-64320628D01*
X151657064Y-64320628D02*
X151895159Y-64320628D01*
X151895159Y-64320628D02*
X151990397Y-64249200D01*
X151990397Y-64249200D02*
X152038016Y-64177771D01*
X152038016Y-64177771D02*
X152085635Y-64034914D01*
X152085635Y-64034914D02*
X152085635Y-63892057D01*
X152085635Y-63892057D02*
X152038016Y-63749200D01*
X152038016Y-63749200D02*
X151990397Y-63677771D01*
X151990397Y-63677771D02*
X151895159Y-63606342D01*
X151895159Y-63606342D02*
X151704683Y-63534914D01*
X151704683Y-63534914D02*
X151609445Y-63463485D01*
X151609445Y-63463485D02*
X151561826Y-63392057D01*
X151561826Y-63392057D02*
X151514207Y-63249200D01*
X151514207Y-63249200D02*
X151514207Y-63106342D01*
X151514207Y-63106342D02*
X151561826Y-62963485D01*
X151561826Y-62963485D02*
X151609445Y-62892057D01*
X151609445Y-62892057D02*
X151704683Y-62820628D01*
X151704683Y-62820628D02*
X151942778Y-62820628D01*
X151942778Y-62820628D02*
X152085635Y-62892057D01*
X152704683Y-62820628D02*
X152895159Y-62820628D01*
X152895159Y-62820628D02*
X152990397Y-62892057D01*
X152990397Y-62892057D02*
X153085635Y-63034914D01*
X153085635Y-63034914D02*
X153133254Y-63320628D01*
X153133254Y-63320628D02*
X153133254Y-63820628D01*
X153133254Y-63820628D02*
X153085635Y-64106342D01*
X153085635Y-64106342D02*
X152990397Y-64249200D01*
X152990397Y-64249200D02*
X152895159Y-64320628D01*
X152895159Y-64320628D02*
X152704683Y-64320628D01*
X152704683Y-64320628D02*
X152609445Y-64249200D01*
X152609445Y-64249200D02*
X152514207Y-64106342D01*
X152514207Y-64106342D02*
X152466588Y-63820628D01*
X152466588Y-63820628D02*
X152466588Y-63320628D01*
X152466588Y-63320628D02*
X152514207Y-63034914D01*
X152514207Y-63034914D02*
X152609445Y-62892057D01*
X152609445Y-62892057D02*
X152704683Y-62820628D01*
X150514207Y-66592771D02*
X150466588Y-66664200D01*
X150466588Y-66664200D02*
X150323731Y-66735628D01*
X150323731Y-66735628D02*
X150228493Y-66735628D01*
X150228493Y-66735628D02*
X150085636Y-66664200D01*
X150085636Y-66664200D02*
X149990398Y-66521342D01*
X149990398Y-66521342D02*
X149942779Y-66378485D01*
X149942779Y-66378485D02*
X149895160Y-66092771D01*
X149895160Y-66092771D02*
X149895160Y-65878485D01*
X149895160Y-65878485D02*
X149942779Y-65592771D01*
X149942779Y-65592771D02*
X149990398Y-65449914D01*
X149990398Y-65449914D02*
X150085636Y-65307057D01*
X150085636Y-65307057D02*
X150228493Y-65235628D01*
X150228493Y-65235628D02*
X150323731Y-65235628D01*
X150323731Y-65235628D02*
X150466588Y-65307057D01*
X150466588Y-65307057D02*
X150514207Y-65378485D01*
X151418969Y-66735628D02*
X150942779Y-66735628D01*
X150942779Y-66735628D02*
X150942779Y-65235628D01*
X151752303Y-66735628D02*
X151752303Y-65235628D01*
X152323731Y-66735628D02*
X151895160Y-65878485D01*
X152323731Y-65235628D02*
X151752303Y-66092771D01*
X150466588Y-67722057D02*
X150371350Y-67650628D01*
X150371350Y-67650628D02*
X150228493Y-67650628D01*
X150228493Y-67650628D02*
X150085636Y-67722057D01*
X150085636Y-67722057D02*
X149990398Y-67864914D01*
X149990398Y-67864914D02*
X149942779Y-68007771D01*
X149942779Y-68007771D02*
X149895160Y-68293485D01*
X149895160Y-68293485D02*
X149895160Y-68507771D01*
X149895160Y-68507771D02*
X149942779Y-68793485D01*
X149942779Y-68793485D02*
X149990398Y-68936342D01*
X149990398Y-68936342D02*
X150085636Y-69079200D01*
X150085636Y-69079200D02*
X150228493Y-69150628D01*
X150228493Y-69150628D02*
X150323731Y-69150628D01*
X150323731Y-69150628D02*
X150466588Y-69079200D01*
X150466588Y-69079200D02*
X150514207Y-69007771D01*
X150514207Y-69007771D02*
X150514207Y-68507771D01*
X150514207Y-68507771D02*
X150323731Y-68507771D01*
X150942779Y-69150628D02*
X150942779Y-67650628D01*
X150942779Y-67650628D02*
X151514207Y-69150628D01*
X151514207Y-69150628D02*
X151514207Y-67650628D01*
X151990398Y-69150628D02*
X151990398Y-67650628D01*
X151990398Y-67650628D02*
X152228493Y-67650628D01*
X152228493Y-67650628D02*
X152371350Y-67722057D01*
X152371350Y-67722057D02*
X152466588Y-67864914D01*
X152466588Y-67864914D02*
X152514207Y-68007771D01*
X152514207Y-68007771D02*
X152561826Y-68293485D01*
X152561826Y-68293485D02*
X152561826Y-68507771D01*
X152561826Y-68507771D02*
X152514207Y-68793485D01*
X152514207Y-68793485D02*
X152466588Y-68936342D01*
X152466588Y-68936342D02*
X152371350Y-69079200D01*
X152371350Y-69079200D02*
X152228493Y-69150628D01*
X152228493Y-69150628D02*
X151990398Y-69150628D01*
G36*
X122323304Y-75258410D02*
G01*
X122353710Y-75288816D01*
X122387969Y-75357332D01*
X122387969Y-75607637D01*
X122353710Y-75676153D01*
X122323303Y-75706561D01*
X122254788Y-75740819D01*
X122147341Y-75740819D01*
X122078825Y-75706561D01*
X122048418Y-75676153D01*
X122014160Y-75607637D01*
X122014160Y-75357333D01*
X122048418Y-75288817D01*
X122078825Y-75258409D01*
X122147341Y-75224152D01*
X122254788Y-75224152D01*
X122323304Y-75258410D01*
G37*
G36*
X123835639Y-75252672D02*
G01*
X123864160Y-75309714D01*
X123864160Y-75325762D01*
X123537970Y-75390999D01*
X123537970Y-75309713D01*
X123566490Y-75252672D01*
X123623532Y-75224152D01*
X123778598Y-75224152D01*
X123835639Y-75252672D01*
G37*
G36*
X124157017Y-76033676D02*
G01*
X120721303Y-76033676D01*
X120721303Y-75387247D01*
X120864160Y-75387247D01*
X120865345Y-75390504D01*
X120866399Y-75405437D01*
X120914018Y-75595913D01*
X120916006Y-75598857D01*
X120919697Y-75611264D01*
X120967316Y-75706502D01*
X120968502Y-75707625D01*
X120981365Y-75725994D01*
X121076603Y-75821233D01*
X121080667Y-75823128D01*
X121083014Y-75826948D01*
X121105919Y-75839351D01*
X121248775Y-75886970D01*
X121250410Y-75886925D01*
X121272493Y-75890819D01*
X121367731Y-75890819D01*
X121369269Y-75890258D01*
X121391448Y-75886970D01*
X121534305Y-75839351D01*
X121537816Y-75836563D01*
X121542285Y-75836173D01*
X121563622Y-75821232D01*
X121611240Y-75773613D01*
X121632921Y-75727116D01*
X121619643Y-75677561D01*
X121577618Y-75648135D01*
X121526510Y-75652607D01*
X121505173Y-75667548D01*
X121470074Y-75702647D01*
X121355561Y-75740819D01*
X121284663Y-75740819D01*
X121170150Y-75702648D01*
X121096037Y-75628534D01*
X121094441Y-75625342D01*
X121864160Y-75625342D01*
X121865693Y-75629555D01*
X121864652Y-75633916D01*
X121872078Y-75658883D01*
X121919697Y-75754121D01*
X121920885Y-75755246D01*
X121933745Y-75773612D01*
X121981364Y-75821232D01*
X121982845Y-75821922D01*
X122000857Y-75835282D01*
X122096095Y-75882901D01*
X122100548Y-75883413D01*
X122103984Y-75886296D01*
X122129636Y-75890819D01*
X122272493Y-75890819D01*
X122276706Y-75889285D01*
X122281067Y-75890327D01*
X122306034Y-75882901D01*
X122401272Y-75835282D01*
X122402396Y-75834094D01*
X122420765Y-75821232D01*
X122426178Y-75815819D01*
X122816541Y-75815819D01*
X122834088Y-75864028D01*
X122878517Y-75889680D01*
X122929041Y-75880771D01*
X122962018Y-75841471D01*
X122966541Y-75815819D01*
X122966541Y-75672961D01*
X123387970Y-75672961D01*
X123389503Y-75677173D01*
X123388461Y-75681535D01*
X123395888Y-75706502D01*
X123443507Y-75801741D01*
X123451660Y-75809460D01*
X123456127Y-75819765D01*
X123477048Y-75835282D01*
X123572286Y-75882901D01*
X123576739Y-75883413D01*
X123580175Y-75886296D01*
X123605827Y-75890819D01*
X123796303Y-75890819D01*
X123800516Y-75889285D01*
X123804877Y-75890327D01*
X123829844Y-75882901D01*
X123925082Y-75835282D01*
X123960354Y-75798028D01*
X123963429Y-75746818D01*
X123932865Y-75705612D01*
X123882966Y-75693692D01*
X123858000Y-75701118D01*
X123778598Y-75740819D01*
X123623532Y-75740819D01*
X123566490Y-75712298D01*
X123537970Y-75655256D01*
X123537969Y-75543970D01*
X123953868Y-75460791D01*
X123964455Y-75454351D01*
X123976660Y-75452199D01*
X123985694Y-75441432D01*
X123997700Y-75434130D01*
X124001670Y-75422392D01*
X124009637Y-75412899D01*
X124014160Y-75387247D01*
X124014160Y-75292009D01*
X124012626Y-75287795D01*
X124013668Y-75283434D01*
X124006242Y-75258468D01*
X123958623Y-75163230D01*
X123950469Y-75155510D01*
X123946003Y-75145206D01*
X123925082Y-75129689D01*
X123829844Y-75082070D01*
X123825390Y-75081557D01*
X123821955Y-75078675D01*
X123796303Y-75074152D01*
X123605827Y-75074152D01*
X123601613Y-75075685D01*
X123597252Y-75074644D01*
X123572286Y-75082070D01*
X123477048Y-75129689D01*
X123469328Y-75137842D01*
X123459024Y-75142309D01*
X123443507Y-75163230D01*
X123395888Y-75258468D01*
X123395375Y-75262921D01*
X123392493Y-75266357D01*
X123387970Y-75292009D01*
X123387970Y-75672961D01*
X122966541Y-75672961D01*
X122966541Y-75357333D01*
X123000798Y-75288817D01*
X123031205Y-75258410D01*
X123099722Y-75224152D01*
X123177255Y-75224152D01*
X123225464Y-75206605D01*
X123251116Y-75162176D01*
X123242207Y-75111652D01*
X123202907Y-75078675D01*
X123177255Y-75074152D01*
X123082017Y-75074152D01*
X123077803Y-75075685D01*
X123073442Y-75074644D01*
X123048476Y-75082070D01*
X122958499Y-75127058D01*
X122948994Y-75100943D01*
X122904565Y-75075291D01*
X122854041Y-75084200D01*
X122821064Y-75123500D01*
X122816541Y-75149152D01*
X122816541Y-75815819D01*
X122426178Y-75815819D01*
X122468383Y-75773613D01*
X122469073Y-75772131D01*
X122482432Y-75754121D01*
X122530051Y-75658883D01*
X122530563Y-75654429D01*
X122533446Y-75650994D01*
X122537969Y-75625342D01*
X122537969Y-75339628D01*
X122536435Y-75335414D01*
X122537477Y-75331053D01*
X122530051Y-75306087D01*
X122482432Y-75210849D01*
X122481242Y-75209723D01*
X122468383Y-75191357D01*
X122420764Y-75143738D01*
X122419282Y-75143047D01*
X122401272Y-75129689D01*
X122306034Y-75082070D01*
X122301580Y-75081557D01*
X122298145Y-75078675D01*
X122272493Y-75074152D01*
X122129636Y-75074152D01*
X122125422Y-75075685D01*
X122121061Y-75074644D01*
X122096095Y-75082070D01*
X122000857Y-75129689D01*
X121999731Y-75130878D01*
X121981365Y-75143738D01*
X121933746Y-75191357D01*
X121933055Y-75192838D01*
X121919697Y-75210849D01*
X121872078Y-75306087D01*
X121871565Y-75310540D01*
X121868683Y-75313976D01*
X121864160Y-75339628D01*
X121864160Y-75625342D01*
X121094441Y-75625342D01*
X121057543Y-75551546D01*
X121014160Y-75378012D01*
X121014160Y-75253624D01*
X121057543Y-75080090D01*
X121096037Y-75003103D01*
X121170149Y-74928990D01*
X121284663Y-74890819D01*
X121355561Y-74890819D01*
X121470074Y-74928990D01*
X121505174Y-74964090D01*
X121551670Y-74985771D01*
X121601225Y-74972494D01*
X121630651Y-74930468D01*
X121626180Y-74879361D01*
X121611240Y-74858024D01*
X121563621Y-74810405D01*
X121559557Y-74808510D01*
X121557210Y-74804689D01*
X121534305Y-74792287D01*
X121391448Y-74744668D01*
X121389813Y-74744712D01*
X121367731Y-74740819D01*
X121272493Y-74740819D01*
X121270955Y-74741378D01*
X121248775Y-74744668D01*
X121105919Y-74792287D01*
X121102408Y-74795073D01*
X121097940Y-74795464D01*
X121076603Y-74810405D01*
X120981365Y-74905643D01*
X120980674Y-74907124D01*
X120967316Y-74925135D01*
X120919697Y-75020373D01*
X120919290Y-75023901D01*
X120914018Y-75035724D01*
X120866399Y-75226200D01*
X120866759Y-75229648D01*
X120864160Y-75244390D01*
X120864160Y-75387247D01*
X120721303Y-75387247D01*
X120721303Y-74597962D01*
X124157017Y-74597962D01*
X124157017Y-76033676D01*
G37*
X149847541Y-72984628D02*
X150466588Y-72984628D01*
X150466588Y-72984628D02*
X150133255Y-73556057D01*
X150133255Y-73556057D02*
X150276112Y-73556057D01*
X150276112Y-73556057D02*
X150371350Y-73627485D01*
X150371350Y-73627485D02*
X150418969Y-73698914D01*
X150418969Y-73698914D02*
X150466588Y-73841771D01*
X150466588Y-73841771D02*
X150466588Y-74198914D01*
X150466588Y-74198914D02*
X150418969Y-74341771D01*
X150418969Y-74341771D02*
X150371350Y-74413200D01*
X150371350Y-74413200D02*
X150276112Y-74484628D01*
X150276112Y-74484628D02*
X149990398Y-74484628D01*
X149990398Y-74484628D02*
X149895160Y-74413200D01*
X149895160Y-74413200D02*
X149847541Y-74341771D01*
X150895160Y-74341771D02*
X150942779Y-74413200D01*
X150942779Y-74413200D02*
X150895160Y-74484628D01*
X150895160Y-74484628D02*
X150847541Y-74413200D01*
X150847541Y-74413200D02*
X150895160Y-74341771D01*
X150895160Y-74341771D02*
X150895160Y-74484628D01*
X151276112Y-72984628D02*
X151895159Y-72984628D01*
X151895159Y-72984628D02*
X151561826Y-73556057D01*
X151561826Y-73556057D02*
X151704683Y-73556057D01*
X151704683Y-73556057D02*
X151799921Y-73627485D01*
X151799921Y-73627485D02*
X151847540Y-73698914D01*
X151847540Y-73698914D02*
X151895159Y-73841771D01*
X151895159Y-73841771D02*
X151895159Y-74198914D01*
X151895159Y-74198914D02*
X151847540Y-74341771D01*
X151847540Y-74341771D02*
X151799921Y-74413200D01*
X151799921Y-74413200D02*
X151704683Y-74484628D01*
X151704683Y-74484628D02*
X151418969Y-74484628D01*
X151418969Y-74484628D02*
X151323731Y-74413200D01*
X151323731Y-74413200D02*
X151276112Y-74341771D01*
X152180874Y-72984628D02*
X152514207Y-74484628D01*
X152514207Y-74484628D02*
X152847540Y-72984628D01*
X147240666Y-75444819D02*
X147240666Y-76159104D01*
X147240666Y-76159104D02*
X147193047Y-76301961D01*
X147193047Y-76301961D02*
X147097809Y-76397200D01*
X147097809Y-76397200D02*
X146954952Y-76444819D01*
X146954952Y-76444819D02*
X146859714Y-76444819D01*
X147669238Y-75540057D02*
X147716857Y-75492438D01*
X147716857Y-75492438D02*
X147812095Y-75444819D01*
X147812095Y-75444819D02*
X148050190Y-75444819D01*
X148050190Y-75444819D02*
X148145428Y-75492438D01*
X148145428Y-75492438D02*
X148193047Y-75540057D01*
X148193047Y-75540057D02*
X148240666Y-75635295D01*
X148240666Y-75635295D02*
X148240666Y-75730533D01*
X148240666Y-75730533D02*
X148193047Y-75873390D01*
X148193047Y-75873390D02*
X147621619Y-76444819D01*
X147621619Y-76444819D02*
X148240666Y-76444819D01*
X122016666Y-55544819D02*
X122016666Y-56259104D01*
X122016666Y-56259104D02*
X121969047Y-56401961D01*
X121969047Y-56401961D02*
X121873809Y-56497200D01*
X121873809Y-56497200D02*
X121730952Y-56544819D01*
X121730952Y-56544819D02*
X121635714Y-56544819D01*
X123016666Y-56544819D02*
X122445238Y-56544819D01*
X122730952Y-56544819D02*
X122730952Y-55544819D01*
X122730952Y-55544819D02*
X122635714Y-55687676D01*
X122635714Y-55687676D02*
X122540476Y-55782914D01*
X122540476Y-55782914D02*
X122445238Y-55830533D01*
D11*
%TO.C,J2*%
X148904000Y-74990000D02*
X147574000Y-74990000D01*
X148904000Y-73660000D02*
X148904000Y-74990000D01*
X148904000Y-72390000D02*
X148904000Y-57090000D01*
X148904000Y-72390000D02*
X146244000Y-72390000D01*
X148904000Y-57090000D02*
X146244000Y-57090000D01*
X146244000Y-72390000D02*
X146244000Y-57090000D01*
%TO.C,J1*%
X121020000Y-57090000D02*
X122350000Y-57090000D01*
X121020000Y-58420000D02*
X121020000Y-57090000D01*
X121020000Y-59690000D02*
X121020000Y-72450000D01*
X121020000Y-59690000D02*
X123680000Y-59690000D01*
X121020000Y-72450000D02*
X123680000Y-72450000D01*
X123680000Y-59690000D02*
X123680000Y-72450000D01*
%TD*%
M02*
