M48
; DRILL file {KiCad 7.0.1-0} date 2023 September 14, Thursday 23:19:30
; FORMAT={-:-/ absolute / inch / decimal}
; #@! TF.CreationDate,2023-09-14T23:19:30-07:00
; #@! TF.GenerationSoftware,Kicad,Pcbnew,7.0.1-0
; #@! TF.FileFunction,Plated,1,2,PTH
FMAT,2
INCH
; #@! TA.AperFunction,Plated,PTH,ViaDrill
T1C0.0120
; #@! TA.AperFunction,Plated,PTH,ComponentDrill
T2C0.0256
; #@! TA.AperFunction,Plated,PTH,ComponentDrill
T3C0.0394
; #@! TA.AperFunction,Plated,PTH,ComponentDrill
T4C0.1260
%
G90
G05
T1
X4.03Y-4.16
X4.1405Y-4.65
X4.2678Y-4.9122
X4.269Y-4.545
X4.3263Y-4.9723
X4.3435Y-4.8912
X4.38Y-4.47
X4.48Y-4.23
X4.4882Y-4.8386
X4.4961Y-4.908
X4.5331Y-4.21
X4.5512Y-4.829
X4.59Y-3.84
X4.59Y-4.77
X4.59Y-4.84
X4.5905Y-3.6196
X4.65Y-4.37
X4.6666Y-4.466
X4.6668Y-4.5291
X4.6874Y-3.9027
X4.7178Y-3.88
X4.72Y-3.42
X4.73Y-4.109
X4.73Y-4.27
X4.73Y-4.67
X4.7484Y-3.3411
X4.75Y-3.45
X4.751Y-3.56
X4.751Y-3.648
X4.76Y-4.022
X4.77Y-3.8
X4.777Y-3.181
X4.78Y-3.32
X4.791Y-4.449
X4.81Y-4.67
X4.8228Y-4.248
X4.8304Y-3.5177
X4.85Y-3.27
X4.8515Y-3.9111
X4.8547Y-3.8053
X4.8583Y-4.7283
X4.8695Y-4.3295
X4.87Y-4.26
X4.9094Y-3.8569
X4.9115Y-3.33
X4.9134Y-4.563
X4.92Y-4.11
X4.94Y-3.77
X4.9524Y-4.6256
X4.969Y-4.2005
X4.98Y-3.31
X4.98Y-4.051
X4.98Y-4.109
X4.9882Y-4.6732
X5.0Y-3.81
X5.01Y-4.51
X5.0157Y-4.8583
X5.0197Y-4.374
X5.02Y-4.01
X5.02Y-4.25
X5.03Y-3.96
X5.0385Y-3.37
X5.0512Y-4.8898
X5.0573Y-4.2
X5.0591Y-4.7717
X5.0688Y-3.7412
X5.0888Y-3.2488
X5.0913Y-4.36
X5.1075Y-4.8122
X5.1253Y-4.2
X5.1848Y-4.6965
X5.2217Y-4.8927
X5.2267Y-4.7611
X5.2635Y-3.92
X5.2774Y-3.4226
X5.2817Y-4.9146
X5.29Y-3.37
X5.2955Y-4.2745
X5.3386Y-3.939
X5.3543Y-4.956
X5.3622Y-4.8976
X5.39Y-3.254
X5.3939Y-4.7472
X5.41Y-3.939
X5.41Y-4.9127
X5.4486Y-3.2513
X5.45Y-3.45
X5.4646Y-4.2047
X5.4921Y-4.3268
X5.5128Y-4.9731
X5.5273Y-4.8927
X5.556Y-3.48
X5.57Y-3.339
X5.57Y-3.96
X5.5787Y-4.9301
X5.59Y-3.59
X5.5906Y-3.5
X5.5906Y-3.3709
X5.6117Y-4.1183
X5.626Y-4.6246
X5.6268Y-4.7484
X5.6299Y-3.7126
X5.63Y-3.43
X5.63Y-3.88
X5.63Y-4.3583
X5.6466Y-4.8828
X5.65Y-4.1
X5.659Y-3.8263
X5.6654Y-4.2835
X5.666Y-4.23
X5.668Y-3.43
X5.6693Y-4.4213
X5.67Y-3.79
X5.6818Y-4.8686
X5.7008Y-4.563
X5.7072Y-4.4234
X5.7095Y-3.8695
X5.71Y-3.43
X5.71Y-3.71
X5.71Y-4.1
X5.7298Y-4.7413
X5.7328Y-3.3206
X5.7395Y-3.8395
X5.7402Y-3.5118
X5.7402Y-5.0433
X5.752Y-3.4347
X5.7526Y-3.8038
X5.77Y-4.24
X5.7751Y-4.024
X5.7755Y-3.9
X5.7795Y-4.9547
X5.7874Y-5.0984
X5.7935Y-4.409
X5.8Y-4.65
X5.8045Y-4.0
X5.8241Y-5.0433
X5.8271Y-4.539
X5.831Y-4.68
X5.8443Y-4.8243
X5.8465Y-5.0127
X5.86Y-4.72
X5.866Y-3.3307
X5.8884Y-4.8145
X5.89Y-3.984
X5.91Y-3.44
X5.9145Y-5.0748
X5.9213Y-3.916
X5.9223Y-4.8707
X5.93Y-4.63
X5.9331Y-5.0127
X5.9409Y-3.4173
X5.9544Y-4.9502
X5.9577Y-3.9052
X5.9606Y-3.2874
X5.9725Y-5.0567
X5.975Y-4.6829
X5.991Y-3.84
X5.9959Y-4.8588
X6.0079Y-4.8227
X6.0197Y-4.6142
X6.0304Y-5.0571
X6.0386Y-4.8746
X6.05Y-3.84
X6.07Y-4.72
X6.07Y-4.7827
X6.0757Y-5.0127
X6.091Y-4.6614
X6.1065Y-4.9291
X6.1181Y-4.7947
X6.1523Y-4.6627
X6.1576Y-3.9457
X6.2008Y-4.018
X6.22Y-4.68
X6.22Y-4.7827
X6.2232Y-5.0748
X6.23Y-4.16
X6.2398Y-4.8918
X6.25Y-4.47
X6.252Y-4.9646
X6.2598Y-4.6693
X6.2598Y-4.7827
X6.26Y-3.94
X6.2677Y-4.8465
X6.2717Y-4.2205
X6.2801Y-4.158
X6.29Y-3.29
X6.2965Y-5.0906
X6.2992Y-4.9606
X6.2992Y-5.0186
X6.3359Y-5.0945
X6.3465Y-3.3386
X6.3699Y-4.9724
X6.3819Y-3.937
X6.3853Y-4.0847
X6.4037Y-4.3463
X6.4134Y-4.5653
X6.42Y-3.66
X6.4252Y-3.6102
X6.44Y-4.47
X6.4418Y-4.3562
X6.4724Y-4.7756
T2
X4.67Y-3.11
X4.67Y-3.16
X4.67Y-3.21
X4.67Y-3.26
X4.67Y-3.31
X4.67Y-3.36
X4.67Y-3.41
X4.67Y-3.46
X4.67Y-3.51
X4.67Y-3.56
X4.67Y-3.61
X4.67Y-3.66
X4.67Y-3.71
X4.67Y-3.76
X4.67Y-3.81
X5.0696Y-3.16
X5.1196Y-3.16
X5.1696Y-3.16
X5.2196Y-3.16
X5.2696Y-3.16
X5.3196Y-3.16
X5.3696Y-3.16
X5.4196Y-3.16
X5.4696Y-3.16
X5.5196Y-3.16
X5.5696Y-3.16
X5.6196Y-3.16
X5.6696Y-3.16
X5.7196Y-3.16
X5.7696Y-3.16
T3
X4.3382Y-2.9211
X4.3382Y-3.0302
X4.3382Y-3.1393
X4.3382Y-3.2483
X4.3382Y-3.3574
X4.3382Y-3.4664
X4.3382Y-3.5755
X4.45Y-2.8666
X4.45Y-2.9757
X4.45Y-3.0847
X4.45Y-3.1938
X4.45Y-3.3028
X4.45Y-3.4119
X4.45Y-3.5209
X4.45Y-3.63
X5.0391Y-2.9425
X5.0936Y-2.8307
X5.1481Y-2.9425
X5.2027Y-2.8307
X5.2572Y-2.9425
X5.3117Y-2.8307
X5.3663Y-2.9425
X5.4208Y-2.8307
X5.4753Y-2.9425
X5.5298Y-2.8307
X5.5844Y-2.9425
X5.6389Y-2.8307
X5.6934Y-2.9425
X5.748Y-2.8307
X5.8025Y-2.9425
T4
X4.3941Y-2.5928
X4.3941Y-3.9038
X4.7653Y-2.8866
X6.0763Y-2.8866
T0
M30
