%TF.GenerationSoftware,KiCad,Pcbnew,7.0.7*%
%TF.CreationDate,2024-02-19T11:01:40-08:00*%
%TF.ProjectId,MOSFET-board,4d4f5346-4554-42d6-926f-6172642e6b69,rev?*%
%TF.SameCoordinates,Original*%
%TF.FileFunction,Profile,NP*%
%FSLAX46Y46*%
G04 Gerber Fmt 4.6, Leading zero omitted, Abs format (unit mm)*
G04 Created by KiCad (PCBNEW 7.0.7) date 2024-02-19 11:01:40*
%MOMM*%
%LPD*%
G01*
G04 APERTURE LIST*
%TA.AperFunction,Profile*%
%ADD10C,0.100000*%
%TD*%
%TA.AperFunction,Profile*%
%ADD11C,0.120000*%
%TD*%
G04 APERTURE END LIST*
D10*
X209555000Y-134389000D02*
X216281000Y-134389000D01*
X216154000Y-63500000D02*
X216281000Y-134389000D01*
X116046000Y-68580000D02*
G75*
G03*
X116046000Y-68580000I-2000000J0D01*
G01*
X108966000Y-63500000D02*
X216154000Y-63500000D01*
X108995000Y-135059000D02*
X108966000Y-63500000D01*
X213074000Y-68580000D02*
G75*
G03*
X213074000Y-68580000I-2000000J0D01*
G01*
%TO.C,J4*%
X209565000Y-147899000D02*
X209065000Y-148399000D01*
X209555000Y-134389000D02*
X209565000Y-147899000D01*
X209065000Y-148399000D02*
X198865000Y-148399000D01*
X198365000Y-147899000D02*
X198865000Y-148399000D01*
X198365000Y-140949000D02*
X198365000Y-147899000D01*
X196465000Y-147899000D02*
X195965000Y-148399000D01*
X196465000Y-140949000D02*
X196465000Y-147899000D01*
X195965000Y-148399000D02*
X125765000Y-148399000D01*
X125265000Y-147899000D02*
X125765000Y-148399000D01*
X125265000Y-139999000D02*
X125265000Y-147899000D01*
D11*
X122455000Y-145809000D02*
X111125000Y-145809000D01*
X122455000Y-139979000D02*
X122455000Y-145809000D01*
X115375000Y-139859000D02*
X115375000Y-136039000D01*
X114424541Y-135059000D02*
X108995000Y-135059000D01*
X114395000Y-140809459D02*
X109705000Y-140829000D01*
X111125000Y-145809000D02*
X110385000Y-144529000D01*
X110385000Y-144529000D02*
X109705000Y-143349000D01*
X109705000Y-140829000D02*
X109705000Y-143349000D01*
D10*
X198365000Y-140949000D02*
G75*
G03*
X196465000Y-140949000I-950000J0D01*
G01*
D11*
X125263366Y-140008735D02*
G75*
G03*
X122455001Y-139979000I-1408366J-380265D01*
G01*
X114395000Y-140809459D02*
G75*
G03*
X115375000Y-139859000I0J980459D01*
G01*
X115375060Y-136039000D02*
G75*
G03*
X114424541Y-135059000I-980560J-100D01*
G01*
%TD*%
M02*
