%TF.GenerationSoftware,KiCad,Pcbnew,7.0.7*%
%TF.CreationDate,2024-02-19T11:01:40-08:00*%
%TF.ProjectId,MOSFET-board,4d4f5346-4554-42d6-926f-6172642e6b69,rev?*%
%TF.SameCoordinates,Original*%
%TF.FileFunction,Paste,Bot*%
%TF.FilePolarity,Positive*%
%FSLAX46Y46*%
G04 Gerber Fmt 4.6, Leading zero omitted, Abs format (unit mm)*
G04 Created by KiCad (PCBNEW 7.0.7) date 2024-02-19 11:01:40*
%MOMM*%
%LPD*%
G01*
G04 APERTURE LIST*
G04 Aperture macros list*
%AMRoundRect*
0 Rectangle with rounded corners*
0 $1 Rounding radius*
0 $2 $3 $4 $5 $6 $7 $8 $9 X,Y pos of 4 corners*
0 Add a 4 corners polygon primitive as box body*
4,1,4,$2,$3,$4,$5,$6,$7,$8,$9,$2,$3,0*
0 Add four circle primitives for the rounded corners*
1,1,$1+$1,$2,$3*
1,1,$1+$1,$4,$5*
1,1,$1+$1,$6,$7*
1,1,$1+$1,$8,$9*
0 Add four rect primitives between the rounded corners*
20,1,$1+$1,$2,$3,$4,$5,0*
20,1,$1+$1,$4,$5,$6,$7,0*
20,1,$1+$1,$6,$7,$8,$9,0*
20,1,$1+$1,$8,$9,$2,$3,0*%
G04 Aperture macros list end*
%ADD10C,0.010000*%
%ADD11RoundRect,0.250000X-0.712500X-2.475000X0.712500X-2.475000X0.712500X2.475000X-0.712500X2.475000X0*%
%ADD12RoundRect,0.200000X-0.275000X0.200000X-0.275000X-0.200000X0.275000X-0.200000X0.275000X0.200000X0*%
%ADD13RoundRect,0.200000X-0.200000X-0.275000X0.200000X-0.275000X0.200000X0.275000X-0.200000X0.275000X0*%
%ADD14RoundRect,0.218750X-0.218750X-0.256250X0.218750X-0.256250X0.218750X0.256250X-0.218750X0.256250X0*%
%ADD15RoundRect,0.200000X0.275000X-0.200000X0.275000X0.200000X-0.275000X0.200000X-0.275000X-0.200000X0*%
%ADD16RoundRect,0.218750X0.218750X0.256250X-0.218750X0.256250X-0.218750X-0.256250X0.218750X-0.256250X0*%
%ADD17RoundRect,0.088500X0.206500X-0.606500X0.206500X0.606500X-0.206500X0.606500X-0.206500X-0.606500X0*%
%ADD18RoundRect,0.039900X-0.800100X-0.245100X0.800100X-0.245100X0.800100X0.245100X-0.800100X0.245100X0*%
%ADD19RoundRect,0.250000X0.712500X2.475000X-0.712500X2.475000X-0.712500X-2.475000X0.712500X-2.475000X0*%
%ADD20RoundRect,0.200000X0.200000X0.275000X-0.200000X0.275000X-0.200000X-0.275000X0.200000X-0.275000X0*%
%ADD21RoundRect,0.088500X-0.606500X-0.206500X0.606500X-0.206500X0.606500X0.206500X-0.606500X0.206500X0*%
%ADD22RoundRect,0.039900X0.800100X0.245100X-0.800100X0.245100X-0.800100X-0.245100X0.800100X-0.245100X0*%
G04 APERTURE END LIST*
%TO.C,U7*%
D10*
X135453000Y-113345000D02*
X133777000Y-113345000D01*
X133777000Y-110815000D01*
X135453000Y-110815000D01*
X135453000Y-113345000D01*
G36*
X135453000Y-113345000D02*
G01*
X133777000Y-113345000D01*
X133777000Y-110815000D01*
X135453000Y-110815000D01*
X135453000Y-113345000D01*
G37*
%TO.C,U8*%
X187828000Y-89240000D02*
X186152000Y-89240000D01*
X186152000Y-86710000D01*
X187828000Y-86710000D01*
X187828000Y-89240000D01*
G36*
X187828000Y-89240000D02*
G01*
X186152000Y-89240000D01*
X186152000Y-86710000D01*
X187828000Y-86710000D01*
X187828000Y-89240000D01*
G37*
%TO.C,U10*%
X187953000Y-111710000D02*
X186277000Y-111710000D01*
X186277000Y-109180000D01*
X187953000Y-109180000D01*
X187953000Y-111710000D01*
G36*
X187953000Y-111710000D02*
G01*
X186277000Y-111710000D01*
X186277000Y-109180000D01*
X187953000Y-109180000D01*
X187953000Y-111710000D01*
G37*
%TO.C,U9*%
X136002750Y-92326000D02*
X134326750Y-92326000D01*
X134326750Y-89796000D01*
X136002750Y-89796000D01*
X136002750Y-92326000D01*
G36*
X136002750Y-92326000D02*
G01*
X134326750Y-92326000D01*
X134326750Y-89796000D01*
X136002750Y-89796000D01*
X136002750Y-92326000D01*
G37*
%TD*%
D11*
%TO.C,F8*%
X188242500Y-94870000D03*
X195017500Y-94870000D03*
%TD*%
D12*
%TO.C,R97*%
X179930000Y-86945000D03*
X179930000Y-88595000D03*
%TD*%
D13*
%TO.C,R26*%
X182905000Y-95795000D03*
X184555000Y-95795000D03*
%TD*%
D14*
%TO.C,D48*%
X185700000Y-121125000D03*
X187275000Y-121125000D03*
%TD*%
D15*
%TO.C,R107*%
X192855000Y-86070000D03*
X192855000Y-84420000D03*
%TD*%
D11*
%TO.C,F9*%
X190687500Y-117925000D03*
X197462500Y-117925000D03*
%TD*%
D12*
%TO.C,R78*%
X177125000Y-108025000D03*
X177125000Y-109675000D03*
%TD*%
D15*
%TO.C,R1*%
X141675000Y-117600000D03*
X141675000Y-115950000D03*
%TD*%
D12*
%TO.C,R71*%
X143900000Y-109750000D03*
X143900000Y-111400000D03*
%TD*%
D16*
%TO.C,D25*%
X184467500Y-92820000D03*
X182892500Y-92820000D03*
%TD*%
D17*
%TO.C,U29*%
X185450000Y-106252500D03*
X184500000Y-106252500D03*
X183550000Y-106252500D03*
X183550000Y-103922500D03*
X184500000Y-103922500D03*
X185450000Y-103922500D03*
%TD*%
D18*
%TO.C,U7*%
X132000000Y-113985000D03*
X132000000Y-112715000D03*
X132000000Y-111445000D03*
X132000000Y-110175000D03*
X137230000Y-110175000D03*
X137230000Y-111445000D03*
X137230000Y-112715000D03*
X137230000Y-113985000D03*
%TD*%
D19*
%TO.C,F2*%
X134328571Y-119213999D03*
X127553571Y-119213999D03*
%TD*%
D14*
%TO.C,D47*%
X182917500Y-98645000D03*
X184492500Y-98645000D03*
%TD*%
D12*
%TO.C,R77*%
X177055000Y-86995000D03*
X177055000Y-88645000D03*
%TD*%
D15*
%TO.C,R5*%
X141554750Y-96736000D03*
X141554750Y-95086000D03*
%TD*%
D20*
%TO.C,R88*%
X179925000Y-105875000D03*
X178275000Y-105875000D03*
%TD*%
D14*
%TO.C,D5*%
X137862500Y-95125000D03*
X139437500Y-95125000D03*
%TD*%
D15*
%TO.C,R102*%
X129204750Y-90786000D03*
X129204750Y-89136000D03*
%TD*%
D20*
%TO.C,R2*%
X139228571Y-118875000D03*
X137578571Y-118875000D03*
%TD*%
D13*
%TO.C,R30*%
X185650000Y-118450000D03*
X187300000Y-118450000D03*
%TD*%
D12*
%TO.C,R91*%
X141025000Y-109775000D03*
X141025000Y-111425000D03*
%TD*%
D20*
%TO.C,R87*%
X179930000Y-84070000D03*
X178280000Y-84070000D03*
%TD*%
D13*
%TO.C,R82*%
X142704750Y-86086000D03*
X144354750Y-86086000D03*
%TD*%
D15*
%TO.C,R29*%
X182825000Y-117125000D03*
X182825000Y-115475000D03*
%TD*%
D19*
%TO.C,F3*%
X135217250Y-98261000D03*
X128442250Y-98261000D03*
%TD*%
D17*
%TO.C,U28*%
X185305000Y-83452500D03*
X184355000Y-83452500D03*
X183405000Y-83452500D03*
X183405000Y-81122500D03*
X184355000Y-81122500D03*
X185305000Y-81122500D03*
%TD*%
D21*
%TO.C,U22*%
X136510000Y-107700000D03*
X136510000Y-106750000D03*
X136510000Y-105800000D03*
X138840000Y-105800000D03*
X138840000Y-106750000D03*
X138840000Y-107700000D03*
%TD*%
D14*
%TO.C,D1*%
X137637500Y-115950000D03*
X139212500Y-115950000D03*
%TD*%
D16*
%TO.C,D41*%
X138928571Y-121613999D03*
X137353571Y-121613999D03*
%TD*%
D15*
%TO.C,R101*%
X128750000Y-112000000D03*
X128750000Y-110350000D03*
%TD*%
D22*
%TO.C,U8*%
X189605000Y-86070000D03*
X189605000Y-87340000D03*
X189605000Y-88610000D03*
X189605000Y-89880000D03*
X184375000Y-89880000D03*
X184375000Y-88610000D03*
X184375000Y-87340000D03*
X184375000Y-86070000D03*
%TD*%
D12*
%TO.C,R98*%
X180000000Y-108000000D03*
X180000000Y-109650000D03*
%TD*%
D16*
%TO.C,D42*%
X139542250Y-101036000D03*
X137967250Y-101036000D03*
%TD*%
D12*
%TO.C,R92*%
X141529750Y-88786000D03*
X141529750Y-90436000D03*
%TD*%
D16*
%TO.C,D29*%
X187212500Y-115475000D03*
X185637500Y-115475000D03*
%TD*%
D15*
%TO.C,R25*%
X180605000Y-94470000D03*
X180605000Y-92820000D03*
%TD*%
D22*
%TO.C,U10*%
X189730000Y-108540000D03*
X189730000Y-109810000D03*
X189730000Y-111080000D03*
X189730000Y-112350000D03*
X184500000Y-112350000D03*
X184500000Y-111080000D03*
X184500000Y-109810000D03*
X184500000Y-108540000D03*
%TD*%
D12*
%TO.C,R72*%
X144404750Y-88811000D03*
X144404750Y-90461000D03*
%TD*%
D13*
%TO.C,R81*%
X142278571Y-108025000D03*
X143928571Y-108025000D03*
%TD*%
D21*
%TO.C,U23*%
X137387500Y-86820000D03*
X137387500Y-85870000D03*
X137387500Y-84920000D03*
X139717500Y-84920000D03*
X139717500Y-85870000D03*
X139717500Y-86820000D03*
%TD*%
D18*
%TO.C,U9*%
X132549750Y-92966000D03*
X132549750Y-91696000D03*
X132549750Y-90426000D03*
X132549750Y-89156000D03*
X137779750Y-89156000D03*
X137779750Y-90426000D03*
X137779750Y-91696000D03*
X137779750Y-92966000D03*
%TD*%
D15*
%TO.C,R108*%
X192550000Y-108525000D03*
X192550000Y-106875000D03*
%TD*%
D20*
%TO.C,R6*%
X139554750Y-98111000D03*
X137904750Y-98111000D03*
%TD*%
M02*
