%TF.GenerationSoftware,KiCad,Pcbnew,7.0.7*%
%TF.CreationDate,2024-02-19T11:01:40-08:00*%
%TF.ProjectId,MOSFET-board,4d4f5346-4554-42d6-926f-6172642e6b69,rev?*%
%TF.SameCoordinates,Original*%
%TF.FileFunction,Legend,Top*%
%TF.FilePolarity,Positive*%
%FSLAX46Y46*%
G04 Gerber Fmt 4.6, Leading zero omitted, Abs format (unit mm)*
G04 Created by KiCad (PCBNEW 7.0.7) date 2024-02-19 11:01:40*
%MOMM*%
%LPD*%
G01*
G04 APERTURE LIST*
%ADD10C,0.150000*%
%ADD11C,0.120000*%
%ADD12C,0.127000*%
%ADD13C,0.200000*%
G04 APERTURE END LIST*
D10*
X201702009Y-129231833D02*
X201702009Y-129565166D01*
X202225819Y-129565166D02*
X201225819Y-129565166D01*
X201225819Y-129565166D02*
X201225819Y-129088976D01*
X202225819Y-128184214D02*
X202225819Y-128755642D01*
X202225819Y-128469928D02*
X201225819Y-128469928D01*
X201225819Y-128469928D02*
X201368676Y-128565166D01*
X201368676Y-128565166D02*
X201463914Y-128660404D01*
X201463914Y-128660404D02*
X201511533Y-128755642D01*
X192491666Y-119181009D02*
X192158333Y-119181009D01*
X192158333Y-119704819D02*
X192158333Y-118704819D01*
X192158333Y-118704819D02*
X192634523Y-118704819D01*
X192920238Y-118704819D02*
X193586904Y-118704819D01*
X193586904Y-118704819D02*
X193158333Y-119704819D01*
X144547142Y-98154819D02*
X144213809Y-97678628D01*
X143975714Y-98154819D02*
X143975714Y-97154819D01*
X143975714Y-97154819D02*
X144356666Y-97154819D01*
X144356666Y-97154819D02*
X144451904Y-97202438D01*
X144451904Y-97202438D02*
X144499523Y-97250057D01*
X144499523Y-97250057D02*
X144547142Y-97345295D01*
X144547142Y-97345295D02*
X144547142Y-97488152D01*
X144547142Y-97488152D02*
X144499523Y-97583390D01*
X144499523Y-97583390D02*
X144451904Y-97631009D01*
X144451904Y-97631009D02*
X144356666Y-97678628D01*
X144356666Y-97678628D02*
X143975714Y-97678628D01*
X145118571Y-97583390D02*
X145023333Y-97535771D01*
X145023333Y-97535771D02*
X144975714Y-97488152D01*
X144975714Y-97488152D02*
X144928095Y-97392914D01*
X144928095Y-97392914D02*
X144928095Y-97345295D01*
X144928095Y-97345295D02*
X144975714Y-97250057D01*
X144975714Y-97250057D02*
X145023333Y-97202438D01*
X145023333Y-97202438D02*
X145118571Y-97154819D01*
X145118571Y-97154819D02*
X145309047Y-97154819D01*
X145309047Y-97154819D02*
X145404285Y-97202438D01*
X145404285Y-97202438D02*
X145451904Y-97250057D01*
X145451904Y-97250057D02*
X145499523Y-97345295D01*
X145499523Y-97345295D02*
X145499523Y-97392914D01*
X145499523Y-97392914D02*
X145451904Y-97488152D01*
X145451904Y-97488152D02*
X145404285Y-97535771D01*
X145404285Y-97535771D02*
X145309047Y-97583390D01*
X145309047Y-97583390D02*
X145118571Y-97583390D01*
X145118571Y-97583390D02*
X145023333Y-97631009D01*
X145023333Y-97631009D02*
X144975714Y-97678628D01*
X144975714Y-97678628D02*
X144928095Y-97773866D01*
X144928095Y-97773866D02*
X144928095Y-97964342D01*
X144928095Y-97964342D02*
X144975714Y-98059580D01*
X144975714Y-98059580D02*
X145023333Y-98107200D01*
X145023333Y-98107200D02*
X145118571Y-98154819D01*
X145118571Y-98154819D02*
X145309047Y-98154819D01*
X145309047Y-98154819D02*
X145404285Y-98107200D01*
X145404285Y-98107200D02*
X145451904Y-98059580D01*
X145451904Y-98059580D02*
X145499523Y-97964342D01*
X145499523Y-97964342D02*
X145499523Y-97773866D01*
X145499523Y-97773866D02*
X145451904Y-97678628D01*
X145451904Y-97678628D02*
X145404285Y-97631009D01*
X145404285Y-97631009D02*
X145309047Y-97583390D01*
X146404285Y-97154819D02*
X145928095Y-97154819D01*
X145928095Y-97154819D02*
X145880476Y-97631009D01*
X145880476Y-97631009D02*
X145928095Y-97583390D01*
X145928095Y-97583390D02*
X146023333Y-97535771D01*
X146023333Y-97535771D02*
X146261428Y-97535771D01*
X146261428Y-97535771D02*
X146356666Y-97583390D01*
X146356666Y-97583390D02*
X146404285Y-97631009D01*
X146404285Y-97631009D02*
X146451904Y-97726247D01*
X146451904Y-97726247D02*
X146451904Y-97964342D01*
X146451904Y-97964342D02*
X146404285Y-98059580D01*
X146404285Y-98059580D02*
X146356666Y-98107200D01*
X146356666Y-98107200D02*
X146261428Y-98154819D01*
X146261428Y-98154819D02*
X146023333Y-98154819D01*
X146023333Y-98154819D02*
X145928095Y-98107200D01*
X145928095Y-98107200D02*
X145880476Y-98059580D01*
X183149819Y-112319047D02*
X182673628Y-112652380D01*
X183149819Y-112890475D02*
X182149819Y-112890475D01*
X182149819Y-112890475D02*
X182149819Y-112509523D01*
X182149819Y-112509523D02*
X182197438Y-112414285D01*
X182197438Y-112414285D02*
X182245057Y-112366666D01*
X182245057Y-112366666D02*
X182340295Y-112319047D01*
X182340295Y-112319047D02*
X182483152Y-112319047D01*
X182483152Y-112319047D02*
X182578390Y-112366666D01*
X182578390Y-112366666D02*
X182626009Y-112414285D01*
X182626009Y-112414285D02*
X182673628Y-112509523D01*
X182673628Y-112509523D02*
X182673628Y-112890475D01*
X183149819Y-111366666D02*
X183149819Y-111938094D01*
X183149819Y-111652380D02*
X182149819Y-111652380D01*
X182149819Y-111652380D02*
X182292676Y-111747618D01*
X182292676Y-111747618D02*
X182387914Y-111842856D01*
X182387914Y-111842856D02*
X182435533Y-111938094D01*
X182149819Y-110747618D02*
X182149819Y-110652380D01*
X182149819Y-110652380D02*
X182197438Y-110557142D01*
X182197438Y-110557142D02*
X182245057Y-110509523D01*
X182245057Y-110509523D02*
X182340295Y-110461904D01*
X182340295Y-110461904D02*
X182530771Y-110414285D01*
X182530771Y-110414285D02*
X182768866Y-110414285D01*
X182768866Y-110414285D02*
X182959342Y-110461904D01*
X182959342Y-110461904D02*
X183054580Y-110509523D01*
X183054580Y-110509523D02*
X183102200Y-110557142D01*
X183102200Y-110557142D02*
X183149819Y-110652380D01*
X183149819Y-110652380D02*
X183149819Y-110747618D01*
X183149819Y-110747618D02*
X183102200Y-110842856D01*
X183102200Y-110842856D02*
X183054580Y-110890475D01*
X183054580Y-110890475D02*
X182959342Y-110938094D01*
X182959342Y-110938094D02*
X182768866Y-110985713D01*
X182768866Y-110985713D02*
X182530771Y-110985713D01*
X182530771Y-110985713D02*
X182340295Y-110938094D01*
X182340295Y-110938094D02*
X182245057Y-110890475D01*
X182245057Y-110890475D02*
X182197438Y-110842856D01*
X182197438Y-110842856D02*
X182149819Y-110747618D01*
X182149819Y-109795237D02*
X182149819Y-109699999D01*
X182149819Y-109699999D02*
X182197438Y-109604761D01*
X182197438Y-109604761D02*
X182245057Y-109557142D01*
X182245057Y-109557142D02*
X182340295Y-109509523D01*
X182340295Y-109509523D02*
X182530771Y-109461904D01*
X182530771Y-109461904D02*
X182768866Y-109461904D01*
X182768866Y-109461904D02*
X182959342Y-109509523D01*
X182959342Y-109509523D02*
X183054580Y-109557142D01*
X183054580Y-109557142D02*
X183102200Y-109604761D01*
X183102200Y-109604761D02*
X183149819Y-109699999D01*
X183149819Y-109699999D02*
X183149819Y-109795237D01*
X183149819Y-109795237D02*
X183102200Y-109890475D01*
X183102200Y-109890475D02*
X183054580Y-109938094D01*
X183054580Y-109938094D02*
X182959342Y-109985713D01*
X182959342Y-109985713D02*
X182768866Y-110033332D01*
X182768866Y-110033332D02*
X182530771Y-110033332D01*
X182530771Y-110033332D02*
X182340295Y-109985713D01*
X182340295Y-109985713D02*
X182245057Y-109938094D01*
X182245057Y-109938094D02*
X182197438Y-109890475D01*
X182197438Y-109890475D02*
X182149819Y-109795237D01*
X190388095Y-132979819D02*
X190388095Y-133789342D01*
X190388095Y-133789342D02*
X190435714Y-133884580D01*
X190435714Y-133884580D02*
X190483333Y-133932200D01*
X190483333Y-133932200D02*
X190578571Y-133979819D01*
X190578571Y-133979819D02*
X190769047Y-133979819D01*
X190769047Y-133979819D02*
X190864285Y-133932200D01*
X190864285Y-133932200D02*
X190911904Y-133884580D01*
X190911904Y-133884580D02*
X190959523Y-133789342D01*
X190959523Y-133789342D02*
X190959523Y-132979819D01*
X191864285Y-132979819D02*
X191673809Y-132979819D01*
X191673809Y-132979819D02*
X191578571Y-133027438D01*
X191578571Y-133027438D02*
X191530952Y-133075057D01*
X191530952Y-133075057D02*
X191435714Y-133217914D01*
X191435714Y-133217914D02*
X191388095Y-133408390D01*
X191388095Y-133408390D02*
X191388095Y-133789342D01*
X191388095Y-133789342D02*
X191435714Y-133884580D01*
X191435714Y-133884580D02*
X191483333Y-133932200D01*
X191483333Y-133932200D02*
X191578571Y-133979819D01*
X191578571Y-133979819D02*
X191769047Y-133979819D01*
X191769047Y-133979819D02*
X191864285Y-133932200D01*
X191864285Y-133932200D02*
X191911904Y-133884580D01*
X191911904Y-133884580D02*
X191959523Y-133789342D01*
X191959523Y-133789342D02*
X191959523Y-133551247D01*
X191959523Y-133551247D02*
X191911904Y-133456009D01*
X191911904Y-133456009D02*
X191864285Y-133408390D01*
X191864285Y-133408390D02*
X191769047Y-133360771D01*
X191769047Y-133360771D02*
X191578571Y-133360771D01*
X191578571Y-133360771D02*
X191483333Y-133408390D01*
X191483333Y-133408390D02*
X191435714Y-133456009D01*
X191435714Y-133456009D02*
X191388095Y-133551247D01*
X132384819Y-113369047D02*
X131908628Y-113702380D01*
X132384819Y-113940475D02*
X131384819Y-113940475D01*
X131384819Y-113940475D02*
X131384819Y-113559523D01*
X131384819Y-113559523D02*
X131432438Y-113464285D01*
X131432438Y-113464285D02*
X131480057Y-113416666D01*
X131480057Y-113416666D02*
X131575295Y-113369047D01*
X131575295Y-113369047D02*
X131718152Y-113369047D01*
X131718152Y-113369047D02*
X131813390Y-113416666D01*
X131813390Y-113416666D02*
X131861009Y-113464285D01*
X131861009Y-113464285D02*
X131908628Y-113559523D01*
X131908628Y-113559523D02*
X131908628Y-113940475D01*
X132384819Y-112416666D02*
X132384819Y-112988094D01*
X132384819Y-112702380D02*
X131384819Y-112702380D01*
X131384819Y-112702380D02*
X131527676Y-112797618D01*
X131527676Y-112797618D02*
X131622914Y-112892856D01*
X131622914Y-112892856D02*
X131670533Y-112988094D01*
X131384819Y-111797618D02*
X131384819Y-111702380D01*
X131384819Y-111702380D02*
X131432438Y-111607142D01*
X131432438Y-111607142D02*
X131480057Y-111559523D01*
X131480057Y-111559523D02*
X131575295Y-111511904D01*
X131575295Y-111511904D02*
X131765771Y-111464285D01*
X131765771Y-111464285D02*
X132003866Y-111464285D01*
X132003866Y-111464285D02*
X132194342Y-111511904D01*
X132194342Y-111511904D02*
X132289580Y-111559523D01*
X132289580Y-111559523D02*
X132337200Y-111607142D01*
X132337200Y-111607142D02*
X132384819Y-111702380D01*
X132384819Y-111702380D02*
X132384819Y-111797618D01*
X132384819Y-111797618D02*
X132337200Y-111892856D01*
X132337200Y-111892856D02*
X132289580Y-111940475D01*
X132289580Y-111940475D02*
X132194342Y-111988094D01*
X132194342Y-111988094D02*
X132003866Y-112035713D01*
X132003866Y-112035713D02*
X131765771Y-112035713D01*
X131765771Y-112035713D02*
X131575295Y-111988094D01*
X131575295Y-111988094D02*
X131480057Y-111940475D01*
X131480057Y-111940475D02*
X131432438Y-111892856D01*
X131432438Y-111892856D02*
X131384819Y-111797618D01*
X131718152Y-110607142D02*
X132384819Y-110607142D01*
X131337200Y-110845237D02*
X132051485Y-111083332D01*
X132051485Y-111083332D02*
X132051485Y-110464285D01*
X197834819Y-115344047D02*
X197358628Y-115677380D01*
X197834819Y-115915475D02*
X196834819Y-115915475D01*
X196834819Y-115915475D02*
X196834819Y-115534523D01*
X196834819Y-115534523D02*
X196882438Y-115439285D01*
X196882438Y-115439285D02*
X196930057Y-115391666D01*
X196930057Y-115391666D02*
X197025295Y-115344047D01*
X197025295Y-115344047D02*
X197168152Y-115344047D01*
X197168152Y-115344047D02*
X197263390Y-115391666D01*
X197263390Y-115391666D02*
X197311009Y-115439285D01*
X197311009Y-115439285D02*
X197358628Y-115534523D01*
X197358628Y-115534523D02*
X197358628Y-115915475D01*
X197834819Y-114391666D02*
X197834819Y-114963094D01*
X197834819Y-114677380D02*
X196834819Y-114677380D01*
X196834819Y-114677380D02*
X196977676Y-114772618D01*
X196977676Y-114772618D02*
X197072914Y-114867856D01*
X197072914Y-114867856D02*
X197120533Y-114963094D01*
X197834819Y-113439285D02*
X197834819Y-114010713D01*
X197834819Y-113724999D02*
X196834819Y-113724999D01*
X196834819Y-113724999D02*
X196977676Y-113820237D01*
X196977676Y-113820237D02*
X197072914Y-113915475D01*
X197072914Y-113915475D02*
X197120533Y-114010713D01*
X196834819Y-112820237D02*
X196834819Y-112724999D01*
X196834819Y-112724999D02*
X196882438Y-112629761D01*
X196882438Y-112629761D02*
X196930057Y-112582142D01*
X196930057Y-112582142D02*
X197025295Y-112534523D01*
X197025295Y-112534523D02*
X197215771Y-112486904D01*
X197215771Y-112486904D02*
X197453866Y-112486904D01*
X197453866Y-112486904D02*
X197644342Y-112534523D01*
X197644342Y-112534523D02*
X197739580Y-112582142D01*
X197739580Y-112582142D02*
X197787200Y-112629761D01*
X197787200Y-112629761D02*
X197834819Y-112724999D01*
X197834819Y-112724999D02*
X197834819Y-112820237D01*
X197834819Y-112820237D02*
X197787200Y-112915475D01*
X197787200Y-112915475D02*
X197739580Y-112963094D01*
X197739580Y-112963094D02*
X197644342Y-113010713D01*
X197644342Y-113010713D02*
X197453866Y-113058332D01*
X197453866Y-113058332D02*
X197215771Y-113058332D01*
X197215771Y-113058332D02*
X197025295Y-113010713D01*
X197025295Y-113010713D02*
X196930057Y-112963094D01*
X196930057Y-112963094D02*
X196882438Y-112915475D01*
X196882438Y-112915475D02*
X196834819Y-112820237D01*
X179804819Y-88417857D02*
X179328628Y-88751190D01*
X179804819Y-88989285D02*
X178804819Y-88989285D01*
X178804819Y-88989285D02*
X178804819Y-88608333D01*
X178804819Y-88608333D02*
X178852438Y-88513095D01*
X178852438Y-88513095D02*
X178900057Y-88465476D01*
X178900057Y-88465476D02*
X178995295Y-88417857D01*
X178995295Y-88417857D02*
X179138152Y-88417857D01*
X179138152Y-88417857D02*
X179233390Y-88465476D01*
X179233390Y-88465476D02*
X179281009Y-88513095D01*
X179281009Y-88513095D02*
X179328628Y-88608333D01*
X179328628Y-88608333D02*
X179328628Y-88989285D01*
X178804819Y-88084523D02*
X178804819Y-87465476D01*
X178804819Y-87465476D02*
X179185771Y-87798809D01*
X179185771Y-87798809D02*
X179185771Y-87655952D01*
X179185771Y-87655952D02*
X179233390Y-87560714D01*
X179233390Y-87560714D02*
X179281009Y-87513095D01*
X179281009Y-87513095D02*
X179376247Y-87465476D01*
X179376247Y-87465476D02*
X179614342Y-87465476D01*
X179614342Y-87465476D02*
X179709580Y-87513095D01*
X179709580Y-87513095D02*
X179757200Y-87560714D01*
X179757200Y-87560714D02*
X179804819Y-87655952D01*
X179804819Y-87655952D02*
X179804819Y-87941666D01*
X179804819Y-87941666D02*
X179757200Y-88036904D01*
X179757200Y-88036904D02*
X179709580Y-88084523D01*
X178804819Y-87132142D02*
X178804819Y-86513095D01*
X178804819Y-86513095D02*
X179185771Y-86846428D01*
X179185771Y-86846428D02*
X179185771Y-86703571D01*
X179185771Y-86703571D02*
X179233390Y-86608333D01*
X179233390Y-86608333D02*
X179281009Y-86560714D01*
X179281009Y-86560714D02*
X179376247Y-86513095D01*
X179376247Y-86513095D02*
X179614342Y-86513095D01*
X179614342Y-86513095D02*
X179709580Y-86560714D01*
X179709580Y-86560714D02*
X179757200Y-86608333D01*
X179757200Y-86608333D02*
X179804819Y-86703571D01*
X179804819Y-86703571D02*
X179804819Y-86989285D01*
X179804819Y-86989285D02*
X179757200Y-87084523D01*
X179757200Y-87084523D02*
X179709580Y-87132142D01*
X142591666Y-77579819D02*
X142591666Y-78294104D01*
X142591666Y-78294104D02*
X142544047Y-78436961D01*
X142544047Y-78436961D02*
X142448809Y-78532200D01*
X142448809Y-78532200D02*
X142305952Y-78579819D01*
X142305952Y-78579819D02*
X142210714Y-78579819D01*
X142972619Y-77579819D02*
X143591666Y-77579819D01*
X143591666Y-77579819D02*
X143258333Y-77960771D01*
X143258333Y-77960771D02*
X143401190Y-77960771D01*
X143401190Y-77960771D02*
X143496428Y-78008390D01*
X143496428Y-78008390D02*
X143544047Y-78056009D01*
X143544047Y-78056009D02*
X143591666Y-78151247D01*
X143591666Y-78151247D02*
X143591666Y-78389342D01*
X143591666Y-78389342D02*
X143544047Y-78484580D01*
X143544047Y-78484580D02*
X143496428Y-78532200D01*
X143496428Y-78532200D02*
X143401190Y-78579819D01*
X143401190Y-78579819D02*
X143115476Y-78579819D01*
X143115476Y-78579819D02*
X143020238Y-78532200D01*
X143020238Y-78532200D02*
X142972619Y-78484580D01*
X185357142Y-124054819D02*
X185023809Y-123578628D01*
X184785714Y-124054819D02*
X184785714Y-123054819D01*
X184785714Y-123054819D02*
X185166666Y-123054819D01*
X185166666Y-123054819D02*
X185261904Y-123102438D01*
X185261904Y-123102438D02*
X185309523Y-123150057D01*
X185309523Y-123150057D02*
X185357142Y-123245295D01*
X185357142Y-123245295D02*
X185357142Y-123388152D01*
X185357142Y-123388152D02*
X185309523Y-123483390D01*
X185309523Y-123483390D02*
X185261904Y-123531009D01*
X185261904Y-123531009D02*
X185166666Y-123578628D01*
X185166666Y-123578628D02*
X184785714Y-123578628D01*
X185738095Y-123150057D02*
X185785714Y-123102438D01*
X185785714Y-123102438D02*
X185880952Y-123054819D01*
X185880952Y-123054819D02*
X186119047Y-123054819D01*
X186119047Y-123054819D02*
X186214285Y-123102438D01*
X186214285Y-123102438D02*
X186261904Y-123150057D01*
X186261904Y-123150057D02*
X186309523Y-123245295D01*
X186309523Y-123245295D02*
X186309523Y-123340533D01*
X186309523Y-123340533D02*
X186261904Y-123483390D01*
X186261904Y-123483390D02*
X185690476Y-124054819D01*
X185690476Y-124054819D02*
X186309523Y-124054819D01*
X186690476Y-123150057D02*
X186738095Y-123102438D01*
X186738095Y-123102438D02*
X186833333Y-123054819D01*
X186833333Y-123054819D02*
X187071428Y-123054819D01*
X187071428Y-123054819D02*
X187166666Y-123102438D01*
X187166666Y-123102438D02*
X187214285Y-123150057D01*
X187214285Y-123150057D02*
X187261904Y-123245295D01*
X187261904Y-123245295D02*
X187261904Y-123340533D01*
X187261904Y-123340533D02*
X187214285Y-123483390D01*
X187214285Y-123483390D02*
X186642857Y-124054819D01*
X186642857Y-124054819D02*
X187261904Y-124054819D01*
X145064819Y-94367857D02*
X144588628Y-94701190D01*
X145064819Y-94939285D02*
X144064819Y-94939285D01*
X144064819Y-94939285D02*
X144064819Y-94558333D01*
X144064819Y-94558333D02*
X144112438Y-94463095D01*
X144112438Y-94463095D02*
X144160057Y-94415476D01*
X144160057Y-94415476D02*
X144255295Y-94367857D01*
X144255295Y-94367857D02*
X144398152Y-94367857D01*
X144398152Y-94367857D02*
X144493390Y-94415476D01*
X144493390Y-94415476D02*
X144541009Y-94463095D01*
X144541009Y-94463095D02*
X144588628Y-94558333D01*
X144588628Y-94558333D02*
X144588628Y-94939285D01*
X144064819Y-94034523D02*
X144064819Y-93367857D01*
X144064819Y-93367857D02*
X145064819Y-93796428D01*
X144064819Y-92510714D02*
X144064819Y-92986904D01*
X144064819Y-92986904D02*
X144541009Y-93034523D01*
X144541009Y-93034523D02*
X144493390Y-92986904D01*
X144493390Y-92986904D02*
X144445771Y-92891666D01*
X144445771Y-92891666D02*
X144445771Y-92653571D01*
X144445771Y-92653571D02*
X144493390Y-92558333D01*
X144493390Y-92558333D02*
X144541009Y-92510714D01*
X144541009Y-92510714D02*
X144636247Y-92463095D01*
X144636247Y-92463095D02*
X144874342Y-92463095D01*
X144874342Y-92463095D02*
X144969580Y-92510714D01*
X144969580Y-92510714D02*
X145017200Y-92558333D01*
X145017200Y-92558333D02*
X145064819Y-92653571D01*
X145064819Y-92653571D02*
X145064819Y-92891666D01*
X145064819Y-92891666D02*
X145017200Y-92986904D01*
X145017200Y-92986904D02*
X144969580Y-93034523D01*
X183228214Y-81154819D02*
X183228214Y-80154819D01*
X183228214Y-80154819D02*
X183466309Y-80154819D01*
X183466309Y-80154819D02*
X183609166Y-80202438D01*
X183609166Y-80202438D02*
X183704404Y-80297676D01*
X183704404Y-80297676D02*
X183752023Y-80392914D01*
X183752023Y-80392914D02*
X183799642Y-80583390D01*
X183799642Y-80583390D02*
X183799642Y-80726247D01*
X183799642Y-80726247D02*
X183752023Y-80916723D01*
X183752023Y-80916723D02*
X183704404Y-81011961D01*
X183704404Y-81011961D02*
X183609166Y-81107200D01*
X183609166Y-81107200D02*
X183466309Y-81154819D01*
X183466309Y-81154819D02*
X183228214Y-81154819D01*
X184656785Y-80488152D02*
X184656785Y-81154819D01*
X184418690Y-80107200D02*
X184180595Y-80821485D01*
X184180595Y-80821485D02*
X184799642Y-80821485D01*
X185228214Y-81154819D02*
X185418690Y-81154819D01*
X185418690Y-81154819D02*
X185513928Y-81107200D01*
X185513928Y-81107200D02*
X185561547Y-81059580D01*
X185561547Y-81059580D02*
X185656785Y-80916723D01*
X185656785Y-80916723D02*
X185704404Y-80726247D01*
X185704404Y-80726247D02*
X185704404Y-80345295D01*
X185704404Y-80345295D02*
X185656785Y-80250057D01*
X185656785Y-80250057D02*
X185609166Y-80202438D01*
X185609166Y-80202438D02*
X185513928Y-80154819D01*
X185513928Y-80154819D02*
X185323452Y-80154819D01*
X185323452Y-80154819D02*
X185228214Y-80202438D01*
X185228214Y-80202438D02*
X185180595Y-80250057D01*
X185180595Y-80250057D02*
X185132976Y-80345295D01*
X185132976Y-80345295D02*
X185132976Y-80583390D01*
X185132976Y-80583390D02*
X185180595Y-80678628D01*
X185180595Y-80678628D02*
X185228214Y-80726247D01*
X185228214Y-80726247D02*
X185323452Y-80773866D01*
X185323452Y-80773866D02*
X185513928Y-80773866D01*
X185513928Y-80773866D02*
X185609166Y-80726247D01*
X185609166Y-80726247D02*
X185656785Y-80678628D01*
X185656785Y-80678628D02*
X185704404Y-80583390D01*
X186010714Y-101829819D02*
X186010714Y-100829819D01*
X186010714Y-100829819D02*
X186248809Y-100829819D01*
X186248809Y-100829819D02*
X186391666Y-100877438D01*
X186391666Y-100877438D02*
X186486904Y-100972676D01*
X186486904Y-100972676D02*
X186534523Y-101067914D01*
X186534523Y-101067914D02*
X186582142Y-101258390D01*
X186582142Y-101258390D02*
X186582142Y-101401247D01*
X186582142Y-101401247D02*
X186534523Y-101591723D01*
X186534523Y-101591723D02*
X186486904Y-101686961D01*
X186486904Y-101686961D02*
X186391666Y-101782200D01*
X186391666Y-101782200D02*
X186248809Y-101829819D01*
X186248809Y-101829819D02*
X186010714Y-101829819D01*
X187486904Y-100829819D02*
X187010714Y-100829819D01*
X187010714Y-100829819D02*
X186963095Y-101306009D01*
X186963095Y-101306009D02*
X187010714Y-101258390D01*
X187010714Y-101258390D02*
X187105952Y-101210771D01*
X187105952Y-101210771D02*
X187344047Y-101210771D01*
X187344047Y-101210771D02*
X187439285Y-101258390D01*
X187439285Y-101258390D02*
X187486904Y-101306009D01*
X187486904Y-101306009D02*
X187534523Y-101401247D01*
X187534523Y-101401247D02*
X187534523Y-101639342D01*
X187534523Y-101639342D02*
X187486904Y-101734580D01*
X187486904Y-101734580D02*
X187439285Y-101782200D01*
X187439285Y-101782200D02*
X187344047Y-101829819D01*
X187344047Y-101829819D02*
X187105952Y-101829819D01*
X187105952Y-101829819D02*
X187010714Y-101782200D01*
X187010714Y-101782200D02*
X186963095Y-101734580D01*
X188153571Y-100829819D02*
X188248809Y-100829819D01*
X188248809Y-100829819D02*
X188344047Y-100877438D01*
X188344047Y-100877438D02*
X188391666Y-100925057D01*
X188391666Y-100925057D02*
X188439285Y-101020295D01*
X188439285Y-101020295D02*
X188486904Y-101210771D01*
X188486904Y-101210771D02*
X188486904Y-101448866D01*
X188486904Y-101448866D02*
X188439285Y-101639342D01*
X188439285Y-101639342D02*
X188391666Y-101734580D01*
X188391666Y-101734580D02*
X188344047Y-101782200D01*
X188344047Y-101782200D02*
X188248809Y-101829819D01*
X188248809Y-101829819D02*
X188153571Y-101829819D01*
X188153571Y-101829819D02*
X188058333Y-101782200D01*
X188058333Y-101782200D02*
X188010714Y-101734580D01*
X188010714Y-101734580D02*
X187963095Y-101639342D01*
X187963095Y-101639342D02*
X187915476Y-101448866D01*
X187915476Y-101448866D02*
X187915476Y-101210771D01*
X187915476Y-101210771D02*
X187963095Y-101020295D01*
X187963095Y-101020295D02*
X188010714Y-100925057D01*
X188010714Y-100925057D02*
X188058333Y-100877438D01*
X188058333Y-100877438D02*
X188153571Y-100829819D01*
X142325963Y-93878214D02*
X142023582Y-94089881D01*
X142325963Y-94241071D02*
X141690963Y-94241071D01*
X141690963Y-94241071D02*
X141690963Y-93999166D01*
X141690963Y-93999166D02*
X141721201Y-93938690D01*
X141721201Y-93938690D02*
X141751439Y-93908452D01*
X141751439Y-93908452D02*
X141811915Y-93878214D01*
X141811915Y-93878214D02*
X141902629Y-93878214D01*
X141902629Y-93878214D02*
X141963105Y-93908452D01*
X141963105Y-93908452D02*
X141993344Y-93938690D01*
X141993344Y-93938690D02*
X142023582Y-93999166D01*
X142023582Y-93999166D02*
X142023582Y-94241071D01*
X142325963Y-93575833D02*
X142325963Y-93454881D01*
X142325963Y-93454881D02*
X142295725Y-93394404D01*
X142295725Y-93394404D02*
X142265486Y-93364166D01*
X142265486Y-93364166D02*
X142174772Y-93303690D01*
X142174772Y-93303690D02*
X142053820Y-93273452D01*
X142053820Y-93273452D02*
X141811915Y-93273452D01*
X141811915Y-93273452D02*
X141751439Y-93303690D01*
X141751439Y-93303690D02*
X141721201Y-93333928D01*
X141721201Y-93333928D02*
X141690963Y-93394404D01*
X141690963Y-93394404D02*
X141690963Y-93515357D01*
X141690963Y-93515357D02*
X141721201Y-93575833D01*
X141721201Y-93575833D02*
X141751439Y-93606071D01*
X141751439Y-93606071D02*
X141811915Y-93636309D01*
X141811915Y-93636309D02*
X141963105Y-93636309D01*
X141963105Y-93636309D02*
X142023582Y-93606071D01*
X142023582Y-93606071D02*
X142053820Y-93575833D01*
X142053820Y-93575833D02*
X142084058Y-93515357D01*
X142084058Y-93515357D02*
X142084058Y-93394404D01*
X142084058Y-93394404D02*
X142053820Y-93333928D01*
X142053820Y-93333928D02*
X142023582Y-93303690D01*
X142023582Y-93303690D02*
X141963105Y-93273452D01*
X141690963Y-92698928D02*
X141690963Y-93001309D01*
X141690963Y-93001309D02*
X141993344Y-93031547D01*
X141993344Y-93031547D02*
X141963105Y-93001309D01*
X141963105Y-93001309D02*
X141932867Y-92940833D01*
X141932867Y-92940833D02*
X141932867Y-92789642D01*
X141932867Y-92789642D02*
X141963105Y-92729166D01*
X141963105Y-92729166D02*
X141993344Y-92698928D01*
X141993344Y-92698928D02*
X142053820Y-92668690D01*
X142053820Y-92668690D02*
X142205010Y-92668690D01*
X142205010Y-92668690D02*
X142265486Y-92698928D01*
X142265486Y-92698928D02*
X142295725Y-92729166D01*
X142295725Y-92729166D02*
X142325963Y-92789642D01*
X142325963Y-92789642D02*
X142325963Y-92940833D01*
X142325963Y-92940833D02*
X142295725Y-93001309D01*
X142295725Y-93001309D02*
X142265486Y-93031547D01*
X190315476Y-80751009D02*
X189982143Y-80751009D01*
X189982143Y-81274819D02*
X189982143Y-80274819D01*
X189982143Y-80274819D02*
X190458333Y-80274819D01*
X191363095Y-81274819D02*
X190791667Y-81274819D01*
X191077381Y-81274819D02*
X191077381Y-80274819D01*
X191077381Y-80274819D02*
X190982143Y-80417676D01*
X190982143Y-80417676D02*
X190886905Y-80512914D01*
X190886905Y-80512914D02*
X190791667Y-80560533D01*
X191982143Y-80274819D02*
X192077381Y-80274819D01*
X192077381Y-80274819D02*
X192172619Y-80322438D01*
X192172619Y-80322438D02*
X192220238Y-80370057D01*
X192220238Y-80370057D02*
X192267857Y-80465295D01*
X192267857Y-80465295D02*
X192315476Y-80655771D01*
X192315476Y-80655771D02*
X192315476Y-80893866D01*
X192315476Y-80893866D02*
X192267857Y-81084342D01*
X192267857Y-81084342D02*
X192220238Y-81179580D01*
X192220238Y-81179580D02*
X192172619Y-81227200D01*
X192172619Y-81227200D02*
X192077381Y-81274819D01*
X192077381Y-81274819D02*
X191982143Y-81274819D01*
X191982143Y-81274819D02*
X191886905Y-81227200D01*
X191886905Y-81227200D02*
X191839286Y-81179580D01*
X191839286Y-81179580D02*
X191791667Y-81084342D01*
X191791667Y-81084342D02*
X191744048Y-80893866D01*
X191744048Y-80893866D02*
X191744048Y-80655771D01*
X191744048Y-80655771D02*
X191791667Y-80465295D01*
X191791667Y-80465295D02*
X191839286Y-80370057D01*
X191839286Y-80370057D02*
X191886905Y-80322438D01*
X191886905Y-80322438D02*
X191982143Y-80274819D01*
X160813905Y-125540419D02*
X160813905Y-126349942D01*
X160813905Y-126349942D02*
X160861524Y-126445180D01*
X160861524Y-126445180D02*
X160909143Y-126492800D01*
X160909143Y-126492800D02*
X161004381Y-126540419D01*
X161004381Y-126540419D02*
X161194857Y-126540419D01*
X161194857Y-126540419D02*
X161290095Y-126492800D01*
X161290095Y-126492800D02*
X161337714Y-126445180D01*
X161337714Y-126445180D02*
X161385333Y-126349942D01*
X161385333Y-126349942D02*
X161385333Y-125540419D01*
X162385333Y-126540419D02*
X161813905Y-126540419D01*
X162099619Y-126540419D02*
X162099619Y-125540419D01*
X162099619Y-125540419D02*
X162004381Y-125683276D01*
X162004381Y-125683276D02*
X161909143Y-125778514D01*
X161909143Y-125778514D02*
X161813905Y-125826133D01*
X163337714Y-126540419D02*
X162766286Y-126540419D01*
X163052000Y-126540419D02*
X163052000Y-125540419D01*
X163052000Y-125540419D02*
X162956762Y-125683276D01*
X162956762Y-125683276D02*
X162861524Y-125778514D01*
X162861524Y-125778514D02*
X162766286Y-125826133D01*
X186979819Y-137608094D02*
X187789342Y-137608094D01*
X187789342Y-137608094D02*
X187884580Y-137560475D01*
X187884580Y-137560475D02*
X187932200Y-137512856D01*
X187932200Y-137512856D02*
X187979819Y-137417618D01*
X187979819Y-137417618D02*
X187979819Y-137227142D01*
X187979819Y-137227142D02*
X187932200Y-137131904D01*
X187932200Y-137131904D02*
X187884580Y-137084285D01*
X187884580Y-137084285D02*
X187789342Y-137036666D01*
X187789342Y-137036666D02*
X186979819Y-137036666D01*
X187075057Y-136608094D02*
X187027438Y-136560475D01*
X187027438Y-136560475D02*
X186979819Y-136465237D01*
X186979819Y-136465237D02*
X186979819Y-136227142D01*
X186979819Y-136227142D02*
X187027438Y-136131904D01*
X187027438Y-136131904D02*
X187075057Y-136084285D01*
X187075057Y-136084285D02*
X187170295Y-136036666D01*
X187170295Y-136036666D02*
X187265533Y-136036666D01*
X187265533Y-136036666D02*
X187408390Y-136084285D01*
X187408390Y-136084285D02*
X187979819Y-136655713D01*
X187979819Y-136655713D02*
X187979819Y-136036666D01*
X186979819Y-135703332D02*
X186979819Y-135036666D01*
X186979819Y-135036666D02*
X187979819Y-135465237D01*
X132574819Y-93644047D02*
X132098628Y-93977380D01*
X132574819Y-94215475D02*
X131574819Y-94215475D01*
X131574819Y-94215475D02*
X131574819Y-93834523D01*
X131574819Y-93834523D02*
X131622438Y-93739285D01*
X131622438Y-93739285D02*
X131670057Y-93691666D01*
X131670057Y-93691666D02*
X131765295Y-93644047D01*
X131765295Y-93644047D02*
X131908152Y-93644047D01*
X131908152Y-93644047D02*
X132003390Y-93691666D01*
X132003390Y-93691666D02*
X132051009Y-93739285D01*
X132051009Y-93739285D02*
X132098628Y-93834523D01*
X132098628Y-93834523D02*
X132098628Y-94215475D01*
X132574819Y-92691666D02*
X132574819Y-93263094D01*
X132574819Y-92977380D02*
X131574819Y-92977380D01*
X131574819Y-92977380D02*
X131717676Y-93072618D01*
X131717676Y-93072618D02*
X131812914Y-93167856D01*
X131812914Y-93167856D02*
X131860533Y-93263094D01*
X131574819Y-92072618D02*
X131574819Y-91977380D01*
X131574819Y-91977380D02*
X131622438Y-91882142D01*
X131622438Y-91882142D02*
X131670057Y-91834523D01*
X131670057Y-91834523D02*
X131765295Y-91786904D01*
X131765295Y-91786904D02*
X131955771Y-91739285D01*
X131955771Y-91739285D02*
X132193866Y-91739285D01*
X132193866Y-91739285D02*
X132384342Y-91786904D01*
X132384342Y-91786904D02*
X132479580Y-91834523D01*
X132479580Y-91834523D02*
X132527200Y-91882142D01*
X132527200Y-91882142D02*
X132574819Y-91977380D01*
X132574819Y-91977380D02*
X132574819Y-92072618D01*
X132574819Y-92072618D02*
X132527200Y-92167856D01*
X132527200Y-92167856D02*
X132479580Y-92215475D01*
X132479580Y-92215475D02*
X132384342Y-92263094D01*
X132384342Y-92263094D02*
X132193866Y-92310713D01*
X132193866Y-92310713D02*
X131955771Y-92310713D01*
X131955771Y-92310713D02*
X131765295Y-92263094D01*
X131765295Y-92263094D02*
X131670057Y-92215475D01*
X131670057Y-92215475D02*
X131622438Y-92167856D01*
X131622438Y-92167856D02*
X131574819Y-92072618D01*
X131574819Y-90834523D02*
X131574819Y-91310713D01*
X131574819Y-91310713D02*
X132051009Y-91358332D01*
X132051009Y-91358332D02*
X132003390Y-91310713D01*
X132003390Y-91310713D02*
X131955771Y-91215475D01*
X131955771Y-91215475D02*
X131955771Y-90977380D01*
X131955771Y-90977380D02*
X132003390Y-90882142D01*
X132003390Y-90882142D02*
X132051009Y-90834523D01*
X132051009Y-90834523D02*
X132146247Y-90786904D01*
X132146247Y-90786904D02*
X132384342Y-90786904D01*
X132384342Y-90786904D02*
X132479580Y-90834523D01*
X132479580Y-90834523D02*
X132527200Y-90882142D01*
X132527200Y-90882142D02*
X132574819Y-90977380D01*
X132574819Y-90977380D02*
X132574819Y-91215475D01*
X132574819Y-91215475D02*
X132527200Y-91310713D01*
X132527200Y-91310713D02*
X132479580Y-91358332D01*
X143174819Y-113392857D02*
X142698628Y-113726190D01*
X143174819Y-113964285D02*
X142174819Y-113964285D01*
X142174819Y-113964285D02*
X142174819Y-113583333D01*
X142174819Y-113583333D02*
X142222438Y-113488095D01*
X142222438Y-113488095D02*
X142270057Y-113440476D01*
X142270057Y-113440476D02*
X142365295Y-113392857D01*
X142365295Y-113392857D02*
X142508152Y-113392857D01*
X142508152Y-113392857D02*
X142603390Y-113440476D01*
X142603390Y-113440476D02*
X142651009Y-113488095D01*
X142651009Y-113488095D02*
X142698628Y-113583333D01*
X142698628Y-113583333D02*
X142698628Y-113964285D01*
X143174819Y-112916666D02*
X143174819Y-112726190D01*
X143174819Y-112726190D02*
X143127200Y-112630952D01*
X143127200Y-112630952D02*
X143079580Y-112583333D01*
X143079580Y-112583333D02*
X142936723Y-112488095D01*
X142936723Y-112488095D02*
X142746247Y-112440476D01*
X142746247Y-112440476D02*
X142365295Y-112440476D01*
X142365295Y-112440476D02*
X142270057Y-112488095D01*
X142270057Y-112488095D02*
X142222438Y-112535714D01*
X142222438Y-112535714D02*
X142174819Y-112630952D01*
X142174819Y-112630952D02*
X142174819Y-112821428D01*
X142174819Y-112821428D02*
X142222438Y-112916666D01*
X142222438Y-112916666D02*
X142270057Y-112964285D01*
X142270057Y-112964285D02*
X142365295Y-113011904D01*
X142365295Y-113011904D02*
X142603390Y-113011904D01*
X142603390Y-113011904D02*
X142698628Y-112964285D01*
X142698628Y-112964285D02*
X142746247Y-112916666D01*
X142746247Y-112916666D02*
X142793866Y-112821428D01*
X142793866Y-112821428D02*
X142793866Y-112630952D01*
X142793866Y-112630952D02*
X142746247Y-112535714D01*
X142746247Y-112535714D02*
X142698628Y-112488095D01*
X142698628Y-112488095D02*
X142603390Y-112440476D01*
X142508152Y-111583333D02*
X143174819Y-111583333D01*
X142127200Y-111821428D02*
X142841485Y-112059523D01*
X142841485Y-112059523D02*
X142841485Y-111440476D01*
X182657142Y-116259819D02*
X182323809Y-115783628D01*
X182085714Y-116259819D02*
X182085714Y-115259819D01*
X182085714Y-115259819D02*
X182466666Y-115259819D01*
X182466666Y-115259819D02*
X182561904Y-115307438D01*
X182561904Y-115307438D02*
X182609523Y-115355057D01*
X182609523Y-115355057D02*
X182657142Y-115450295D01*
X182657142Y-115450295D02*
X182657142Y-115593152D01*
X182657142Y-115593152D02*
X182609523Y-115688390D01*
X182609523Y-115688390D02*
X182561904Y-115736009D01*
X182561904Y-115736009D02*
X182466666Y-115783628D01*
X182466666Y-115783628D02*
X182085714Y-115783628D01*
X183133333Y-116259819D02*
X183323809Y-116259819D01*
X183323809Y-116259819D02*
X183419047Y-116212200D01*
X183419047Y-116212200D02*
X183466666Y-116164580D01*
X183466666Y-116164580D02*
X183561904Y-116021723D01*
X183561904Y-116021723D02*
X183609523Y-115831247D01*
X183609523Y-115831247D02*
X183609523Y-115450295D01*
X183609523Y-115450295D02*
X183561904Y-115355057D01*
X183561904Y-115355057D02*
X183514285Y-115307438D01*
X183514285Y-115307438D02*
X183419047Y-115259819D01*
X183419047Y-115259819D02*
X183228571Y-115259819D01*
X183228571Y-115259819D02*
X183133333Y-115307438D01*
X183133333Y-115307438D02*
X183085714Y-115355057D01*
X183085714Y-115355057D02*
X183038095Y-115450295D01*
X183038095Y-115450295D02*
X183038095Y-115688390D01*
X183038095Y-115688390D02*
X183085714Y-115783628D01*
X183085714Y-115783628D02*
X183133333Y-115831247D01*
X183133333Y-115831247D02*
X183228571Y-115878866D01*
X183228571Y-115878866D02*
X183419047Y-115878866D01*
X183419047Y-115878866D02*
X183514285Y-115831247D01*
X183514285Y-115831247D02*
X183561904Y-115783628D01*
X183561904Y-115783628D02*
X183609523Y-115688390D01*
X184228571Y-115259819D02*
X184323809Y-115259819D01*
X184323809Y-115259819D02*
X184419047Y-115307438D01*
X184419047Y-115307438D02*
X184466666Y-115355057D01*
X184466666Y-115355057D02*
X184514285Y-115450295D01*
X184514285Y-115450295D02*
X184561904Y-115640771D01*
X184561904Y-115640771D02*
X184561904Y-115878866D01*
X184561904Y-115878866D02*
X184514285Y-116069342D01*
X184514285Y-116069342D02*
X184466666Y-116164580D01*
X184466666Y-116164580D02*
X184419047Y-116212200D01*
X184419047Y-116212200D02*
X184323809Y-116259819D01*
X184323809Y-116259819D02*
X184228571Y-116259819D01*
X184228571Y-116259819D02*
X184133333Y-116212200D01*
X184133333Y-116212200D02*
X184085714Y-116164580D01*
X184085714Y-116164580D02*
X184038095Y-116069342D01*
X184038095Y-116069342D02*
X183990476Y-115878866D01*
X183990476Y-115878866D02*
X183990476Y-115640771D01*
X183990476Y-115640771D02*
X184038095Y-115450295D01*
X184038095Y-115450295D02*
X184085714Y-115355057D01*
X184085714Y-115355057D02*
X184133333Y-115307438D01*
X184133333Y-115307438D02*
X184228571Y-115259819D01*
X135809595Y-133205819D02*
X135809595Y-134015342D01*
X135809595Y-134015342D02*
X135857214Y-134110580D01*
X135857214Y-134110580D02*
X135904833Y-134158200D01*
X135904833Y-134158200D02*
X136000071Y-134205819D01*
X136000071Y-134205819D02*
X136190547Y-134205819D01*
X136190547Y-134205819D02*
X136285785Y-134158200D01*
X136285785Y-134158200D02*
X136333404Y-134110580D01*
X136333404Y-134110580D02*
X136381023Y-134015342D01*
X136381023Y-134015342D02*
X136381023Y-133205819D01*
X137381023Y-134205819D02*
X136809595Y-134205819D01*
X137095309Y-134205819D02*
X137095309Y-133205819D01*
X137095309Y-133205819D02*
X137000071Y-133348676D01*
X137000071Y-133348676D02*
X136904833Y-133443914D01*
X136904833Y-133443914D02*
X136809595Y-133491533D01*
X192038095Y-113809819D02*
X192038095Y-114619342D01*
X192038095Y-114619342D02*
X192085714Y-114714580D01*
X192085714Y-114714580D02*
X192133333Y-114762200D01*
X192133333Y-114762200D02*
X192228571Y-114809819D01*
X192228571Y-114809819D02*
X192419047Y-114809819D01*
X192419047Y-114809819D02*
X192514285Y-114762200D01*
X192514285Y-114762200D02*
X192561904Y-114714580D01*
X192561904Y-114714580D02*
X192609523Y-114619342D01*
X192609523Y-114619342D02*
X192609523Y-113809819D01*
X193514285Y-114143152D02*
X193514285Y-114809819D01*
X193276190Y-113762200D02*
X193038095Y-114476485D01*
X193038095Y-114476485D02*
X193657142Y-114476485D01*
X183532142Y-84399819D02*
X183198809Y-83923628D01*
X182960714Y-84399819D02*
X182960714Y-83399819D01*
X182960714Y-83399819D02*
X183341666Y-83399819D01*
X183341666Y-83399819D02*
X183436904Y-83447438D01*
X183436904Y-83447438D02*
X183484523Y-83495057D01*
X183484523Y-83495057D02*
X183532142Y-83590295D01*
X183532142Y-83590295D02*
X183532142Y-83733152D01*
X183532142Y-83733152D02*
X183484523Y-83828390D01*
X183484523Y-83828390D02*
X183436904Y-83876009D01*
X183436904Y-83876009D02*
X183341666Y-83923628D01*
X183341666Y-83923628D02*
X182960714Y-83923628D01*
X183865476Y-83399819D02*
X184484523Y-83399819D01*
X184484523Y-83399819D02*
X184151190Y-83780771D01*
X184151190Y-83780771D02*
X184294047Y-83780771D01*
X184294047Y-83780771D02*
X184389285Y-83828390D01*
X184389285Y-83828390D02*
X184436904Y-83876009D01*
X184436904Y-83876009D02*
X184484523Y-83971247D01*
X184484523Y-83971247D02*
X184484523Y-84209342D01*
X184484523Y-84209342D02*
X184436904Y-84304580D01*
X184436904Y-84304580D02*
X184389285Y-84352200D01*
X184389285Y-84352200D02*
X184294047Y-84399819D01*
X184294047Y-84399819D02*
X184008333Y-84399819D01*
X184008333Y-84399819D02*
X183913095Y-84352200D01*
X183913095Y-84352200D02*
X183865476Y-84304580D01*
X185341666Y-83733152D02*
X185341666Y-84399819D01*
X185103571Y-83352200D02*
X184865476Y-84066485D01*
X184865476Y-84066485D02*
X185484523Y-84066485D01*
X138185714Y-103554819D02*
X138185714Y-102554819D01*
X138185714Y-102554819D02*
X138423809Y-102554819D01*
X138423809Y-102554819D02*
X138566666Y-102602438D01*
X138566666Y-102602438D02*
X138661904Y-102697676D01*
X138661904Y-102697676D02*
X138709523Y-102792914D01*
X138709523Y-102792914D02*
X138757142Y-102983390D01*
X138757142Y-102983390D02*
X138757142Y-103126247D01*
X138757142Y-103126247D02*
X138709523Y-103316723D01*
X138709523Y-103316723D02*
X138661904Y-103411961D01*
X138661904Y-103411961D02*
X138566666Y-103507200D01*
X138566666Y-103507200D02*
X138423809Y-103554819D01*
X138423809Y-103554819D02*
X138185714Y-103554819D01*
X139614285Y-102888152D02*
X139614285Y-103554819D01*
X139376190Y-102507200D02*
X139138095Y-103221485D01*
X139138095Y-103221485D02*
X139757142Y-103221485D01*
X140566666Y-102888152D02*
X140566666Y-103554819D01*
X140328571Y-102507200D02*
X140090476Y-103221485D01*
X140090476Y-103221485D02*
X140709523Y-103221485D01*
X139386571Y-94862715D02*
X139386571Y-95479572D01*
X139386571Y-95479572D02*
X139422857Y-95552144D01*
X139422857Y-95552144D02*
X139459143Y-95588430D01*
X139459143Y-95588430D02*
X139531714Y-95624715D01*
X139531714Y-95624715D02*
X139676857Y-95624715D01*
X139676857Y-95624715D02*
X139749428Y-95588430D01*
X139749428Y-95588430D02*
X139785714Y-95552144D01*
X139785714Y-95552144D02*
X139822000Y-95479572D01*
X139822000Y-95479572D02*
X139822000Y-94862715D01*
X140148571Y-94935287D02*
X140184857Y-94899001D01*
X140184857Y-94899001D02*
X140257429Y-94862715D01*
X140257429Y-94862715D02*
X140438857Y-94862715D01*
X140438857Y-94862715D02*
X140511429Y-94899001D01*
X140511429Y-94899001D02*
X140547714Y-94935287D01*
X140547714Y-94935287D02*
X140584000Y-95007858D01*
X140584000Y-95007858D02*
X140584000Y-95080430D01*
X140584000Y-95080430D02*
X140547714Y-95189287D01*
X140547714Y-95189287D02*
X140112286Y-95624715D01*
X140112286Y-95624715D02*
X140584000Y-95624715D01*
X141237143Y-94862715D02*
X141092000Y-94862715D01*
X141092000Y-94862715D02*
X141019428Y-94899001D01*
X141019428Y-94899001D02*
X140983143Y-94935287D01*
X140983143Y-94935287D02*
X140910571Y-95044144D01*
X140910571Y-95044144D02*
X140874285Y-95189287D01*
X140874285Y-95189287D02*
X140874285Y-95479572D01*
X140874285Y-95479572D02*
X140910571Y-95552144D01*
X140910571Y-95552144D02*
X140946857Y-95588430D01*
X140946857Y-95588430D02*
X141019428Y-95624715D01*
X141019428Y-95624715D02*
X141164571Y-95624715D01*
X141164571Y-95624715D02*
X141237143Y-95588430D01*
X141237143Y-95588430D02*
X141273428Y-95552144D01*
X141273428Y-95552144D02*
X141309714Y-95479572D01*
X141309714Y-95479572D02*
X141309714Y-95298144D01*
X141309714Y-95298144D02*
X141273428Y-95225572D01*
X141273428Y-95225572D02*
X141237143Y-95189287D01*
X141237143Y-95189287D02*
X141164571Y-95153001D01*
X141164571Y-95153001D02*
X141019428Y-95153001D01*
X141019428Y-95153001D02*
X140946857Y-95189287D01*
X140946857Y-95189287D02*
X140910571Y-95225572D01*
X140910571Y-95225572D02*
X140874285Y-95298144D01*
X184624819Y-98078094D02*
X185434342Y-98078094D01*
X185434342Y-98078094D02*
X185529580Y-98030475D01*
X185529580Y-98030475D02*
X185577200Y-97982856D01*
X185577200Y-97982856D02*
X185624819Y-97887618D01*
X185624819Y-97887618D02*
X185624819Y-97697142D01*
X185624819Y-97697142D02*
X185577200Y-97601904D01*
X185577200Y-97601904D02*
X185529580Y-97554285D01*
X185529580Y-97554285D02*
X185434342Y-97506666D01*
X185434342Y-97506666D02*
X184624819Y-97506666D01*
X184624819Y-97125713D02*
X184624819Y-96506666D01*
X184624819Y-96506666D02*
X185005771Y-96839999D01*
X185005771Y-96839999D02*
X185005771Y-96697142D01*
X185005771Y-96697142D02*
X185053390Y-96601904D01*
X185053390Y-96601904D02*
X185101009Y-96554285D01*
X185101009Y-96554285D02*
X185196247Y-96506666D01*
X185196247Y-96506666D02*
X185434342Y-96506666D01*
X185434342Y-96506666D02*
X185529580Y-96554285D01*
X185529580Y-96554285D02*
X185577200Y-96601904D01*
X185577200Y-96601904D02*
X185624819Y-96697142D01*
X185624819Y-96697142D02*
X185624819Y-96982856D01*
X185624819Y-96982856D02*
X185577200Y-97078094D01*
X185577200Y-97078094D02*
X185529580Y-97125713D01*
X184624819Y-95887618D02*
X184624819Y-95792380D01*
X184624819Y-95792380D02*
X184672438Y-95697142D01*
X184672438Y-95697142D02*
X184720057Y-95649523D01*
X184720057Y-95649523D02*
X184815295Y-95601904D01*
X184815295Y-95601904D02*
X185005771Y-95554285D01*
X185005771Y-95554285D02*
X185243866Y-95554285D01*
X185243866Y-95554285D02*
X185434342Y-95601904D01*
X185434342Y-95601904D02*
X185529580Y-95649523D01*
X185529580Y-95649523D02*
X185577200Y-95697142D01*
X185577200Y-95697142D02*
X185624819Y-95792380D01*
X185624819Y-95792380D02*
X185624819Y-95887618D01*
X185624819Y-95887618D02*
X185577200Y-95982856D01*
X185577200Y-95982856D02*
X185529580Y-96030475D01*
X185529580Y-96030475D02*
X185434342Y-96078094D01*
X185434342Y-96078094D02*
X185243866Y-96125713D01*
X185243866Y-96125713D02*
X185005771Y-96125713D01*
X185005771Y-96125713D02*
X184815295Y-96078094D01*
X184815295Y-96078094D02*
X184720057Y-96030475D01*
X184720057Y-96030475D02*
X184672438Y-95982856D01*
X184672438Y-95982856D02*
X184624819Y-95887618D01*
X145257142Y-117604819D02*
X144923809Y-117128628D01*
X144685714Y-117604819D02*
X144685714Y-116604819D01*
X144685714Y-116604819D02*
X145066666Y-116604819D01*
X145066666Y-116604819D02*
X145161904Y-116652438D01*
X145161904Y-116652438D02*
X145209523Y-116700057D01*
X145209523Y-116700057D02*
X145257142Y-116795295D01*
X145257142Y-116795295D02*
X145257142Y-116938152D01*
X145257142Y-116938152D02*
X145209523Y-117033390D01*
X145209523Y-117033390D02*
X145161904Y-117081009D01*
X145161904Y-117081009D02*
X145066666Y-117128628D01*
X145066666Y-117128628D02*
X144685714Y-117128628D01*
X145828571Y-117033390D02*
X145733333Y-116985771D01*
X145733333Y-116985771D02*
X145685714Y-116938152D01*
X145685714Y-116938152D02*
X145638095Y-116842914D01*
X145638095Y-116842914D02*
X145638095Y-116795295D01*
X145638095Y-116795295D02*
X145685714Y-116700057D01*
X145685714Y-116700057D02*
X145733333Y-116652438D01*
X145733333Y-116652438D02*
X145828571Y-116604819D01*
X145828571Y-116604819D02*
X146019047Y-116604819D01*
X146019047Y-116604819D02*
X146114285Y-116652438D01*
X146114285Y-116652438D02*
X146161904Y-116700057D01*
X146161904Y-116700057D02*
X146209523Y-116795295D01*
X146209523Y-116795295D02*
X146209523Y-116842914D01*
X146209523Y-116842914D02*
X146161904Y-116938152D01*
X146161904Y-116938152D02*
X146114285Y-116985771D01*
X146114285Y-116985771D02*
X146019047Y-117033390D01*
X146019047Y-117033390D02*
X145828571Y-117033390D01*
X145828571Y-117033390D02*
X145733333Y-117081009D01*
X145733333Y-117081009D02*
X145685714Y-117128628D01*
X145685714Y-117128628D02*
X145638095Y-117223866D01*
X145638095Y-117223866D02*
X145638095Y-117414342D01*
X145638095Y-117414342D02*
X145685714Y-117509580D01*
X145685714Y-117509580D02*
X145733333Y-117557200D01*
X145733333Y-117557200D02*
X145828571Y-117604819D01*
X145828571Y-117604819D02*
X146019047Y-117604819D01*
X146019047Y-117604819D02*
X146114285Y-117557200D01*
X146114285Y-117557200D02*
X146161904Y-117509580D01*
X146161904Y-117509580D02*
X146209523Y-117414342D01*
X146209523Y-117414342D02*
X146209523Y-117223866D01*
X146209523Y-117223866D02*
X146161904Y-117128628D01*
X146161904Y-117128628D02*
X146114285Y-117081009D01*
X146114285Y-117081009D02*
X146019047Y-117033390D01*
X147066666Y-116938152D02*
X147066666Y-117604819D01*
X146828571Y-116557200D02*
X146590476Y-117271485D01*
X146590476Y-117271485D02*
X147209523Y-117271485D01*
X144357892Y-106021069D02*
X144024559Y-105544878D01*
X143786464Y-106021069D02*
X143786464Y-105021069D01*
X143786464Y-105021069D02*
X144167416Y-105021069D01*
X144167416Y-105021069D02*
X144262654Y-105068688D01*
X144262654Y-105068688D02*
X144310273Y-105116307D01*
X144310273Y-105116307D02*
X144357892Y-105211545D01*
X144357892Y-105211545D02*
X144357892Y-105354402D01*
X144357892Y-105354402D02*
X144310273Y-105449640D01*
X144310273Y-105449640D02*
X144262654Y-105497259D01*
X144262654Y-105497259D02*
X144167416Y-105544878D01*
X144167416Y-105544878D02*
X143786464Y-105544878D01*
X145310273Y-106021069D02*
X144738845Y-106021069D01*
X145024559Y-106021069D02*
X145024559Y-105021069D01*
X145024559Y-105021069D02*
X144929321Y-105163926D01*
X144929321Y-105163926D02*
X144834083Y-105259164D01*
X144834083Y-105259164D02*
X144738845Y-105306783D01*
X145643607Y-105021069D02*
X146262654Y-105021069D01*
X146262654Y-105021069D02*
X145929321Y-105402021D01*
X145929321Y-105402021D02*
X146072178Y-105402021D01*
X146072178Y-105402021D02*
X146167416Y-105449640D01*
X146167416Y-105449640D02*
X146215035Y-105497259D01*
X146215035Y-105497259D02*
X146262654Y-105592497D01*
X146262654Y-105592497D02*
X146262654Y-105830592D01*
X146262654Y-105830592D02*
X146215035Y-105925830D01*
X146215035Y-105925830D02*
X146167416Y-105973450D01*
X146167416Y-105973450D02*
X146072178Y-106021069D01*
X146072178Y-106021069D02*
X145786464Y-106021069D01*
X145786464Y-106021069D02*
X145691226Y-105973450D01*
X145691226Y-105973450D02*
X145643607Y-105925830D01*
X179174819Y-93367857D02*
X178698628Y-93701190D01*
X179174819Y-93939285D02*
X178174819Y-93939285D01*
X178174819Y-93939285D02*
X178174819Y-93558333D01*
X178174819Y-93558333D02*
X178222438Y-93463095D01*
X178222438Y-93463095D02*
X178270057Y-93415476D01*
X178270057Y-93415476D02*
X178365295Y-93367857D01*
X178365295Y-93367857D02*
X178508152Y-93367857D01*
X178508152Y-93367857D02*
X178603390Y-93415476D01*
X178603390Y-93415476D02*
X178651009Y-93463095D01*
X178651009Y-93463095D02*
X178698628Y-93558333D01*
X178698628Y-93558333D02*
X178698628Y-93939285D01*
X179174819Y-92891666D02*
X179174819Y-92701190D01*
X179174819Y-92701190D02*
X179127200Y-92605952D01*
X179127200Y-92605952D02*
X179079580Y-92558333D01*
X179079580Y-92558333D02*
X178936723Y-92463095D01*
X178936723Y-92463095D02*
X178746247Y-92415476D01*
X178746247Y-92415476D02*
X178365295Y-92415476D01*
X178365295Y-92415476D02*
X178270057Y-92463095D01*
X178270057Y-92463095D02*
X178222438Y-92510714D01*
X178222438Y-92510714D02*
X178174819Y-92605952D01*
X178174819Y-92605952D02*
X178174819Y-92796428D01*
X178174819Y-92796428D02*
X178222438Y-92891666D01*
X178222438Y-92891666D02*
X178270057Y-92939285D01*
X178270057Y-92939285D02*
X178365295Y-92986904D01*
X178365295Y-92986904D02*
X178603390Y-92986904D01*
X178603390Y-92986904D02*
X178698628Y-92939285D01*
X178698628Y-92939285D02*
X178746247Y-92891666D01*
X178746247Y-92891666D02*
X178793866Y-92796428D01*
X178793866Y-92796428D02*
X178793866Y-92605952D01*
X178793866Y-92605952D02*
X178746247Y-92510714D01*
X178746247Y-92510714D02*
X178698628Y-92463095D01*
X178698628Y-92463095D02*
X178603390Y-92415476D01*
X179174819Y-91939285D02*
X179174819Y-91748809D01*
X179174819Y-91748809D02*
X179127200Y-91653571D01*
X179127200Y-91653571D02*
X179079580Y-91605952D01*
X179079580Y-91605952D02*
X178936723Y-91510714D01*
X178936723Y-91510714D02*
X178746247Y-91463095D01*
X178746247Y-91463095D02*
X178365295Y-91463095D01*
X178365295Y-91463095D02*
X178270057Y-91510714D01*
X178270057Y-91510714D02*
X178222438Y-91558333D01*
X178222438Y-91558333D02*
X178174819Y-91653571D01*
X178174819Y-91653571D02*
X178174819Y-91844047D01*
X178174819Y-91844047D02*
X178222438Y-91939285D01*
X178222438Y-91939285D02*
X178270057Y-91986904D01*
X178270057Y-91986904D02*
X178365295Y-92034523D01*
X178365295Y-92034523D02*
X178603390Y-92034523D01*
X178603390Y-92034523D02*
X178698628Y-91986904D01*
X178698628Y-91986904D02*
X178746247Y-91939285D01*
X178746247Y-91939285D02*
X178793866Y-91844047D01*
X178793866Y-91844047D02*
X178793866Y-91653571D01*
X178793866Y-91653571D02*
X178746247Y-91558333D01*
X178746247Y-91558333D02*
X178698628Y-91510714D01*
X178698628Y-91510714D02*
X178603390Y-91463095D01*
X181754819Y-124817857D02*
X181278628Y-125151190D01*
X181754819Y-125389285D02*
X180754819Y-125389285D01*
X180754819Y-125389285D02*
X180754819Y-125008333D01*
X180754819Y-125008333D02*
X180802438Y-124913095D01*
X180802438Y-124913095D02*
X180850057Y-124865476D01*
X180850057Y-124865476D02*
X180945295Y-124817857D01*
X180945295Y-124817857D02*
X181088152Y-124817857D01*
X181088152Y-124817857D02*
X181183390Y-124865476D01*
X181183390Y-124865476D02*
X181231009Y-124913095D01*
X181231009Y-124913095D02*
X181278628Y-125008333D01*
X181278628Y-125008333D02*
X181278628Y-125389285D01*
X180850057Y-124436904D02*
X180802438Y-124389285D01*
X180802438Y-124389285D02*
X180754819Y-124294047D01*
X180754819Y-124294047D02*
X180754819Y-124055952D01*
X180754819Y-124055952D02*
X180802438Y-123960714D01*
X180802438Y-123960714D02*
X180850057Y-123913095D01*
X180850057Y-123913095D02*
X180945295Y-123865476D01*
X180945295Y-123865476D02*
X181040533Y-123865476D01*
X181040533Y-123865476D02*
X181183390Y-123913095D01*
X181183390Y-123913095D02*
X181754819Y-124484523D01*
X181754819Y-124484523D02*
X181754819Y-123865476D01*
X181754819Y-122913095D02*
X181754819Y-123484523D01*
X181754819Y-123198809D02*
X180754819Y-123198809D01*
X180754819Y-123198809D02*
X180897676Y-123294047D01*
X180897676Y-123294047D02*
X180992914Y-123389285D01*
X180992914Y-123389285D02*
X181040533Y-123484523D01*
X138707142Y-125259819D02*
X138373809Y-124783628D01*
X138135714Y-125259819D02*
X138135714Y-124259819D01*
X138135714Y-124259819D02*
X138516666Y-124259819D01*
X138516666Y-124259819D02*
X138611904Y-124307438D01*
X138611904Y-124307438D02*
X138659523Y-124355057D01*
X138659523Y-124355057D02*
X138707142Y-124450295D01*
X138707142Y-124450295D02*
X138707142Y-124593152D01*
X138707142Y-124593152D02*
X138659523Y-124688390D01*
X138659523Y-124688390D02*
X138611904Y-124736009D01*
X138611904Y-124736009D02*
X138516666Y-124783628D01*
X138516666Y-124783628D02*
X138135714Y-124783628D01*
X139659523Y-125259819D02*
X139088095Y-125259819D01*
X139373809Y-125259819D02*
X139373809Y-124259819D01*
X139373809Y-124259819D02*
X139278571Y-124402676D01*
X139278571Y-124402676D02*
X139183333Y-124497914D01*
X139183333Y-124497914D02*
X139088095Y-124545533D01*
X140278571Y-124259819D02*
X140373809Y-124259819D01*
X140373809Y-124259819D02*
X140469047Y-124307438D01*
X140469047Y-124307438D02*
X140516666Y-124355057D01*
X140516666Y-124355057D02*
X140564285Y-124450295D01*
X140564285Y-124450295D02*
X140611904Y-124640771D01*
X140611904Y-124640771D02*
X140611904Y-124878866D01*
X140611904Y-124878866D02*
X140564285Y-125069342D01*
X140564285Y-125069342D02*
X140516666Y-125164580D01*
X140516666Y-125164580D02*
X140469047Y-125212200D01*
X140469047Y-125212200D02*
X140373809Y-125259819D01*
X140373809Y-125259819D02*
X140278571Y-125259819D01*
X140278571Y-125259819D02*
X140183333Y-125212200D01*
X140183333Y-125212200D02*
X140135714Y-125164580D01*
X140135714Y-125164580D02*
X140088095Y-125069342D01*
X140088095Y-125069342D02*
X140040476Y-124878866D01*
X140040476Y-124878866D02*
X140040476Y-124640771D01*
X140040476Y-124640771D02*
X140088095Y-124450295D01*
X140088095Y-124450295D02*
X140135714Y-124355057D01*
X140135714Y-124355057D02*
X140183333Y-124307438D01*
X140183333Y-124307438D02*
X140278571Y-124259819D01*
X182960714Y-87529819D02*
X182960714Y-86529819D01*
X182960714Y-86529819D02*
X183198809Y-86529819D01*
X183198809Y-86529819D02*
X183341666Y-86577438D01*
X183341666Y-86577438D02*
X183436904Y-86672676D01*
X183436904Y-86672676D02*
X183484523Y-86767914D01*
X183484523Y-86767914D02*
X183532142Y-86958390D01*
X183532142Y-86958390D02*
X183532142Y-87101247D01*
X183532142Y-87101247D02*
X183484523Y-87291723D01*
X183484523Y-87291723D02*
X183436904Y-87386961D01*
X183436904Y-87386961D02*
X183341666Y-87482200D01*
X183341666Y-87482200D02*
X183198809Y-87529819D01*
X183198809Y-87529819D02*
X182960714Y-87529819D01*
X183865476Y-86529819D02*
X184484523Y-86529819D01*
X184484523Y-86529819D02*
X184151190Y-86910771D01*
X184151190Y-86910771D02*
X184294047Y-86910771D01*
X184294047Y-86910771D02*
X184389285Y-86958390D01*
X184389285Y-86958390D02*
X184436904Y-87006009D01*
X184436904Y-87006009D02*
X184484523Y-87101247D01*
X184484523Y-87101247D02*
X184484523Y-87339342D01*
X184484523Y-87339342D02*
X184436904Y-87434580D01*
X184436904Y-87434580D02*
X184389285Y-87482200D01*
X184389285Y-87482200D02*
X184294047Y-87529819D01*
X184294047Y-87529819D02*
X184008333Y-87529819D01*
X184008333Y-87529819D02*
X183913095Y-87482200D01*
X183913095Y-87482200D02*
X183865476Y-87434580D01*
X184817857Y-86529819D02*
X185436904Y-86529819D01*
X185436904Y-86529819D02*
X185103571Y-86910771D01*
X185103571Y-86910771D02*
X185246428Y-86910771D01*
X185246428Y-86910771D02*
X185341666Y-86958390D01*
X185341666Y-86958390D02*
X185389285Y-87006009D01*
X185389285Y-87006009D02*
X185436904Y-87101247D01*
X185436904Y-87101247D02*
X185436904Y-87339342D01*
X185436904Y-87339342D02*
X185389285Y-87434580D01*
X185389285Y-87434580D02*
X185341666Y-87482200D01*
X185341666Y-87482200D02*
X185246428Y-87529819D01*
X185246428Y-87529819D02*
X184960714Y-87529819D01*
X184960714Y-87529819D02*
X184865476Y-87482200D01*
X184865476Y-87482200D02*
X184817857Y-87434580D01*
X180049819Y-111842857D02*
X179573628Y-112176190D01*
X180049819Y-112414285D02*
X179049819Y-112414285D01*
X179049819Y-112414285D02*
X179049819Y-112033333D01*
X179049819Y-112033333D02*
X179097438Y-111938095D01*
X179097438Y-111938095D02*
X179145057Y-111890476D01*
X179145057Y-111890476D02*
X179240295Y-111842857D01*
X179240295Y-111842857D02*
X179383152Y-111842857D01*
X179383152Y-111842857D02*
X179478390Y-111890476D01*
X179478390Y-111890476D02*
X179526009Y-111938095D01*
X179526009Y-111938095D02*
X179573628Y-112033333D01*
X179573628Y-112033333D02*
X179573628Y-112414285D01*
X179478390Y-111271428D02*
X179430771Y-111366666D01*
X179430771Y-111366666D02*
X179383152Y-111414285D01*
X179383152Y-111414285D02*
X179287914Y-111461904D01*
X179287914Y-111461904D02*
X179240295Y-111461904D01*
X179240295Y-111461904D02*
X179145057Y-111414285D01*
X179145057Y-111414285D02*
X179097438Y-111366666D01*
X179097438Y-111366666D02*
X179049819Y-111271428D01*
X179049819Y-111271428D02*
X179049819Y-111080952D01*
X179049819Y-111080952D02*
X179097438Y-110985714D01*
X179097438Y-110985714D02*
X179145057Y-110938095D01*
X179145057Y-110938095D02*
X179240295Y-110890476D01*
X179240295Y-110890476D02*
X179287914Y-110890476D01*
X179287914Y-110890476D02*
X179383152Y-110938095D01*
X179383152Y-110938095D02*
X179430771Y-110985714D01*
X179430771Y-110985714D02*
X179478390Y-111080952D01*
X179478390Y-111080952D02*
X179478390Y-111271428D01*
X179478390Y-111271428D02*
X179526009Y-111366666D01*
X179526009Y-111366666D02*
X179573628Y-111414285D01*
X179573628Y-111414285D02*
X179668866Y-111461904D01*
X179668866Y-111461904D02*
X179859342Y-111461904D01*
X179859342Y-111461904D02*
X179954580Y-111414285D01*
X179954580Y-111414285D02*
X180002200Y-111366666D01*
X180002200Y-111366666D02*
X180049819Y-111271428D01*
X180049819Y-111271428D02*
X180049819Y-111080952D01*
X180049819Y-111080952D02*
X180002200Y-110985714D01*
X180002200Y-110985714D02*
X179954580Y-110938095D01*
X179954580Y-110938095D02*
X179859342Y-110890476D01*
X179859342Y-110890476D02*
X179668866Y-110890476D01*
X179668866Y-110890476D02*
X179573628Y-110938095D01*
X179573628Y-110938095D02*
X179526009Y-110985714D01*
X179526009Y-110985714D02*
X179478390Y-111080952D01*
X179049819Y-110271428D02*
X179049819Y-110176190D01*
X179049819Y-110176190D02*
X179097438Y-110080952D01*
X179097438Y-110080952D02*
X179145057Y-110033333D01*
X179145057Y-110033333D02*
X179240295Y-109985714D01*
X179240295Y-109985714D02*
X179430771Y-109938095D01*
X179430771Y-109938095D02*
X179668866Y-109938095D01*
X179668866Y-109938095D02*
X179859342Y-109985714D01*
X179859342Y-109985714D02*
X179954580Y-110033333D01*
X179954580Y-110033333D02*
X180002200Y-110080952D01*
X180002200Y-110080952D02*
X180049819Y-110176190D01*
X180049819Y-110176190D02*
X180049819Y-110271428D01*
X180049819Y-110271428D02*
X180002200Y-110366666D01*
X180002200Y-110366666D02*
X179954580Y-110414285D01*
X179954580Y-110414285D02*
X179859342Y-110461904D01*
X179859342Y-110461904D02*
X179668866Y-110509523D01*
X179668866Y-110509523D02*
X179430771Y-110509523D01*
X179430771Y-110509523D02*
X179240295Y-110461904D01*
X179240295Y-110461904D02*
X179145057Y-110414285D01*
X179145057Y-110414285D02*
X179097438Y-110366666D01*
X179097438Y-110366666D02*
X179049819Y-110271428D01*
X187388095Y-88529819D02*
X187388095Y-89339342D01*
X187388095Y-89339342D02*
X187435714Y-89434580D01*
X187435714Y-89434580D02*
X187483333Y-89482200D01*
X187483333Y-89482200D02*
X187578571Y-89529819D01*
X187578571Y-89529819D02*
X187769047Y-89529819D01*
X187769047Y-89529819D02*
X187864285Y-89482200D01*
X187864285Y-89482200D02*
X187911904Y-89434580D01*
X187911904Y-89434580D02*
X187959523Y-89339342D01*
X187959523Y-89339342D02*
X187959523Y-88529819D01*
X188388095Y-88625057D02*
X188435714Y-88577438D01*
X188435714Y-88577438D02*
X188530952Y-88529819D01*
X188530952Y-88529819D02*
X188769047Y-88529819D01*
X188769047Y-88529819D02*
X188864285Y-88577438D01*
X188864285Y-88577438D02*
X188911904Y-88625057D01*
X188911904Y-88625057D02*
X188959523Y-88720295D01*
X188959523Y-88720295D02*
X188959523Y-88815533D01*
X188959523Y-88815533D02*
X188911904Y-88958390D01*
X188911904Y-88958390D02*
X188340476Y-89529819D01*
X188340476Y-89529819D02*
X188959523Y-89529819D01*
X136604819Y-138438094D02*
X137414342Y-138438094D01*
X137414342Y-138438094D02*
X137509580Y-138390475D01*
X137509580Y-138390475D02*
X137557200Y-138342856D01*
X137557200Y-138342856D02*
X137604819Y-138247618D01*
X137604819Y-138247618D02*
X137604819Y-138057142D01*
X137604819Y-138057142D02*
X137557200Y-137961904D01*
X137557200Y-137961904D02*
X137509580Y-137914285D01*
X137509580Y-137914285D02*
X137414342Y-137866666D01*
X137414342Y-137866666D02*
X136604819Y-137866666D01*
X136700057Y-137438094D02*
X136652438Y-137390475D01*
X136652438Y-137390475D02*
X136604819Y-137295237D01*
X136604819Y-137295237D02*
X136604819Y-137057142D01*
X136604819Y-137057142D02*
X136652438Y-136961904D01*
X136652438Y-136961904D02*
X136700057Y-136914285D01*
X136700057Y-136914285D02*
X136795295Y-136866666D01*
X136795295Y-136866666D02*
X136890533Y-136866666D01*
X136890533Y-136866666D02*
X137033390Y-136914285D01*
X137033390Y-136914285D02*
X137604819Y-137485713D01*
X137604819Y-137485713D02*
X137604819Y-136866666D01*
X136938152Y-136009523D02*
X137604819Y-136009523D01*
X136557200Y-136247618D02*
X137271485Y-136485713D01*
X137271485Y-136485713D02*
X137271485Y-135866666D01*
X185432715Y-116713428D02*
X186049572Y-116713428D01*
X186049572Y-116713428D02*
X186122144Y-116677142D01*
X186122144Y-116677142D02*
X186158430Y-116640857D01*
X186158430Y-116640857D02*
X186194715Y-116568285D01*
X186194715Y-116568285D02*
X186194715Y-116423142D01*
X186194715Y-116423142D02*
X186158430Y-116350571D01*
X186158430Y-116350571D02*
X186122144Y-116314285D01*
X186122144Y-116314285D02*
X186049572Y-116277999D01*
X186049572Y-116277999D02*
X185432715Y-116277999D01*
X185432715Y-115987713D02*
X185432715Y-115515999D01*
X185432715Y-115515999D02*
X185723001Y-115769999D01*
X185723001Y-115769999D02*
X185723001Y-115661142D01*
X185723001Y-115661142D02*
X185759287Y-115588571D01*
X185759287Y-115588571D02*
X185795572Y-115552285D01*
X185795572Y-115552285D02*
X185868144Y-115515999D01*
X185868144Y-115515999D02*
X186049572Y-115515999D01*
X186049572Y-115515999D02*
X186122144Y-115552285D01*
X186122144Y-115552285D02*
X186158430Y-115588571D01*
X186158430Y-115588571D02*
X186194715Y-115661142D01*
X186194715Y-115661142D02*
X186194715Y-115878856D01*
X186194715Y-115878856D02*
X186158430Y-115951428D01*
X186158430Y-115951428D02*
X186122144Y-115987713D01*
X186194715Y-114790285D02*
X186194715Y-115225714D01*
X186194715Y-115007999D02*
X185432715Y-115007999D01*
X185432715Y-115007999D02*
X185541572Y-115080571D01*
X185541572Y-115080571D02*
X185614144Y-115153142D01*
X185614144Y-115153142D02*
X185650430Y-115225714D01*
X138757142Y-106384819D02*
X138423809Y-105908628D01*
X138185714Y-106384819D02*
X138185714Y-105384819D01*
X138185714Y-105384819D02*
X138566666Y-105384819D01*
X138566666Y-105384819D02*
X138661904Y-105432438D01*
X138661904Y-105432438D02*
X138709523Y-105480057D01*
X138709523Y-105480057D02*
X138757142Y-105575295D01*
X138757142Y-105575295D02*
X138757142Y-105718152D01*
X138757142Y-105718152D02*
X138709523Y-105813390D01*
X138709523Y-105813390D02*
X138661904Y-105861009D01*
X138661904Y-105861009D02*
X138566666Y-105908628D01*
X138566666Y-105908628D02*
X138185714Y-105908628D01*
X139709523Y-106384819D02*
X139138095Y-106384819D01*
X139423809Y-106384819D02*
X139423809Y-105384819D01*
X139423809Y-105384819D02*
X139328571Y-105527676D01*
X139328571Y-105527676D02*
X139233333Y-105622914D01*
X139233333Y-105622914D02*
X139138095Y-105670533D01*
X140566666Y-105718152D02*
X140566666Y-106384819D01*
X140328571Y-105337200D02*
X140090476Y-106051485D01*
X140090476Y-106051485D02*
X140709523Y-106051485D01*
X144233583Y-125296069D02*
X143900250Y-124819878D01*
X143662155Y-125296069D02*
X143662155Y-124296069D01*
X143662155Y-124296069D02*
X144043107Y-124296069D01*
X144043107Y-124296069D02*
X144138345Y-124343688D01*
X144138345Y-124343688D02*
X144185964Y-124391307D01*
X144185964Y-124391307D02*
X144233583Y-124486545D01*
X144233583Y-124486545D02*
X144233583Y-124629402D01*
X144233583Y-124629402D02*
X144185964Y-124724640D01*
X144185964Y-124724640D02*
X144138345Y-124772259D01*
X144138345Y-124772259D02*
X144043107Y-124819878D01*
X144043107Y-124819878D02*
X143662155Y-124819878D01*
X144709774Y-125296069D02*
X144900250Y-125296069D01*
X144900250Y-125296069D02*
X144995488Y-125248450D01*
X144995488Y-125248450D02*
X145043107Y-125200830D01*
X145043107Y-125200830D02*
X145138345Y-125057973D01*
X145138345Y-125057973D02*
X145185964Y-124867497D01*
X145185964Y-124867497D02*
X145185964Y-124486545D01*
X145185964Y-124486545D02*
X145138345Y-124391307D01*
X145138345Y-124391307D02*
X145090726Y-124343688D01*
X145090726Y-124343688D02*
X144995488Y-124296069D01*
X144995488Y-124296069D02*
X144805012Y-124296069D01*
X144805012Y-124296069D02*
X144709774Y-124343688D01*
X144709774Y-124343688D02*
X144662155Y-124391307D01*
X144662155Y-124391307D02*
X144614536Y-124486545D01*
X144614536Y-124486545D02*
X144614536Y-124724640D01*
X144614536Y-124724640D02*
X144662155Y-124819878D01*
X144662155Y-124819878D02*
X144709774Y-124867497D01*
X144709774Y-124867497D02*
X144805012Y-124915116D01*
X144805012Y-124915116D02*
X144995488Y-124915116D01*
X144995488Y-124915116D02*
X145090726Y-124867497D01*
X145090726Y-124867497D02*
X145138345Y-124819878D01*
X145138345Y-124819878D02*
X145185964Y-124724640D01*
X185935714Y-107954819D02*
X185935714Y-106954819D01*
X185935714Y-106954819D02*
X186173809Y-106954819D01*
X186173809Y-106954819D02*
X186316666Y-107002438D01*
X186316666Y-107002438D02*
X186411904Y-107097676D01*
X186411904Y-107097676D02*
X186459523Y-107192914D01*
X186459523Y-107192914D02*
X186507142Y-107383390D01*
X186507142Y-107383390D02*
X186507142Y-107526247D01*
X186507142Y-107526247D02*
X186459523Y-107716723D01*
X186459523Y-107716723D02*
X186411904Y-107811961D01*
X186411904Y-107811961D02*
X186316666Y-107907200D01*
X186316666Y-107907200D02*
X186173809Y-107954819D01*
X186173809Y-107954819D02*
X185935714Y-107954819D01*
X186840476Y-106954819D02*
X187459523Y-106954819D01*
X187459523Y-106954819D02*
X187126190Y-107335771D01*
X187126190Y-107335771D02*
X187269047Y-107335771D01*
X187269047Y-107335771D02*
X187364285Y-107383390D01*
X187364285Y-107383390D02*
X187411904Y-107431009D01*
X187411904Y-107431009D02*
X187459523Y-107526247D01*
X187459523Y-107526247D02*
X187459523Y-107764342D01*
X187459523Y-107764342D02*
X187411904Y-107859580D01*
X187411904Y-107859580D02*
X187364285Y-107907200D01*
X187364285Y-107907200D02*
X187269047Y-107954819D01*
X187269047Y-107954819D02*
X186983333Y-107954819D01*
X186983333Y-107954819D02*
X186888095Y-107907200D01*
X186888095Y-107907200D02*
X186840476Y-107859580D01*
X187792857Y-106954819D02*
X188459523Y-106954819D01*
X188459523Y-106954819D02*
X188030952Y-107954819D01*
X194040476Y-99311009D02*
X193707143Y-99311009D01*
X193707143Y-99834819D02*
X193707143Y-98834819D01*
X193707143Y-98834819D02*
X194183333Y-98834819D01*
X195088095Y-99834819D02*
X194516667Y-99834819D01*
X194802381Y-99834819D02*
X194802381Y-98834819D01*
X194802381Y-98834819D02*
X194707143Y-98977676D01*
X194707143Y-98977676D02*
X194611905Y-99072914D01*
X194611905Y-99072914D02*
X194516667Y-99120533D01*
X196040476Y-99834819D02*
X195469048Y-99834819D01*
X195754762Y-99834819D02*
X195754762Y-98834819D01*
X195754762Y-98834819D02*
X195659524Y-98977676D01*
X195659524Y-98977676D02*
X195564286Y-99072914D01*
X195564286Y-99072914D02*
X195469048Y-99120533D01*
X138135714Y-122479819D02*
X138135714Y-121479819D01*
X138135714Y-121479819D02*
X138373809Y-121479819D01*
X138373809Y-121479819D02*
X138516666Y-121527438D01*
X138516666Y-121527438D02*
X138611904Y-121622676D01*
X138611904Y-121622676D02*
X138659523Y-121717914D01*
X138659523Y-121717914D02*
X138707142Y-121908390D01*
X138707142Y-121908390D02*
X138707142Y-122051247D01*
X138707142Y-122051247D02*
X138659523Y-122241723D01*
X138659523Y-122241723D02*
X138611904Y-122336961D01*
X138611904Y-122336961D02*
X138516666Y-122432200D01*
X138516666Y-122432200D02*
X138373809Y-122479819D01*
X138373809Y-122479819D02*
X138135714Y-122479819D01*
X139564285Y-121813152D02*
X139564285Y-122479819D01*
X139326190Y-121432200D02*
X139088095Y-122146485D01*
X139088095Y-122146485D02*
X139707142Y-122146485D01*
X139992857Y-121479819D02*
X140611904Y-121479819D01*
X140611904Y-121479819D02*
X140278571Y-121860771D01*
X140278571Y-121860771D02*
X140421428Y-121860771D01*
X140421428Y-121860771D02*
X140516666Y-121908390D01*
X140516666Y-121908390D02*
X140564285Y-121956009D01*
X140564285Y-121956009D02*
X140611904Y-122051247D01*
X140611904Y-122051247D02*
X140611904Y-122289342D01*
X140611904Y-122289342D02*
X140564285Y-122384580D01*
X140564285Y-122384580D02*
X140516666Y-122432200D01*
X140516666Y-122432200D02*
X140421428Y-122479819D01*
X140421428Y-122479819D02*
X140135714Y-122479819D01*
X140135714Y-122479819D02*
X140040476Y-122432200D01*
X140040476Y-122432200D02*
X139992857Y-122384580D01*
X132109819Y-132294047D02*
X131633628Y-132627380D01*
X132109819Y-132865475D02*
X131109819Y-132865475D01*
X131109819Y-132865475D02*
X131109819Y-132484523D01*
X131109819Y-132484523D02*
X131157438Y-132389285D01*
X131157438Y-132389285D02*
X131205057Y-132341666D01*
X131205057Y-132341666D02*
X131300295Y-132294047D01*
X131300295Y-132294047D02*
X131443152Y-132294047D01*
X131443152Y-132294047D02*
X131538390Y-132341666D01*
X131538390Y-132341666D02*
X131586009Y-132389285D01*
X131586009Y-132389285D02*
X131633628Y-132484523D01*
X131633628Y-132484523D02*
X131633628Y-132865475D01*
X132109819Y-131341666D02*
X132109819Y-131913094D01*
X132109819Y-131627380D02*
X131109819Y-131627380D01*
X131109819Y-131627380D02*
X131252676Y-131722618D01*
X131252676Y-131722618D02*
X131347914Y-131817856D01*
X131347914Y-131817856D02*
X131395533Y-131913094D01*
X131109819Y-130722618D02*
X131109819Y-130627380D01*
X131109819Y-130627380D02*
X131157438Y-130532142D01*
X131157438Y-130532142D02*
X131205057Y-130484523D01*
X131205057Y-130484523D02*
X131300295Y-130436904D01*
X131300295Y-130436904D02*
X131490771Y-130389285D01*
X131490771Y-130389285D02*
X131728866Y-130389285D01*
X131728866Y-130389285D02*
X131919342Y-130436904D01*
X131919342Y-130436904D02*
X132014580Y-130484523D01*
X132014580Y-130484523D02*
X132062200Y-130532142D01*
X132062200Y-130532142D02*
X132109819Y-130627380D01*
X132109819Y-130627380D02*
X132109819Y-130722618D01*
X132109819Y-130722618D02*
X132062200Y-130817856D01*
X132062200Y-130817856D02*
X132014580Y-130865475D01*
X132014580Y-130865475D02*
X131919342Y-130913094D01*
X131919342Y-130913094D02*
X131728866Y-130960713D01*
X131728866Y-130960713D02*
X131490771Y-130960713D01*
X131490771Y-130960713D02*
X131300295Y-130913094D01*
X131300295Y-130913094D02*
X131205057Y-130865475D01*
X131205057Y-130865475D02*
X131157438Y-130817856D01*
X131157438Y-130817856D02*
X131109819Y-130722618D01*
X131109819Y-130055951D02*
X131109819Y-129436904D01*
X131109819Y-129436904D02*
X131490771Y-129770237D01*
X131490771Y-129770237D02*
X131490771Y-129627380D01*
X131490771Y-129627380D02*
X131538390Y-129532142D01*
X131538390Y-129532142D02*
X131586009Y-129484523D01*
X131586009Y-129484523D02*
X131681247Y-129436904D01*
X131681247Y-129436904D02*
X131919342Y-129436904D01*
X131919342Y-129436904D02*
X132014580Y-129484523D01*
X132014580Y-129484523D02*
X132062200Y-129532142D01*
X132062200Y-129532142D02*
X132109819Y-129627380D01*
X132109819Y-129627380D02*
X132109819Y-129913094D01*
X132109819Y-129913094D02*
X132062200Y-130008332D01*
X132062200Y-130008332D02*
X132014580Y-130055951D01*
X180499819Y-130892857D02*
X180023628Y-131226190D01*
X180499819Y-131464285D02*
X179499819Y-131464285D01*
X179499819Y-131464285D02*
X179499819Y-131083333D01*
X179499819Y-131083333D02*
X179547438Y-130988095D01*
X179547438Y-130988095D02*
X179595057Y-130940476D01*
X179595057Y-130940476D02*
X179690295Y-130892857D01*
X179690295Y-130892857D02*
X179833152Y-130892857D01*
X179833152Y-130892857D02*
X179928390Y-130940476D01*
X179928390Y-130940476D02*
X179976009Y-130988095D01*
X179976009Y-130988095D02*
X180023628Y-131083333D01*
X180023628Y-131083333D02*
X180023628Y-131464285D01*
X180499819Y-130416666D02*
X180499819Y-130226190D01*
X180499819Y-130226190D02*
X180452200Y-130130952D01*
X180452200Y-130130952D02*
X180404580Y-130083333D01*
X180404580Y-130083333D02*
X180261723Y-129988095D01*
X180261723Y-129988095D02*
X180071247Y-129940476D01*
X180071247Y-129940476D02*
X179690295Y-129940476D01*
X179690295Y-129940476D02*
X179595057Y-129988095D01*
X179595057Y-129988095D02*
X179547438Y-130035714D01*
X179547438Y-130035714D02*
X179499819Y-130130952D01*
X179499819Y-130130952D02*
X179499819Y-130321428D01*
X179499819Y-130321428D02*
X179547438Y-130416666D01*
X179547438Y-130416666D02*
X179595057Y-130464285D01*
X179595057Y-130464285D02*
X179690295Y-130511904D01*
X179690295Y-130511904D02*
X179928390Y-130511904D01*
X179928390Y-130511904D02*
X180023628Y-130464285D01*
X180023628Y-130464285D02*
X180071247Y-130416666D01*
X180071247Y-130416666D02*
X180118866Y-130321428D01*
X180118866Y-130321428D02*
X180118866Y-130130952D01*
X180118866Y-130130952D02*
X180071247Y-130035714D01*
X180071247Y-130035714D02*
X180023628Y-129988095D01*
X180023628Y-129988095D02*
X179928390Y-129940476D01*
X179499819Y-129083333D02*
X179499819Y-129273809D01*
X179499819Y-129273809D02*
X179547438Y-129369047D01*
X179547438Y-129369047D02*
X179595057Y-129416666D01*
X179595057Y-129416666D02*
X179737914Y-129511904D01*
X179737914Y-129511904D02*
X179928390Y-129559523D01*
X179928390Y-129559523D02*
X180309342Y-129559523D01*
X180309342Y-129559523D02*
X180404580Y-129511904D01*
X180404580Y-129511904D02*
X180452200Y-129464285D01*
X180452200Y-129464285D02*
X180499819Y-129369047D01*
X180499819Y-129369047D02*
X180499819Y-129178571D01*
X180499819Y-129178571D02*
X180452200Y-129083333D01*
X180452200Y-129083333D02*
X180404580Y-129035714D01*
X180404580Y-129035714D02*
X180309342Y-128988095D01*
X180309342Y-128988095D02*
X180071247Y-128988095D01*
X180071247Y-128988095D02*
X179976009Y-129035714D01*
X179976009Y-129035714D02*
X179928390Y-129083333D01*
X179928390Y-129083333D02*
X179880771Y-129178571D01*
X179880771Y-129178571D02*
X179880771Y-129369047D01*
X179880771Y-129369047D02*
X179928390Y-129464285D01*
X179928390Y-129464285D02*
X179976009Y-129511904D01*
X179976009Y-129511904D02*
X180071247Y-129559523D01*
X177674819Y-130892857D02*
X177198628Y-131226190D01*
X177674819Y-131464285D02*
X176674819Y-131464285D01*
X176674819Y-131464285D02*
X176674819Y-131083333D01*
X176674819Y-131083333D02*
X176722438Y-130988095D01*
X176722438Y-130988095D02*
X176770057Y-130940476D01*
X176770057Y-130940476D02*
X176865295Y-130892857D01*
X176865295Y-130892857D02*
X177008152Y-130892857D01*
X177008152Y-130892857D02*
X177103390Y-130940476D01*
X177103390Y-130940476D02*
X177151009Y-130988095D01*
X177151009Y-130988095D02*
X177198628Y-131083333D01*
X177198628Y-131083333D02*
X177198628Y-131464285D01*
X176674819Y-130559523D02*
X176674819Y-129892857D01*
X176674819Y-129892857D02*
X177674819Y-130321428D01*
X176674819Y-129083333D02*
X176674819Y-129273809D01*
X176674819Y-129273809D02*
X176722438Y-129369047D01*
X176722438Y-129369047D02*
X176770057Y-129416666D01*
X176770057Y-129416666D02*
X176912914Y-129511904D01*
X176912914Y-129511904D02*
X177103390Y-129559523D01*
X177103390Y-129559523D02*
X177484342Y-129559523D01*
X177484342Y-129559523D02*
X177579580Y-129511904D01*
X177579580Y-129511904D02*
X177627200Y-129464285D01*
X177627200Y-129464285D02*
X177674819Y-129369047D01*
X177674819Y-129369047D02*
X177674819Y-129178571D01*
X177674819Y-129178571D02*
X177627200Y-129083333D01*
X177627200Y-129083333D02*
X177579580Y-129035714D01*
X177579580Y-129035714D02*
X177484342Y-128988095D01*
X177484342Y-128988095D02*
X177246247Y-128988095D01*
X177246247Y-128988095D02*
X177151009Y-129035714D01*
X177151009Y-129035714D02*
X177103390Y-129083333D01*
X177103390Y-129083333D02*
X177055771Y-129178571D01*
X177055771Y-129178571D02*
X177055771Y-129369047D01*
X177055771Y-129369047D02*
X177103390Y-129464285D01*
X177103390Y-129464285D02*
X177151009Y-129511904D01*
X177151009Y-129511904D02*
X177246247Y-129559523D01*
X145799819Y-113417857D02*
X145323628Y-113751190D01*
X145799819Y-113989285D02*
X144799819Y-113989285D01*
X144799819Y-113989285D02*
X144799819Y-113608333D01*
X144799819Y-113608333D02*
X144847438Y-113513095D01*
X144847438Y-113513095D02*
X144895057Y-113465476D01*
X144895057Y-113465476D02*
X144990295Y-113417857D01*
X144990295Y-113417857D02*
X145133152Y-113417857D01*
X145133152Y-113417857D02*
X145228390Y-113465476D01*
X145228390Y-113465476D02*
X145276009Y-113513095D01*
X145276009Y-113513095D02*
X145323628Y-113608333D01*
X145323628Y-113608333D02*
X145323628Y-113989285D01*
X144799819Y-113084523D02*
X144799819Y-112417857D01*
X144799819Y-112417857D02*
X145799819Y-112846428D01*
X145133152Y-111608333D02*
X145799819Y-111608333D01*
X144752200Y-111846428D02*
X145466485Y-112084523D01*
X145466485Y-112084523D02*
X145466485Y-111465476D01*
X176199819Y-93367857D02*
X175723628Y-93701190D01*
X176199819Y-93939285D02*
X175199819Y-93939285D01*
X175199819Y-93939285D02*
X175199819Y-93558333D01*
X175199819Y-93558333D02*
X175247438Y-93463095D01*
X175247438Y-93463095D02*
X175295057Y-93415476D01*
X175295057Y-93415476D02*
X175390295Y-93367857D01*
X175390295Y-93367857D02*
X175533152Y-93367857D01*
X175533152Y-93367857D02*
X175628390Y-93415476D01*
X175628390Y-93415476D02*
X175676009Y-93463095D01*
X175676009Y-93463095D02*
X175723628Y-93558333D01*
X175723628Y-93558333D02*
X175723628Y-93939285D01*
X175199819Y-93034523D02*
X175199819Y-92367857D01*
X175199819Y-92367857D02*
X176199819Y-92796428D01*
X176199819Y-91939285D02*
X176199819Y-91748809D01*
X176199819Y-91748809D02*
X176152200Y-91653571D01*
X176152200Y-91653571D02*
X176104580Y-91605952D01*
X176104580Y-91605952D02*
X175961723Y-91510714D01*
X175961723Y-91510714D02*
X175771247Y-91463095D01*
X175771247Y-91463095D02*
X175390295Y-91463095D01*
X175390295Y-91463095D02*
X175295057Y-91510714D01*
X175295057Y-91510714D02*
X175247438Y-91558333D01*
X175247438Y-91558333D02*
X175199819Y-91653571D01*
X175199819Y-91653571D02*
X175199819Y-91844047D01*
X175199819Y-91844047D02*
X175247438Y-91939285D01*
X175247438Y-91939285D02*
X175295057Y-91986904D01*
X175295057Y-91986904D02*
X175390295Y-92034523D01*
X175390295Y-92034523D02*
X175628390Y-92034523D01*
X175628390Y-92034523D02*
X175723628Y-91986904D01*
X175723628Y-91986904D02*
X175771247Y-91939285D01*
X175771247Y-91939285D02*
X175818866Y-91844047D01*
X175818866Y-91844047D02*
X175818866Y-91653571D01*
X175818866Y-91653571D02*
X175771247Y-91558333D01*
X175771247Y-91558333D02*
X175723628Y-91510714D01*
X175723628Y-91510714D02*
X175628390Y-91463095D01*
X186607142Y-104679819D02*
X186273809Y-104203628D01*
X186035714Y-104679819D02*
X186035714Y-103679819D01*
X186035714Y-103679819D02*
X186416666Y-103679819D01*
X186416666Y-103679819D02*
X186511904Y-103727438D01*
X186511904Y-103727438D02*
X186559523Y-103775057D01*
X186559523Y-103775057D02*
X186607142Y-103870295D01*
X186607142Y-103870295D02*
X186607142Y-104013152D01*
X186607142Y-104013152D02*
X186559523Y-104108390D01*
X186559523Y-104108390D02*
X186511904Y-104156009D01*
X186511904Y-104156009D02*
X186416666Y-104203628D01*
X186416666Y-104203628D02*
X186035714Y-104203628D01*
X186940476Y-103679819D02*
X187559523Y-103679819D01*
X187559523Y-103679819D02*
X187226190Y-104060771D01*
X187226190Y-104060771D02*
X187369047Y-104060771D01*
X187369047Y-104060771D02*
X187464285Y-104108390D01*
X187464285Y-104108390D02*
X187511904Y-104156009D01*
X187511904Y-104156009D02*
X187559523Y-104251247D01*
X187559523Y-104251247D02*
X187559523Y-104489342D01*
X187559523Y-104489342D02*
X187511904Y-104584580D01*
X187511904Y-104584580D02*
X187464285Y-104632200D01*
X187464285Y-104632200D02*
X187369047Y-104679819D01*
X187369047Y-104679819D02*
X187083333Y-104679819D01*
X187083333Y-104679819D02*
X186988095Y-104632200D01*
X186988095Y-104632200D02*
X186940476Y-104584580D01*
X188130952Y-104108390D02*
X188035714Y-104060771D01*
X188035714Y-104060771D02*
X187988095Y-104013152D01*
X187988095Y-104013152D02*
X187940476Y-103917914D01*
X187940476Y-103917914D02*
X187940476Y-103870295D01*
X187940476Y-103870295D02*
X187988095Y-103775057D01*
X187988095Y-103775057D02*
X188035714Y-103727438D01*
X188035714Y-103727438D02*
X188130952Y-103679819D01*
X188130952Y-103679819D02*
X188321428Y-103679819D01*
X188321428Y-103679819D02*
X188416666Y-103727438D01*
X188416666Y-103727438D02*
X188464285Y-103775057D01*
X188464285Y-103775057D02*
X188511904Y-103870295D01*
X188511904Y-103870295D02*
X188511904Y-103917914D01*
X188511904Y-103917914D02*
X188464285Y-104013152D01*
X188464285Y-104013152D02*
X188416666Y-104060771D01*
X188416666Y-104060771D02*
X188321428Y-104108390D01*
X188321428Y-104108390D02*
X188130952Y-104108390D01*
X188130952Y-104108390D02*
X188035714Y-104156009D01*
X188035714Y-104156009D02*
X187988095Y-104203628D01*
X187988095Y-104203628D02*
X187940476Y-104298866D01*
X187940476Y-104298866D02*
X187940476Y-104489342D01*
X187940476Y-104489342D02*
X187988095Y-104584580D01*
X187988095Y-104584580D02*
X188035714Y-104632200D01*
X188035714Y-104632200D02*
X188130952Y-104679819D01*
X188130952Y-104679819D02*
X188321428Y-104679819D01*
X188321428Y-104679819D02*
X188416666Y-104632200D01*
X188416666Y-104632200D02*
X188464285Y-104584580D01*
X188464285Y-104584580D02*
X188511904Y-104489342D01*
X188511904Y-104489342D02*
X188511904Y-104298866D01*
X188511904Y-104298866D02*
X188464285Y-104203628D01*
X188464285Y-104203628D02*
X188416666Y-104156009D01*
X188416666Y-104156009D02*
X188321428Y-104108390D01*
X192559819Y-96344047D02*
X192083628Y-96677380D01*
X192559819Y-96915475D02*
X191559819Y-96915475D01*
X191559819Y-96915475D02*
X191559819Y-96534523D01*
X191559819Y-96534523D02*
X191607438Y-96439285D01*
X191607438Y-96439285D02*
X191655057Y-96391666D01*
X191655057Y-96391666D02*
X191750295Y-96344047D01*
X191750295Y-96344047D02*
X191893152Y-96344047D01*
X191893152Y-96344047D02*
X191988390Y-96391666D01*
X191988390Y-96391666D02*
X192036009Y-96439285D01*
X192036009Y-96439285D02*
X192083628Y-96534523D01*
X192083628Y-96534523D02*
X192083628Y-96915475D01*
X192559819Y-95391666D02*
X192559819Y-95963094D01*
X192559819Y-95677380D02*
X191559819Y-95677380D01*
X191559819Y-95677380D02*
X191702676Y-95772618D01*
X191702676Y-95772618D02*
X191797914Y-95867856D01*
X191797914Y-95867856D02*
X191845533Y-95963094D01*
X191559819Y-94772618D02*
X191559819Y-94677380D01*
X191559819Y-94677380D02*
X191607438Y-94582142D01*
X191607438Y-94582142D02*
X191655057Y-94534523D01*
X191655057Y-94534523D02*
X191750295Y-94486904D01*
X191750295Y-94486904D02*
X191940771Y-94439285D01*
X191940771Y-94439285D02*
X192178866Y-94439285D01*
X192178866Y-94439285D02*
X192369342Y-94486904D01*
X192369342Y-94486904D02*
X192464580Y-94534523D01*
X192464580Y-94534523D02*
X192512200Y-94582142D01*
X192512200Y-94582142D02*
X192559819Y-94677380D01*
X192559819Y-94677380D02*
X192559819Y-94772618D01*
X192559819Y-94772618D02*
X192512200Y-94867856D01*
X192512200Y-94867856D02*
X192464580Y-94915475D01*
X192464580Y-94915475D02*
X192369342Y-94963094D01*
X192369342Y-94963094D02*
X192178866Y-95010713D01*
X192178866Y-95010713D02*
X191940771Y-95010713D01*
X191940771Y-95010713D02*
X191750295Y-94963094D01*
X191750295Y-94963094D02*
X191655057Y-94915475D01*
X191655057Y-94915475D02*
X191607438Y-94867856D01*
X191607438Y-94867856D02*
X191559819Y-94772618D01*
X192559819Y-93963094D02*
X192559819Y-93772618D01*
X192559819Y-93772618D02*
X192512200Y-93677380D01*
X192512200Y-93677380D02*
X192464580Y-93629761D01*
X192464580Y-93629761D02*
X192321723Y-93534523D01*
X192321723Y-93534523D02*
X192131247Y-93486904D01*
X192131247Y-93486904D02*
X191750295Y-93486904D01*
X191750295Y-93486904D02*
X191655057Y-93534523D01*
X191655057Y-93534523D02*
X191607438Y-93582142D01*
X191607438Y-93582142D02*
X191559819Y-93677380D01*
X191559819Y-93677380D02*
X191559819Y-93867856D01*
X191559819Y-93867856D02*
X191607438Y-93963094D01*
X191607438Y-93963094D02*
X191655057Y-94010713D01*
X191655057Y-94010713D02*
X191750295Y-94058332D01*
X191750295Y-94058332D02*
X191988390Y-94058332D01*
X191988390Y-94058332D02*
X192083628Y-94010713D01*
X192083628Y-94010713D02*
X192131247Y-93963094D01*
X192131247Y-93963094D02*
X192178866Y-93867856D01*
X192178866Y-93867856D02*
X192178866Y-93677380D01*
X192178866Y-93677380D02*
X192131247Y-93582142D01*
X192131247Y-93582142D02*
X192083628Y-93534523D01*
X192083628Y-93534523D02*
X191988390Y-93486904D01*
X144969819Y-88092857D02*
X144493628Y-88426190D01*
X144969819Y-88664285D02*
X143969819Y-88664285D01*
X143969819Y-88664285D02*
X143969819Y-88283333D01*
X143969819Y-88283333D02*
X144017438Y-88188095D01*
X144017438Y-88188095D02*
X144065057Y-88140476D01*
X144065057Y-88140476D02*
X144160295Y-88092857D01*
X144160295Y-88092857D02*
X144303152Y-88092857D01*
X144303152Y-88092857D02*
X144398390Y-88140476D01*
X144398390Y-88140476D02*
X144446009Y-88188095D01*
X144446009Y-88188095D02*
X144493628Y-88283333D01*
X144493628Y-88283333D02*
X144493628Y-88664285D01*
X144969819Y-87140476D02*
X144969819Y-87711904D01*
X144969819Y-87426190D02*
X143969819Y-87426190D01*
X143969819Y-87426190D02*
X144112676Y-87521428D01*
X144112676Y-87521428D02*
X144207914Y-87616666D01*
X144207914Y-87616666D02*
X144255533Y-87711904D01*
X143969819Y-86807142D02*
X143969819Y-86140476D01*
X143969819Y-86140476D02*
X144969819Y-86569047D01*
X165040819Y-137612333D02*
X165755104Y-137612333D01*
X165755104Y-137612333D02*
X165897961Y-137659952D01*
X165897961Y-137659952D02*
X165993200Y-137755190D01*
X165993200Y-137755190D02*
X166040819Y-137898047D01*
X166040819Y-137898047D02*
X166040819Y-137993285D01*
X166040819Y-137136142D02*
X165040819Y-137136142D01*
X165040819Y-137136142D02*
X165040819Y-136755190D01*
X165040819Y-136755190D02*
X165088438Y-136659952D01*
X165088438Y-136659952D02*
X165136057Y-136612333D01*
X165136057Y-136612333D02*
X165231295Y-136564714D01*
X165231295Y-136564714D02*
X165374152Y-136564714D01*
X165374152Y-136564714D02*
X165469390Y-136612333D01*
X165469390Y-136612333D02*
X165517009Y-136659952D01*
X165517009Y-136659952D02*
X165564628Y-136755190D01*
X165564628Y-136755190D02*
X165564628Y-137136142D01*
X165136057Y-136183761D02*
X165088438Y-136136142D01*
X165088438Y-136136142D02*
X165040819Y-136040904D01*
X165040819Y-136040904D02*
X165040819Y-135802809D01*
X165040819Y-135802809D02*
X165088438Y-135707571D01*
X165088438Y-135707571D02*
X165136057Y-135659952D01*
X165136057Y-135659952D02*
X165231295Y-135612333D01*
X165231295Y-135612333D02*
X165326533Y-135612333D01*
X165326533Y-135612333D02*
X165469390Y-135659952D01*
X165469390Y-135659952D02*
X166040819Y-136231380D01*
X166040819Y-136231380D02*
X166040819Y-135612333D01*
X144724819Y-132392857D02*
X144248628Y-132726190D01*
X144724819Y-132964285D02*
X143724819Y-132964285D01*
X143724819Y-132964285D02*
X143724819Y-132583333D01*
X143724819Y-132583333D02*
X143772438Y-132488095D01*
X143772438Y-132488095D02*
X143820057Y-132440476D01*
X143820057Y-132440476D02*
X143915295Y-132392857D01*
X143915295Y-132392857D02*
X144058152Y-132392857D01*
X144058152Y-132392857D02*
X144153390Y-132440476D01*
X144153390Y-132440476D02*
X144201009Y-132488095D01*
X144201009Y-132488095D02*
X144248628Y-132583333D01*
X144248628Y-132583333D02*
X144248628Y-132964285D01*
X143724819Y-132059523D02*
X143724819Y-131392857D01*
X143724819Y-131392857D02*
X144724819Y-131821428D01*
X143724819Y-131107142D02*
X143724819Y-130488095D01*
X143724819Y-130488095D02*
X144105771Y-130821428D01*
X144105771Y-130821428D02*
X144105771Y-130678571D01*
X144105771Y-130678571D02*
X144153390Y-130583333D01*
X144153390Y-130583333D02*
X144201009Y-130535714D01*
X144201009Y-130535714D02*
X144296247Y-130488095D01*
X144296247Y-130488095D02*
X144534342Y-130488095D01*
X144534342Y-130488095D02*
X144629580Y-130535714D01*
X144629580Y-130535714D02*
X144677200Y-130583333D01*
X144677200Y-130583333D02*
X144724819Y-130678571D01*
X144724819Y-130678571D02*
X144724819Y-130964285D01*
X144724819Y-130964285D02*
X144677200Y-131059523D01*
X144677200Y-131059523D02*
X144629580Y-131107142D01*
X177357142Y-97309819D02*
X177023809Y-96833628D01*
X176785714Y-97309819D02*
X176785714Y-96309819D01*
X176785714Y-96309819D02*
X177166666Y-96309819D01*
X177166666Y-96309819D02*
X177261904Y-96357438D01*
X177261904Y-96357438D02*
X177309523Y-96405057D01*
X177309523Y-96405057D02*
X177357142Y-96500295D01*
X177357142Y-96500295D02*
X177357142Y-96643152D01*
X177357142Y-96643152D02*
X177309523Y-96738390D01*
X177309523Y-96738390D02*
X177261904Y-96786009D01*
X177261904Y-96786009D02*
X177166666Y-96833628D01*
X177166666Y-96833628D02*
X176785714Y-96833628D01*
X177928571Y-96738390D02*
X177833333Y-96690771D01*
X177833333Y-96690771D02*
X177785714Y-96643152D01*
X177785714Y-96643152D02*
X177738095Y-96547914D01*
X177738095Y-96547914D02*
X177738095Y-96500295D01*
X177738095Y-96500295D02*
X177785714Y-96405057D01*
X177785714Y-96405057D02*
X177833333Y-96357438D01*
X177833333Y-96357438D02*
X177928571Y-96309819D01*
X177928571Y-96309819D02*
X178119047Y-96309819D01*
X178119047Y-96309819D02*
X178214285Y-96357438D01*
X178214285Y-96357438D02*
X178261904Y-96405057D01*
X178261904Y-96405057D02*
X178309523Y-96500295D01*
X178309523Y-96500295D02*
X178309523Y-96547914D01*
X178309523Y-96547914D02*
X178261904Y-96643152D01*
X178261904Y-96643152D02*
X178214285Y-96690771D01*
X178214285Y-96690771D02*
X178119047Y-96738390D01*
X178119047Y-96738390D02*
X177928571Y-96738390D01*
X177928571Y-96738390D02*
X177833333Y-96786009D01*
X177833333Y-96786009D02*
X177785714Y-96833628D01*
X177785714Y-96833628D02*
X177738095Y-96928866D01*
X177738095Y-96928866D02*
X177738095Y-97119342D01*
X177738095Y-97119342D02*
X177785714Y-97214580D01*
X177785714Y-97214580D02*
X177833333Y-97262200D01*
X177833333Y-97262200D02*
X177928571Y-97309819D01*
X177928571Y-97309819D02*
X178119047Y-97309819D01*
X178119047Y-97309819D02*
X178214285Y-97262200D01*
X178214285Y-97262200D02*
X178261904Y-97214580D01*
X178261904Y-97214580D02*
X178309523Y-97119342D01*
X178309523Y-97119342D02*
X178309523Y-96928866D01*
X178309523Y-96928866D02*
X178261904Y-96833628D01*
X178261904Y-96833628D02*
X178214285Y-96786009D01*
X178214285Y-96786009D02*
X178119047Y-96738390D01*
X178785714Y-97309819D02*
X178976190Y-97309819D01*
X178976190Y-97309819D02*
X179071428Y-97262200D01*
X179071428Y-97262200D02*
X179119047Y-97214580D01*
X179119047Y-97214580D02*
X179214285Y-97071723D01*
X179214285Y-97071723D02*
X179261904Y-96881247D01*
X179261904Y-96881247D02*
X179261904Y-96500295D01*
X179261904Y-96500295D02*
X179214285Y-96405057D01*
X179214285Y-96405057D02*
X179166666Y-96357438D01*
X179166666Y-96357438D02*
X179071428Y-96309819D01*
X179071428Y-96309819D02*
X178880952Y-96309819D01*
X178880952Y-96309819D02*
X178785714Y-96357438D01*
X178785714Y-96357438D02*
X178738095Y-96405057D01*
X178738095Y-96405057D02*
X178690476Y-96500295D01*
X178690476Y-96500295D02*
X178690476Y-96738390D01*
X178690476Y-96738390D02*
X178738095Y-96833628D01*
X178738095Y-96833628D02*
X178785714Y-96881247D01*
X178785714Y-96881247D02*
X178880952Y-96928866D01*
X178880952Y-96928866D02*
X179071428Y-96928866D01*
X179071428Y-96928866D02*
X179166666Y-96881247D01*
X179166666Y-96881247D02*
X179214285Y-96833628D01*
X179214285Y-96833628D02*
X179261904Y-96738390D01*
X185360666Y-76930819D02*
X185360666Y-77645104D01*
X185360666Y-77645104D02*
X185313047Y-77787961D01*
X185313047Y-77787961D02*
X185217809Y-77883200D01*
X185217809Y-77883200D02*
X185074952Y-77930819D01*
X185074952Y-77930819D02*
X184979714Y-77930819D01*
X185789238Y-77026057D02*
X185836857Y-76978438D01*
X185836857Y-76978438D02*
X185932095Y-76930819D01*
X185932095Y-76930819D02*
X186170190Y-76930819D01*
X186170190Y-76930819D02*
X186265428Y-76978438D01*
X186265428Y-76978438D02*
X186313047Y-77026057D01*
X186313047Y-77026057D02*
X186360666Y-77121295D01*
X186360666Y-77121295D02*
X186360666Y-77216533D01*
X186360666Y-77216533D02*
X186313047Y-77359390D01*
X186313047Y-77359390D02*
X185741619Y-77930819D01*
X185741619Y-77930819D02*
X186360666Y-77930819D01*
X138300714Y-87254819D02*
X138300714Y-86254819D01*
X138300714Y-86254819D02*
X138538809Y-86254819D01*
X138538809Y-86254819D02*
X138681666Y-86302438D01*
X138681666Y-86302438D02*
X138776904Y-86397676D01*
X138776904Y-86397676D02*
X138824523Y-86492914D01*
X138824523Y-86492914D02*
X138872142Y-86683390D01*
X138872142Y-86683390D02*
X138872142Y-86826247D01*
X138872142Y-86826247D02*
X138824523Y-87016723D01*
X138824523Y-87016723D02*
X138776904Y-87111961D01*
X138776904Y-87111961D02*
X138681666Y-87207200D01*
X138681666Y-87207200D02*
X138538809Y-87254819D01*
X138538809Y-87254819D02*
X138300714Y-87254819D01*
X139824523Y-87254819D02*
X139253095Y-87254819D01*
X139538809Y-87254819D02*
X139538809Y-86254819D01*
X139538809Y-86254819D02*
X139443571Y-86397676D01*
X139443571Y-86397676D02*
X139348333Y-86492914D01*
X139348333Y-86492914D02*
X139253095Y-86540533D01*
X140157857Y-86254819D02*
X140824523Y-86254819D01*
X140824523Y-86254819D02*
X140395952Y-87254819D01*
X138350714Y-81304819D02*
X138350714Y-80304819D01*
X138350714Y-80304819D02*
X138588809Y-80304819D01*
X138588809Y-80304819D02*
X138731666Y-80352438D01*
X138731666Y-80352438D02*
X138826904Y-80447676D01*
X138826904Y-80447676D02*
X138874523Y-80542914D01*
X138874523Y-80542914D02*
X138922142Y-80733390D01*
X138922142Y-80733390D02*
X138922142Y-80876247D01*
X138922142Y-80876247D02*
X138874523Y-81066723D01*
X138874523Y-81066723D02*
X138826904Y-81161961D01*
X138826904Y-81161961D02*
X138731666Y-81257200D01*
X138731666Y-81257200D02*
X138588809Y-81304819D01*
X138588809Y-81304819D02*
X138350714Y-81304819D01*
X139779285Y-80638152D02*
X139779285Y-81304819D01*
X139541190Y-80257200D02*
X139303095Y-80971485D01*
X139303095Y-80971485D02*
X139922142Y-80971485D01*
X140779285Y-80304819D02*
X140303095Y-80304819D01*
X140303095Y-80304819D02*
X140255476Y-80781009D01*
X140255476Y-80781009D02*
X140303095Y-80733390D01*
X140303095Y-80733390D02*
X140398333Y-80685771D01*
X140398333Y-80685771D02*
X140636428Y-80685771D01*
X140636428Y-80685771D02*
X140731666Y-80733390D01*
X140731666Y-80733390D02*
X140779285Y-80781009D01*
X140779285Y-80781009D02*
X140826904Y-80876247D01*
X140826904Y-80876247D02*
X140826904Y-81114342D01*
X140826904Y-81114342D02*
X140779285Y-81209580D01*
X140779285Y-81209580D02*
X140731666Y-81257200D01*
X140731666Y-81257200D02*
X140636428Y-81304819D01*
X140636428Y-81304819D02*
X140398333Y-81304819D01*
X140398333Y-81304819D02*
X140303095Y-81257200D01*
X140303095Y-81257200D02*
X140255476Y-81209580D01*
X138551905Y-113444819D02*
X138551905Y-114254342D01*
X138551905Y-114254342D02*
X138599524Y-114349580D01*
X138599524Y-114349580D02*
X138647143Y-114397200D01*
X138647143Y-114397200D02*
X138742381Y-114444819D01*
X138742381Y-114444819D02*
X138932857Y-114444819D01*
X138932857Y-114444819D02*
X139028095Y-114397200D01*
X139028095Y-114397200D02*
X139075714Y-114349580D01*
X139075714Y-114349580D02*
X139123333Y-114254342D01*
X139123333Y-114254342D02*
X139123333Y-113444819D01*
X139551905Y-113540057D02*
X139599524Y-113492438D01*
X139599524Y-113492438D02*
X139694762Y-113444819D01*
X139694762Y-113444819D02*
X139932857Y-113444819D01*
X139932857Y-113444819D02*
X140028095Y-113492438D01*
X140028095Y-113492438D02*
X140075714Y-113540057D01*
X140075714Y-113540057D02*
X140123333Y-113635295D01*
X140123333Y-113635295D02*
X140123333Y-113730533D01*
X140123333Y-113730533D02*
X140075714Y-113873390D01*
X140075714Y-113873390D02*
X139504286Y-114444819D01*
X139504286Y-114444819D02*
X140123333Y-114444819D01*
X141028095Y-113444819D02*
X140551905Y-113444819D01*
X140551905Y-113444819D02*
X140504286Y-113921009D01*
X140504286Y-113921009D02*
X140551905Y-113873390D01*
X140551905Y-113873390D02*
X140647143Y-113825771D01*
X140647143Y-113825771D02*
X140885238Y-113825771D01*
X140885238Y-113825771D02*
X140980476Y-113873390D01*
X140980476Y-113873390D02*
X141028095Y-113921009D01*
X141028095Y-113921009D02*
X141075714Y-114016247D01*
X141075714Y-114016247D02*
X141075714Y-114254342D01*
X141075714Y-114254342D02*
X141028095Y-114349580D01*
X141028095Y-114349580D02*
X140980476Y-114397200D01*
X140980476Y-114397200D02*
X140885238Y-114444819D01*
X140885238Y-114444819D02*
X140647143Y-114444819D01*
X140647143Y-114444819D02*
X140551905Y-114397200D01*
X140551905Y-114397200D02*
X140504286Y-114349580D01*
X135648095Y-114564819D02*
X135648095Y-115374342D01*
X135648095Y-115374342D02*
X135695714Y-115469580D01*
X135695714Y-115469580D02*
X135743333Y-115517200D01*
X135743333Y-115517200D02*
X135838571Y-115564819D01*
X135838571Y-115564819D02*
X136029047Y-115564819D01*
X136029047Y-115564819D02*
X136124285Y-115517200D01*
X136124285Y-115517200D02*
X136171904Y-115469580D01*
X136171904Y-115469580D02*
X136219523Y-115374342D01*
X136219523Y-115374342D02*
X136219523Y-114564819D01*
X136600476Y-114564819D02*
X137219523Y-114564819D01*
X137219523Y-114564819D02*
X136886190Y-114945771D01*
X136886190Y-114945771D02*
X137029047Y-114945771D01*
X137029047Y-114945771D02*
X137124285Y-114993390D01*
X137124285Y-114993390D02*
X137171904Y-115041009D01*
X137171904Y-115041009D02*
X137219523Y-115136247D01*
X137219523Y-115136247D02*
X137219523Y-115374342D01*
X137219523Y-115374342D02*
X137171904Y-115469580D01*
X137171904Y-115469580D02*
X137124285Y-115517200D01*
X137124285Y-115517200D02*
X137029047Y-115564819D01*
X137029047Y-115564819D02*
X136743333Y-115564819D01*
X136743333Y-115564819D02*
X136648095Y-115517200D01*
X136648095Y-115517200D02*
X136600476Y-115469580D01*
X136492166Y-120474009D02*
X136158833Y-120474009D01*
X136158833Y-120997819D02*
X136158833Y-119997819D01*
X136158833Y-119997819D02*
X136635023Y-119997819D01*
X137444547Y-120331152D02*
X137444547Y-120997819D01*
X137206452Y-119950200D02*
X136968357Y-120664485D01*
X136968357Y-120664485D02*
X137587404Y-120664485D01*
X183179819Y-105542857D02*
X182703628Y-105876190D01*
X183179819Y-106114285D02*
X182179819Y-106114285D01*
X182179819Y-106114285D02*
X182179819Y-105733333D01*
X182179819Y-105733333D02*
X182227438Y-105638095D01*
X182227438Y-105638095D02*
X182275057Y-105590476D01*
X182275057Y-105590476D02*
X182370295Y-105542857D01*
X182370295Y-105542857D02*
X182513152Y-105542857D01*
X182513152Y-105542857D02*
X182608390Y-105590476D01*
X182608390Y-105590476D02*
X182656009Y-105638095D01*
X182656009Y-105638095D02*
X182703628Y-105733333D01*
X182703628Y-105733333D02*
X182703628Y-106114285D01*
X182179819Y-105209523D02*
X182179819Y-104590476D01*
X182179819Y-104590476D02*
X182560771Y-104923809D01*
X182560771Y-104923809D02*
X182560771Y-104780952D01*
X182560771Y-104780952D02*
X182608390Y-104685714D01*
X182608390Y-104685714D02*
X182656009Y-104638095D01*
X182656009Y-104638095D02*
X182751247Y-104590476D01*
X182751247Y-104590476D02*
X182989342Y-104590476D01*
X182989342Y-104590476D02*
X183084580Y-104638095D01*
X183084580Y-104638095D02*
X183132200Y-104685714D01*
X183132200Y-104685714D02*
X183179819Y-104780952D01*
X183179819Y-104780952D02*
X183179819Y-105066666D01*
X183179819Y-105066666D02*
X183132200Y-105161904D01*
X183132200Y-105161904D02*
X183084580Y-105209523D01*
X182179819Y-104257142D02*
X182179819Y-103590476D01*
X182179819Y-103590476D02*
X183179819Y-104019047D01*
X173212819Y-136611333D02*
X173927104Y-136611333D01*
X173927104Y-136611333D02*
X174069961Y-136658952D01*
X174069961Y-136658952D02*
X174165200Y-136754190D01*
X174165200Y-136754190D02*
X174212819Y-136897047D01*
X174212819Y-136897047D02*
X174212819Y-136992285D01*
X174212819Y-136135142D02*
X173212819Y-136135142D01*
X173212819Y-136135142D02*
X173212819Y-135754190D01*
X173212819Y-135754190D02*
X173260438Y-135658952D01*
X173260438Y-135658952D02*
X173308057Y-135611333D01*
X173308057Y-135611333D02*
X173403295Y-135563714D01*
X173403295Y-135563714D02*
X173546152Y-135563714D01*
X173546152Y-135563714D02*
X173641390Y-135611333D01*
X173641390Y-135611333D02*
X173689009Y-135658952D01*
X173689009Y-135658952D02*
X173736628Y-135754190D01*
X173736628Y-135754190D02*
X173736628Y-136135142D01*
X174212819Y-134611333D02*
X174212819Y-135182761D01*
X174212819Y-134897047D02*
X173212819Y-134897047D01*
X173212819Y-134897047D02*
X173355676Y-134992285D01*
X173355676Y-134992285D02*
X173450914Y-135087523D01*
X173450914Y-135087523D02*
X173498533Y-135182761D01*
X140459064Y-109538469D02*
X140459064Y-108538469D01*
X140459064Y-108538469D02*
X140697159Y-108538469D01*
X140697159Y-108538469D02*
X140840016Y-108586088D01*
X140840016Y-108586088D02*
X140935254Y-108681326D01*
X140935254Y-108681326D02*
X140982873Y-108776564D01*
X140982873Y-108776564D02*
X141030492Y-108967040D01*
X141030492Y-108967040D02*
X141030492Y-109109897D01*
X141030492Y-109109897D02*
X140982873Y-109300373D01*
X140982873Y-109300373D02*
X140935254Y-109395611D01*
X140935254Y-109395611D02*
X140840016Y-109490850D01*
X140840016Y-109490850D02*
X140697159Y-109538469D01*
X140697159Y-109538469D02*
X140459064Y-109538469D01*
X141982873Y-109538469D02*
X141411445Y-109538469D01*
X141697159Y-109538469D02*
X141697159Y-108538469D01*
X141697159Y-108538469D02*
X141601921Y-108681326D01*
X141601921Y-108681326D02*
X141506683Y-108776564D01*
X141506683Y-108776564D02*
X141411445Y-108824183D01*
X142316207Y-108538469D02*
X142935254Y-108538469D01*
X142935254Y-108538469D02*
X142601921Y-108919421D01*
X142601921Y-108919421D02*
X142744778Y-108919421D01*
X142744778Y-108919421D02*
X142840016Y-108967040D01*
X142840016Y-108967040D02*
X142887635Y-109014659D01*
X142887635Y-109014659D02*
X142935254Y-109109897D01*
X142935254Y-109109897D02*
X142935254Y-109347992D01*
X142935254Y-109347992D02*
X142887635Y-109443230D01*
X142887635Y-109443230D02*
X142840016Y-109490850D01*
X142840016Y-109490850D02*
X142744778Y-109538469D01*
X142744778Y-109538469D02*
X142459064Y-109538469D01*
X142459064Y-109538469D02*
X142363826Y-109490850D01*
X142363826Y-109490850D02*
X142316207Y-109443230D01*
X184488928Y-118225963D02*
X184488928Y-117590963D01*
X184488928Y-117590963D02*
X184640118Y-117590963D01*
X184640118Y-117590963D02*
X184730833Y-117621201D01*
X184730833Y-117621201D02*
X184791309Y-117681677D01*
X184791309Y-117681677D02*
X184821547Y-117742153D01*
X184821547Y-117742153D02*
X184851785Y-117863105D01*
X184851785Y-117863105D02*
X184851785Y-117953820D01*
X184851785Y-117953820D02*
X184821547Y-118074772D01*
X184821547Y-118074772D02*
X184791309Y-118135248D01*
X184791309Y-118135248D02*
X184730833Y-118195725D01*
X184730833Y-118195725D02*
X184640118Y-118225963D01*
X184640118Y-118225963D02*
X184488928Y-118225963D01*
X185396071Y-117802629D02*
X185396071Y-118225963D01*
X185244880Y-117560725D02*
X185093690Y-118014296D01*
X185093690Y-118014296D02*
X185486785Y-118014296D01*
X186000833Y-117590963D02*
X185879880Y-117590963D01*
X185879880Y-117590963D02*
X185819404Y-117621201D01*
X185819404Y-117621201D02*
X185789166Y-117651439D01*
X185789166Y-117651439D02*
X185728690Y-117742153D01*
X185728690Y-117742153D02*
X185698452Y-117863105D01*
X185698452Y-117863105D02*
X185698452Y-118105010D01*
X185698452Y-118105010D02*
X185728690Y-118165486D01*
X185728690Y-118165486D02*
X185758928Y-118195725D01*
X185758928Y-118195725D02*
X185819404Y-118225963D01*
X185819404Y-118225963D02*
X185940357Y-118225963D01*
X185940357Y-118225963D02*
X186000833Y-118195725D01*
X186000833Y-118195725D02*
X186031071Y-118165486D01*
X186031071Y-118165486D02*
X186061309Y-118105010D01*
X186061309Y-118105010D02*
X186061309Y-117953820D01*
X186061309Y-117953820D02*
X186031071Y-117893344D01*
X186031071Y-117893344D02*
X186000833Y-117863105D01*
X186000833Y-117863105D02*
X185940357Y-117832867D01*
X185940357Y-117832867D02*
X185819404Y-117832867D01*
X185819404Y-117832867D02*
X185758928Y-117863105D01*
X185758928Y-117863105D02*
X185728690Y-117893344D01*
X185728690Y-117893344D02*
X185698452Y-117953820D01*
X131734785Y-88591010D02*
X131401452Y-88591010D01*
X131401452Y-89114820D02*
X131401452Y-88114820D01*
X131401452Y-88114820D02*
X131877642Y-88114820D01*
X132687166Y-88114820D02*
X132496690Y-88114820D01*
X132496690Y-88114820D02*
X132401452Y-88162439D01*
X132401452Y-88162439D02*
X132353833Y-88210058D01*
X132353833Y-88210058D02*
X132258595Y-88352915D01*
X132258595Y-88352915D02*
X132210976Y-88543391D01*
X132210976Y-88543391D02*
X132210976Y-88924343D01*
X132210976Y-88924343D02*
X132258595Y-89019581D01*
X132258595Y-89019581D02*
X132306214Y-89067201D01*
X132306214Y-89067201D02*
X132401452Y-89114820D01*
X132401452Y-89114820D02*
X132591928Y-89114820D01*
X132591928Y-89114820D02*
X132687166Y-89067201D01*
X132687166Y-89067201D02*
X132734785Y-89019581D01*
X132734785Y-89019581D02*
X132782404Y-88924343D01*
X132782404Y-88924343D02*
X132782404Y-88686248D01*
X132782404Y-88686248D02*
X132734785Y-88591010D01*
X132734785Y-88591010D02*
X132687166Y-88543391D01*
X132687166Y-88543391D02*
X132591928Y-88495772D01*
X132591928Y-88495772D02*
X132401452Y-88495772D01*
X132401452Y-88495772D02*
X132306214Y-88543391D01*
X132306214Y-88543391D02*
X132258595Y-88591010D01*
X132258595Y-88591010D02*
X132210976Y-88686248D01*
X184785714Y-127004819D02*
X184785714Y-126004819D01*
X184785714Y-126004819D02*
X185023809Y-126004819D01*
X185023809Y-126004819D02*
X185166666Y-126052438D01*
X185166666Y-126052438D02*
X185261904Y-126147676D01*
X185261904Y-126147676D02*
X185309523Y-126242914D01*
X185309523Y-126242914D02*
X185357142Y-126433390D01*
X185357142Y-126433390D02*
X185357142Y-126576247D01*
X185357142Y-126576247D02*
X185309523Y-126766723D01*
X185309523Y-126766723D02*
X185261904Y-126861961D01*
X185261904Y-126861961D02*
X185166666Y-126957200D01*
X185166666Y-126957200D02*
X185023809Y-127004819D01*
X185023809Y-127004819D02*
X184785714Y-127004819D01*
X185738095Y-126100057D02*
X185785714Y-126052438D01*
X185785714Y-126052438D02*
X185880952Y-126004819D01*
X185880952Y-126004819D02*
X186119047Y-126004819D01*
X186119047Y-126004819D02*
X186214285Y-126052438D01*
X186214285Y-126052438D02*
X186261904Y-126100057D01*
X186261904Y-126100057D02*
X186309523Y-126195295D01*
X186309523Y-126195295D02*
X186309523Y-126290533D01*
X186309523Y-126290533D02*
X186261904Y-126433390D01*
X186261904Y-126433390D02*
X185690476Y-127004819D01*
X185690476Y-127004819D02*
X186309523Y-127004819D01*
X187261904Y-127004819D02*
X186690476Y-127004819D01*
X186976190Y-127004819D02*
X186976190Y-126004819D01*
X186976190Y-126004819D02*
X186880952Y-126147676D01*
X186880952Y-126147676D02*
X186785714Y-126242914D01*
X186785714Y-126242914D02*
X186690476Y-126290533D01*
X139022142Y-84304819D02*
X138688809Y-83828628D01*
X138450714Y-84304819D02*
X138450714Y-83304819D01*
X138450714Y-83304819D02*
X138831666Y-83304819D01*
X138831666Y-83304819D02*
X138926904Y-83352438D01*
X138926904Y-83352438D02*
X138974523Y-83400057D01*
X138974523Y-83400057D02*
X139022142Y-83495295D01*
X139022142Y-83495295D02*
X139022142Y-83638152D01*
X139022142Y-83638152D02*
X138974523Y-83733390D01*
X138974523Y-83733390D02*
X138926904Y-83781009D01*
X138926904Y-83781009D02*
X138831666Y-83828628D01*
X138831666Y-83828628D02*
X138450714Y-83828628D01*
X139974523Y-84304819D02*
X139403095Y-84304819D01*
X139688809Y-84304819D02*
X139688809Y-83304819D01*
X139688809Y-83304819D02*
X139593571Y-83447676D01*
X139593571Y-83447676D02*
X139498333Y-83542914D01*
X139498333Y-83542914D02*
X139403095Y-83590533D01*
X140545952Y-83733390D02*
X140450714Y-83685771D01*
X140450714Y-83685771D02*
X140403095Y-83638152D01*
X140403095Y-83638152D02*
X140355476Y-83542914D01*
X140355476Y-83542914D02*
X140355476Y-83495295D01*
X140355476Y-83495295D02*
X140403095Y-83400057D01*
X140403095Y-83400057D02*
X140450714Y-83352438D01*
X140450714Y-83352438D02*
X140545952Y-83304819D01*
X140545952Y-83304819D02*
X140736428Y-83304819D01*
X140736428Y-83304819D02*
X140831666Y-83352438D01*
X140831666Y-83352438D02*
X140879285Y-83400057D01*
X140879285Y-83400057D02*
X140926904Y-83495295D01*
X140926904Y-83495295D02*
X140926904Y-83542914D01*
X140926904Y-83542914D02*
X140879285Y-83638152D01*
X140879285Y-83638152D02*
X140831666Y-83685771D01*
X140831666Y-83685771D02*
X140736428Y-83733390D01*
X140736428Y-83733390D02*
X140545952Y-83733390D01*
X140545952Y-83733390D02*
X140450714Y-83781009D01*
X140450714Y-83781009D02*
X140403095Y-83828628D01*
X140403095Y-83828628D02*
X140355476Y-83923866D01*
X140355476Y-83923866D02*
X140355476Y-84114342D01*
X140355476Y-84114342D02*
X140403095Y-84209580D01*
X140403095Y-84209580D02*
X140450714Y-84257200D01*
X140450714Y-84257200D02*
X140545952Y-84304819D01*
X140545952Y-84304819D02*
X140736428Y-84304819D01*
X140736428Y-84304819D02*
X140831666Y-84257200D01*
X140831666Y-84257200D02*
X140879285Y-84209580D01*
X140879285Y-84209580D02*
X140926904Y-84114342D01*
X140926904Y-84114342D02*
X140926904Y-83923866D01*
X140926904Y-83923866D02*
X140879285Y-83828628D01*
X140879285Y-83828628D02*
X140831666Y-83781009D01*
X140831666Y-83781009D02*
X140736428Y-83733390D01*
X134928095Y-95179819D02*
X134928095Y-95989342D01*
X134928095Y-95989342D02*
X134975714Y-96084580D01*
X134975714Y-96084580D02*
X135023333Y-96132200D01*
X135023333Y-96132200D02*
X135118571Y-96179819D01*
X135118571Y-96179819D02*
X135309047Y-96179819D01*
X135309047Y-96179819D02*
X135404285Y-96132200D01*
X135404285Y-96132200D02*
X135451904Y-96084580D01*
X135451904Y-96084580D02*
X135499523Y-95989342D01*
X135499523Y-95989342D02*
X135499523Y-95179819D01*
X136451904Y-95179819D02*
X135975714Y-95179819D01*
X135975714Y-95179819D02*
X135928095Y-95656009D01*
X135928095Y-95656009D02*
X135975714Y-95608390D01*
X135975714Y-95608390D02*
X136070952Y-95560771D01*
X136070952Y-95560771D02*
X136309047Y-95560771D01*
X136309047Y-95560771D02*
X136404285Y-95608390D01*
X136404285Y-95608390D02*
X136451904Y-95656009D01*
X136451904Y-95656009D02*
X136499523Y-95751247D01*
X136499523Y-95751247D02*
X136499523Y-95989342D01*
X136499523Y-95989342D02*
X136451904Y-96084580D01*
X136451904Y-96084580D02*
X136404285Y-96132200D01*
X136404285Y-96132200D02*
X136309047Y-96179819D01*
X136309047Y-96179819D02*
X136070952Y-96179819D01*
X136070952Y-96179819D02*
X135975714Y-96132200D01*
X135975714Y-96132200D02*
X135928095Y-96084580D01*
X179532142Y-135854819D02*
X179198809Y-135378628D01*
X178960714Y-135854819D02*
X178960714Y-134854819D01*
X178960714Y-134854819D02*
X179341666Y-134854819D01*
X179341666Y-134854819D02*
X179436904Y-134902438D01*
X179436904Y-134902438D02*
X179484523Y-134950057D01*
X179484523Y-134950057D02*
X179532142Y-135045295D01*
X179532142Y-135045295D02*
X179532142Y-135188152D01*
X179532142Y-135188152D02*
X179484523Y-135283390D01*
X179484523Y-135283390D02*
X179436904Y-135331009D01*
X179436904Y-135331009D02*
X179341666Y-135378628D01*
X179341666Y-135378628D02*
X178960714Y-135378628D01*
X180103571Y-135283390D02*
X180008333Y-135235771D01*
X180008333Y-135235771D02*
X179960714Y-135188152D01*
X179960714Y-135188152D02*
X179913095Y-135092914D01*
X179913095Y-135092914D02*
X179913095Y-135045295D01*
X179913095Y-135045295D02*
X179960714Y-134950057D01*
X179960714Y-134950057D02*
X180008333Y-134902438D01*
X180008333Y-134902438D02*
X180103571Y-134854819D01*
X180103571Y-134854819D02*
X180294047Y-134854819D01*
X180294047Y-134854819D02*
X180389285Y-134902438D01*
X180389285Y-134902438D02*
X180436904Y-134950057D01*
X180436904Y-134950057D02*
X180484523Y-135045295D01*
X180484523Y-135045295D02*
X180484523Y-135092914D01*
X180484523Y-135092914D02*
X180436904Y-135188152D01*
X180436904Y-135188152D02*
X180389285Y-135235771D01*
X180389285Y-135235771D02*
X180294047Y-135283390D01*
X180294047Y-135283390D02*
X180103571Y-135283390D01*
X180103571Y-135283390D02*
X180008333Y-135331009D01*
X180008333Y-135331009D02*
X179960714Y-135378628D01*
X179960714Y-135378628D02*
X179913095Y-135473866D01*
X179913095Y-135473866D02*
X179913095Y-135664342D01*
X179913095Y-135664342D02*
X179960714Y-135759580D01*
X179960714Y-135759580D02*
X180008333Y-135807200D01*
X180008333Y-135807200D02*
X180103571Y-135854819D01*
X180103571Y-135854819D02*
X180294047Y-135854819D01*
X180294047Y-135854819D02*
X180389285Y-135807200D01*
X180389285Y-135807200D02*
X180436904Y-135759580D01*
X180436904Y-135759580D02*
X180484523Y-135664342D01*
X180484523Y-135664342D02*
X180484523Y-135473866D01*
X180484523Y-135473866D02*
X180436904Y-135378628D01*
X180436904Y-135378628D02*
X180389285Y-135331009D01*
X180389285Y-135331009D02*
X180294047Y-135283390D01*
X181341666Y-134854819D02*
X181151190Y-134854819D01*
X181151190Y-134854819D02*
X181055952Y-134902438D01*
X181055952Y-134902438D02*
X181008333Y-134950057D01*
X181008333Y-134950057D02*
X180913095Y-135092914D01*
X180913095Y-135092914D02*
X180865476Y-135283390D01*
X180865476Y-135283390D02*
X180865476Y-135664342D01*
X180865476Y-135664342D02*
X180913095Y-135759580D01*
X180913095Y-135759580D02*
X180960714Y-135807200D01*
X180960714Y-135807200D02*
X181055952Y-135854819D01*
X181055952Y-135854819D02*
X181246428Y-135854819D01*
X181246428Y-135854819D02*
X181341666Y-135807200D01*
X181341666Y-135807200D02*
X181389285Y-135759580D01*
X181389285Y-135759580D02*
X181436904Y-135664342D01*
X181436904Y-135664342D02*
X181436904Y-135426247D01*
X181436904Y-135426247D02*
X181389285Y-135331009D01*
X181389285Y-135331009D02*
X181341666Y-135283390D01*
X181341666Y-135283390D02*
X181246428Y-135235771D01*
X181246428Y-135235771D02*
X181055952Y-135235771D01*
X181055952Y-135235771D02*
X180960714Y-135283390D01*
X180960714Y-135283390D02*
X180913095Y-135331009D01*
X180913095Y-135331009D02*
X180865476Y-135426247D01*
X197184819Y-133919047D02*
X196708628Y-134252380D01*
X197184819Y-134490475D02*
X196184819Y-134490475D01*
X196184819Y-134490475D02*
X196184819Y-134109523D01*
X196184819Y-134109523D02*
X196232438Y-134014285D01*
X196232438Y-134014285D02*
X196280057Y-133966666D01*
X196280057Y-133966666D02*
X196375295Y-133919047D01*
X196375295Y-133919047D02*
X196518152Y-133919047D01*
X196518152Y-133919047D02*
X196613390Y-133966666D01*
X196613390Y-133966666D02*
X196661009Y-134014285D01*
X196661009Y-134014285D02*
X196708628Y-134109523D01*
X196708628Y-134109523D02*
X196708628Y-134490475D01*
X197184819Y-132966666D02*
X197184819Y-133538094D01*
X197184819Y-133252380D02*
X196184819Y-133252380D01*
X196184819Y-133252380D02*
X196327676Y-133347618D01*
X196327676Y-133347618D02*
X196422914Y-133442856D01*
X196422914Y-133442856D02*
X196470533Y-133538094D01*
X196184819Y-132347618D02*
X196184819Y-132252380D01*
X196184819Y-132252380D02*
X196232438Y-132157142D01*
X196232438Y-132157142D02*
X196280057Y-132109523D01*
X196280057Y-132109523D02*
X196375295Y-132061904D01*
X196375295Y-132061904D02*
X196565771Y-132014285D01*
X196565771Y-132014285D02*
X196803866Y-132014285D01*
X196803866Y-132014285D02*
X196994342Y-132061904D01*
X196994342Y-132061904D02*
X197089580Y-132109523D01*
X197089580Y-132109523D02*
X197137200Y-132157142D01*
X197137200Y-132157142D02*
X197184819Y-132252380D01*
X197184819Y-132252380D02*
X197184819Y-132347618D01*
X197184819Y-132347618D02*
X197137200Y-132442856D01*
X197137200Y-132442856D02*
X197089580Y-132490475D01*
X197089580Y-132490475D02*
X196994342Y-132538094D01*
X196994342Y-132538094D02*
X196803866Y-132585713D01*
X196803866Y-132585713D02*
X196565771Y-132585713D01*
X196565771Y-132585713D02*
X196375295Y-132538094D01*
X196375295Y-132538094D02*
X196280057Y-132490475D01*
X196280057Y-132490475D02*
X196232438Y-132442856D01*
X196232438Y-132442856D02*
X196184819Y-132347618D01*
X196184819Y-131157142D02*
X196184819Y-131347618D01*
X196184819Y-131347618D02*
X196232438Y-131442856D01*
X196232438Y-131442856D02*
X196280057Y-131490475D01*
X196280057Y-131490475D02*
X196422914Y-131585713D01*
X196422914Y-131585713D02*
X196613390Y-131633332D01*
X196613390Y-131633332D02*
X196994342Y-131633332D01*
X196994342Y-131633332D02*
X197089580Y-131585713D01*
X197089580Y-131585713D02*
X197137200Y-131538094D01*
X197137200Y-131538094D02*
X197184819Y-131442856D01*
X197184819Y-131442856D02*
X197184819Y-131252380D01*
X197184819Y-131252380D02*
X197137200Y-131157142D01*
X197137200Y-131157142D02*
X197089580Y-131109523D01*
X197089580Y-131109523D02*
X196994342Y-131061904D01*
X196994342Y-131061904D02*
X196756247Y-131061904D01*
X196756247Y-131061904D02*
X196661009Y-131109523D01*
X196661009Y-131109523D02*
X196613390Y-131157142D01*
X196613390Y-131157142D02*
X196565771Y-131252380D01*
X196565771Y-131252380D02*
X196565771Y-131442856D01*
X196565771Y-131442856D02*
X196613390Y-131538094D01*
X196613390Y-131538094D02*
X196661009Y-131585713D01*
X196661009Y-131585713D02*
X196756247Y-131633332D01*
X144207142Y-136454819D02*
X143873809Y-135978628D01*
X143635714Y-136454819D02*
X143635714Y-135454819D01*
X143635714Y-135454819D02*
X144016666Y-135454819D01*
X144016666Y-135454819D02*
X144111904Y-135502438D01*
X144111904Y-135502438D02*
X144159523Y-135550057D01*
X144159523Y-135550057D02*
X144207142Y-135645295D01*
X144207142Y-135645295D02*
X144207142Y-135788152D01*
X144207142Y-135788152D02*
X144159523Y-135883390D01*
X144159523Y-135883390D02*
X144111904Y-135931009D01*
X144111904Y-135931009D02*
X144016666Y-135978628D01*
X144016666Y-135978628D02*
X143635714Y-135978628D01*
X144778571Y-135883390D02*
X144683333Y-135835771D01*
X144683333Y-135835771D02*
X144635714Y-135788152D01*
X144635714Y-135788152D02*
X144588095Y-135692914D01*
X144588095Y-135692914D02*
X144588095Y-135645295D01*
X144588095Y-135645295D02*
X144635714Y-135550057D01*
X144635714Y-135550057D02*
X144683333Y-135502438D01*
X144683333Y-135502438D02*
X144778571Y-135454819D01*
X144778571Y-135454819D02*
X144969047Y-135454819D01*
X144969047Y-135454819D02*
X145064285Y-135502438D01*
X145064285Y-135502438D02*
X145111904Y-135550057D01*
X145111904Y-135550057D02*
X145159523Y-135645295D01*
X145159523Y-135645295D02*
X145159523Y-135692914D01*
X145159523Y-135692914D02*
X145111904Y-135788152D01*
X145111904Y-135788152D02*
X145064285Y-135835771D01*
X145064285Y-135835771D02*
X144969047Y-135883390D01*
X144969047Y-135883390D02*
X144778571Y-135883390D01*
X144778571Y-135883390D02*
X144683333Y-135931009D01*
X144683333Y-135931009D02*
X144635714Y-135978628D01*
X144635714Y-135978628D02*
X144588095Y-136073866D01*
X144588095Y-136073866D02*
X144588095Y-136264342D01*
X144588095Y-136264342D02*
X144635714Y-136359580D01*
X144635714Y-136359580D02*
X144683333Y-136407200D01*
X144683333Y-136407200D02*
X144778571Y-136454819D01*
X144778571Y-136454819D02*
X144969047Y-136454819D01*
X144969047Y-136454819D02*
X145064285Y-136407200D01*
X145064285Y-136407200D02*
X145111904Y-136359580D01*
X145111904Y-136359580D02*
X145159523Y-136264342D01*
X145159523Y-136264342D02*
X145159523Y-136073866D01*
X145159523Y-136073866D02*
X145111904Y-135978628D01*
X145111904Y-135978628D02*
X145064285Y-135931009D01*
X145064285Y-135931009D02*
X144969047Y-135883390D01*
X145492857Y-135454819D02*
X146111904Y-135454819D01*
X146111904Y-135454819D02*
X145778571Y-135835771D01*
X145778571Y-135835771D02*
X145921428Y-135835771D01*
X145921428Y-135835771D02*
X146016666Y-135883390D01*
X146016666Y-135883390D02*
X146064285Y-135931009D01*
X146064285Y-135931009D02*
X146111904Y-136026247D01*
X146111904Y-136026247D02*
X146111904Y-136264342D01*
X146111904Y-136264342D02*
X146064285Y-136359580D01*
X146064285Y-136359580D02*
X146016666Y-136407200D01*
X146016666Y-136407200D02*
X145921428Y-136454819D01*
X145921428Y-136454819D02*
X145635714Y-136454819D01*
X145635714Y-136454819D02*
X145540476Y-136407200D01*
X145540476Y-136407200D02*
X145492857Y-136359580D01*
X140811805Y-128363819D02*
X140811805Y-127363819D01*
X140811805Y-127363819D02*
X141049900Y-127363819D01*
X141049900Y-127363819D02*
X141192757Y-127411438D01*
X141192757Y-127411438D02*
X141287995Y-127506676D01*
X141287995Y-127506676D02*
X141335614Y-127601914D01*
X141335614Y-127601914D02*
X141383233Y-127792390D01*
X141383233Y-127792390D02*
X141383233Y-127935247D01*
X141383233Y-127935247D02*
X141335614Y-128125723D01*
X141335614Y-128125723D02*
X141287995Y-128220961D01*
X141287995Y-128220961D02*
X141192757Y-128316200D01*
X141192757Y-128316200D02*
X141049900Y-128363819D01*
X141049900Y-128363819D02*
X140811805Y-128363819D01*
X141859424Y-128363819D02*
X142049900Y-128363819D01*
X142049900Y-128363819D02*
X142145138Y-128316200D01*
X142145138Y-128316200D02*
X142192757Y-128268580D01*
X142192757Y-128268580D02*
X142287995Y-128125723D01*
X142287995Y-128125723D02*
X142335614Y-127935247D01*
X142335614Y-127935247D02*
X142335614Y-127554295D01*
X142335614Y-127554295D02*
X142287995Y-127459057D01*
X142287995Y-127459057D02*
X142240376Y-127411438D01*
X142240376Y-127411438D02*
X142145138Y-127363819D01*
X142145138Y-127363819D02*
X141954662Y-127363819D01*
X141954662Y-127363819D02*
X141859424Y-127411438D01*
X141859424Y-127411438D02*
X141811805Y-127459057D01*
X141811805Y-127459057D02*
X141764186Y-127554295D01*
X141764186Y-127554295D02*
X141764186Y-127792390D01*
X141764186Y-127792390D02*
X141811805Y-127887628D01*
X141811805Y-127887628D02*
X141859424Y-127935247D01*
X141859424Y-127935247D02*
X141954662Y-127982866D01*
X141954662Y-127982866D02*
X142145138Y-127982866D01*
X142145138Y-127982866D02*
X142240376Y-127935247D01*
X142240376Y-127935247D02*
X142287995Y-127887628D01*
X142287995Y-127887628D02*
X142335614Y-127792390D01*
X130996666Y-107291009D02*
X130663333Y-107291009D01*
X130663333Y-107814819D02*
X130663333Y-106814819D01*
X130663333Y-106814819D02*
X131139523Y-106814819D01*
X131996666Y-106814819D02*
X131520476Y-106814819D01*
X131520476Y-106814819D02*
X131472857Y-107291009D01*
X131472857Y-107291009D02*
X131520476Y-107243390D01*
X131520476Y-107243390D02*
X131615714Y-107195771D01*
X131615714Y-107195771D02*
X131853809Y-107195771D01*
X131853809Y-107195771D02*
X131949047Y-107243390D01*
X131949047Y-107243390D02*
X131996666Y-107291009D01*
X131996666Y-107291009D02*
X132044285Y-107386247D01*
X132044285Y-107386247D02*
X132044285Y-107624342D01*
X132044285Y-107624342D02*
X131996666Y-107719580D01*
X131996666Y-107719580D02*
X131949047Y-107767200D01*
X131949047Y-107767200D02*
X131853809Y-107814819D01*
X131853809Y-107814819D02*
X131615714Y-107814819D01*
X131615714Y-107814819D02*
X131520476Y-107767200D01*
X131520476Y-107767200D02*
X131472857Y-107719580D01*
X141899819Y-132317857D02*
X141423628Y-132651190D01*
X141899819Y-132889285D02*
X140899819Y-132889285D01*
X140899819Y-132889285D02*
X140899819Y-132508333D01*
X140899819Y-132508333D02*
X140947438Y-132413095D01*
X140947438Y-132413095D02*
X140995057Y-132365476D01*
X140995057Y-132365476D02*
X141090295Y-132317857D01*
X141090295Y-132317857D02*
X141233152Y-132317857D01*
X141233152Y-132317857D02*
X141328390Y-132365476D01*
X141328390Y-132365476D02*
X141376009Y-132413095D01*
X141376009Y-132413095D02*
X141423628Y-132508333D01*
X141423628Y-132508333D02*
X141423628Y-132889285D01*
X141899819Y-131841666D02*
X141899819Y-131651190D01*
X141899819Y-131651190D02*
X141852200Y-131555952D01*
X141852200Y-131555952D02*
X141804580Y-131508333D01*
X141804580Y-131508333D02*
X141661723Y-131413095D01*
X141661723Y-131413095D02*
X141471247Y-131365476D01*
X141471247Y-131365476D02*
X141090295Y-131365476D01*
X141090295Y-131365476D02*
X140995057Y-131413095D01*
X140995057Y-131413095D02*
X140947438Y-131460714D01*
X140947438Y-131460714D02*
X140899819Y-131555952D01*
X140899819Y-131555952D02*
X140899819Y-131746428D01*
X140899819Y-131746428D02*
X140947438Y-131841666D01*
X140947438Y-131841666D02*
X140995057Y-131889285D01*
X140995057Y-131889285D02*
X141090295Y-131936904D01*
X141090295Y-131936904D02*
X141328390Y-131936904D01*
X141328390Y-131936904D02*
X141423628Y-131889285D01*
X141423628Y-131889285D02*
X141471247Y-131841666D01*
X141471247Y-131841666D02*
X141518866Y-131746428D01*
X141518866Y-131746428D02*
X141518866Y-131555952D01*
X141518866Y-131555952D02*
X141471247Y-131460714D01*
X141471247Y-131460714D02*
X141423628Y-131413095D01*
X141423628Y-131413095D02*
X141328390Y-131365476D01*
X140899819Y-131032142D02*
X140899819Y-130413095D01*
X140899819Y-130413095D02*
X141280771Y-130746428D01*
X141280771Y-130746428D02*
X141280771Y-130603571D01*
X141280771Y-130603571D02*
X141328390Y-130508333D01*
X141328390Y-130508333D02*
X141376009Y-130460714D01*
X141376009Y-130460714D02*
X141471247Y-130413095D01*
X141471247Y-130413095D02*
X141709342Y-130413095D01*
X141709342Y-130413095D02*
X141804580Y-130460714D01*
X141804580Y-130460714D02*
X141852200Y-130508333D01*
X141852200Y-130508333D02*
X141899819Y-130603571D01*
X141899819Y-130603571D02*
X141899819Y-130889285D01*
X141899819Y-130889285D02*
X141852200Y-130984523D01*
X141852200Y-130984523D02*
X141804580Y-131032142D01*
D11*
%TO.C,F1*%
X202781000Y-131102252D02*
X202781000Y-126694748D01*
X208121000Y-131102252D02*
X208121000Y-126694748D01*
%TO.C,F7*%
X191246248Y-120205000D02*
X195653752Y-120205000D01*
X191246248Y-125545000D02*
X195653752Y-125545000D01*
%TO.C,R85*%
X144927742Y-95827500D02*
X145402258Y-95827500D01*
X144927742Y-96872500D02*
X145402258Y-96872500D01*
%TO.C,R100*%
X183602500Y-111437258D02*
X183602500Y-110962742D01*
X184647500Y-111437258D02*
X184647500Y-110962742D01*
D12*
%TO.C,U6*%
X191793000Y-132529000D02*
X187793000Y-132529000D01*
X191793000Y-127521500D02*
X187793000Y-127521500D01*
D13*
X193893000Y-132275000D02*
G75*
G03*
X193893000Y-132275000I-100000J0D01*
G01*
D11*
%TO.C,R104*%
X131022500Y-112012742D02*
X131022500Y-112487258D01*
X129977500Y-112012742D02*
X129977500Y-112487258D01*
%TO.C,R110*%
X196472500Y-113987742D02*
X196472500Y-114462258D01*
X195427500Y-113987742D02*
X195427500Y-114462258D01*
%TO.C,R33*%
X181322500Y-87612742D02*
X181322500Y-88087258D01*
X180277500Y-87612742D02*
X180277500Y-88087258D01*
%TO.C,J3*%
X163698000Y-76600331D02*
X124378000Y-76600331D01*
X163698000Y-64260331D02*
X163698000Y-76600331D01*
X134593000Y-77494669D02*
X134093000Y-77494669D01*
X134343000Y-77061656D02*
X134593000Y-77494669D01*
X134093000Y-77494669D02*
X134343000Y-77061656D01*
X124378000Y-76600331D02*
X124378000Y-64260331D01*
%TO.C,R22*%
X185787742Y-121602500D02*
X186262258Y-121602500D01*
X185787742Y-122647500D02*
X186262258Y-122647500D01*
%TO.C,R75*%
X145517500Y-93962258D02*
X145517500Y-93487742D01*
X146562500Y-93962258D02*
X146562500Y-93487742D01*
%TO.C,D49*%
X182745000Y-81615000D02*
X182745000Y-83085000D01*
X182745000Y-83085000D02*
X185030000Y-83085000D01*
X185030000Y-81615000D02*
X182745000Y-81615000D01*
%TO.C,D50*%
X185765000Y-99140000D02*
X185765000Y-100610000D01*
X185765000Y-100610000D02*
X188050000Y-100610000D01*
X188050000Y-99140000D02*
X185765000Y-99140000D01*
%TO.C,R95*%
X142667500Y-93987258D02*
X142667500Y-93512742D01*
X143712500Y-93987258D02*
X143712500Y-93512742D01*
%TO.C,F10*%
X188921248Y-81830000D02*
X193328752Y-81830000D01*
X188921248Y-87170000D02*
X193328752Y-87170000D01*
D12*
%TO.C,U11*%
X152072500Y-92445500D02*
X152072500Y-124445500D01*
X152072500Y-124445500D02*
X173072500Y-124445500D01*
X173062500Y-92445500D02*
X152062500Y-92445500D01*
X173062500Y-92445500D02*
X173062500Y-124445500D01*
%TO.C,U27*%
X186509000Y-134245000D02*
X186509000Y-135945000D01*
X183391000Y-135945000D02*
X183391000Y-134245000D01*
D13*
X186350000Y-132695000D02*
G75*
G03*
X186350000Y-132695000I-100000J0D01*
G01*
D11*
%TO.C,R105*%
X131212500Y-92287742D02*
X131212500Y-92762258D01*
X130167500Y-92287742D02*
X130167500Y-92762258D01*
%TO.C,R94*%
X143627500Y-112987258D02*
X143627500Y-112512742D01*
X144672500Y-112987258D02*
X144672500Y-112512742D01*
%TO.C,R90*%
X183537258Y-114897500D02*
X183062742Y-114897500D01*
X183537258Y-113852500D02*
X183062742Y-113852500D01*
D12*
%TO.C,U1*%
X134317500Y-127691000D02*
X138317500Y-127691000D01*
X134317500Y-132698500D02*
X138317500Y-132698500D01*
D13*
X132417500Y-127945000D02*
G75*
G03*
X132417500Y-127945000I-100000J0D01*
G01*
D12*
%TO.C,U4*%
X192765000Y-113404000D02*
X188765000Y-113404000D01*
X192765000Y-108396500D02*
X188765000Y-108396500D01*
D13*
X194865000Y-113150000D02*
G75*
G03*
X194865000Y-113150000I-100000J0D01*
G01*
D11*
%TO.C,R34*%
X183937742Y-84852500D02*
X184412258Y-84852500D01*
X183937742Y-85897500D02*
X184412258Y-85897500D01*
%TO.C,D44*%
X140910000Y-102260000D02*
X140910000Y-100790000D01*
X140910000Y-100790000D02*
X138625000Y-100790000D01*
X138625000Y-102260000D02*
X140910000Y-102260000D01*
D12*
%TO.C,U26*%
X139415000Y-96131000D02*
X141115000Y-96131000D01*
X141115000Y-99249000D02*
X139415000Y-99249000D01*
D13*
X137965000Y-96390000D02*
G75*
G03*
X137965000Y-96390000I-100000J0D01*
G01*
D12*
%TO.C,U30*%
X184259000Y-96805000D02*
X184259000Y-98505000D01*
X181141000Y-98505000D02*
X181141000Y-96805000D01*
D13*
X184100000Y-95255000D02*
G75*
G03*
X184100000Y-95255000I-100000J0D01*
G01*
D11*
%TO.C,R84*%
X145712742Y-115252500D02*
X146187258Y-115252500D01*
X145712742Y-116297500D02*
X146187258Y-116297500D01*
%TO.C,R13*%
X143237250Y-106344992D02*
X143237250Y-106819508D01*
X142192250Y-106344992D02*
X142192250Y-106819508D01*
%TO.C,R99*%
X179627500Y-92962258D02*
X179627500Y-92487742D01*
X180672500Y-92962258D02*
X180672500Y-92487742D01*
%TO.C,G\u002A\u002A\u002A*%
G36*
X159132145Y-132241953D02*
G01*
X159105979Y-132381822D01*
X159076286Y-132466620D01*
X159024665Y-132511005D01*
X158932714Y-132529637D01*
X158782032Y-132537178D01*
X158760577Y-132537978D01*
X158455156Y-132549531D01*
X158276563Y-133373046D01*
X158097969Y-134196561D01*
X157856620Y-134196562D01*
X157615272Y-134196562D01*
X157785457Y-133432578D01*
X157838095Y-133193251D01*
X157884292Y-132977417D01*
X157921344Y-132798196D01*
X157946544Y-132668705D01*
X157957187Y-132602064D01*
X157957353Y-132599140D01*
X157947916Y-132562563D01*
X157906574Y-132541465D01*
X157817156Y-132531844D01*
X157676744Y-132529687D01*
X157394425Y-132529687D01*
X157422639Y-132341171D01*
X157442835Y-132224191D01*
X157461978Y-132141851D01*
X157469175Y-132122890D01*
X157512559Y-132114040D01*
X157623395Y-132106237D01*
X157789761Y-132099897D01*
X157999738Y-132095435D01*
X158241404Y-132093266D01*
X158323009Y-132093125D01*
X159158521Y-132093125D01*
X159132145Y-132241953D01*
G37*
G36*
X160240871Y-132095528D02*
G01*
X160329103Y-132104721D01*
X160374413Y-132126827D01*
X160395008Y-132167084D01*
X160398848Y-132182421D01*
X160411110Y-132246946D01*
X160433903Y-132376960D01*
X160465042Y-132559605D01*
X160502342Y-132782019D01*
X160543618Y-133031344D01*
X160558995Y-133125000D01*
X160601363Y-133382392D01*
X160640678Y-133618945D01*
X160674712Y-133821423D01*
X160701233Y-133976592D01*
X160718013Y-134071218D01*
X160721138Y-134087421D01*
X160743494Y-134196562D01*
X160482372Y-134196562D01*
X160221250Y-134196562D01*
X160221250Y-134080745D01*
X160218427Y-133980849D01*
X160201333Y-133913192D01*
X160157027Y-133871495D01*
X160072572Y-133849480D01*
X159935027Y-133840866D01*
X159731453Y-133839375D01*
X159723884Y-133839375D01*
X159274697Y-133839375D01*
X159181820Y-134008046D01*
X159088943Y-134176718D01*
X158817717Y-134188543D01*
X158666731Y-134189824D01*
X158579050Y-134178594D01*
X158560355Y-134160408D01*
X158583762Y-134117553D01*
X158643267Y-134015667D01*
X158733647Y-133863490D01*
X158849680Y-133669762D01*
X158986144Y-133443225D01*
X158986583Y-133442500D01*
X159500089Y-133442500D01*
X159820982Y-133442500D01*
X159994655Y-133438357D01*
X160097941Y-133425043D01*
X160139436Y-133401224D01*
X160141163Y-133392890D01*
X160134886Y-133325179D01*
X160119258Y-133207598D01*
X160097540Y-133060677D01*
X160072993Y-132904945D01*
X160048877Y-132760934D01*
X160028452Y-132649173D01*
X160014978Y-132590193D01*
X160013030Y-132586050D01*
X159986736Y-132611837D01*
X159924584Y-132706391D01*
X159826309Y-132870148D01*
X159691648Y-133103540D01*
X159595167Y-133273828D01*
X159500089Y-133442500D01*
X158986583Y-133442500D01*
X159137816Y-133192617D01*
X159189375Y-133107672D01*
X159804531Y-132094896D01*
X160091509Y-132094010D01*
X160240871Y-132095528D01*
G37*
G36*
X156642330Y-132089405D02*
G01*
X156878501Y-132156765D01*
X157073706Y-132267836D01*
X157086946Y-132278657D01*
X157162556Y-132348611D01*
X157202920Y-132398294D01*
X157205000Y-132405110D01*
X157181797Y-132449165D01*
X157122855Y-132530428D01*
X157083768Y-132579303D01*
X156962535Y-132726379D01*
X156802366Y-132620384D01*
X156654970Y-132547870D01*
X156488007Y-132503652D01*
X156325128Y-132490160D01*
X156189986Y-132509828D01*
X156118703Y-132550091D01*
X156067961Y-132612434D01*
X156055479Y-132668585D01*
X156088158Y-132724944D01*
X156172899Y-132787912D01*
X156316604Y-132863888D01*
X156526173Y-132959272D01*
X156589727Y-132986928D01*
X156817940Y-133106587D01*
X156970991Y-133238521D01*
X157052853Y-133388857D01*
X157067501Y-133563724D01*
X157044352Y-133687963D01*
X156951825Y-133889062D01*
X156799773Y-134047902D01*
X156598482Y-134160006D01*
X156358234Y-134220893D01*
X156089315Y-134226083D01*
X155884774Y-134193067D01*
X155701598Y-134133234D01*
X155527421Y-134047847D01*
X155392804Y-133952634D01*
X155366290Y-133926274D01*
X155322325Y-133850040D01*
X155335250Y-133768832D01*
X155409726Y-133668841D01*
X155474950Y-133604253D01*
X155577813Y-133508038D01*
X155667651Y-133592437D01*
X155806956Y-133689741D01*
X155976033Y-133758820D01*
X156153949Y-133796415D01*
X156319766Y-133799266D01*
X156452549Y-133764113D01*
X156507796Y-133723265D01*
X156558698Y-133656522D01*
X156574523Y-133597941D01*
X156548263Y-133540862D01*
X156472908Y-133478625D01*
X156341450Y-133404572D01*
X156146878Y-133312041D01*
X156010733Y-133250999D01*
X155805588Y-133141313D01*
X155670972Y-133020717D01*
X155598038Y-132878320D01*
X155577813Y-132717945D01*
X155615323Y-132513344D01*
X155726390Y-132335787D01*
X155908819Y-132188613D01*
X155936536Y-132172516D01*
X156146497Y-132094987D01*
X156390045Y-132068048D01*
X156642330Y-132089405D01*
G37*
G36*
X162165175Y-132098076D02*
G01*
X162374680Y-132113014D01*
X162510567Y-132138183D01*
X162536175Y-132147259D01*
X162691693Y-132248207D01*
X162819878Y-132397199D01*
X162897299Y-132565742D01*
X162903712Y-132594215D01*
X162903433Y-132791498D01*
X162840118Y-132991322D01*
X162726267Y-133171843D01*
X162574380Y-133311218D01*
X162459833Y-133369888D01*
X162366426Y-133416353D01*
X162343124Y-133466613D01*
X162347104Y-133480615D01*
X162384681Y-133577425D01*
X162433796Y-133708017D01*
X162487168Y-133852474D01*
X162537521Y-133990883D01*
X162577574Y-134103327D01*
X162600051Y-134169892D01*
X162602500Y-134179426D01*
X162566312Y-134188203D01*
X162471729Y-134194382D01*
X162347804Y-134196562D01*
X162093108Y-134196562D01*
X161967500Y-133819531D01*
X161841892Y-133442500D01*
X161689089Y-133442500D01*
X161619411Y-133442812D01*
X161571080Y-133452472D01*
X161536518Y-133484564D01*
X161508147Y-133552173D01*
X161478388Y-133668382D01*
X161439663Y-133846276D01*
X161430482Y-133888984D01*
X161364220Y-134196562D01*
X161125450Y-134196562D01*
X160993009Y-134193692D01*
X160923586Y-134181686D01*
X160900924Y-134155447D01*
X160903871Y-134127109D01*
X160916837Y-134070475D01*
X160944287Y-133947611D01*
X160983719Y-133769823D01*
X161032629Y-133548418D01*
X161088515Y-133294700D01*
X161136703Y-133075422D01*
X161143245Y-133045625D01*
X161617472Y-133045625D01*
X161906196Y-133045625D01*
X162073687Y-133040664D01*
X162186259Y-133022434D01*
X162267938Y-132985908D01*
X162299492Y-132963369D01*
X162381691Y-132858500D01*
X162407594Y-132734502D01*
X162376152Y-132617717D01*
X162315857Y-132551781D01*
X162234303Y-132518728D01*
X162115592Y-132497390D01*
X161982665Y-132488243D01*
X161858464Y-132491762D01*
X161765932Y-132508422D01*
X161728011Y-132538697D01*
X161727961Y-132539609D01*
X161718434Y-132603151D01*
X161695272Y-132715937D01*
X161672010Y-132817421D01*
X161617472Y-133045625D01*
X161143245Y-133045625D01*
X161352344Y-132093189D01*
X161879478Y-132093157D01*
X162165175Y-132098076D01*
G37*
G36*
X166658684Y-131042494D02*
G01*
X166919217Y-131095624D01*
X167180705Y-131174028D01*
X167400362Y-131264673D01*
X167651913Y-131420429D01*
X167893458Y-131629030D01*
X168111931Y-131874028D01*
X168294265Y-132138975D01*
X168427393Y-132407423D01*
X168495071Y-132642694D01*
X168527734Y-132757416D01*
X168583187Y-132813266D01*
X168609218Y-132822307D01*
X168692866Y-132864717D01*
X168789340Y-132941932D01*
X168809681Y-132962166D01*
X168891895Y-133086312D01*
X168901640Y-133215943D01*
X168837707Y-133356483D01*
X168698884Y-133513357D01*
X168683582Y-133527628D01*
X168522273Y-133711340D01*
X168411734Y-133907520D01*
X168221341Y-134275147D01*
X167972776Y-134592895D01*
X167672686Y-134855159D01*
X167327722Y-135056333D01*
X166944532Y-135190812D01*
X166868906Y-135208160D01*
X166585740Y-135253461D01*
X166329291Y-135258376D01*
X166057887Y-135222810D01*
X165975938Y-135206103D01*
X165665455Y-135110126D01*
X165364828Y-134964344D01*
X165104999Y-134784316D01*
X165061408Y-134746260D01*
X164987091Y-134677397D01*
X164954743Y-134642806D01*
X164969549Y-134644750D01*
X165036694Y-134685495D01*
X165161364Y-134767303D01*
X165259625Y-134832824D01*
X165586085Y-135005038D01*
X165938044Y-135108352D01*
X166303828Y-135143997D01*
X166671761Y-135113205D01*
X167030170Y-135017207D01*
X167367378Y-134857235D01*
X167671713Y-134634520D01*
X167739192Y-134571251D01*
X167852481Y-134447161D01*
X167966722Y-134301106D01*
X168069743Y-134151318D01*
X168149376Y-134016028D01*
X168193447Y-133913466D01*
X168198438Y-133883346D01*
X168167671Y-133868058D01*
X168080117Y-133898419D01*
X168049609Y-133913268D01*
X167950030Y-133956779D01*
X167804626Y-134011845D01*
X167632919Y-134072051D01*
X167454435Y-134130978D01*
X167288696Y-134182211D01*
X167155228Y-134219333D01*
X167073553Y-134235927D01*
X167066869Y-134236250D01*
X167020003Y-134271655D01*
X167007813Y-134352066D01*
X166997692Y-134463867D01*
X166978175Y-134540582D01*
X166957004Y-134568838D01*
X166940117Y-134528843D01*
X166928565Y-134454531D01*
X166911016Y-134353521D01*
X166879757Y-134311120D01*
X166815101Y-134306788D01*
X166789531Y-134309461D01*
X166701117Y-134329906D01*
X166657157Y-134359317D01*
X166620314Y-134379597D01*
X166612154Y-134375907D01*
X166577524Y-134394410D01*
X166535311Y-134465670D01*
X166531001Y-134475730D01*
X166480324Y-134578451D01*
X166445703Y-134611002D01*
X166432464Y-134572297D01*
X166440017Y-134494311D01*
X166449787Y-134402913D01*
X166433789Y-134371588D01*
X166397978Y-134378605D01*
X166342043Y-134425215D01*
X166333125Y-134454240D01*
X166315878Y-134523589D01*
X166275438Y-134616180D01*
X166217752Y-134727371D01*
X166176220Y-134618133D01*
X166146048Y-134527104D01*
X166134688Y-134471791D01*
X166120708Y-134430003D01*
X166089125Y-134446151D01*
X166055476Y-134506046D01*
X166040631Y-134557703D01*
X165997033Y-134674341D01*
X165925037Y-134788762D01*
X165920747Y-134793954D01*
X165857676Y-134865384D01*
X165826366Y-134879797D01*
X165807938Y-134841298D01*
X165802024Y-134819766D01*
X165785416Y-134718241D01*
X165778042Y-134595345D01*
X165778032Y-134593437D01*
X165777480Y-134454531D01*
X165346513Y-134448335D01*
X164995052Y-134428843D01*
X164696420Y-134382571D01*
X164455125Y-134311588D01*
X164275672Y-134217965D01*
X164162568Y-134103771D01*
X164120322Y-133971077D01*
X164129337Y-133889284D01*
X164190852Y-133770166D01*
X164312999Y-133634128D01*
X164482490Y-133493164D01*
X164686035Y-133359269D01*
X164765917Y-133314666D01*
X164900113Y-133241638D01*
X164970975Y-133196991D01*
X164986064Y-133173417D01*
X164952946Y-133163610D01*
X164924219Y-133161736D01*
X164852371Y-133157121D01*
X164847099Y-133148054D01*
X164912761Y-133127977D01*
X164953984Y-133116955D01*
X165052769Y-133082026D01*
X165094921Y-133033533D01*
X165102813Y-132964649D01*
X165115547Y-132866582D01*
X165144170Y-132830911D01*
X165174313Y-132862427D01*
X165189539Y-132935730D01*
X165213703Y-133033159D01*
X165278701Y-133087437D01*
X165330536Y-133107005D01*
X165459041Y-133148542D01*
X165330536Y-133186380D01*
X165237802Y-133227974D01*
X165197916Y-133298367D01*
X165189539Y-133353956D01*
X165166739Y-133440655D01*
X165133692Y-133455540D01*
X165107758Y-133401217D01*
X165102813Y-133340939D01*
X165095454Y-133267402D01*
X165081837Y-133244062D01*
X165012921Y-133265383D01*
X164900214Y-133321206D01*
X164764098Y-133399324D01*
X164624959Y-133487529D01*
X164503179Y-133573613D01*
X164430406Y-133634212D01*
X164308211Y-133781029D01*
X164262689Y-133914086D01*
X164292121Y-134032056D01*
X164394783Y-134133614D01*
X164568957Y-134217434D01*
X164812919Y-134282190D01*
X165124949Y-134326557D01*
X165350859Y-134343193D01*
X165817188Y-134367430D01*
X165818134Y-134232387D01*
X165829553Y-134101173D01*
X165856289Y-133956920D01*
X165860907Y-133938593D01*
X165877030Y-133844829D01*
X165894296Y-133689379D01*
X165911137Y-133489889D01*
X165925985Y-133264002D01*
X165927030Y-133243874D01*
X166178957Y-133243874D01*
X166183218Y-133480086D01*
X166198749Y-133703278D01*
X166211342Y-133807817D01*
X166240701Y-134006690D01*
X166264894Y-134139803D01*
X166288402Y-134220186D01*
X166315704Y-134260864D01*
X166351281Y-134274866D01*
X166372328Y-134275937D01*
X166413848Y-134263373D01*
X166441590Y-134214764D01*
X166449085Y-134177475D01*
X166748053Y-134177475D01*
X166783842Y-134195969D01*
X166804263Y-134196562D01*
X166860746Y-134177661D01*
X166860562Y-134117187D01*
X166838107Y-134053088D01*
X166825986Y-134037812D01*
X166798970Y-134068051D01*
X166769688Y-134117187D01*
X166748053Y-134177475D01*
X166449085Y-134177475D01*
X166461897Y-134113738D01*
X166473978Y-134013470D01*
X166486616Y-133828958D01*
X166490075Y-133612600D01*
X166485433Y-133377442D01*
X166484658Y-133361441D01*
X166630781Y-133361441D01*
X166631860Y-133609645D01*
X166634883Y-133824197D01*
X166639529Y-133994909D01*
X166645477Y-134111594D01*
X166652406Y-134164065D01*
X166656047Y-134163288D01*
X166672099Y-134095189D01*
X166693964Y-133969951D01*
X166718018Y-133809247D01*
X166729557Y-133723723D01*
X166756713Y-133270568D01*
X166715207Y-132845684D01*
X166677921Y-132675642D01*
X166662589Y-132624485D01*
X166650913Y-132611122D01*
X166642419Y-132642451D01*
X166636633Y-132725368D01*
X166633081Y-132866773D01*
X166631289Y-133073562D01*
X166630782Y-133352634D01*
X166630781Y-133361441D01*
X166484658Y-133361441D01*
X166473769Y-133136528D01*
X166456162Y-132902904D01*
X166433692Y-132689615D01*
X166407438Y-132509707D01*
X166378480Y-132376225D01*
X166347895Y-132302215D01*
X166331528Y-132291562D01*
X166290119Y-132329003D01*
X166253708Y-132432535D01*
X166223341Y-132588973D01*
X166200064Y-132785132D01*
X166184921Y-133007828D01*
X166178957Y-133243874D01*
X165927030Y-133243874D01*
X165933199Y-133125000D01*
X165948196Y-132849496D01*
X165965594Y-132636487D01*
X165987607Y-132469091D01*
X166016449Y-132330427D01*
X166053842Y-132205063D01*
X166116020Y-132044077D01*
X166191553Y-131880408D01*
X166271232Y-131730609D01*
X166345845Y-131611230D01*
X166406181Y-131538825D01*
X166432415Y-131524782D01*
X166480860Y-131558596D01*
X166548449Y-131651242D01*
X166626786Y-131787112D01*
X166707474Y-131950593D01*
X166782118Y-132126075D01*
X166834130Y-132271718D01*
X166878928Y-132424734D01*
X166909572Y-132568787D01*
X166929096Y-132727037D01*
X166940537Y-132922646D01*
X166945974Y-133125000D01*
X166953990Y-133352473D01*
X166968394Y-133576949D01*
X166987522Y-133783160D01*
X167009709Y-133955836D01*
X167033290Y-134079711D01*
X167056598Y-134139515D01*
X167056616Y-134139532D01*
X167098000Y-134133680D01*
X167197442Y-134106077D01*
X167338453Y-134062228D01*
X167504542Y-134007641D01*
X167679219Y-133947821D01*
X167845994Y-133888272D01*
X167988377Y-133834501D01*
X168067637Y-133801975D01*
X168186448Y-133746003D01*
X168252273Y-133694495D01*
X168286138Y-133623227D01*
X168305728Y-133527690D01*
X168323418Y-133302022D01*
X168547931Y-133302022D01*
X168548621Y-133421231D01*
X168553906Y-133501290D01*
X168561248Y-133521875D01*
X168601530Y-133494271D01*
X168668767Y-133425472D01*
X168691003Y-133399767D01*
X168773875Y-133259525D01*
X168795231Y-133120856D01*
X168754981Y-133001836D01*
X168693293Y-132941945D01*
X168618625Y-132900161D01*
X168578744Y-132891234D01*
X168578558Y-132891420D01*
X168567150Y-132938362D01*
X168557824Y-133037700D01*
X168551208Y-133166549D01*
X168547931Y-133302022D01*
X168323418Y-133302022D01*
X168336904Y-133129990D01*
X168296098Y-132750039D01*
X168189317Y-132394595D01*
X168022567Y-132070414D01*
X167801853Y-131784253D01*
X167533182Y-131542869D01*
X167222560Y-131353019D01*
X166875993Y-131221460D01*
X166499487Y-131154948D01*
X166194219Y-131152233D01*
X165805852Y-131212946D01*
X165453376Y-131344367D01*
X165259625Y-131456863D01*
X165100035Y-131562960D01*
X165000937Y-131626686D01*
X164957172Y-131650282D01*
X164963581Y-131635989D01*
X165015007Y-131586051D01*
X165062395Y-131542577D01*
X165304293Y-131364294D01*
X165597892Y-131213904D01*
X165917630Y-131101101D01*
X166237947Y-131035582D01*
X166432344Y-131022940D01*
X166658684Y-131042494D01*
G37*
%TO.C,R21*%
X183297500Y-123987742D02*
X183297500Y-124462258D01*
X182252500Y-123987742D02*
X182252500Y-124462258D01*
%TO.C,R10*%
X139587258Y-123897500D02*
X139112742Y-123897500D01*
X139587258Y-122852500D02*
X139112742Y-122852500D01*
%TO.C,D33*%
X185535000Y-89410000D02*
X185535000Y-87940000D01*
X185535000Y-87940000D02*
X183250000Y-87940000D01*
X183250000Y-89410000D02*
X185535000Y-89410000D01*
%TO.C,R80*%
X180502500Y-111437258D02*
X180502500Y-110962742D01*
X181547500Y-111437258D02*
X181547500Y-110962742D01*
D12*
%TO.C,U2*%
X187315000Y-95034000D02*
X183315000Y-95034000D01*
X187315000Y-90026500D02*
X183315000Y-90026500D01*
D13*
X189415000Y-94780000D02*
G75*
G03*
X189415000Y-94780000I-100000J0D01*
G01*
D12*
%TO.C,U24*%
X139155000Y-135041000D02*
X140855000Y-135041000D01*
X140855000Y-138159000D02*
X139155000Y-138159000D01*
D13*
X137705000Y-135300000D02*
G75*
G03*
X137705000Y-135300000I-100000J0D01*
G01*
D12*
%TO.C,U31*%
X189709000Y-114937500D02*
X189709000Y-116637500D01*
X186591000Y-116637500D02*
X186591000Y-114937500D01*
D13*
X189550000Y-113387500D02*
G75*
G03*
X189550000Y-113387500I-100000J0D01*
G01*
D11*
%TO.C,R14*%
X139637258Y-105022500D02*
X139162742Y-105022500D01*
X139637258Y-103977500D02*
X139162742Y-103977500D01*
%TO.C,R9*%
X143144750Y-125048992D02*
X143144750Y-125523508D01*
X142099750Y-125048992D02*
X142099750Y-125523508D01*
%TO.C,D37*%
X188660000Y-106585000D02*
X188660000Y-105115000D01*
X188660000Y-105115000D02*
X186375000Y-105115000D01*
X186375000Y-106585000D02*
X188660000Y-106585000D01*
%TO.C,F11*%
X192696248Y-100660000D02*
X197103752Y-100660000D01*
X192696248Y-106000000D02*
X197103752Y-106000000D01*
%TO.C,D43*%
X140835000Y-121210000D02*
X140835000Y-119740000D01*
X140835000Y-119740000D02*
X138550000Y-119740000D01*
X138550000Y-121210000D02*
X140835000Y-121210000D01*
%TO.C,R103*%
X130747500Y-130937742D02*
X130747500Y-131412258D01*
X129702500Y-130937742D02*
X129702500Y-131412258D01*
%TO.C,R96*%
X180952500Y-130487258D02*
X180952500Y-130012742D01*
X181997500Y-130487258D02*
X181997500Y-130012742D01*
%TO.C,R76*%
X178127500Y-130487258D02*
X178127500Y-130012742D01*
X179172500Y-130487258D02*
X179172500Y-130012742D01*
%TO.C,R74*%
X146252500Y-113012258D02*
X146252500Y-112537742D01*
X147297500Y-113012258D02*
X147297500Y-112537742D01*
%TO.C,R79*%
X176652500Y-92962258D02*
X176652500Y-92487742D01*
X177697500Y-92962258D02*
X177697500Y-92487742D01*
%TO.C,R38*%
X187037742Y-102302500D02*
X187512258Y-102302500D01*
X187037742Y-103347500D02*
X187512258Y-103347500D01*
%TO.C,R109*%
X191197500Y-94987742D02*
X191197500Y-95462258D01*
X190152500Y-94987742D02*
X190152500Y-95462258D01*
%TO.C,R17*%
X143587500Y-87287742D02*
X143587500Y-87762258D01*
X142542500Y-87287742D02*
X142542500Y-87762258D01*
%TO.C,JP2*%
X166386000Y-138179000D02*
X166386000Y-135379000D01*
X168386000Y-138179000D02*
X166386000Y-138179000D01*
X166386000Y-135379000D02*
X168386000Y-135379000D01*
X168386000Y-135379000D02*
X168386000Y-138179000D01*
%TO.C,R73*%
X145177500Y-131987258D02*
X145177500Y-131512742D01*
X146222500Y-131987258D02*
X146222500Y-131512742D01*
%TO.C,R89*%
X178237258Y-95947500D02*
X177762742Y-95947500D01*
X178237258Y-94902500D02*
X177762742Y-94902500D01*
%TO.C,J2*%
X205354000Y-76536000D02*
X166034000Y-76536000D01*
X205354000Y-64196000D02*
X205354000Y-76536000D01*
X176249000Y-77430338D02*
X175749000Y-77430338D01*
X175999000Y-76997325D02*
X176249000Y-77430338D01*
X175749000Y-77430338D02*
X175999000Y-76997325D01*
X166034000Y-76536000D02*
X166034000Y-64196000D01*
%TO.C,D17*%
X138055000Y-87565000D02*
X138055000Y-89035000D01*
X138055000Y-89035000D02*
X140340000Y-89035000D01*
X140340000Y-87565000D02*
X138055000Y-87565000D01*
%TO.C,D45*%
X141025000Y-83060000D02*
X141025000Y-81590000D01*
X141025000Y-81590000D02*
X138740000Y-81590000D01*
X138740000Y-83060000D02*
X141025000Y-83060000D01*
D12*
%TO.C,U25*%
X138955000Y-114851000D02*
X140655000Y-114851000D01*
X140655000Y-117969000D02*
X138955000Y-117969000D01*
D13*
X137505000Y-115110000D02*
G75*
G03*
X137505000Y-115110000I-100000J0D01*
G01*
D12*
%TO.C,U3*%
X134410000Y-108796000D02*
X138410000Y-108796000D01*
X134410000Y-113803500D02*
X138410000Y-113803500D01*
D13*
X132510000Y-109050000D02*
G75*
G03*
X132510000Y-109050000I-100000J0D01*
G01*
D11*
%TO.C,F4*%
X133441252Y-125245000D02*
X129033748Y-125245000D01*
X133441252Y-119905000D02*
X129033748Y-119905000D01*
%TO.C,R37*%
X184722500Y-104787742D02*
X184722500Y-105262258D01*
X183677500Y-104787742D02*
X183677500Y-105262258D01*
%TO.C,JP1*%
X172958000Y-134378000D02*
X172958000Y-137178000D01*
X170958000Y-134378000D02*
X172958000Y-134378000D01*
X172958000Y-137178000D02*
X170958000Y-137178000D01*
X170958000Y-137178000D02*
X170958000Y-134378000D01*
%TO.C,D13*%
X137927750Y-106672250D02*
X137927750Y-108142250D01*
X137927750Y-108142250D02*
X140212750Y-108142250D01*
X140212750Y-106672250D02*
X137927750Y-106672250D01*
%TO.C,D46*%
X184552500Y-118440000D02*
X184552500Y-119910000D01*
X184552500Y-119910000D02*
X186837500Y-119910000D01*
X186837500Y-118440000D02*
X184552500Y-118440000D01*
%TO.C,F6*%
X134271871Y-87650001D02*
X129864367Y-87650001D01*
X134271871Y-82310001D02*
X129864367Y-82310001D01*
%TO.C,D21*%
X187460000Y-125785000D02*
X187460000Y-124315000D01*
X187460000Y-124315000D02*
X185175000Y-124315000D01*
X185175000Y-125785000D02*
X187460000Y-125785000D01*
%TO.C,R18*%
X139827258Y-85872500D02*
X139352742Y-85872500D01*
X139827258Y-84827500D02*
X139352742Y-84827500D01*
D12*
%TO.C,U5*%
X134625000Y-89771000D02*
X138625000Y-89771000D01*
X134625000Y-94778500D02*
X138625000Y-94778500D01*
D13*
X132725000Y-90025000D02*
G75*
G03*
X132725000Y-90025000I-100000J0D01*
G01*
D11*
%TO.C,R86*%
X180862258Y-134347500D02*
X180387742Y-134347500D01*
X180862258Y-133302500D02*
X180387742Y-133302500D01*
%TO.C,R106*%
X195822500Y-132562742D02*
X195822500Y-133037258D01*
X194777500Y-132562742D02*
X194777500Y-133037258D01*
%TO.C,R83*%
X144587742Y-134102500D02*
X145062258Y-134102500D01*
X144587742Y-135147500D02*
X145062258Y-135147500D01*
%TO.C,D9*%
X137835250Y-125567250D02*
X137835250Y-127037250D01*
X137835250Y-127037250D02*
X140120250Y-127037250D01*
X140120250Y-125567250D02*
X137835250Y-125567250D01*
%TO.C,F5*%
X133533752Y-106350000D02*
X129126248Y-106350000D01*
X133533752Y-101010000D02*
X129126248Y-101010000D01*
%TO.C,R93*%
X142352500Y-131912258D02*
X142352500Y-131437742D01*
X143397500Y-131912258D02*
X143397500Y-131437742D01*
%TD*%
M02*
