%TF.GenerationSoftware,KiCad,Pcbnew,7.0.1-0*%
%TF.CreationDate,2023-09-14T23:18:32-07:00*%
%TF.ProjectId,HX-board,48582d62-6f61-4726-942e-6b696361645f,rev?*%
%TF.SameCoordinates,Original*%
%TF.FileFunction,Legend,Bot*%
%TF.FilePolarity,Positive*%
%FSLAX46Y46*%
G04 Gerber Fmt 4.6, Leading zero omitted, Abs format (unit mm)*
G04 Created by KiCad (PCBNEW 7.0.1-0) date 2023-09-14 23:18:32*
%MOMM*%
%LPD*%
G01*
G04 APERTURE LIST*
%ADD10C,0.150000*%
%ADD11C,0.120000*%
G04 APERTURE END LIST*
D10*
%TO.C,R15*%
X120002619Y-100703142D02*
X119526428Y-100369809D01*
X120002619Y-100131714D02*
X119002619Y-100131714D01*
X119002619Y-100131714D02*
X119002619Y-100512666D01*
X119002619Y-100512666D02*
X119050238Y-100607904D01*
X119050238Y-100607904D02*
X119097857Y-100655523D01*
X119097857Y-100655523D02*
X119193095Y-100703142D01*
X119193095Y-100703142D02*
X119335952Y-100703142D01*
X119335952Y-100703142D02*
X119431190Y-100655523D01*
X119431190Y-100655523D02*
X119478809Y-100607904D01*
X119478809Y-100607904D02*
X119526428Y-100512666D01*
X119526428Y-100512666D02*
X119526428Y-100131714D01*
X120002619Y-101655523D02*
X120002619Y-101084095D01*
X120002619Y-101369809D02*
X119002619Y-101369809D01*
X119002619Y-101369809D02*
X119145476Y-101274571D01*
X119145476Y-101274571D02*
X119240714Y-101179333D01*
X119240714Y-101179333D02*
X119288333Y-101084095D01*
X119002619Y-102560285D02*
X119002619Y-102084095D01*
X119002619Y-102084095D02*
X119478809Y-102036476D01*
X119478809Y-102036476D02*
X119431190Y-102084095D01*
X119431190Y-102084095D02*
X119383571Y-102179333D01*
X119383571Y-102179333D02*
X119383571Y-102417428D01*
X119383571Y-102417428D02*
X119431190Y-102512666D01*
X119431190Y-102512666D02*
X119478809Y-102560285D01*
X119478809Y-102560285D02*
X119574047Y-102607904D01*
X119574047Y-102607904D02*
X119812142Y-102607904D01*
X119812142Y-102607904D02*
X119907380Y-102560285D01*
X119907380Y-102560285D02*
X119955000Y-102512666D01*
X119955000Y-102512666D02*
X120002619Y-102417428D01*
X120002619Y-102417428D02*
X120002619Y-102179333D01*
X120002619Y-102179333D02*
X119955000Y-102084095D01*
X119955000Y-102084095D02*
X119907380Y-102036476D01*
%TO.C,R44*%
X105607857Y-106380619D02*
X105941190Y-105904428D01*
X106179285Y-106380619D02*
X106179285Y-105380619D01*
X106179285Y-105380619D02*
X105798333Y-105380619D01*
X105798333Y-105380619D02*
X105703095Y-105428238D01*
X105703095Y-105428238D02*
X105655476Y-105475857D01*
X105655476Y-105475857D02*
X105607857Y-105571095D01*
X105607857Y-105571095D02*
X105607857Y-105713952D01*
X105607857Y-105713952D02*
X105655476Y-105809190D01*
X105655476Y-105809190D02*
X105703095Y-105856809D01*
X105703095Y-105856809D02*
X105798333Y-105904428D01*
X105798333Y-105904428D02*
X106179285Y-105904428D01*
X104750714Y-105713952D02*
X104750714Y-106380619D01*
X104988809Y-105333000D02*
X105226904Y-106047285D01*
X105226904Y-106047285D02*
X104607857Y-106047285D01*
X103798333Y-105713952D02*
X103798333Y-106380619D01*
X104036428Y-105333000D02*
X104274523Y-106047285D01*
X104274523Y-106047285D02*
X103655476Y-106047285D01*
%TO.C,R9*%
X140732619Y-124233333D02*
X140256428Y-123900000D01*
X140732619Y-123661905D02*
X139732619Y-123661905D01*
X139732619Y-123661905D02*
X139732619Y-124042857D01*
X139732619Y-124042857D02*
X139780238Y-124138095D01*
X139780238Y-124138095D02*
X139827857Y-124185714D01*
X139827857Y-124185714D02*
X139923095Y-124233333D01*
X139923095Y-124233333D02*
X140065952Y-124233333D01*
X140065952Y-124233333D02*
X140161190Y-124185714D01*
X140161190Y-124185714D02*
X140208809Y-124138095D01*
X140208809Y-124138095D02*
X140256428Y-124042857D01*
X140256428Y-124042857D02*
X140256428Y-123661905D01*
X140732619Y-124709524D02*
X140732619Y-124900000D01*
X140732619Y-124900000D02*
X140685000Y-124995238D01*
X140685000Y-124995238D02*
X140637380Y-125042857D01*
X140637380Y-125042857D02*
X140494523Y-125138095D01*
X140494523Y-125138095D02*
X140304047Y-125185714D01*
X140304047Y-125185714D02*
X139923095Y-125185714D01*
X139923095Y-125185714D02*
X139827857Y-125138095D01*
X139827857Y-125138095D02*
X139780238Y-125090476D01*
X139780238Y-125090476D02*
X139732619Y-124995238D01*
X139732619Y-124995238D02*
X139732619Y-124804762D01*
X139732619Y-124804762D02*
X139780238Y-124709524D01*
X139780238Y-124709524D02*
X139827857Y-124661905D01*
X139827857Y-124661905D02*
X139923095Y-124614286D01*
X139923095Y-124614286D02*
X140161190Y-124614286D01*
X140161190Y-124614286D02*
X140256428Y-124661905D01*
X140256428Y-124661905D02*
X140304047Y-124709524D01*
X140304047Y-124709524D02*
X140351666Y-124804762D01*
X140351666Y-124804762D02*
X140351666Y-124995238D01*
X140351666Y-124995238D02*
X140304047Y-125090476D01*
X140304047Y-125090476D02*
X140256428Y-125138095D01*
X140256428Y-125138095D02*
X140161190Y-125185714D01*
%TO.C,R37*%
X151940619Y-109847142D02*
X151464428Y-109513809D01*
X151940619Y-109275714D02*
X150940619Y-109275714D01*
X150940619Y-109275714D02*
X150940619Y-109656666D01*
X150940619Y-109656666D02*
X150988238Y-109751904D01*
X150988238Y-109751904D02*
X151035857Y-109799523D01*
X151035857Y-109799523D02*
X151131095Y-109847142D01*
X151131095Y-109847142D02*
X151273952Y-109847142D01*
X151273952Y-109847142D02*
X151369190Y-109799523D01*
X151369190Y-109799523D02*
X151416809Y-109751904D01*
X151416809Y-109751904D02*
X151464428Y-109656666D01*
X151464428Y-109656666D02*
X151464428Y-109275714D01*
X150940619Y-110180476D02*
X150940619Y-110799523D01*
X150940619Y-110799523D02*
X151321571Y-110466190D01*
X151321571Y-110466190D02*
X151321571Y-110609047D01*
X151321571Y-110609047D02*
X151369190Y-110704285D01*
X151369190Y-110704285D02*
X151416809Y-110751904D01*
X151416809Y-110751904D02*
X151512047Y-110799523D01*
X151512047Y-110799523D02*
X151750142Y-110799523D01*
X151750142Y-110799523D02*
X151845380Y-110751904D01*
X151845380Y-110751904D02*
X151893000Y-110704285D01*
X151893000Y-110704285D02*
X151940619Y-110609047D01*
X151940619Y-110609047D02*
X151940619Y-110323333D01*
X151940619Y-110323333D02*
X151893000Y-110228095D01*
X151893000Y-110228095D02*
X151845380Y-110180476D01*
X150940619Y-111132857D02*
X150940619Y-111799523D01*
X150940619Y-111799523D02*
X151940619Y-111370952D01*
%TO.C,C24*%
X154705380Y-104767142D02*
X154753000Y-104719523D01*
X154753000Y-104719523D02*
X154800619Y-104576666D01*
X154800619Y-104576666D02*
X154800619Y-104481428D01*
X154800619Y-104481428D02*
X154753000Y-104338571D01*
X154753000Y-104338571D02*
X154657761Y-104243333D01*
X154657761Y-104243333D02*
X154562523Y-104195714D01*
X154562523Y-104195714D02*
X154372047Y-104148095D01*
X154372047Y-104148095D02*
X154229190Y-104148095D01*
X154229190Y-104148095D02*
X154038714Y-104195714D01*
X154038714Y-104195714D02*
X153943476Y-104243333D01*
X153943476Y-104243333D02*
X153848238Y-104338571D01*
X153848238Y-104338571D02*
X153800619Y-104481428D01*
X153800619Y-104481428D02*
X153800619Y-104576666D01*
X153800619Y-104576666D02*
X153848238Y-104719523D01*
X153848238Y-104719523D02*
X153895857Y-104767142D01*
X153895857Y-105148095D02*
X153848238Y-105195714D01*
X153848238Y-105195714D02*
X153800619Y-105290952D01*
X153800619Y-105290952D02*
X153800619Y-105529047D01*
X153800619Y-105529047D02*
X153848238Y-105624285D01*
X153848238Y-105624285D02*
X153895857Y-105671904D01*
X153895857Y-105671904D02*
X153991095Y-105719523D01*
X153991095Y-105719523D02*
X154086333Y-105719523D01*
X154086333Y-105719523D02*
X154229190Y-105671904D01*
X154229190Y-105671904D02*
X154800619Y-105100476D01*
X154800619Y-105100476D02*
X154800619Y-105719523D01*
X154133952Y-106576666D02*
X154800619Y-106576666D01*
X153753000Y-106338571D02*
X154467285Y-106100476D01*
X154467285Y-106100476D02*
X154467285Y-106719523D01*
%TO.C,Q6*%
X153589738Y-114423857D02*
X153684976Y-114376238D01*
X153684976Y-114376238D02*
X153780214Y-114281000D01*
X153780214Y-114281000D02*
X153923071Y-114138142D01*
X153923071Y-114138142D02*
X154018309Y-114090523D01*
X154018309Y-114090523D02*
X154113547Y-114090523D01*
X154065928Y-114328619D02*
X154161166Y-114281000D01*
X154161166Y-114281000D02*
X154256404Y-114185761D01*
X154256404Y-114185761D02*
X154304023Y-113995285D01*
X154304023Y-113995285D02*
X154304023Y-113661952D01*
X154304023Y-113661952D02*
X154256404Y-113471476D01*
X154256404Y-113471476D02*
X154161166Y-113376238D01*
X154161166Y-113376238D02*
X154065928Y-113328619D01*
X154065928Y-113328619D02*
X153875452Y-113328619D01*
X153875452Y-113328619D02*
X153780214Y-113376238D01*
X153780214Y-113376238D02*
X153684976Y-113471476D01*
X153684976Y-113471476D02*
X153637357Y-113661952D01*
X153637357Y-113661952D02*
X153637357Y-113995285D01*
X153637357Y-113995285D02*
X153684976Y-114185761D01*
X153684976Y-114185761D02*
X153780214Y-114281000D01*
X153780214Y-114281000D02*
X153875452Y-114328619D01*
X153875452Y-114328619D02*
X154065928Y-114328619D01*
X152780214Y-113328619D02*
X152970690Y-113328619D01*
X152970690Y-113328619D02*
X153065928Y-113376238D01*
X153065928Y-113376238D02*
X153113547Y-113423857D01*
X153113547Y-113423857D02*
X153208785Y-113566714D01*
X153208785Y-113566714D02*
X153256404Y-113757190D01*
X153256404Y-113757190D02*
X153256404Y-114138142D01*
X153256404Y-114138142D02*
X153208785Y-114233380D01*
X153208785Y-114233380D02*
X153161166Y-114281000D01*
X153161166Y-114281000D02*
X153065928Y-114328619D01*
X153065928Y-114328619D02*
X152875452Y-114328619D01*
X152875452Y-114328619D02*
X152780214Y-114281000D01*
X152780214Y-114281000D02*
X152732595Y-114233380D01*
X152732595Y-114233380D02*
X152684976Y-114138142D01*
X152684976Y-114138142D02*
X152684976Y-113900047D01*
X152684976Y-113900047D02*
X152732595Y-113804809D01*
X152732595Y-113804809D02*
X152780214Y-113757190D01*
X152780214Y-113757190D02*
X152875452Y-113709571D01*
X152875452Y-113709571D02*
X153065928Y-113709571D01*
X153065928Y-113709571D02*
X153161166Y-113757190D01*
X153161166Y-113757190D02*
X153208785Y-113804809D01*
X153208785Y-113804809D02*
X153256404Y-113900047D01*
%TO.C,C20*%
X135262857Y-125495380D02*
X135310476Y-125543000D01*
X135310476Y-125543000D02*
X135453333Y-125590619D01*
X135453333Y-125590619D02*
X135548571Y-125590619D01*
X135548571Y-125590619D02*
X135691428Y-125543000D01*
X135691428Y-125543000D02*
X135786666Y-125447761D01*
X135786666Y-125447761D02*
X135834285Y-125352523D01*
X135834285Y-125352523D02*
X135881904Y-125162047D01*
X135881904Y-125162047D02*
X135881904Y-125019190D01*
X135881904Y-125019190D02*
X135834285Y-124828714D01*
X135834285Y-124828714D02*
X135786666Y-124733476D01*
X135786666Y-124733476D02*
X135691428Y-124638238D01*
X135691428Y-124638238D02*
X135548571Y-124590619D01*
X135548571Y-124590619D02*
X135453333Y-124590619D01*
X135453333Y-124590619D02*
X135310476Y-124638238D01*
X135310476Y-124638238D02*
X135262857Y-124685857D01*
X134881904Y-124685857D02*
X134834285Y-124638238D01*
X134834285Y-124638238D02*
X134739047Y-124590619D01*
X134739047Y-124590619D02*
X134500952Y-124590619D01*
X134500952Y-124590619D02*
X134405714Y-124638238D01*
X134405714Y-124638238D02*
X134358095Y-124685857D01*
X134358095Y-124685857D02*
X134310476Y-124781095D01*
X134310476Y-124781095D02*
X134310476Y-124876333D01*
X134310476Y-124876333D02*
X134358095Y-125019190D01*
X134358095Y-125019190D02*
X134929523Y-125590619D01*
X134929523Y-125590619D02*
X134310476Y-125590619D01*
X133691428Y-124590619D02*
X133596190Y-124590619D01*
X133596190Y-124590619D02*
X133500952Y-124638238D01*
X133500952Y-124638238D02*
X133453333Y-124685857D01*
X133453333Y-124685857D02*
X133405714Y-124781095D01*
X133405714Y-124781095D02*
X133358095Y-124971571D01*
X133358095Y-124971571D02*
X133358095Y-125209666D01*
X133358095Y-125209666D02*
X133405714Y-125400142D01*
X133405714Y-125400142D02*
X133453333Y-125495380D01*
X133453333Y-125495380D02*
X133500952Y-125543000D01*
X133500952Y-125543000D02*
X133596190Y-125590619D01*
X133596190Y-125590619D02*
X133691428Y-125590619D01*
X133691428Y-125590619D02*
X133786666Y-125543000D01*
X133786666Y-125543000D02*
X133834285Y-125495380D01*
X133834285Y-125495380D02*
X133881904Y-125400142D01*
X133881904Y-125400142D02*
X133929523Y-125209666D01*
X133929523Y-125209666D02*
X133929523Y-124971571D01*
X133929523Y-124971571D02*
X133881904Y-124781095D01*
X133881904Y-124781095D02*
X133834285Y-124685857D01*
X133834285Y-124685857D02*
X133786666Y-124638238D01*
X133786666Y-124638238D02*
X133691428Y-124590619D01*
%TO.C,Q7*%
X103935857Y-123856761D02*
X103888238Y-123761523D01*
X103888238Y-123761523D02*
X103793000Y-123666285D01*
X103793000Y-123666285D02*
X103650142Y-123523428D01*
X103650142Y-123523428D02*
X103602523Y-123428190D01*
X103602523Y-123428190D02*
X103602523Y-123332952D01*
X103840619Y-123380571D02*
X103793000Y-123285333D01*
X103793000Y-123285333D02*
X103697761Y-123190095D01*
X103697761Y-123190095D02*
X103507285Y-123142476D01*
X103507285Y-123142476D02*
X103173952Y-123142476D01*
X103173952Y-123142476D02*
X102983476Y-123190095D01*
X102983476Y-123190095D02*
X102888238Y-123285333D01*
X102888238Y-123285333D02*
X102840619Y-123380571D01*
X102840619Y-123380571D02*
X102840619Y-123571047D01*
X102840619Y-123571047D02*
X102888238Y-123666285D01*
X102888238Y-123666285D02*
X102983476Y-123761523D01*
X102983476Y-123761523D02*
X103173952Y-123809142D01*
X103173952Y-123809142D02*
X103507285Y-123809142D01*
X103507285Y-123809142D02*
X103697761Y-123761523D01*
X103697761Y-123761523D02*
X103793000Y-123666285D01*
X103793000Y-123666285D02*
X103840619Y-123571047D01*
X103840619Y-123571047D02*
X103840619Y-123380571D01*
X102840619Y-124142476D02*
X102840619Y-124809142D01*
X102840619Y-124809142D02*
X103840619Y-124380571D01*
%TO.C,C17*%
X159277380Y-115943142D02*
X159325000Y-115895523D01*
X159325000Y-115895523D02*
X159372619Y-115752666D01*
X159372619Y-115752666D02*
X159372619Y-115657428D01*
X159372619Y-115657428D02*
X159325000Y-115514571D01*
X159325000Y-115514571D02*
X159229761Y-115419333D01*
X159229761Y-115419333D02*
X159134523Y-115371714D01*
X159134523Y-115371714D02*
X158944047Y-115324095D01*
X158944047Y-115324095D02*
X158801190Y-115324095D01*
X158801190Y-115324095D02*
X158610714Y-115371714D01*
X158610714Y-115371714D02*
X158515476Y-115419333D01*
X158515476Y-115419333D02*
X158420238Y-115514571D01*
X158420238Y-115514571D02*
X158372619Y-115657428D01*
X158372619Y-115657428D02*
X158372619Y-115752666D01*
X158372619Y-115752666D02*
X158420238Y-115895523D01*
X158420238Y-115895523D02*
X158467857Y-115943142D01*
X159372619Y-116895523D02*
X159372619Y-116324095D01*
X159372619Y-116609809D02*
X158372619Y-116609809D01*
X158372619Y-116609809D02*
X158515476Y-116514571D01*
X158515476Y-116514571D02*
X158610714Y-116419333D01*
X158610714Y-116419333D02*
X158658333Y-116324095D01*
X158372619Y-117228857D02*
X158372619Y-117895523D01*
X158372619Y-117895523D02*
X159372619Y-117466952D01*
%TO.C,R33*%
X140322619Y-114419142D02*
X139846428Y-114085809D01*
X140322619Y-113847714D02*
X139322619Y-113847714D01*
X139322619Y-113847714D02*
X139322619Y-114228666D01*
X139322619Y-114228666D02*
X139370238Y-114323904D01*
X139370238Y-114323904D02*
X139417857Y-114371523D01*
X139417857Y-114371523D02*
X139513095Y-114419142D01*
X139513095Y-114419142D02*
X139655952Y-114419142D01*
X139655952Y-114419142D02*
X139751190Y-114371523D01*
X139751190Y-114371523D02*
X139798809Y-114323904D01*
X139798809Y-114323904D02*
X139846428Y-114228666D01*
X139846428Y-114228666D02*
X139846428Y-113847714D01*
X139322619Y-114752476D02*
X139322619Y-115371523D01*
X139322619Y-115371523D02*
X139703571Y-115038190D01*
X139703571Y-115038190D02*
X139703571Y-115181047D01*
X139703571Y-115181047D02*
X139751190Y-115276285D01*
X139751190Y-115276285D02*
X139798809Y-115323904D01*
X139798809Y-115323904D02*
X139894047Y-115371523D01*
X139894047Y-115371523D02*
X140132142Y-115371523D01*
X140132142Y-115371523D02*
X140227380Y-115323904D01*
X140227380Y-115323904D02*
X140275000Y-115276285D01*
X140275000Y-115276285D02*
X140322619Y-115181047D01*
X140322619Y-115181047D02*
X140322619Y-114895333D01*
X140322619Y-114895333D02*
X140275000Y-114800095D01*
X140275000Y-114800095D02*
X140227380Y-114752476D01*
X139322619Y-115704857D02*
X139322619Y-116323904D01*
X139322619Y-116323904D02*
X139703571Y-115990571D01*
X139703571Y-115990571D02*
X139703571Y-116133428D01*
X139703571Y-116133428D02*
X139751190Y-116228666D01*
X139751190Y-116228666D02*
X139798809Y-116276285D01*
X139798809Y-116276285D02*
X139894047Y-116323904D01*
X139894047Y-116323904D02*
X140132142Y-116323904D01*
X140132142Y-116323904D02*
X140227380Y-116276285D01*
X140227380Y-116276285D02*
X140275000Y-116228666D01*
X140275000Y-116228666D02*
X140322619Y-116133428D01*
X140322619Y-116133428D02*
X140322619Y-115847714D01*
X140322619Y-115847714D02*
X140275000Y-115752476D01*
X140275000Y-115752476D02*
X140227380Y-115704857D01*
%TO.C,R38*%
X149740857Y-111620619D02*
X150074190Y-111144428D01*
X150312285Y-111620619D02*
X150312285Y-110620619D01*
X150312285Y-110620619D02*
X149931333Y-110620619D01*
X149931333Y-110620619D02*
X149836095Y-110668238D01*
X149836095Y-110668238D02*
X149788476Y-110715857D01*
X149788476Y-110715857D02*
X149740857Y-110811095D01*
X149740857Y-110811095D02*
X149740857Y-110953952D01*
X149740857Y-110953952D02*
X149788476Y-111049190D01*
X149788476Y-111049190D02*
X149836095Y-111096809D01*
X149836095Y-111096809D02*
X149931333Y-111144428D01*
X149931333Y-111144428D02*
X150312285Y-111144428D01*
X149407523Y-110620619D02*
X148788476Y-110620619D01*
X148788476Y-110620619D02*
X149121809Y-111001571D01*
X149121809Y-111001571D02*
X148978952Y-111001571D01*
X148978952Y-111001571D02*
X148883714Y-111049190D01*
X148883714Y-111049190D02*
X148836095Y-111096809D01*
X148836095Y-111096809D02*
X148788476Y-111192047D01*
X148788476Y-111192047D02*
X148788476Y-111430142D01*
X148788476Y-111430142D02*
X148836095Y-111525380D01*
X148836095Y-111525380D02*
X148883714Y-111573000D01*
X148883714Y-111573000D02*
X148978952Y-111620619D01*
X148978952Y-111620619D02*
X149264666Y-111620619D01*
X149264666Y-111620619D02*
X149359904Y-111573000D01*
X149359904Y-111573000D02*
X149407523Y-111525380D01*
X148217047Y-111049190D02*
X148312285Y-111001571D01*
X148312285Y-111001571D02*
X148359904Y-110953952D01*
X148359904Y-110953952D02*
X148407523Y-110858714D01*
X148407523Y-110858714D02*
X148407523Y-110811095D01*
X148407523Y-110811095D02*
X148359904Y-110715857D01*
X148359904Y-110715857D02*
X148312285Y-110668238D01*
X148312285Y-110668238D02*
X148217047Y-110620619D01*
X148217047Y-110620619D02*
X148026571Y-110620619D01*
X148026571Y-110620619D02*
X147931333Y-110668238D01*
X147931333Y-110668238D02*
X147883714Y-110715857D01*
X147883714Y-110715857D02*
X147836095Y-110811095D01*
X147836095Y-110811095D02*
X147836095Y-110858714D01*
X147836095Y-110858714D02*
X147883714Y-110953952D01*
X147883714Y-110953952D02*
X147931333Y-111001571D01*
X147931333Y-111001571D02*
X148026571Y-111049190D01*
X148026571Y-111049190D02*
X148217047Y-111049190D01*
X148217047Y-111049190D02*
X148312285Y-111096809D01*
X148312285Y-111096809D02*
X148359904Y-111144428D01*
X148359904Y-111144428D02*
X148407523Y-111239666D01*
X148407523Y-111239666D02*
X148407523Y-111430142D01*
X148407523Y-111430142D02*
X148359904Y-111525380D01*
X148359904Y-111525380D02*
X148312285Y-111573000D01*
X148312285Y-111573000D02*
X148217047Y-111620619D01*
X148217047Y-111620619D02*
X148026571Y-111620619D01*
X148026571Y-111620619D02*
X147931333Y-111573000D01*
X147931333Y-111573000D02*
X147883714Y-111525380D01*
X147883714Y-111525380D02*
X147836095Y-111430142D01*
X147836095Y-111430142D02*
X147836095Y-111239666D01*
X147836095Y-111239666D02*
X147883714Y-111144428D01*
X147883714Y-111144428D02*
X147931333Y-111096809D01*
X147931333Y-111096809D02*
X148026571Y-111049190D01*
%TO.C,R43*%
X112211857Y-110604619D02*
X112545190Y-110128428D01*
X112783285Y-110604619D02*
X112783285Y-109604619D01*
X112783285Y-109604619D02*
X112402333Y-109604619D01*
X112402333Y-109604619D02*
X112307095Y-109652238D01*
X112307095Y-109652238D02*
X112259476Y-109699857D01*
X112259476Y-109699857D02*
X112211857Y-109795095D01*
X112211857Y-109795095D02*
X112211857Y-109937952D01*
X112211857Y-109937952D02*
X112259476Y-110033190D01*
X112259476Y-110033190D02*
X112307095Y-110080809D01*
X112307095Y-110080809D02*
X112402333Y-110128428D01*
X112402333Y-110128428D02*
X112783285Y-110128428D01*
X111354714Y-109937952D02*
X111354714Y-110604619D01*
X111592809Y-109557000D02*
X111830904Y-110271285D01*
X111830904Y-110271285D02*
X111211857Y-110271285D01*
X110926142Y-109604619D02*
X110307095Y-109604619D01*
X110307095Y-109604619D02*
X110640428Y-109985571D01*
X110640428Y-109985571D02*
X110497571Y-109985571D01*
X110497571Y-109985571D02*
X110402333Y-110033190D01*
X110402333Y-110033190D02*
X110354714Y-110080809D01*
X110354714Y-110080809D02*
X110307095Y-110176047D01*
X110307095Y-110176047D02*
X110307095Y-110414142D01*
X110307095Y-110414142D02*
X110354714Y-110509380D01*
X110354714Y-110509380D02*
X110402333Y-110557000D01*
X110402333Y-110557000D02*
X110497571Y-110604619D01*
X110497571Y-110604619D02*
X110783285Y-110604619D01*
X110783285Y-110604619D02*
X110878523Y-110557000D01*
X110878523Y-110557000D02*
X110926142Y-110509380D01*
%TO.C,R41*%
X103840619Y-117213142D02*
X103364428Y-116879809D01*
X103840619Y-116641714D02*
X102840619Y-116641714D01*
X102840619Y-116641714D02*
X102840619Y-117022666D01*
X102840619Y-117022666D02*
X102888238Y-117117904D01*
X102888238Y-117117904D02*
X102935857Y-117165523D01*
X102935857Y-117165523D02*
X103031095Y-117213142D01*
X103031095Y-117213142D02*
X103173952Y-117213142D01*
X103173952Y-117213142D02*
X103269190Y-117165523D01*
X103269190Y-117165523D02*
X103316809Y-117117904D01*
X103316809Y-117117904D02*
X103364428Y-117022666D01*
X103364428Y-117022666D02*
X103364428Y-116641714D01*
X103173952Y-118070285D02*
X103840619Y-118070285D01*
X102793000Y-117832190D02*
X103507285Y-117594095D01*
X103507285Y-117594095D02*
X103507285Y-118213142D01*
X103840619Y-119117904D02*
X103840619Y-118546476D01*
X103840619Y-118832190D02*
X102840619Y-118832190D01*
X102840619Y-118832190D02*
X102983476Y-118736952D01*
X102983476Y-118736952D02*
X103078714Y-118641714D01*
X103078714Y-118641714D02*
X103126333Y-118546476D01*
%TO.C,R42*%
X102824619Y-111371142D02*
X102348428Y-111037809D01*
X102824619Y-110799714D02*
X101824619Y-110799714D01*
X101824619Y-110799714D02*
X101824619Y-111180666D01*
X101824619Y-111180666D02*
X101872238Y-111275904D01*
X101872238Y-111275904D02*
X101919857Y-111323523D01*
X101919857Y-111323523D02*
X102015095Y-111371142D01*
X102015095Y-111371142D02*
X102157952Y-111371142D01*
X102157952Y-111371142D02*
X102253190Y-111323523D01*
X102253190Y-111323523D02*
X102300809Y-111275904D01*
X102300809Y-111275904D02*
X102348428Y-111180666D01*
X102348428Y-111180666D02*
X102348428Y-110799714D01*
X102157952Y-112228285D02*
X102824619Y-112228285D01*
X101777000Y-111990190D02*
X102491285Y-111752095D01*
X102491285Y-111752095D02*
X102491285Y-112371142D01*
X101919857Y-112704476D02*
X101872238Y-112752095D01*
X101872238Y-112752095D02*
X101824619Y-112847333D01*
X101824619Y-112847333D02*
X101824619Y-113085428D01*
X101824619Y-113085428D02*
X101872238Y-113180666D01*
X101872238Y-113180666D02*
X101919857Y-113228285D01*
X101919857Y-113228285D02*
X102015095Y-113275904D01*
X102015095Y-113275904D02*
X102110333Y-113275904D01*
X102110333Y-113275904D02*
X102253190Y-113228285D01*
X102253190Y-113228285D02*
X102824619Y-112656857D01*
X102824619Y-112656857D02*
X102824619Y-113275904D01*
%TO.C,R3*%
X144828619Y-125055333D02*
X144352428Y-124722000D01*
X144828619Y-124483905D02*
X143828619Y-124483905D01*
X143828619Y-124483905D02*
X143828619Y-124864857D01*
X143828619Y-124864857D02*
X143876238Y-124960095D01*
X143876238Y-124960095D02*
X143923857Y-125007714D01*
X143923857Y-125007714D02*
X144019095Y-125055333D01*
X144019095Y-125055333D02*
X144161952Y-125055333D01*
X144161952Y-125055333D02*
X144257190Y-125007714D01*
X144257190Y-125007714D02*
X144304809Y-124960095D01*
X144304809Y-124960095D02*
X144352428Y-124864857D01*
X144352428Y-124864857D02*
X144352428Y-124483905D01*
X143828619Y-125388667D02*
X143828619Y-126007714D01*
X143828619Y-126007714D02*
X144209571Y-125674381D01*
X144209571Y-125674381D02*
X144209571Y-125817238D01*
X144209571Y-125817238D02*
X144257190Y-125912476D01*
X144257190Y-125912476D02*
X144304809Y-125960095D01*
X144304809Y-125960095D02*
X144400047Y-126007714D01*
X144400047Y-126007714D02*
X144638142Y-126007714D01*
X144638142Y-126007714D02*
X144733380Y-125960095D01*
X144733380Y-125960095D02*
X144781000Y-125912476D01*
X144781000Y-125912476D02*
X144828619Y-125817238D01*
X144828619Y-125817238D02*
X144828619Y-125531524D01*
X144828619Y-125531524D02*
X144781000Y-125436286D01*
X144781000Y-125436286D02*
X144733380Y-125388667D01*
%TO.C,R35*%
X138818857Y-125590619D02*
X139152190Y-125114428D01*
X139390285Y-125590619D02*
X139390285Y-124590619D01*
X139390285Y-124590619D02*
X139009333Y-124590619D01*
X139009333Y-124590619D02*
X138914095Y-124638238D01*
X138914095Y-124638238D02*
X138866476Y-124685857D01*
X138866476Y-124685857D02*
X138818857Y-124781095D01*
X138818857Y-124781095D02*
X138818857Y-124923952D01*
X138818857Y-124923952D02*
X138866476Y-125019190D01*
X138866476Y-125019190D02*
X138914095Y-125066809D01*
X138914095Y-125066809D02*
X139009333Y-125114428D01*
X139009333Y-125114428D02*
X139390285Y-125114428D01*
X138485523Y-124590619D02*
X137866476Y-124590619D01*
X137866476Y-124590619D02*
X138199809Y-124971571D01*
X138199809Y-124971571D02*
X138056952Y-124971571D01*
X138056952Y-124971571D02*
X137961714Y-125019190D01*
X137961714Y-125019190D02*
X137914095Y-125066809D01*
X137914095Y-125066809D02*
X137866476Y-125162047D01*
X137866476Y-125162047D02*
X137866476Y-125400142D01*
X137866476Y-125400142D02*
X137914095Y-125495380D01*
X137914095Y-125495380D02*
X137961714Y-125543000D01*
X137961714Y-125543000D02*
X138056952Y-125590619D01*
X138056952Y-125590619D02*
X138342666Y-125590619D01*
X138342666Y-125590619D02*
X138437904Y-125543000D01*
X138437904Y-125543000D02*
X138485523Y-125495380D01*
X136961714Y-124590619D02*
X137437904Y-124590619D01*
X137437904Y-124590619D02*
X137485523Y-125066809D01*
X137485523Y-125066809D02*
X137437904Y-125019190D01*
X137437904Y-125019190D02*
X137342666Y-124971571D01*
X137342666Y-124971571D02*
X137104571Y-124971571D01*
X137104571Y-124971571D02*
X137009333Y-125019190D01*
X137009333Y-125019190D02*
X136961714Y-125066809D01*
X136961714Y-125066809D02*
X136914095Y-125162047D01*
X136914095Y-125162047D02*
X136914095Y-125400142D01*
X136914095Y-125400142D02*
X136961714Y-125495380D01*
X136961714Y-125495380D02*
X137009333Y-125543000D01*
X137009333Y-125543000D02*
X137104571Y-125590619D01*
X137104571Y-125590619D02*
X137342666Y-125590619D01*
X137342666Y-125590619D02*
X137437904Y-125543000D01*
X137437904Y-125543000D02*
X137485523Y-125495380D01*
%TO.C,R11*%
X142183857Y-102156619D02*
X142517190Y-101680428D01*
X142755285Y-102156619D02*
X142755285Y-101156619D01*
X142755285Y-101156619D02*
X142374333Y-101156619D01*
X142374333Y-101156619D02*
X142279095Y-101204238D01*
X142279095Y-101204238D02*
X142231476Y-101251857D01*
X142231476Y-101251857D02*
X142183857Y-101347095D01*
X142183857Y-101347095D02*
X142183857Y-101489952D01*
X142183857Y-101489952D02*
X142231476Y-101585190D01*
X142231476Y-101585190D02*
X142279095Y-101632809D01*
X142279095Y-101632809D02*
X142374333Y-101680428D01*
X142374333Y-101680428D02*
X142755285Y-101680428D01*
X141231476Y-102156619D02*
X141802904Y-102156619D01*
X141517190Y-102156619D02*
X141517190Y-101156619D01*
X141517190Y-101156619D02*
X141612428Y-101299476D01*
X141612428Y-101299476D02*
X141707666Y-101394714D01*
X141707666Y-101394714D02*
X141802904Y-101442333D01*
X140279095Y-102156619D02*
X140850523Y-102156619D01*
X140564809Y-102156619D02*
X140564809Y-101156619D01*
X140564809Y-101156619D02*
X140660047Y-101299476D01*
X140660047Y-101299476D02*
X140755285Y-101394714D01*
X140755285Y-101394714D02*
X140850523Y-101442333D01*
%TO.C,R40*%
X149740857Y-103426619D02*
X150074190Y-102950428D01*
X150312285Y-103426619D02*
X150312285Y-102426619D01*
X150312285Y-102426619D02*
X149931333Y-102426619D01*
X149931333Y-102426619D02*
X149836095Y-102474238D01*
X149836095Y-102474238D02*
X149788476Y-102521857D01*
X149788476Y-102521857D02*
X149740857Y-102617095D01*
X149740857Y-102617095D02*
X149740857Y-102759952D01*
X149740857Y-102759952D02*
X149788476Y-102855190D01*
X149788476Y-102855190D02*
X149836095Y-102902809D01*
X149836095Y-102902809D02*
X149931333Y-102950428D01*
X149931333Y-102950428D02*
X150312285Y-102950428D01*
X148883714Y-102759952D02*
X148883714Y-103426619D01*
X149121809Y-102379000D02*
X149359904Y-103093285D01*
X149359904Y-103093285D02*
X148740857Y-103093285D01*
X148169428Y-102426619D02*
X148074190Y-102426619D01*
X148074190Y-102426619D02*
X147978952Y-102474238D01*
X147978952Y-102474238D02*
X147931333Y-102521857D01*
X147931333Y-102521857D02*
X147883714Y-102617095D01*
X147883714Y-102617095D02*
X147836095Y-102807571D01*
X147836095Y-102807571D02*
X147836095Y-103045666D01*
X147836095Y-103045666D02*
X147883714Y-103236142D01*
X147883714Y-103236142D02*
X147931333Y-103331380D01*
X147931333Y-103331380D02*
X147978952Y-103379000D01*
X147978952Y-103379000D02*
X148074190Y-103426619D01*
X148074190Y-103426619D02*
X148169428Y-103426619D01*
X148169428Y-103426619D02*
X148264666Y-103379000D01*
X148264666Y-103379000D02*
X148312285Y-103331380D01*
X148312285Y-103331380D02*
X148359904Y-103236142D01*
X148359904Y-103236142D02*
X148407523Y-103045666D01*
X148407523Y-103045666D02*
X148407523Y-102807571D01*
X148407523Y-102807571D02*
X148359904Y-102617095D01*
X148359904Y-102617095D02*
X148312285Y-102521857D01*
X148312285Y-102521857D02*
X148264666Y-102474238D01*
X148264666Y-102474238D02*
X148169428Y-102426619D01*
%TO.C,R39*%
X154503857Y-104000619D02*
X154837190Y-103524428D01*
X155075285Y-104000619D02*
X155075285Y-103000619D01*
X155075285Y-103000619D02*
X154694333Y-103000619D01*
X154694333Y-103000619D02*
X154599095Y-103048238D01*
X154599095Y-103048238D02*
X154551476Y-103095857D01*
X154551476Y-103095857D02*
X154503857Y-103191095D01*
X154503857Y-103191095D02*
X154503857Y-103333952D01*
X154503857Y-103333952D02*
X154551476Y-103429190D01*
X154551476Y-103429190D02*
X154599095Y-103476809D01*
X154599095Y-103476809D02*
X154694333Y-103524428D01*
X154694333Y-103524428D02*
X155075285Y-103524428D01*
X154170523Y-103000619D02*
X153551476Y-103000619D01*
X153551476Y-103000619D02*
X153884809Y-103381571D01*
X153884809Y-103381571D02*
X153741952Y-103381571D01*
X153741952Y-103381571D02*
X153646714Y-103429190D01*
X153646714Y-103429190D02*
X153599095Y-103476809D01*
X153599095Y-103476809D02*
X153551476Y-103572047D01*
X153551476Y-103572047D02*
X153551476Y-103810142D01*
X153551476Y-103810142D02*
X153599095Y-103905380D01*
X153599095Y-103905380D02*
X153646714Y-103953000D01*
X153646714Y-103953000D02*
X153741952Y-104000619D01*
X153741952Y-104000619D02*
X154027666Y-104000619D01*
X154027666Y-104000619D02*
X154122904Y-103953000D01*
X154122904Y-103953000D02*
X154170523Y-103905380D01*
X153075285Y-104000619D02*
X152884809Y-104000619D01*
X152884809Y-104000619D02*
X152789571Y-103953000D01*
X152789571Y-103953000D02*
X152741952Y-103905380D01*
X152741952Y-103905380D02*
X152646714Y-103762523D01*
X152646714Y-103762523D02*
X152599095Y-103572047D01*
X152599095Y-103572047D02*
X152599095Y-103191095D01*
X152599095Y-103191095D02*
X152646714Y-103095857D01*
X152646714Y-103095857D02*
X152694333Y-103048238D01*
X152694333Y-103048238D02*
X152789571Y-103000619D01*
X152789571Y-103000619D02*
X152980047Y-103000619D01*
X152980047Y-103000619D02*
X153075285Y-103048238D01*
X153075285Y-103048238D02*
X153122904Y-103095857D01*
X153122904Y-103095857D02*
X153170523Y-103191095D01*
X153170523Y-103191095D02*
X153170523Y-103429190D01*
X153170523Y-103429190D02*
X153122904Y-103524428D01*
X153122904Y-103524428D02*
X153075285Y-103572047D01*
X153075285Y-103572047D02*
X152980047Y-103619666D01*
X152980047Y-103619666D02*
X152789571Y-103619666D01*
X152789571Y-103619666D02*
X152694333Y-103572047D01*
X152694333Y-103572047D02*
X152646714Y-103524428D01*
X152646714Y-103524428D02*
X152599095Y-103429190D01*
%TO.C,R34*%
X141940619Y-119753142D02*
X141464428Y-119419809D01*
X141940619Y-119181714D02*
X140940619Y-119181714D01*
X140940619Y-119181714D02*
X140940619Y-119562666D01*
X140940619Y-119562666D02*
X140988238Y-119657904D01*
X140988238Y-119657904D02*
X141035857Y-119705523D01*
X141035857Y-119705523D02*
X141131095Y-119753142D01*
X141131095Y-119753142D02*
X141273952Y-119753142D01*
X141273952Y-119753142D02*
X141369190Y-119705523D01*
X141369190Y-119705523D02*
X141416809Y-119657904D01*
X141416809Y-119657904D02*
X141464428Y-119562666D01*
X141464428Y-119562666D02*
X141464428Y-119181714D01*
X140940619Y-120086476D02*
X140940619Y-120705523D01*
X140940619Y-120705523D02*
X141321571Y-120372190D01*
X141321571Y-120372190D02*
X141321571Y-120515047D01*
X141321571Y-120515047D02*
X141369190Y-120610285D01*
X141369190Y-120610285D02*
X141416809Y-120657904D01*
X141416809Y-120657904D02*
X141512047Y-120705523D01*
X141512047Y-120705523D02*
X141750142Y-120705523D01*
X141750142Y-120705523D02*
X141845380Y-120657904D01*
X141845380Y-120657904D02*
X141893000Y-120610285D01*
X141893000Y-120610285D02*
X141940619Y-120515047D01*
X141940619Y-120515047D02*
X141940619Y-120229333D01*
X141940619Y-120229333D02*
X141893000Y-120134095D01*
X141893000Y-120134095D02*
X141845380Y-120086476D01*
X141273952Y-121562666D02*
X141940619Y-121562666D01*
X140893000Y-121324571D02*
X141607285Y-121086476D01*
X141607285Y-121086476D02*
X141607285Y-121705523D01*
%TO.C,U5*%
X133349904Y-109894619D02*
X133349904Y-110704142D01*
X133349904Y-110704142D02*
X133302285Y-110799380D01*
X133302285Y-110799380D02*
X133254666Y-110847000D01*
X133254666Y-110847000D02*
X133159428Y-110894619D01*
X133159428Y-110894619D02*
X132968952Y-110894619D01*
X132968952Y-110894619D02*
X132873714Y-110847000D01*
X132873714Y-110847000D02*
X132826095Y-110799380D01*
X132826095Y-110799380D02*
X132778476Y-110704142D01*
X132778476Y-110704142D02*
X132778476Y-109894619D01*
X131826095Y-109894619D02*
X132302285Y-109894619D01*
X132302285Y-109894619D02*
X132349904Y-110370809D01*
X132349904Y-110370809D02*
X132302285Y-110323190D01*
X132302285Y-110323190D02*
X132207047Y-110275571D01*
X132207047Y-110275571D02*
X131968952Y-110275571D01*
X131968952Y-110275571D02*
X131873714Y-110323190D01*
X131873714Y-110323190D02*
X131826095Y-110370809D01*
X131826095Y-110370809D02*
X131778476Y-110466047D01*
X131778476Y-110466047D02*
X131778476Y-110704142D01*
X131778476Y-110704142D02*
X131826095Y-110799380D01*
X131826095Y-110799380D02*
X131873714Y-110847000D01*
X131873714Y-110847000D02*
X131968952Y-110894619D01*
X131968952Y-110894619D02*
X132207047Y-110894619D01*
X132207047Y-110894619D02*
X132302285Y-110847000D01*
X132302285Y-110847000D02*
X132349904Y-110799380D01*
%TO.C,R12*%
X144914857Y-115430619D02*
X145248190Y-114954428D01*
X145486285Y-115430619D02*
X145486285Y-114430619D01*
X145486285Y-114430619D02*
X145105333Y-114430619D01*
X145105333Y-114430619D02*
X145010095Y-114478238D01*
X145010095Y-114478238D02*
X144962476Y-114525857D01*
X144962476Y-114525857D02*
X144914857Y-114621095D01*
X144914857Y-114621095D02*
X144914857Y-114763952D01*
X144914857Y-114763952D02*
X144962476Y-114859190D01*
X144962476Y-114859190D02*
X145010095Y-114906809D01*
X145010095Y-114906809D02*
X145105333Y-114954428D01*
X145105333Y-114954428D02*
X145486285Y-114954428D01*
X143962476Y-115430619D02*
X144533904Y-115430619D01*
X144248190Y-115430619D02*
X144248190Y-114430619D01*
X144248190Y-114430619D02*
X144343428Y-114573476D01*
X144343428Y-114573476D02*
X144438666Y-114668714D01*
X144438666Y-114668714D02*
X144533904Y-114716333D01*
X143581523Y-114525857D02*
X143533904Y-114478238D01*
X143533904Y-114478238D02*
X143438666Y-114430619D01*
X143438666Y-114430619D02*
X143200571Y-114430619D01*
X143200571Y-114430619D02*
X143105333Y-114478238D01*
X143105333Y-114478238D02*
X143057714Y-114525857D01*
X143057714Y-114525857D02*
X143010095Y-114621095D01*
X143010095Y-114621095D02*
X143010095Y-114716333D01*
X143010095Y-114716333D02*
X143057714Y-114859190D01*
X143057714Y-114859190D02*
X143629142Y-115430619D01*
X143629142Y-115430619D02*
X143010095Y-115430619D01*
%TO.C,C27*%
X105015380Y-109085142D02*
X105063000Y-109037523D01*
X105063000Y-109037523D02*
X105110619Y-108894666D01*
X105110619Y-108894666D02*
X105110619Y-108799428D01*
X105110619Y-108799428D02*
X105063000Y-108656571D01*
X105063000Y-108656571D02*
X104967761Y-108561333D01*
X104967761Y-108561333D02*
X104872523Y-108513714D01*
X104872523Y-108513714D02*
X104682047Y-108466095D01*
X104682047Y-108466095D02*
X104539190Y-108466095D01*
X104539190Y-108466095D02*
X104348714Y-108513714D01*
X104348714Y-108513714D02*
X104253476Y-108561333D01*
X104253476Y-108561333D02*
X104158238Y-108656571D01*
X104158238Y-108656571D02*
X104110619Y-108799428D01*
X104110619Y-108799428D02*
X104110619Y-108894666D01*
X104110619Y-108894666D02*
X104158238Y-109037523D01*
X104158238Y-109037523D02*
X104205857Y-109085142D01*
X104205857Y-109466095D02*
X104158238Y-109513714D01*
X104158238Y-109513714D02*
X104110619Y-109608952D01*
X104110619Y-109608952D02*
X104110619Y-109847047D01*
X104110619Y-109847047D02*
X104158238Y-109942285D01*
X104158238Y-109942285D02*
X104205857Y-109989904D01*
X104205857Y-109989904D02*
X104301095Y-110037523D01*
X104301095Y-110037523D02*
X104396333Y-110037523D01*
X104396333Y-110037523D02*
X104539190Y-109989904D01*
X104539190Y-109989904D02*
X105110619Y-109418476D01*
X105110619Y-109418476D02*
X105110619Y-110037523D01*
X104110619Y-110370857D02*
X104110619Y-111037523D01*
X104110619Y-111037523D02*
X105110619Y-110608952D01*
%TO.C,R8*%
X147931666Y-99362619D02*
X148264999Y-98886428D01*
X148503094Y-99362619D02*
X148503094Y-98362619D01*
X148503094Y-98362619D02*
X148122142Y-98362619D01*
X148122142Y-98362619D02*
X148026904Y-98410238D01*
X148026904Y-98410238D02*
X147979285Y-98457857D01*
X147979285Y-98457857D02*
X147931666Y-98553095D01*
X147931666Y-98553095D02*
X147931666Y-98695952D01*
X147931666Y-98695952D02*
X147979285Y-98791190D01*
X147979285Y-98791190D02*
X148026904Y-98838809D01*
X148026904Y-98838809D02*
X148122142Y-98886428D01*
X148122142Y-98886428D02*
X148503094Y-98886428D01*
X147360237Y-98791190D02*
X147455475Y-98743571D01*
X147455475Y-98743571D02*
X147503094Y-98695952D01*
X147503094Y-98695952D02*
X147550713Y-98600714D01*
X147550713Y-98600714D02*
X147550713Y-98553095D01*
X147550713Y-98553095D02*
X147503094Y-98457857D01*
X147503094Y-98457857D02*
X147455475Y-98410238D01*
X147455475Y-98410238D02*
X147360237Y-98362619D01*
X147360237Y-98362619D02*
X147169761Y-98362619D01*
X147169761Y-98362619D02*
X147074523Y-98410238D01*
X147074523Y-98410238D02*
X147026904Y-98457857D01*
X147026904Y-98457857D02*
X146979285Y-98553095D01*
X146979285Y-98553095D02*
X146979285Y-98600714D01*
X146979285Y-98600714D02*
X147026904Y-98695952D01*
X147026904Y-98695952D02*
X147074523Y-98743571D01*
X147074523Y-98743571D02*
X147169761Y-98791190D01*
X147169761Y-98791190D02*
X147360237Y-98791190D01*
X147360237Y-98791190D02*
X147455475Y-98838809D01*
X147455475Y-98838809D02*
X147503094Y-98886428D01*
X147503094Y-98886428D02*
X147550713Y-98981666D01*
X147550713Y-98981666D02*
X147550713Y-99172142D01*
X147550713Y-99172142D02*
X147503094Y-99267380D01*
X147503094Y-99267380D02*
X147455475Y-99315000D01*
X147455475Y-99315000D02*
X147360237Y-99362619D01*
X147360237Y-99362619D02*
X147169761Y-99362619D01*
X147169761Y-99362619D02*
X147074523Y-99315000D01*
X147074523Y-99315000D02*
X147026904Y-99267380D01*
X147026904Y-99267380D02*
X146979285Y-99172142D01*
X146979285Y-99172142D02*
X146979285Y-98981666D01*
X146979285Y-98981666D02*
X147026904Y-98886428D01*
X147026904Y-98886428D02*
X147074523Y-98838809D01*
X147074523Y-98838809D02*
X147169761Y-98791190D01*
%TO.C,C19*%
X137527380Y-118229142D02*
X137575000Y-118181523D01*
X137575000Y-118181523D02*
X137622619Y-118038666D01*
X137622619Y-118038666D02*
X137622619Y-117943428D01*
X137622619Y-117943428D02*
X137575000Y-117800571D01*
X137575000Y-117800571D02*
X137479761Y-117705333D01*
X137479761Y-117705333D02*
X137384523Y-117657714D01*
X137384523Y-117657714D02*
X137194047Y-117610095D01*
X137194047Y-117610095D02*
X137051190Y-117610095D01*
X137051190Y-117610095D02*
X136860714Y-117657714D01*
X136860714Y-117657714D02*
X136765476Y-117705333D01*
X136765476Y-117705333D02*
X136670238Y-117800571D01*
X136670238Y-117800571D02*
X136622619Y-117943428D01*
X136622619Y-117943428D02*
X136622619Y-118038666D01*
X136622619Y-118038666D02*
X136670238Y-118181523D01*
X136670238Y-118181523D02*
X136717857Y-118229142D01*
X137622619Y-119181523D02*
X137622619Y-118610095D01*
X137622619Y-118895809D02*
X136622619Y-118895809D01*
X136622619Y-118895809D02*
X136765476Y-118800571D01*
X136765476Y-118800571D02*
X136860714Y-118705333D01*
X136860714Y-118705333D02*
X136908333Y-118610095D01*
X137622619Y-119657714D02*
X137622619Y-119848190D01*
X137622619Y-119848190D02*
X137575000Y-119943428D01*
X137575000Y-119943428D02*
X137527380Y-119991047D01*
X137527380Y-119991047D02*
X137384523Y-120086285D01*
X137384523Y-120086285D02*
X137194047Y-120133904D01*
X137194047Y-120133904D02*
X136813095Y-120133904D01*
X136813095Y-120133904D02*
X136717857Y-120086285D01*
X136717857Y-120086285D02*
X136670238Y-120038666D01*
X136670238Y-120038666D02*
X136622619Y-119943428D01*
X136622619Y-119943428D02*
X136622619Y-119752952D01*
X136622619Y-119752952D02*
X136670238Y-119657714D01*
X136670238Y-119657714D02*
X136717857Y-119610095D01*
X136717857Y-119610095D02*
X136813095Y-119562476D01*
X136813095Y-119562476D02*
X137051190Y-119562476D01*
X137051190Y-119562476D02*
X137146428Y-119610095D01*
X137146428Y-119610095D02*
X137194047Y-119657714D01*
X137194047Y-119657714D02*
X137241666Y-119752952D01*
X137241666Y-119752952D02*
X137241666Y-119943428D01*
X137241666Y-119943428D02*
X137194047Y-120038666D01*
X137194047Y-120038666D02*
X137146428Y-120086285D01*
X137146428Y-120086285D02*
X137051190Y-120133904D01*
%TO.C,U7*%
X111251904Y-121440619D02*
X111251904Y-122250142D01*
X111251904Y-122250142D02*
X111204285Y-122345380D01*
X111204285Y-122345380D02*
X111156666Y-122393000D01*
X111156666Y-122393000D02*
X111061428Y-122440619D01*
X111061428Y-122440619D02*
X110870952Y-122440619D01*
X110870952Y-122440619D02*
X110775714Y-122393000D01*
X110775714Y-122393000D02*
X110728095Y-122345380D01*
X110728095Y-122345380D02*
X110680476Y-122250142D01*
X110680476Y-122250142D02*
X110680476Y-121440619D01*
X110299523Y-121440619D02*
X109632857Y-121440619D01*
X109632857Y-121440619D02*
X110061428Y-122440619D01*
%TO.C,R36*%
X131198857Y-122730619D02*
X131532190Y-122254428D01*
X131770285Y-122730619D02*
X131770285Y-121730619D01*
X131770285Y-121730619D02*
X131389333Y-121730619D01*
X131389333Y-121730619D02*
X131294095Y-121778238D01*
X131294095Y-121778238D02*
X131246476Y-121825857D01*
X131246476Y-121825857D02*
X131198857Y-121921095D01*
X131198857Y-121921095D02*
X131198857Y-122063952D01*
X131198857Y-122063952D02*
X131246476Y-122159190D01*
X131246476Y-122159190D02*
X131294095Y-122206809D01*
X131294095Y-122206809D02*
X131389333Y-122254428D01*
X131389333Y-122254428D02*
X131770285Y-122254428D01*
X130865523Y-121730619D02*
X130246476Y-121730619D01*
X130246476Y-121730619D02*
X130579809Y-122111571D01*
X130579809Y-122111571D02*
X130436952Y-122111571D01*
X130436952Y-122111571D02*
X130341714Y-122159190D01*
X130341714Y-122159190D02*
X130294095Y-122206809D01*
X130294095Y-122206809D02*
X130246476Y-122302047D01*
X130246476Y-122302047D02*
X130246476Y-122540142D01*
X130246476Y-122540142D02*
X130294095Y-122635380D01*
X130294095Y-122635380D02*
X130341714Y-122683000D01*
X130341714Y-122683000D02*
X130436952Y-122730619D01*
X130436952Y-122730619D02*
X130722666Y-122730619D01*
X130722666Y-122730619D02*
X130817904Y-122683000D01*
X130817904Y-122683000D02*
X130865523Y-122635380D01*
X129389333Y-121730619D02*
X129579809Y-121730619D01*
X129579809Y-121730619D02*
X129675047Y-121778238D01*
X129675047Y-121778238D02*
X129722666Y-121825857D01*
X129722666Y-121825857D02*
X129817904Y-121968714D01*
X129817904Y-121968714D02*
X129865523Y-122159190D01*
X129865523Y-122159190D02*
X129865523Y-122540142D01*
X129865523Y-122540142D02*
X129817904Y-122635380D01*
X129817904Y-122635380D02*
X129770285Y-122683000D01*
X129770285Y-122683000D02*
X129675047Y-122730619D01*
X129675047Y-122730619D02*
X129484571Y-122730619D01*
X129484571Y-122730619D02*
X129389333Y-122683000D01*
X129389333Y-122683000D02*
X129341714Y-122635380D01*
X129341714Y-122635380D02*
X129294095Y-122540142D01*
X129294095Y-122540142D02*
X129294095Y-122302047D01*
X129294095Y-122302047D02*
X129341714Y-122206809D01*
X129341714Y-122206809D02*
X129389333Y-122159190D01*
X129389333Y-122159190D02*
X129484571Y-122111571D01*
X129484571Y-122111571D02*
X129675047Y-122111571D01*
X129675047Y-122111571D02*
X129770285Y-122159190D01*
X129770285Y-122159190D02*
X129817904Y-122206809D01*
X129817904Y-122206809D02*
X129865523Y-122302047D01*
%TO.C,C25*%
X112033380Y-123309142D02*
X112081000Y-123261523D01*
X112081000Y-123261523D02*
X112128619Y-123118666D01*
X112128619Y-123118666D02*
X112128619Y-123023428D01*
X112128619Y-123023428D02*
X112081000Y-122880571D01*
X112081000Y-122880571D02*
X111985761Y-122785333D01*
X111985761Y-122785333D02*
X111890523Y-122737714D01*
X111890523Y-122737714D02*
X111700047Y-122690095D01*
X111700047Y-122690095D02*
X111557190Y-122690095D01*
X111557190Y-122690095D02*
X111366714Y-122737714D01*
X111366714Y-122737714D02*
X111271476Y-122785333D01*
X111271476Y-122785333D02*
X111176238Y-122880571D01*
X111176238Y-122880571D02*
X111128619Y-123023428D01*
X111128619Y-123023428D02*
X111128619Y-123118666D01*
X111128619Y-123118666D02*
X111176238Y-123261523D01*
X111176238Y-123261523D02*
X111223857Y-123309142D01*
X111223857Y-123690095D02*
X111176238Y-123737714D01*
X111176238Y-123737714D02*
X111128619Y-123832952D01*
X111128619Y-123832952D02*
X111128619Y-124071047D01*
X111128619Y-124071047D02*
X111176238Y-124166285D01*
X111176238Y-124166285D02*
X111223857Y-124213904D01*
X111223857Y-124213904D02*
X111319095Y-124261523D01*
X111319095Y-124261523D02*
X111414333Y-124261523D01*
X111414333Y-124261523D02*
X111557190Y-124213904D01*
X111557190Y-124213904D02*
X112128619Y-123642476D01*
X112128619Y-123642476D02*
X112128619Y-124261523D01*
X111128619Y-125166285D02*
X111128619Y-124690095D01*
X111128619Y-124690095D02*
X111604809Y-124642476D01*
X111604809Y-124642476D02*
X111557190Y-124690095D01*
X111557190Y-124690095D02*
X111509571Y-124785333D01*
X111509571Y-124785333D02*
X111509571Y-125023428D01*
X111509571Y-125023428D02*
X111557190Y-125118666D01*
X111557190Y-125118666D02*
X111604809Y-125166285D01*
X111604809Y-125166285D02*
X111700047Y-125213904D01*
X111700047Y-125213904D02*
X111938142Y-125213904D01*
X111938142Y-125213904D02*
X112033380Y-125166285D01*
X112033380Y-125166285D02*
X112081000Y-125118666D01*
X112081000Y-125118666D02*
X112128619Y-125023428D01*
X112128619Y-125023428D02*
X112128619Y-124785333D01*
X112128619Y-124785333D02*
X112081000Y-124690095D01*
X112081000Y-124690095D02*
X112033380Y-124642476D01*
%TO.C,U6*%
X159471904Y-114455619D02*
X159471904Y-115265142D01*
X159471904Y-115265142D02*
X159424285Y-115360380D01*
X159424285Y-115360380D02*
X159376666Y-115408000D01*
X159376666Y-115408000D02*
X159281428Y-115455619D01*
X159281428Y-115455619D02*
X159090952Y-115455619D01*
X159090952Y-115455619D02*
X158995714Y-115408000D01*
X158995714Y-115408000D02*
X158948095Y-115360380D01*
X158948095Y-115360380D02*
X158900476Y-115265142D01*
X158900476Y-115265142D02*
X158900476Y-114455619D01*
X157995714Y-114455619D02*
X158186190Y-114455619D01*
X158186190Y-114455619D02*
X158281428Y-114503238D01*
X158281428Y-114503238D02*
X158329047Y-114550857D01*
X158329047Y-114550857D02*
X158424285Y-114693714D01*
X158424285Y-114693714D02*
X158471904Y-114884190D01*
X158471904Y-114884190D02*
X158471904Y-115265142D01*
X158471904Y-115265142D02*
X158424285Y-115360380D01*
X158424285Y-115360380D02*
X158376666Y-115408000D01*
X158376666Y-115408000D02*
X158281428Y-115455619D01*
X158281428Y-115455619D02*
X158090952Y-115455619D01*
X158090952Y-115455619D02*
X157995714Y-115408000D01*
X157995714Y-115408000D02*
X157948095Y-115360380D01*
X157948095Y-115360380D02*
X157900476Y-115265142D01*
X157900476Y-115265142D02*
X157900476Y-115027047D01*
X157900476Y-115027047D02*
X157948095Y-114931809D01*
X157948095Y-114931809D02*
X157995714Y-114884190D01*
X157995714Y-114884190D02*
X158090952Y-114836571D01*
X158090952Y-114836571D02*
X158281428Y-114836571D01*
X158281428Y-114836571D02*
X158376666Y-114884190D01*
X158376666Y-114884190D02*
X158424285Y-114931809D01*
X158424285Y-114931809D02*
X158471904Y-115027047D01*
%TO.C,C23*%
X150274857Y-107047380D02*
X150322476Y-107095000D01*
X150322476Y-107095000D02*
X150465333Y-107142619D01*
X150465333Y-107142619D02*
X150560571Y-107142619D01*
X150560571Y-107142619D02*
X150703428Y-107095000D01*
X150703428Y-107095000D02*
X150798666Y-106999761D01*
X150798666Y-106999761D02*
X150846285Y-106904523D01*
X150846285Y-106904523D02*
X150893904Y-106714047D01*
X150893904Y-106714047D02*
X150893904Y-106571190D01*
X150893904Y-106571190D02*
X150846285Y-106380714D01*
X150846285Y-106380714D02*
X150798666Y-106285476D01*
X150798666Y-106285476D02*
X150703428Y-106190238D01*
X150703428Y-106190238D02*
X150560571Y-106142619D01*
X150560571Y-106142619D02*
X150465333Y-106142619D01*
X150465333Y-106142619D02*
X150322476Y-106190238D01*
X150322476Y-106190238D02*
X150274857Y-106237857D01*
X149893904Y-106237857D02*
X149846285Y-106190238D01*
X149846285Y-106190238D02*
X149751047Y-106142619D01*
X149751047Y-106142619D02*
X149512952Y-106142619D01*
X149512952Y-106142619D02*
X149417714Y-106190238D01*
X149417714Y-106190238D02*
X149370095Y-106237857D01*
X149370095Y-106237857D02*
X149322476Y-106333095D01*
X149322476Y-106333095D02*
X149322476Y-106428333D01*
X149322476Y-106428333D02*
X149370095Y-106571190D01*
X149370095Y-106571190D02*
X149941523Y-107142619D01*
X149941523Y-107142619D02*
X149322476Y-107142619D01*
X148989142Y-106142619D02*
X148370095Y-106142619D01*
X148370095Y-106142619D02*
X148703428Y-106523571D01*
X148703428Y-106523571D02*
X148560571Y-106523571D01*
X148560571Y-106523571D02*
X148465333Y-106571190D01*
X148465333Y-106571190D02*
X148417714Y-106618809D01*
X148417714Y-106618809D02*
X148370095Y-106714047D01*
X148370095Y-106714047D02*
X148370095Y-106952142D01*
X148370095Y-106952142D02*
X148417714Y-107047380D01*
X148417714Y-107047380D02*
X148465333Y-107095000D01*
X148465333Y-107095000D02*
X148560571Y-107142619D01*
X148560571Y-107142619D02*
X148846285Y-107142619D01*
X148846285Y-107142619D02*
X148941523Y-107095000D01*
X148941523Y-107095000D02*
X148989142Y-107047380D01*
%TO.C,C18*%
X139167380Y-110357142D02*
X139215000Y-110309523D01*
X139215000Y-110309523D02*
X139262619Y-110166666D01*
X139262619Y-110166666D02*
X139262619Y-110071428D01*
X139262619Y-110071428D02*
X139215000Y-109928571D01*
X139215000Y-109928571D02*
X139119761Y-109833333D01*
X139119761Y-109833333D02*
X139024523Y-109785714D01*
X139024523Y-109785714D02*
X138834047Y-109738095D01*
X138834047Y-109738095D02*
X138691190Y-109738095D01*
X138691190Y-109738095D02*
X138500714Y-109785714D01*
X138500714Y-109785714D02*
X138405476Y-109833333D01*
X138405476Y-109833333D02*
X138310238Y-109928571D01*
X138310238Y-109928571D02*
X138262619Y-110071428D01*
X138262619Y-110071428D02*
X138262619Y-110166666D01*
X138262619Y-110166666D02*
X138310238Y-110309523D01*
X138310238Y-110309523D02*
X138357857Y-110357142D01*
X139262619Y-111309523D02*
X139262619Y-110738095D01*
X139262619Y-111023809D02*
X138262619Y-111023809D01*
X138262619Y-111023809D02*
X138405476Y-110928571D01*
X138405476Y-110928571D02*
X138500714Y-110833333D01*
X138500714Y-110833333D02*
X138548333Y-110738095D01*
X138691190Y-111880952D02*
X138643571Y-111785714D01*
X138643571Y-111785714D02*
X138595952Y-111738095D01*
X138595952Y-111738095D02*
X138500714Y-111690476D01*
X138500714Y-111690476D02*
X138453095Y-111690476D01*
X138453095Y-111690476D02*
X138357857Y-111738095D01*
X138357857Y-111738095D02*
X138310238Y-111785714D01*
X138310238Y-111785714D02*
X138262619Y-111880952D01*
X138262619Y-111880952D02*
X138262619Y-112071428D01*
X138262619Y-112071428D02*
X138310238Y-112166666D01*
X138310238Y-112166666D02*
X138357857Y-112214285D01*
X138357857Y-112214285D02*
X138453095Y-112261904D01*
X138453095Y-112261904D02*
X138500714Y-112261904D01*
X138500714Y-112261904D02*
X138595952Y-112214285D01*
X138595952Y-112214285D02*
X138643571Y-112166666D01*
X138643571Y-112166666D02*
X138691190Y-112071428D01*
X138691190Y-112071428D02*
X138691190Y-111880952D01*
X138691190Y-111880952D02*
X138738809Y-111785714D01*
X138738809Y-111785714D02*
X138786428Y-111738095D01*
X138786428Y-111738095D02*
X138881666Y-111690476D01*
X138881666Y-111690476D02*
X139072142Y-111690476D01*
X139072142Y-111690476D02*
X139167380Y-111738095D01*
X139167380Y-111738095D02*
X139215000Y-111785714D01*
X139215000Y-111785714D02*
X139262619Y-111880952D01*
X139262619Y-111880952D02*
X139262619Y-112071428D01*
X139262619Y-112071428D02*
X139215000Y-112166666D01*
X139215000Y-112166666D02*
X139167380Y-112214285D01*
X139167380Y-112214285D02*
X139072142Y-112261904D01*
X139072142Y-112261904D02*
X138881666Y-112261904D01*
X138881666Y-112261904D02*
X138786428Y-112214285D01*
X138786428Y-112214285D02*
X138738809Y-112166666D01*
X138738809Y-112166666D02*
X138691190Y-112071428D01*
%TO.C,C28*%
X108846857Y-110509380D02*
X108894476Y-110557000D01*
X108894476Y-110557000D02*
X109037333Y-110604619D01*
X109037333Y-110604619D02*
X109132571Y-110604619D01*
X109132571Y-110604619D02*
X109275428Y-110557000D01*
X109275428Y-110557000D02*
X109370666Y-110461761D01*
X109370666Y-110461761D02*
X109418285Y-110366523D01*
X109418285Y-110366523D02*
X109465904Y-110176047D01*
X109465904Y-110176047D02*
X109465904Y-110033190D01*
X109465904Y-110033190D02*
X109418285Y-109842714D01*
X109418285Y-109842714D02*
X109370666Y-109747476D01*
X109370666Y-109747476D02*
X109275428Y-109652238D01*
X109275428Y-109652238D02*
X109132571Y-109604619D01*
X109132571Y-109604619D02*
X109037333Y-109604619D01*
X109037333Y-109604619D02*
X108894476Y-109652238D01*
X108894476Y-109652238D02*
X108846857Y-109699857D01*
X108465904Y-109699857D02*
X108418285Y-109652238D01*
X108418285Y-109652238D02*
X108323047Y-109604619D01*
X108323047Y-109604619D02*
X108084952Y-109604619D01*
X108084952Y-109604619D02*
X107989714Y-109652238D01*
X107989714Y-109652238D02*
X107942095Y-109699857D01*
X107942095Y-109699857D02*
X107894476Y-109795095D01*
X107894476Y-109795095D02*
X107894476Y-109890333D01*
X107894476Y-109890333D02*
X107942095Y-110033190D01*
X107942095Y-110033190D02*
X108513523Y-110604619D01*
X108513523Y-110604619D02*
X107894476Y-110604619D01*
X107323047Y-110033190D02*
X107418285Y-109985571D01*
X107418285Y-109985571D02*
X107465904Y-109937952D01*
X107465904Y-109937952D02*
X107513523Y-109842714D01*
X107513523Y-109842714D02*
X107513523Y-109795095D01*
X107513523Y-109795095D02*
X107465904Y-109699857D01*
X107465904Y-109699857D02*
X107418285Y-109652238D01*
X107418285Y-109652238D02*
X107323047Y-109604619D01*
X107323047Y-109604619D02*
X107132571Y-109604619D01*
X107132571Y-109604619D02*
X107037333Y-109652238D01*
X107037333Y-109652238D02*
X106989714Y-109699857D01*
X106989714Y-109699857D02*
X106942095Y-109795095D01*
X106942095Y-109795095D02*
X106942095Y-109842714D01*
X106942095Y-109842714D02*
X106989714Y-109937952D01*
X106989714Y-109937952D02*
X107037333Y-109985571D01*
X107037333Y-109985571D02*
X107132571Y-110033190D01*
X107132571Y-110033190D02*
X107323047Y-110033190D01*
X107323047Y-110033190D02*
X107418285Y-110080809D01*
X107418285Y-110080809D02*
X107465904Y-110128428D01*
X107465904Y-110128428D02*
X107513523Y-110223666D01*
X107513523Y-110223666D02*
X107513523Y-110414142D01*
X107513523Y-110414142D02*
X107465904Y-110509380D01*
X107465904Y-110509380D02*
X107418285Y-110557000D01*
X107418285Y-110557000D02*
X107323047Y-110604619D01*
X107323047Y-110604619D02*
X107132571Y-110604619D01*
X107132571Y-110604619D02*
X107037333Y-110557000D01*
X107037333Y-110557000D02*
X106989714Y-110509380D01*
X106989714Y-110509380D02*
X106942095Y-110414142D01*
X106942095Y-110414142D02*
X106942095Y-110223666D01*
X106942095Y-110223666D02*
X106989714Y-110128428D01*
X106989714Y-110128428D02*
X107037333Y-110080809D01*
X107037333Y-110080809D02*
X107132571Y-110033190D01*
%TO.C,C22*%
X150502857Y-115589380D02*
X150550476Y-115637000D01*
X150550476Y-115637000D02*
X150693333Y-115684619D01*
X150693333Y-115684619D02*
X150788571Y-115684619D01*
X150788571Y-115684619D02*
X150931428Y-115637000D01*
X150931428Y-115637000D02*
X151026666Y-115541761D01*
X151026666Y-115541761D02*
X151074285Y-115446523D01*
X151074285Y-115446523D02*
X151121904Y-115256047D01*
X151121904Y-115256047D02*
X151121904Y-115113190D01*
X151121904Y-115113190D02*
X151074285Y-114922714D01*
X151074285Y-114922714D02*
X151026666Y-114827476D01*
X151026666Y-114827476D02*
X150931428Y-114732238D01*
X150931428Y-114732238D02*
X150788571Y-114684619D01*
X150788571Y-114684619D02*
X150693333Y-114684619D01*
X150693333Y-114684619D02*
X150550476Y-114732238D01*
X150550476Y-114732238D02*
X150502857Y-114779857D01*
X150121904Y-114779857D02*
X150074285Y-114732238D01*
X150074285Y-114732238D02*
X149979047Y-114684619D01*
X149979047Y-114684619D02*
X149740952Y-114684619D01*
X149740952Y-114684619D02*
X149645714Y-114732238D01*
X149645714Y-114732238D02*
X149598095Y-114779857D01*
X149598095Y-114779857D02*
X149550476Y-114875095D01*
X149550476Y-114875095D02*
X149550476Y-114970333D01*
X149550476Y-114970333D02*
X149598095Y-115113190D01*
X149598095Y-115113190D02*
X150169523Y-115684619D01*
X150169523Y-115684619D02*
X149550476Y-115684619D01*
X149169523Y-114779857D02*
X149121904Y-114732238D01*
X149121904Y-114732238D02*
X149026666Y-114684619D01*
X149026666Y-114684619D02*
X148788571Y-114684619D01*
X148788571Y-114684619D02*
X148693333Y-114732238D01*
X148693333Y-114732238D02*
X148645714Y-114779857D01*
X148645714Y-114779857D02*
X148598095Y-114875095D01*
X148598095Y-114875095D02*
X148598095Y-114970333D01*
X148598095Y-114970333D02*
X148645714Y-115113190D01*
X148645714Y-115113190D02*
X149217142Y-115684619D01*
X149217142Y-115684619D02*
X148598095Y-115684619D01*
%TO.C,C26*%
X105036857Y-121939380D02*
X105084476Y-121987000D01*
X105084476Y-121987000D02*
X105227333Y-122034619D01*
X105227333Y-122034619D02*
X105322571Y-122034619D01*
X105322571Y-122034619D02*
X105465428Y-121987000D01*
X105465428Y-121987000D02*
X105560666Y-121891761D01*
X105560666Y-121891761D02*
X105608285Y-121796523D01*
X105608285Y-121796523D02*
X105655904Y-121606047D01*
X105655904Y-121606047D02*
X105655904Y-121463190D01*
X105655904Y-121463190D02*
X105608285Y-121272714D01*
X105608285Y-121272714D02*
X105560666Y-121177476D01*
X105560666Y-121177476D02*
X105465428Y-121082238D01*
X105465428Y-121082238D02*
X105322571Y-121034619D01*
X105322571Y-121034619D02*
X105227333Y-121034619D01*
X105227333Y-121034619D02*
X105084476Y-121082238D01*
X105084476Y-121082238D02*
X105036857Y-121129857D01*
X104655904Y-121129857D02*
X104608285Y-121082238D01*
X104608285Y-121082238D02*
X104513047Y-121034619D01*
X104513047Y-121034619D02*
X104274952Y-121034619D01*
X104274952Y-121034619D02*
X104179714Y-121082238D01*
X104179714Y-121082238D02*
X104132095Y-121129857D01*
X104132095Y-121129857D02*
X104084476Y-121225095D01*
X104084476Y-121225095D02*
X104084476Y-121320333D01*
X104084476Y-121320333D02*
X104132095Y-121463190D01*
X104132095Y-121463190D02*
X104703523Y-122034619D01*
X104703523Y-122034619D02*
X104084476Y-122034619D01*
X103227333Y-121034619D02*
X103417809Y-121034619D01*
X103417809Y-121034619D02*
X103513047Y-121082238D01*
X103513047Y-121082238D02*
X103560666Y-121129857D01*
X103560666Y-121129857D02*
X103655904Y-121272714D01*
X103655904Y-121272714D02*
X103703523Y-121463190D01*
X103703523Y-121463190D02*
X103703523Y-121844142D01*
X103703523Y-121844142D02*
X103655904Y-121939380D01*
X103655904Y-121939380D02*
X103608285Y-121987000D01*
X103608285Y-121987000D02*
X103513047Y-122034619D01*
X103513047Y-122034619D02*
X103322571Y-122034619D01*
X103322571Y-122034619D02*
X103227333Y-121987000D01*
X103227333Y-121987000D02*
X103179714Y-121939380D01*
X103179714Y-121939380D02*
X103132095Y-121844142D01*
X103132095Y-121844142D02*
X103132095Y-121606047D01*
X103132095Y-121606047D02*
X103179714Y-121510809D01*
X103179714Y-121510809D02*
X103227333Y-121463190D01*
X103227333Y-121463190D02*
X103322571Y-121415571D01*
X103322571Y-121415571D02*
X103513047Y-121415571D01*
X103513047Y-121415571D02*
X103608285Y-121463190D01*
X103608285Y-121463190D02*
X103655904Y-121510809D01*
X103655904Y-121510809D02*
X103703523Y-121606047D01*
%TO.C,Q5*%
X137430738Y-111989857D02*
X137525976Y-111942238D01*
X137525976Y-111942238D02*
X137621214Y-111847000D01*
X137621214Y-111847000D02*
X137764071Y-111704142D01*
X137764071Y-111704142D02*
X137859309Y-111656523D01*
X137859309Y-111656523D02*
X137954547Y-111656523D01*
X137906928Y-111894619D02*
X138002166Y-111847000D01*
X138002166Y-111847000D02*
X138097404Y-111751761D01*
X138097404Y-111751761D02*
X138145023Y-111561285D01*
X138145023Y-111561285D02*
X138145023Y-111227952D01*
X138145023Y-111227952D02*
X138097404Y-111037476D01*
X138097404Y-111037476D02*
X138002166Y-110942238D01*
X138002166Y-110942238D02*
X137906928Y-110894619D01*
X137906928Y-110894619D02*
X137716452Y-110894619D01*
X137716452Y-110894619D02*
X137621214Y-110942238D01*
X137621214Y-110942238D02*
X137525976Y-111037476D01*
X137525976Y-111037476D02*
X137478357Y-111227952D01*
X137478357Y-111227952D02*
X137478357Y-111561285D01*
X137478357Y-111561285D02*
X137525976Y-111751761D01*
X137525976Y-111751761D02*
X137621214Y-111847000D01*
X137621214Y-111847000D02*
X137716452Y-111894619D01*
X137716452Y-111894619D02*
X137906928Y-111894619D01*
X136573595Y-110894619D02*
X137049785Y-110894619D01*
X137049785Y-110894619D02*
X137097404Y-111370809D01*
X137097404Y-111370809D02*
X137049785Y-111323190D01*
X137049785Y-111323190D02*
X136954547Y-111275571D01*
X136954547Y-111275571D02*
X136716452Y-111275571D01*
X136716452Y-111275571D02*
X136621214Y-111323190D01*
X136621214Y-111323190D02*
X136573595Y-111370809D01*
X136573595Y-111370809D02*
X136525976Y-111466047D01*
X136525976Y-111466047D02*
X136525976Y-111704142D01*
X136525976Y-111704142D02*
X136573595Y-111799380D01*
X136573595Y-111799380D02*
X136621214Y-111847000D01*
X136621214Y-111847000D02*
X136716452Y-111894619D01*
X136716452Y-111894619D02*
X136954547Y-111894619D01*
X136954547Y-111894619D02*
X137049785Y-111847000D01*
X137049785Y-111847000D02*
X137097404Y-111799380D01*
D11*
%TO.C,R15*%
X117587500Y-101583258D02*
X117587500Y-101108742D01*
X118632500Y-101583258D02*
X118632500Y-101108742D01*
%TO.C,R44*%
X107775742Y-105395500D02*
X108250258Y-105395500D01*
X107775742Y-106440500D02*
X108250258Y-106440500D01*
%TO.C,R9*%
X142222500Y-124162742D02*
X142222500Y-124637258D01*
X141177500Y-124162742D02*
X141177500Y-124637258D01*
%TO.C,R37*%
X153430500Y-110252742D02*
X153430500Y-110727258D01*
X152385500Y-110252742D02*
X152385500Y-110727258D01*
%TO.C,C24*%
X152398000Y-105550580D02*
X152398000Y-105269420D01*
X153418000Y-105550580D02*
X153418000Y-105269420D01*
%TO.C,Q6*%
X153494500Y-117826000D02*
X154144500Y-117826000D01*
X153494500Y-117826000D02*
X152844500Y-117826000D01*
X153494500Y-114706000D02*
X155169500Y-114706000D01*
X153494500Y-114706000D02*
X152844500Y-114706000D01*
%TO.C,C20*%
X134479420Y-123188000D02*
X134760580Y-123188000D01*
X134479420Y-124208000D02*
X134760580Y-124208000D01*
%TO.C,Q7*%
X106093500Y-125512000D02*
X106743500Y-125512000D01*
X106093500Y-125512000D02*
X105443500Y-125512000D01*
X106093500Y-122392000D02*
X107768500Y-122392000D01*
X106093500Y-122392000D02*
X105443500Y-122392000D01*
%TO.C,C17*%
X156970000Y-116726580D02*
X156970000Y-116445420D01*
X157990000Y-116726580D02*
X157990000Y-116445420D01*
%TO.C,R33*%
X137907500Y-115299258D02*
X137907500Y-114824742D01*
X138952500Y-115299258D02*
X138952500Y-114824742D01*
%TO.C,R38*%
X148860742Y-109205500D02*
X149335258Y-109205500D01*
X148860742Y-110250500D02*
X149335258Y-110250500D01*
%TO.C,R43*%
X111331742Y-108189500D02*
X111806258Y-108189500D01*
X111331742Y-109234500D02*
X111806258Y-109234500D01*
%TO.C,R41*%
X105170500Y-116094742D02*
X105170500Y-116569258D01*
X104125500Y-116094742D02*
X104125500Y-116569258D01*
%TO.C,R42*%
X103138500Y-114824742D02*
X103138500Y-115299258D01*
X102093500Y-114824742D02*
X102093500Y-115299258D01*
%TO.C,R3*%
X146318500Y-124984742D02*
X146318500Y-125459258D01*
X145273500Y-124984742D02*
X145273500Y-125459258D01*
%TO.C,R35*%
X137938742Y-123175500D02*
X138413258Y-123175500D01*
X137938742Y-124220500D02*
X138413258Y-124220500D01*
%TO.C,R11*%
X141778258Y-103646500D02*
X141303742Y-103646500D01*
X141778258Y-102601500D02*
X141303742Y-102601500D01*
%TO.C,R40*%
X149335258Y-104916500D02*
X148860742Y-104916500D01*
X149335258Y-103871500D02*
X148860742Y-103871500D01*
%TO.C,R39*%
X153623742Y-101585500D02*
X154098258Y-101585500D01*
X153623742Y-102630500D02*
X154098258Y-102630500D01*
%TO.C,R34*%
X140955500Y-117585258D02*
X140955500Y-117110742D01*
X142000500Y-117585258D02*
X142000500Y-117110742D01*
%TO.C,U5*%
X132588000Y-121392000D02*
X134538000Y-121392000D01*
X132588000Y-121392000D02*
X130638000Y-121392000D01*
X132588000Y-111272000D02*
X136088000Y-111272000D01*
X132588000Y-111272000D02*
X130638000Y-111272000D01*
%TO.C,R12*%
X144034742Y-113015500D02*
X144509258Y-113015500D01*
X144034742Y-114060500D02*
X144509258Y-114060500D01*
%TO.C,C27*%
X105158000Y-112635420D02*
X105158000Y-112916580D01*
X104138000Y-112635420D02*
X104138000Y-112916580D01*
%TO.C,R8*%
X148002258Y-100852500D02*
X147527742Y-100852500D01*
X148002258Y-99807500D02*
X147527742Y-99807500D01*
%TO.C,C19*%
X137920000Y-118999580D02*
X137920000Y-118718420D01*
X138940000Y-118999580D02*
X138940000Y-118718420D01*
%TO.C,U7*%
X110490000Y-111018000D02*
X108540000Y-111018000D01*
X110490000Y-111018000D02*
X112440000Y-111018000D01*
X110490000Y-121138000D02*
X106990000Y-121138000D01*
X110490000Y-121138000D02*
X112440000Y-121138000D01*
%TO.C,R36*%
X130793258Y-124220500D02*
X130318742Y-124220500D01*
X130793258Y-123175500D02*
X130318742Y-123175500D01*
%TO.C,C25*%
X109726000Y-124092580D02*
X109726000Y-123811420D01*
X110746000Y-124092580D02*
X110746000Y-123811420D01*
%TO.C,U6*%
X158710000Y-104033000D02*
X156760000Y-104033000D01*
X158710000Y-104033000D02*
X160660000Y-104033000D01*
X158710000Y-114153000D02*
X155210000Y-114153000D01*
X158710000Y-114153000D02*
X160660000Y-114153000D01*
%TO.C,C23*%
X153034420Y-107186000D02*
X153315580Y-107186000D01*
X153034420Y-108206000D02*
X153315580Y-108206000D01*
%TO.C,C18*%
X140718000Y-111886420D02*
X140718000Y-112167580D01*
X139698000Y-111886420D02*
X139698000Y-112167580D01*
%TO.C,C28*%
X108063420Y-108202000D02*
X108344580Y-108202000D01*
X108063420Y-109222000D02*
X108344580Y-109222000D01*
%TO.C,C22*%
X149719420Y-113282000D02*
X150000580Y-113282000D01*
X149719420Y-114302000D02*
X150000580Y-114302000D01*
%TO.C,C26*%
X104253420Y-119632000D02*
X104534580Y-119632000D01*
X104253420Y-120652000D02*
X104534580Y-120652000D01*
%TO.C,Q5*%
X137335500Y-107472000D02*
X136685500Y-107472000D01*
X137335500Y-107472000D02*
X137985500Y-107472000D01*
X137335500Y-110592000D02*
X135660500Y-110592000D01*
X137335500Y-110592000D02*
X137985500Y-110592000D01*
%TD*%
M02*
