%TF.GenerationSoftware,KiCad,Pcbnew,7.0.1-0*%
%TF.CreationDate,2023-09-14T23:18:32-07:00*%
%TF.ProjectId,HX-board,48582d62-6f61-4726-942e-6b696361645f,rev?*%
%TF.SameCoordinates,Original*%
%TF.FileFunction,Soldermask,Bot*%
%TF.FilePolarity,Negative*%
%FSLAX46Y46*%
G04 Gerber Fmt 4.6, Leading zero omitted, Abs format (unit mm)*
G04 Created by KiCad (PCBNEW 7.0.1-0) date 2023-09-14 23:18:32*
%MOMM*%
%LPD*%
G01*
G04 APERTURE LIST*
G04 Aperture macros list*
%AMRoundRect*
0 Rectangle with rounded corners*
0 $1 Rounding radius*
0 $2 $3 $4 $5 $6 $7 $8 $9 X,Y pos of 4 corners*
0 Add a 4 corners polygon primitive as box body*
4,1,4,$2,$3,$4,$5,$6,$7,$8,$9,$2,$3,0*
0 Add four circle primitives for the rounded corners*
1,1,$1+$1,$2,$3*
1,1,$1+$1,$4,$5*
1,1,$1+$1,$6,$7*
1,1,$1+$1,$8,$9*
0 Add four rect primitives between the rounded corners*
20,1,$1+$1,$2,$3,$4,$5,0*
20,1,$1+$1,$4,$5,$6,$7,0*
20,1,$1+$1,$6,$7,$8,$9,0*
20,1,$1+$1,$8,$9,$2,$3,0*%
G04 Aperture macros list end*
%ADD10R,1.000000X1.000000*%
%ADD11O,1.000000X1.000000*%
%ADD12C,4.000000*%
%ADD13R,1.600000X1.600000*%
%ADD14C,1.600000*%
%ADD15R,0.700000X3.200000*%
%ADD16R,0.700000X4.300000*%
%ADD17RoundRect,0.200000X0.275000X-0.200000X0.275000X0.200000X-0.275000X0.200000X-0.275000X-0.200000X0*%
%ADD18RoundRect,0.200000X-0.200000X-0.275000X0.200000X-0.275000X0.200000X0.275000X-0.200000X0.275000X0*%
%ADD19RoundRect,0.200000X-0.275000X0.200000X-0.275000X-0.200000X0.275000X-0.200000X0.275000X0.200000X0*%
%ADD20RoundRect,0.225000X0.250000X-0.225000X0.250000X0.225000X-0.250000X0.225000X-0.250000X-0.225000X0*%
%ADD21RoundRect,0.150000X0.587500X0.150000X-0.587500X0.150000X-0.587500X-0.150000X0.587500X-0.150000X0*%
%ADD22RoundRect,0.225000X-0.225000X-0.250000X0.225000X-0.250000X0.225000X0.250000X-0.225000X0.250000X0*%
%ADD23RoundRect,0.200000X0.200000X0.275000X-0.200000X0.275000X-0.200000X-0.275000X0.200000X-0.275000X0*%
%ADD24RoundRect,0.150000X0.850000X0.150000X-0.850000X0.150000X-0.850000X-0.150000X0.850000X-0.150000X0*%
%ADD25RoundRect,0.225000X-0.250000X0.225000X-0.250000X-0.225000X0.250000X-0.225000X0.250000X0.225000X0*%
%ADD26RoundRect,0.150000X-0.850000X-0.150000X0.850000X-0.150000X0.850000X0.150000X-0.850000X0.150000X0*%
%ADD27RoundRect,0.150000X-0.587500X-0.150000X0.587500X-0.150000X0.587500X0.150000X-0.587500X0.150000X0*%
G04 APERTURE END LIST*
D10*
%TO.C,J4*%
X128768000Y-80264000D03*
D11*
X130038000Y-80264000D03*
X131308000Y-80264000D03*
X132578000Y-80264000D03*
X133848000Y-80264000D03*
X135118000Y-80264000D03*
X136388000Y-80264000D03*
X137658000Y-80264000D03*
X138928000Y-80264000D03*
X140198000Y-80264000D03*
X141468000Y-80264000D03*
X142738000Y-80264000D03*
X144008000Y-80264000D03*
X145278000Y-80264000D03*
X146548000Y-80264000D03*
%TD*%
D12*
%TO.C,J3*%
X111610000Y-65857000D03*
X111610000Y-99157000D03*
D13*
X113030000Y-92202000D03*
D14*
X113030000Y-89432000D03*
X113030000Y-86662000D03*
X113030000Y-83892000D03*
X113030000Y-81122000D03*
X113030000Y-78352000D03*
X113030000Y-75582000D03*
X113030000Y-72812000D03*
X110190000Y-90817000D03*
X110190000Y-88047000D03*
X110190000Y-85277000D03*
X110190000Y-82507000D03*
X110190000Y-79737000D03*
X110190000Y-76967000D03*
X110190000Y-74197000D03*
%TD*%
D15*
%TO.C,J2*%
X144932000Y-131772000D03*
D16*
X145932000Y-132322000D03*
X146932000Y-132322000D03*
X147932000Y-132322000D03*
X148932000Y-132322000D03*
X149932000Y-132322000D03*
X150932000Y-132322000D03*
X151932000Y-132322000D03*
X152932000Y-132322000D03*
X153932000Y-132322000D03*
X154932000Y-132322000D03*
X157932000Y-132322000D03*
X158932000Y-132322000D03*
X159932000Y-132322000D03*
X160932000Y-132322000D03*
X161932000Y-132322000D03*
X162932000Y-132322000D03*
X163932000Y-132322000D03*
%TD*%
D10*
%TO.C,J1*%
X118618000Y-96774000D03*
D11*
X118618000Y-95504000D03*
X118618000Y-94234000D03*
X118618000Y-92964000D03*
X118618000Y-91694000D03*
X118618000Y-90424000D03*
X118618000Y-89154000D03*
X118618000Y-87884000D03*
X118618000Y-86614000D03*
X118618000Y-85344000D03*
X118618000Y-84074000D03*
X118618000Y-82804000D03*
X118618000Y-81534000D03*
X118618000Y-80264000D03*
X118618000Y-78994000D03*
%TD*%
D12*
%TO.C,J5*%
X154338000Y-73320331D03*
X121038000Y-73320331D03*
D13*
X127993000Y-74740331D03*
D14*
X130763000Y-74740331D03*
X133533000Y-74740331D03*
X136303000Y-74740331D03*
X139073000Y-74740331D03*
X141843000Y-74740331D03*
X144613000Y-74740331D03*
X147383000Y-74740331D03*
X129378000Y-71900331D03*
X132148000Y-71900331D03*
X134918000Y-71900331D03*
X137688000Y-71900331D03*
X140458000Y-71900331D03*
X143228000Y-71900331D03*
X145998000Y-71900331D03*
%TD*%
D17*
%TO.C,R15*%
X118110000Y-102171000D03*
X118110000Y-100521000D03*
%TD*%
D18*
%TO.C,R44*%
X107188000Y-105918000D03*
X108838000Y-105918000D03*
%TD*%
D19*
%TO.C,R9*%
X141700000Y-123575000D03*
X141700000Y-125225000D03*
%TD*%
%TO.C,R37*%
X152908000Y-109665000D03*
X152908000Y-111315000D03*
%TD*%
D20*
%TO.C,C24*%
X152908000Y-106185000D03*
X152908000Y-104635000D03*
%TD*%
D21*
%TO.C,Q6*%
X154432000Y-115316000D03*
X154432000Y-117216000D03*
X152557000Y-116266000D03*
%TD*%
D22*
%TO.C,C20*%
X133845000Y-123698000D03*
X135395000Y-123698000D03*
%TD*%
D21*
%TO.C,Q7*%
X107031000Y-123002000D03*
X107031000Y-124902000D03*
X105156000Y-123952000D03*
%TD*%
D20*
%TO.C,C17*%
X157480000Y-117361000D03*
X157480000Y-115811000D03*
%TD*%
D17*
%TO.C,R33*%
X138430000Y-115887000D03*
X138430000Y-114237000D03*
%TD*%
D18*
%TO.C,R38*%
X148273000Y-109728000D03*
X149923000Y-109728000D03*
%TD*%
%TO.C,R43*%
X110744000Y-108712000D03*
X112394000Y-108712000D03*
%TD*%
D19*
%TO.C,R41*%
X104648000Y-115507000D03*
X104648000Y-117157000D03*
%TD*%
%TO.C,R42*%
X102616000Y-114237000D03*
X102616000Y-115887000D03*
%TD*%
%TO.C,R3*%
X145796000Y-124397000D03*
X145796000Y-126047000D03*
%TD*%
D18*
%TO.C,R35*%
X137351000Y-123698000D03*
X139001000Y-123698000D03*
%TD*%
D23*
%TO.C,R11*%
X142366000Y-103124000D03*
X140716000Y-103124000D03*
%TD*%
%TO.C,R40*%
X149923000Y-104394000D03*
X148273000Y-104394000D03*
%TD*%
D18*
%TO.C,R39*%
X153036000Y-102108000D03*
X154686000Y-102108000D03*
%TD*%
D17*
%TO.C,R34*%
X141478000Y-118173000D03*
X141478000Y-116523000D03*
%TD*%
D24*
%TO.C,U5*%
X135088000Y-111887000D03*
X135088000Y-113157000D03*
X135088000Y-114427000D03*
X135088000Y-115697000D03*
X135088000Y-116967000D03*
X135088000Y-118237000D03*
X135088000Y-119507000D03*
X135088000Y-120777000D03*
X130088000Y-120777000D03*
X130088000Y-119507000D03*
X130088000Y-118237000D03*
X130088000Y-116967000D03*
X130088000Y-115697000D03*
X130088000Y-114427000D03*
X130088000Y-113157000D03*
X130088000Y-111887000D03*
%TD*%
D18*
%TO.C,R12*%
X143447000Y-113538000D03*
X145097000Y-113538000D03*
%TD*%
D25*
%TO.C,C27*%
X104648000Y-112001000D03*
X104648000Y-113551000D03*
%TD*%
D23*
%TO.C,R8*%
X148590000Y-100330000D03*
X146940000Y-100330000D03*
%TD*%
D20*
%TO.C,C19*%
X138430000Y-119634000D03*
X138430000Y-118084000D03*
%TD*%
D26*
%TO.C,U7*%
X107990000Y-120523000D03*
X107990000Y-119253000D03*
X107990000Y-117983000D03*
X107990000Y-116713000D03*
X107990000Y-115443000D03*
X107990000Y-114173000D03*
X107990000Y-112903000D03*
X107990000Y-111633000D03*
X112990000Y-111633000D03*
X112990000Y-112903000D03*
X112990000Y-114173000D03*
X112990000Y-115443000D03*
X112990000Y-116713000D03*
X112990000Y-117983000D03*
X112990000Y-119253000D03*
X112990000Y-120523000D03*
%TD*%
D23*
%TO.C,R36*%
X131381000Y-123698000D03*
X129731000Y-123698000D03*
%TD*%
D20*
%TO.C,C25*%
X110236000Y-124727000D03*
X110236000Y-123177000D03*
%TD*%
D26*
%TO.C,U6*%
X156210000Y-113538000D03*
X156210000Y-112268000D03*
X156210000Y-110998000D03*
X156210000Y-109728000D03*
X156210000Y-108458000D03*
X156210000Y-107188000D03*
X156210000Y-105918000D03*
X156210000Y-104648000D03*
X161210000Y-104648000D03*
X161210000Y-105918000D03*
X161210000Y-107188000D03*
X161210000Y-108458000D03*
X161210000Y-109728000D03*
X161210000Y-110998000D03*
X161210000Y-112268000D03*
X161210000Y-113538000D03*
%TD*%
D22*
%TO.C,C23*%
X152400000Y-107696000D03*
X153950000Y-107696000D03*
%TD*%
D25*
%TO.C,C18*%
X140208000Y-111252000D03*
X140208000Y-112802000D03*
%TD*%
D22*
%TO.C,C28*%
X107429000Y-108712000D03*
X108979000Y-108712000D03*
%TD*%
%TO.C,C22*%
X149085000Y-113792000D03*
X150635000Y-113792000D03*
%TD*%
%TO.C,C26*%
X103619000Y-120142000D03*
X105169000Y-120142000D03*
%TD*%
D27*
%TO.C,Q5*%
X136398000Y-109982000D03*
X136398000Y-108082000D03*
X138273000Y-109032000D03*
%TD*%
M02*
