%TF.GenerationSoftware,KiCad,Pcbnew,7.0.1-0*%
%TF.CreationDate,2023-09-14T23:48:01-07:00*%
%TF.ProjectId,TC-board,54432d62-6f61-4726-942e-6b696361645f,rev?*%
%TF.SameCoordinates,Original*%
%TF.FileFunction,Copper,L2,Bot*%
%TF.FilePolarity,Positive*%
%FSLAX46Y46*%
G04 Gerber Fmt 4.6, Leading zero omitted, Abs format (unit mm)*
G04 Created by KiCad (PCBNEW 7.0.1-0) date 2023-09-14 23:48:01*
%MOMM*%
%LPD*%
G01*
G04 APERTURE LIST*
%TA.AperFunction,ConnectorPad*%
%ADD10R,0.700000X3.200000*%
%TD*%
%TA.AperFunction,ConnectorPad*%
%ADD11R,0.700000X4.300000*%
%TD*%
%TA.AperFunction,ComponentPad*%
%ADD12C,4.000000*%
%TD*%
%TA.AperFunction,ComponentPad*%
%ADD13R,1.600000X1.600000*%
%TD*%
%TA.AperFunction,ComponentPad*%
%ADD14C,1.600000*%
%TD*%
%TA.AperFunction,ComponentPad*%
%ADD15C,1.524000*%
%TD*%
%TA.AperFunction,ComponentPad*%
%ADD16R,1.778000X1.778000*%
%TD*%
%TA.AperFunction,ComponentPad*%
%ADD17C,1.778000*%
%TD*%
%TA.AperFunction,ComponentPad*%
%ADD18R,1.000000X1.000000*%
%TD*%
%TA.AperFunction,ComponentPad*%
%ADD19O,1.000000X1.000000*%
%TD*%
%TA.AperFunction,ViaPad*%
%ADD20C,0.711200*%
%TD*%
%TA.AperFunction,Conductor*%
%ADD21C,0.508000*%
%TD*%
%TA.AperFunction,Conductor*%
%ADD22C,0.200000*%
%TD*%
%TA.AperFunction,Conductor*%
%ADD23C,0.254000*%
%TD*%
G04 APERTURE END LIST*
D10*
%TO.P,J2,A1,A1*%
%TO.N,unconnected-(J2-PadA1)*%
X145034000Y-106130000D03*
D11*
%TO.P,J2,A2,A2*%
%TO.N,unconnected-(J2-PadA2)*%
X146034000Y-106680000D03*
%TO.P,J2,A3,A3*%
%TO.N,GND*%
X147034000Y-106680000D03*
%TO.P,J2,A4,A4*%
%TO.N,/SPI1_SCK*%
X148034000Y-106680000D03*
%TO.P,J2,A5,A5*%
%TO.N,/SPI1_MISO*%
X149034000Y-106680000D03*
%TO.P,J2,A6,A6*%
%TO.N,GND*%
X150034000Y-106680000D03*
%TO.P,J2,A7,A7*%
%TO.N,unconnected-(J2-PadA7)*%
X151034000Y-106680000D03*
%TO.P,J2,A8,A8*%
%TO.N,unconnected-(J2-PadA8)*%
X152034000Y-106680000D03*
%TO.P,J2,A9,A9*%
%TO.N,unconnected-(J2-PadA9)*%
X153034000Y-106680000D03*
%TO.P,J2,A10,A10*%
%TO.N,unconnected-(J2-PadA10)*%
X154034000Y-106680000D03*
%TO.P,J2,A11,A11*%
%TO.N,/CS4*%
X155034000Y-106680000D03*
%TO.P,J2,A12,A12*%
%TO.N,GND*%
X158034000Y-106680000D03*
%TO.P,J2,A13,A13*%
%TO.N,unconnected-(J2-PadA13)*%
X159034000Y-106680000D03*
%TO.P,J2,A14,A14*%
%TO.N,unconnected-(J2-PadA14)*%
X160034000Y-106680000D03*
%TO.P,J2,A15,A15*%
%TO.N,GND*%
X161034000Y-106680000D03*
%TO.P,J2,A16,A16*%
%TO.N,unconnected-(J2-PadA16)*%
X162034000Y-106680000D03*
%TO.P,J2,A17,A17*%
%TO.N,unconnected-(J2-PadA17)*%
X163034000Y-106680000D03*
%TO.P,J2,A18,A18*%
%TO.N,unconnected-(J2-PadA18)*%
X164034000Y-106680000D03*
%TD*%
D12*
%TO.P,J1,0*%
%TO.N,N/C*%
X139098000Y-47666331D03*
X105798000Y-47666331D03*
D13*
%TO.P,J1,1,1*%
%TO.N,/TC1_T-*%
X112753000Y-49086331D03*
D14*
%TO.P,J1,2,2*%
%TO.N,/TC2_T-*%
X115523000Y-49086331D03*
%TO.P,J1,3,3*%
%TO.N,/TC3_T-*%
X118293000Y-49086331D03*
%TO.P,J1,4,4*%
%TO.N,/TC4_T-*%
X121063000Y-49086331D03*
%TO.P,J1,5,5*%
%TO.N,unconnected-(J1-Pad5)*%
X123833000Y-49086331D03*
%TO.P,J1,6,6*%
%TO.N,unconnected-(J1-Pad6)*%
X126603000Y-49086331D03*
%TO.P,J1,7,7*%
%TO.N,unconnected-(J1-Pad7)*%
X129373000Y-49086331D03*
%TO.P,J1,8,8*%
%TO.N,unconnected-(J1-Pad8)*%
X132143000Y-49086331D03*
%TO.P,J1,9,P9*%
%TO.N,/TC1_T+*%
X114138000Y-46246331D03*
%TO.P,J1,10,P10*%
%TO.N,/TC2_T+*%
X116908000Y-46246331D03*
%TO.P,J1,11,P111*%
%TO.N,/TC3_T+*%
X119678000Y-46246331D03*
%TO.P,J1,12,P12*%
%TO.N,/TC4_T+*%
X122448000Y-46246331D03*
%TO.P,J1,13,P13*%
%TO.N,unconnected-(J1-Pad13)*%
X125218000Y-46246331D03*
%TO.P,J1,14,P14*%
%TO.N,unconnected-(J1-Pad14)*%
X127988000Y-46246331D03*
%TO.P,J1,15,P15*%
%TO.N,unconnected-(J1-Pad15)*%
X130758000Y-46246331D03*
%TD*%
D15*
%TO.P,A2,1,GND*%
%TO.N,GND*%
X132587000Y-65532000D03*
D16*
%TO.P,A2,2,T-*%
%TO.N,/TC2_T-*%
X149607260Y-65023460D03*
D17*
%TO.P,A2,3,T+*%
%TO.N,/TC2_T+*%
X149607260Y-68579460D03*
D15*
%TO.P,A2,4,VIN*%
%TO.N,+3.3V*%
X132587000Y-60452000D03*
%TO.P,A2,5,SCK*%
%TO.N,/SPI1_SCK*%
X132587000Y-73152000D03*
%TO.P,A2,6,CS*%
%TO.N,/TC2_CS*%
X132587000Y-70612000D03*
%TO.P,A2,7,SDO*%
%TO.N,/SPI1_MISO*%
X132587000Y-68072000D03*
%TO.P,A2,8,3V0*%
%TO.N,unconnected-(A2-Pad8)*%
X132587000Y-62992000D03*
%TD*%
D18*
%TO.P,J3,1,Pin_1*%
%TO.N,/TC1_T-*%
X113660000Y-53848000D03*
D19*
%TO.P,J3,2,Pin_2*%
%TO.N,/TC1_T+*%
X114930000Y-53848000D03*
%TO.P,J3,3,Pin_3*%
%TO.N,/TC2_T-*%
X116200000Y-53848000D03*
%TO.P,J3,4,Pin_4*%
%TO.N,/TC2_T+*%
X117470000Y-53848000D03*
%TO.P,J3,5,Pin_5*%
%TO.N,/TC3_T-*%
X118740000Y-53848000D03*
%TO.P,J3,6,Pin_6*%
%TO.N,/TC3_T+*%
X120010000Y-53848000D03*
%TO.P,J3,7,Pin_7*%
%TO.N,/TC4_T-*%
X121280000Y-53848000D03*
%TO.P,J3,8,Pin_8*%
%TO.N,/TC4_T+*%
X122550000Y-53848000D03*
%TD*%
D18*
%TO.P,J4,1,Pin_1*%
%TO.N,/SPI0_SCK*%
X158130000Y-91900000D03*
D19*
%TO.P,J4,2,Pin_2*%
%TO.N,/SPI0_MISO*%
X159400000Y-91900000D03*
%TD*%
D15*
%TO.P,A1,1,GND*%
%TO.N,GND*%
X106933000Y-65786000D03*
D16*
%TO.P,A1,2,T-*%
%TO.N,/TC1_T-*%
X123953260Y-65277460D03*
D17*
%TO.P,A1,3,T+*%
%TO.N,/TC1_T+*%
X123953260Y-68833460D03*
D15*
%TO.P,A1,4,VIN*%
%TO.N,+3.3V*%
X106933000Y-60706000D03*
%TO.P,A1,5,SCK*%
%TO.N,/SPI1_SCK*%
X106933000Y-73406000D03*
%TO.P,A1,6,CS*%
%TO.N,/TC1_CS*%
X106933000Y-70866000D03*
%TO.P,A1,7,SDO*%
%TO.N,/SPI1_MISO*%
X106933000Y-68326000D03*
%TO.P,A1,8,3V0*%
%TO.N,unconnected-(A1-Pad8)*%
X106933000Y-63246000D03*
%TD*%
%TO.P,A3,1,GND*%
%TO.N,GND*%
X106679000Y-87884000D03*
D16*
%TO.P,A3,2,T-*%
%TO.N,/TC3_T-*%
X123699260Y-87375460D03*
D17*
%TO.P,A3,3,T+*%
%TO.N,/TC3_T+*%
X123699260Y-90931460D03*
D15*
%TO.P,A3,4,VIN*%
%TO.N,+3.3V*%
X106679000Y-82804000D03*
%TO.P,A3,5,SCK*%
%TO.N,/SPI1_SCK*%
X106679000Y-95504000D03*
%TO.P,A3,6,CS*%
%TO.N,/TC3_CS*%
X106679000Y-92964000D03*
%TO.P,A3,7,SDO*%
%TO.N,/SPI1_MISO*%
X106679000Y-90424000D03*
%TO.P,A3,8,3V0*%
%TO.N,unconnected-(A3-Pad8)*%
X106679000Y-85344000D03*
%TD*%
D18*
%TO.P,J5,1,Pin_1*%
%TO.N,/SPI1_SCK*%
X158150000Y-85900000D03*
D19*
%TO.P,J5,2,Pin_2*%
%TO.N,/SPI1_MISO*%
X159420000Y-85900000D03*
%TD*%
D15*
%TO.P,A4,1,GND*%
%TO.N,GND*%
X132333000Y-88138000D03*
D16*
%TO.P,A4,2,T-*%
%TO.N,/TC4_T-*%
X149353260Y-87629460D03*
D17*
%TO.P,A4,3,T+*%
%TO.N,/TC4_T+*%
X149353260Y-91185460D03*
D15*
%TO.P,A4,4,VIN*%
%TO.N,+3.3V*%
X132333000Y-83058000D03*
%TO.P,A4,5,SCK*%
%TO.N,/SPI0_SCK*%
X132333000Y-95758000D03*
%TO.P,A4,6,CS*%
%TO.N,/TC4_CS*%
X132333000Y-93218000D03*
%TO.P,A4,7,SDO*%
%TO.N,/SPI0_MISO*%
X132333000Y-90678000D03*
%TO.P,A4,8,3V0*%
%TO.N,unconnected-(A4-Pad8)*%
X132333000Y-85598000D03*
%TD*%
D20*
%TO.N,GND*%
X127420000Y-71470000D03*
X157440000Y-100490000D03*
X155930000Y-98790000D03*
X160678800Y-103961200D03*
X147218000Y-103838000D03*
X127370000Y-75890000D03*
X150003000Y-101053000D03*
X147050000Y-100450000D03*
%TO.N,/TC1_T+*%
X114900000Y-63500000D03*
X114900000Y-65800000D03*
%TO.N,+3.3V*%
X143480000Y-98800000D03*
X158190000Y-96480000D03*
X152140000Y-96160000D03*
X146993660Y-98903660D03*
%TO.N,/SPI1_SCK*%
X108900000Y-79700000D03*
X110600000Y-81400000D03*
%TO.N,/TC1_CS*%
X157200000Y-63100000D03*
%TO.N,/SPI1_MISO*%
X146800000Y-81600000D03*
X111400000Y-72000000D03*
X154000000Y-81500000D03*
%TO.N,/TC2_T+*%
X146500000Y-64200000D03*
X146500000Y-65800000D03*
%TO.N,/TC2_CS*%
X155800000Y-71100000D03*
%TO.N,/TC3_T-*%
X118600000Y-61100000D03*
X118600000Y-69700000D03*
%TO.N,/TC3_T+*%
X120100000Y-61400000D03*
X120100000Y-72300000D03*
%TO.N,/TC3_CS*%
X153800000Y-55900000D03*
X112800000Y-56700000D03*
X112300000Y-91900000D03*
%TO.N,/TC4_T-*%
X143500000Y-63400000D03*
X143500000Y-65800000D03*
%TO.N,/TC4_T+*%
X145200000Y-63100000D03*
X145200000Y-68800000D03*
%TO.N,/TC4_CS*%
X159420000Y-77320000D03*
X136180000Y-91700000D03*
X145530000Y-77660000D03*
%TO.N,/SPI0_MISO*%
X146034000Y-101236900D03*
X139840000Y-96910000D03*
%TO.N,/CS1*%
X152000000Y-94400000D03*
X157700000Y-76400000D03*
X152000000Y-76300000D03*
X152000000Y-90800000D03*
%TO.N,/CS2*%
X154000000Y-94000000D03*
X154000000Y-91100000D03*
X154300000Y-84600000D03*
X157600000Y-81400000D03*
%TO.N,/CS3*%
X155200000Y-94300000D03*
X155100000Y-88800000D03*
X152900000Y-88700000D03*
X155100000Y-91100000D03*
%TO.N,/CS4*%
X161800000Y-75800000D03*
X160100000Y-98500000D03*
X159400000Y-75800000D03*
%TD*%
D21*
%TO.N,GND*%
X150034000Y-101084000D02*
X150003000Y-101053000D01*
X128085000Y-83890000D02*
X132333000Y-88138000D01*
X134298000Y-88138000D02*
X132333000Y-88138000D01*
X147034000Y-104022000D02*
X147218000Y-103838000D01*
X118620000Y-83890000D02*
X127680000Y-83890000D01*
X152266000Y-98790000D02*
X150003000Y-101053000D01*
X161034000Y-104316400D02*
X160678800Y-103961200D01*
X141850000Y-100450000D02*
X141360000Y-99960000D01*
X127420000Y-70699000D02*
X127420000Y-71470000D01*
X158034000Y-101084000D02*
X157440000Y-100490000D01*
X147050000Y-100450000D02*
X141850000Y-100450000D01*
X106933000Y-65786000D02*
X103910000Y-68809000D01*
X158034000Y-101316400D02*
X158034000Y-101084000D01*
X127680000Y-83890000D02*
X128085000Y-83890000D01*
X158034000Y-106680000D02*
X158034000Y-101084000D01*
X160678800Y-103961200D02*
X158034000Y-101316400D01*
X161034000Y-106680000D02*
X161034000Y-104316400D01*
X141360000Y-95200000D02*
X134298000Y-88138000D01*
X127370000Y-83580000D02*
X127680000Y-83890000D01*
X106679000Y-87884000D02*
X114626000Y-87884000D01*
X127370000Y-75890000D02*
X127370000Y-83580000D01*
X103910000Y-87110000D02*
X104684000Y-87884000D01*
X141360000Y-99960000D02*
X141360000Y-95200000D01*
X103910000Y-68809000D02*
X103910000Y-87110000D01*
X104684000Y-87884000D02*
X106679000Y-87884000D01*
X132587000Y-65532000D02*
X127420000Y-70699000D01*
X155930000Y-98790000D02*
X152266000Y-98790000D01*
X114626000Y-87884000D02*
X118620000Y-83890000D01*
X147034000Y-106680000D02*
X147034000Y-104022000D01*
X150034000Y-106680000D02*
X150034000Y-101084000D01*
D22*
%TO.N,/TC1_T+*%
X114900000Y-63500000D02*
X114900000Y-65800000D01*
D21*
%TO.N,+3.3V*%
X143480000Y-98800000D02*
X146890000Y-98800000D01*
X146890000Y-98800000D02*
X146993660Y-98903660D01*
X157870000Y-96160000D02*
X158190000Y-96480000D01*
X152140000Y-96160000D02*
X157870000Y-96160000D01*
D23*
%TO.N,/SPI1_SCK*%
X116700000Y-74800000D02*
X115052000Y-73152000D01*
X144960000Y-83460000D02*
X149560000Y-83460000D01*
X132587000Y-73152000D02*
X134652000Y-73152000D01*
X158150000Y-85900000D02*
X152000000Y-85900000D01*
X149560000Y-83460000D02*
X152000000Y-85900000D01*
X131000000Y-74800000D02*
X131000000Y-74739000D01*
X131000000Y-74739000D02*
X132587000Y-73152000D01*
X115052000Y-73152000D02*
X107187000Y-73152000D01*
X148034000Y-94766000D02*
X148034000Y-106680000D01*
X152000000Y-85900000D02*
X150547060Y-87352940D01*
X116700000Y-74800000D02*
X131000000Y-74800000D01*
X150547060Y-92252940D02*
X148034000Y-94766000D01*
X107187000Y-73152000D02*
X106933000Y-73406000D01*
X108900000Y-79700000D02*
X110600000Y-81400000D01*
X150547060Y-87352940D02*
X150547060Y-92252940D01*
X134652000Y-73152000D02*
X144960000Y-83460000D01*
%TO.N,/TC1_CS*%
X130100000Y-56400000D02*
X151700000Y-56400000D01*
X152000000Y-56700000D02*
X157200000Y-61900000D01*
X151700000Y-56400000D02*
X152000000Y-56700000D01*
X157200000Y-61900000D02*
X157200000Y-63100000D01*
X113300000Y-64166053D02*
X113300000Y-60900000D01*
X113300000Y-69900000D02*
X113300000Y-64166053D01*
X129368200Y-57131800D02*
X130100000Y-56400000D01*
X106933000Y-70866000D02*
X112334000Y-70866000D01*
X113300000Y-60900000D02*
X117068200Y-57131800D01*
X112334000Y-70866000D02*
X113300000Y-69900000D01*
X117068200Y-57131800D02*
X129368200Y-57131800D01*
%TO.N,/SPI1_MISO*%
X149034000Y-97566000D02*
X149034000Y-106680000D01*
X114600000Y-72000000D02*
X111400000Y-72000000D01*
X146800000Y-81600000D02*
X153900000Y-81600000D01*
X151300000Y-95300000D02*
X149034000Y-97566000D01*
X159420000Y-86607106D02*
X159322306Y-86704800D01*
X127698600Y-72960400D02*
X115560400Y-72960400D01*
X152900000Y-86600000D02*
X151300000Y-88200000D01*
X151300000Y-88200000D02*
X151300000Y-95300000D01*
X153900000Y-81600000D02*
X154000000Y-81500000D01*
X115560400Y-72960400D02*
X114600000Y-72000000D01*
X159322306Y-86704800D02*
X153004800Y-86704800D01*
X159420000Y-85900000D02*
X159420000Y-86607106D01*
X153004800Y-86704800D02*
X152900000Y-86600000D01*
X132587000Y-68072000D02*
X127698600Y-72960400D01*
D22*
%TO.N,/TC2_T+*%
X146500000Y-64200000D02*
X146500000Y-65800000D01*
D23*
%TO.N,/TC2_CS*%
X132587000Y-70612000D02*
X155312000Y-70612000D01*
X155312000Y-70612000D02*
X155800000Y-71100000D01*
D22*
%TO.N,/TC3_T-*%
X118600000Y-61100000D02*
X118600000Y-69700000D01*
%TO.N,/TC3_T+*%
X120100000Y-61400000D02*
X120100000Y-72300000D01*
D23*
%TO.N,/TC3_CS*%
X129900000Y-55900000D02*
X153800000Y-55900000D01*
X112800000Y-56700000D02*
X129100000Y-56700000D01*
X129100000Y-56700000D02*
X129900000Y-55900000D01*
X111236000Y-92964000D02*
X112300000Y-91900000D01*
X106679000Y-92964000D02*
X111236000Y-92964000D01*
D22*
%TO.N,/TC4_T-*%
X143500000Y-63400000D02*
X143500000Y-65800000D01*
%TO.N,/TC4_T+*%
X145200000Y-63100000D02*
X145200000Y-68800000D01*
D23*
%TO.N,/TC4_CS*%
X159080000Y-77660000D02*
X159420000Y-77320000D01*
X134662000Y-93218000D02*
X136180000Y-91700000D01*
X145530000Y-77660000D02*
X159080000Y-77660000D01*
X132333000Y-93218000D02*
X134662000Y-93218000D01*
%TO.N,/SPI0_MISO*%
X140519000Y-101219000D02*
X146016100Y-101219000D01*
X139840000Y-96910000D02*
X139840000Y-100540000D01*
X146016100Y-101219000D02*
X146034000Y-101236900D01*
X139840000Y-100540000D02*
X140519000Y-101219000D01*
%TO.N,/CS1*%
X157700000Y-76400000D02*
X152100000Y-76400000D01*
X152100000Y-76400000D02*
X152000000Y-76300000D01*
X152000000Y-90800000D02*
X152000000Y-94400000D01*
%TO.N,/CS2*%
X157600000Y-81400000D02*
X154400000Y-84600000D01*
X154400000Y-84600000D02*
X154300000Y-84600000D01*
X154000000Y-91100000D02*
X154000000Y-94000000D01*
%TO.N,/CS3*%
X155000000Y-88700000D02*
X155100000Y-88800000D01*
X155100000Y-94200000D02*
X155200000Y-94300000D01*
X152900000Y-88700000D02*
X155000000Y-88700000D01*
X155100000Y-91100000D02*
X155100000Y-94200000D01*
%TO.N,/CS4*%
X160100000Y-98500000D02*
X157600000Y-98500000D01*
X159400000Y-75800000D02*
X161800000Y-75800000D01*
X157600000Y-98500000D02*
X155034000Y-101066000D01*
X155034000Y-101066000D02*
X155034000Y-106680000D01*
%TD*%
%TA.AperFunction,Conductor*%
%TO.N,GND*%
G36*
X164638140Y-38516580D02*
G01*
X164683518Y-38561886D01*
X164700197Y-38623802D01*
X164799724Y-101027815D01*
X164786650Y-101083433D01*
X164750028Y-101127285D01*
X164697632Y-101150062D01*
X164673632Y-101154370D01*
X164661225Y-101155627D01*
X164642237Y-101159888D01*
X164637001Y-101160945D01*
X164589571Y-101169458D01*
X164584883Y-101172758D01*
X164584883Y-101172759D01*
X164578298Y-101177394D01*
X164544358Y-101194213D01*
X164506919Y-101200000D01*
X156098094Y-101200000D01*
X156041799Y-101186485D01*
X155997776Y-101148885D01*
X155975621Y-101095398D01*
X155980163Y-101037682D01*
X156010413Y-100988319D01*
X156773328Y-100225405D01*
X157826913Y-99171819D01*
X157867142Y-99144939D01*
X157914595Y-99135500D01*
X159464305Y-99135500D01*
X159502623Y-99141569D01*
X159537190Y-99159182D01*
X159665568Y-99252454D01*
X159831509Y-99326336D01*
X160009177Y-99364100D01*
X160009179Y-99364100D01*
X160190821Y-99364100D01*
X160190823Y-99364100D01*
X160368490Y-99326336D01*
X160368491Y-99326335D01*
X160368493Y-99326335D01*
X160534430Y-99252455D01*
X160645416Y-99171819D01*
X160681380Y-99145690D01*
X160802923Y-99010703D01*
X160893743Y-98853397D01*
X160893742Y-98853397D01*
X160949873Y-98680646D01*
X160968860Y-98500000D01*
X160949873Y-98319354D01*
X160920758Y-98229747D01*
X160893743Y-98146602D01*
X160802923Y-97989296D01*
X160681380Y-97854309D01*
X160534431Y-97747545D01*
X160368490Y-97673663D01*
X160190823Y-97635900D01*
X160190821Y-97635900D01*
X160009179Y-97635900D01*
X160009177Y-97635900D01*
X159831509Y-97673663D01*
X159665568Y-97747545D01*
X159537190Y-97840818D01*
X159502623Y-97858431D01*
X159464305Y-97864500D01*
X157683850Y-97864500D01*
X157663058Y-97862204D01*
X157591956Y-97864439D01*
X157588061Y-97864500D01*
X157560014Y-97864500D01*
X157555868Y-97865023D01*
X157544244Y-97865937D01*
X157499795Y-97867334D01*
X157480097Y-97873057D01*
X157461052Y-97877001D01*
X157440700Y-97879572D01*
X157399361Y-97895939D01*
X157388317Y-97899720D01*
X157345606Y-97912130D01*
X157327950Y-97922572D01*
X157310483Y-97931129D01*
X157291415Y-97938679D01*
X157255433Y-97964820D01*
X157245676Y-97971229D01*
X157207402Y-97993865D01*
X157192901Y-98008366D01*
X157178112Y-98020997D01*
X157161512Y-98033058D01*
X157133159Y-98067329D01*
X157125299Y-98075966D01*
X154643922Y-100557343D01*
X154627593Y-100570426D01*
X154578898Y-100622281D01*
X154576190Y-100625076D01*
X154556359Y-100644907D01*
X154553798Y-100648209D01*
X154546219Y-100657082D01*
X154515781Y-100689495D01*
X154505901Y-100707467D01*
X154495224Y-100723721D01*
X154482649Y-100739932D01*
X154464986Y-100780748D01*
X154459850Y-100791232D01*
X154438430Y-100830196D01*
X154433330Y-100850061D01*
X154427029Y-100868464D01*
X154418882Y-100887290D01*
X154411926Y-100931212D01*
X154409558Y-100942645D01*
X154404618Y-100961892D01*
X154398500Y-100985719D01*
X154398500Y-101006226D01*
X154396973Y-101025625D01*
X154393764Y-101045878D01*
X154395509Y-101064332D01*
X154383127Y-101131136D01*
X154337401Y-101181387D01*
X154272059Y-101200000D01*
X149793500Y-101200000D01*
X149731500Y-101183387D01*
X149686113Y-101138000D01*
X149669500Y-101076000D01*
X149669500Y-97880594D01*
X149678939Y-97833141D01*
X149705819Y-97792913D01*
X150408086Y-97090646D01*
X151114664Y-96384067D01*
X151168684Y-96352406D01*
X151231290Y-96351176D01*
X151286514Y-96380694D01*
X151320274Y-96433431D01*
X151346257Y-96513398D01*
X151437076Y-96670703D01*
X151558619Y-96805690D01*
X151705568Y-96912454D01*
X151705569Y-96912454D01*
X151705570Y-96912455D01*
X151752209Y-96933220D01*
X151871509Y-96986336D01*
X152049177Y-97024100D01*
X152049179Y-97024100D01*
X152230821Y-97024100D01*
X152230823Y-97024100D01*
X152408490Y-96986336D01*
X152408491Y-96986335D01*
X152408493Y-96986335D01*
X152527791Y-96933219D01*
X152578226Y-96922500D01*
X157376108Y-96922500D01*
X157438108Y-96939113D01*
X157483495Y-96984499D01*
X157487077Y-96990704D01*
X157608619Y-97125690D01*
X157755568Y-97232454D01*
X157921509Y-97306336D01*
X158099177Y-97344100D01*
X158099179Y-97344100D01*
X158280821Y-97344100D01*
X158280823Y-97344100D01*
X158458490Y-97306336D01*
X158458491Y-97306335D01*
X158458493Y-97306335D01*
X158624430Y-97232455D01*
X158771381Y-97125689D01*
X158892923Y-96990703D01*
X158983743Y-96833397D01*
X159039873Y-96660646D01*
X159058860Y-96480000D01*
X159039873Y-96299354D01*
X158983743Y-96126603D01*
X158983743Y-96126602D01*
X158892923Y-95969296D01*
X158771380Y-95834309D01*
X158624429Y-95727544D01*
X158462310Y-95655363D01*
X158433041Y-95637074D01*
X158389774Y-95600769D01*
X158381793Y-95593455D01*
X158377766Y-95589428D01*
X158353031Y-95569870D01*
X158350273Y-95567624D01*
X158291853Y-95518604D01*
X158291851Y-95518603D01*
X158290985Y-95517876D01*
X158274036Y-95507078D01*
X158203914Y-95474380D01*
X158200668Y-95472808D01*
X158131565Y-95438103D01*
X158112576Y-95431502D01*
X158036841Y-95415864D01*
X158033323Y-95415084D01*
X157958032Y-95397241D01*
X157938038Y-95395198D01*
X157870705Y-95397157D01*
X157860710Y-95397448D01*
X157857106Y-95397500D01*
X155372543Y-95397500D01*
X155314328Y-95382985D01*
X155269742Y-95342840D01*
X155249222Y-95286461D01*
X155257572Y-95227049D01*
X155292838Y-95178510D01*
X155346762Y-95152210D01*
X155468490Y-95126336D01*
X155468491Y-95126335D01*
X155468493Y-95126335D01*
X155634430Y-95052455D01*
X155726715Y-94985406D01*
X155781380Y-94945690D01*
X155812883Y-94910703D01*
X155902923Y-94810703D01*
X155993743Y-94653397D01*
X156049873Y-94480646D01*
X156068860Y-94300000D01*
X156049873Y-94119354D01*
X155993743Y-93946603D01*
X155993743Y-93946602D01*
X155902923Y-93789296D01*
X155772660Y-93644625D01*
X155774036Y-93643385D01*
X155749015Y-93614089D01*
X155735500Y-93557795D01*
X155735500Y-92448638D01*
X157121500Y-92448638D01*
X157123758Y-92469640D01*
X157128011Y-92509205D01*
X157179110Y-92646203D01*
X157266738Y-92763261D01*
X157383796Y-92850889D01*
X157520794Y-92901988D01*
X157520797Y-92901988D01*
X157520799Y-92901989D01*
X157581362Y-92908500D01*
X158678634Y-92908500D01*
X158678638Y-92908500D01*
X158739201Y-92901989D01*
X158876204Y-92850889D01*
X158881097Y-92847225D01*
X158946010Y-92822847D01*
X159000044Y-92834223D01*
X159000508Y-92832695D01*
X159012193Y-92836239D01*
X159012196Y-92836241D01*
X159202299Y-92893908D01*
X159400000Y-92913380D01*
X159597701Y-92893908D01*
X159787804Y-92836241D01*
X159963004Y-92742595D01*
X160116568Y-92616568D01*
X160242595Y-92463004D01*
X160336241Y-92287804D01*
X160393908Y-92097701D01*
X160413380Y-91900000D01*
X160393908Y-91702299D01*
X160336241Y-91512196D01*
X160242595Y-91336996D01*
X160116568Y-91183432D01*
X159982814Y-91073663D01*
X159963003Y-91057404D01*
X159819397Y-90980646D01*
X159787804Y-90963759D01*
X159597701Y-90906092D01*
X159597698Y-90906091D01*
X159424247Y-90889008D01*
X159400000Y-90886620D01*
X159399999Y-90886620D01*
X159202300Y-90906091D01*
X159000509Y-90967304D01*
X159000045Y-90965776D01*
X158946011Y-90977152D01*
X158881100Y-90952776D01*
X158876203Y-90949110D01*
X158739205Y-90898011D01*
X158708919Y-90894755D01*
X158678638Y-90891500D01*
X157581362Y-90891500D01*
X157554445Y-90894393D01*
X157520794Y-90898011D01*
X157383796Y-90949110D01*
X157266738Y-91036738D01*
X157179110Y-91153796D01*
X157128011Y-91290794D01*
X157125871Y-91310700D01*
X157121500Y-91351362D01*
X157121500Y-92448638D01*
X155735500Y-92448638D01*
X155735500Y-91733183D01*
X155743736Y-91688745D01*
X155767348Y-91650212D01*
X155802923Y-91610703D01*
X155809752Y-91598876D01*
X155893743Y-91453397D01*
X155900311Y-91433183D01*
X155949873Y-91280646D01*
X155968860Y-91100000D01*
X155949873Y-90919354D01*
X155893743Y-90746603D01*
X155893743Y-90746602D01*
X155802923Y-90589296D01*
X155681380Y-90454309D01*
X155534431Y-90347545D01*
X155368490Y-90273663D01*
X155190823Y-90235900D01*
X155190821Y-90235900D01*
X155009179Y-90235900D01*
X155009177Y-90235900D01*
X154831509Y-90273663D01*
X154665568Y-90347545D01*
X154622885Y-90378557D01*
X154575781Y-90399529D01*
X154524219Y-90399529D01*
X154477115Y-90378557D01*
X154434431Y-90347545D01*
X154268490Y-90273663D01*
X154090823Y-90235900D01*
X154090821Y-90235900D01*
X153909179Y-90235900D01*
X153909177Y-90235900D01*
X153731509Y-90273663D01*
X153565568Y-90347545D01*
X153418619Y-90454309D01*
X153297076Y-90589296D01*
X153206256Y-90746602D01*
X153150127Y-90919352D01*
X153131140Y-91099999D01*
X153150127Y-91280647D01*
X153206256Y-91453397D01*
X153297074Y-91610700D01*
X153297077Y-91610703D01*
X153332651Y-91650212D01*
X153356264Y-91688745D01*
X153364500Y-91733183D01*
X153364500Y-93366817D01*
X153356264Y-93411255D01*
X153332651Y-93449787D01*
X153327383Y-93455639D01*
X153297074Y-93489299D01*
X153206256Y-93646602D01*
X153150127Y-93819352D01*
X153131140Y-94000000D01*
X153150127Y-94180647D01*
X153206256Y-94353397D01*
X153297076Y-94510703D01*
X153418619Y-94645690D01*
X153565568Y-94752454D01*
X153731509Y-94826336D01*
X153909177Y-94864100D01*
X153909179Y-94864100D01*
X154090821Y-94864100D01*
X154090823Y-94864100D01*
X154209268Y-94838923D01*
X154268493Y-94826335D01*
X154359408Y-94785856D01*
X154409842Y-94775136D01*
X154460278Y-94785856D01*
X154501993Y-94816163D01*
X154618619Y-94945689D01*
X154618622Y-94945691D01*
X154765568Y-95052454D01*
X154765569Y-95052454D01*
X154765570Y-95052455D01*
X154811910Y-95073087D01*
X154931509Y-95126336D01*
X155053238Y-95152210D01*
X155107162Y-95178510D01*
X155142428Y-95227049D01*
X155150778Y-95286461D01*
X155130258Y-95342840D01*
X155085672Y-95382985D01*
X155027457Y-95397500D01*
X152578226Y-95397500D01*
X152527789Y-95386779D01*
X152466133Y-95359327D01*
X152416251Y-95318932D01*
X152393249Y-95259008D01*
X152403291Y-95195612D01*
X152443681Y-95145733D01*
X152581381Y-95045689D01*
X152702923Y-94910703D01*
X152793743Y-94753397D01*
X152849873Y-94580646D01*
X152868860Y-94400000D01*
X152849873Y-94219354D01*
X152817381Y-94119354D01*
X152793743Y-94046602D01*
X152702925Y-93889299D01*
X152695967Y-93881572D01*
X152667348Y-93849787D01*
X152643736Y-93811255D01*
X152635500Y-93766817D01*
X152635500Y-91433183D01*
X152643736Y-91388745D01*
X152667348Y-91350212D01*
X152702923Y-91310703D01*
X152714415Y-91290799D01*
X152793743Y-91153397D01*
X152806480Y-91114196D01*
X152849873Y-90980646D01*
X152868860Y-90800000D01*
X152849873Y-90619354D01*
X152803338Y-90476133D01*
X152793743Y-90446602D01*
X152702923Y-90289296D01*
X152581380Y-90154309D01*
X152434431Y-90047545D01*
X152268490Y-89973663D01*
X152090823Y-89935900D01*
X152090821Y-89935900D01*
X152059500Y-89935900D01*
X151997500Y-89919287D01*
X151952113Y-89873900D01*
X151935500Y-89811900D01*
X151935500Y-89220413D01*
X151952113Y-89158413D01*
X151997500Y-89113026D01*
X152059500Y-89096413D01*
X152121500Y-89113026D01*
X152166887Y-89158413D01*
X152197076Y-89210703D01*
X152318619Y-89345690D01*
X152465568Y-89452454D01*
X152465569Y-89452454D01*
X152465570Y-89452455D01*
X152526449Y-89479560D01*
X152631509Y-89526336D01*
X152809177Y-89564100D01*
X152809179Y-89564100D01*
X152990821Y-89564100D01*
X152990823Y-89564100D01*
X153168490Y-89526336D01*
X153168491Y-89526335D01*
X153168493Y-89526335D01*
X153334430Y-89452455D01*
X153438935Y-89376528D01*
X153462810Y-89359182D01*
X153497377Y-89341569D01*
X153535695Y-89335500D01*
X154364196Y-89335500D01*
X154414631Y-89346220D01*
X154456346Y-89376528D01*
X154518619Y-89445690D01*
X154665568Y-89552454D01*
X154665569Y-89552454D01*
X154665570Y-89552455D01*
X154712865Y-89573512D01*
X154831509Y-89626336D01*
X155009177Y-89664100D01*
X155009179Y-89664100D01*
X155190821Y-89664100D01*
X155190823Y-89664100D01*
X155368490Y-89626336D01*
X155368491Y-89626335D01*
X155368493Y-89626335D01*
X155534430Y-89552455D01*
X155648011Y-89469934D01*
X155681380Y-89445690D01*
X155802923Y-89310703D01*
X155893743Y-89153397D01*
X155916719Y-89082684D01*
X155949873Y-88980646D01*
X155968860Y-88800000D01*
X155949873Y-88619354D01*
X155893743Y-88446603D01*
X155893743Y-88446602D01*
X155802923Y-88289296D01*
X155681380Y-88154309D01*
X155534431Y-88047545D01*
X155368490Y-87973663D01*
X155190823Y-87935900D01*
X155190821Y-87935900D01*
X155009179Y-87935900D01*
X155009177Y-87935900D01*
X154831509Y-87973663D01*
X154653664Y-88052846D01*
X154653212Y-88051831D01*
X154640251Y-88058434D01*
X154601943Y-88064500D01*
X153535695Y-88064500D01*
X153497377Y-88058431D01*
X153462810Y-88040818D01*
X153334431Y-87947545D01*
X153168490Y-87873663D01*
X152990823Y-87835900D01*
X152990821Y-87835900D01*
X152862194Y-87835900D01*
X152805899Y-87822385D01*
X152761876Y-87784785D01*
X152739721Y-87731298D01*
X152744263Y-87673582D01*
X152774513Y-87624219D01*
X153022114Y-87376619D01*
X153062342Y-87349739D01*
X153109795Y-87340300D01*
X159238456Y-87340300D01*
X159259247Y-87342595D01*
X159262023Y-87342507D01*
X159262025Y-87342508D01*
X159330349Y-87340361D01*
X159334245Y-87340300D01*
X159362285Y-87340300D01*
X159362289Y-87340300D01*
X159366426Y-87339777D01*
X159378063Y-87338861D01*
X159422511Y-87337465D01*
X159442207Y-87331742D01*
X159461252Y-87327797D01*
X159481605Y-87325227D01*
X159522965Y-87308851D01*
X159533985Y-87305078D01*
X159576699Y-87292669D01*
X159594350Y-87282229D01*
X159611818Y-87273671D01*
X159630894Y-87266119D01*
X159666888Y-87239966D01*
X159676621Y-87233574D01*
X159714904Y-87210934D01*
X159729406Y-87196431D01*
X159744194Y-87183800D01*
X159760793Y-87171742D01*
X159789151Y-87137462D01*
X159796994Y-87128842D01*
X159810073Y-87115763D01*
X159826399Y-87102685D01*
X159828299Y-87100661D01*
X159828303Y-87100659D01*
X159875149Y-87050771D01*
X159877797Y-87048039D01*
X159897638Y-87028200D01*
X159900188Y-87024911D01*
X159907765Y-87016039D01*
X159938217Y-86983612D01*
X159948100Y-86965633D01*
X159958778Y-86949378D01*
X159971349Y-86933173D01*
X159989011Y-86892356D01*
X159994148Y-86881873D01*
X159999197Y-86872689D01*
X160015569Y-86842909D01*
X160020669Y-86823041D01*
X160026969Y-86804640D01*
X160035117Y-86785814D01*
X160042072Y-86741893D01*
X160044441Y-86730458D01*
X160046807Y-86721242D01*
X160062345Y-86685429D01*
X160088243Y-86656226D01*
X160136568Y-86616568D01*
X160262595Y-86463004D01*
X160356241Y-86287804D01*
X160413908Y-86097701D01*
X160433380Y-85900000D01*
X160413908Y-85702299D01*
X160356241Y-85512196D01*
X160262595Y-85336996D01*
X160136568Y-85183432D01*
X159983004Y-85057405D01*
X159983003Y-85057404D01*
X159875728Y-85000065D01*
X159807804Y-84963759D01*
X159617701Y-84906092D01*
X159617698Y-84906091D01*
X159444247Y-84889008D01*
X159420000Y-84886620D01*
X159419999Y-84886620D01*
X159222300Y-84906091D01*
X159020509Y-84967304D01*
X159020045Y-84965776D01*
X158966011Y-84977152D01*
X158901100Y-84952776D01*
X158896203Y-84949110D01*
X158759205Y-84898011D01*
X158728919Y-84894755D01*
X158698638Y-84891500D01*
X157601362Y-84891500D01*
X157574445Y-84894393D01*
X157540794Y-84898011D01*
X157403796Y-84949110D01*
X157286738Y-85036738D01*
X157199112Y-85153793D01*
X157199110Y-85153796D01*
X157199111Y-85153796D01*
X157187906Y-85183836D01*
X157161469Y-85226070D01*
X157120539Y-85254488D01*
X157071726Y-85264500D01*
X155128903Y-85264500D01*
X155066903Y-85247887D01*
X155021516Y-85202500D01*
X155004903Y-85140500D01*
X155021516Y-85078500D01*
X155093743Y-84953397D01*
X155153901Y-84768250D01*
X155154734Y-84768520D01*
X155160412Y-84748382D01*
X155184653Y-84714077D01*
X157598312Y-82300419D01*
X157638541Y-82273539D01*
X157685994Y-82264100D01*
X157690823Y-82264100D01*
X157868490Y-82226336D01*
X157868491Y-82226335D01*
X157868493Y-82226335D01*
X158034430Y-82152455D01*
X158181381Y-82045689D01*
X158302923Y-81910703D01*
X158393743Y-81753397D01*
X158449873Y-81580646D01*
X158468860Y-81400000D01*
X158449873Y-81219354D01*
X158393743Y-81046603D01*
X158393743Y-81046602D01*
X158302923Y-80889296D01*
X158181380Y-80754309D01*
X158034431Y-80647545D01*
X157868490Y-80573663D01*
X157690823Y-80535900D01*
X157690821Y-80535900D01*
X157509179Y-80535900D01*
X157509177Y-80535900D01*
X157331509Y-80573663D01*
X157165568Y-80647545D01*
X157018619Y-80754309D01*
X156897076Y-80889296D01*
X156806256Y-81046602D01*
X156750127Y-81219352D01*
X156739238Y-81322949D01*
X156727837Y-81363370D01*
X156703598Y-81397667D01*
X154401686Y-83699581D01*
X154361458Y-83726461D01*
X154314005Y-83735900D01*
X154209177Y-83735900D01*
X154031509Y-83773663D01*
X153865568Y-83847545D01*
X153718619Y-83954309D01*
X153597076Y-84089296D01*
X153506256Y-84246602D01*
X153450127Y-84419352D01*
X153431140Y-84600000D01*
X153450127Y-84780647D01*
X153506256Y-84953397D01*
X153578484Y-85078500D01*
X153595097Y-85140500D01*
X153578484Y-85202500D01*
X153533097Y-85247887D01*
X153471097Y-85264500D01*
X152314594Y-85264500D01*
X152267141Y-85255061D01*
X152226913Y-85228181D01*
X150068658Y-83069925D01*
X150055575Y-83053596D01*
X150003718Y-83004898D01*
X150000921Y-83002187D01*
X149981095Y-82982361D01*
X149977796Y-82979802D01*
X149968917Y-82972218D01*
X149936509Y-82941784D01*
X149928793Y-82937543D01*
X149918531Y-82931901D01*
X149902274Y-82921222D01*
X149886067Y-82908650D01*
X149845254Y-82890988D01*
X149834769Y-82885852D01*
X149812910Y-82873835D01*
X149795800Y-82864429D01*
X149775942Y-82859331D01*
X149757534Y-82853029D01*
X149738708Y-82844882D01*
X149694788Y-82837926D01*
X149683350Y-82835558D01*
X149640282Y-82824500D01*
X149640281Y-82824500D01*
X149619774Y-82824500D01*
X149600375Y-82822973D01*
X149580122Y-82819765D01*
X149580121Y-82819765D01*
X149546185Y-82822973D01*
X149535849Y-82823950D01*
X149524180Y-82824500D01*
X145274595Y-82824500D01*
X145227142Y-82815061D01*
X145186914Y-82788181D01*
X143998733Y-81600000D01*
X145931140Y-81600000D01*
X145940633Y-81690322D01*
X145950127Y-81780647D01*
X146006256Y-81953397D01*
X146097076Y-82110703D01*
X146218619Y-82245690D01*
X146365568Y-82352454D01*
X146365569Y-82352454D01*
X146365570Y-82352455D01*
X146448538Y-82389394D01*
X146531509Y-82426336D01*
X146709177Y-82464100D01*
X146709179Y-82464100D01*
X146890821Y-82464100D01*
X146890823Y-82464100D01*
X147068490Y-82426336D01*
X147068491Y-82426335D01*
X147068493Y-82426335D01*
X147234430Y-82352455D01*
X147343049Y-82273539D01*
X147362810Y-82259182D01*
X147397377Y-82241569D01*
X147435695Y-82235500D01*
X153501943Y-82235500D01*
X153540251Y-82241566D01*
X153553212Y-82248168D01*
X153553664Y-82247154D01*
X153731509Y-82326336D01*
X153909177Y-82364100D01*
X153909179Y-82364100D01*
X154090821Y-82364100D01*
X154090823Y-82364100D01*
X154268490Y-82326336D01*
X154268491Y-82326335D01*
X154268493Y-82326335D01*
X154434430Y-82252455D01*
X154507905Y-82199072D01*
X154581380Y-82145690D01*
X154612883Y-82110703D01*
X154702923Y-82010703D01*
X154793743Y-81853397D01*
X154849873Y-81680646D01*
X154868860Y-81500000D01*
X154849873Y-81319354D01*
X154817381Y-81219354D01*
X154793743Y-81146602D01*
X154702923Y-80989296D01*
X154581380Y-80854309D01*
X154434431Y-80747545D01*
X154268490Y-80673663D01*
X154090823Y-80635900D01*
X154090821Y-80635900D01*
X153909179Y-80635900D01*
X153909177Y-80635900D01*
X153731509Y-80673663D01*
X153565568Y-80747545D01*
X153418619Y-80854309D01*
X153356346Y-80923472D01*
X153314631Y-80953780D01*
X153264196Y-80964500D01*
X147435695Y-80964500D01*
X147397377Y-80958431D01*
X147362810Y-80940818D01*
X147234431Y-80847545D01*
X147068490Y-80773663D01*
X146890823Y-80735900D01*
X146890821Y-80735900D01*
X146709179Y-80735900D01*
X146709177Y-80735900D01*
X146531509Y-80773663D01*
X146365568Y-80847545D01*
X146218619Y-80954309D01*
X146097076Y-81089296D01*
X146006256Y-81246602D01*
X145950127Y-81419352D01*
X145936603Y-81548021D01*
X145931140Y-81600000D01*
X143998733Y-81600000D01*
X140058732Y-77659999D01*
X144661140Y-77659999D01*
X144680127Y-77840647D01*
X144736256Y-78013397D01*
X144827076Y-78170703D01*
X144948619Y-78305690D01*
X145095568Y-78412454D01*
X145261509Y-78486336D01*
X145439177Y-78524100D01*
X145439179Y-78524100D01*
X145620821Y-78524100D01*
X145620823Y-78524100D01*
X145798490Y-78486336D01*
X145798491Y-78486335D01*
X145798493Y-78486335D01*
X145964430Y-78412455D01*
X146016730Y-78374456D01*
X146092810Y-78319182D01*
X146127377Y-78301569D01*
X146165695Y-78295500D01*
X158996150Y-78295500D01*
X159016941Y-78297795D01*
X159019717Y-78297707D01*
X159019719Y-78297708D01*
X159088043Y-78295561D01*
X159091939Y-78295500D01*
X159119979Y-78295500D01*
X159119983Y-78295500D01*
X159124120Y-78294977D01*
X159135757Y-78294061D01*
X159180205Y-78292665D01*
X159199901Y-78286942D01*
X159218946Y-78282997D01*
X159239299Y-78280427D01*
X159280659Y-78264051D01*
X159291679Y-78260278D01*
X159334393Y-78247869D01*
X159352044Y-78237429D01*
X159369512Y-78228871D01*
X159388588Y-78221319D01*
X159407219Y-78207782D01*
X159441786Y-78190169D01*
X159480105Y-78184100D01*
X159510823Y-78184100D01*
X159688490Y-78146336D01*
X159688491Y-78146335D01*
X159688493Y-78146335D01*
X159854430Y-78072455D01*
X159927905Y-78019072D01*
X160001380Y-77965690D01*
X160122923Y-77830703D01*
X160213743Y-77673397D01*
X160218096Y-77659999D01*
X160269873Y-77500646D01*
X160288860Y-77320000D01*
X160269873Y-77139354D01*
X160213743Y-76966603D01*
X160213743Y-76966602D01*
X160122923Y-76809296D01*
X160001380Y-76674309D01*
X159981434Y-76659818D01*
X159942120Y-76612297D01*
X159930564Y-76551714D01*
X159949622Y-76493057D01*
X159994582Y-76450838D01*
X160054319Y-76435500D01*
X161164305Y-76435500D01*
X161202623Y-76441569D01*
X161237190Y-76459182D01*
X161365568Y-76552454D01*
X161531509Y-76626336D01*
X161709177Y-76664100D01*
X161709179Y-76664100D01*
X161890821Y-76664100D01*
X161890823Y-76664100D01*
X162068490Y-76626336D01*
X162068491Y-76626335D01*
X162068493Y-76626335D01*
X162234430Y-76552455D01*
X162316184Y-76493057D01*
X162381380Y-76445690D01*
X162502923Y-76310703D01*
X162593743Y-76153397D01*
X162628442Y-76046603D01*
X162649873Y-75980646D01*
X162668860Y-75800000D01*
X162649873Y-75619354D01*
X162602536Y-75473665D01*
X162593743Y-75446602D01*
X162502923Y-75289296D01*
X162381380Y-75154309D01*
X162234431Y-75047545D01*
X162068490Y-74973663D01*
X161890823Y-74935900D01*
X161890821Y-74935900D01*
X161709179Y-74935900D01*
X161709177Y-74935900D01*
X161531509Y-74973663D01*
X161365568Y-75047545D01*
X161237190Y-75140818D01*
X161202623Y-75158431D01*
X161164305Y-75164500D01*
X160035695Y-75164500D01*
X159997377Y-75158431D01*
X159962810Y-75140818D01*
X159834431Y-75047545D01*
X159668490Y-74973663D01*
X159490823Y-74935900D01*
X159490821Y-74935900D01*
X159309179Y-74935900D01*
X159309177Y-74935900D01*
X159131509Y-74973663D01*
X158965568Y-75047545D01*
X158818619Y-75154309D01*
X158697076Y-75289296D01*
X158606256Y-75446602D01*
X158550127Y-75619352D01*
X158538445Y-75730496D01*
X158519820Y-75783977D01*
X158479358Y-75823599D01*
X158425499Y-75841098D01*
X158369476Y-75832825D01*
X158322974Y-75800505D01*
X158322519Y-75800000D01*
X158281381Y-75754311D01*
X158281380Y-75754310D01*
X158281379Y-75754309D01*
X158134431Y-75647545D01*
X157968490Y-75573663D01*
X157790823Y-75535900D01*
X157790821Y-75535900D01*
X157609179Y-75535900D01*
X157609177Y-75535900D01*
X157431509Y-75573663D01*
X157265568Y-75647545D01*
X157137190Y-75740818D01*
X157102623Y-75758431D01*
X157064305Y-75764500D01*
X152735804Y-75764500D01*
X152685369Y-75753780D01*
X152643654Y-75723472D01*
X152581380Y-75654309D01*
X152434431Y-75547545D01*
X152268490Y-75473663D01*
X152090823Y-75435900D01*
X152090821Y-75435900D01*
X151909179Y-75435900D01*
X151909177Y-75435900D01*
X151731509Y-75473663D01*
X151565568Y-75547545D01*
X151418619Y-75654309D01*
X151297076Y-75789296D01*
X151206256Y-75946602D01*
X151150127Y-76119352D01*
X151131140Y-76299999D01*
X151150127Y-76480647D01*
X151206256Y-76653397D01*
X151297076Y-76810702D01*
X151303221Y-76817527D01*
X151330504Y-76867153D01*
X151332876Y-76923734D01*
X151309842Y-76975470D01*
X151266207Y-77011568D01*
X151211072Y-77024500D01*
X146165695Y-77024500D01*
X146127377Y-77018431D01*
X146092810Y-77000818D01*
X145964431Y-76907545D01*
X145798490Y-76833663D01*
X145620823Y-76795900D01*
X145620821Y-76795900D01*
X145439179Y-76795900D01*
X145439177Y-76795900D01*
X145261509Y-76833663D01*
X145095568Y-76907545D01*
X144948619Y-77014309D01*
X144827076Y-77149296D01*
X144736256Y-77306602D01*
X144680127Y-77479352D01*
X144661140Y-77659999D01*
X140058732Y-77659999D01*
X135160658Y-72761925D01*
X135147575Y-72745596D01*
X135095718Y-72696898D01*
X135092921Y-72694187D01*
X135073095Y-72674361D01*
X135069796Y-72671802D01*
X135060917Y-72664218D01*
X135028509Y-72633784D01*
X135020793Y-72629543D01*
X135010531Y-72623901D01*
X134994274Y-72613222D01*
X134978067Y-72600650D01*
X134937254Y-72582988D01*
X134926769Y-72577852D01*
X134904910Y-72565835D01*
X134887800Y-72556429D01*
X134867942Y-72551331D01*
X134849534Y-72545029D01*
X134830708Y-72536882D01*
X134786788Y-72529926D01*
X134775350Y-72527558D01*
X134732282Y-72516500D01*
X134732281Y-72516500D01*
X134711774Y-72516500D01*
X134692375Y-72514973D01*
X134672122Y-72511765D01*
X134672121Y-72511765D01*
X134645061Y-72514323D01*
X134627849Y-72515950D01*
X134616180Y-72516500D01*
X133757562Y-72516500D01*
X133700305Y-72502489D01*
X133655988Y-72463625D01*
X133563977Y-72332219D01*
X133406781Y-72175023D01*
X133224677Y-72047512D01*
X133110738Y-71994381D01*
X133058563Y-71948625D01*
X133039144Y-71882000D01*
X133058563Y-71815375D01*
X133110739Y-71769618D01*
X133224677Y-71716488D01*
X133406781Y-71588977D01*
X133563977Y-71431781D01*
X133655989Y-71300373D01*
X133700305Y-71261511D01*
X133757562Y-71247500D01*
X154849266Y-71247500D01*
X154899701Y-71258220D01*
X154941416Y-71288528D01*
X154967197Y-71333182D01*
X155006256Y-71453397D01*
X155097076Y-71610703D01*
X155218619Y-71745690D01*
X155365568Y-71852454D01*
X155531509Y-71926336D01*
X155709177Y-71964100D01*
X155709179Y-71964100D01*
X155890821Y-71964100D01*
X155890823Y-71964100D01*
X156068490Y-71926336D01*
X156068491Y-71926335D01*
X156068493Y-71926335D01*
X156234430Y-71852455D01*
X156381381Y-71745689D01*
X156502923Y-71610703D01*
X156593743Y-71453397D01*
X156649873Y-71280646D01*
X156668860Y-71100000D01*
X156649873Y-70919354D01*
X156593743Y-70746603D01*
X156593743Y-70746602D01*
X156502923Y-70589296D01*
X156381380Y-70454309D01*
X156234431Y-70347545D01*
X156068490Y-70273663D01*
X155890823Y-70235900D01*
X155890821Y-70235900D01*
X155888941Y-70235900D01*
X155843293Y-70227192D01*
X155804057Y-70202291D01*
X155755718Y-70156897D01*
X155752921Y-70154187D01*
X155733095Y-70134361D01*
X155729796Y-70131802D01*
X155720917Y-70124218D01*
X155688509Y-70093784D01*
X155680793Y-70089543D01*
X155670531Y-70083901D01*
X155654274Y-70073222D01*
X155638067Y-70060650D01*
X155621306Y-70053397D01*
X155597253Y-70042988D01*
X155586769Y-70037852D01*
X155560382Y-70023346D01*
X155547800Y-70016429D01*
X155527942Y-70011331D01*
X155509534Y-70005029D01*
X155490708Y-69996882D01*
X155446788Y-69989926D01*
X155435350Y-69987558D01*
X155392282Y-69976500D01*
X155392281Y-69976500D01*
X155371774Y-69976500D01*
X155352375Y-69974973D01*
X155332122Y-69971765D01*
X155332121Y-69971765D01*
X155305050Y-69974324D01*
X155287849Y-69975950D01*
X155276180Y-69976500D01*
X150448813Y-69976500D01*
X150389796Y-69961555D01*
X150345004Y-69920322D01*
X150325237Y-69862740D01*
X150335257Y-69802690D01*
X150372651Y-69754647D01*
X150449588Y-69694764D01*
X150557005Y-69611158D01*
X150713864Y-69440764D01*
X150840537Y-69246876D01*
X150933570Y-69034783D01*
X150990425Y-68810269D01*
X151009550Y-68579460D01*
X150990425Y-68348651D01*
X150933570Y-68124137D01*
X150840537Y-67912044D01*
X150713864Y-67718156D01*
X150557005Y-67547762D01*
X150503631Y-67506219D01*
X150374245Y-67405513D01*
X150374241Y-67405510D01*
X150374240Y-67405510D01*
X150170553Y-67295280D01*
X150170549Y-67295278D01*
X150170548Y-67295278D01*
X149951503Y-67220080D01*
X149723060Y-67181960D01*
X149491460Y-67181960D01*
X149263016Y-67220080D01*
X149043971Y-67295278D01*
X148840274Y-67405513D01*
X148657518Y-67547759D01*
X148657515Y-67547761D01*
X148657515Y-67547762D01*
X148554644Y-67659510D01*
X148500655Y-67718157D01*
X148373983Y-67912043D01*
X148280951Y-68124133D01*
X148280949Y-68124137D01*
X148280950Y-68124137D01*
X148238071Y-68293464D01*
X148224094Y-68348656D01*
X148204969Y-68579460D01*
X148224094Y-68810263D01*
X148224094Y-68810265D01*
X148224095Y-68810269D01*
X148267241Y-68980646D01*
X148280951Y-69034786D01*
X148302727Y-69084430D01*
X148373983Y-69246876D01*
X148500656Y-69440764D01*
X148657515Y-69611158D01*
X148723640Y-69662625D01*
X148841869Y-69754647D01*
X148879263Y-69802690D01*
X148889283Y-69862740D01*
X148869516Y-69920322D01*
X148824724Y-69961555D01*
X148765707Y-69976500D01*
X133757562Y-69976500D01*
X133700305Y-69962489D01*
X133655988Y-69923625D01*
X133563977Y-69792219D01*
X133406781Y-69635023D01*
X133224677Y-69507512D01*
X133110738Y-69454381D01*
X133058563Y-69408625D01*
X133039144Y-69342000D01*
X133058563Y-69275375D01*
X133110739Y-69229618D01*
X133224677Y-69176488D01*
X133406781Y-69048977D01*
X133563977Y-68891781D01*
X133691488Y-68709677D01*
X133785440Y-68508196D01*
X133842978Y-68293463D01*
X133862353Y-68072000D01*
X133842978Y-67850537D01*
X133785440Y-67635804D01*
X133691488Y-67434324D01*
X133563977Y-67252219D01*
X133406781Y-67095023D01*
X133224677Y-66967512D01*
X133180869Y-66947084D01*
X133100683Y-66909692D01*
X133048507Y-66863934D01*
X133029088Y-66797309D01*
X133048508Y-66730684D01*
X133100684Y-66684927D01*
X133220412Y-66629097D01*
X133285187Y-66583740D01*
X132587001Y-65885553D01*
X132587000Y-65885553D01*
X131888812Y-66583740D01*
X131953592Y-66629100D01*
X132073316Y-66684928D01*
X132125492Y-66730684D01*
X132144912Y-66797309D01*
X132125493Y-66863934D01*
X132073318Y-66909692D01*
X131949321Y-66967513D01*
X131767218Y-67095023D01*
X131610023Y-67252218D01*
X131482512Y-67434323D01*
X131388560Y-67635802D01*
X131331021Y-67850539D01*
X131311646Y-68072000D01*
X131331021Y-68293464D01*
X131341186Y-68331400D01*
X131341186Y-68395586D01*
X131309092Y-68451173D01*
X127471686Y-72288581D01*
X127431458Y-72315461D01*
X127384005Y-72324900D01*
X121083127Y-72324900D01*
X121024913Y-72310386D01*
X120980327Y-72270240D01*
X120959806Y-72213862D01*
X120953096Y-72150022D01*
X120949873Y-72119354D01*
X120899428Y-71964100D01*
X120893743Y-71946602D01*
X120802923Y-71789296D01*
X120740351Y-71719804D01*
X120716736Y-71681269D01*
X120708500Y-71636831D01*
X120708500Y-68833459D01*
X122550969Y-68833459D01*
X122570094Y-69064263D01*
X122570094Y-69064265D01*
X122570095Y-69064269D01*
X122616338Y-69246876D01*
X122626951Y-69288786D01*
X122689108Y-69430488D01*
X122719983Y-69500876D01*
X122846656Y-69694764D01*
X123003515Y-69865158D01*
X123034177Y-69889023D01*
X123186274Y-70007406D01*
X123186276Y-70007407D01*
X123186280Y-70007410D01*
X123389967Y-70117640D01*
X123609018Y-70192840D01*
X123837460Y-70230960D01*
X124069060Y-70230960D01*
X124297502Y-70192840D01*
X124516553Y-70117640D01*
X124720240Y-70007410D01*
X124903005Y-69865158D01*
X125059864Y-69694764D01*
X125186537Y-69500876D01*
X125279570Y-69288783D01*
X125336425Y-69064269D01*
X125355550Y-68833460D01*
X125336425Y-68602651D01*
X125279570Y-68378137D01*
X125186537Y-68166044D01*
X125059864Y-67972156D01*
X124903005Y-67801762D01*
X124795590Y-67718157D01*
X124720245Y-67659513D01*
X124720241Y-67659510D01*
X124720240Y-67659510D01*
X124516553Y-67549280D01*
X124516549Y-67549278D01*
X124516548Y-67549278D01*
X124297503Y-67474080D01*
X124069060Y-67435960D01*
X123837460Y-67435960D01*
X123609016Y-67474080D01*
X123389971Y-67549278D01*
X123186274Y-67659513D01*
X123003518Y-67801759D01*
X123003515Y-67801761D01*
X123003515Y-67801762D01*
X122901994Y-67912043D01*
X122846655Y-67972157D01*
X122719983Y-68166043D01*
X122626951Y-68378133D01*
X122626949Y-68378137D01*
X122626950Y-68378137D01*
X122584072Y-68547460D01*
X122570094Y-68602656D01*
X122550969Y-68833459D01*
X120708500Y-68833459D01*
X120708500Y-66215094D01*
X122555760Y-66215094D01*
X122562271Y-66275665D01*
X122613370Y-66412663D01*
X122700998Y-66529721D01*
X122818056Y-66617349D01*
X122955054Y-66668448D01*
X122955057Y-66668448D01*
X122955059Y-66668449D01*
X123015622Y-66674960D01*
X124890894Y-66674960D01*
X124890898Y-66674960D01*
X124951461Y-66668449D01*
X124951463Y-66668448D01*
X124951465Y-66668448D01*
X125029384Y-66639384D01*
X125088464Y-66617349D01*
X125205521Y-66529721D01*
X125293149Y-66412664D01*
X125344249Y-66275661D01*
X125350760Y-66215098D01*
X125350760Y-65532000D01*
X131320178Y-65532000D01*
X131339424Y-65751978D01*
X131396579Y-65965281D01*
X131489898Y-66165406D01*
X131535258Y-66230187D01*
X132233446Y-65532001D01*
X132940553Y-65532001D01*
X133638740Y-66230186D01*
X133684100Y-66165408D01*
X133777420Y-65965281D01*
X133821707Y-65800000D01*
X142631140Y-65800000D01*
X142650127Y-65980647D01*
X142706256Y-66153397D01*
X142797076Y-66310703D01*
X142918619Y-66445690D01*
X143065568Y-66552454D01*
X143231509Y-66626336D01*
X143409177Y-66664100D01*
X143409179Y-66664100D01*
X143590821Y-66664100D01*
X143590823Y-66664100D01*
X143768490Y-66626336D01*
X143768491Y-66626335D01*
X143768493Y-66626335D01*
X143934430Y-66552455D01*
X144081381Y-66445689D01*
X144202923Y-66310703D01*
X144293743Y-66153397D01*
X144349569Y-65981580D01*
X144388459Y-65924356D01*
X144451958Y-65896877D01*
X144520296Y-65907700D01*
X144572197Y-65953456D01*
X144591500Y-66019899D01*
X144591500Y-68136831D01*
X144583264Y-68181269D01*
X144559649Y-68219804D01*
X144497076Y-68289296D01*
X144406256Y-68446602D01*
X144350127Y-68619352D01*
X144331140Y-68799999D01*
X144350127Y-68980647D01*
X144406256Y-69153397D01*
X144497076Y-69310703D01*
X144618619Y-69445690D01*
X144765568Y-69552454D01*
X144931509Y-69626336D01*
X145109177Y-69664100D01*
X145109179Y-69664100D01*
X145290821Y-69664100D01*
X145290823Y-69664100D01*
X145468490Y-69626336D01*
X145468491Y-69626335D01*
X145468493Y-69626335D01*
X145634430Y-69552455D01*
X145781381Y-69445689D01*
X145902923Y-69310703D01*
X145993743Y-69153397D01*
X146049873Y-68980646D01*
X146068860Y-68800000D01*
X146049873Y-68619354D01*
X145993743Y-68446603D01*
X145993743Y-68446602D01*
X145902923Y-68289296D01*
X145840351Y-68219804D01*
X145816736Y-68181269D01*
X145808500Y-68136831D01*
X145808500Y-66609047D01*
X145826773Y-66544257D01*
X145876205Y-66498562D01*
X145942228Y-66485429D01*
X146005384Y-66508727D01*
X146065570Y-66552455D01*
X146192678Y-66609047D01*
X146231509Y-66626336D01*
X146409177Y-66664100D01*
X146409179Y-66664100D01*
X146590821Y-66664100D01*
X146590823Y-66664100D01*
X146768490Y-66626336D01*
X146768491Y-66626335D01*
X146768493Y-66626335D01*
X146934430Y-66552455D01*
X147081381Y-66445689D01*
X147202923Y-66310703D01*
X147293743Y-66153397D01*
X147349873Y-65980646D01*
X147351928Y-65961094D01*
X148209760Y-65961094D01*
X148216271Y-66021665D01*
X148267370Y-66158663D01*
X148354998Y-66275721D01*
X148472056Y-66363349D01*
X148609054Y-66414448D01*
X148609057Y-66414448D01*
X148609059Y-66414449D01*
X148669622Y-66420960D01*
X150544894Y-66420960D01*
X150544898Y-66420960D01*
X150605461Y-66414449D01*
X150605463Y-66414448D01*
X150605465Y-66414448D01*
X150683384Y-66385384D01*
X150742464Y-66363349D01*
X150859521Y-66275721D01*
X150947149Y-66158664D01*
X150998249Y-66021661D01*
X151004760Y-65961098D01*
X151004760Y-64085822D01*
X150998249Y-64025259D01*
X150998248Y-64025257D01*
X150998248Y-64025254D01*
X150947149Y-63888256D01*
X150859521Y-63771198D01*
X150742463Y-63683570D01*
X150605465Y-63632471D01*
X150575179Y-63629215D01*
X150544898Y-63625960D01*
X148669622Y-63625960D01*
X148642705Y-63628853D01*
X148609054Y-63632471D01*
X148472056Y-63683570D01*
X148354998Y-63771198D01*
X148267370Y-63888256D01*
X148216271Y-64025254D01*
X148212653Y-64058905D01*
X148209766Y-64085771D01*
X148209760Y-64085826D01*
X148209760Y-65961094D01*
X147351928Y-65961094D01*
X147368860Y-65800000D01*
X147349873Y-65619354D01*
X147293743Y-65446603D01*
X147293743Y-65446602D01*
X147202923Y-65289296D01*
X147140351Y-65219804D01*
X147116736Y-65181269D01*
X147108500Y-65136831D01*
X147108500Y-64863169D01*
X147116736Y-64818731D01*
X147140351Y-64780196D01*
X147202923Y-64710703D01*
X147293743Y-64553397D01*
X147329145Y-64444440D01*
X147349873Y-64380646D01*
X147368860Y-64200000D01*
X147349873Y-64019354D01*
X147305788Y-63883674D01*
X147293743Y-63846602D01*
X147202923Y-63689296D01*
X147081380Y-63554309D01*
X146934431Y-63447545D01*
X146768490Y-63373663D01*
X146590823Y-63335900D01*
X146590821Y-63335900D01*
X146409179Y-63335900D01*
X146409177Y-63335900D01*
X146231504Y-63373664D01*
X146226897Y-63375716D01*
X146163501Y-63385753D01*
X146103580Y-63362748D01*
X146063188Y-63312866D01*
X146053149Y-63249476D01*
X146068860Y-63100000D01*
X146049873Y-62919354D01*
X146020758Y-62829747D01*
X145993743Y-62746602D01*
X145902923Y-62589296D01*
X145781380Y-62454309D01*
X145634431Y-62347545D01*
X145468490Y-62273663D01*
X145290823Y-62235900D01*
X145290821Y-62235900D01*
X145109179Y-62235900D01*
X145109177Y-62235900D01*
X144931509Y-62273663D01*
X144765568Y-62347545D01*
X144618619Y-62454309D01*
X144497076Y-62589296D01*
X144406256Y-62746602D01*
X144384638Y-62813138D01*
X144349679Y-62866970D01*
X144292488Y-62896110D01*
X144228389Y-62892751D01*
X144174557Y-62857793D01*
X144131345Y-62809802D01*
X144081381Y-62754311D01*
X144081377Y-62754308D01*
X143934431Y-62647545D01*
X143768490Y-62573663D01*
X143590823Y-62535900D01*
X143590821Y-62535900D01*
X143409179Y-62535900D01*
X143409177Y-62535900D01*
X143231509Y-62573663D01*
X143065568Y-62647545D01*
X142918619Y-62754309D01*
X142797076Y-62889296D01*
X142706256Y-63046602D01*
X142650127Y-63219352D01*
X142631140Y-63399999D01*
X142650127Y-63580647D01*
X142706256Y-63753397D01*
X142797076Y-63910703D01*
X142859649Y-63980196D01*
X142883264Y-64018731D01*
X142891500Y-64063169D01*
X142891500Y-65136831D01*
X142883264Y-65181269D01*
X142859649Y-65219804D01*
X142797076Y-65289296D01*
X142706256Y-65446602D01*
X142650127Y-65619352D01*
X142631140Y-65800000D01*
X133821707Y-65800000D01*
X133834575Y-65751978D01*
X133853821Y-65532000D01*
X133834575Y-65312021D01*
X133777421Y-65098720D01*
X133684098Y-64898589D01*
X133638740Y-64833811D01*
X132940553Y-65532000D01*
X132940553Y-65532001D01*
X132233446Y-65532001D01*
X132233446Y-65532000D01*
X131535258Y-64833811D01*
X131535258Y-64833812D01*
X131489900Y-64898589D01*
X131396578Y-65098719D01*
X131339424Y-65312021D01*
X131320178Y-65532000D01*
X125350760Y-65532000D01*
X125350760Y-64339822D01*
X125344249Y-64279259D01*
X125344248Y-64279257D01*
X125344248Y-64279254D01*
X125293149Y-64142256D01*
X125205521Y-64025198D01*
X125088463Y-63937570D01*
X124951465Y-63886471D01*
X124921179Y-63883215D01*
X124890898Y-63879960D01*
X123015622Y-63879960D01*
X122988705Y-63882853D01*
X122955054Y-63886471D01*
X122818056Y-63937570D01*
X122700998Y-64025198D01*
X122613370Y-64142256D01*
X122562271Y-64279254D01*
X122555760Y-64339826D01*
X122555760Y-66215094D01*
X120708500Y-66215094D01*
X120708500Y-62992000D01*
X131311646Y-62992000D01*
X131331021Y-63213460D01*
X131388560Y-63428197D01*
X131400311Y-63453397D01*
X131482512Y-63629677D01*
X131610023Y-63811781D01*
X131767219Y-63968977D01*
X131949323Y-64096488D01*
X132047473Y-64142256D01*
X132073316Y-64154307D01*
X132125492Y-64200064D01*
X132144911Y-64266689D01*
X132125492Y-64333314D01*
X132073316Y-64379071D01*
X131953589Y-64434900D01*
X131888812Y-64480258D01*
X131888811Y-64480258D01*
X132587000Y-65178446D01*
X132587001Y-65178446D01*
X133285187Y-64480258D01*
X133220406Y-64434898D01*
X133100683Y-64379071D01*
X133048506Y-64333314D01*
X133029087Y-64266689D01*
X133048507Y-64200064D01*
X133100682Y-64154307D01*
X133224677Y-64096488D01*
X133406781Y-63968977D01*
X133563977Y-63811781D01*
X133691488Y-63629677D01*
X133785440Y-63428196D01*
X133842978Y-63213463D01*
X133862353Y-62992000D01*
X133842978Y-62770537D01*
X133785440Y-62555804D01*
X133691488Y-62354324D01*
X133563977Y-62172219D01*
X133406781Y-62015023D01*
X133224677Y-61887512D01*
X133110738Y-61834381D01*
X133058563Y-61788625D01*
X133039144Y-61722000D01*
X133058563Y-61655375D01*
X133110739Y-61609618D01*
X133224677Y-61556488D01*
X133406781Y-61428977D01*
X133563977Y-61271781D01*
X133691488Y-61089677D01*
X133785440Y-60888196D01*
X133842978Y-60673463D01*
X133862353Y-60452000D01*
X133842978Y-60230537D01*
X133785440Y-60015804D01*
X133691488Y-59814324D01*
X133563977Y-59632219D01*
X133406781Y-59475023D01*
X133224677Y-59347512D01*
X133131781Y-59304194D01*
X133023197Y-59253560D01*
X132808460Y-59196021D01*
X132587000Y-59176646D01*
X132365539Y-59196021D01*
X132150802Y-59253560D01*
X131949323Y-59347512D01*
X131767218Y-59475023D01*
X131610023Y-59632218D01*
X131482512Y-59814323D01*
X131388560Y-60015802D01*
X131331021Y-60230539D01*
X131311646Y-60452000D01*
X131331021Y-60673460D01*
X131388560Y-60888197D01*
X131389073Y-60889297D01*
X131482512Y-61089677D01*
X131610023Y-61271781D01*
X131767219Y-61428977D01*
X131949323Y-61556488D01*
X132024216Y-61591411D01*
X132063260Y-61609618D01*
X132115436Y-61655375D01*
X132134855Y-61722000D01*
X132115436Y-61788625D01*
X132063260Y-61834382D01*
X131949323Y-61887512D01*
X131767218Y-62015023D01*
X131610023Y-62172218D01*
X131482512Y-62354323D01*
X131388560Y-62555802D01*
X131331021Y-62770539D01*
X131311646Y-62992000D01*
X120708500Y-62992000D01*
X120708500Y-62063169D01*
X120716736Y-62018731D01*
X120740351Y-61980196D01*
X120802923Y-61910703D01*
X120893743Y-61753397D01*
X120903944Y-61722000D01*
X120949873Y-61580646D01*
X120968860Y-61400000D01*
X120949873Y-61219354D01*
X120893743Y-61046603D01*
X120893743Y-61046602D01*
X120802923Y-60889296D01*
X120681380Y-60754309D01*
X120534431Y-60647545D01*
X120368490Y-60573663D01*
X120190823Y-60535900D01*
X120190821Y-60535900D01*
X120009179Y-60535900D01*
X120009177Y-60535900D01*
X119831509Y-60573663D01*
X119665568Y-60647545D01*
X119545193Y-60735002D01*
X119480958Y-60758381D01*
X119414094Y-60744168D01*
X119364922Y-60696682D01*
X119302924Y-60589298D01*
X119181380Y-60454309D01*
X119034431Y-60347545D01*
X118868490Y-60273663D01*
X118690823Y-60235900D01*
X118690821Y-60235900D01*
X118509179Y-60235900D01*
X118509177Y-60235900D01*
X118331509Y-60273663D01*
X118165568Y-60347545D01*
X118018619Y-60454309D01*
X117897076Y-60589296D01*
X117806256Y-60746602D01*
X117750127Y-60919352D01*
X117731140Y-61099999D01*
X117750127Y-61280647D01*
X117806256Y-61453397D01*
X117897076Y-61610703D01*
X117959649Y-61680196D01*
X117983264Y-61718731D01*
X117991500Y-61763169D01*
X117991500Y-69036831D01*
X117983264Y-69081269D01*
X117959649Y-69119804D01*
X117897076Y-69189296D01*
X117806256Y-69346602D01*
X117750127Y-69519352D01*
X117731140Y-69699999D01*
X117750127Y-69880647D01*
X117806256Y-70053397D01*
X117897076Y-70210703D01*
X118018619Y-70345690D01*
X118165568Y-70452454D01*
X118331509Y-70526336D01*
X118509177Y-70564100D01*
X118509179Y-70564100D01*
X118690821Y-70564100D01*
X118690823Y-70564100D01*
X118868490Y-70526336D01*
X118868491Y-70526335D01*
X118868493Y-70526335D01*
X119034430Y-70452455D01*
X119119653Y-70390537D01*
X119181380Y-70345690D01*
X119200642Y-70324298D01*
X119275349Y-70241326D01*
X119324277Y-70208075D01*
X119383041Y-70201276D01*
X119438268Y-70222475D01*
X119477389Y-70266849D01*
X119491500Y-70324298D01*
X119491500Y-71636831D01*
X119483264Y-71681269D01*
X119459649Y-71719804D01*
X119397076Y-71789296D01*
X119306256Y-71946602D01*
X119250127Y-72119352D01*
X119240194Y-72213862D01*
X119219673Y-72270240D01*
X119175087Y-72310386D01*
X119116873Y-72324900D01*
X115874995Y-72324900D01*
X115827542Y-72315461D01*
X115787314Y-72288581D01*
X115108658Y-71609925D01*
X115095575Y-71593596D01*
X115043718Y-71544898D01*
X115040921Y-71542187D01*
X115021095Y-71522361D01*
X115017796Y-71519802D01*
X115008917Y-71512218D01*
X114976509Y-71481784D01*
X114968793Y-71477543D01*
X114958531Y-71471901D01*
X114942274Y-71461222D01*
X114926067Y-71448650D01*
X114887085Y-71431781D01*
X114885253Y-71430988D01*
X114874769Y-71425852D01*
X114852910Y-71413835D01*
X114835800Y-71404429D01*
X114815942Y-71399331D01*
X114797534Y-71393029D01*
X114778708Y-71384882D01*
X114734788Y-71377926D01*
X114723350Y-71375558D01*
X114680282Y-71364500D01*
X114680281Y-71364500D01*
X114659774Y-71364500D01*
X114640375Y-71362973D01*
X114620122Y-71359765D01*
X114620121Y-71359765D01*
X114586185Y-71362973D01*
X114575849Y-71363950D01*
X114564180Y-71364500D01*
X113033593Y-71364500D01*
X112977298Y-71350985D01*
X112933275Y-71313385D01*
X112911120Y-71259898D01*
X112915662Y-71202182D01*
X112945912Y-71152819D01*
X113265271Y-70833460D01*
X113690073Y-70408657D01*
X113706399Y-70395579D01*
X113708299Y-70393555D01*
X113708303Y-70393553D01*
X113755149Y-70343665D01*
X113757797Y-70340933D01*
X113777638Y-70321094D01*
X113780188Y-70317805D01*
X113787765Y-70308933D01*
X113818217Y-70276506D01*
X113828100Y-70258527D01*
X113838778Y-70242272D01*
X113851349Y-70226067D01*
X113869011Y-70185250D01*
X113874148Y-70174767D01*
X113885462Y-70154187D01*
X113895569Y-70135803D01*
X113900669Y-70115935D01*
X113906969Y-70097534D01*
X113915117Y-70078708D01*
X113922072Y-70034787D01*
X113924442Y-70023346D01*
X113927527Y-70011331D01*
X113935500Y-69980282D01*
X113935500Y-69959774D01*
X113937027Y-69940375D01*
X113937270Y-69938840D01*
X113940235Y-69920121D01*
X113936050Y-69875849D01*
X113935500Y-69864180D01*
X113935500Y-66320413D01*
X113952113Y-66258413D01*
X113997500Y-66213026D01*
X114059500Y-66196413D01*
X114121500Y-66213026D01*
X114166887Y-66258413D01*
X114197076Y-66310703D01*
X114318619Y-66445690D01*
X114465568Y-66552454D01*
X114631509Y-66626336D01*
X114809177Y-66664100D01*
X114809179Y-66664100D01*
X114990821Y-66664100D01*
X114990823Y-66664100D01*
X115168490Y-66626336D01*
X115168491Y-66626335D01*
X115168493Y-66626335D01*
X115334430Y-66552455D01*
X115481381Y-66445689D01*
X115602923Y-66310703D01*
X115693743Y-66153397D01*
X115749873Y-65980646D01*
X115768860Y-65800000D01*
X115749873Y-65619354D01*
X115693743Y-65446603D01*
X115693743Y-65446602D01*
X115602923Y-65289296D01*
X115540351Y-65219804D01*
X115516736Y-65181269D01*
X115508500Y-65136831D01*
X115508500Y-64163169D01*
X115516736Y-64118731D01*
X115540351Y-64080196D01*
X115602923Y-64010703D01*
X115693743Y-63853397D01*
X115707265Y-63811781D01*
X115749873Y-63680646D01*
X115768860Y-63500000D01*
X115749873Y-63319354D01*
X115717381Y-63219354D01*
X115693743Y-63146602D01*
X115602923Y-62989296D01*
X115481380Y-62854309D01*
X115334431Y-62747545D01*
X115168490Y-62673663D01*
X114990823Y-62635900D01*
X114990821Y-62635900D01*
X114809179Y-62635900D01*
X114809177Y-62635900D01*
X114631509Y-62673663D01*
X114465568Y-62747545D01*
X114318619Y-62854309D01*
X114197076Y-62989296D01*
X114166887Y-63041587D01*
X114121500Y-63086974D01*
X114059500Y-63103587D01*
X113997500Y-63086974D01*
X113952113Y-63041587D01*
X113935500Y-62979587D01*
X113935500Y-61214594D01*
X113944939Y-61167141D01*
X113971819Y-61126913D01*
X117295114Y-57803619D01*
X117335342Y-57776739D01*
X117382795Y-57767300D01*
X129284350Y-57767300D01*
X129305141Y-57769595D01*
X129307917Y-57769507D01*
X129307919Y-57769508D01*
X129376243Y-57767361D01*
X129380139Y-57767300D01*
X129408179Y-57767300D01*
X129408183Y-57767300D01*
X129412320Y-57766777D01*
X129423957Y-57765861D01*
X129468405Y-57764465D01*
X129488101Y-57758742D01*
X129507146Y-57754797D01*
X129527499Y-57752227D01*
X129568859Y-57735851D01*
X129579879Y-57732078D01*
X129622593Y-57719669D01*
X129640244Y-57709229D01*
X129657712Y-57700671D01*
X129676788Y-57693119D01*
X129712782Y-57666966D01*
X129722515Y-57660574D01*
X129760798Y-57637934D01*
X129775300Y-57623431D01*
X129790088Y-57610800D01*
X129806687Y-57598742D01*
X129835045Y-57564462D01*
X129842888Y-57555842D01*
X130326912Y-57071819D01*
X130367141Y-57044939D01*
X130414594Y-57035500D01*
X151385405Y-57035500D01*
X151432858Y-57044939D01*
X151473083Y-57071816D01*
X151578906Y-57177639D01*
X151585137Y-57183870D01*
X151585144Y-57183876D01*
X156528181Y-62126914D01*
X156555061Y-62167142D01*
X156564500Y-62214595D01*
X156564500Y-62466817D01*
X156556264Y-62511255D01*
X156532651Y-62549787D01*
X156518209Y-62565826D01*
X156497074Y-62589299D01*
X156406256Y-62746602D01*
X156350127Y-62919352D01*
X156331140Y-63099999D01*
X156350127Y-63280647D01*
X156406256Y-63453397D01*
X156497076Y-63610703D01*
X156618619Y-63745690D01*
X156765568Y-63852454D01*
X156931509Y-63926336D01*
X157109177Y-63964100D01*
X157109179Y-63964100D01*
X157290821Y-63964100D01*
X157290823Y-63964100D01*
X157468490Y-63926336D01*
X157468491Y-63926335D01*
X157468493Y-63926335D01*
X157634430Y-63852455D01*
X157707905Y-63799072D01*
X157781380Y-63745690D01*
X157832158Y-63689296D01*
X157902923Y-63610703D01*
X157993743Y-63453397D01*
X158049873Y-63280646D01*
X158068860Y-63100000D01*
X158049873Y-62919354D01*
X158020758Y-62829747D01*
X157993743Y-62746602D01*
X157902925Y-62589299D01*
X157888846Y-62573663D01*
X157867348Y-62549787D01*
X157843736Y-62511255D01*
X157835500Y-62466817D01*
X157835500Y-61983853D01*
X157837796Y-61963057D01*
X157835561Y-61891938D01*
X157835500Y-61888043D01*
X157835500Y-61860023D01*
X157835500Y-61860017D01*
X157834977Y-61855882D01*
X157834061Y-61844241D01*
X157832665Y-61799796D01*
X157826942Y-61780099D01*
X157822997Y-61761053D01*
X157820427Y-61740701D01*
X157804054Y-61699351D01*
X157800272Y-61688301D01*
X157787870Y-61645610D01*
X157787869Y-61645609D01*
X157787869Y-61645607D01*
X157777421Y-61627941D01*
X157768871Y-61610487D01*
X157761319Y-61591412D01*
X157735177Y-61555431D01*
X157728777Y-61545689D01*
X157706135Y-61507402D01*
X157691633Y-61492900D01*
X157678995Y-61478103D01*
X157666942Y-61461513D01*
X157632673Y-61433163D01*
X157624034Y-61425301D01*
X152945914Y-56747181D01*
X152915664Y-56697818D01*
X152911122Y-56640102D01*
X152933277Y-56586615D01*
X152977300Y-56549015D01*
X153033595Y-56535500D01*
X153164305Y-56535500D01*
X153202623Y-56541569D01*
X153237190Y-56559182D01*
X153365568Y-56652454D01*
X153531509Y-56726336D01*
X153709177Y-56764100D01*
X153709179Y-56764100D01*
X153890821Y-56764100D01*
X153890823Y-56764100D01*
X154068490Y-56726336D01*
X154068491Y-56726335D01*
X154068493Y-56726335D01*
X154234430Y-56652455D01*
X154325051Y-56586615D01*
X154381380Y-56545690D01*
X154502923Y-56410703D01*
X154593743Y-56253397D01*
X154614570Y-56189297D01*
X154649873Y-56080646D01*
X154668860Y-55900000D01*
X154649873Y-55719354D01*
X154593743Y-55546603D01*
X154593743Y-55546602D01*
X154502923Y-55389296D01*
X154381380Y-55254309D01*
X154234431Y-55147545D01*
X154068490Y-55073663D01*
X153890823Y-55035900D01*
X153890821Y-55035900D01*
X153709179Y-55035900D01*
X153709177Y-55035900D01*
X153531509Y-55073663D01*
X153365568Y-55147545D01*
X153237190Y-55240818D01*
X153202623Y-55258431D01*
X153164305Y-55264500D01*
X129983853Y-55264500D01*
X129963057Y-55262203D01*
X129891938Y-55264439D01*
X129888043Y-55264500D01*
X129860014Y-55264500D01*
X129855878Y-55265022D01*
X129844247Y-55265937D01*
X129799795Y-55267334D01*
X129780097Y-55273057D01*
X129761052Y-55277001D01*
X129740700Y-55279572D01*
X129699361Y-55295939D01*
X129688317Y-55299720D01*
X129645606Y-55312130D01*
X129627950Y-55322572D01*
X129610483Y-55331129D01*
X129591415Y-55338679D01*
X129555433Y-55364820D01*
X129545676Y-55371229D01*
X129507402Y-55393865D01*
X129492901Y-55408366D01*
X129478112Y-55420996D01*
X129461514Y-55433055D01*
X129433159Y-55467330D01*
X129425298Y-55475968D01*
X128873086Y-56028181D01*
X128832858Y-56055061D01*
X128785405Y-56064500D01*
X113435695Y-56064500D01*
X113397377Y-56058431D01*
X113362810Y-56040818D01*
X113234431Y-55947545D01*
X113068490Y-55873663D01*
X112890823Y-55835900D01*
X112890821Y-55835900D01*
X112709179Y-55835900D01*
X112709177Y-55835900D01*
X112531509Y-55873663D01*
X112365568Y-55947545D01*
X112218619Y-56054309D01*
X112097076Y-56189296D01*
X112006256Y-56346602D01*
X111950127Y-56519352D01*
X111931140Y-56699999D01*
X111950127Y-56880647D01*
X112006256Y-57053397D01*
X112097076Y-57210703D01*
X112218619Y-57345690D01*
X112365568Y-57452454D01*
X112531509Y-57526336D01*
X112709177Y-57564100D01*
X112709179Y-57564100D01*
X112890821Y-57564100D01*
X112890823Y-57564100D01*
X113068490Y-57526336D01*
X113068491Y-57526335D01*
X113068493Y-57526335D01*
X113234430Y-57452455D01*
X113325051Y-57386615D01*
X113362810Y-57359182D01*
X113397377Y-57341569D01*
X113435695Y-57335500D01*
X115666405Y-57335500D01*
X115722700Y-57349015D01*
X115766723Y-57386615D01*
X115788878Y-57440102D01*
X115784336Y-57497818D01*
X115754086Y-57547181D01*
X112909922Y-60391343D01*
X112893593Y-60404426D01*
X112844898Y-60456281D01*
X112842190Y-60459076D01*
X112822359Y-60478907D01*
X112819798Y-60482209D01*
X112812219Y-60491082D01*
X112781781Y-60523495D01*
X112771901Y-60541467D01*
X112761224Y-60557721D01*
X112748649Y-60573932D01*
X112730986Y-60614748D01*
X112725850Y-60625232D01*
X112704430Y-60664196D01*
X112699330Y-60684061D01*
X112693029Y-60702464D01*
X112684882Y-60721290D01*
X112677926Y-60765212D01*
X112675558Y-60776650D01*
X112664500Y-60819719D01*
X112664500Y-60840226D01*
X112662973Y-60859625D01*
X112659765Y-60879877D01*
X112663950Y-60924151D01*
X112664500Y-60935820D01*
X112664500Y-69585405D01*
X112655061Y-69632858D01*
X112628181Y-69673086D01*
X112107086Y-70194181D01*
X112066858Y-70221061D01*
X112019405Y-70230500D01*
X108103562Y-70230500D01*
X108046305Y-70216489D01*
X108001988Y-70177625D01*
X107909977Y-70046219D01*
X107752781Y-69889023D01*
X107570677Y-69761512D01*
X107456738Y-69708381D01*
X107404563Y-69662625D01*
X107385144Y-69596000D01*
X107404563Y-69529375D01*
X107456739Y-69483618D01*
X107570677Y-69430488D01*
X107752781Y-69302977D01*
X107909977Y-69145781D01*
X108037488Y-68963677D01*
X108131440Y-68762196D01*
X108188978Y-68547463D01*
X108208353Y-68326000D01*
X108188978Y-68104537D01*
X108131440Y-67889804D01*
X108037488Y-67688324D01*
X107909977Y-67506219D01*
X107752781Y-67349023D01*
X107570677Y-67221512D01*
X107526869Y-67201084D01*
X107446683Y-67163692D01*
X107394507Y-67117934D01*
X107375088Y-67051309D01*
X107394508Y-66984684D01*
X107446684Y-66938927D01*
X107566412Y-66883097D01*
X107631187Y-66837740D01*
X106933001Y-66139553D01*
X106933000Y-66139553D01*
X106234812Y-66837740D01*
X106299592Y-66883100D01*
X106419316Y-66938928D01*
X106471492Y-66984684D01*
X106490912Y-67051309D01*
X106471493Y-67117934D01*
X106419318Y-67163692D01*
X106295321Y-67221513D01*
X106113218Y-67349023D01*
X105956023Y-67506218D01*
X105828512Y-67688323D01*
X105734560Y-67889802D01*
X105677021Y-68104539D01*
X105657646Y-68326000D01*
X105677021Y-68547460D01*
X105734560Y-68762197D01*
X105752188Y-68800000D01*
X105828512Y-68963677D01*
X105956023Y-69145781D01*
X106113219Y-69302977D01*
X106295323Y-69430488D01*
X106376293Y-69468245D01*
X106409260Y-69483618D01*
X106461436Y-69529375D01*
X106480855Y-69596000D01*
X106461436Y-69662625D01*
X106409260Y-69708382D01*
X106295323Y-69761512D01*
X106113218Y-69889023D01*
X105956023Y-70046218D01*
X105828512Y-70228323D01*
X105734560Y-70429802D01*
X105677021Y-70644539D01*
X105657646Y-70866000D01*
X105677021Y-71087460D01*
X105734560Y-71302197D01*
X105776916Y-71393029D01*
X105828512Y-71503677D01*
X105956023Y-71685781D01*
X106113219Y-71842977D01*
X106295323Y-71970488D01*
X106358610Y-71999999D01*
X106409260Y-72023618D01*
X106461436Y-72069375D01*
X106480855Y-72136000D01*
X106461436Y-72202625D01*
X106409260Y-72248382D01*
X106295323Y-72301512D01*
X106113218Y-72429023D01*
X105956023Y-72586218D01*
X105828512Y-72768323D01*
X105734560Y-72969802D01*
X105677021Y-73184539D01*
X105657646Y-73405999D01*
X105677021Y-73627460D01*
X105677022Y-73627463D01*
X105734560Y-73842196D01*
X105828512Y-74043677D01*
X105956023Y-74225781D01*
X106113219Y-74382977D01*
X106295323Y-74510488D01*
X106496804Y-74604440D01*
X106711537Y-74661978D01*
X106933000Y-74681353D01*
X107154463Y-74661978D01*
X107369196Y-74604440D01*
X107570677Y-74510488D01*
X107752781Y-74382977D01*
X107909977Y-74225781D01*
X108037488Y-74043677D01*
X108123559Y-73859095D01*
X108169317Y-73806919D01*
X108235942Y-73787500D01*
X114737406Y-73787500D01*
X114784859Y-73796939D01*
X114825087Y-73823819D01*
X116191341Y-75190074D01*
X116204429Y-75206409D01*
X116256280Y-75255100D01*
X116259077Y-75257810D01*
X116278906Y-75277639D01*
X116282202Y-75280195D01*
X116291075Y-75287773D01*
X116323494Y-75318217D01*
X116341461Y-75328094D01*
X116357724Y-75338776D01*
X116373933Y-75351350D01*
X116414746Y-75369011D01*
X116425232Y-75374148D01*
X116464193Y-75395567D01*
X116464197Y-75395569D01*
X116484067Y-75400670D01*
X116502462Y-75406968D01*
X116521292Y-75415117D01*
X116565219Y-75422073D01*
X116576642Y-75424439D01*
X116619718Y-75435500D01*
X116640226Y-75435500D01*
X116659624Y-75437026D01*
X116679879Y-75440235D01*
X116724150Y-75436050D01*
X116735820Y-75435500D01*
X130928204Y-75435500D01*
X130951438Y-75437696D01*
X130959779Y-75439287D01*
X131016077Y-75435744D01*
X131023863Y-75435500D01*
X131039980Y-75435500D01*
X131039983Y-75435500D01*
X131055990Y-75433477D01*
X131063704Y-75432747D01*
X131120027Y-75429205D01*
X131128102Y-75426581D01*
X131150872Y-75421491D01*
X131159299Y-75420427D01*
X131211771Y-75399650D01*
X131219068Y-75397023D01*
X131272733Y-75379588D01*
X131279893Y-75375043D01*
X131300704Y-75364439D01*
X131308588Y-75361319D01*
X131354249Y-75328143D01*
X131360640Y-75323799D01*
X131408303Y-75293553D01*
X131414116Y-75287361D01*
X131431620Y-75271930D01*
X131438487Y-75266942D01*
X131474457Y-75223459D01*
X131479586Y-75217642D01*
X131518217Y-75176506D01*
X131522307Y-75169064D01*
X131535424Y-75149763D01*
X131540835Y-75143224D01*
X131564856Y-75092175D01*
X131568389Y-75085242D01*
X131579302Y-75065391D01*
X131600279Y-75037451D01*
X132207826Y-74429904D01*
X132263412Y-74397812D01*
X132327600Y-74397813D01*
X132365535Y-74407978D01*
X132587000Y-74427353D01*
X132808463Y-74407978D01*
X133023196Y-74350440D01*
X133224677Y-74256488D01*
X133406781Y-74128977D01*
X133563977Y-73971781D01*
X133655989Y-73840373D01*
X133700305Y-73801511D01*
X133757562Y-73787500D01*
X134337406Y-73787500D01*
X134384859Y-73796939D01*
X134425087Y-73823819D01*
X144451338Y-83850070D01*
X144464426Y-83866405D01*
X144516297Y-83915115D01*
X144519094Y-83917826D01*
X144538906Y-83937638D01*
X144542204Y-83940196D01*
X144551069Y-83947769D01*
X144583491Y-83978215D01*
X144583493Y-83978216D01*
X144583494Y-83978217D01*
X144601462Y-83988095D01*
X144617722Y-83998775D01*
X144633933Y-84011349D01*
X144674756Y-84029014D01*
X144685223Y-84034143D01*
X144724197Y-84055569D01*
X144744062Y-84060669D01*
X144762462Y-84066968D01*
X144781292Y-84075117D01*
X144825219Y-84082073D01*
X144836646Y-84084440D01*
X144879718Y-84095500D01*
X144900226Y-84095500D01*
X144919624Y-84097026D01*
X144939879Y-84100235D01*
X144984150Y-84096050D01*
X144995820Y-84095500D01*
X149245406Y-84095500D01*
X149292859Y-84104939D01*
X149333087Y-84131819D01*
X151013586Y-85812318D01*
X151045680Y-85867906D01*
X151045680Y-85932093D01*
X151013586Y-85987680D01*
X150692103Y-86309162D01*
X150642178Y-86339593D01*
X150583859Y-86343764D01*
X150530112Y-86320748D01*
X150488463Y-86289570D01*
X150351465Y-86238471D01*
X150321179Y-86235215D01*
X150290898Y-86231960D01*
X148415622Y-86231960D01*
X148388705Y-86234853D01*
X148355054Y-86238471D01*
X148218056Y-86289570D01*
X148100998Y-86377198D01*
X148013370Y-86494256D01*
X147962271Y-86631254D01*
X147959587Y-86656222D01*
X147956448Y-86685429D01*
X147955760Y-86691826D01*
X147955760Y-88567094D01*
X147962271Y-88627665D01*
X148013370Y-88764663D01*
X148100998Y-88881721D01*
X148218056Y-88969349D01*
X148355054Y-89020448D01*
X148355057Y-89020448D01*
X148355059Y-89020449D01*
X148415622Y-89026960D01*
X149787560Y-89026960D01*
X149849560Y-89043573D01*
X149894947Y-89088960D01*
X149911560Y-89150960D01*
X149911560Y-89725893D01*
X149897811Y-89782644D01*
X149859614Y-89826810D01*
X149805438Y-89848597D01*
X149747298Y-89843174D01*
X149697505Y-89826080D01*
X149469060Y-89787960D01*
X149237460Y-89787960D01*
X149009016Y-89826080D01*
X148789971Y-89901278D01*
X148586274Y-90011513D01*
X148403518Y-90153759D01*
X148403515Y-90153761D01*
X148403515Y-90153762D01*
X148301994Y-90264043D01*
X148246655Y-90324157D01*
X148119983Y-90518043D01*
X148026951Y-90730133D01*
X148026949Y-90730137D01*
X148026950Y-90730137D01*
X147971895Y-90947545D01*
X147970094Y-90954656D01*
X147950969Y-91185459D01*
X147970094Y-91416263D01*
X147970094Y-91416265D01*
X147970095Y-91416269D01*
X148016338Y-91598876D01*
X148026951Y-91640786D01*
X148079517Y-91760623D01*
X148119983Y-91852876D01*
X148246656Y-92046764D01*
X148403515Y-92217158D01*
X148403518Y-92217160D01*
X148586274Y-92359406D01*
X148586276Y-92359407D01*
X148586280Y-92359410D01*
X148789967Y-92469640D01*
X149009018Y-92544840D01*
X149069134Y-92554871D01*
X149129838Y-92583390D01*
X149166812Y-92639349D01*
X149169238Y-92706376D01*
X149136405Y-92764861D01*
X147643922Y-94257343D01*
X147627593Y-94270426D01*
X147578898Y-94322281D01*
X147576190Y-94325076D01*
X147556359Y-94344907D01*
X147553798Y-94348209D01*
X147546219Y-94357082D01*
X147515781Y-94389495D01*
X147505901Y-94407467D01*
X147495224Y-94423721D01*
X147482649Y-94439932D01*
X147464986Y-94480748D01*
X147459850Y-94491232D01*
X147438430Y-94530196D01*
X147433330Y-94550061D01*
X147427029Y-94568464D01*
X147418882Y-94587290D01*
X147411926Y-94631212D01*
X147409558Y-94642645D01*
X147406799Y-94653397D01*
X147398500Y-94685719D01*
X147398500Y-94706226D01*
X147396973Y-94725625D01*
X147393765Y-94745877D01*
X147397950Y-94790151D01*
X147398500Y-94801820D01*
X147398500Y-97953179D01*
X147386421Y-98006562D01*
X147352536Y-98049545D01*
X147303447Y-98073753D01*
X147248719Y-98074469D01*
X147084483Y-98039560D01*
X147084481Y-98039560D01*
X147002309Y-98039560D01*
X146984684Y-98037500D01*
X146980565Y-98037500D01*
X146958038Y-98035198D01*
X146890705Y-98037157D01*
X146880710Y-98037448D01*
X146877106Y-98037500D01*
X143918226Y-98037500D01*
X143867791Y-98026780D01*
X143854802Y-98020997D01*
X143822381Y-98006562D01*
X143748490Y-97973663D01*
X143570823Y-97935900D01*
X143570821Y-97935900D01*
X143389179Y-97935900D01*
X143389177Y-97935900D01*
X143211509Y-97973663D01*
X143045568Y-98047545D01*
X142898619Y-98154309D01*
X142777076Y-98289296D01*
X142686256Y-98446602D01*
X142630127Y-98619352D01*
X142611140Y-98800000D01*
X142630127Y-98980647D01*
X142686256Y-99153397D01*
X142777076Y-99310703D01*
X142898619Y-99445690D01*
X143045568Y-99552454D01*
X143045569Y-99552454D01*
X143045570Y-99552455D01*
X143081763Y-99568569D01*
X143211509Y-99626336D01*
X143389177Y-99664100D01*
X143389179Y-99664100D01*
X143570821Y-99664100D01*
X143570823Y-99664100D01*
X143748490Y-99626336D01*
X143748491Y-99626335D01*
X143748493Y-99626335D01*
X143867791Y-99573219D01*
X143918226Y-99562500D01*
X146390090Y-99562500D01*
X146428408Y-99568569D01*
X146462974Y-99586181D01*
X146518243Y-99626336D01*
X146559230Y-99656115D01*
X146725169Y-99729996D01*
X146902837Y-99767760D01*
X146902839Y-99767760D01*
X147084481Y-99767760D01*
X147084483Y-99767760D01*
X147248719Y-99732851D01*
X147303447Y-99733567D01*
X147352536Y-99757775D01*
X147386421Y-99800758D01*
X147398500Y-99854141D01*
X147398500Y-101076000D01*
X147381887Y-101138000D01*
X147336500Y-101183387D01*
X147274500Y-101200000D01*
X147010631Y-101200000D01*
X146952417Y-101185485D01*
X146907830Y-101145340D01*
X146887311Y-101088965D01*
X146883873Y-101056254D01*
X146828974Y-100887292D01*
X146827743Y-100883502D01*
X146736923Y-100726196D01*
X146615380Y-100591209D01*
X146468431Y-100484445D01*
X146302490Y-100410563D01*
X146124823Y-100372800D01*
X146124821Y-100372800D01*
X145943179Y-100372800D01*
X145943177Y-100372800D01*
X145765509Y-100410563D01*
X145599568Y-100484445D01*
X145495827Y-100559818D01*
X145461260Y-100577431D01*
X145422942Y-100583500D01*
X140833594Y-100583500D01*
X140786141Y-100574061D01*
X140745913Y-100547181D01*
X140511819Y-100313086D01*
X140484939Y-100272858D01*
X140475500Y-100225405D01*
X140475500Y-97543183D01*
X140483736Y-97498745D01*
X140507348Y-97460212D01*
X140542923Y-97420703D01*
X140587150Y-97344100D01*
X140633743Y-97263397D01*
X140643797Y-97232454D01*
X140689873Y-97090646D01*
X140708860Y-96910000D01*
X140689873Y-96729354D01*
X140660758Y-96639747D01*
X140633743Y-96556602D01*
X140542923Y-96399296D01*
X140421380Y-96264309D01*
X140274431Y-96157545D01*
X140108490Y-96083663D01*
X139930823Y-96045900D01*
X139930821Y-96045900D01*
X139749179Y-96045900D01*
X139749177Y-96045900D01*
X139571509Y-96083663D01*
X139405568Y-96157545D01*
X139258619Y-96264309D01*
X139137076Y-96399296D01*
X139046256Y-96556602D01*
X138990127Y-96729352D01*
X138971140Y-96910000D01*
X138990127Y-97090647D01*
X139046256Y-97263397D01*
X139137074Y-97420700D01*
X139137077Y-97420703D01*
X139172651Y-97460212D01*
X139196264Y-97498745D01*
X139204500Y-97543183D01*
X139204500Y-100456150D01*
X139202204Y-100476941D01*
X139204439Y-100548044D01*
X139204500Y-100551939D01*
X139204500Y-100579980D01*
X139205022Y-100584115D01*
X139205937Y-100595749D01*
X139207334Y-100640207D01*
X139213056Y-100659902D01*
X139217001Y-100678948D01*
X139219572Y-100699300D01*
X139235940Y-100740642D01*
X139239722Y-100751689D01*
X139252129Y-100794389D01*
X139262570Y-100812045D01*
X139271127Y-100829513D01*
X139278679Y-100848586D01*
X139304825Y-100884573D01*
X139311225Y-100894315D01*
X139333866Y-100932598D01*
X139333868Y-100932600D01*
X139348364Y-100947096D01*
X139361001Y-100961892D01*
X139373057Y-100978487D01*
X139375438Y-100980456D01*
X139411107Y-101028907D01*
X139419772Y-101088445D01*
X139399392Y-101145052D01*
X139354765Y-101185404D01*
X139296398Y-101200000D01*
X102124502Y-101200000D01*
X102062357Y-101183304D01*
X102016948Y-101137711D01*
X102000503Y-101075499D01*
X102005438Y-99854141D01*
X102023014Y-95504000D01*
X105403646Y-95504000D01*
X105423021Y-95725460D01*
X105480560Y-95940197D01*
X105494130Y-95969297D01*
X105574512Y-96141677D01*
X105702023Y-96323781D01*
X105859219Y-96480977D01*
X106041323Y-96608488D01*
X106242804Y-96702440D01*
X106457537Y-96759978D01*
X106679000Y-96779353D01*
X106900463Y-96759978D01*
X107115196Y-96702440D01*
X107316677Y-96608488D01*
X107498781Y-96480977D01*
X107655977Y-96323781D01*
X107783488Y-96141677D01*
X107877440Y-95940196D01*
X107926260Y-95757999D01*
X131057646Y-95757999D01*
X131077021Y-95979460D01*
X131120486Y-96141674D01*
X131134560Y-96194196D01*
X131228512Y-96395677D01*
X131356023Y-96577781D01*
X131513219Y-96734977D01*
X131695323Y-96862488D01*
X131896804Y-96956440D01*
X132111537Y-97013978D01*
X132333000Y-97033353D01*
X132554463Y-97013978D01*
X132769196Y-96956440D01*
X132970677Y-96862488D01*
X133152781Y-96734977D01*
X133309977Y-96577781D01*
X133437488Y-96395677D01*
X133531440Y-96194196D01*
X133588978Y-95979463D01*
X133608353Y-95758000D01*
X133605506Y-95725463D01*
X133594293Y-95597289D01*
X133588978Y-95536537D01*
X133531440Y-95321804D01*
X133437488Y-95120324D01*
X133309977Y-94938219D01*
X133152781Y-94781023D01*
X132970677Y-94653512D01*
X132856738Y-94600381D01*
X132804563Y-94554625D01*
X132785144Y-94488000D01*
X132804563Y-94421375D01*
X132856739Y-94375618D01*
X132970677Y-94322488D01*
X133152781Y-94194977D01*
X133309977Y-94037781D01*
X133401989Y-93906373D01*
X133446305Y-93867511D01*
X133503562Y-93853500D01*
X134578150Y-93853500D01*
X134598941Y-93855795D01*
X134601717Y-93855707D01*
X134601719Y-93855708D01*
X134670043Y-93853561D01*
X134673939Y-93853500D01*
X134701979Y-93853500D01*
X134701983Y-93853500D01*
X134706120Y-93852977D01*
X134717757Y-93852061D01*
X134762205Y-93850665D01*
X134781901Y-93844942D01*
X134800946Y-93840997D01*
X134821299Y-93838427D01*
X134862659Y-93822051D01*
X134873679Y-93818278D01*
X134916393Y-93805869D01*
X134934044Y-93795429D01*
X134951512Y-93786871D01*
X134970588Y-93779319D01*
X135006582Y-93753166D01*
X135016315Y-93746774D01*
X135054598Y-93724134D01*
X135069100Y-93709631D01*
X135083888Y-93697000D01*
X135100487Y-93684942D01*
X135128845Y-93650662D01*
X135136688Y-93642042D01*
X136178312Y-92600419D01*
X136218541Y-92573539D01*
X136265994Y-92564100D01*
X136270823Y-92564100D01*
X136448490Y-92526336D01*
X136448491Y-92526335D01*
X136448493Y-92526335D01*
X136614430Y-92452455D01*
X136761381Y-92345689D01*
X136882923Y-92210703D01*
X136973743Y-92053397D01*
X137029873Y-91880646D01*
X137048860Y-91700000D01*
X137029873Y-91519354D01*
X136975291Y-91351366D01*
X136973743Y-91346602D01*
X136882923Y-91189296D01*
X136761380Y-91054309D01*
X136614431Y-90947545D01*
X136448490Y-90873663D01*
X136270823Y-90835900D01*
X136270821Y-90835900D01*
X136089179Y-90835900D01*
X136089177Y-90835900D01*
X135911509Y-90873663D01*
X135745568Y-90947545D01*
X135598619Y-91054309D01*
X135477076Y-91189296D01*
X135386256Y-91346602D01*
X135330127Y-91519352D01*
X135319238Y-91622949D01*
X135307837Y-91663370D01*
X135283598Y-91697667D01*
X134435086Y-92546181D01*
X134394858Y-92573061D01*
X134347405Y-92582500D01*
X133503562Y-92582500D01*
X133446305Y-92568489D01*
X133401988Y-92529625D01*
X133309977Y-92398219D01*
X133152781Y-92241023D01*
X132970677Y-92113512D01*
X132856738Y-92060381D01*
X132804563Y-92014625D01*
X132785144Y-91948000D01*
X132804563Y-91881375D01*
X132856739Y-91835618D01*
X132970677Y-91782488D01*
X133152781Y-91654977D01*
X133309977Y-91497781D01*
X133437488Y-91315677D01*
X133531440Y-91114196D01*
X133588978Y-90899463D01*
X133608353Y-90678000D01*
X133605506Y-90645463D01*
X133588978Y-90456539D01*
X133588978Y-90456537D01*
X133531440Y-90241804D01*
X133437488Y-90040324D01*
X133309977Y-89858219D01*
X133152781Y-89701023D01*
X132970677Y-89573512D01*
X132925518Y-89552454D01*
X132846683Y-89515692D01*
X132794507Y-89469934D01*
X132775088Y-89403309D01*
X132794508Y-89336684D01*
X132846684Y-89290927D01*
X132966412Y-89235097D01*
X133031187Y-89189740D01*
X132333001Y-88491553D01*
X132333000Y-88491553D01*
X131634812Y-89189740D01*
X131699592Y-89235100D01*
X131819316Y-89290928D01*
X131871492Y-89336684D01*
X131890912Y-89403309D01*
X131871493Y-89469934D01*
X131819318Y-89515692D01*
X131695321Y-89573513D01*
X131513218Y-89701023D01*
X131356023Y-89858218D01*
X131228512Y-90040323D01*
X131134560Y-90241802D01*
X131077021Y-90456539D01*
X131057646Y-90677999D01*
X131077021Y-90899460D01*
X131134560Y-91114197D01*
X131156974Y-91162263D01*
X131228512Y-91315677D01*
X131356023Y-91497781D01*
X131513219Y-91654977D01*
X131695323Y-91782488D01*
X131776293Y-91820245D01*
X131809260Y-91835618D01*
X131861436Y-91881375D01*
X131880855Y-91948000D01*
X131861436Y-92014625D01*
X131809260Y-92060382D01*
X131695323Y-92113512D01*
X131513218Y-92241023D01*
X131356023Y-92398218D01*
X131228512Y-92580323D01*
X131134560Y-92781802D01*
X131077021Y-92996539D01*
X131057646Y-93218000D01*
X131077021Y-93439460D01*
X131134560Y-93654197D01*
X131179114Y-93749743D01*
X131228512Y-93855677D01*
X131356023Y-94037781D01*
X131513219Y-94194977D01*
X131695323Y-94322488D01*
X131760366Y-94352818D01*
X131809260Y-94375618D01*
X131861436Y-94421375D01*
X131880855Y-94488000D01*
X131861436Y-94554625D01*
X131809260Y-94600382D01*
X131695323Y-94653512D01*
X131513218Y-94781023D01*
X131356023Y-94938218D01*
X131228512Y-95120323D01*
X131134560Y-95321802D01*
X131077021Y-95536539D01*
X131057646Y-95757999D01*
X107926260Y-95757999D01*
X107934978Y-95725463D01*
X107954353Y-95504000D01*
X107934978Y-95282537D01*
X107877440Y-95067804D01*
X107783488Y-94866324D01*
X107655977Y-94684219D01*
X107498781Y-94527023D01*
X107316677Y-94399512D01*
X107202738Y-94346381D01*
X107150563Y-94300625D01*
X107131144Y-94234000D01*
X107150563Y-94167375D01*
X107202739Y-94121618D01*
X107207594Y-94119354D01*
X107316677Y-94068488D01*
X107498781Y-93940977D01*
X107655977Y-93783781D01*
X107747989Y-93652373D01*
X107792305Y-93613511D01*
X107849562Y-93599500D01*
X111152150Y-93599500D01*
X111172941Y-93601795D01*
X111175717Y-93601707D01*
X111175719Y-93601708D01*
X111244043Y-93599561D01*
X111247939Y-93599500D01*
X111275979Y-93599500D01*
X111275983Y-93599500D01*
X111280120Y-93598977D01*
X111291757Y-93598061D01*
X111336205Y-93596665D01*
X111355901Y-93590942D01*
X111374946Y-93586997D01*
X111395299Y-93584427D01*
X111436659Y-93568051D01*
X111447679Y-93564278D01*
X111490393Y-93551869D01*
X111508044Y-93541429D01*
X111525512Y-93532871D01*
X111544588Y-93525319D01*
X111580582Y-93499166D01*
X111590315Y-93492774D01*
X111628598Y-93470134D01*
X111643100Y-93455631D01*
X111657888Y-93443000D01*
X111674487Y-93430942D01*
X111702845Y-93396662D01*
X111710688Y-93388042D01*
X112298312Y-92800419D01*
X112338541Y-92773539D01*
X112385994Y-92764100D01*
X112390823Y-92764100D01*
X112568490Y-92726336D01*
X112568491Y-92726335D01*
X112568493Y-92726335D01*
X112734430Y-92652455D01*
X112843707Y-92573061D01*
X112881380Y-92545690D01*
X112897487Y-92527802D01*
X113002923Y-92410703D01*
X113093743Y-92253397D01*
X113149873Y-92080646D01*
X113168860Y-91900000D01*
X113149873Y-91719354D01*
X113114569Y-91610700D01*
X113093743Y-91546602D01*
X113002923Y-91389296D01*
X112881380Y-91254309D01*
X112734431Y-91147545D01*
X112568490Y-91073663D01*
X112390823Y-91035900D01*
X112390821Y-91035900D01*
X112209179Y-91035900D01*
X112209177Y-91035900D01*
X112031509Y-91073663D01*
X111865568Y-91147545D01*
X111718619Y-91254309D01*
X111597076Y-91389296D01*
X111506256Y-91546602D01*
X111450127Y-91719352D01*
X111439238Y-91822949D01*
X111427837Y-91863370D01*
X111403598Y-91897667D01*
X111009086Y-92292181D01*
X110968858Y-92319061D01*
X110921405Y-92328500D01*
X107849562Y-92328500D01*
X107792305Y-92314489D01*
X107747988Y-92275625D01*
X107655977Y-92144219D01*
X107498781Y-91987023D01*
X107316677Y-91859512D01*
X107316676Y-91859511D01*
X107316674Y-91859510D01*
X107202739Y-91806381D01*
X107150563Y-91760623D01*
X107131144Y-91693998D01*
X107150564Y-91627373D01*
X107202738Y-91581618D01*
X107316677Y-91528488D01*
X107498781Y-91400977D01*
X107655977Y-91243781D01*
X107783488Y-91061677D01*
X107844209Y-90931460D01*
X122296969Y-90931460D01*
X122316094Y-91162263D01*
X122316094Y-91162265D01*
X122316095Y-91162269D01*
X122372950Y-91386783D01*
X122372951Y-91386786D01*
X122379174Y-91400973D01*
X122465983Y-91598876D01*
X122592656Y-91792764D01*
X122749515Y-91963158D01*
X122749518Y-91963160D01*
X122932274Y-92105406D01*
X122932276Y-92105407D01*
X122932280Y-92105410D01*
X123135967Y-92215640D01*
X123355018Y-92290840D01*
X123583460Y-92328960D01*
X123815060Y-92328960D01*
X124043502Y-92290840D01*
X124262553Y-92215640D01*
X124466240Y-92105410D01*
X124649005Y-91963158D01*
X124805864Y-91792764D01*
X124932537Y-91598876D01*
X125025570Y-91386783D01*
X125082425Y-91162269D01*
X125101550Y-90931460D01*
X125082425Y-90700651D01*
X125025570Y-90476137D01*
X124932537Y-90264044D01*
X124805864Y-90070156D01*
X124649005Y-89899762D01*
X124595631Y-89858219D01*
X124466245Y-89757513D01*
X124466241Y-89757510D01*
X124466240Y-89757510D01*
X124262553Y-89647280D01*
X124262549Y-89647278D01*
X124262548Y-89647278D01*
X124043503Y-89572080D01*
X123815060Y-89533960D01*
X123583460Y-89533960D01*
X123355016Y-89572080D01*
X123135971Y-89647278D01*
X123135967Y-89647279D01*
X123135967Y-89647280D01*
X123054492Y-89691372D01*
X122932274Y-89757513D01*
X122749518Y-89899759D01*
X122749515Y-89899761D01*
X122749515Y-89899762D01*
X122646644Y-90011510D01*
X122592655Y-90070157D01*
X122465983Y-90264043D01*
X122372951Y-90476133D01*
X122372949Y-90476137D01*
X122372950Y-90476137D01*
X122321832Y-90677999D01*
X122316094Y-90700656D01*
X122296969Y-90931460D01*
X107844209Y-90931460D01*
X107877440Y-90860196D01*
X107934978Y-90645463D01*
X107954353Y-90424000D01*
X107934978Y-90202537D01*
X107877440Y-89987804D01*
X107783488Y-89786324D01*
X107655977Y-89604219D01*
X107498781Y-89447023D01*
X107316677Y-89319512D01*
X107272869Y-89299084D01*
X107192683Y-89261692D01*
X107140507Y-89215934D01*
X107121088Y-89149309D01*
X107140508Y-89082684D01*
X107192684Y-89036927D01*
X107312412Y-88981097D01*
X107377187Y-88935740D01*
X106679001Y-88237553D01*
X106679000Y-88237553D01*
X105980812Y-88935740D01*
X106045592Y-88981100D01*
X106165316Y-89036928D01*
X106217492Y-89082684D01*
X106236912Y-89149309D01*
X106217493Y-89215934D01*
X106165318Y-89261692D01*
X106041321Y-89319513D01*
X105859218Y-89447023D01*
X105702023Y-89604218D01*
X105574512Y-89786323D01*
X105480560Y-89987802D01*
X105423021Y-90202539D01*
X105403646Y-90423999D01*
X105423021Y-90645460D01*
X105480560Y-90860197D01*
X105508145Y-90919352D01*
X105574512Y-91061677D01*
X105702023Y-91243781D01*
X105859219Y-91400977D01*
X106041323Y-91528488D01*
X106122293Y-91566245D01*
X106155260Y-91581618D01*
X106207436Y-91627375D01*
X106226855Y-91694000D01*
X106207436Y-91760625D01*
X106155260Y-91806382D01*
X106041323Y-91859512D01*
X105859218Y-91987023D01*
X105702023Y-92144218D01*
X105574512Y-92326323D01*
X105480560Y-92527802D01*
X105423021Y-92742539D01*
X105403646Y-92964000D01*
X105423021Y-93185460D01*
X105480560Y-93400197D01*
X105525114Y-93495743D01*
X105574512Y-93601677D01*
X105702023Y-93783781D01*
X105859219Y-93940977D01*
X106041323Y-94068488D01*
X106122293Y-94106245D01*
X106155260Y-94121618D01*
X106207436Y-94167375D01*
X106226855Y-94234000D01*
X106207436Y-94300625D01*
X106155260Y-94346382D01*
X106041323Y-94399512D01*
X105859218Y-94527023D01*
X105702023Y-94684218D01*
X105574512Y-94866323D01*
X105480560Y-95067802D01*
X105423021Y-95282539D01*
X105403646Y-95504000D01*
X102023014Y-95504000D01*
X102053802Y-87883999D01*
X105412178Y-87883999D01*
X105431424Y-88103978D01*
X105488579Y-88317281D01*
X105581898Y-88517406D01*
X105627258Y-88582187D01*
X106325446Y-87884001D01*
X107032553Y-87884001D01*
X107730740Y-88582186D01*
X107776100Y-88517408D01*
X107869420Y-88317281D01*
X107870542Y-88313094D01*
X122301760Y-88313094D01*
X122308271Y-88373665D01*
X122359370Y-88510663D01*
X122446998Y-88627721D01*
X122564056Y-88715349D01*
X122701054Y-88766448D01*
X122701057Y-88766448D01*
X122701059Y-88766449D01*
X122761622Y-88772960D01*
X124636894Y-88772960D01*
X124636898Y-88772960D01*
X124697461Y-88766449D01*
X124697463Y-88766448D01*
X124697465Y-88766448D01*
X124775384Y-88737384D01*
X124834464Y-88715349D01*
X124951521Y-88627721D01*
X125039149Y-88510664D01*
X125090249Y-88373661D01*
X125096760Y-88313098D01*
X125096760Y-88137999D01*
X131066178Y-88137999D01*
X131085424Y-88357978D01*
X131142579Y-88571281D01*
X131235898Y-88771406D01*
X131281258Y-88836187D01*
X131979446Y-88138001D01*
X132686553Y-88138001D01*
X133384740Y-88836186D01*
X133430100Y-88771408D01*
X133523420Y-88571281D01*
X133580575Y-88357978D01*
X133599821Y-88137999D01*
X133580575Y-87918021D01*
X133523421Y-87704720D01*
X133430098Y-87504589D01*
X133384740Y-87439811D01*
X132686553Y-88138000D01*
X132686553Y-88138001D01*
X131979446Y-88138001D01*
X131979446Y-88138000D01*
X131281258Y-87439811D01*
X131281258Y-87439812D01*
X131235900Y-87504589D01*
X131142578Y-87704719D01*
X131085424Y-87918021D01*
X131066178Y-88137999D01*
X125096760Y-88137999D01*
X125096760Y-86437822D01*
X125090249Y-86377259D01*
X125090248Y-86377257D01*
X125090248Y-86377254D01*
X125039149Y-86240256D01*
X124951521Y-86123198D01*
X124834463Y-86035570D01*
X124697465Y-85984471D01*
X124667179Y-85981215D01*
X124636898Y-85977960D01*
X122761622Y-85977960D01*
X122734705Y-85980853D01*
X122701054Y-85984471D01*
X122564056Y-86035570D01*
X122446998Y-86123198D01*
X122359370Y-86240256D01*
X122308271Y-86377254D01*
X122301760Y-86437826D01*
X122301760Y-88313094D01*
X107870542Y-88313094D01*
X107926575Y-88103978D01*
X107945821Y-87883999D01*
X107926575Y-87664021D01*
X107869421Y-87450720D01*
X107776098Y-87250589D01*
X107730740Y-87185811D01*
X107032553Y-87884000D01*
X107032553Y-87884001D01*
X106325446Y-87884001D01*
X106325446Y-87884000D01*
X105627258Y-87185811D01*
X105627258Y-87185812D01*
X105581900Y-87250589D01*
X105488578Y-87450719D01*
X105431424Y-87664021D01*
X105412178Y-87883999D01*
X102053802Y-87883999D01*
X102064065Y-85344000D01*
X105403646Y-85344000D01*
X105423021Y-85565460D01*
X105480560Y-85780197D01*
X105498869Y-85819460D01*
X105574512Y-85981677D01*
X105702023Y-86163781D01*
X105859219Y-86320977D01*
X106041323Y-86448488D01*
X106139473Y-86494256D01*
X106165316Y-86506307D01*
X106217492Y-86552064D01*
X106236911Y-86618689D01*
X106217492Y-86685314D01*
X106165316Y-86731071D01*
X106045589Y-86786900D01*
X105980811Y-86832258D01*
X106678998Y-87530446D01*
X106678999Y-87530446D01*
X107377187Y-86832258D01*
X107312406Y-86786898D01*
X107192683Y-86731071D01*
X107140506Y-86685314D01*
X107121087Y-86618689D01*
X107140507Y-86552064D01*
X107192682Y-86506307D01*
X107285547Y-86463004D01*
X107316673Y-86448490D01*
X107316673Y-86448489D01*
X107316677Y-86448488D01*
X107498781Y-86320977D01*
X107655977Y-86163781D01*
X107783488Y-85981677D01*
X107877440Y-85780196D01*
X107926260Y-85598000D01*
X131057646Y-85598000D01*
X131077021Y-85819460D01*
X131134560Y-86034197D01*
X131135201Y-86035571D01*
X131228512Y-86235677D01*
X131356023Y-86417781D01*
X131513219Y-86574977D01*
X131695323Y-86702488D01*
X131779834Y-86741896D01*
X131819316Y-86760307D01*
X131871492Y-86806064D01*
X131890911Y-86872689D01*
X131871492Y-86939314D01*
X131819316Y-86985071D01*
X131699589Y-87040900D01*
X131634811Y-87086258D01*
X132332998Y-87784446D01*
X132332999Y-87784446D01*
X133031187Y-87086258D01*
X132966406Y-87040898D01*
X132846683Y-86985071D01*
X132794506Y-86939314D01*
X132775087Y-86872689D01*
X132794507Y-86806064D01*
X132846682Y-86760307D01*
X132970677Y-86702488D01*
X133152781Y-86574977D01*
X133309977Y-86417781D01*
X133437488Y-86235677D01*
X133531440Y-86034196D01*
X133588978Y-85819463D01*
X133608353Y-85598000D01*
X133588978Y-85376537D01*
X133531440Y-85161804D01*
X133437488Y-84960324D01*
X133309977Y-84778219D01*
X133152781Y-84621023D01*
X132970677Y-84493512D01*
X132970676Y-84493511D01*
X132970674Y-84493510D01*
X132856739Y-84440381D01*
X132804563Y-84394623D01*
X132785144Y-84327998D01*
X132804564Y-84261373D01*
X132856738Y-84215618D01*
X132970677Y-84162488D01*
X133152781Y-84034977D01*
X133309977Y-83877781D01*
X133437488Y-83695677D01*
X133531440Y-83494196D01*
X133588978Y-83279463D01*
X133608353Y-83058000D01*
X133588978Y-82836537D01*
X133531440Y-82621804D01*
X133437488Y-82420324D01*
X133309977Y-82238219D01*
X133152781Y-82081023D01*
X132970677Y-81953512D01*
X132877781Y-81910194D01*
X132769197Y-81859560D01*
X132554460Y-81802021D01*
X132333000Y-81782646D01*
X132111539Y-81802021D01*
X131896802Y-81859560D01*
X131695323Y-81953512D01*
X131513218Y-82081023D01*
X131356023Y-82238218D01*
X131228512Y-82420323D01*
X131134560Y-82621802D01*
X131077021Y-82836539D01*
X131057646Y-83058000D01*
X131077021Y-83279460D01*
X131120486Y-83441674D01*
X131134560Y-83494196D01*
X131228512Y-83695677D01*
X131356023Y-83877781D01*
X131513219Y-84034977D01*
X131695323Y-84162488D01*
X131776293Y-84200245D01*
X131809260Y-84215618D01*
X131861436Y-84261375D01*
X131880855Y-84328000D01*
X131861436Y-84394625D01*
X131809260Y-84440382D01*
X131695323Y-84493512D01*
X131513218Y-84621023D01*
X131356023Y-84778218D01*
X131228512Y-84960323D01*
X131134560Y-85161802D01*
X131077021Y-85376539D01*
X131057646Y-85598000D01*
X107926260Y-85598000D01*
X107934978Y-85565463D01*
X107954353Y-85344000D01*
X107934978Y-85122537D01*
X107877440Y-84907804D01*
X107783488Y-84706324D01*
X107655977Y-84524219D01*
X107498781Y-84367023D01*
X107316677Y-84239512D01*
X107202738Y-84186381D01*
X107150563Y-84140625D01*
X107131144Y-84074000D01*
X107150563Y-84007375D01*
X107202739Y-83961618D01*
X107218413Y-83954309D01*
X107316677Y-83908488D01*
X107498781Y-83780977D01*
X107655977Y-83623781D01*
X107783488Y-83441677D01*
X107877440Y-83240196D01*
X107934978Y-83025463D01*
X107954353Y-82804000D01*
X107934978Y-82582537D01*
X107877440Y-82367804D01*
X107783488Y-82166324D01*
X107655977Y-81984219D01*
X107498781Y-81827023D01*
X107316677Y-81699512D01*
X107223781Y-81656194D01*
X107115197Y-81605560D01*
X106900460Y-81548021D01*
X106679000Y-81528646D01*
X106457539Y-81548021D01*
X106242802Y-81605560D01*
X106041323Y-81699512D01*
X105859218Y-81827023D01*
X105702023Y-81984218D01*
X105574512Y-82166323D01*
X105480560Y-82367802D01*
X105423021Y-82582539D01*
X105403646Y-82804000D01*
X105423021Y-83025460D01*
X105434935Y-83069925D01*
X105480560Y-83240196D01*
X105574512Y-83441677D01*
X105702023Y-83623781D01*
X105859219Y-83780977D01*
X106041323Y-83908488D01*
X106109289Y-83940181D01*
X106155260Y-83961618D01*
X106207436Y-84007375D01*
X106226855Y-84074000D01*
X106207436Y-84140625D01*
X106155260Y-84186382D01*
X106041323Y-84239512D01*
X105859218Y-84367023D01*
X105702023Y-84524218D01*
X105574512Y-84706323D01*
X105480560Y-84907802D01*
X105423021Y-85122539D01*
X105403646Y-85344000D01*
X102064065Y-85344000D01*
X102086869Y-79700000D01*
X108031140Y-79700000D01*
X108050127Y-79880647D01*
X108106256Y-80053397D01*
X108197076Y-80210703D01*
X108318619Y-80345690D01*
X108465568Y-80452454D01*
X108631509Y-80526336D01*
X108809177Y-80564100D01*
X108809179Y-80564100D01*
X108814006Y-80564100D01*
X108861459Y-80573539D01*
X108901687Y-80600419D01*
X109703598Y-81402331D01*
X109727837Y-81436628D01*
X109739238Y-81477049D01*
X109750127Y-81580647D01*
X109806256Y-81753397D01*
X109897076Y-81910703D01*
X110018619Y-82045690D01*
X110165568Y-82152454D01*
X110331509Y-82226336D01*
X110509177Y-82264100D01*
X110509179Y-82264100D01*
X110690821Y-82264100D01*
X110690823Y-82264100D01*
X110868490Y-82226336D01*
X110868491Y-82226335D01*
X110868493Y-82226335D01*
X111034430Y-82152455D01*
X111181381Y-82045689D01*
X111302923Y-81910703D01*
X111393743Y-81753397D01*
X111449873Y-81580646D01*
X111468860Y-81400000D01*
X111449873Y-81219354D01*
X111393743Y-81046603D01*
X111393743Y-81046602D01*
X111302923Y-80889296D01*
X111181380Y-80754309D01*
X111034431Y-80647545D01*
X110868490Y-80573663D01*
X110690823Y-80535900D01*
X110690821Y-80535900D01*
X110685994Y-80535900D01*
X110638541Y-80526461D01*
X110598313Y-80499581D01*
X109796400Y-79697667D01*
X109772160Y-79663369D01*
X109760761Y-79622952D01*
X109749873Y-79519354D01*
X109693743Y-79346603D01*
X109693743Y-79346602D01*
X109602923Y-79189296D01*
X109481380Y-79054309D01*
X109334431Y-78947545D01*
X109168490Y-78873663D01*
X108990823Y-78835900D01*
X108990821Y-78835900D01*
X108809179Y-78835900D01*
X108809177Y-78835900D01*
X108631509Y-78873663D01*
X108465568Y-78947545D01*
X108318619Y-79054309D01*
X108197076Y-79189296D01*
X108106256Y-79346602D01*
X108050127Y-79519352D01*
X108031140Y-79700000D01*
X102086869Y-79700000D01*
X102143086Y-65786000D01*
X105666178Y-65786000D01*
X105685424Y-66005978D01*
X105742579Y-66219281D01*
X105835898Y-66419406D01*
X105881258Y-66484187D01*
X106579446Y-65786001D01*
X107286553Y-65786001D01*
X107984740Y-66484186D01*
X108030100Y-66419408D01*
X108123420Y-66219281D01*
X108180575Y-66005978D01*
X108199821Y-65786000D01*
X108180575Y-65566021D01*
X108123421Y-65352720D01*
X108030098Y-65152589D01*
X107984740Y-65087811D01*
X107286553Y-65786000D01*
X107286553Y-65786001D01*
X106579446Y-65786001D01*
X106579446Y-65786000D01*
X105881258Y-65087811D01*
X105881258Y-65087812D01*
X105835900Y-65152589D01*
X105742578Y-65352719D01*
X105685424Y-65566021D01*
X105666178Y-65786000D01*
X102143086Y-65786000D01*
X102153349Y-63245999D01*
X105657646Y-63245999D01*
X105677021Y-63467460D01*
X105734560Y-63682197D01*
X105767762Y-63753399D01*
X105828512Y-63883677D01*
X105956023Y-64065781D01*
X106113219Y-64222977D01*
X106295323Y-64350488D01*
X106397732Y-64398242D01*
X106419316Y-64408307D01*
X106471492Y-64454064D01*
X106490911Y-64520689D01*
X106471492Y-64587314D01*
X106419316Y-64633071D01*
X106299589Y-64688900D01*
X106234812Y-64734258D01*
X106234811Y-64734258D01*
X106933000Y-65432446D01*
X106933001Y-65432446D01*
X107631187Y-64734258D01*
X107566406Y-64688898D01*
X107446683Y-64633071D01*
X107394506Y-64587314D01*
X107375087Y-64520689D01*
X107394507Y-64454064D01*
X107446682Y-64408307D01*
X107570677Y-64350488D01*
X107752781Y-64222977D01*
X107909977Y-64065781D01*
X108037488Y-63883677D01*
X108131440Y-63682196D01*
X108188978Y-63467463D01*
X108208353Y-63246000D01*
X108205506Y-63213463D01*
X108190908Y-63046602D01*
X108188978Y-63024537D01*
X108131440Y-62809804D01*
X108037488Y-62608324D01*
X107909977Y-62426219D01*
X107752781Y-62269023D01*
X107570677Y-62141512D01*
X107456738Y-62088381D01*
X107404563Y-62042625D01*
X107385144Y-61976000D01*
X107404563Y-61909375D01*
X107456739Y-61863618D01*
X107570677Y-61810488D01*
X107752781Y-61682977D01*
X107909977Y-61525781D01*
X108037488Y-61343677D01*
X108131440Y-61142196D01*
X108188978Y-60927463D01*
X108208353Y-60706000D01*
X108207260Y-60693512D01*
X108194706Y-60550014D01*
X108188978Y-60484537D01*
X108131440Y-60269804D01*
X108037488Y-60068324D01*
X107909977Y-59886219D01*
X107752781Y-59729023D01*
X107570677Y-59601512D01*
X107477781Y-59558194D01*
X107369197Y-59507560D01*
X107154460Y-59450021D01*
X106933000Y-59430646D01*
X106711539Y-59450021D01*
X106496802Y-59507560D01*
X106295323Y-59601512D01*
X106113218Y-59729023D01*
X105956023Y-59886218D01*
X105828512Y-60068323D01*
X105734560Y-60269802D01*
X105677021Y-60484539D01*
X105657646Y-60705999D01*
X105677021Y-60927460D01*
X105723253Y-61100000D01*
X105734560Y-61142196D01*
X105828512Y-61343677D01*
X105956023Y-61525781D01*
X106113219Y-61682977D01*
X106295323Y-61810488D01*
X106367707Y-61844241D01*
X106409260Y-61863618D01*
X106461436Y-61909375D01*
X106480855Y-61976000D01*
X106461436Y-62042625D01*
X106409260Y-62088382D01*
X106295323Y-62141512D01*
X106113218Y-62269023D01*
X105956023Y-62426218D01*
X105828512Y-62608323D01*
X105734560Y-62809802D01*
X105677021Y-63024539D01*
X105657646Y-63245999D01*
X102153349Y-63245999D01*
X102189104Y-54396638D01*
X112651500Y-54396638D01*
X112654755Y-54426919D01*
X112658011Y-54457205D01*
X112709110Y-54594203D01*
X112796738Y-54711261D01*
X112913796Y-54798889D01*
X113050794Y-54849988D01*
X113050797Y-54849988D01*
X113050799Y-54849989D01*
X113111362Y-54856500D01*
X114208634Y-54856500D01*
X114208638Y-54856500D01*
X114269201Y-54849989D01*
X114406204Y-54798889D01*
X114411097Y-54795225D01*
X114476010Y-54770847D01*
X114530044Y-54782223D01*
X114530508Y-54780695D01*
X114542193Y-54784239D01*
X114542196Y-54784241D01*
X114732299Y-54841908D01*
X114930000Y-54861380D01*
X115127701Y-54841908D01*
X115317804Y-54784241D01*
X115493004Y-54690595D01*
X115493003Y-54690595D01*
X115503775Y-54684838D01*
X115504887Y-54686919D01*
X115536842Y-54671160D01*
X115593158Y-54671160D01*
X115625112Y-54686919D01*
X115626225Y-54684838D01*
X115636996Y-54690595D01*
X115812196Y-54784241D01*
X116002299Y-54841908D01*
X116200000Y-54861380D01*
X116397701Y-54841908D01*
X116587804Y-54784241D01*
X116763004Y-54690595D01*
X116763003Y-54690595D01*
X116773775Y-54684838D01*
X116774887Y-54686919D01*
X116806842Y-54671160D01*
X116863158Y-54671160D01*
X116895112Y-54686919D01*
X116896225Y-54684838D01*
X116906996Y-54690595D01*
X117082196Y-54784241D01*
X117272299Y-54841908D01*
X117470000Y-54861380D01*
X117667701Y-54841908D01*
X117857804Y-54784241D01*
X118033004Y-54690595D01*
X118033003Y-54690595D01*
X118043775Y-54684838D01*
X118044887Y-54686919D01*
X118076842Y-54671160D01*
X118133158Y-54671160D01*
X118165112Y-54686919D01*
X118166225Y-54684838D01*
X118176996Y-54690595D01*
X118352196Y-54784241D01*
X118542299Y-54841908D01*
X118740000Y-54861380D01*
X118937701Y-54841908D01*
X119127804Y-54784241D01*
X119303004Y-54690595D01*
X119303003Y-54690595D01*
X119313775Y-54684838D01*
X119314887Y-54686919D01*
X119346842Y-54671160D01*
X119403158Y-54671160D01*
X119435112Y-54686919D01*
X119436225Y-54684838D01*
X119446996Y-54690595D01*
X119622196Y-54784241D01*
X119812299Y-54841908D01*
X120010000Y-54861380D01*
X120207701Y-54841908D01*
X120397804Y-54784241D01*
X120573004Y-54690595D01*
X120573003Y-54690595D01*
X120583775Y-54684838D01*
X120584887Y-54686919D01*
X120616842Y-54671160D01*
X120673158Y-54671160D01*
X120705112Y-54686919D01*
X120706225Y-54684838D01*
X120716996Y-54690595D01*
X120892196Y-54784241D01*
X121082299Y-54841908D01*
X121280000Y-54861380D01*
X121477701Y-54841908D01*
X121667804Y-54784241D01*
X121843004Y-54690595D01*
X121843003Y-54690595D01*
X121853775Y-54684838D01*
X121854887Y-54686919D01*
X121886842Y-54671160D01*
X121943158Y-54671160D01*
X121975112Y-54686919D01*
X121976225Y-54684838D01*
X121986996Y-54690595D01*
X122162196Y-54784241D01*
X122352299Y-54841908D01*
X122550000Y-54861380D01*
X122747701Y-54841908D01*
X122937804Y-54784241D01*
X123113004Y-54690595D01*
X123266568Y-54564568D01*
X123392595Y-54411004D01*
X123486241Y-54235804D01*
X123543908Y-54045701D01*
X123563380Y-53848000D01*
X123543908Y-53650299D01*
X123486241Y-53460196D01*
X123392595Y-53284996D01*
X123266568Y-53131432D01*
X123113004Y-53005405D01*
X123113003Y-53005404D01*
X123005728Y-52948065D01*
X122937804Y-52911759D01*
X122747701Y-52854092D01*
X122747698Y-52854091D01*
X122550000Y-52834620D01*
X122352301Y-52854091D01*
X122288931Y-52873314D01*
X122162196Y-52911759D01*
X122162192Y-52911760D01*
X122162192Y-52911761D01*
X121976225Y-53011162D01*
X121975113Y-53009083D01*
X121943149Y-53024841D01*
X121886851Y-53024841D01*
X121854886Y-53009083D01*
X121853775Y-53011162D01*
X121735728Y-52948065D01*
X121667804Y-52911759D01*
X121477701Y-52854092D01*
X121477698Y-52854091D01*
X121280000Y-52834620D01*
X121082301Y-52854091D01*
X121018931Y-52873314D01*
X120892196Y-52911759D01*
X120892192Y-52911760D01*
X120892192Y-52911761D01*
X120706225Y-53011162D01*
X120705113Y-53009083D01*
X120673149Y-53024841D01*
X120616851Y-53024841D01*
X120584886Y-53009083D01*
X120583775Y-53011162D01*
X120465728Y-52948065D01*
X120397804Y-52911759D01*
X120207701Y-52854092D01*
X120207698Y-52854091D01*
X120010000Y-52834620D01*
X119812301Y-52854091D01*
X119748931Y-52873314D01*
X119622196Y-52911759D01*
X119622192Y-52911760D01*
X119622192Y-52911761D01*
X119436225Y-53011162D01*
X119435113Y-53009083D01*
X119403149Y-53024841D01*
X119346851Y-53024841D01*
X119314886Y-53009083D01*
X119313775Y-53011162D01*
X119195728Y-52948065D01*
X119127804Y-52911759D01*
X118937701Y-52854092D01*
X118937698Y-52854091D01*
X118740000Y-52834620D01*
X118542301Y-52854091D01*
X118478931Y-52873314D01*
X118352196Y-52911759D01*
X118352192Y-52911760D01*
X118352192Y-52911761D01*
X118166225Y-53011162D01*
X118165113Y-53009083D01*
X118133149Y-53024841D01*
X118076851Y-53024841D01*
X118044886Y-53009083D01*
X118043775Y-53011162D01*
X117925728Y-52948065D01*
X117857804Y-52911759D01*
X117667701Y-52854092D01*
X117667698Y-52854091D01*
X117470000Y-52834620D01*
X117272301Y-52854091D01*
X117208931Y-52873314D01*
X117082196Y-52911759D01*
X117082192Y-52911760D01*
X117082192Y-52911761D01*
X116896225Y-53011162D01*
X116895113Y-53009083D01*
X116863149Y-53024841D01*
X116806851Y-53024841D01*
X116774886Y-53009083D01*
X116773775Y-53011162D01*
X116655728Y-52948065D01*
X116587804Y-52911759D01*
X116397701Y-52854092D01*
X116397698Y-52854091D01*
X116200000Y-52834620D01*
X116002301Y-52854091D01*
X115938931Y-52873314D01*
X115812196Y-52911759D01*
X115812192Y-52911760D01*
X115812192Y-52911761D01*
X115626225Y-53011162D01*
X115625113Y-53009083D01*
X115593149Y-53024841D01*
X115536851Y-53024841D01*
X115504886Y-53009083D01*
X115503775Y-53011162D01*
X115385728Y-52948065D01*
X115317804Y-52911759D01*
X115127701Y-52854092D01*
X115127698Y-52854091D01*
X114930000Y-52834620D01*
X114732300Y-52854091D01*
X114530509Y-52915304D01*
X114530045Y-52913776D01*
X114476011Y-52925152D01*
X114411100Y-52900776D01*
X114406203Y-52897110D01*
X114269205Y-52846011D01*
X114238919Y-52842755D01*
X114208638Y-52839500D01*
X113111362Y-52839500D01*
X113084445Y-52842393D01*
X113050794Y-52846011D01*
X112913796Y-52897110D01*
X112796738Y-52984738D01*
X112709110Y-53101796D01*
X112658011Y-53238794D01*
X112654393Y-53272445D01*
X112651500Y-53299362D01*
X112651500Y-54396638D01*
X102189104Y-54396638D01*
X102199502Y-51823196D01*
X102216230Y-51761497D01*
X102261470Y-51716329D01*
X102323196Y-51699698D01*
X143000000Y-51600000D01*
X143000000Y-38624000D01*
X143016613Y-38562000D01*
X143062000Y-38516613D01*
X143124000Y-38500000D01*
X164576197Y-38500000D01*
X164638140Y-38516580D01*
G37*
%TD.AperFunction*%
%TD*%
M02*
