%TF.GenerationSoftware,KiCad,Pcbnew,7.0.7*%
%TF.CreationDate,2024-03-26T09:21:43-07:00*%
%TF.ProjectId,Connector-board,436f6e6e-6563-4746-9f72-2d626f617264,rev?*%
%TF.SameCoordinates,Original*%
%TF.FileFunction,Legend,Top*%
%TF.FilePolarity,Positive*%
%FSLAX46Y46*%
G04 Gerber Fmt 4.6, Leading zero omitted, Abs format (unit mm)*
G04 Created by KiCad (PCBNEW 7.0.7) date 2024-03-26 09:21:43*
%MOMM*%
%LPD*%
G01*
G04 APERTURE LIST*
%ADD10C,0.150000*%
%ADD11C,0.084375*%
%ADD12C,0.010000*%
%ADD13C,0.120000*%
%ADD14C,0.127000*%
G04 APERTURE END LIST*
D10*
X167539523Y-81554788D02*
X167116189Y-81554788D01*
X167116189Y-82220026D02*
X167116189Y-80950026D01*
X167116189Y-80950026D02*
X167720951Y-80950026D01*
X168386189Y-82220026D02*
X168265237Y-82159550D01*
X168265237Y-82159550D02*
X168204760Y-82038597D01*
X168204760Y-82038597D02*
X168204760Y-80950026D01*
X168869998Y-82220026D02*
X168869998Y-81373359D01*
X168869998Y-80950026D02*
X168809522Y-81010502D01*
X168809522Y-81010502D02*
X168869998Y-81070978D01*
X168869998Y-81070978D02*
X168930475Y-81010502D01*
X168930475Y-81010502D02*
X168869998Y-80950026D01*
X168869998Y-80950026D02*
X168869998Y-81070978D01*
X170019046Y-81373359D02*
X170019046Y-82401454D01*
X170019046Y-82401454D02*
X169958570Y-82522407D01*
X169958570Y-82522407D02*
X169898094Y-82582883D01*
X169898094Y-82582883D02*
X169777141Y-82643359D01*
X169777141Y-82643359D02*
X169595713Y-82643359D01*
X169595713Y-82643359D02*
X169474760Y-82582883D01*
X170019046Y-82159550D02*
X169898094Y-82220026D01*
X169898094Y-82220026D02*
X169656189Y-82220026D01*
X169656189Y-82220026D02*
X169535237Y-82159550D01*
X169535237Y-82159550D02*
X169474760Y-82099073D01*
X169474760Y-82099073D02*
X169414284Y-81978121D01*
X169414284Y-81978121D02*
X169414284Y-81615264D01*
X169414284Y-81615264D02*
X169474760Y-81494311D01*
X169474760Y-81494311D02*
X169535237Y-81433835D01*
X169535237Y-81433835D02*
X169656189Y-81373359D01*
X169656189Y-81373359D02*
X169898094Y-81373359D01*
X169898094Y-81373359D02*
X170019046Y-81433835D01*
X170623808Y-82220026D02*
X170623808Y-80950026D01*
X171168094Y-82220026D02*
X171168094Y-81554788D01*
X171168094Y-81554788D02*
X171107618Y-81433835D01*
X171107618Y-81433835D02*
X170986666Y-81373359D01*
X170986666Y-81373359D02*
X170805237Y-81373359D01*
X170805237Y-81373359D02*
X170684285Y-81433835D01*
X170684285Y-81433835D02*
X170623808Y-81494311D01*
X171591428Y-81373359D02*
X172075237Y-81373359D01*
X171772856Y-80950026D02*
X171772856Y-82038597D01*
X171772856Y-82038597D02*
X171833333Y-82159550D01*
X171833333Y-82159550D02*
X171954285Y-82220026D01*
X171954285Y-82220026D02*
X172075237Y-82220026D01*
X173466189Y-82220026D02*
X173466189Y-80950026D01*
X173466189Y-80950026D02*
X173889523Y-81857169D01*
X173889523Y-81857169D02*
X174312856Y-80950026D01*
X174312856Y-80950026D02*
X174312856Y-82220026D01*
X175099047Y-82220026D02*
X174978095Y-82159550D01*
X174978095Y-82159550D02*
X174917618Y-82099073D01*
X174917618Y-82099073D02*
X174857142Y-81978121D01*
X174857142Y-81978121D02*
X174857142Y-81615264D01*
X174857142Y-81615264D02*
X174917618Y-81494311D01*
X174917618Y-81494311D02*
X174978095Y-81433835D01*
X174978095Y-81433835D02*
X175099047Y-81373359D01*
X175099047Y-81373359D02*
X175280476Y-81373359D01*
X175280476Y-81373359D02*
X175401428Y-81433835D01*
X175401428Y-81433835D02*
X175461904Y-81494311D01*
X175461904Y-81494311D02*
X175522380Y-81615264D01*
X175522380Y-81615264D02*
X175522380Y-81978121D01*
X175522380Y-81978121D02*
X175461904Y-82099073D01*
X175461904Y-82099073D02*
X175401428Y-82159550D01*
X175401428Y-82159550D02*
X175280476Y-82220026D01*
X175280476Y-82220026D02*
X175099047Y-82220026D01*
X176610952Y-82220026D02*
X176610952Y-80950026D01*
X176610952Y-82159550D02*
X176490000Y-82220026D01*
X176490000Y-82220026D02*
X176248095Y-82220026D01*
X176248095Y-82220026D02*
X176127143Y-82159550D01*
X176127143Y-82159550D02*
X176066666Y-82099073D01*
X176066666Y-82099073D02*
X176006190Y-81978121D01*
X176006190Y-81978121D02*
X176006190Y-81615264D01*
X176006190Y-81615264D02*
X176066666Y-81494311D01*
X176066666Y-81494311D02*
X176127143Y-81433835D01*
X176127143Y-81433835D02*
X176248095Y-81373359D01*
X176248095Y-81373359D02*
X176490000Y-81373359D01*
X176490000Y-81373359D02*
X176610952Y-81433835D01*
X177760000Y-81373359D02*
X177760000Y-82220026D01*
X177215714Y-81373359D02*
X177215714Y-82038597D01*
X177215714Y-82038597D02*
X177276191Y-82159550D01*
X177276191Y-82159550D02*
X177397143Y-82220026D01*
X177397143Y-82220026D02*
X177578572Y-82220026D01*
X177578572Y-82220026D02*
X177699524Y-82159550D01*
X177699524Y-82159550D02*
X177760000Y-82099073D01*
X178546191Y-82220026D02*
X178425239Y-82159550D01*
X178425239Y-82159550D02*
X178364762Y-82038597D01*
X178364762Y-82038597D02*
X178364762Y-80950026D01*
X179513810Y-82159550D02*
X179392858Y-82220026D01*
X179392858Y-82220026D02*
X179150953Y-82220026D01*
X179150953Y-82220026D02*
X179030000Y-82159550D01*
X179030000Y-82159550D02*
X178969524Y-82038597D01*
X178969524Y-82038597D02*
X178969524Y-81554788D01*
X178969524Y-81554788D02*
X179030000Y-81433835D01*
X179030000Y-81433835D02*
X179150953Y-81373359D01*
X179150953Y-81373359D02*
X179392858Y-81373359D01*
X179392858Y-81373359D02*
X179513810Y-81433835D01*
X179513810Y-81433835D02*
X179574286Y-81554788D01*
X179574286Y-81554788D02*
X179574286Y-81675740D01*
X179574286Y-81675740D02*
X178969524Y-81796692D01*
X166330000Y-84143773D02*
X166269524Y-84204250D01*
X166269524Y-84204250D02*
X166088095Y-84264726D01*
X166088095Y-84264726D02*
X165967143Y-84264726D01*
X165967143Y-84264726D02*
X165785714Y-84204250D01*
X165785714Y-84204250D02*
X165664762Y-84083297D01*
X165664762Y-84083297D02*
X165604285Y-83962345D01*
X165604285Y-83962345D02*
X165543809Y-83720440D01*
X165543809Y-83720440D02*
X165543809Y-83539011D01*
X165543809Y-83539011D02*
X165604285Y-83297107D01*
X165604285Y-83297107D02*
X165664762Y-83176154D01*
X165664762Y-83176154D02*
X165785714Y-83055202D01*
X165785714Y-83055202D02*
X165967143Y-82994726D01*
X165967143Y-82994726D02*
X166088095Y-82994726D01*
X166088095Y-82994726D02*
X166269524Y-83055202D01*
X166269524Y-83055202D02*
X166330000Y-83115678D01*
X167055714Y-84264726D02*
X166934762Y-84204250D01*
X166934762Y-84204250D02*
X166874285Y-84143773D01*
X166874285Y-84143773D02*
X166813809Y-84022821D01*
X166813809Y-84022821D02*
X166813809Y-83659964D01*
X166813809Y-83659964D02*
X166874285Y-83539011D01*
X166874285Y-83539011D02*
X166934762Y-83478535D01*
X166934762Y-83478535D02*
X167055714Y-83418059D01*
X167055714Y-83418059D02*
X167237143Y-83418059D01*
X167237143Y-83418059D02*
X167358095Y-83478535D01*
X167358095Y-83478535D02*
X167418571Y-83539011D01*
X167418571Y-83539011D02*
X167479047Y-83659964D01*
X167479047Y-83659964D02*
X167479047Y-84022821D01*
X167479047Y-84022821D02*
X167418571Y-84143773D01*
X167418571Y-84143773D02*
X167358095Y-84204250D01*
X167358095Y-84204250D02*
X167237143Y-84264726D01*
X167237143Y-84264726D02*
X167055714Y-84264726D01*
X168023333Y-83418059D02*
X168023333Y-84264726D01*
X168023333Y-83539011D02*
X168083810Y-83478535D01*
X168083810Y-83478535D02*
X168204762Y-83418059D01*
X168204762Y-83418059D02*
X168386191Y-83418059D01*
X168386191Y-83418059D02*
X168507143Y-83478535D01*
X168507143Y-83478535D02*
X168567619Y-83599488D01*
X168567619Y-83599488D02*
X168567619Y-84264726D01*
X169172381Y-83418059D02*
X169172381Y-84264726D01*
X169172381Y-83539011D02*
X169232858Y-83478535D01*
X169232858Y-83478535D02*
X169353810Y-83418059D01*
X169353810Y-83418059D02*
X169535239Y-83418059D01*
X169535239Y-83418059D02*
X169656191Y-83478535D01*
X169656191Y-83478535D02*
X169716667Y-83599488D01*
X169716667Y-83599488D02*
X169716667Y-84264726D01*
X170805239Y-84204250D02*
X170684287Y-84264726D01*
X170684287Y-84264726D02*
X170442382Y-84264726D01*
X170442382Y-84264726D02*
X170321429Y-84204250D01*
X170321429Y-84204250D02*
X170260953Y-84083297D01*
X170260953Y-84083297D02*
X170260953Y-83599488D01*
X170260953Y-83599488D02*
X170321429Y-83478535D01*
X170321429Y-83478535D02*
X170442382Y-83418059D01*
X170442382Y-83418059D02*
X170684287Y-83418059D01*
X170684287Y-83418059D02*
X170805239Y-83478535D01*
X170805239Y-83478535D02*
X170865715Y-83599488D01*
X170865715Y-83599488D02*
X170865715Y-83720440D01*
X170865715Y-83720440D02*
X170260953Y-83841392D01*
X171954286Y-84204250D02*
X171833334Y-84264726D01*
X171833334Y-84264726D02*
X171591429Y-84264726D01*
X171591429Y-84264726D02*
X171470477Y-84204250D01*
X171470477Y-84204250D02*
X171410000Y-84143773D01*
X171410000Y-84143773D02*
X171349524Y-84022821D01*
X171349524Y-84022821D02*
X171349524Y-83659964D01*
X171349524Y-83659964D02*
X171410000Y-83539011D01*
X171410000Y-83539011D02*
X171470477Y-83478535D01*
X171470477Y-83478535D02*
X171591429Y-83418059D01*
X171591429Y-83418059D02*
X171833334Y-83418059D01*
X171833334Y-83418059D02*
X171954286Y-83478535D01*
X172317143Y-83418059D02*
X172800952Y-83418059D01*
X172498571Y-82994726D02*
X172498571Y-84083297D01*
X172498571Y-84083297D02*
X172559048Y-84204250D01*
X172559048Y-84204250D02*
X172680000Y-84264726D01*
X172680000Y-84264726D02*
X172800952Y-84264726D01*
X173405714Y-84264726D02*
X173284762Y-84204250D01*
X173284762Y-84204250D02*
X173224285Y-84143773D01*
X173224285Y-84143773D02*
X173163809Y-84022821D01*
X173163809Y-84022821D02*
X173163809Y-83659964D01*
X173163809Y-83659964D02*
X173224285Y-83539011D01*
X173224285Y-83539011D02*
X173284762Y-83478535D01*
X173284762Y-83478535D02*
X173405714Y-83418059D01*
X173405714Y-83418059D02*
X173587143Y-83418059D01*
X173587143Y-83418059D02*
X173708095Y-83478535D01*
X173708095Y-83478535D02*
X173768571Y-83539011D01*
X173768571Y-83539011D02*
X173829047Y-83659964D01*
X173829047Y-83659964D02*
X173829047Y-84022821D01*
X173829047Y-84022821D02*
X173768571Y-84143773D01*
X173768571Y-84143773D02*
X173708095Y-84204250D01*
X173708095Y-84204250D02*
X173587143Y-84264726D01*
X173587143Y-84264726D02*
X173405714Y-84264726D01*
X174373333Y-84264726D02*
X174373333Y-83418059D01*
X174373333Y-83659964D02*
X174433810Y-83539011D01*
X174433810Y-83539011D02*
X174494286Y-83478535D01*
X174494286Y-83478535D02*
X174615238Y-83418059D01*
X174615238Y-83418059D02*
X174736191Y-83418059D01*
X176550476Y-83599488D02*
X176731904Y-83659964D01*
X176731904Y-83659964D02*
X176792381Y-83720440D01*
X176792381Y-83720440D02*
X176852857Y-83841392D01*
X176852857Y-83841392D02*
X176852857Y-84022821D01*
X176852857Y-84022821D02*
X176792381Y-84143773D01*
X176792381Y-84143773D02*
X176731904Y-84204250D01*
X176731904Y-84204250D02*
X176610952Y-84264726D01*
X176610952Y-84264726D02*
X176127142Y-84264726D01*
X176127142Y-84264726D02*
X176127142Y-82994726D01*
X176127142Y-82994726D02*
X176550476Y-82994726D01*
X176550476Y-82994726D02*
X176671428Y-83055202D01*
X176671428Y-83055202D02*
X176731904Y-83115678D01*
X176731904Y-83115678D02*
X176792381Y-83236630D01*
X176792381Y-83236630D02*
X176792381Y-83357583D01*
X176792381Y-83357583D02*
X176731904Y-83478535D01*
X176731904Y-83478535D02*
X176671428Y-83539011D01*
X176671428Y-83539011D02*
X176550476Y-83599488D01*
X176550476Y-83599488D02*
X176127142Y-83599488D01*
X177578571Y-84264726D02*
X177457619Y-84204250D01*
X177457619Y-84204250D02*
X177397142Y-84143773D01*
X177397142Y-84143773D02*
X177336666Y-84022821D01*
X177336666Y-84022821D02*
X177336666Y-83659964D01*
X177336666Y-83659964D02*
X177397142Y-83539011D01*
X177397142Y-83539011D02*
X177457619Y-83478535D01*
X177457619Y-83478535D02*
X177578571Y-83418059D01*
X177578571Y-83418059D02*
X177760000Y-83418059D01*
X177760000Y-83418059D02*
X177880952Y-83478535D01*
X177880952Y-83478535D02*
X177941428Y-83539011D01*
X177941428Y-83539011D02*
X178001904Y-83659964D01*
X178001904Y-83659964D02*
X178001904Y-84022821D01*
X178001904Y-84022821D02*
X177941428Y-84143773D01*
X177941428Y-84143773D02*
X177880952Y-84204250D01*
X177880952Y-84204250D02*
X177760000Y-84264726D01*
X177760000Y-84264726D02*
X177578571Y-84264726D01*
X179090476Y-84264726D02*
X179090476Y-83599488D01*
X179090476Y-83599488D02*
X179030000Y-83478535D01*
X179030000Y-83478535D02*
X178909048Y-83418059D01*
X178909048Y-83418059D02*
X178667143Y-83418059D01*
X178667143Y-83418059D02*
X178546190Y-83478535D01*
X179090476Y-84204250D02*
X178969524Y-84264726D01*
X178969524Y-84264726D02*
X178667143Y-84264726D01*
X178667143Y-84264726D02*
X178546190Y-84204250D01*
X178546190Y-84204250D02*
X178485714Y-84083297D01*
X178485714Y-84083297D02*
X178485714Y-83962345D01*
X178485714Y-83962345D02*
X178546190Y-83841392D01*
X178546190Y-83841392D02*
X178667143Y-83780916D01*
X178667143Y-83780916D02*
X178969524Y-83780916D01*
X178969524Y-83780916D02*
X179090476Y-83720440D01*
X179695238Y-84264726D02*
X179695238Y-83418059D01*
X179695238Y-83659964D02*
X179755715Y-83539011D01*
X179755715Y-83539011D02*
X179816191Y-83478535D01*
X179816191Y-83478535D02*
X179937143Y-83418059D01*
X179937143Y-83418059D02*
X180058096Y-83418059D01*
X181025714Y-84264726D02*
X181025714Y-82994726D01*
X181025714Y-84204250D02*
X180904762Y-84264726D01*
X180904762Y-84264726D02*
X180662857Y-84264726D01*
X180662857Y-84264726D02*
X180541905Y-84204250D01*
X180541905Y-84204250D02*
X180481428Y-84143773D01*
X180481428Y-84143773D02*
X180420952Y-84022821D01*
X180420952Y-84022821D02*
X180420952Y-83659964D01*
X180420952Y-83659964D02*
X180481428Y-83539011D01*
X180481428Y-83539011D02*
X180541905Y-83478535D01*
X180541905Y-83478535D02*
X180662857Y-83418059D01*
X180662857Y-83418059D02*
X180904762Y-83418059D01*
X180904762Y-83418059D02*
X181025714Y-83478535D01*
X172286905Y-85039426D02*
X172710238Y-86309426D01*
X172710238Y-86309426D02*
X173133572Y-85039426D01*
X174222143Y-86309426D02*
X173496428Y-86309426D01*
X173859285Y-86309426D02*
X173859285Y-85039426D01*
X173859285Y-85039426D02*
X173738333Y-85220854D01*
X173738333Y-85220854D02*
X173617381Y-85341807D01*
X173617381Y-85341807D02*
X173496428Y-85402283D01*
X164425000Y-68757000D02*
X182483000Y-68757000D01*
X182483000Y-88765000D01*
X164425000Y-88765000D01*
X164425000Y-68757000D01*
X166323094Y-147644819D02*
X166323094Y-146644819D01*
X166323094Y-146644819D02*
X166561189Y-146644819D01*
X166561189Y-146644819D02*
X166704046Y-146692438D01*
X166704046Y-146692438D02*
X166799284Y-146787676D01*
X166799284Y-146787676D02*
X166846903Y-146882914D01*
X166846903Y-146882914D02*
X166894522Y-147073390D01*
X166894522Y-147073390D02*
X166894522Y-147216247D01*
X166894522Y-147216247D02*
X166846903Y-147406723D01*
X166846903Y-147406723D02*
X166799284Y-147501961D01*
X166799284Y-147501961D02*
X166704046Y-147597200D01*
X166704046Y-147597200D02*
X166561189Y-147644819D01*
X166561189Y-147644819D02*
X166323094Y-147644819D01*
X167704046Y-147597200D02*
X167608808Y-147644819D01*
X167608808Y-147644819D02*
X167418332Y-147644819D01*
X167418332Y-147644819D02*
X167323094Y-147597200D01*
X167323094Y-147597200D02*
X167275475Y-147501961D01*
X167275475Y-147501961D02*
X167275475Y-147121009D01*
X167275475Y-147121009D02*
X167323094Y-147025771D01*
X167323094Y-147025771D02*
X167418332Y-146978152D01*
X167418332Y-146978152D02*
X167608808Y-146978152D01*
X167608808Y-146978152D02*
X167704046Y-147025771D01*
X167704046Y-147025771D02*
X167751665Y-147121009D01*
X167751665Y-147121009D02*
X167751665Y-147216247D01*
X167751665Y-147216247D02*
X167275475Y-147311485D01*
X168132618Y-147597200D02*
X168227856Y-147644819D01*
X168227856Y-147644819D02*
X168418332Y-147644819D01*
X168418332Y-147644819D02*
X168513570Y-147597200D01*
X168513570Y-147597200D02*
X168561189Y-147501961D01*
X168561189Y-147501961D02*
X168561189Y-147454342D01*
X168561189Y-147454342D02*
X168513570Y-147359104D01*
X168513570Y-147359104D02*
X168418332Y-147311485D01*
X168418332Y-147311485D02*
X168275475Y-147311485D01*
X168275475Y-147311485D02*
X168180237Y-147263866D01*
X168180237Y-147263866D02*
X168132618Y-147168628D01*
X168132618Y-147168628D02*
X168132618Y-147121009D01*
X168132618Y-147121009D02*
X168180237Y-147025771D01*
X168180237Y-147025771D02*
X168275475Y-146978152D01*
X168275475Y-146978152D02*
X168418332Y-146978152D01*
X168418332Y-146978152D02*
X168513570Y-147025771D01*
X168989761Y-147644819D02*
X168989761Y-146978152D01*
X168989761Y-146644819D02*
X168942142Y-146692438D01*
X168942142Y-146692438D02*
X168989761Y-146740057D01*
X168989761Y-146740057D02*
X169037380Y-146692438D01*
X169037380Y-146692438D02*
X168989761Y-146644819D01*
X168989761Y-146644819D02*
X168989761Y-146740057D01*
X169894522Y-146978152D02*
X169894522Y-147787676D01*
X169894522Y-147787676D02*
X169846903Y-147882914D01*
X169846903Y-147882914D02*
X169799284Y-147930533D01*
X169799284Y-147930533D02*
X169704046Y-147978152D01*
X169704046Y-147978152D02*
X169561189Y-147978152D01*
X169561189Y-147978152D02*
X169465951Y-147930533D01*
X169894522Y-147597200D02*
X169799284Y-147644819D01*
X169799284Y-147644819D02*
X169608808Y-147644819D01*
X169608808Y-147644819D02*
X169513570Y-147597200D01*
X169513570Y-147597200D02*
X169465951Y-147549580D01*
X169465951Y-147549580D02*
X169418332Y-147454342D01*
X169418332Y-147454342D02*
X169418332Y-147168628D01*
X169418332Y-147168628D02*
X169465951Y-147073390D01*
X169465951Y-147073390D02*
X169513570Y-147025771D01*
X169513570Y-147025771D02*
X169608808Y-146978152D01*
X169608808Y-146978152D02*
X169799284Y-146978152D01*
X169799284Y-146978152D02*
X169894522Y-147025771D01*
X170370713Y-146978152D02*
X170370713Y-147644819D01*
X170370713Y-147073390D02*
X170418332Y-147025771D01*
X170418332Y-147025771D02*
X170513570Y-146978152D01*
X170513570Y-146978152D02*
X170656427Y-146978152D01*
X170656427Y-146978152D02*
X170751665Y-147025771D01*
X170751665Y-147025771D02*
X170799284Y-147121009D01*
X170799284Y-147121009D02*
X170799284Y-147644819D01*
X171656427Y-147597200D02*
X171561189Y-147644819D01*
X171561189Y-147644819D02*
X171370713Y-147644819D01*
X171370713Y-147644819D02*
X171275475Y-147597200D01*
X171275475Y-147597200D02*
X171227856Y-147501961D01*
X171227856Y-147501961D02*
X171227856Y-147121009D01*
X171227856Y-147121009D02*
X171275475Y-147025771D01*
X171275475Y-147025771D02*
X171370713Y-146978152D01*
X171370713Y-146978152D02*
X171561189Y-146978152D01*
X171561189Y-146978152D02*
X171656427Y-147025771D01*
X171656427Y-147025771D02*
X171704046Y-147121009D01*
X171704046Y-147121009D02*
X171704046Y-147216247D01*
X171704046Y-147216247D02*
X171227856Y-147311485D01*
X172561189Y-147644819D02*
X172561189Y-146644819D01*
X172561189Y-147597200D02*
X172465951Y-147644819D01*
X172465951Y-147644819D02*
X172275475Y-147644819D01*
X172275475Y-147644819D02*
X172180237Y-147597200D01*
X172180237Y-147597200D02*
X172132618Y-147549580D01*
X172132618Y-147549580D02*
X172084999Y-147454342D01*
X172084999Y-147454342D02*
X172084999Y-147168628D01*
X172084999Y-147168628D02*
X172132618Y-147073390D01*
X172132618Y-147073390D02*
X172180237Y-147025771D01*
X172180237Y-147025771D02*
X172275475Y-146978152D01*
X172275475Y-146978152D02*
X172465951Y-146978152D01*
X172465951Y-146978152D02*
X172561189Y-147025771D01*
X173799285Y-147644819D02*
X173799285Y-146644819D01*
X173799285Y-147025771D02*
X173894523Y-146978152D01*
X173894523Y-146978152D02*
X174084999Y-146978152D01*
X174084999Y-146978152D02*
X174180237Y-147025771D01*
X174180237Y-147025771D02*
X174227856Y-147073390D01*
X174227856Y-147073390D02*
X174275475Y-147168628D01*
X174275475Y-147168628D02*
X174275475Y-147454342D01*
X174275475Y-147454342D02*
X174227856Y-147549580D01*
X174227856Y-147549580D02*
X174180237Y-147597200D01*
X174180237Y-147597200D02*
X174084999Y-147644819D01*
X174084999Y-147644819D02*
X173894523Y-147644819D01*
X173894523Y-147644819D02*
X173799285Y-147597200D01*
X174608809Y-146978152D02*
X174846904Y-147644819D01*
X175084999Y-146978152D02*
X174846904Y-147644819D01*
X174846904Y-147644819D02*
X174751666Y-147882914D01*
X174751666Y-147882914D02*
X174704047Y-147930533D01*
X174704047Y-147930533D02*
X174608809Y-147978152D01*
X176180238Y-147359104D02*
X176656428Y-147359104D01*
X176085000Y-147644819D02*
X176418333Y-146644819D01*
X176418333Y-146644819D02*
X176751666Y-147644819D01*
X177085000Y-147644819D02*
X177085000Y-146978152D01*
X177085000Y-146644819D02*
X177037381Y-146692438D01*
X177037381Y-146692438D02*
X177085000Y-146740057D01*
X177085000Y-146740057D02*
X177132619Y-146692438D01*
X177132619Y-146692438D02*
X177085000Y-146644819D01*
X177085000Y-146644819D02*
X177085000Y-146740057D01*
X177704047Y-147644819D02*
X177608809Y-147597200D01*
X177608809Y-147597200D02*
X177561190Y-147501961D01*
X177561190Y-147501961D02*
X177561190Y-146644819D01*
X178037381Y-147597200D02*
X178132619Y-147644819D01*
X178132619Y-147644819D02*
X178323095Y-147644819D01*
X178323095Y-147644819D02*
X178418333Y-147597200D01*
X178418333Y-147597200D02*
X178465952Y-147501961D01*
X178465952Y-147501961D02*
X178465952Y-147454342D01*
X178465952Y-147454342D02*
X178418333Y-147359104D01*
X178418333Y-147359104D02*
X178323095Y-147311485D01*
X178323095Y-147311485D02*
X178180238Y-147311485D01*
X178180238Y-147311485D02*
X178085000Y-147263866D01*
X178085000Y-147263866D02*
X178037381Y-147168628D01*
X178037381Y-147168628D02*
X178037381Y-147121009D01*
X178037381Y-147121009D02*
X178085000Y-147025771D01*
X178085000Y-147025771D02*
X178180238Y-146978152D01*
X178180238Y-146978152D02*
X178323095Y-146978152D01*
X178323095Y-146978152D02*
X178418333Y-147025771D01*
X179323095Y-147644819D02*
X179323095Y-147121009D01*
X179323095Y-147121009D02*
X179275476Y-147025771D01*
X179275476Y-147025771D02*
X179180238Y-146978152D01*
X179180238Y-146978152D02*
X178989762Y-146978152D01*
X178989762Y-146978152D02*
X178894524Y-147025771D01*
X179323095Y-147597200D02*
X179227857Y-147644819D01*
X179227857Y-147644819D02*
X178989762Y-147644819D01*
X178989762Y-147644819D02*
X178894524Y-147597200D01*
X178894524Y-147597200D02*
X178846905Y-147501961D01*
X178846905Y-147501961D02*
X178846905Y-147406723D01*
X178846905Y-147406723D02*
X178894524Y-147311485D01*
X178894524Y-147311485D02*
X178989762Y-147263866D01*
X178989762Y-147263866D02*
X179227857Y-147263866D01*
X179227857Y-147263866D02*
X179323095Y-147216247D01*
X180513572Y-147597200D02*
X180656429Y-147644819D01*
X180656429Y-147644819D02*
X180894524Y-147644819D01*
X180894524Y-147644819D02*
X180989762Y-147597200D01*
X180989762Y-147597200D02*
X181037381Y-147549580D01*
X181037381Y-147549580D02*
X181085000Y-147454342D01*
X181085000Y-147454342D02*
X181085000Y-147359104D01*
X181085000Y-147359104D02*
X181037381Y-147263866D01*
X181037381Y-147263866D02*
X180989762Y-147216247D01*
X180989762Y-147216247D02*
X180894524Y-147168628D01*
X180894524Y-147168628D02*
X180704048Y-147121009D01*
X180704048Y-147121009D02*
X180608810Y-147073390D01*
X180608810Y-147073390D02*
X180561191Y-147025771D01*
X180561191Y-147025771D02*
X180513572Y-146930533D01*
X180513572Y-146930533D02*
X180513572Y-146835295D01*
X180513572Y-146835295D02*
X180561191Y-146740057D01*
X180561191Y-146740057D02*
X180608810Y-146692438D01*
X180608810Y-146692438D02*
X180704048Y-146644819D01*
X180704048Y-146644819D02*
X180942143Y-146644819D01*
X180942143Y-146644819D02*
X181085000Y-146692438D01*
X181942143Y-146978152D02*
X181942143Y-147644819D01*
X181513572Y-146978152D02*
X181513572Y-147501961D01*
X181513572Y-147501961D02*
X181561191Y-147597200D01*
X181561191Y-147597200D02*
X181656429Y-147644819D01*
X181656429Y-147644819D02*
X181799286Y-147644819D01*
X181799286Y-147644819D02*
X181894524Y-147597200D01*
X181894524Y-147597200D02*
X181942143Y-147549580D01*
X182418334Y-146978152D02*
X182418334Y-147644819D01*
X182418334Y-147073390D02*
X182465953Y-147025771D01*
X182465953Y-147025771D02*
X182561191Y-146978152D01*
X182561191Y-146978152D02*
X182704048Y-146978152D01*
X182704048Y-146978152D02*
X182799286Y-147025771D01*
X182799286Y-147025771D02*
X182846905Y-147121009D01*
X182846905Y-147121009D02*
X182846905Y-147644819D01*
X165680236Y-149254819D02*
X165680236Y-148731009D01*
X165680236Y-148731009D02*
X165632617Y-148635771D01*
X165632617Y-148635771D02*
X165537379Y-148588152D01*
X165537379Y-148588152D02*
X165346903Y-148588152D01*
X165346903Y-148588152D02*
X165251665Y-148635771D01*
X165680236Y-149207200D02*
X165584998Y-149254819D01*
X165584998Y-149254819D02*
X165346903Y-149254819D01*
X165346903Y-149254819D02*
X165251665Y-149207200D01*
X165251665Y-149207200D02*
X165204046Y-149111961D01*
X165204046Y-149111961D02*
X165204046Y-149016723D01*
X165204046Y-149016723D02*
X165251665Y-148921485D01*
X165251665Y-148921485D02*
X165346903Y-148873866D01*
X165346903Y-148873866D02*
X165584998Y-148873866D01*
X165584998Y-148873866D02*
X165680236Y-148826247D01*
X166156427Y-148588152D02*
X166156427Y-149254819D01*
X166156427Y-148683390D02*
X166204046Y-148635771D01*
X166204046Y-148635771D02*
X166299284Y-148588152D01*
X166299284Y-148588152D02*
X166442141Y-148588152D01*
X166442141Y-148588152D02*
X166537379Y-148635771D01*
X166537379Y-148635771D02*
X166584998Y-148731009D01*
X166584998Y-148731009D02*
X166584998Y-149254819D01*
X167489760Y-149254819D02*
X167489760Y-148254819D01*
X167489760Y-149207200D02*
X167394522Y-149254819D01*
X167394522Y-149254819D02*
X167204046Y-149254819D01*
X167204046Y-149254819D02*
X167108808Y-149207200D01*
X167108808Y-149207200D02*
X167061189Y-149159580D01*
X167061189Y-149159580D02*
X167013570Y-149064342D01*
X167013570Y-149064342D02*
X167013570Y-148778628D01*
X167013570Y-148778628D02*
X167061189Y-148683390D01*
X167061189Y-148683390D02*
X167108808Y-148635771D01*
X167108808Y-148635771D02*
X167204046Y-148588152D01*
X167204046Y-148588152D02*
X167394522Y-148588152D01*
X167394522Y-148588152D02*
X167489760Y-148635771D01*
X168680237Y-149207200D02*
X168823094Y-149254819D01*
X168823094Y-149254819D02*
X169061189Y-149254819D01*
X169061189Y-149254819D02*
X169156427Y-149207200D01*
X169156427Y-149207200D02*
X169204046Y-149159580D01*
X169204046Y-149159580D02*
X169251665Y-149064342D01*
X169251665Y-149064342D02*
X169251665Y-148969104D01*
X169251665Y-148969104D02*
X169204046Y-148873866D01*
X169204046Y-148873866D02*
X169156427Y-148826247D01*
X169156427Y-148826247D02*
X169061189Y-148778628D01*
X169061189Y-148778628D02*
X168870713Y-148731009D01*
X168870713Y-148731009D02*
X168775475Y-148683390D01*
X168775475Y-148683390D02*
X168727856Y-148635771D01*
X168727856Y-148635771D02*
X168680237Y-148540533D01*
X168680237Y-148540533D02*
X168680237Y-148445295D01*
X168680237Y-148445295D02*
X168727856Y-148350057D01*
X168727856Y-148350057D02*
X168775475Y-148302438D01*
X168775475Y-148302438D02*
X168870713Y-148254819D01*
X168870713Y-148254819D02*
X169108808Y-148254819D01*
X169108808Y-148254819D02*
X169251665Y-148302438D01*
X169680237Y-148588152D02*
X169680237Y-149588152D01*
X169680237Y-148635771D02*
X169775475Y-148588152D01*
X169775475Y-148588152D02*
X169965951Y-148588152D01*
X169965951Y-148588152D02*
X170061189Y-148635771D01*
X170061189Y-148635771D02*
X170108808Y-148683390D01*
X170108808Y-148683390D02*
X170156427Y-148778628D01*
X170156427Y-148778628D02*
X170156427Y-149064342D01*
X170156427Y-149064342D02*
X170108808Y-149159580D01*
X170108808Y-149159580D02*
X170061189Y-149207200D01*
X170061189Y-149207200D02*
X169965951Y-149254819D01*
X169965951Y-149254819D02*
X169775475Y-149254819D01*
X169775475Y-149254819D02*
X169680237Y-149207200D01*
X171013570Y-149254819D02*
X171013570Y-148731009D01*
X171013570Y-148731009D02*
X170965951Y-148635771D01*
X170965951Y-148635771D02*
X170870713Y-148588152D01*
X170870713Y-148588152D02*
X170680237Y-148588152D01*
X170680237Y-148588152D02*
X170584999Y-148635771D01*
X171013570Y-149207200D02*
X170918332Y-149254819D01*
X170918332Y-149254819D02*
X170680237Y-149254819D01*
X170680237Y-149254819D02*
X170584999Y-149207200D01*
X170584999Y-149207200D02*
X170537380Y-149111961D01*
X170537380Y-149111961D02*
X170537380Y-149016723D01*
X170537380Y-149016723D02*
X170584999Y-148921485D01*
X170584999Y-148921485D02*
X170680237Y-148873866D01*
X170680237Y-148873866D02*
X170918332Y-148873866D01*
X170918332Y-148873866D02*
X171013570Y-148826247D01*
X171918332Y-149207200D02*
X171823094Y-149254819D01*
X171823094Y-149254819D02*
X171632618Y-149254819D01*
X171632618Y-149254819D02*
X171537380Y-149207200D01*
X171537380Y-149207200D02*
X171489761Y-149159580D01*
X171489761Y-149159580D02*
X171442142Y-149064342D01*
X171442142Y-149064342D02*
X171442142Y-148778628D01*
X171442142Y-148778628D02*
X171489761Y-148683390D01*
X171489761Y-148683390D02*
X171537380Y-148635771D01*
X171537380Y-148635771D02*
X171632618Y-148588152D01*
X171632618Y-148588152D02*
X171823094Y-148588152D01*
X171823094Y-148588152D02*
X171918332Y-148635771D01*
X172727856Y-149207200D02*
X172632618Y-149254819D01*
X172632618Y-149254819D02*
X172442142Y-149254819D01*
X172442142Y-149254819D02*
X172346904Y-149207200D01*
X172346904Y-149207200D02*
X172299285Y-149111961D01*
X172299285Y-149111961D02*
X172299285Y-148731009D01*
X172299285Y-148731009D02*
X172346904Y-148635771D01*
X172346904Y-148635771D02*
X172442142Y-148588152D01*
X172442142Y-148588152D02*
X172632618Y-148588152D01*
X172632618Y-148588152D02*
X172727856Y-148635771D01*
X172727856Y-148635771D02*
X172775475Y-148731009D01*
X172775475Y-148731009D02*
X172775475Y-148826247D01*
X172775475Y-148826247D02*
X172299285Y-148921485D01*
X173823095Y-148254819D02*
X174394523Y-148254819D01*
X174108809Y-149254819D02*
X174108809Y-148254819D01*
X175108809Y-149207200D02*
X175013571Y-149254819D01*
X175013571Y-149254819D02*
X174823095Y-149254819D01*
X174823095Y-149254819D02*
X174727857Y-149207200D01*
X174727857Y-149207200D02*
X174680238Y-149111961D01*
X174680238Y-149111961D02*
X174680238Y-148731009D01*
X174680238Y-148731009D02*
X174727857Y-148635771D01*
X174727857Y-148635771D02*
X174823095Y-148588152D01*
X174823095Y-148588152D02*
X175013571Y-148588152D01*
X175013571Y-148588152D02*
X175108809Y-148635771D01*
X175108809Y-148635771D02*
X175156428Y-148731009D01*
X175156428Y-148731009D02*
X175156428Y-148826247D01*
X175156428Y-148826247D02*
X174680238Y-148921485D01*
X176013571Y-149207200D02*
X175918333Y-149254819D01*
X175918333Y-149254819D02*
X175727857Y-149254819D01*
X175727857Y-149254819D02*
X175632619Y-149207200D01*
X175632619Y-149207200D02*
X175585000Y-149159580D01*
X175585000Y-149159580D02*
X175537381Y-149064342D01*
X175537381Y-149064342D02*
X175537381Y-148778628D01*
X175537381Y-148778628D02*
X175585000Y-148683390D01*
X175585000Y-148683390D02*
X175632619Y-148635771D01*
X175632619Y-148635771D02*
X175727857Y-148588152D01*
X175727857Y-148588152D02*
X175918333Y-148588152D01*
X175918333Y-148588152D02*
X176013571Y-148635771D01*
X176442143Y-149254819D02*
X176442143Y-148254819D01*
X176870714Y-149254819D02*
X176870714Y-148731009D01*
X176870714Y-148731009D02*
X176823095Y-148635771D01*
X176823095Y-148635771D02*
X176727857Y-148588152D01*
X176727857Y-148588152D02*
X176585000Y-148588152D01*
X176585000Y-148588152D02*
X176489762Y-148635771D01*
X176489762Y-148635771D02*
X176442143Y-148683390D01*
X177346905Y-148588152D02*
X177346905Y-149254819D01*
X177346905Y-148683390D02*
X177394524Y-148635771D01*
X177394524Y-148635771D02*
X177489762Y-148588152D01*
X177489762Y-148588152D02*
X177632619Y-148588152D01*
X177632619Y-148588152D02*
X177727857Y-148635771D01*
X177727857Y-148635771D02*
X177775476Y-148731009D01*
X177775476Y-148731009D02*
X177775476Y-149254819D01*
X178394524Y-149254819D02*
X178299286Y-149207200D01*
X178299286Y-149207200D02*
X178251667Y-149159580D01*
X178251667Y-149159580D02*
X178204048Y-149064342D01*
X178204048Y-149064342D02*
X178204048Y-148778628D01*
X178204048Y-148778628D02*
X178251667Y-148683390D01*
X178251667Y-148683390D02*
X178299286Y-148635771D01*
X178299286Y-148635771D02*
X178394524Y-148588152D01*
X178394524Y-148588152D02*
X178537381Y-148588152D01*
X178537381Y-148588152D02*
X178632619Y-148635771D01*
X178632619Y-148635771D02*
X178680238Y-148683390D01*
X178680238Y-148683390D02*
X178727857Y-148778628D01*
X178727857Y-148778628D02*
X178727857Y-149064342D01*
X178727857Y-149064342D02*
X178680238Y-149159580D01*
X178680238Y-149159580D02*
X178632619Y-149207200D01*
X178632619Y-149207200D02*
X178537381Y-149254819D01*
X178537381Y-149254819D02*
X178394524Y-149254819D01*
X179299286Y-149254819D02*
X179204048Y-149207200D01*
X179204048Y-149207200D02*
X179156429Y-149111961D01*
X179156429Y-149111961D02*
X179156429Y-148254819D01*
X179823096Y-149254819D02*
X179727858Y-149207200D01*
X179727858Y-149207200D02*
X179680239Y-149159580D01*
X179680239Y-149159580D02*
X179632620Y-149064342D01*
X179632620Y-149064342D02*
X179632620Y-148778628D01*
X179632620Y-148778628D02*
X179680239Y-148683390D01*
X179680239Y-148683390D02*
X179727858Y-148635771D01*
X179727858Y-148635771D02*
X179823096Y-148588152D01*
X179823096Y-148588152D02*
X179965953Y-148588152D01*
X179965953Y-148588152D02*
X180061191Y-148635771D01*
X180061191Y-148635771D02*
X180108810Y-148683390D01*
X180108810Y-148683390D02*
X180156429Y-148778628D01*
X180156429Y-148778628D02*
X180156429Y-149064342D01*
X180156429Y-149064342D02*
X180108810Y-149159580D01*
X180108810Y-149159580D02*
X180061191Y-149207200D01*
X180061191Y-149207200D02*
X179965953Y-149254819D01*
X179965953Y-149254819D02*
X179823096Y-149254819D01*
X181013572Y-148588152D02*
X181013572Y-149397676D01*
X181013572Y-149397676D02*
X180965953Y-149492914D01*
X180965953Y-149492914D02*
X180918334Y-149540533D01*
X180918334Y-149540533D02*
X180823096Y-149588152D01*
X180823096Y-149588152D02*
X180680239Y-149588152D01*
X180680239Y-149588152D02*
X180585001Y-149540533D01*
X181013572Y-149207200D02*
X180918334Y-149254819D01*
X180918334Y-149254819D02*
X180727858Y-149254819D01*
X180727858Y-149254819D02*
X180632620Y-149207200D01*
X180632620Y-149207200D02*
X180585001Y-149159580D01*
X180585001Y-149159580D02*
X180537382Y-149064342D01*
X180537382Y-149064342D02*
X180537382Y-148778628D01*
X180537382Y-148778628D02*
X180585001Y-148683390D01*
X180585001Y-148683390D02*
X180632620Y-148635771D01*
X180632620Y-148635771D02*
X180727858Y-148588152D01*
X180727858Y-148588152D02*
X180918334Y-148588152D01*
X180918334Y-148588152D02*
X181013572Y-148635771D01*
X181489763Y-149254819D02*
X181489763Y-148588152D01*
X181489763Y-148254819D02*
X181442144Y-148302438D01*
X181442144Y-148302438D02*
X181489763Y-148350057D01*
X181489763Y-148350057D02*
X181537382Y-148302438D01*
X181537382Y-148302438D02*
X181489763Y-148254819D01*
X181489763Y-148254819D02*
X181489763Y-148350057D01*
X182346905Y-149207200D02*
X182251667Y-149254819D01*
X182251667Y-149254819D02*
X182061191Y-149254819D01*
X182061191Y-149254819D02*
X181965953Y-149207200D01*
X181965953Y-149207200D02*
X181918334Y-149111961D01*
X181918334Y-149111961D02*
X181918334Y-148731009D01*
X181918334Y-148731009D02*
X181965953Y-148635771D01*
X181965953Y-148635771D02*
X182061191Y-148588152D01*
X182061191Y-148588152D02*
X182251667Y-148588152D01*
X182251667Y-148588152D02*
X182346905Y-148635771D01*
X182346905Y-148635771D02*
X182394524Y-148731009D01*
X182394524Y-148731009D02*
X182394524Y-148826247D01*
X182394524Y-148826247D02*
X181918334Y-148921485D01*
X182775477Y-149207200D02*
X182870715Y-149254819D01*
X182870715Y-149254819D02*
X183061191Y-149254819D01*
X183061191Y-149254819D02*
X183156429Y-149207200D01*
X183156429Y-149207200D02*
X183204048Y-149111961D01*
X183204048Y-149111961D02*
X183204048Y-149064342D01*
X183204048Y-149064342D02*
X183156429Y-148969104D01*
X183156429Y-148969104D02*
X183061191Y-148921485D01*
X183061191Y-148921485D02*
X182918334Y-148921485D01*
X182918334Y-148921485D02*
X182823096Y-148873866D01*
X182823096Y-148873866D02*
X182775477Y-148778628D01*
X182775477Y-148778628D02*
X182775477Y-148731009D01*
X182775477Y-148731009D02*
X182823096Y-148635771D01*
X182823096Y-148635771D02*
X182918334Y-148588152D01*
X182918334Y-148588152D02*
X183061191Y-148588152D01*
X183061191Y-148588152D02*
X183156429Y-148635771D01*
X164275473Y-150864819D02*
X164275473Y-150341009D01*
X164275473Y-150341009D02*
X164227854Y-150245771D01*
X164227854Y-150245771D02*
X164132616Y-150198152D01*
X164132616Y-150198152D02*
X163942140Y-150198152D01*
X163942140Y-150198152D02*
X163846902Y-150245771D01*
X164275473Y-150817200D02*
X164180235Y-150864819D01*
X164180235Y-150864819D02*
X163942140Y-150864819D01*
X163942140Y-150864819D02*
X163846902Y-150817200D01*
X163846902Y-150817200D02*
X163799283Y-150721961D01*
X163799283Y-150721961D02*
X163799283Y-150626723D01*
X163799283Y-150626723D02*
X163846902Y-150531485D01*
X163846902Y-150531485D02*
X163942140Y-150483866D01*
X163942140Y-150483866D02*
X164180235Y-150483866D01*
X164180235Y-150483866D02*
X164275473Y-150436247D01*
X164751664Y-150198152D02*
X164751664Y-150864819D01*
X164751664Y-150293390D02*
X164799283Y-150245771D01*
X164799283Y-150245771D02*
X164894521Y-150198152D01*
X164894521Y-150198152D02*
X165037378Y-150198152D01*
X165037378Y-150198152D02*
X165132616Y-150245771D01*
X165132616Y-150245771D02*
X165180235Y-150341009D01*
X165180235Y-150341009D02*
X165180235Y-150864819D01*
X166084997Y-150864819D02*
X166084997Y-149864819D01*
X166084997Y-150817200D02*
X165989759Y-150864819D01*
X165989759Y-150864819D02*
X165799283Y-150864819D01*
X165799283Y-150864819D02*
X165704045Y-150817200D01*
X165704045Y-150817200D02*
X165656426Y-150769580D01*
X165656426Y-150769580D02*
X165608807Y-150674342D01*
X165608807Y-150674342D02*
X165608807Y-150388628D01*
X165608807Y-150388628D02*
X165656426Y-150293390D01*
X165656426Y-150293390D02*
X165704045Y-150245771D01*
X165704045Y-150245771D02*
X165799283Y-150198152D01*
X165799283Y-150198152D02*
X165989759Y-150198152D01*
X165989759Y-150198152D02*
X166084997Y-150245771D01*
X167894521Y-150864819D02*
X167561188Y-150388628D01*
X167323093Y-150864819D02*
X167323093Y-149864819D01*
X167323093Y-149864819D02*
X167704045Y-149864819D01*
X167704045Y-149864819D02*
X167799283Y-149912438D01*
X167799283Y-149912438D02*
X167846902Y-149960057D01*
X167846902Y-149960057D02*
X167894521Y-150055295D01*
X167894521Y-150055295D02*
X167894521Y-150198152D01*
X167894521Y-150198152D02*
X167846902Y-150293390D01*
X167846902Y-150293390D02*
X167799283Y-150341009D01*
X167799283Y-150341009D02*
X167704045Y-150388628D01*
X167704045Y-150388628D02*
X167323093Y-150388628D01*
X168465950Y-150864819D02*
X168370712Y-150817200D01*
X168370712Y-150817200D02*
X168323093Y-150769580D01*
X168323093Y-150769580D02*
X168275474Y-150674342D01*
X168275474Y-150674342D02*
X168275474Y-150388628D01*
X168275474Y-150388628D02*
X168323093Y-150293390D01*
X168323093Y-150293390D02*
X168370712Y-150245771D01*
X168370712Y-150245771D02*
X168465950Y-150198152D01*
X168465950Y-150198152D02*
X168608807Y-150198152D01*
X168608807Y-150198152D02*
X168704045Y-150245771D01*
X168704045Y-150245771D02*
X168751664Y-150293390D01*
X168751664Y-150293390D02*
X168799283Y-150388628D01*
X168799283Y-150388628D02*
X168799283Y-150674342D01*
X168799283Y-150674342D02*
X168751664Y-150769580D01*
X168751664Y-150769580D02*
X168704045Y-150817200D01*
X168704045Y-150817200D02*
X168608807Y-150864819D01*
X168608807Y-150864819D02*
X168465950Y-150864819D01*
X169656426Y-150817200D02*
X169561188Y-150864819D01*
X169561188Y-150864819D02*
X169370712Y-150864819D01*
X169370712Y-150864819D02*
X169275474Y-150817200D01*
X169275474Y-150817200D02*
X169227855Y-150769580D01*
X169227855Y-150769580D02*
X169180236Y-150674342D01*
X169180236Y-150674342D02*
X169180236Y-150388628D01*
X169180236Y-150388628D02*
X169227855Y-150293390D01*
X169227855Y-150293390D02*
X169275474Y-150245771D01*
X169275474Y-150245771D02*
X169370712Y-150198152D01*
X169370712Y-150198152D02*
X169561188Y-150198152D01*
X169561188Y-150198152D02*
X169656426Y-150245771D01*
X170084998Y-150864819D02*
X170084998Y-149864819D01*
X170180236Y-150483866D02*
X170465950Y-150864819D01*
X170465950Y-150198152D02*
X170084998Y-150579104D01*
X171275474Y-150817200D02*
X171180236Y-150864819D01*
X171180236Y-150864819D02*
X170989760Y-150864819D01*
X170989760Y-150864819D02*
X170894522Y-150817200D01*
X170894522Y-150817200D02*
X170846903Y-150721961D01*
X170846903Y-150721961D02*
X170846903Y-150341009D01*
X170846903Y-150341009D02*
X170894522Y-150245771D01*
X170894522Y-150245771D02*
X170989760Y-150198152D01*
X170989760Y-150198152D02*
X171180236Y-150198152D01*
X171180236Y-150198152D02*
X171275474Y-150245771D01*
X171275474Y-150245771D02*
X171323093Y-150341009D01*
X171323093Y-150341009D02*
X171323093Y-150436247D01*
X171323093Y-150436247D02*
X170846903Y-150531485D01*
X171608808Y-150198152D02*
X171989760Y-150198152D01*
X171751665Y-149864819D02*
X171751665Y-150721961D01*
X171751665Y-150721961D02*
X171799284Y-150817200D01*
X171799284Y-150817200D02*
X171894522Y-150864819D01*
X171894522Y-150864819D02*
X171989760Y-150864819D01*
X172323094Y-150864819D02*
X172323094Y-150198152D01*
X172323094Y-150388628D02*
X172370713Y-150293390D01*
X172370713Y-150293390D02*
X172418332Y-150245771D01*
X172418332Y-150245771D02*
X172513570Y-150198152D01*
X172513570Y-150198152D02*
X172608808Y-150198152D01*
X172846904Y-150198152D02*
X173084999Y-150864819D01*
X173323094Y-150198152D02*
X173084999Y-150864819D01*
X173084999Y-150864819D02*
X172989761Y-151102914D01*
X172989761Y-151102914D02*
X172942142Y-151150533D01*
X172942142Y-151150533D02*
X172846904Y-151198152D01*
X174894523Y-150864819D02*
X174894523Y-150341009D01*
X174894523Y-150341009D02*
X174846904Y-150245771D01*
X174846904Y-150245771D02*
X174751666Y-150198152D01*
X174751666Y-150198152D02*
X174561190Y-150198152D01*
X174561190Y-150198152D02*
X174465952Y-150245771D01*
X174894523Y-150817200D02*
X174799285Y-150864819D01*
X174799285Y-150864819D02*
X174561190Y-150864819D01*
X174561190Y-150864819D02*
X174465952Y-150817200D01*
X174465952Y-150817200D02*
X174418333Y-150721961D01*
X174418333Y-150721961D02*
X174418333Y-150626723D01*
X174418333Y-150626723D02*
X174465952Y-150531485D01*
X174465952Y-150531485D02*
X174561190Y-150483866D01*
X174561190Y-150483866D02*
X174799285Y-150483866D01*
X174799285Y-150483866D02*
X174894523Y-150436247D01*
X175227857Y-150198152D02*
X175608809Y-150198152D01*
X175370714Y-149864819D02*
X175370714Y-150721961D01*
X175370714Y-150721961D02*
X175418333Y-150817200D01*
X175418333Y-150817200D02*
X175513571Y-150864819D01*
X175513571Y-150864819D02*
X175608809Y-150864819D01*
X176704048Y-149864819D02*
X176704048Y-150674342D01*
X176704048Y-150674342D02*
X176751667Y-150769580D01*
X176751667Y-150769580D02*
X176799286Y-150817200D01*
X176799286Y-150817200D02*
X176894524Y-150864819D01*
X176894524Y-150864819D02*
X177085000Y-150864819D01*
X177085000Y-150864819D02*
X177180238Y-150817200D01*
X177180238Y-150817200D02*
X177227857Y-150769580D01*
X177227857Y-150769580D02*
X177275476Y-150674342D01*
X177275476Y-150674342D02*
X177275476Y-149864819D01*
X178323095Y-150769580D02*
X178275476Y-150817200D01*
X178275476Y-150817200D02*
X178132619Y-150864819D01*
X178132619Y-150864819D02*
X178037381Y-150864819D01*
X178037381Y-150864819D02*
X177894524Y-150817200D01*
X177894524Y-150817200D02*
X177799286Y-150721961D01*
X177799286Y-150721961D02*
X177751667Y-150626723D01*
X177751667Y-150626723D02*
X177704048Y-150436247D01*
X177704048Y-150436247D02*
X177704048Y-150293390D01*
X177704048Y-150293390D02*
X177751667Y-150102914D01*
X177751667Y-150102914D02*
X177799286Y-150007676D01*
X177799286Y-150007676D02*
X177894524Y-149912438D01*
X177894524Y-149912438D02*
X178037381Y-149864819D01*
X178037381Y-149864819D02*
X178132619Y-149864819D01*
X178132619Y-149864819D02*
X178275476Y-149912438D01*
X178275476Y-149912438D02*
X178323095Y-149960057D01*
X179846905Y-150341009D02*
X179989762Y-150388628D01*
X179989762Y-150388628D02*
X180037381Y-150436247D01*
X180037381Y-150436247D02*
X180085000Y-150531485D01*
X180085000Y-150531485D02*
X180085000Y-150674342D01*
X180085000Y-150674342D02*
X180037381Y-150769580D01*
X180037381Y-150769580D02*
X179989762Y-150817200D01*
X179989762Y-150817200D02*
X179894524Y-150864819D01*
X179894524Y-150864819D02*
X179513572Y-150864819D01*
X179513572Y-150864819D02*
X179513572Y-149864819D01*
X179513572Y-149864819D02*
X179846905Y-149864819D01*
X179846905Y-149864819D02*
X179942143Y-149912438D01*
X179942143Y-149912438D02*
X179989762Y-149960057D01*
X179989762Y-149960057D02*
X180037381Y-150055295D01*
X180037381Y-150055295D02*
X180037381Y-150150533D01*
X180037381Y-150150533D02*
X179989762Y-150245771D01*
X179989762Y-150245771D02*
X179942143Y-150293390D01*
X179942143Y-150293390D02*
X179846905Y-150341009D01*
X179846905Y-150341009D02*
X179513572Y-150341009D01*
X180894524Y-150817200D02*
X180799286Y-150864819D01*
X180799286Y-150864819D02*
X180608810Y-150864819D01*
X180608810Y-150864819D02*
X180513572Y-150817200D01*
X180513572Y-150817200D02*
X180465953Y-150721961D01*
X180465953Y-150721961D02*
X180465953Y-150341009D01*
X180465953Y-150341009D02*
X180513572Y-150245771D01*
X180513572Y-150245771D02*
X180608810Y-150198152D01*
X180608810Y-150198152D02*
X180799286Y-150198152D01*
X180799286Y-150198152D02*
X180894524Y-150245771D01*
X180894524Y-150245771D02*
X180942143Y-150341009D01*
X180942143Y-150341009D02*
X180942143Y-150436247D01*
X180942143Y-150436247D02*
X180465953Y-150531485D01*
X181370715Y-150864819D02*
X181370715Y-150198152D01*
X181370715Y-150388628D02*
X181418334Y-150293390D01*
X181418334Y-150293390D02*
X181465953Y-150245771D01*
X181465953Y-150245771D02*
X181561191Y-150198152D01*
X181561191Y-150198152D02*
X181656429Y-150198152D01*
X181989763Y-150864819D02*
X181989763Y-149864819D01*
X182085001Y-150483866D02*
X182370715Y-150864819D01*
X182370715Y-150198152D02*
X181989763Y-150579104D01*
X183180239Y-150817200D02*
X183085001Y-150864819D01*
X183085001Y-150864819D02*
X182894525Y-150864819D01*
X182894525Y-150864819D02*
X182799287Y-150817200D01*
X182799287Y-150817200D02*
X182751668Y-150721961D01*
X182751668Y-150721961D02*
X182751668Y-150341009D01*
X182751668Y-150341009D02*
X182799287Y-150245771D01*
X182799287Y-150245771D02*
X182894525Y-150198152D01*
X182894525Y-150198152D02*
X183085001Y-150198152D01*
X183085001Y-150198152D02*
X183180239Y-150245771D01*
X183180239Y-150245771D02*
X183227858Y-150341009D01*
X183227858Y-150341009D02*
X183227858Y-150436247D01*
X183227858Y-150436247D02*
X182751668Y-150531485D01*
X183799287Y-150864819D02*
X183704049Y-150817200D01*
X183704049Y-150817200D02*
X183656430Y-150721961D01*
X183656430Y-150721961D02*
X183656430Y-149864819D01*
X184561192Y-150817200D02*
X184465954Y-150864819D01*
X184465954Y-150864819D02*
X184275478Y-150864819D01*
X184275478Y-150864819D02*
X184180240Y-150817200D01*
X184180240Y-150817200D02*
X184132621Y-150721961D01*
X184132621Y-150721961D02*
X184132621Y-150341009D01*
X184132621Y-150341009D02*
X184180240Y-150245771D01*
X184180240Y-150245771D02*
X184275478Y-150198152D01*
X184275478Y-150198152D02*
X184465954Y-150198152D01*
X184465954Y-150198152D02*
X184561192Y-150245771D01*
X184561192Y-150245771D02*
X184608811Y-150341009D01*
X184608811Y-150341009D02*
X184608811Y-150436247D01*
X184608811Y-150436247D02*
X184132621Y-150531485D01*
X184942145Y-150198152D02*
X185180240Y-150864819D01*
X185418335Y-150198152D02*
X185180240Y-150864819D01*
X185180240Y-150864819D02*
X185085002Y-151102914D01*
X185085002Y-151102914D02*
X185037383Y-151150533D01*
X185037383Y-151150533D02*
X184942145Y-151198152D01*
X143171298Y-123719651D02*
X143177167Y-123786738D01*
X143177167Y-123786738D02*
X143121819Y-123926782D01*
X143121819Y-123926782D02*
X143060601Y-123999739D01*
X143060601Y-123999739D02*
X142932296Y-124078565D01*
X142932296Y-124078565D02*
X142798121Y-124090303D01*
X142798121Y-124090303D02*
X142694556Y-124065564D01*
X142694556Y-124065564D02*
X142518034Y-123979606D01*
X142518034Y-123979606D02*
X142408599Y-123887780D01*
X142408599Y-123887780D02*
X142293294Y-123728865D01*
X142293294Y-123728865D02*
X142250947Y-123631169D01*
X142250947Y-123631169D02*
X142239208Y-123496995D01*
X142239208Y-123496995D02*
X142294556Y-123356951D01*
X142294556Y-123356951D02*
X142355774Y-123283994D01*
X142355774Y-123283994D02*
X142484079Y-123205168D01*
X142484079Y-123205168D02*
X142551167Y-123199299D01*
X143856433Y-123051303D02*
X143489126Y-123489042D01*
X143672780Y-123270172D02*
X142906735Y-122627385D01*
X142906735Y-122627385D02*
X142954952Y-122792168D01*
X142954952Y-122792168D02*
X142966691Y-122926343D01*
X142966691Y-122926343D02*
X142941951Y-123029908D01*
X143488305Y-121934297D02*
X143549523Y-121861340D01*
X143549523Y-121861340D02*
X143647219Y-121818993D01*
X143647219Y-121818993D02*
X143714306Y-121813123D01*
X143714306Y-121813123D02*
X143817872Y-121837863D01*
X143817872Y-121837863D02*
X143994394Y-121923820D01*
X143994394Y-121923820D02*
X144176785Y-122076865D01*
X144176785Y-122076865D02*
X144292090Y-122235779D01*
X144292090Y-122235779D02*
X144334437Y-122333475D01*
X144334437Y-122333475D02*
X144340307Y-122400562D01*
X144340307Y-122400562D02*
X144315567Y-122504128D01*
X144315567Y-122504128D02*
X144254349Y-122577085D01*
X144254349Y-122577085D02*
X144156653Y-122619432D01*
X144156653Y-122619432D02*
X144089566Y-122625302D01*
X144089566Y-122625302D02*
X143986000Y-122600562D01*
X143986000Y-122600562D02*
X143809478Y-122514605D01*
X143809478Y-122514605D02*
X143627087Y-122361560D01*
X143627087Y-122361560D02*
X143511782Y-122202646D01*
X143511782Y-122202646D02*
X143469435Y-122104950D01*
X143469435Y-122104950D02*
X143463565Y-122037863D01*
X143463565Y-122037863D02*
X143488305Y-121934297D01*
X135874324Y-118140757D02*
X135807236Y-118146626D01*
X135807236Y-118146626D02*
X135667193Y-118091277D01*
X135667193Y-118091277D02*
X135594236Y-118030060D01*
X135594236Y-118030060D02*
X135515410Y-117901754D01*
X135515410Y-117901754D02*
X135503671Y-117767580D01*
X135503671Y-117767580D02*
X135528411Y-117664014D01*
X135528411Y-117664014D02*
X135614368Y-117487492D01*
X135614368Y-117487492D02*
X135706195Y-117378057D01*
X135706195Y-117378057D02*
X135865109Y-117262753D01*
X135865109Y-117262753D02*
X135962805Y-117220405D01*
X135962805Y-117220405D02*
X136096980Y-117208667D01*
X136096980Y-117208667D02*
X136237024Y-117264015D01*
X136237024Y-117264015D02*
X136309980Y-117325233D01*
X136309980Y-117325233D02*
X136388806Y-117453538D01*
X136388806Y-117453538D02*
X136394675Y-117520625D01*
X136177889Y-118519802D02*
X136323802Y-118642238D01*
X136323802Y-118642238D02*
X136427368Y-118666978D01*
X136427368Y-118666978D02*
X136494455Y-118661108D01*
X136494455Y-118661108D02*
X136659238Y-118612891D01*
X136659238Y-118612891D02*
X136818152Y-118497587D01*
X136818152Y-118497587D02*
X137063024Y-118205761D01*
X137063024Y-118205761D02*
X137087763Y-118102195D01*
X137087763Y-118102195D02*
X137081894Y-118035108D01*
X137081894Y-118035108D02*
X137039546Y-117937412D01*
X137039546Y-117937412D02*
X136893633Y-117814976D01*
X136893633Y-117814976D02*
X136790067Y-117790236D01*
X136790067Y-117790236D02*
X136722980Y-117796106D01*
X136722980Y-117796106D02*
X136625284Y-117838453D01*
X136625284Y-117838453D02*
X136472239Y-118020845D01*
X136472239Y-118020845D02*
X136447500Y-118124410D01*
X136447500Y-118124410D02*
X136453369Y-118191498D01*
X136453369Y-118191498D02*
X136495717Y-118289194D01*
X136495717Y-118289194D02*
X136641630Y-118411630D01*
X136641630Y-118411630D02*
X136745196Y-118436369D01*
X136745196Y-118436369D02*
X136812283Y-118430500D01*
X136812283Y-118430500D02*
X136909979Y-118388152D01*
X142250246Y-111353528D02*
X142870377Y-111873880D01*
X142870377Y-111873880D02*
X142973942Y-111898619D01*
X142973942Y-111898619D02*
X143041030Y-111892750D01*
X143041030Y-111892750D02*
X143138726Y-111850402D01*
X143138726Y-111850402D02*
X143261162Y-111704489D01*
X143261162Y-111704489D02*
X143285901Y-111600923D01*
X143285901Y-111600923D02*
X143280032Y-111533836D01*
X143280032Y-111533836D02*
X143237684Y-111436140D01*
X143237684Y-111436140D02*
X142617553Y-110915788D01*
X143454471Y-110436963D02*
X143965167Y-110865488D01*
X143009600Y-110374483D02*
X143403730Y-111016009D01*
X143403730Y-111016009D02*
X143801646Y-110541791D01*
X201725061Y-122406120D02*
X202298638Y-121586968D01*
X202298638Y-121586968D02*
X202493674Y-121723533D01*
X202493674Y-121723533D02*
X202583382Y-121844480D01*
X202583382Y-121844480D02*
X202606771Y-121977121D01*
X202606771Y-121977121D02*
X202591151Y-122082449D01*
X202591151Y-122082449D02*
X202520906Y-122265791D01*
X202520906Y-122265791D02*
X202438967Y-122382812D01*
X202438967Y-122382812D02*
X202290707Y-122511528D01*
X202290707Y-122511528D02*
X202197073Y-122562230D01*
X202197073Y-122562230D02*
X202064432Y-122585618D01*
X202064432Y-122585618D02*
X201920097Y-122542686D01*
X201920097Y-122542686D02*
X201725061Y-122406120D01*
X203277663Y-122679413D02*
X202895278Y-123225515D01*
X203301132Y-122230789D02*
X202696398Y-122679332D01*
X202696398Y-122679332D02*
X203203492Y-123034403D01*
X157682116Y-135933417D02*
X157687985Y-136000505D01*
X157687985Y-136000505D02*
X157632636Y-136140548D01*
X157632636Y-136140548D02*
X157571419Y-136213505D01*
X157571419Y-136213505D02*
X157443113Y-136292331D01*
X157443113Y-136292331D02*
X157308939Y-136304070D01*
X157308939Y-136304070D02*
X157205373Y-136279330D01*
X157205373Y-136279330D02*
X157028851Y-136193373D01*
X157028851Y-136193373D02*
X156919416Y-136101546D01*
X156919416Y-136101546D02*
X156804112Y-135942632D01*
X156804112Y-135942632D02*
X156761764Y-135844936D01*
X156761764Y-135844936D02*
X156750026Y-135710761D01*
X156750026Y-135710761D02*
X156805374Y-135570717D01*
X156805374Y-135570717D02*
X156866592Y-135497761D01*
X156866592Y-135497761D02*
X156994897Y-135418935D01*
X156994897Y-135418935D02*
X157061984Y-135413066D01*
X157795337Y-134909501D02*
X158306033Y-135338026D01*
X157350466Y-134847021D02*
X157744595Y-135488546D01*
X157744595Y-135488546D02*
X158142512Y-135014328D01*
X187585582Y-122012289D02*
X186766430Y-121438712D01*
X186766430Y-121438712D02*
X186902995Y-121243676D01*
X186902995Y-121243676D02*
X187023942Y-121153968D01*
X187023942Y-121153968D02*
X187156583Y-121130579D01*
X187156583Y-121130579D02*
X187261911Y-121146199D01*
X187261911Y-121146199D02*
X187445253Y-121216444D01*
X187445253Y-121216444D02*
X187562274Y-121298383D01*
X187562274Y-121298383D02*
X187690990Y-121446643D01*
X187690990Y-121446643D02*
X187741692Y-121540277D01*
X187741692Y-121540277D02*
X187765080Y-121672918D01*
X187765080Y-121672918D02*
X187722148Y-121817253D01*
X187722148Y-121817253D02*
X187585582Y-122012289D01*
X187585825Y-120268495D02*
X187476572Y-120424524D01*
X187476572Y-120424524D02*
X187460953Y-120529852D01*
X187460953Y-120529852D02*
X187472647Y-120596172D01*
X187472647Y-120596172D02*
X187535042Y-120756126D01*
X187535042Y-120756126D02*
X187663758Y-120904386D01*
X187663758Y-120904386D02*
X187975816Y-121122891D01*
X187975816Y-121122891D02*
X188081144Y-121138510D01*
X188081144Y-121138510D02*
X188147464Y-121126816D01*
X188147464Y-121126816D02*
X188241098Y-121076115D01*
X188241098Y-121076115D02*
X188350350Y-120920086D01*
X188350350Y-120920086D02*
X188365969Y-120814758D01*
X188365969Y-120814758D02*
X188354275Y-120748438D01*
X188354275Y-120748438D02*
X188303574Y-120654804D01*
X188303574Y-120654804D02*
X188108538Y-120518239D01*
X188108538Y-120518239D02*
X188003210Y-120502620D01*
X188003210Y-120502620D02*
X187936890Y-120514314D01*
X187936890Y-120514314D02*
X187843256Y-120565015D01*
X187843256Y-120565015D02*
X187734003Y-120721044D01*
X187734003Y-120721044D02*
X187718384Y-120826372D01*
X187718384Y-120826372D02*
X187730078Y-120892692D01*
X187730078Y-120892692D02*
X187780780Y-120986326D01*
X150269566Y-129437836D02*
X150275435Y-129504924D01*
X150275435Y-129504924D02*
X150220086Y-129644967D01*
X150220086Y-129644967D02*
X150158869Y-129717924D01*
X150158869Y-129717924D02*
X150030563Y-129796750D01*
X150030563Y-129796750D02*
X149896389Y-129808489D01*
X149896389Y-129808489D02*
X149792823Y-129783749D01*
X149792823Y-129783749D02*
X149616301Y-129697792D01*
X149616301Y-129697792D02*
X149506866Y-129605965D01*
X149506866Y-129605965D02*
X149391562Y-129447051D01*
X149391562Y-129447051D02*
X149349214Y-129349355D01*
X149349214Y-129349355D02*
X149337476Y-129215180D01*
X149337476Y-129215180D02*
X149392824Y-129075136D01*
X149392824Y-129075136D02*
X149454042Y-129002180D01*
X149454042Y-129002180D02*
X149582347Y-128923354D01*
X149582347Y-128923354D02*
X149649434Y-128917485D01*
X150272090Y-128694007D02*
X150174393Y-128736355D01*
X150174393Y-128736355D02*
X150107306Y-128742224D01*
X150107306Y-128742224D02*
X150003741Y-128717485D01*
X150003741Y-128717485D02*
X149967262Y-128686876D01*
X149967262Y-128686876D02*
X149924915Y-128589180D01*
X149924915Y-128589180D02*
X149919045Y-128522093D01*
X149919045Y-128522093D02*
X149943785Y-128418527D01*
X149943785Y-128418527D02*
X150066221Y-128272614D01*
X150066221Y-128272614D02*
X150163917Y-128230266D01*
X150163917Y-128230266D02*
X150231004Y-128224397D01*
X150231004Y-128224397D02*
X150334570Y-128249136D01*
X150334570Y-128249136D02*
X150371048Y-128279745D01*
X150371048Y-128279745D02*
X150413396Y-128377441D01*
X150413396Y-128377441D02*
X150419265Y-128444529D01*
X150419265Y-128444529D02*
X150394525Y-128548094D01*
X150394525Y-128548094D02*
X150272090Y-128694007D01*
X150272090Y-128694007D02*
X150247350Y-128797573D01*
X150247350Y-128797573D02*
X150253219Y-128864660D01*
X150253219Y-128864660D02*
X150295567Y-128962356D01*
X150295567Y-128962356D02*
X150441480Y-129084792D01*
X150441480Y-129084792D02*
X150545046Y-129109532D01*
X150545046Y-129109532D02*
X150612133Y-129103662D01*
X150612133Y-129103662D02*
X150709829Y-129061315D01*
X150709829Y-129061315D02*
X150832265Y-128915401D01*
X150832265Y-128915401D02*
X150857005Y-128811836D01*
X150857005Y-128811836D02*
X150851135Y-128744749D01*
X150851135Y-128744749D02*
X150808788Y-128647052D01*
X150808788Y-128647052D02*
X150662874Y-128524617D01*
X150662874Y-128524617D02*
X150559309Y-128499877D01*
X150559309Y-128499877D02*
X150492222Y-128505746D01*
X150492222Y-128505746D02*
X150394525Y-128548094D01*
X161212152Y-133523718D02*
X160633107Y-133472977D01*
X160844845Y-133961458D02*
X160078800Y-133318670D01*
X160078800Y-133318670D02*
X160323672Y-133026844D01*
X160323672Y-133026844D02*
X160421368Y-132984496D01*
X160421368Y-132984496D02*
X160488455Y-132978627D01*
X160488455Y-132978627D02*
X160592021Y-133003366D01*
X160592021Y-133003366D02*
X160701456Y-133095193D01*
X160701456Y-133095193D02*
X160743804Y-133192889D01*
X160743804Y-133192889D02*
X160749673Y-133259977D01*
X160749673Y-133259977D02*
X160724933Y-133363542D01*
X160724933Y-133363542D02*
X160480062Y-133655369D01*
X160660370Y-132625583D02*
X161058286Y-132151365D01*
X161058286Y-132151365D02*
X161135850Y-132651584D01*
X161135850Y-132651584D02*
X161227677Y-132542149D01*
X161227677Y-132542149D02*
X161325373Y-132499802D01*
X161325373Y-132499802D02*
X161392461Y-132493932D01*
X161392461Y-132493932D02*
X161496026Y-132518672D01*
X161496026Y-132518672D02*
X161678418Y-132671716D01*
X161678418Y-132671716D02*
X161720765Y-132769413D01*
X161720765Y-132769413D02*
X161726635Y-132836500D01*
X161726635Y-132836500D02*
X161701895Y-132940065D01*
X161701895Y-132940065D02*
X161518241Y-133158935D01*
X161518241Y-133158935D02*
X161420545Y-133201283D01*
X161420545Y-133201283D02*
X161353458Y-133207152D01*
X206609048Y-115146150D02*
X207182625Y-114326998D01*
X207182625Y-114326998D02*
X207377661Y-114463563D01*
X207377661Y-114463563D02*
X207467369Y-114584510D01*
X207467369Y-114584510D02*
X207490758Y-114717151D01*
X207490758Y-114717151D02*
X207475138Y-114822479D01*
X207475138Y-114822479D02*
X207404893Y-115005821D01*
X207404893Y-115005821D02*
X207322954Y-115122842D01*
X207322954Y-115122842D02*
X207174694Y-115251558D01*
X207174694Y-115251558D02*
X207081060Y-115302260D01*
X207081060Y-115302260D02*
X206948419Y-115325648D01*
X206948419Y-115325648D02*
X206804084Y-115282716D01*
X206804084Y-115282716D02*
X206609048Y-115146150D01*
X207857280Y-116020171D02*
X207389193Y-115692413D01*
X207623236Y-115856292D02*
X208196813Y-115037140D01*
X208196813Y-115037140D02*
X208036859Y-115099535D01*
X208036859Y-115099535D02*
X207904218Y-115122923D01*
X207904218Y-115122923D02*
X207798890Y-115107304D01*
X190993891Y-124384236D02*
X190174739Y-123810659D01*
X190174739Y-123810659D02*
X190311304Y-123615623D01*
X190311304Y-123615623D02*
X190432251Y-123525915D01*
X190432251Y-123525915D02*
X190564892Y-123502526D01*
X190564892Y-123502526D02*
X190670220Y-123518146D01*
X190670220Y-123518146D02*
X190853562Y-123588391D01*
X190853562Y-123588391D02*
X190970583Y-123670330D01*
X190970583Y-123670330D02*
X191099299Y-123818590D01*
X191099299Y-123818590D02*
X191150001Y-123912224D01*
X191150001Y-123912224D02*
X191173389Y-124044865D01*
X191173389Y-124044865D02*
X191130457Y-124189200D01*
X191130457Y-124189200D02*
X190993891Y-124384236D01*
X190693689Y-123069522D02*
X191048760Y-122562428D01*
X191048760Y-122562428D02*
X191169626Y-123053984D01*
X191169626Y-123053984D02*
X191251565Y-122936962D01*
X191251565Y-122936962D02*
X191345199Y-122886261D01*
X191345199Y-122886261D02*
X191411519Y-122874567D01*
X191411519Y-122874567D02*
X191516847Y-122890186D01*
X191516847Y-122890186D02*
X191711883Y-123026751D01*
X191711883Y-123026751D02*
X191762584Y-123120385D01*
X191762584Y-123120385D02*
X191774278Y-123186705D01*
X191774278Y-123186705D02*
X191758659Y-123292033D01*
X191758659Y-123292033D02*
X191594780Y-123526077D01*
X191594780Y-123526077D02*
X191501147Y-123576778D01*
X191501147Y-123576778D02*
X191434826Y-123588472D01*
X198154982Y-112307070D02*
X198088662Y-112318764D01*
X198088662Y-112318764D02*
X197944327Y-112275832D01*
X197944327Y-112275832D02*
X197866313Y-112221206D01*
X197866313Y-112221206D02*
X197776604Y-112100259D01*
X197776604Y-112100259D02*
X197753216Y-111967618D01*
X197753216Y-111967618D02*
X197768835Y-111862290D01*
X197768835Y-111862290D02*
X197839080Y-111678948D01*
X197839080Y-111678948D02*
X197921020Y-111561927D01*
X197921020Y-111561927D02*
X198069280Y-111433211D01*
X198069280Y-111433211D02*
X198162913Y-111382510D01*
X198162913Y-111382510D02*
X198295554Y-111359121D01*
X198295554Y-111359121D02*
X198439889Y-111402054D01*
X198439889Y-111402054D02*
X198517904Y-111456680D01*
X198517904Y-111456680D02*
X198607612Y-111577627D01*
X198607612Y-111577627D02*
X198619306Y-111643947D01*
X198880501Y-112931348D02*
X198412414Y-112603590D01*
X198646457Y-112767469D02*
X199220034Y-111948317D01*
X199220034Y-111948317D02*
X199060080Y-112010712D01*
X199060080Y-112010712D02*
X198927439Y-112034100D01*
X198927439Y-112034100D02*
X198822111Y-112018481D01*
X146928226Y-120604569D02*
X146349181Y-120553828D01*
X146560919Y-121042309D02*
X145794874Y-120399521D01*
X145794874Y-120399521D02*
X146039746Y-120107695D01*
X146039746Y-120107695D02*
X146137442Y-120065347D01*
X146137442Y-120065347D02*
X146204529Y-120059478D01*
X146204529Y-120059478D02*
X146308095Y-120084217D01*
X146308095Y-120084217D02*
X146417530Y-120176044D01*
X146417530Y-120176044D02*
X146459878Y-120273740D01*
X146459878Y-120273740D02*
X146465747Y-120340828D01*
X146465747Y-120340828D02*
X146441007Y-120444393D01*
X146441007Y-120444393D02*
X146196136Y-120736220D01*
X146713143Y-119305172D02*
X146590707Y-119451085D01*
X146590707Y-119451085D02*
X146565967Y-119554651D01*
X146565967Y-119554651D02*
X146571837Y-119621738D01*
X146571837Y-119621738D02*
X146620054Y-119786522D01*
X146620054Y-119786522D02*
X146735358Y-119945436D01*
X146735358Y-119945436D02*
X147027184Y-120190307D01*
X147027184Y-120190307D02*
X147130750Y-120215047D01*
X147130750Y-120215047D02*
X147197837Y-120209177D01*
X147197837Y-120209177D02*
X147295533Y-120166830D01*
X147295533Y-120166830D02*
X147417969Y-120020916D01*
X147417969Y-120020916D02*
X147442709Y-119917351D01*
X147442709Y-119917351D02*
X147436839Y-119850264D01*
X147436839Y-119850264D02*
X147394492Y-119752567D01*
X147394492Y-119752567D02*
X147212100Y-119599523D01*
X147212100Y-119599523D02*
X147108535Y-119574783D01*
X147108535Y-119574783D02*
X147041447Y-119580653D01*
X147041447Y-119580653D02*
X146943751Y-119623000D01*
X146943751Y-119623000D02*
X146821315Y-119768913D01*
X146821315Y-119768913D02*
X146796576Y-119872479D01*
X146796576Y-119872479D02*
X146802445Y-119939566D01*
X146802445Y-119939566D02*
X146844793Y-120037262D01*
X126816049Y-115174838D02*
X126601787Y-115430186D01*
X127003048Y-115766884D02*
X126237004Y-115124097D01*
X126237004Y-115124097D02*
X126543093Y-114759313D01*
X127367010Y-114518228D02*
X127495315Y-114439402D01*
X127495315Y-114439402D02*
X127562403Y-114433533D01*
X127562403Y-114433533D02*
X127665968Y-114458272D01*
X127665968Y-114458272D02*
X127775403Y-114550099D01*
X127775403Y-114550099D02*
X127817751Y-114647795D01*
X127817751Y-114647795D02*
X127823620Y-114714883D01*
X127823620Y-114714883D02*
X127798881Y-114818448D01*
X127798881Y-114818448D02*
X127554009Y-115110275D01*
X127554009Y-115110275D02*
X126787965Y-114467487D01*
X126787965Y-114467487D02*
X127002227Y-114212139D01*
X127002227Y-114212139D02*
X127099923Y-114169791D01*
X127099923Y-114169791D02*
X127167011Y-114163922D01*
X127167011Y-114163922D02*
X127270576Y-114188661D01*
X127270576Y-114188661D02*
X127343533Y-114249879D01*
X127343533Y-114249879D02*
X127385880Y-114347575D01*
X127385880Y-114347575D02*
X127391750Y-114414663D01*
X127391750Y-114414663D02*
X127367010Y-114518228D01*
X127367010Y-114518228D02*
X127152748Y-114773576D01*
X127961581Y-113587400D02*
X128472277Y-114015925D01*
X127516710Y-113524920D02*
X127910840Y-114166446D01*
X127910840Y-114166446D02*
X128308756Y-113692228D01*
X176308632Y-103138094D02*
X175308632Y-103138094D01*
X175308632Y-103138094D02*
X175308632Y-102899999D01*
X175308632Y-102899999D02*
X175356251Y-102757142D01*
X175356251Y-102757142D02*
X175451489Y-102661904D01*
X175451489Y-102661904D02*
X175546727Y-102614285D01*
X175546727Y-102614285D02*
X175737203Y-102566666D01*
X175737203Y-102566666D02*
X175880060Y-102566666D01*
X175880060Y-102566666D02*
X176070536Y-102614285D01*
X176070536Y-102614285D02*
X176165774Y-102661904D01*
X176165774Y-102661904D02*
X176261013Y-102757142D01*
X176261013Y-102757142D02*
X176308632Y-102899999D01*
X176308632Y-102899999D02*
X176308632Y-103138094D01*
X175737203Y-101995237D02*
X175689584Y-102090475D01*
X175689584Y-102090475D02*
X175641965Y-102138094D01*
X175641965Y-102138094D02*
X175546727Y-102185713D01*
X175546727Y-102185713D02*
X175499108Y-102185713D01*
X175499108Y-102185713D02*
X175403870Y-102138094D01*
X175403870Y-102138094D02*
X175356251Y-102090475D01*
X175356251Y-102090475D02*
X175308632Y-101995237D01*
X175308632Y-101995237D02*
X175308632Y-101804761D01*
X175308632Y-101804761D02*
X175356251Y-101709523D01*
X175356251Y-101709523D02*
X175403870Y-101661904D01*
X175403870Y-101661904D02*
X175499108Y-101614285D01*
X175499108Y-101614285D02*
X175546727Y-101614285D01*
X175546727Y-101614285D02*
X175641965Y-101661904D01*
X175641965Y-101661904D02*
X175689584Y-101709523D01*
X175689584Y-101709523D02*
X175737203Y-101804761D01*
X175737203Y-101804761D02*
X175737203Y-101995237D01*
X175737203Y-101995237D02*
X175784822Y-102090475D01*
X175784822Y-102090475D02*
X175832441Y-102138094D01*
X175832441Y-102138094D02*
X175927679Y-102185713D01*
X175927679Y-102185713D02*
X176118155Y-102185713D01*
X176118155Y-102185713D02*
X176213393Y-102138094D01*
X176213393Y-102138094D02*
X176261013Y-102090475D01*
X176261013Y-102090475D02*
X176308632Y-101995237D01*
X176308632Y-101995237D02*
X176308632Y-101804761D01*
X176308632Y-101804761D02*
X176261013Y-101709523D01*
X176261013Y-101709523D02*
X176213393Y-101661904D01*
X176213393Y-101661904D02*
X176118155Y-101614285D01*
X176118155Y-101614285D02*
X175927679Y-101614285D01*
X175927679Y-101614285D02*
X175832441Y-101661904D01*
X175832441Y-101661904D02*
X175784822Y-101709523D01*
X175784822Y-101709523D02*
X175737203Y-101804761D01*
X137263768Y-116977993D02*
X137269637Y-117045081D01*
X137269637Y-117045081D02*
X137214288Y-117185124D01*
X137214288Y-117185124D02*
X137153071Y-117258081D01*
X137153071Y-117258081D02*
X137024765Y-117336907D01*
X137024765Y-117336907D02*
X136890591Y-117348646D01*
X136890591Y-117348646D02*
X136787025Y-117323906D01*
X136787025Y-117323906D02*
X136610503Y-117237949D01*
X136610503Y-117237949D02*
X136501068Y-117146122D01*
X136501068Y-117146122D02*
X136385764Y-116987208D01*
X136385764Y-116987208D02*
X136343416Y-116889512D01*
X136343416Y-116889512D02*
X136331678Y-116755337D01*
X136331678Y-116755337D02*
X136387026Y-116615293D01*
X136387026Y-116615293D02*
X136448244Y-116542337D01*
X136448244Y-116542337D02*
X136576549Y-116463511D01*
X136576549Y-116463511D02*
X136643636Y-116457642D01*
X137121641Y-115739814D02*
X136999205Y-115885727D01*
X136999205Y-115885727D02*
X136974465Y-115989293D01*
X136974465Y-115989293D02*
X136980335Y-116056380D01*
X136980335Y-116056380D02*
X137028552Y-116221164D01*
X137028552Y-116221164D02*
X137143856Y-116380078D01*
X137143856Y-116380078D02*
X137435682Y-116624949D01*
X137435682Y-116624949D02*
X137539248Y-116649689D01*
X137539248Y-116649689D02*
X137606335Y-116643819D01*
X137606335Y-116643819D02*
X137704031Y-116601472D01*
X137704031Y-116601472D02*
X137826467Y-116455558D01*
X137826467Y-116455558D02*
X137851207Y-116351993D01*
X137851207Y-116351993D02*
X137845337Y-116284906D01*
X137845337Y-116284906D02*
X137802990Y-116187209D01*
X137802990Y-116187209D02*
X137620598Y-116034165D01*
X137620598Y-116034165D02*
X137517033Y-116009425D01*
X137517033Y-116009425D02*
X137449945Y-116015295D01*
X137449945Y-116015295D02*
X137352249Y-116057642D01*
X137352249Y-116057642D02*
X137229813Y-116203555D01*
X137229813Y-116203555D02*
X137205074Y-116307121D01*
X137205074Y-116307121D02*
X137210943Y-116374208D01*
X137210943Y-116374208D02*
X137253291Y-116471904D01*
X156902627Y-124549211D02*
X157522758Y-125069563D01*
X157522758Y-125069563D02*
X157626323Y-125094302D01*
X157626323Y-125094302D02*
X157693411Y-125088433D01*
X157693411Y-125088433D02*
X157791107Y-125046085D01*
X157791107Y-125046085D02*
X157913543Y-124900172D01*
X157913543Y-124900172D02*
X157938282Y-124796606D01*
X157938282Y-124796606D02*
X157932413Y-124729519D01*
X157932413Y-124729519D02*
X157890065Y-124631823D01*
X157890065Y-124631823D02*
X157269934Y-124111471D01*
X158678766Y-123988214D02*
X158311459Y-124425954D01*
X158495112Y-124207084D02*
X157729068Y-123564297D01*
X157729068Y-123564297D02*
X157777285Y-123729080D01*
X157777285Y-123729080D02*
X157789024Y-123863254D01*
X157789024Y-123863254D02*
X157764284Y-123966820D01*
X194831741Y-117551784D02*
X194765421Y-117563478D01*
X194765421Y-117563478D02*
X194621086Y-117520546D01*
X194621086Y-117520546D02*
X194543072Y-117465920D01*
X194543072Y-117465920D02*
X194453363Y-117344973D01*
X194453363Y-117344973D02*
X194429975Y-117212332D01*
X194429975Y-117212332D02*
X194445594Y-117107004D01*
X194445594Y-117107004D02*
X194515839Y-116923662D01*
X194515839Y-116923662D02*
X194597779Y-116806641D01*
X194597779Y-116806641D02*
X194746039Y-116677925D01*
X194746039Y-116677925D02*
X194839672Y-116627224D01*
X194839672Y-116627224D02*
X194972313Y-116603835D01*
X194972313Y-116603835D02*
X195116648Y-116646768D01*
X195116648Y-116646768D02*
X195194663Y-116701394D01*
X195194663Y-116701394D02*
X195284371Y-116822341D01*
X195284371Y-116822341D02*
X195296065Y-116888661D01*
X195608123Y-117107166D02*
X195674443Y-117095472D01*
X195674443Y-117095472D02*
X195779771Y-117111091D01*
X195779771Y-117111091D02*
X195974807Y-117247657D01*
X195974807Y-117247657D02*
X196025509Y-117341291D01*
X196025509Y-117341291D02*
X196037203Y-117407611D01*
X196037203Y-117407611D02*
X196021584Y-117512939D01*
X196021584Y-117512939D02*
X195966957Y-117590953D01*
X195966957Y-117590953D02*
X195846011Y-117680662D01*
X195846011Y-117680662D02*
X195050166Y-117820991D01*
X195050166Y-117820991D02*
X195557260Y-118176062D01*
X130957500Y-118674721D02*
X130743238Y-118930069D01*
X131144499Y-119266767D02*
X130378455Y-118623980D01*
X130378455Y-118623980D02*
X130684544Y-118259196D01*
X131508461Y-118018111D02*
X131636766Y-117939285D01*
X131636766Y-117939285D02*
X131703854Y-117933416D01*
X131703854Y-117933416D02*
X131807419Y-117958155D01*
X131807419Y-117958155D02*
X131916854Y-118049982D01*
X131916854Y-118049982D02*
X131959202Y-118147678D01*
X131959202Y-118147678D02*
X131965071Y-118214766D01*
X131965071Y-118214766D02*
X131940332Y-118318331D01*
X131940332Y-118318331D02*
X131695460Y-118610158D01*
X131695460Y-118610158D02*
X130929416Y-117967370D01*
X130929416Y-117967370D02*
X131143678Y-117712022D01*
X131143678Y-117712022D02*
X131241374Y-117669674D01*
X131241374Y-117669674D02*
X131308462Y-117663805D01*
X131308462Y-117663805D02*
X131412027Y-117688544D01*
X131412027Y-117688544D02*
X131484984Y-117749762D01*
X131484984Y-117749762D02*
X131527331Y-117847458D01*
X131527331Y-117847458D02*
X131533201Y-117914546D01*
X131533201Y-117914546D02*
X131508461Y-118018111D01*
X131508461Y-118018111D02*
X131294199Y-118273459D01*
X131510985Y-117274282D02*
X131908902Y-116800064D01*
X131908902Y-116800064D02*
X131986465Y-117300284D01*
X131986465Y-117300284D02*
X132078292Y-117190849D01*
X132078292Y-117190849D02*
X132175988Y-117148501D01*
X132175988Y-117148501D02*
X132243076Y-117142632D01*
X132243076Y-117142632D02*
X132346641Y-117167371D01*
X132346641Y-117167371D02*
X132529033Y-117320416D01*
X132529033Y-117320416D02*
X132571380Y-117418112D01*
X132571380Y-117418112D02*
X132577250Y-117485199D01*
X132577250Y-117485199D02*
X132552510Y-117588765D01*
X132552510Y-117588765D02*
X132368857Y-117807635D01*
X132368857Y-117807635D02*
X132271160Y-117849982D01*
X132271160Y-117849982D02*
X132204073Y-117855852D01*
X140331851Y-127771907D02*
X140117589Y-128027255D01*
X140518850Y-128363953D02*
X139752806Y-127721166D01*
X139752806Y-127721166D02*
X140058895Y-127356382D01*
X140882812Y-127115297D02*
X141011117Y-127036471D01*
X141011117Y-127036471D02*
X141078205Y-127030602D01*
X141078205Y-127030602D02*
X141181770Y-127055341D01*
X141181770Y-127055341D02*
X141291205Y-127147168D01*
X141291205Y-127147168D02*
X141333553Y-127244864D01*
X141333553Y-127244864D02*
X141339422Y-127311952D01*
X141339422Y-127311952D02*
X141314683Y-127415517D01*
X141314683Y-127415517D02*
X141069811Y-127707344D01*
X141069811Y-127707344D02*
X140303767Y-127064556D01*
X140303767Y-127064556D02*
X140518029Y-126809208D01*
X140518029Y-126809208D02*
X140615725Y-126766860D01*
X140615725Y-126766860D02*
X140682813Y-126760991D01*
X140682813Y-126760991D02*
X140786378Y-126785730D01*
X140786378Y-126785730D02*
X140859335Y-126846948D01*
X140859335Y-126846948D02*
X140901682Y-126944644D01*
X140901682Y-126944644D02*
X140907552Y-127011732D01*
X140907552Y-127011732D02*
X140882812Y-127115297D01*
X140882812Y-127115297D02*
X140668550Y-127370645D01*
X141222035Y-125970207D02*
X141099599Y-126116120D01*
X141099599Y-126116120D02*
X141074859Y-126219685D01*
X141074859Y-126219685D02*
X141080729Y-126286773D01*
X141080729Y-126286773D02*
X141128946Y-126451556D01*
X141128946Y-126451556D02*
X141244250Y-126610470D01*
X141244250Y-126610470D02*
X141536077Y-126855342D01*
X141536077Y-126855342D02*
X141639642Y-126880081D01*
X141639642Y-126880081D02*
X141706729Y-126874212D01*
X141706729Y-126874212D02*
X141804425Y-126831864D01*
X141804425Y-126831864D02*
X141926861Y-126685951D01*
X141926861Y-126685951D02*
X141951601Y-126582385D01*
X141951601Y-126582385D02*
X141945731Y-126515298D01*
X141945731Y-126515298D02*
X141903384Y-126417602D01*
X141903384Y-126417602D02*
X141720992Y-126264557D01*
X141720992Y-126264557D02*
X141617427Y-126239818D01*
X141617427Y-126239818D02*
X141550339Y-126245687D01*
X141550339Y-126245687D02*
X141452643Y-126288035D01*
X141452643Y-126288035D02*
X141330207Y-126433948D01*
X141330207Y-126433948D02*
X141305468Y-126537514D01*
X141305468Y-126537514D02*
X141311337Y-126604601D01*
X141311337Y-126604601D02*
X141353685Y-126702297D01*
X196428087Y-114394854D02*
X196428168Y-113813589D01*
X195960000Y-114067096D02*
X196533577Y-113247944D01*
X196533577Y-113247944D02*
X196845635Y-113466449D01*
X196845635Y-113466449D02*
X196896336Y-113560083D01*
X196896336Y-113560083D02*
X196908030Y-113626403D01*
X196908030Y-113626403D02*
X196892411Y-113731731D01*
X196892411Y-113731731D02*
X196810471Y-113848752D01*
X196810471Y-113848752D02*
X196716838Y-113899454D01*
X196716838Y-113899454D02*
X196650517Y-113911148D01*
X196650517Y-113911148D02*
X196545190Y-113895529D01*
X196545190Y-113895529D02*
X196233132Y-113677023D01*
X197208232Y-114941117D02*
X196740145Y-114613359D01*
X196974188Y-114777238D02*
X197547765Y-113958086D01*
X197547765Y-113958086D02*
X197387811Y-114020481D01*
X197387811Y-114020481D02*
X197255170Y-114043869D01*
X197255170Y-114043869D02*
X197149842Y-114028250D01*
X154044481Y-127311932D02*
X153465436Y-127261191D01*
X153677174Y-127749672D02*
X152911129Y-127106884D01*
X152911129Y-127106884D02*
X153156001Y-126815058D01*
X153156001Y-126815058D02*
X153253697Y-126772710D01*
X153253697Y-126772710D02*
X153320784Y-126766841D01*
X153320784Y-126766841D02*
X153424350Y-126791580D01*
X153424350Y-126791580D02*
X153533785Y-126883407D01*
X153533785Y-126883407D02*
X153576133Y-126981103D01*
X153576133Y-126981103D02*
X153582002Y-127048191D01*
X153582002Y-127048191D02*
X153557262Y-127151756D01*
X153557262Y-127151756D02*
X153312391Y-127443583D01*
X153860006Y-125976057D02*
X153553917Y-126340840D01*
X153553917Y-126340840D02*
X153888091Y-126683408D01*
X153888091Y-126683408D02*
X153882222Y-126616320D01*
X153882222Y-126616320D02*
X153906961Y-126512755D01*
X153906961Y-126512755D02*
X154060006Y-126330363D01*
X154060006Y-126330363D02*
X154157702Y-126288016D01*
X154157702Y-126288016D02*
X154224790Y-126282146D01*
X154224790Y-126282146D02*
X154328355Y-126306886D01*
X154328355Y-126306886D02*
X154510747Y-126459930D01*
X154510747Y-126459930D02*
X154553094Y-126557627D01*
X154553094Y-126557627D02*
X154558964Y-126624714D01*
X154558964Y-126624714D02*
X154534224Y-126728279D01*
X154534224Y-126728279D02*
X154381179Y-126910671D01*
X154381179Y-126910671D02*
X154283483Y-126953019D01*
X154283483Y-126953019D02*
X154216396Y-126958888D01*
X128848862Y-112392967D02*
X128781774Y-112398836D01*
X128781774Y-112398836D02*
X128641731Y-112343487D01*
X128641731Y-112343487D02*
X128568774Y-112282270D01*
X128568774Y-112282270D02*
X128489948Y-112153964D01*
X128489948Y-112153964D02*
X128478209Y-112019790D01*
X128478209Y-112019790D02*
X128502949Y-111916224D01*
X128502949Y-111916224D02*
X128588906Y-111739702D01*
X128588906Y-111739702D02*
X128680733Y-111630267D01*
X128680733Y-111630267D02*
X128839647Y-111514963D01*
X128839647Y-111514963D02*
X128937343Y-111472615D01*
X128937343Y-111472615D02*
X129071518Y-111460877D01*
X129071518Y-111460877D02*
X129211562Y-111516225D01*
X129211562Y-111516225D02*
X129284518Y-111577443D01*
X129284518Y-111577443D02*
X129363344Y-111705748D01*
X129363344Y-111705748D02*
X129369213Y-111772835D01*
X130123519Y-112281448D02*
X129758736Y-111975359D01*
X129758736Y-111975359D02*
X129416168Y-112309533D01*
X129416168Y-112309533D02*
X129483256Y-112303664D01*
X129483256Y-112303664D02*
X129586821Y-112328403D01*
X129586821Y-112328403D02*
X129769213Y-112481448D01*
X129769213Y-112481448D02*
X129811560Y-112579144D01*
X129811560Y-112579144D02*
X129817430Y-112646232D01*
X129817430Y-112646232D02*
X129792690Y-112749797D01*
X129792690Y-112749797D02*
X129639646Y-112932189D01*
X129639646Y-112932189D02*
X129541949Y-112974536D01*
X129541949Y-112974536D02*
X129474862Y-112980406D01*
X129474862Y-112980406D02*
X129371297Y-112955666D01*
X129371297Y-112955666D02*
X129188905Y-112802621D01*
X129188905Y-112802621D02*
X129146557Y-112704925D01*
X129146557Y-112704925D02*
X129140688Y-112637838D01*
X203946043Y-118774973D02*
X204519620Y-117955821D01*
X204519620Y-117955821D02*
X204714656Y-118092386D01*
X204714656Y-118092386D02*
X204804364Y-118213333D01*
X204804364Y-118213333D02*
X204827753Y-118345974D01*
X204827753Y-118345974D02*
X204812133Y-118451302D01*
X204812133Y-118451302D02*
X204741888Y-118634644D01*
X204741888Y-118634644D02*
X204659949Y-118751665D01*
X204659949Y-118751665D02*
X204511689Y-118880381D01*
X204511689Y-118880381D02*
X204418055Y-118931083D01*
X204418055Y-118931083D02*
X204285414Y-118954471D01*
X204285414Y-118954471D02*
X204141079Y-118911539D01*
X204141079Y-118911539D02*
X203946043Y-118774973D01*
X205245138Y-118580098D02*
X205311458Y-118568404D01*
X205311458Y-118568404D02*
X205416786Y-118584023D01*
X205416786Y-118584023D02*
X205611822Y-118720589D01*
X205611822Y-118720589D02*
X205662524Y-118814223D01*
X205662524Y-118814223D02*
X205674218Y-118880543D01*
X205674218Y-118880543D02*
X205658599Y-118985871D01*
X205658599Y-118985871D02*
X205603972Y-119063885D01*
X205603972Y-119063885D02*
X205483026Y-119153594D01*
X205483026Y-119153594D02*
X204687181Y-119293923D01*
X204687181Y-119293923D02*
X205194275Y-119648994D01*
X153142772Y-138327324D02*
X152928510Y-138582672D01*
X153329771Y-138919370D02*
X152563727Y-138276583D01*
X152563727Y-138276583D02*
X152869816Y-137911799D01*
X153693733Y-137670714D02*
X153822038Y-137591888D01*
X153822038Y-137591888D02*
X153889126Y-137586019D01*
X153889126Y-137586019D02*
X153992691Y-137610758D01*
X153992691Y-137610758D02*
X154102126Y-137702585D01*
X154102126Y-137702585D02*
X154144474Y-137800281D01*
X154144474Y-137800281D02*
X154150343Y-137867369D01*
X154150343Y-137867369D02*
X154125604Y-137970934D01*
X154125604Y-137970934D02*
X153880732Y-138262761D01*
X153880732Y-138262761D02*
X153114688Y-137619973D01*
X153114688Y-137619973D02*
X153328950Y-137364625D01*
X153328950Y-137364625D02*
X153426646Y-137322277D01*
X153426646Y-137322277D02*
X153493734Y-137316408D01*
X153493734Y-137316408D02*
X153597299Y-137341147D01*
X153597299Y-137341147D02*
X153670256Y-137402365D01*
X153670256Y-137402365D02*
X153712603Y-137500061D01*
X153712603Y-137500061D02*
X153718473Y-137567149D01*
X153718473Y-137567149D02*
X153693733Y-137670714D01*
X153693733Y-137670714D02*
X153479471Y-137926062D01*
X154860218Y-137095455D02*
X154492911Y-137533194D01*
X154676564Y-137314325D02*
X153910520Y-136671537D01*
X153910520Y-136671537D02*
X153958737Y-136836320D01*
X153958737Y-136836320D02*
X153970476Y-136970495D01*
X153970476Y-136970495D02*
X153945736Y-137074060D01*
X144366963Y-130866135D02*
X144152701Y-131121483D01*
X144553962Y-131458181D02*
X143787918Y-130815394D01*
X143787918Y-130815394D02*
X144094007Y-130450610D01*
X144917924Y-130209525D02*
X145046229Y-130130699D01*
X145046229Y-130130699D02*
X145113317Y-130124830D01*
X145113317Y-130124830D02*
X145216882Y-130149569D01*
X145216882Y-130149569D02*
X145326317Y-130241396D01*
X145326317Y-130241396D02*
X145368665Y-130339092D01*
X145368665Y-130339092D02*
X145374534Y-130406180D01*
X145374534Y-130406180D02*
X145349795Y-130509745D01*
X145349795Y-130509745D02*
X145104923Y-130801572D01*
X145104923Y-130801572D02*
X144338879Y-130158784D01*
X144338879Y-130158784D02*
X144553141Y-129903436D01*
X144553141Y-129903436D02*
X144650837Y-129861088D01*
X144650837Y-129861088D02*
X144717925Y-129855219D01*
X144717925Y-129855219D02*
X144821490Y-129879958D01*
X144821490Y-129879958D02*
X144894447Y-129941176D01*
X144894447Y-129941176D02*
X144936794Y-130038872D01*
X144936794Y-130038872D02*
X144942664Y-130105960D01*
X144942664Y-130105960D02*
X144917924Y-130209525D01*
X144917924Y-130209525D02*
X144703662Y-130464873D01*
X145287756Y-129027956D02*
X144981666Y-129392739D01*
X144981666Y-129392739D02*
X145315840Y-129735307D01*
X145315840Y-129735307D02*
X145309971Y-129668220D01*
X145309971Y-129668220D02*
X145334711Y-129564654D01*
X145334711Y-129564654D02*
X145487755Y-129382263D01*
X145487755Y-129382263D02*
X145585451Y-129339915D01*
X145585451Y-129339915D02*
X145652539Y-129334046D01*
X145652539Y-129334046D02*
X145756104Y-129358785D01*
X145756104Y-129358785D02*
X145938496Y-129511830D01*
X145938496Y-129511830D02*
X145980843Y-129609526D01*
X145980843Y-129609526D02*
X145986713Y-129676613D01*
X145986713Y-129676613D02*
X145961973Y-129780179D01*
X145961973Y-129780179D02*
X145808929Y-129962570D01*
X145808929Y-129962570D02*
X145711232Y-130004918D01*
X145711232Y-130004918D02*
X145644145Y-130010788D01*
X198825061Y-126406120D02*
X199398638Y-125586968D01*
X199398638Y-125586968D02*
X199593674Y-125723533D01*
X199593674Y-125723533D02*
X199683382Y-125844480D01*
X199683382Y-125844480D02*
X199706771Y-125977121D01*
X199706771Y-125977121D02*
X199691151Y-126082449D01*
X199691151Y-126082449D02*
X199620906Y-126265791D01*
X199620906Y-126265791D02*
X199538967Y-126382812D01*
X199538967Y-126382812D02*
X199390707Y-126511528D01*
X199390707Y-126511528D02*
X199297073Y-126562230D01*
X199297073Y-126562230D02*
X199164432Y-126585618D01*
X199164432Y-126585618D02*
X199020097Y-126542686D01*
X199020097Y-126542686D02*
X198825061Y-126406120D01*
X200607862Y-126433676D02*
X200217790Y-126160544D01*
X200217790Y-126160544D02*
X199905651Y-126523303D01*
X199905651Y-126523303D02*
X199971971Y-126511609D01*
X199971971Y-126511609D02*
X200077299Y-126527228D01*
X200077299Y-126527228D02*
X200272335Y-126663794D01*
X200272335Y-126663794D02*
X200323036Y-126757428D01*
X200323036Y-126757428D02*
X200334730Y-126823748D01*
X200334730Y-126823748D02*
X200319111Y-126929076D01*
X200319111Y-126929076D02*
X200182546Y-127124112D01*
X200182546Y-127124112D02*
X200088912Y-127174813D01*
X200088912Y-127174813D02*
X200022592Y-127186507D01*
X200022592Y-127186507D02*
X199917264Y-127170888D01*
X199917264Y-127170888D02*
X199722228Y-127034322D01*
X199722228Y-127034322D02*
X199671526Y-126940689D01*
X199671526Y-126940689D02*
X199659832Y-126874368D01*
X135238303Y-104642783D02*
X135858434Y-105163135D01*
X135858434Y-105163135D02*
X135961999Y-105187874D01*
X135961999Y-105187874D02*
X136029087Y-105182005D01*
X136029087Y-105182005D02*
X136126783Y-105139657D01*
X136126783Y-105139657D02*
X136249219Y-104993744D01*
X136249219Y-104993744D02*
X136273958Y-104890178D01*
X136273958Y-104890178D02*
X136268089Y-104823091D01*
X136268089Y-104823091D02*
X136225741Y-104725395D01*
X136225741Y-104725395D02*
X135605610Y-104205043D01*
X135954047Y-103937956D02*
X135948178Y-103870869D01*
X135948178Y-103870869D02*
X135972917Y-103767304D01*
X135972917Y-103767304D02*
X136125962Y-103584912D01*
X136125962Y-103584912D02*
X136223658Y-103542564D01*
X136223658Y-103542564D02*
X136290745Y-103536695D01*
X136290745Y-103536695D02*
X136394311Y-103561434D01*
X136394311Y-103561434D02*
X136467267Y-103622652D01*
X136467267Y-103622652D02*
X136546093Y-103750957D01*
X136546093Y-103750957D02*
X136616526Y-104556004D01*
X136616526Y-104556004D02*
X137014442Y-104081786D01*
X149739259Y-117818867D02*
X150359390Y-118339219D01*
X150359390Y-118339219D02*
X150462955Y-118363958D01*
X150462955Y-118363958D02*
X150530043Y-118358089D01*
X150530043Y-118358089D02*
X150627739Y-118315741D01*
X150627739Y-118315741D02*
X150750175Y-118169828D01*
X150750175Y-118169828D02*
X150774914Y-118066262D01*
X150774914Y-118066262D02*
X150769045Y-117999175D01*
X150769045Y-117999175D02*
X150726697Y-117901479D01*
X150726697Y-117901479D02*
X150106566Y-117381127D01*
X150351437Y-117089301D02*
X150749354Y-116615083D01*
X150749354Y-116615083D02*
X150826917Y-117115302D01*
X150826917Y-117115302D02*
X150918744Y-117005867D01*
X150918744Y-117005867D02*
X151016440Y-116963520D01*
X151016440Y-116963520D02*
X151083528Y-116957650D01*
X151083528Y-116957650D02*
X151187093Y-116982390D01*
X151187093Y-116982390D02*
X151369485Y-117135435D01*
X151369485Y-117135435D02*
X151411832Y-117233131D01*
X151411832Y-117233131D02*
X151417702Y-117300218D01*
X151417702Y-117300218D02*
X151392962Y-117403784D01*
X151392962Y-117403784D02*
X151209309Y-117622653D01*
X151209309Y-117622653D02*
X151111612Y-117665001D01*
X151111612Y-117665001D02*
X151044525Y-117670870D01*
X143017307Y-124707349D02*
X142950219Y-124713218D01*
X142950219Y-124713218D02*
X142810176Y-124657869D01*
X142810176Y-124657869D02*
X142737219Y-124596652D01*
X142737219Y-124596652D02*
X142658393Y-124468346D01*
X142658393Y-124468346D02*
X142646654Y-124334172D01*
X142646654Y-124334172D02*
X142671394Y-124230606D01*
X142671394Y-124230606D02*
X142757351Y-124054084D01*
X142757351Y-124054084D02*
X142849178Y-123944649D01*
X142849178Y-123944649D02*
X143008092Y-123829345D01*
X143008092Y-123829345D02*
X143105788Y-123786997D01*
X143105788Y-123786997D02*
X143239963Y-123775259D01*
X143239963Y-123775259D02*
X143380007Y-123830607D01*
X143380007Y-123830607D02*
X143452963Y-123891825D01*
X143452963Y-123891825D02*
X143531789Y-124020130D01*
X143531789Y-124020130D02*
X143537658Y-124087217D01*
X143854224Y-124228523D02*
X144364921Y-124657048D01*
X144364921Y-124657048D02*
X143393828Y-125147612D01*
X167054819Y-112933333D02*
X167769104Y-112933333D01*
X167769104Y-112933333D02*
X167911961Y-112980952D01*
X167911961Y-112980952D02*
X168007200Y-113076190D01*
X168007200Y-113076190D02*
X168054819Y-113219047D01*
X168054819Y-113219047D02*
X168054819Y-113314285D01*
X168054819Y-111933333D02*
X168054819Y-112504761D01*
X168054819Y-112219047D02*
X167054819Y-112219047D01*
X167054819Y-112219047D02*
X167197676Y-112314285D01*
X167197676Y-112314285D02*
X167292914Y-112409523D01*
X167292914Y-112409523D02*
X167340533Y-112504761D01*
D11*
X195049719Y-59307143D02*
X195085433Y-59200000D01*
X195085433Y-59200000D02*
X195121147Y-59164286D01*
X195121147Y-59164286D02*
X195192576Y-59128572D01*
X195192576Y-59128572D02*
X195299719Y-59128572D01*
X195299719Y-59128572D02*
X195371147Y-59164286D01*
X195371147Y-59164286D02*
X195406862Y-59200000D01*
X195406862Y-59200000D02*
X195442576Y-59271429D01*
X195442576Y-59271429D02*
X195442576Y-59557143D01*
X195442576Y-59557143D02*
X194692576Y-59557143D01*
X194692576Y-59557143D02*
X194692576Y-59307143D01*
X194692576Y-59307143D02*
X194728290Y-59235715D01*
X194728290Y-59235715D02*
X194764004Y-59200000D01*
X194764004Y-59200000D02*
X194835433Y-59164286D01*
X194835433Y-59164286D02*
X194906862Y-59164286D01*
X194906862Y-59164286D02*
X194978290Y-59200000D01*
X194978290Y-59200000D02*
X195014004Y-59235715D01*
X195014004Y-59235715D02*
X195049719Y-59307143D01*
X195049719Y-59307143D02*
X195049719Y-59557143D01*
X194692576Y-58878572D02*
X194692576Y-58414286D01*
X194692576Y-58414286D02*
X194978290Y-58664286D01*
X194978290Y-58664286D02*
X194978290Y-58557143D01*
X194978290Y-58557143D02*
X195014004Y-58485715D01*
X195014004Y-58485715D02*
X195049719Y-58450000D01*
X195049719Y-58450000D02*
X195121147Y-58414286D01*
X195121147Y-58414286D02*
X195299719Y-58414286D01*
X195299719Y-58414286D02*
X195371147Y-58450000D01*
X195371147Y-58450000D02*
X195406862Y-58485715D01*
X195406862Y-58485715D02*
X195442576Y-58557143D01*
X195442576Y-58557143D02*
X195442576Y-58771429D01*
X195442576Y-58771429D02*
X195406862Y-58842857D01*
X195406862Y-58842857D02*
X195371147Y-58878572D01*
X195442576Y-58057143D02*
X195442576Y-57914286D01*
X195442576Y-57914286D02*
X195406862Y-57842857D01*
X195406862Y-57842857D02*
X195371147Y-57807143D01*
X195371147Y-57807143D02*
X195264004Y-57735714D01*
X195264004Y-57735714D02*
X195121147Y-57700000D01*
X195121147Y-57700000D02*
X194835433Y-57700000D01*
X194835433Y-57700000D02*
X194764004Y-57735714D01*
X194764004Y-57735714D02*
X194728290Y-57771429D01*
X194728290Y-57771429D02*
X194692576Y-57842857D01*
X194692576Y-57842857D02*
X194692576Y-57985714D01*
X194692576Y-57985714D02*
X194728290Y-58057143D01*
X194728290Y-58057143D02*
X194764004Y-58092857D01*
X194764004Y-58092857D02*
X194835433Y-58128571D01*
X194835433Y-58128571D02*
X195014004Y-58128571D01*
X195014004Y-58128571D02*
X195085433Y-58092857D01*
X195085433Y-58092857D02*
X195121147Y-58057143D01*
X195121147Y-58057143D02*
X195156862Y-57985714D01*
X195156862Y-57985714D02*
X195156862Y-57842857D01*
X195156862Y-57842857D02*
X195121147Y-57771429D01*
X195121147Y-57771429D02*
X195085433Y-57735714D01*
X195085433Y-57735714D02*
X195014004Y-57700000D01*
X195692576Y-57200000D02*
X194621147Y-57200000D01*
X195049719Y-56414285D02*
X195085433Y-56307142D01*
X195085433Y-56307142D02*
X195121147Y-56271428D01*
X195121147Y-56271428D02*
X195192576Y-56235714D01*
X195192576Y-56235714D02*
X195299719Y-56235714D01*
X195299719Y-56235714D02*
X195371147Y-56271428D01*
X195371147Y-56271428D02*
X195406862Y-56307142D01*
X195406862Y-56307142D02*
X195442576Y-56378571D01*
X195442576Y-56378571D02*
X195442576Y-56664285D01*
X195442576Y-56664285D02*
X194692576Y-56664285D01*
X194692576Y-56664285D02*
X194692576Y-56414285D01*
X194692576Y-56414285D02*
X194728290Y-56342857D01*
X194728290Y-56342857D02*
X194764004Y-56307142D01*
X194764004Y-56307142D02*
X194835433Y-56271428D01*
X194835433Y-56271428D02*
X194906862Y-56271428D01*
X194906862Y-56271428D02*
X194978290Y-56307142D01*
X194978290Y-56307142D02*
X195014004Y-56342857D01*
X195014004Y-56342857D02*
X195049719Y-56414285D01*
X195049719Y-56414285D02*
X195049719Y-56664285D01*
X194942576Y-55592857D02*
X195442576Y-55592857D01*
X194656862Y-55771428D02*
X195192576Y-55949999D01*
X195192576Y-55949999D02*
X195192576Y-55485714D01*
X194692576Y-55057142D02*
X194692576Y-54985713D01*
X194692576Y-54985713D02*
X194728290Y-54914285D01*
X194728290Y-54914285D02*
X194764004Y-54878571D01*
X194764004Y-54878571D02*
X194835433Y-54842856D01*
X194835433Y-54842856D02*
X194978290Y-54807142D01*
X194978290Y-54807142D02*
X195156862Y-54807142D01*
X195156862Y-54807142D02*
X195299719Y-54842856D01*
X195299719Y-54842856D02*
X195371147Y-54878571D01*
X195371147Y-54878571D02*
X195406862Y-54914285D01*
X195406862Y-54914285D02*
X195442576Y-54985713D01*
X195442576Y-54985713D02*
X195442576Y-55057142D01*
X195442576Y-55057142D02*
X195406862Y-55128571D01*
X195406862Y-55128571D02*
X195371147Y-55164285D01*
X195371147Y-55164285D02*
X195299719Y-55199999D01*
X195299719Y-55199999D02*
X195156862Y-55235713D01*
X195156862Y-55235713D02*
X194978290Y-55235713D01*
X194978290Y-55235713D02*
X194835433Y-55199999D01*
X194835433Y-55199999D02*
X194764004Y-55164285D01*
X194764004Y-55164285D02*
X194728290Y-55128571D01*
X194728290Y-55128571D02*
X194692576Y-55057142D01*
X153625121Y-159741428D02*
X153625121Y-159384286D01*
X153839407Y-159812857D02*
X153089407Y-159562857D01*
X153089407Y-159562857D02*
X153839407Y-159312857D01*
X153839407Y-158670000D02*
X153839407Y-159098571D01*
X153839407Y-158884286D02*
X153089407Y-158884286D01*
X153089407Y-158884286D02*
X153196550Y-158955714D01*
X153196550Y-158955714D02*
X153267978Y-159027143D01*
X153267978Y-159027143D02*
X153303693Y-159098571D01*
X154089407Y-158170000D02*
X153017978Y-158170000D01*
X153625121Y-157669999D02*
X153625121Y-157312857D01*
X153839407Y-157741428D02*
X153089407Y-157491428D01*
X153089407Y-157491428D02*
X153839407Y-157241428D01*
X153160835Y-157027142D02*
X153125121Y-156991428D01*
X153125121Y-156991428D02*
X153089407Y-156920000D01*
X153089407Y-156920000D02*
X153089407Y-156741428D01*
X153089407Y-156741428D02*
X153125121Y-156670000D01*
X153125121Y-156670000D02*
X153160835Y-156634285D01*
X153160835Y-156634285D02*
X153232264Y-156598571D01*
X153232264Y-156598571D02*
X153303693Y-156598571D01*
X153303693Y-156598571D02*
X153410835Y-156634285D01*
X153410835Y-156634285D02*
X153839407Y-157062857D01*
X153839407Y-157062857D02*
X153839407Y-156598571D01*
D10*
X148912628Y-134774161D02*
X148698366Y-135029509D01*
X149099627Y-135366207D02*
X148333583Y-134723420D01*
X148333583Y-134723420D02*
X148639672Y-134358636D01*
X149463589Y-134117551D02*
X149591894Y-134038725D01*
X149591894Y-134038725D02*
X149658982Y-134032856D01*
X149658982Y-134032856D02*
X149762547Y-134057595D01*
X149762547Y-134057595D02*
X149871982Y-134149422D01*
X149871982Y-134149422D02*
X149914330Y-134247118D01*
X149914330Y-134247118D02*
X149920199Y-134314206D01*
X149920199Y-134314206D02*
X149895460Y-134417771D01*
X149895460Y-134417771D02*
X149650588Y-134709598D01*
X149650588Y-134709598D02*
X148884544Y-134066810D01*
X148884544Y-134066810D02*
X149098806Y-133811462D01*
X149098806Y-133811462D02*
X149196502Y-133769114D01*
X149196502Y-133769114D02*
X149263590Y-133763245D01*
X149263590Y-133763245D02*
X149367155Y-133787984D01*
X149367155Y-133787984D02*
X149440112Y-133849202D01*
X149440112Y-133849202D02*
X149482459Y-133946898D01*
X149482459Y-133946898D02*
X149488329Y-134013986D01*
X149488329Y-134013986D02*
X149463589Y-134117551D01*
X149463589Y-134117551D02*
X149249327Y-134372899D01*
X149569679Y-133398462D02*
X149563810Y-133331374D01*
X149563810Y-133331374D02*
X149588549Y-133227809D01*
X149588549Y-133227809D02*
X149741594Y-133045417D01*
X149741594Y-133045417D02*
X149839290Y-133003070D01*
X149839290Y-133003070D02*
X149906377Y-132997200D01*
X149906377Y-132997200D02*
X150009943Y-133021940D01*
X150009943Y-133021940D02*
X150082899Y-133083158D01*
X150082899Y-133083158D02*
X150161725Y-133211463D01*
X150161725Y-133211463D02*
X150232158Y-134016510D01*
X150232158Y-134016510D02*
X150630074Y-133542292D01*
X134229074Y-121817568D02*
X134014812Y-122072916D01*
X134416073Y-122409614D02*
X133650029Y-121766827D01*
X133650029Y-121766827D02*
X133956118Y-121402043D01*
X134780035Y-121160958D02*
X134908340Y-121082132D01*
X134908340Y-121082132D02*
X134975428Y-121076263D01*
X134975428Y-121076263D02*
X135078993Y-121101002D01*
X135078993Y-121101002D02*
X135188428Y-121192829D01*
X135188428Y-121192829D02*
X135230776Y-121290525D01*
X135230776Y-121290525D02*
X135236645Y-121357613D01*
X135236645Y-121357613D02*
X135211906Y-121461178D01*
X135211906Y-121461178D02*
X134967034Y-121753005D01*
X134967034Y-121753005D02*
X134200990Y-121110217D01*
X134200990Y-121110217D02*
X134415252Y-120854869D01*
X134415252Y-120854869D02*
X134512948Y-120812521D01*
X134512948Y-120812521D02*
X134580036Y-120806652D01*
X134580036Y-120806652D02*
X134683601Y-120831391D01*
X134683601Y-120831391D02*
X134756558Y-120892609D01*
X134756558Y-120892609D02*
X134798905Y-120990305D01*
X134798905Y-120990305D02*
X134804775Y-121057393D01*
X134804775Y-121057393D02*
X134780035Y-121160958D01*
X134780035Y-121160958D02*
X134565773Y-121416306D01*
X135263909Y-120510218D02*
X135166213Y-120552566D01*
X135166213Y-120552566D02*
X135099125Y-120558435D01*
X135099125Y-120558435D02*
X134995560Y-120533695D01*
X134995560Y-120533695D02*
X134959082Y-120503086D01*
X134959082Y-120503086D02*
X134916734Y-120405390D01*
X134916734Y-120405390D02*
X134910864Y-120338303D01*
X134910864Y-120338303D02*
X134935604Y-120234738D01*
X134935604Y-120234738D02*
X135058040Y-120088824D01*
X135058040Y-120088824D02*
X135155736Y-120046477D01*
X135155736Y-120046477D02*
X135222823Y-120040607D01*
X135222823Y-120040607D02*
X135326389Y-120065347D01*
X135326389Y-120065347D02*
X135362867Y-120095956D01*
X135362867Y-120095956D02*
X135405215Y-120193652D01*
X135405215Y-120193652D02*
X135411084Y-120260739D01*
X135411084Y-120260739D02*
X135386345Y-120364305D01*
X135386345Y-120364305D02*
X135263909Y-120510218D01*
X135263909Y-120510218D02*
X135239169Y-120613783D01*
X135239169Y-120613783D02*
X135245039Y-120680871D01*
X135245039Y-120680871D02*
X135287386Y-120778567D01*
X135287386Y-120778567D02*
X135433300Y-120901003D01*
X135433300Y-120901003D02*
X135536865Y-120925742D01*
X135536865Y-120925742D02*
X135603952Y-120919873D01*
X135603952Y-120919873D02*
X135701648Y-120877525D01*
X135701648Y-120877525D02*
X135824084Y-120731612D01*
X135824084Y-120731612D02*
X135848824Y-120628046D01*
X135848824Y-120628046D02*
X135842954Y-120560959D01*
X135842954Y-120560959D02*
X135800607Y-120463263D01*
X135800607Y-120463263D02*
X135654693Y-120340827D01*
X135654693Y-120340827D02*
X135551128Y-120316088D01*
X135551128Y-120316088D02*
X135484041Y-120321957D01*
X135484041Y-120321957D02*
X135386345Y-120364305D01*
X139636724Y-114239211D02*
X139057679Y-114188470D01*
X139269417Y-114676951D02*
X138503372Y-114034163D01*
X138503372Y-114034163D02*
X138748244Y-113742337D01*
X138748244Y-113742337D02*
X138845940Y-113699989D01*
X138845940Y-113699989D02*
X138913027Y-113694120D01*
X138913027Y-113694120D02*
X139016593Y-113718859D01*
X139016593Y-113718859D02*
X139126028Y-113810686D01*
X139126028Y-113810686D02*
X139168376Y-113908382D01*
X139168376Y-113908382D02*
X139174245Y-113975470D01*
X139174245Y-113975470D02*
X139149505Y-114079035D01*
X139149505Y-114079035D02*
X138904634Y-114370862D01*
X139676989Y-113154077D02*
X140187685Y-113582602D01*
X139232118Y-113091597D02*
X139626247Y-113733122D01*
X139626247Y-113733122D02*
X140024164Y-113258904D01*
X150692242Y-131605878D02*
X150625154Y-131611747D01*
X150625154Y-131611747D02*
X150485111Y-131556398D01*
X150485111Y-131556398D02*
X150412154Y-131495181D01*
X150412154Y-131495181D02*
X150333328Y-131366875D01*
X150333328Y-131366875D02*
X150321589Y-131232701D01*
X150321589Y-131232701D02*
X150346329Y-131129135D01*
X150346329Y-131129135D02*
X150432286Y-130952613D01*
X150432286Y-130952613D02*
X150524113Y-130843178D01*
X150524113Y-130843178D02*
X150683027Y-130727874D01*
X150683027Y-130727874D02*
X150780723Y-130685526D01*
X150780723Y-130685526D02*
X150914898Y-130673788D01*
X150914898Y-130673788D02*
X151054942Y-130729136D01*
X151054942Y-130729136D02*
X151127898Y-130790354D01*
X151127898Y-130790354D02*
X151206724Y-130918659D01*
X151206724Y-130918659D02*
X151212593Y-130985746D01*
X151529159Y-131127052D02*
X152003377Y-131524968D01*
X152003377Y-131524968D02*
X151503158Y-131602532D01*
X151503158Y-131602532D02*
X151612593Y-131694359D01*
X151612593Y-131694359D02*
X151654940Y-131792055D01*
X151654940Y-131792055D02*
X151660810Y-131859143D01*
X151660810Y-131859143D02*
X151636070Y-131962708D01*
X151636070Y-131962708D02*
X151483026Y-132145100D01*
X151483026Y-132145100D02*
X151385329Y-132187447D01*
X151385329Y-132187447D02*
X151318242Y-132193317D01*
X151318242Y-132193317D02*
X151214677Y-132168577D01*
X151214677Y-132168577D02*
X150995807Y-131984923D01*
X150995807Y-131984923D02*
X150953459Y-131887227D01*
X150953459Y-131887227D02*
X150947590Y-131820140D01*
X138252327Y-125259783D02*
X138038065Y-125515131D01*
X138439326Y-125851829D02*
X137673282Y-125209042D01*
X137673282Y-125209042D02*
X137979371Y-124844258D01*
X138803288Y-124603173D02*
X138931593Y-124524347D01*
X138931593Y-124524347D02*
X138998681Y-124518478D01*
X138998681Y-124518478D02*
X139102246Y-124543217D01*
X139102246Y-124543217D02*
X139211681Y-124635044D01*
X139211681Y-124635044D02*
X139254029Y-124732740D01*
X139254029Y-124732740D02*
X139259898Y-124799828D01*
X139259898Y-124799828D02*
X139235159Y-124903393D01*
X139235159Y-124903393D02*
X138990287Y-125195220D01*
X138990287Y-125195220D02*
X138224243Y-124552432D01*
X138224243Y-124552432D02*
X138438505Y-124297084D01*
X138438505Y-124297084D02*
X138536201Y-124254736D01*
X138536201Y-124254736D02*
X138603289Y-124248867D01*
X138603289Y-124248867D02*
X138706854Y-124273606D01*
X138706854Y-124273606D02*
X138779811Y-124334824D01*
X138779811Y-124334824D02*
X138822158Y-124432520D01*
X138822158Y-124432520D02*
X138828028Y-124499608D01*
X138828028Y-124499608D02*
X138803288Y-124603173D01*
X138803288Y-124603173D02*
X138589026Y-124858521D01*
X138805812Y-123859344D02*
X139234337Y-123348648D01*
X139234337Y-123348648D02*
X139724901Y-124319740D01*
X180808634Y-103038097D02*
X179808634Y-103038097D01*
X179808634Y-103038097D02*
X179808634Y-102800002D01*
X179808634Y-102800002D02*
X179856253Y-102657145D01*
X179856253Y-102657145D02*
X179951491Y-102561907D01*
X179951491Y-102561907D02*
X180046729Y-102514288D01*
X180046729Y-102514288D02*
X180237205Y-102466669D01*
X180237205Y-102466669D02*
X180380062Y-102466669D01*
X180380062Y-102466669D02*
X180570538Y-102514288D01*
X180570538Y-102514288D02*
X180665776Y-102561907D01*
X180665776Y-102561907D02*
X180761015Y-102657145D01*
X180761015Y-102657145D02*
X180808634Y-102800002D01*
X180808634Y-102800002D02*
X180808634Y-103038097D01*
X179808634Y-102133335D02*
X179808634Y-101466669D01*
X179808634Y-101466669D02*
X180808634Y-101895240D01*
X193793420Y-119626894D02*
X193793501Y-119045629D01*
X193325333Y-119299136D02*
X193898910Y-118479984D01*
X193898910Y-118479984D02*
X194210968Y-118698489D01*
X194210968Y-118698489D02*
X194261669Y-118792123D01*
X194261669Y-118792123D02*
X194273363Y-118858443D01*
X194273363Y-118858443D02*
X194257744Y-118963771D01*
X194257744Y-118963771D02*
X194175804Y-119080792D01*
X194175804Y-119080792D02*
X194082171Y-119131494D01*
X194082171Y-119131494D02*
X194015850Y-119143188D01*
X194015850Y-119143188D02*
X193910523Y-119127569D01*
X193910523Y-119127569D02*
X193598465Y-118909063D01*
X194624428Y-119104261D02*
X194690748Y-119092567D01*
X194690748Y-119092567D02*
X194796076Y-119108186D01*
X194796076Y-119108186D02*
X194991112Y-119244752D01*
X194991112Y-119244752D02*
X195041814Y-119338386D01*
X195041814Y-119338386D02*
X195053508Y-119404706D01*
X195053508Y-119404706D02*
X195037889Y-119510034D01*
X195037889Y-119510034D02*
X194983262Y-119588048D01*
X194983262Y-119588048D02*
X194862316Y-119677757D01*
X194862316Y-119677757D02*
X194066471Y-119818086D01*
X194066471Y-119818086D02*
X194573565Y-120173157D01*
%TO.C,G\u002A\u002A\u002A*%
D12*
X173867945Y-71321599D02*
X173914144Y-71321783D01*
X173954384Y-71322162D01*
X173989918Y-71322795D01*
X174022000Y-71323740D01*
X174051882Y-71325057D01*
X174080820Y-71326805D01*
X174110065Y-71329041D01*
X174140872Y-71331826D01*
X174174494Y-71335219D01*
X174212185Y-71339277D01*
X174227283Y-71340945D01*
X174398470Y-71364162D01*
X174567771Y-71395540D01*
X174734907Y-71434943D01*
X174899596Y-71482236D01*
X175061559Y-71537282D01*
X175220517Y-71599946D01*
X175376189Y-71670092D01*
X175528295Y-71747584D01*
X175676556Y-71832286D01*
X175820692Y-71924063D01*
X175960423Y-72022778D01*
X176095468Y-72128296D01*
X176225548Y-72240480D01*
X176350383Y-72359195D01*
X176373619Y-72382614D01*
X176487388Y-72503377D01*
X176593350Y-72626379D01*
X176692028Y-72752354D01*
X176783948Y-72882037D01*
X176869633Y-73016164D01*
X176949608Y-73155469D01*
X177015016Y-73281583D01*
X177084375Y-73430728D01*
X177146550Y-73582958D01*
X177201269Y-73737469D01*
X177248259Y-73893454D01*
X177287249Y-74050108D01*
X177307501Y-74148347D01*
X177321741Y-74223478D01*
X177349312Y-74232468D01*
X177381563Y-74243706D01*
X177418776Y-74257861D01*
X177458427Y-74273896D01*
X177497992Y-74290774D01*
X177534946Y-74307458D01*
X177554683Y-74316878D01*
X177615087Y-74347993D01*
X177668574Y-74379005D01*
X177716621Y-74410923D01*
X177760704Y-74444753D01*
X177802301Y-74481504D01*
X177817795Y-74496477D01*
X177857983Y-74539304D01*
X177890862Y-74581459D01*
X177917318Y-74624397D01*
X177938239Y-74669569D01*
X177954510Y-74718430D01*
X177955570Y-74722291D01*
X177960581Y-74747742D01*
X177963831Y-74778912D01*
X177965295Y-74813235D01*
X177964949Y-74848142D01*
X177962770Y-74881067D01*
X177958731Y-74909442D01*
X177957399Y-74915650D01*
X177938206Y-74980747D01*
X177911011Y-75045968D01*
X177875769Y-75111363D01*
X177832436Y-75176982D01*
X177780966Y-75242877D01*
X177721314Y-75309099D01*
X177653435Y-75375697D01*
X177577283Y-75442724D01*
X177492815Y-75510229D01*
X177399984Y-75578263D01*
X177319165Y-75633439D01*
X177254781Y-75676109D01*
X177232500Y-75753079D01*
X177182626Y-75910347D01*
X177124648Y-76065821D01*
X177058840Y-76218939D01*
X176985475Y-76369139D01*
X176904826Y-76515858D01*
X176817165Y-76658535D01*
X176731300Y-76784710D01*
X176627862Y-76922353D01*
X176518022Y-77054541D01*
X176402011Y-77181077D01*
X176280062Y-77301764D01*
X176152409Y-77416405D01*
X176019283Y-77524804D01*
X175880918Y-77626763D01*
X175737545Y-77722085D01*
X175589399Y-77810574D01*
X175436711Y-77892033D01*
X175402033Y-77909236D01*
X175246024Y-77980895D01*
X175086496Y-78044986D01*
X174923902Y-78101406D01*
X174758693Y-78150050D01*
X174591321Y-78190818D01*
X174422240Y-78223605D01*
X174251900Y-78248309D01*
X174080755Y-78264827D01*
X173909257Y-78273056D01*
X173799716Y-78273926D01*
X173769941Y-78273652D01*
X173741290Y-78273309D01*
X173715435Y-78272925D01*
X173694047Y-78272524D01*
X173678795Y-78272133D01*
X173674833Y-78271988D01*
X173495939Y-78260280D01*
X173319985Y-78240635D01*
X173146933Y-78213042D01*
X172976747Y-78177492D01*
X172809391Y-78133974D01*
X172644829Y-78082477D01*
X172483025Y-78022991D01*
X172323941Y-77955505D01*
X172167541Y-77880010D01*
X172015691Y-77797585D01*
X171870769Y-77709849D01*
X171730778Y-77615616D01*
X171595298Y-77514569D01*
X171463913Y-77406390D01*
X171336203Y-77290762D01*
X171294616Y-77250742D01*
X171272743Y-77229138D01*
X171255223Y-77211357D01*
X171242257Y-77197680D01*
X171234050Y-77188388D01*
X171230803Y-77183759D01*
X171232721Y-77184074D01*
X171240006Y-77189614D01*
X171252860Y-77200657D01*
X171268558Y-77214800D01*
X171376754Y-77310653D01*
X171483788Y-77399156D01*
X171590801Y-77481110D01*
X171698934Y-77557312D01*
X171809327Y-77628561D01*
X171923122Y-77695655D01*
X172041458Y-77759394D01*
X172059817Y-77768789D01*
X172203797Y-77838061D01*
X172348936Y-77899978D01*
X172495872Y-77954718D01*
X172645244Y-78002461D01*
X172797689Y-78043385D01*
X172953846Y-78077670D01*
X173114353Y-78105494D01*
X173279849Y-78127036D01*
X173370033Y-78135987D01*
X173395299Y-78137717D01*
X173427792Y-78139128D01*
X173466277Y-78140226D01*
X173509519Y-78141015D01*
X173556286Y-78141501D01*
X173605341Y-78141688D01*
X173655452Y-78141581D01*
X173705384Y-78141185D01*
X173753903Y-78140505D01*
X173799775Y-78139546D01*
X173841765Y-78138312D01*
X173878640Y-78136809D01*
X173909164Y-78135041D01*
X173924600Y-78133792D01*
X174092657Y-78114633D01*
X174255490Y-78089191D01*
X174413743Y-78057287D01*
X174568059Y-78018740D01*
X174719083Y-77973370D01*
X174867460Y-77920996D01*
X175013833Y-77861440D01*
X175158847Y-77794520D01*
X175186133Y-77781041D01*
X175336929Y-77701091D01*
X175483035Y-77614165D01*
X175624249Y-77520432D01*
X175760371Y-77420058D01*
X175891201Y-77313211D01*
X176016538Y-77200058D01*
X176136181Y-77080766D01*
X176249930Y-76955503D01*
X176357584Y-76824436D01*
X176400906Y-76767734D01*
X176496006Y-76633861D01*
X176583868Y-76496232D01*
X176664735Y-76354405D01*
X176738844Y-76207938D01*
X176806437Y-76056387D01*
X176858564Y-75924270D01*
X176870766Y-75891490D01*
X176815159Y-75919355D01*
X176706869Y-75971932D01*
X176590994Y-76024993D01*
X176468372Y-76078196D01*
X176339844Y-76131205D01*
X176206251Y-76183678D01*
X176068432Y-76235276D01*
X175927228Y-76285661D01*
X175804200Y-76327605D01*
X175703861Y-76360661D01*
X175607569Y-76391473D01*
X175513618Y-76420536D01*
X175420300Y-76448347D01*
X175325908Y-76475403D01*
X175228735Y-76502199D01*
X175127073Y-76529232D01*
X175019216Y-76556999D01*
X174989283Y-76564568D01*
X174790317Y-76614699D01*
X174787320Y-76635125D01*
X174785922Y-76646253D01*
X174783981Y-76663890D01*
X174781698Y-76686109D01*
X174779272Y-76710985D01*
X174777690Y-76727920D01*
X174763657Y-76849624D01*
X174744309Y-76967666D01*
X174743280Y-76973050D01*
X174739165Y-76993501D01*
X174733971Y-77017863D01*
X174728011Y-77044809D01*
X174721601Y-77073008D01*
X174715052Y-77101132D01*
X174708680Y-77127853D01*
X174702798Y-77151840D01*
X174697720Y-77171765D01*
X174693758Y-77186299D01*
X174691228Y-77194112D01*
X174690964Y-77194674D01*
X174689865Y-77192496D01*
X174688621Y-77183038D01*
X174687330Y-77167482D01*
X174686089Y-77147010D01*
X174684993Y-77122805D01*
X174684909Y-77120591D01*
X174677512Y-76997815D01*
X174664716Y-76878510D01*
X174646692Y-76764176D01*
X174641803Y-76738631D01*
X174636051Y-76709769D01*
X174631556Y-76688201D01*
X174627948Y-76672911D01*
X174624854Y-76662884D01*
X174621903Y-76657105D01*
X174618724Y-76654559D01*
X174614946Y-76654230D01*
X174611168Y-76654897D01*
X174580842Y-76661284D01*
X174546197Y-76668509D01*
X174508517Y-76676311D01*
X174469086Y-76684428D01*
X174429187Y-76692598D01*
X174390106Y-76700561D01*
X174353125Y-76708053D01*
X174319528Y-76714814D01*
X174290599Y-76720581D01*
X174267623Y-76725093D01*
X174254134Y-76727672D01*
X174192086Y-76739258D01*
X174155165Y-76815937D01*
X174143943Y-76838897D01*
X174133945Y-76858695D01*
X174125734Y-76874268D01*
X174119875Y-76884554D01*
X174116931Y-76888490D01*
X174116725Y-76888384D01*
X174117294Y-76883069D01*
X174119838Y-76871063D01*
X174124010Y-76853815D01*
X174129464Y-76832776D01*
X174133890Y-76816457D01*
X174140048Y-76793914D01*
X174145242Y-76774442D01*
X174149120Y-76759405D01*
X174151327Y-76750168D01*
X174151680Y-76747870D01*
X174147433Y-76748265D01*
X174136286Y-76749939D01*
X174119674Y-76752661D01*
X174099028Y-76756197D01*
X174085317Y-76758611D01*
X174019850Y-76770247D01*
X174007042Y-76831432D01*
X173994235Y-76892617D01*
X173916026Y-77055196D01*
X173899507Y-77089321D01*
X173884117Y-77120707D01*
X173870233Y-77148612D01*
X173858235Y-77172292D01*
X173848501Y-77191005D01*
X173841411Y-77204009D01*
X173837342Y-77210561D01*
X173836506Y-77211071D01*
X173836564Y-77205375D01*
X173837331Y-77192287D01*
X173838726Y-77172846D01*
X173840670Y-77148090D01*
X173843081Y-77119056D01*
X173845878Y-77086784D01*
X173847980Y-77063309D01*
X173853052Y-77007009D01*
X173857341Y-76958646D01*
X173860882Y-76917726D01*
X173863713Y-76883760D01*
X173865870Y-76856256D01*
X173867390Y-76834722D01*
X173868311Y-76818668D01*
X173868670Y-76807603D01*
X173868502Y-76801034D01*
X173867882Y-76798505D01*
X173863169Y-76798418D01*
X173851262Y-76799514D01*
X173833326Y-76801647D01*
X173810529Y-76804672D01*
X173784038Y-76808442D01*
X173762685Y-76811635D01*
X173731539Y-76816342D01*
X173700766Y-76820915D01*
X173672137Y-76825096D01*
X173647426Y-76828628D01*
X173628404Y-76831253D01*
X173621458Y-76832160D01*
X173602870Y-76834769D01*
X173591379Y-76837176D01*
X173585635Y-76839798D01*
X173584292Y-76843053D01*
X173584394Y-76843655D01*
X173585798Y-76849531D01*
X173588916Y-76862375D01*
X173593443Y-76880932D01*
X173599072Y-76903949D01*
X173605497Y-76930171D01*
X173609193Y-76945239D01*
X173615843Y-76972534D01*
X173621754Y-76997183D01*
X173626640Y-77017962D01*
X173630215Y-77033648D01*
X173632195Y-77043017D01*
X173632500Y-77045041D01*
X173630038Y-77050521D01*
X173623537Y-77060531D01*
X173614324Y-77073053D01*
X173612833Y-77074969D01*
X173584629Y-77113321D01*
X173555321Y-77157466D01*
X173526270Y-77205095D01*
X173498836Y-77253900D01*
X173474379Y-77301573D01*
X173457055Y-77339234D01*
X173445195Y-77366750D01*
X173422264Y-77299017D01*
X173403530Y-77242814D01*
X173383840Y-77182190D01*
X173364030Y-77119789D01*
X173344934Y-77058258D01*
X173327384Y-77000244D01*
X173316884Y-76964584D01*
X173309410Y-76939104D01*
X173302617Y-76916420D01*
X173296892Y-76897779D01*
X173292620Y-76884431D01*
X173290185Y-76877623D01*
X173289885Y-76877060D01*
X173285291Y-76876695D01*
X173274213Y-76877167D01*
X173258570Y-76878292D01*
X173240283Y-76879882D01*
X173221272Y-76881753D01*
X173203457Y-76883718D01*
X173188758Y-76885591D01*
X173179096Y-76887187D01*
X173176337Y-76888057D01*
X173174838Y-76892683D01*
X173171917Y-76904330D01*
X173167851Y-76921721D01*
X173162917Y-76943583D01*
X173157392Y-76968640D01*
X173151553Y-76995618D01*
X173145679Y-77023243D01*
X173140046Y-77050239D01*
X173134931Y-77075332D01*
X173130611Y-77097248D01*
X173129063Y-77105403D01*
X173123865Y-77134197D01*
X173118090Y-77167822D01*
X173112331Y-77202725D01*
X173107184Y-77235351D01*
X173105583Y-77245931D01*
X173094561Y-77319846D01*
X173070372Y-77340744D01*
X173049697Y-77359473D01*
X173025318Y-77382943D01*
X172998907Y-77409422D01*
X172972135Y-77437178D01*
X172946673Y-77464476D01*
X172924194Y-77489585D01*
X172906483Y-77510628D01*
X172892687Y-77528527D01*
X172876251Y-77550946D01*
X172858332Y-77576196D01*
X172840085Y-77602594D01*
X172822665Y-77628451D01*
X172807229Y-77652082D01*
X172794931Y-77671800D01*
X172788876Y-77682250D01*
X172783590Y-77690663D01*
X172779961Y-77694269D01*
X172779519Y-77694164D01*
X172778227Y-77688932D01*
X172776687Y-77676137D01*
X172774950Y-77656674D01*
X172773069Y-77631443D01*
X172771096Y-77601340D01*
X172769082Y-77567263D01*
X172767080Y-77530109D01*
X172765142Y-77490775D01*
X172763319Y-77450160D01*
X172761664Y-77409160D01*
X172760228Y-77368672D01*
X172759699Y-77351934D01*
X172757752Y-77273011D01*
X172756920Y-77200180D01*
X172757196Y-77131136D01*
X172758572Y-77063580D01*
X172758807Y-77055600D01*
X172759792Y-77022961D01*
X172760681Y-76993197D01*
X172761444Y-76967322D01*
X172762053Y-76946347D01*
X172762477Y-76931284D01*
X172762686Y-76923144D01*
X172762701Y-76921983D01*
X172758639Y-76922145D01*
X172747392Y-76922753D01*
X172730229Y-76923733D01*
X172708415Y-76925014D01*
X172683217Y-76926522D01*
X172677883Y-76926844D01*
X172534414Y-76934309D01*
X172388313Y-76939545D01*
X172241175Y-76942555D01*
X172094597Y-76943339D01*
X171950177Y-76941897D01*
X171809510Y-76938231D01*
X171674192Y-76932340D01*
X171575100Y-76926321D01*
X171430572Y-76914654D01*
X171290997Y-76899948D01*
X171156691Y-76882274D01*
X171027972Y-76861704D01*
X170905157Y-76838310D01*
X170788561Y-76812162D01*
X170678504Y-76783332D01*
X170575301Y-76751892D01*
X170479269Y-76717914D01*
X170390726Y-76681467D01*
X170309988Y-76642625D01*
X170305100Y-76640062D01*
X170232235Y-76598459D01*
X170167053Y-76554537D01*
X170109638Y-76508393D01*
X170060075Y-76460123D01*
X170018448Y-76409822D01*
X169984842Y-76357587D01*
X169959341Y-76303515D01*
X169942029Y-76247701D01*
X169936710Y-76220671D01*
X169933476Y-76188345D01*
X169932970Y-76151120D01*
X169935026Y-76112056D01*
X169939478Y-76074212D01*
X169946160Y-76040646D01*
X169946555Y-76039115D01*
X169967047Y-75976318D01*
X169995837Y-75912786D01*
X170032795Y-75848617D01*
X170077794Y-75783911D01*
X170130704Y-75718765D01*
X170191398Y-75653280D01*
X170259746Y-75587552D01*
X170335621Y-75521680D01*
X170418894Y-75455764D01*
X170509436Y-75389902D01*
X170607119Y-75324192D01*
X170711815Y-75258733D01*
X170823395Y-75193624D01*
X170941730Y-75128962D01*
X171066693Y-75064848D01*
X171198155Y-75001378D01*
X171335986Y-74938653D01*
X171438276Y-74894355D01*
X171463321Y-74883591D01*
X171481424Y-74875422D01*
X171493517Y-74869330D01*
X171500533Y-74864801D01*
X171503403Y-74861320D01*
X171503135Y-74858504D01*
X171500899Y-74856757D01*
X171495603Y-74854861D01*
X171486631Y-74852719D01*
X171473367Y-74850237D01*
X171455195Y-74847320D01*
X171431498Y-74843873D01*
X171401661Y-74839800D01*
X171365068Y-74835007D01*
X171321101Y-74829397D01*
X171286476Y-74825043D01*
X171244995Y-74819824D01*
X171206121Y-74814886D01*
X171170650Y-74810333D01*
X171139381Y-74806270D01*
X171113111Y-74802801D01*
X171092638Y-74800031D01*
X171078759Y-74798064D01*
X171072272Y-74797006D01*
X171071892Y-74796891D01*
X171071791Y-74796144D01*
X171073442Y-74795295D01*
X171077482Y-74794256D01*
X171084547Y-74792935D01*
X171095273Y-74791244D01*
X171110296Y-74789092D01*
X171130254Y-74786391D01*
X171155783Y-74783049D01*
X171187518Y-74778978D01*
X171226096Y-74774087D01*
X171272153Y-74768287D01*
X171295528Y-74765352D01*
X171336177Y-74760234D01*
X171374178Y-74755420D01*
X171408722Y-74751014D01*
X171439000Y-74747119D01*
X171464205Y-74743842D01*
X171483527Y-74741285D01*
X171496159Y-74739555D01*
X171501291Y-74738755D01*
X171501365Y-74738728D01*
X171503542Y-74734766D01*
X171507958Y-74726231D01*
X171508637Y-74724898D01*
X171518525Y-74710276D01*
X171533076Y-74694347D01*
X171549520Y-74679850D01*
X171564139Y-74670024D01*
X171576035Y-74661129D01*
X171581329Y-74649980D01*
X171581501Y-74649053D01*
X171582490Y-74642314D01*
X171584454Y-74628080D01*
X171587273Y-74607250D01*
X171590826Y-74580722D01*
X171594995Y-74549397D01*
X171599658Y-74514174D01*
X171604696Y-74475953D01*
X171609192Y-74441708D01*
X171614413Y-74402119D01*
X171619348Y-74365159D01*
X171623882Y-74331665D01*
X171627898Y-74302472D01*
X171631281Y-74278415D01*
X171633914Y-74260331D01*
X171635683Y-74249055D01*
X171636439Y-74245417D01*
X171637236Y-74245186D01*
X171638106Y-74246512D01*
X171639142Y-74250045D01*
X171640442Y-74256435D01*
X171642101Y-74266331D01*
X171644214Y-74280382D01*
X171646878Y-74299237D01*
X171650187Y-74323547D01*
X171654238Y-74353960D01*
X171659127Y-74391126D01*
X171664949Y-74435693D01*
X171668465Y-74462684D01*
X171673755Y-74502727D01*
X171678846Y-74540138D01*
X171683616Y-74574089D01*
X171687942Y-74603757D01*
X171691700Y-74628317D01*
X171694768Y-74646944D01*
X171697022Y-74658812D01*
X171698332Y-74663094D01*
X171714670Y-74671932D01*
X171732824Y-74686423D01*
X171750793Y-74704666D01*
X171766575Y-74724757D01*
X171771950Y-74733090D01*
X171774222Y-74734910D01*
X171779302Y-74736830D01*
X171787840Y-74738953D01*
X171800485Y-74741378D01*
X171817884Y-74744209D01*
X171840686Y-74747546D01*
X171869541Y-74751491D01*
X171905096Y-74756146D01*
X171948001Y-74761612D01*
X171979383Y-74765553D01*
X172028860Y-74771752D01*
X172070568Y-74777008D01*
X172105145Y-74781410D01*
X172133224Y-74785048D01*
X172155442Y-74788012D01*
X172172435Y-74790392D01*
X172184837Y-74792278D01*
X172193284Y-74793760D01*
X172198412Y-74794926D01*
X172200855Y-74795869D01*
X172201251Y-74796676D01*
X172201074Y-74796897D01*
X172196696Y-74797699D01*
X172184712Y-74799442D01*
X172165922Y-74802022D01*
X172141121Y-74805334D01*
X172111108Y-74809271D01*
X172076680Y-74813729D01*
X172038633Y-74818602D01*
X171997765Y-74823786D01*
X171986359Y-74825225D01*
X171773201Y-74852068D01*
X171765524Y-74867116D01*
X171756006Y-74881066D01*
X171741765Y-74896617D01*
X171725448Y-74911208D01*
X171709707Y-74922278D01*
X171706817Y-74923866D01*
X171698030Y-74929203D01*
X171693722Y-74933373D01*
X171693633Y-74933777D01*
X171693094Y-74938742D01*
X171691567Y-74951091D01*
X171689183Y-74969815D01*
X171686077Y-74993905D01*
X171682381Y-75022352D01*
X171678229Y-75054148D01*
X171673752Y-75088284D01*
X171669085Y-75123752D01*
X171664361Y-75159542D01*
X171659711Y-75194646D01*
X171655270Y-75228056D01*
X171651171Y-75258763D01*
X171647546Y-75285758D01*
X171644529Y-75308032D01*
X171642252Y-75324578D01*
X171640848Y-75334386D01*
X171640553Y-75336241D01*
X171638506Y-75345273D01*
X171636733Y-75348983D01*
X171636525Y-75348903D01*
X171635681Y-75344526D01*
X171633862Y-75332582D01*
X171631181Y-75313900D01*
X171627753Y-75289311D01*
X171623693Y-75259643D01*
X171619115Y-75225726D01*
X171614134Y-75188389D01*
X171609140Y-75150562D01*
X171603833Y-75110269D01*
X171598795Y-75072212D01*
X171594146Y-75037284D01*
X171590005Y-75006377D01*
X171586494Y-74980385D01*
X171583732Y-74960201D01*
X171581838Y-74946716D01*
X171580977Y-74941050D01*
X171575163Y-74928801D01*
X171565243Y-74921576D01*
X171559302Y-74918858D01*
X171553752Y-74917700D01*
X171546927Y-74918470D01*
X171537160Y-74921538D01*
X171522787Y-74927272D01*
X171504570Y-74935002D01*
X171383056Y-74988549D01*
X171264010Y-75044164D01*
X171148245Y-75101406D01*
X171036575Y-75159833D01*
X170929815Y-75219003D01*
X170828779Y-75278474D01*
X170734281Y-75337804D01*
X170647135Y-75396552D01*
X170624717Y-75412439D01*
X170572171Y-75451476D01*
X170519662Y-75493095D01*
X170468226Y-75536346D01*
X170418897Y-75580274D01*
X170372714Y-75623928D01*
X170330711Y-75666355D01*
X170293926Y-75706602D01*
X170263394Y-75743718D01*
X170261229Y-75746555D01*
X170217307Y-75809386D01*
X170181746Y-75870985D01*
X170154538Y-75931300D01*
X170135674Y-75990280D01*
X170125147Y-76047874D01*
X170122948Y-76104032D01*
X170129068Y-76158701D01*
X170143499Y-76211832D01*
X170166233Y-76263373D01*
X170197262Y-76313274D01*
X170236577Y-76361483D01*
X170284170Y-76407949D01*
X170340032Y-76452621D01*
X170381300Y-76481015D01*
X170444143Y-76518409D01*
X170514837Y-76554095D01*
X170592911Y-76587926D01*
X170677896Y-76619755D01*
X170769319Y-76649434D01*
X170866711Y-76676817D01*
X170969601Y-76701755D01*
X171077519Y-76724103D01*
X171189993Y-76743712D01*
X171249988Y-76752758D01*
X171326751Y-76763305D01*
X171400735Y-76772547D01*
X171473289Y-76780588D01*
X171545764Y-76787536D01*
X171619511Y-76793496D01*
X171695880Y-76798575D01*
X171776220Y-76802877D01*
X171861882Y-76806509D01*
X171954216Y-76809577D01*
X171985497Y-76810460D01*
X172055051Y-76811861D01*
X172130301Y-76812497D01*
X172209638Y-76812399D01*
X172291452Y-76811603D01*
X172374133Y-76810141D01*
X172456072Y-76808047D01*
X172535660Y-76805354D01*
X172611286Y-76802096D01*
X172681341Y-76798306D01*
X172731749Y-76794953D01*
X172768682Y-76792252D01*
X172770630Y-76778934D01*
X172771520Y-76771106D01*
X172772987Y-76756166D01*
X172773295Y-76752839D01*
X173213400Y-76752839D01*
X173217064Y-76753951D01*
X173226010Y-76753928D01*
X173237171Y-76753035D01*
X173247478Y-76751537D01*
X173253864Y-76749696D01*
X173254403Y-76749308D01*
X173254032Y-76744857D01*
X173251819Y-76734154D01*
X173248180Y-76719105D01*
X173246010Y-76710752D01*
X173236161Y-76673651D01*
X173224780Y-76711572D01*
X173219814Y-76728457D01*
X173215946Y-76742251D01*
X173213724Y-76750969D01*
X173213400Y-76752839D01*
X172773295Y-76752839D01*
X172774912Y-76735436D01*
X172777172Y-76710244D01*
X172779646Y-76681913D01*
X172781537Y-76659784D01*
X172802129Y-76462752D01*
X172830672Y-76263764D01*
X172867049Y-76063427D01*
X172911140Y-75862349D01*
X172962829Y-75661137D01*
X173000771Y-75529484D01*
X173017318Y-75474450D01*
X173011766Y-75423650D01*
X173001969Y-75327741D01*
X172993758Y-75233270D01*
X172987045Y-75138597D01*
X172981737Y-75042082D01*
X172977746Y-74942085D01*
X172975102Y-74841567D01*
X173319301Y-74841567D01*
X173319730Y-74924448D01*
X173321092Y-75003735D01*
X173323478Y-75080746D01*
X173326978Y-75156801D01*
X173331686Y-75233220D01*
X173337692Y-75311322D01*
X173345088Y-75392428D01*
X173353965Y-75477855D01*
X173364416Y-75568925D01*
X173376530Y-75666956D01*
X173376544Y-75667067D01*
X173394905Y-75806686D01*
X173413611Y-75939459D01*
X173432929Y-76067005D01*
X173453129Y-76190943D01*
X173474476Y-76312893D01*
X173497240Y-76434475D01*
X173521687Y-76557309D01*
X173531716Y-76605809D01*
X173554043Y-76712700D01*
X173565521Y-76712700D01*
X173572618Y-76712107D01*
X173586890Y-76710433D01*
X173607140Y-76707837D01*
X173632166Y-76704476D01*
X173660770Y-76700508D01*
X173691753Y-76696093D01*
X173694708Y-76695666D01*
X173739255Y-76689191D01*
X173776146Y-76683765D01*
X173806113Y-76679274D01*
X173829887Y-76675604D01*
X173848199Y-76672644D01*
X173861779Y-76670280D01*
X173871360Y-76668398D01*
X173871979Y-76668264D01*
X173873903Y-76667862D01*
X173875566Y-76667139D01*
X173877029Y-76665469D01*
X173878353Y-76662223D01*
X173879596Y-76656774D01*
X173880821Y-76648493D01*
X173882086Y-76636753D01*
X173883453Y-76620925D01*
X173884981Y-76600382D01*
X173886731Y-76574496D01*
X173888763Y-76542638D01*
X173891138Y-76504182D01*
X173893915Y-76458499D01*
X173896978Y-76407900D01*
X173904254Y-76279184D01*
X173910665Y-76148142D01*
X173916205Y-76015537D01*
X173920868Y-75882128D01*
X173924648Y-75748675D01*
X173927539Y-75615940D01*
X173929534Y-75484682D01*
X173930627Y-75355662D01*
X173930813Y-75229640D01*
X173930085Y-75107377D01*
X173928436Y-74989634D01*
X173925862Y-74877170D01*
X173922355Y-74770746D01*
X173917910Y-74671123D01*
X173912520Y-74579061D01*
X173911807Y-74568517D01*
X173893531Y-74361148D01*
X173867141Y-74153169D01*
X173832598Y-73944385D01*
X173789867Y-73734602D01*
X173738911Y-73523625D01*
X173696975Y-73373237D01*
X174026188Y-73373237D01*
X174026934Y-73378579D01*
X174027494Y-73381067D01*
X174029337Y-73390537D01*
X174032195Y-73407316D01*
X174035908Y-73430326D01*
X174040315Y-73458492D01*
X174045256Y-73490736D01*
X174050570Y-73525982D01*
X174056097Y-73563154D01*
X174061676Y-73601175D01*
X174067147Y-73638969D01*
X174072349Y-73675459D01*
X174077122Y-73709569D01*
X174081305Y-73740222D01*
X174083361Y-73755717D01*
X174111840Y-73989194D01*
X174135259Y-74216645D01*
X174153625Y-74438827D01*
X174166945Y-74656496D01*
X174175229Y-74870408D01*
X174178483Y-75081320D01*
X174176715Y-75289988D01*
X174169933Y-75497168D01*
X174158146Y-75703616D01*
X174141360Y-75910090D01*
X174119584Y-76117344D01*
X174108698Y-76206817D01*
X174103278Y-76248511D01*
X174097201Y-76293320D01*
X174090649Y-76340033D01*
X174083805Y-76387442D01*
X174076852Y-76434339D01*
X174069973Y-76479515D01*
X174063350Y-76521761D01*
X174057167Y-76559868D01*
X174051606Y-76592628D01*
X174046851Y-76618832D01*
X174044745Y-76629523D01*
X174043687Y-76637897D01*
X174046897Y-76640203D01*
X174054344Y-76639016D01*
X174062866Y-76637344D01*
X174077806Y-76634559D01*
X174097241Y-76631016D01*
X174119250Y-76627066D01*
X174125209Y-76626006D01*
X174146449Y-76622146D01*
X174164516Y-76618688D01*
X174177867Y-76615940D01*
X174184955Y-76614213D01*
X174185670Y-76613908D01*
X174187431Y-76608997D01*
X174189713Y-76600461D01*
X174259033Y-76600461D01*
X174263042Y-76600168D01*
X174274533Y-76598290D01*
X174292702Y-76594986D01*
X174316746Y-76590410D01*
X174345860Y-76584720D01*
X174379240Y-76578071D01*
X174416082Y-76570621D01*
X174455583Y-76562524D01*
X174476399Y-76558216D01*
X174505720Y-76552053D01*
X174532270Y-76546328D01*
X174554932Y-76541295D01*
X174572592Y-76537206D01*
X174584132Y-76534312D01*
X174588412Y-76532899D01*
X174588564Y-76527431D01*
X174585809Y-76515127D01*
X174580510Y-76496963D01*
X174573028Y-76473912D01*
X174563724Y-76446949D01*
X174552960Y-76417051D01*
X174541097Y-76385190D01*
X174528498Y-76352343D01*
X174515522Y-76319484D01*
X174502532Y-76287588D01*
X174489889Y-76257631D01*
X174477955Y-76230585D01*
X174469862Y-76213167D01*
X174444593Y-76160250D01*
X174427505Y-76204700D01*
X174413029Y-76241571D01*
X174395769Y-76284228D01*
X174376519Y-76330783D01*
X174356071Y-76379348D01*
X174335221Y-76428037D01*
X174314759Y-76474960D01*
X174299638Y-76508992D01*
X174288180Y-76534571D01*
X174277975Y-76557429D01*
X174269502Y-76576483D01*
X174263244Y-76590651D01*
X174259679Y-76598851D01*
X174259033Y-76600461D01*
X174189713Y-76600461D01*
X174190688Y-76596817D01*
X174195215Y-76578389D01*
X174200784Y-76554732D01*
X174207165Y-76526866D01*
X174214132Y-76495812D01*
X174221456Y-76462589D01*
X174228910Y-76428219D01*
X174236266Y-76393720D01*
X174243295Y-76360114D01*
X174249771Y-76328420D01*
X174252500Y-76314767D01*
X174277413Y-76185067D01*
X174299329Y-76061976D01*
X174318376Y-75944234D01*
X174334687Y-75830581D01*
X174348392Y-75719758D01*
X174359620Y-75610507D01*
X174368503Y-75501567D01*
X174375171Y-75391679D01*
X174379754Y-75279583D01*
X174382382Y-75164022D01*
X174383187Y-75053233D01*
X174383070Y-74992454D01*
X174382604Y-74938504D01*
X174381723Y-74889754D01*
X174380360Y-74844571D01*
X174378450Y-74801323D01*
X174375927Y-74758381D01*
X174372725Y-74714111D01*
X174368777Y-74666882D01*
X174366591Y-74642600D01*
X174345853Y-74462867D01*
X174316751Y-74284365D01*
X174279313Y-74107204D01*
X174233568Y-73931496D01*
X174179544Y-73757349D01*
X174117269Y-73584874D01*
X174058208Y-73440451D01*
X174046296Y-73413051D01*
X174037360Y-73393060D01*
X174031179Y-73380048D01*
X174027529Y-73373584D01*
X174026188Y-73373237D01*
X173696975Y-73373237D01*
X173679693Y-73311262D01*
X173663230Y-73256747D01*
X173655614Y-73231911D01*
X173616874Y-73311781D01*
X173554196Y-73450175D01*
X173498927Y-73591473D01*
X173451301Y-73734937D01*
X173411553Y-73879828D01*
X173379917Y-74025411D01*
X173367945Y-74093695D01*
X173356084Y-74175679D01*
X173345776Y-74265140D01*
X173337074Y-74361220D01*
X173330037Y-74463061D01*
X173324718Y-74569805D01*
X173321174Y-74680597D01*
X173319461Y-74794577D01*
X173319301Y-74841567D01*
X172975102Y-74841567D01*
X172974980Y-74836965D01*
X172973351Y-74725150D01*
X172972944Y-74603587D01*
X172974164Y-74489418D01*
X172977116Y-74381709D01*
X172981908Y-74279526D01*
X172988644Y-74181934D01*
X172997432Y-74088000D01*
X173008377Y-73996788D01*
X173021585Y-73907364D01*
X173037163Y-73818794D01*
X173055217Y-73730144D01*
X173075852Y-73640479D01*
X173099176Y-73548864D01*
X173112552Y-73499600D01*
X173166676Y-73319579D01*
X173228579Y-73142040D01*
X173298037Y-72967478D01*
X173374824Y-72796384D01*
X173458715Y-72629251D01*
X173549487Y-72466572D01*
X173646913Y-72308841D01*
X173676818Y-72263437D01*
X173697296Y-72233052D01*
X173718206Y-72202495D01*
X173738742Y-72172907D01*
X173758101Y-72145425D01*
X173775476Y-72121189D01*
X173790064Y-72101339D01*
X173801060Y-72087014D01*
X173803882Y-72083550D01*
X173814496Y-72070850D01*
X173824040Y-72083090D01*
X173836746Y-72099952D01*
X173853167Y-72122605D01*
X173872403Y-72149746D01*
X173893557Y-72180066D01*
X173915728Y-72212259D01*
X173938018Y-72245019D01*
X173959527Y-72277039D01*
X173979357Y-72307013D01*
X173996609Y-72333635D01*
X173998664Y-72336857D01*
X174096673Y-72498772D01*
X174187441Y-72664981D01*
X174270855Y-72835213D01*
X174346805Y-73009197D01*
X174415180Y-73186663D01*
X174475868Y-73367340D01*
X174528758Y-73550957D01*
X174573740Y-73737243D01*
X174574077Y-73738784D01*
X174589672Y-73815183D01*
X174603517Y-73893714D01*
X174615753Y-73975482D01*
X174626522Y-74061591D01*
X174635967Y-74153146D01*
X174644231Y-74251253D01*
X174649294Y-74322984D01*
X174650618Y-74348616D01*
X174651759Y-74381628D01*
X174652716Y-74420933D01*
X174653489Y-74465447D01*
X174654078Y-74514082D01*
X174654483Y-74565755D01*
X174654705Y-74619378D01*
X174654743Y-74673868D01*
X174654597Y-74728137D01*
X174654267Y-74781101D01*
X174653752Y-74831674D01*
X174653054Y-74878770D01*
X174652172Y-74921304D01*
X174651106Y-74958190D01*
X174649856Y-74988343D01*
X174649309Y-74998200D01*
X174644578Y-75073411D01*
X174639950Y-75141690D01*
X174635309Y-75204568D01*
X174630536Y-75263578D01*
X174625515Y-75320250D01*
X174620621Y-75371156D01*
X174609827Y-75479528D01*
X174633768Y-75546839D01*
X174679149Y-75686093D01*
X174716751Y-75826987D01*
X174746679Y-75970074D01*
X174769033Y-76115903D01*
X174783916Y-76265028D01*
X174790814Y-76396259D01*
X174791715Y-76423147D01*
X174792609Y-76446940D01*
X174793443Y-76466423D01*
X174794163Y-76480382D01*
X174794716Y-76487603D01*
X174794885Y-76488334D01*
X174800013Y-76487329D01*
X174812318Y-76484485D01*
X174830775Y-76480059D01*
X174854356Y-76474306D01*
X174882037Y-76467484D01*
X174912791Y-76459849D01*
X174945593Y-76451656D01*
X174979415Y-76443163D01*
X175013232Y-76434625D01*
X175046018Y-76426300D01*
X175076748Y-76418443D01*
X175104394Y-76411312D01*
X175127931Y-76405161D01*
X175131100Y-76404324D01*
X175344967Y-76345572D01*
X175553649Y-76283882D01*
X175756675Y-76219418D01*
X175953576Y-76152342D01*
X176143882Y-76082817D01*
X176327124Y-76011007D01*
X176502831Y-75937074D01*
X176594218Y-75896415D01*
X176612396Y-75888038D01*
X176635196Y-75877331D01*
X176661660Y-75864760D01*
X176690832Y-75850792D01*
X176721754Y-75835895D01*
X176753469Y-75820535D01*
X176785018Y-75805179D01*
X176815445Y-75790294D01*
X176843793Y-75776347D01*
X176869102Y-75763806D01*
X176890417Y-75753136D01*
X176906780Y-75744805D01*
X176917233Y-75739280D01*
X176920707Y-75737186D01*
X176922572Y-75732463D01*
X176926118Y-75720736D01*
X176931027Y-75703231D01*
X176936983Y-75681172D01*
X176943668Y-75655785D01*
X176950766Y-75628293D01*
X176957961Y-75599921D01*
X176964934Y-75571894D01*
X176971370Y-75545437D01*
X176976951Y-75521775D01*
X176979231Y-75511690D01*
X177293017Y-75511690D01*
X177306638Y-75503653D01*
X177314361Y-75498571D01*
X177327482Y-75489372D01*
X177344637Y-75477036D01*
X177364462Y-75462541D01*
X177383830Y-75448185D01*
X177467171Y-75383231D01*
X177542435Y-75318771D01*
X177609573Y-75254861D01*
X177668536Y-75191558D01*
X177719276Y-75128917D01*
X177761745Y-75066995D01*
X177795893Y-75005846D01*
X177821673Y-74945528D01*
X177822854Y-74942214D01*
X177839366Y-74884020D01*
X177847629Y-74826596D01*
X177847645Y-74770229D01*
X177839416Y-74715204D01*
X177822942Y-74661807D01*
X177821542Y-74658292D01*
X177807757Y-74627847D01*
X177791449Y-74599339D01*
X177771469Y-74571149D01*
X177746666Y-74541655D01*
X177715891Y-74509238D01*
X177715550Y-74508894D01*
X177675513Y-74471126D01*
X177633808Y-74437154D01*
X177588663Y-74405727D01*
X177538308Y-74375592D01*
X177492679Y-74351370D01*
X177470881Y-74340642D01*
X177447182Y-74329512D01*
X177422840Y-74318514D01*
X177399120Y-74308179D01*
X177377281Y-74299041D01*
X177358585Y-74291632D01*
X177344294Y-74286486D01*
X177335669Y-74284135D01*
X177333771Y-74284251D01*
X177333648Y-74288866D01*
X177334502Y-74300441D01*
X177336195Y-74317541D01*
X177338589Y-74338733D01*
X177340623Y-74355355D01*
X177357707Y-74523029D01*
X177366801Y-74691116D01*
X177367911Y-74858908D01*
X177361044Y-75025699D01*
X177346206Y-75190780D01*
X177332003Y-75298767D01*
X177328578Y-75320885D01*
X177324345Y-75346771D01*
X177319582Y-75374867D01*
X177314566Y-75403617D01*
X177309577Y-75431464D01*
X177304892Y-75456853D01*
X177300788Y-75478225D01*
X177297545Y-75494025D01*
X177295776Y-75501537D01*
X177293017Y-75511690D01*
X176979231Y-75511690D01*
X176980522Y-75505980D01*
X177004741Y-75386375D01*
X177023987Y-75269578D01*
X177038526Y-75153272D01*
X177048628Y-75035136D01*
X177054560Y-74912851D01*
X177056002Y-74852150D01*
X177055631Y-74707030D01*
X177049556Y-74566620D01*
X177037583Y-74429204D01*
X177019520Y-74293065D01*
X176995172Y-74156486D01*
X176964347Y-74017750D01*
X176960240Y-74001020D01*
X176916260Y-73841107D01*
X176864363Y-73684162D01*
X176804591Y-73530262D01*
X176736984Y-73379486D01*
X176661584Y-73231911D01*
X176578432Y-73087614D01*
X176487570Y-72946674D01*
X176389038Y-72809167D01*
X176282879Y-72675173D01*
X176213070Y-72593694D01*
X176187857Y-72565870D01*
X176157682Y-72533802D01*
X176123918Y-72498861D01*
X176087941Y-72462416D01*
X176051126Y-72425838D01*
X176014846Y-72390496D01*
X175980478Y-72357762D01*
X175949395Y-72329006D01*
X175931200Y-72312741D01*
X175798333Y-72201629D01*
X175661258Y-72097805D01*
X175520108Y-72001338D01*
X175375019Y-71912301D01*
X175226125Y-71830763D01*
X175073562Y-71756796D01*
X174917464Y-71690471D01*
X174757967Y-71631858D01*
X174595206Y-71581029D01*
X174481283Y-71550586D01*
X174314783Y-71513381D01*
X174147353Y-71484441D01*
X173979305Y-71463719D01*
X173810949Y-71451170D01*
X173642597Y-71446747D01*
X173474558Y-71450404D01*
X173307145Y-71462095D01*
X173140669Y-71481773D01*
X172975439Y-71509393D01*
X172811768Y-71544907D01*
X172649966Y-71588271D01*
X172490344Y-71639437D01*
X172333213Y-71698359D01*
X172178884Y-71764992D01*
X172027668Y-71839289D01*
X171879876Y-71921203D01*
X171843916Y-71942615D01*
X171707778Y-72029149D01*
X171576417Y-72121379D01*
X171450691Y-72218661D01*
X171331452Y-72320352D01*
X171281740Y-72365881D01*
X171264795Y-72381440D01*
X171249975Y-72394469D01*
X171238366Y-72404062D01*
X171231051Y-72409308D01*
X171229094Y-72409939D01*
X171231112Y-72406218D01*
X171238626Y-72397482D01*
X171250904Y-72384454D01*
X171267213Y-72367855D01*
X171286821Y-72348406D01*
X171308997Y-72326828D01*
X171333007Y-72303844D01*
X171358120Y-72280175D01*
X171383604Y-72256542D01*
X171399791Y-72241750D01*
X171529584Y-72129577D01*
X171664469Y-72024071D01*
X171804158Y-71925364D01*
X171948363Y-71833586D01*
X172096794Y-71748868D01*
X172249165Y-71671341D01*
X172405186Y-71601135D01*
X172564568Y-71538380D01*
X172727025Y-71483208D01*
X172892267Y-71435749D01*
X173060006Y-71396133D01*
X173229954Y-71364492D01*
X173383025Y-71343122D01*
X173423969Y-71338376D01*
X173460435Y-71334375D01*
X173493673Y-71331056D01*
X173524929Y-71328355D01*
X173555451Y-71326212D01*
X173586487Y-71324564D01*
X173619285Y-71323348D01*
X173655093Y-71322501D01*
X173695158Y-71321962D01*
X173740729Y-71321669D01*
X173793053Y-71321557D01*
X173814533Y-71321550D01*
X173867945Y-71321599D01*
G36*
X173867945Y-71321599D02*
G01*
X173914144Y-71321783D01*
X173954384Y-71322162D01*
X173989918Y-71322795D01*
X174022000Y-71323740D01*
X174051882Y-71325057D01*
X174080820Y-71326805D01*
X174110065Y-71329041D01*
X174140872Y-71331826D01*
X174174494Y-71335219D01*
X174212185Y-71339277D01*
X174227283Y-71340945D01*
X174398470Y-71364162D01*
X174567771Y-71395540D01*
X174734907Y-71434943D01*
X174899596Y-71482236D01*
X175061559Y-71537282D01*
X175220517Y-71599946D01*
X175376189Y-71670092D01*
X175528295Y-71747584D01*
X175676556Y-71832286D01*
X175820692Y-71924063D01*
X175960423Y-72022778D01*
X176095468Y-72128296D01*
X176225548Y-72240480D01*
X176350383Y-72359195D01*
X176373619Y-72382614D01*
X176487388Y-72503377D01*
X176593350Y-72626379D01*
X176692028Y-72752354D01*
X176783948Y-72882037D01*
X176869633Y-73016164D01*
X176949608Y-73155469D01*
X177015016Y-73281583D01*
X177084375Y-73430728D01*
X177146550Y-73582958D01*
X177201269Y-73737469D01*
X177248259Y-73893454D01*
X177287249Y-74050108D01*
X177307501Y-74148347D01*
X177321741Y-74223478D01*
X177349312Y-74232468D01*
X177381563Y-74243706D01*
X177418776Y-74257861D01*
X177458427Y-74273896D01*
X177497992Y-74290774D01*
X177534946Y-74307458D01*
X177554683Y-74316878D01*
X177615087Y-74347993D01*
X177668574Y-74379005D01*
X177716621Y-74410923D01*
X177760704Y-74444753D01*
X177802301Y-74481504D01*
X177817795Y-74496477D01*
X177857983Y-74539304D01*
X177890862Y-74581459D01*
X177917318Y-74624397D01*
X177938239Y-74669569D01*
X177954510Y-74718430D01*
X177955570Y-74722291D01*
X177960581Y-74747742D01*
X177963831Y-74778912D01*
X177965295Y-74813235D01*
X177964949Y-74848142D01*
X177962770Y-74881067D01*
X177958731Y-74909442D01*
X177957399Y-74915650D01*
X177938206Y-74980747D01*
X177911011Y-75045968D01*
X177875769Y-75111363D01*
X177832436Y-75176982D01*
X177780966Y-75242877D01*
X177721314Y-75309099D01*
X177653435Y-75375697D01*
X177577283Y-75442724D01*
X177492815Y-75510229D01*
X177399984Y-75578263D01*
X177319165Y-75633439D01*
X177254781Y-75676109D01*
X177232500Y-75753079D01*
X177182626Y-75910347D01*
X177124648Y-76065821D01*
X177058840Y-76218939D01*
X176985475Y-76369139D01*
X176904826Y-76515858D01*
X176817165Y-76658535D01*
X176731300Y-76784710D01*
X176627862Y-76922353D01*
X176518022Y-77054541D01*
X176402011Y-77181077D01*
X176280062Y-77301764D01*
X176152409Y-77416405D01*
X176019283Y-77524804D01*
X175880918Y-77626763D01*
X175737545Y-77722085D01*
X175589399Y-77810574D01*
X175436711Y-77892033D01*
X175402033Y-77909236D01*
X175246024Y-77980895D01*
X175086496Y-78044986D01*
X174923902Y-78101406D01*
X174758693Y-78150050D01*
X174591321Y-78190818D01*
X174422240Y-78223605D01*
X174251900Y-78248309D01*
X174080755Y-78264827D01*
X173909257Y-78273056D01*
X173799716Y-78273926D01*
X173769941Y-78273652D01*
X173741290Y-78273309D01*
X173715435Y-78272925D01*
X173694047Y-78272524D01*
X173678795Y-78272133D01*
X173674833Y-78271988D01*
X173495939Y-78260280D01*
X173319985Y-78240635D01*
X173146933Y-78213042D01*
X172976747Y-78177492D01*
X172809391Y-78133974D01*
X172644829Y-78082477D01*
X172483025Y-78022991D01*
X172323941Y-77955505D01*
X172167541Y-77880010D01*
X172015691Y-77797585D01*
X171870769Y-77709849D01*
X171730778Y-77615616D01*
X171595298Y-77514569D01*
X171463913Y-77406390D01*
X171336203Y-77290762D01*
X171294616Y-77250742D01*
X171272743Y-77229138D01*
X171255223Y-77211357D01*
X171242257Y-77197680D01*
X171234050Y-77188388D01*
X171230803Y-77183759D01*
X171232721Y-77184074D01*
X171240006Y-77189614D01*
X171252860Y-77200657D01*
X171268558Y-77214800D01*
X171376754Y-77310653D01*
X171483788Y-77399156D01*
X171590801Y-77481110D01*
X171698934Y-77557312D01*
X171809327Y-77628561D01*
X171923122Y-77695655D01*
X172041458Y-77759394D01*
X172059817Y-77768789D01*
X172203797Y-77838061D01*
X172348936Y-77899978D01*
X172495872Y-77954718D01*
X172645244Y-78002461D01*
X172797689Y-78043385D01*
X172953846Y-78077670D01*
X173114353Y-78105494D01*
X173279849Y-78127036D01*
X173370033Y-78135987D01*
X173395299Y-78137717D01*
X173427792Y-78139128D01*
X173466277Y-78140226D01*
X173509519Y-78141015D01*
X173556286Y-78141501D01*
X173605341Y-78141688D01*
X173655452Y-78141581D01*
X173705384Y-78141185D01*
X173753903Y-78140505D01*
X173799775Y-78139546D01*
X173841765Y-78138312D01*
X173878640Y-78136809D01*
X173909164Y-78135041D01*
X173924600Y-78133792D01*
X174092657Y-78114633D01*
X174255490Y-78089191D01*
X174413743Y-78057287D01*
X174568059Y-78018740D01*
X174719083Y-77973370D01*
X174867460Y-77920996D01*
X175013833Y-77861440D01*
X175158847Y-77794520D01*
X175186133Y-77781041D01*
X175336929Y-77701091D01*
X175483035Y-77614165D01*
X175624249Y-77520432D01*
X175760371Y-77420058D01*
X175891201Y-77313211D01*
X176016538Y-77200058D01*
X176136181Y-77080766D01*
X176249930Y-76955503D01*
X176357584Y-76824436D01*
X176400906Y-76767734D01*
X176496006Y-76633861D01*
X176583868Y-76496232D01*
X176664735Y-76354405D01*
X176738844Y-76207938D01*
X176806437Y-76056387D01*
X176858564Y-75924270D01*
X176870766Y-75891490D01*
X176815159Y-75919355D01*
X176706869Y-75971932D01*
X176590994Y-76024993D01*
X176468372Y-76078196D01*
X176339844Y-76131205D01*
X176206251Y-76183678D01*
X176068432Y-76235276D01*
X175927228Y-76285661D01*
X175804200Y-76327605D01*
X175703861Y-76360661D01*
X175607569Y-76391473D01*
X175513618Y-76420536D01*
X175420300Y-76448347D01*
X175325908Y-76475403D01*
X175228735Y-76502199D01*
X175127073Y-76529232D01*
X175019216Y-76556999D01*
X174989283Y-76564568D01*
X174790317Y-76614699D01*
X174787320Y-76635125D01*
X174785922Y-76646253D01*
X174783981Y-76663890D01*
X174781698Y-76686109D01*
X174779272Y-76710985D01*
X174777690Y-76727920D01*
X174763657Y-76849624D01*
X174744309Y-76967666D01*
X174743280Y-76973050D01*
X174739165Y-76993501D01*
X174733971Y-77017863D01*
X174728011Y-77044809D01*
X174721601Y-77073008D01*
X174715052Y-77101132D01*
X174708680Y-77127853D01*
X174702798Y-77151840D01*
X174697720Y-77171765D01*
X174693758Y-77186299D01*
X174691228Y-77194112D01*
X174690964Y-77194674D01*
X174689865Y-77192496D01*
X174688621Y-77183038D01*
X174687330Y-77167482D01*
X174686089Y-77147010D01*
X174684993Y-77122805D01*
X174684909Y-77120591D01*
X174677512Y-76997815D01*
X174664716Y-76878510D01*
X174646692Y-76764176D01*
X174641803Y-76738631D01*
X174636051Y-76709769D01*
X174631556Y-76688201D01*
X174627948Y-76672911D01*
X174624854Y-76662884D01*
X174621903Y-76657105D01*
X174618724Y-76654559D01*
X174614946Y-76654230D01*
X174611168Y-76654897D01*
X174580842Y-76661284D01*
X174546197Y-76668509D01*
X174508517Y-76676311D01*
X174469086Y-76684428D01*
X174429187Y-76692598D01*
X174390106Y-76700561D01*
X174353125Y-76708053D01*
X174319528Y-76714814D01*
X174290599Y-76720581D01*
X174267623Y-76725093D01*
X174254134Y-76727672D01*
X174192086Y-76739258D01*
X174155165Y-76815937D01*
X174143943Y-76838897D01*
X174133945Y-76858695D01*
X174125734Y-76874268D01*
X174119875Y-76884554D01*
X174116931Y-76888490D01*
X174116725Y-76888384D01*
X174117294Y-76883069D01*
X174119838Y-76871063D01*
X174124010Y-76853815D01*
X174129464Y-76832776D01*
X174133890Y-76816457D01*
X174140048Y-76793914D01*
X174145242Y-76774442D01*
X174149120Y-76759405D01*
X174151327Y-76750168D01*
X174151680Y-76747870D01*
X174147433Y-76748265D01*
X174136286Y-76749939D01*
X174119674Y-76752661D01*
X174099028Y-76756197D01*
X174085317Y-76758611D01*
X174019850Y-76770247D01*
X174007042Y-76831432D01*
X173994235Y-76892617D01*
X173916026Y-77055196D01*
X173899507Y-77089321D01*
X173884117Y-77120707D01*
X173870233Y-77148612D01*
X173858235Y-77172292D01*
X173848501Y-77191005D01*
X173841411Y-77204009D01*
X173837342Y-77210561D01*
X173836506Y-77211071D01*
X173836564Y-77205375D01*
X173837331Y-77192287D01*
X173838726Y-77172846D01*
X173840670Y-77148090D01*
X173843081Y-77119056D01*
X173845878Y-77086784D01*
X173847980Y-77063309D01*
X173853052Y-77007009D01*
X173857341Y-76958646D01*
X173860882Y-76917726D01*
X173863713Y-76883760D01*
X173865870Y-76856256D01*
X173867390Y-76834722D01*
X173868311Y-76818668D01*
X173868670Y-76807603D01*
X173868502Y-76801034D01*
X173867882Y-76798505D01*
X173863169Y-76798418D01*
X173851262Y-76799514D01*
X173833326Y-76801647D01*
X173810529Y-76804672D01*
X173784038Y-76808442D01*
X173762685Y-76811635D01*
X173731539Y-76816342D01*
X173700766Y-76820915D01*
X173672137Y-76825096D01*
X173647426Y-76828628D01*
X173628404Y-76831253D01*
X173621458Y-76832160D01*
X173602870Y-76834769D01*
X173591379Y-76837176D01*
X173585635Y-76839798D01*
X173584292Y-76843053D01*
X173584394Y-76843655D01*
X173585798Y-76849531D01*
X173588916Y-76862375D01*
X173593443Y-76880932D01*
X173599072Y-76903949D01*
X173605497Y-76930171D01*
X173609193Y-76945239D01*
X173615843Y-76972534D01*
X173621754Y-76997183D01*
X173626640Y-77017962D01*
X173630215Y-77033648D01*
X173632195Y-77043017D01*
X173632500Y-77045041D01*
X173630038Y-77050521D01*
X173623537Y-77060531D01*
X173614324Y-77073053D01*
X173612833Y-77074969D01*
X173584629Y-77113321D01*
X173555321Y-77157466D01*
X173526270Y-77205095D01*
X173498836Y-77253900D01*
X173474379Y-77301573D01*
X173457055Y-77339234D01*
X173445195Y-77366750D01*
X173422264Y-77299017D01*
X173403530Y-77242814D01*
X173383840Y-77182190D01*
X173364030Y-77119789D01*
X173344934Y-77058258D01*
X173327384Y-77000244D01*
X173316884Y-76964584D01*
X173309410Y-76939104D01*
X173302617Y-76916420D01*
X173296892Y-76897779D01*
X173292620Y-76884431D01*
X173290185Y-76877623D01*
X173289885Y-76877060D01*
X173285291Y-76876695D01*
X173274213Y-76877167D01*
X173258570Y-76878292D01*
X173240283Y-76879882D01*
X173221272Y-76881753D01*
X173203457Y-76883718D01*
X173188758Y-76885591D01*
X173179096Y-76887187D01*
X173176337Y-76888057D01*
X173174838Y-76892683D01*
X173171917Y-76904330D01*
X173167851Y-76921721D01*
X173162917Y-76943583D01*
X173157392Y-76968640D01*
X173151553Y-76995618D01*
X173145679Y-77023243D01*
X173140046Y-77050239D01*
X173134931Y-77075332D01*
X173130611Y-77097248D01*
X173129063Y-77105403D01*
X173123865Y-77134197D01*
X173118090Y-77167822D01*
X173112331Y-77202725D01*
X173107184Y-77235351D01*
X173105583Y-77245931D01*
X173094561Y-77319846D01*
X173070372Y-77340744D01*
X173049697Y-77359473D01*
X173025318Y-77382943D01*
X172998907Y-77409422D01*
X172972135Y-77437178D01*
X172946673Y-77464476D01*
X172924194Y-77489585D01*
X172906483Y-77510628D01*
X172892687Y-77528527D01*
X172876251Y-77550946D01*
X172858332Y-77576196D01*
X172840085Y-77602594D01*
X172822665Y-77628451D01*
X172807229Y-77652082D01*
X172794931Y-77671800D01*
X172788876Y-77682250D01*
X172783590Y-77690663D01*
X172779961Y-77694269D01*
X172779519Y-77694164D01*
X172778227Y-77688932D01*
X172776687Y-77676137D01*
X172774950Y-77656674D01*
X172773069Y-77631443D01*
X172771096Y-77601340D01*
X172769082Y-77567263D01*
X172767080Y-77530109D01*
X172765142Y-77490775D01*
X172763319Y-77450160D01*
X172761664Y-77409160D01*
X172760228Y-77368672D01*
X172759699Y-77351934D01*
X172757752Y-77273011D01*
X172756920Y-77200180D01*
X172757196Y-77131136D01*
X172758572Y-77063580D01*
X172758807Y-77055600D01*
X172759792Y-77022961D01*
X172760681Y-76993197D01*
X172761444Y-76967322D01*
X172762053Y-76946347D01*
X172762477Y-76931284D01*
X172762686Y-76923144D01*
X172762701Y-76921983D01*
X172758639Y-76922145D01*
X172747392Y-76922753D01*
X172730229Y-76923733D01*
X172708415Y-76925014D01*
X172683217Y-76926522D01*
X172677883Y-76926844D01*
X172534414Y-76934309D01*
X172388313Y-76939545D01*
X172241175Y-76942555D01*
X172094597Y-76943339D01*
X171950177Y-76941897D01*
X171809510Y-76938231D01*
X171674192Y-76932340D01*
X171575100Y-76926321D01*
X171430572Y-76914654D01*
X171290997Y-76899948D01*
X171156691Y-76882274D01*
X171027972Y-76861704D01*
X170905157Y-76838310D01*
X170788561Y-76812162D01*
X170678504Y-76783332D01*
X170575301Y-76751892D01*
X170479269Y-76717914D01*
X170390726Y-76681467D01*
X170309988Y-76642625D01*
X170305100Y-76640062D01*
X170232235Y-76598459D01*
X170167053Y-76554537D01*
X170109638Y-76508393D01*
X170060075Y-76460123D01*
X170018448Y-76409822D01*
X169984842Y-76357587D01*
X169959341Y-76303515D01*
X169942029Y-76247701D01*
X169936710Y-76220671D01*
X169933476Y-76188345D01*
X169932970Y-76151120D01*
X169935026Y-76112056D01*
X169939478Y-76074212D01*
X169946160Y-76040646D01*
X169946555Y-76039115D01*
X169967047Y-75976318D01*
X169995837Y-75912786D01*
X170032795Y-75848617D01*
X170077794Y-75783911D01*
X170130704Y-75718765D01*
X170191398Y-75653280D01*
X170259746Y-75587552D01*
X170335621Y-75521680D01*
X170418894Y-75455764D01*
X170509436Y-75389902D01*
X170607119Y-75324192D01*
X170711815Y-75258733D01*
X170823395Y-75193624D01*
X170941730Y-75128962D01*
X171066693Y-75064848D01*
X171198155Y-75001378D01*
X171335986Y-74938653D01*
X171438276Y-74894355D01*
X171463321Y-74883591D01*
X171481424Y-74875422D01*
X171493517Y-74869330D01*
X171500533Y-74864801D01*
X171503403Y-74861320D01*
X171503135Y-74858504D01*
X171500899Y-74856757D01*
X171495603Y-74854861D01*
X171486631Y-74852719D01*
X171473367Y-74850237D01*
X171455195Y-74847320D01*
X171431498Y-74843873D01*
X171401661Y-74839800D01*
X171365068Y-74835007D01*
X171321101Y-74829397D01*
X171286476Y-74825043D01*
X171244995Y-74819824D01*
X171206121Y-74814886D01*
X171170650Y-74810333D01*
X171139381Y-74806270D01*
X171113111Y-74802801D01*
X171092638Y-74800031D01*
X171078759Y-74798064D01*
X171072272Y-74797006D01*
X171071892Y-74796891D01*
X171071791Y-74796144D01*
X171073442Y-74795295D01*
X171077482Y-74794256D01*
X171084547Y-74792935D01*
X171095273Y-74791244D01*
X171110296Y-74789092D01*
X171130254Y-74786391D01*
X171155783Y-74783049D01*
X171187518Y-74778978D01*
X171226096Y-74774087D01*
X171272153Y-74768287D01*
X171295528Y-74765352D01*
X171336177Y-74760234D01*
X171374178Y-74755420D01*
X171408722Y-74751014D01*
X171439000Y-74747119D01*
X171464205Y-74743842D01*
X171483527Y-74741285D01*
X171496159Y-74739555D01*
X171501291Y-74738755D01*
X171501365Y-74738728D01*
X171503542Y-74734766D01*
X171507958Y-74726231D01*
X171508637Y-74724898D01*
X171518525Y-74710276D01*
X171533076Y-74694347D01*
X171549520Y-74679850D01*
X171564139Y-74670024D01*
X171576035Y-74661129D01*
X171581329Y-74649980D01*
X171581501Y-74649053D01*
X171582490Y-74642314D01*
X171584454Y-74628080D01*
X171587273Y-74607250D01*
X171590826Y-74580722D01*
X171594995Y-74549397D01*
X171599658Y-74514174D01*
X171604696Y-74475953D01*
X171609192Y-74441708D01*
X171614413Y-74402119D01*
X171619348Y-74365159D01*
X171623882Y-74331665D01*
X171627898Y-74302472D01*
X171631281Y-74278415D01*
X171633914Y-74260331D01*
X171635683Y-74249055D01*
X171636439Y-74245417D01*
X171637236Y-74245186D01*
X171638106Y-74246512D01*
X171639142Y-74250045D01*
X171640442Y-74256435D01*
X171642101Y-74266331D01*
X171644214Y-74280382D01*
X171646878Y-74299237D01*
X171650187Y-74323547D01*
X171654238Y-74353960D01*
X171659127Y-74391126D01*
X171664949Y-74435693D01*
X171668465Y-74462684D01*
X171673755Y-74502727D01*
X171678846Y-74540138D01*
X171683616Y-74574089D01*
X171687942Y-74603757D01*
X171691700Y-74628317D01*
X171694768Y-74646944D01*
X171697022Y-74658812D01*
X171698332Y-74663094D01*
X171714670Y-74671932D01*
X171732824Y-74686423D01*
X171750793Y-74704666D01*
X171766575Y-74724757D01*
X171771950Y-74733090D01*
X171774222Y-74734910D01*
X171779302Y-74736830D01*
X171787840Y-74738953D01*
X171800485Y-74741378D01*
X171817884Y-74744209D01*
X171840686Y-74747546D01*
X171869541Y-74751491D01*
X171905096Y-74756146D01*
X171948001Y-74761612D01*
X171979383Y-74765553D01*
X172028860Y-74771752D01*
X172070568Y-74777008D01*
X172105145Y-74781410D01*
X172133224Y-74785048D01*
X172155442Y-74788012D01*
X172172435Y-74790392D01*
X172184837Y-74792278D01*
X172193284Y-74793760D01*
X172198412Y-74794926D01*
X172200855Y-74795869D01*
X172201251Y-74796676D01*
X172201074Y-74796897D01*
X172196696Y-74797699D01*
X172184712Y-74799442D01*
X172165922Y-74802022D01*
X172141121Y-74805334D01*
X172111108Y-74809271D01*
X172076680Y-74813729D01*
X172038633Y-74818602D01*
X171997765Y-74823786D01*
X171986359Y-74825225D01*
X171773201Y-74852068D01*
X171765524Y-74867116D01*
X171756006Y-74881066D01*
X171741765Y-74896617D01*
X171725448Y-74911208D01*
X171709707Y-74922278D01*
X171706817Y-74923866D01*
X171698030Y-74929203D01*
X171693722Y-74933373D01*
X171693633Y-74933777D01*
X171693094Y-74938742D01*
X171691567Y-74951091D01*
X171689183Y-74969815D01*
X171686077Y-74993905D01*
X171682381Y-75022352D01*
X171678229Y-75054148D01*
X171673752Y-75088284D01*
X171669085Y-75123752D01*
X171664361Y-75159542D01*
X171659711Y-75194646D01*
X171655270Y-75228056D01*
X171651171Y-75258763D01*
X171647546Y-75285758D01*
X171644529Y-75308032D01*
X171642252Y-75324578D01*
X171640848Y-75334386D01*
X171640553Y-75336241D01*
X171638506Y-75345273D01*
X171636733Y-75348983D01*
X171636525Y-75348903D01*
X171635681Y-75344526D01*
X171633862Y-75332582D01*
X171631181Y-75313900D01*
X171627753Y-75289311D01*
X171623693Y-75259643D01*
X171619115Y-75225726D01*
X171614134Y-75188389D01*
X171609140Y-75150562D01*
X171603833Y-75110269D01*
X171598795Y-75072212D01*
X171594146Y-75037284D01*
X171590005Y-75006377D01*
X171586494Y-74980385D01*
X171583732Y-74960201D01*
X171581838Y-74946716D01*
X171580977Y-74941050D01*
X171575163Y-74928801D01*
X171565243Y-74921576D01*
X171559302Y-74918858D01*
X171553752Y-74917700D01*
X171546927Y-74918470D01*
X171537160Y-74921538D01*
X171522787Y-74927272D01*
X171504570Y-74935002D01*
X171383056Y-74988549D01*
X171264010Y-75044164D01*
X171148245Y-75101406D01*
X171036575Y-75159833D01*
X170929815Y-75219003D01*
X170828779Y-75278474D01*
X170734281Y-75337804D01*
X170647135Y-75396552D01*
X170624717Y-75412439D01*
X170572171Y-75451476D01*
X170519662Y-75493095D01*
X170468226Y-75536346D01*
X170418897Y-75580274D01*
X170372714Y-75623928D01*
X170330711Y-75666355D01*
X170293926Y-75706602D01*
X170263394Y-75743718D01*
X170261229Y-75746555D01*
X170217307Y-75809386D01*
X170181746Y-75870985D01*
X170154538Y-75931300D01*
X170135674Y-75990280D01*
X170125147Y-76047874D01*
X170122948Y-76104032D01*
X170129068Y-76158701D01*
X170143499Y-76211832D01*
X170166233Y-76263373D01*
X170197262Y-76313274D01*
X170236577Y-76361483D01*
X170284170Y-76407949D01*
X170340032Y-76452621D01*
X170381300Y-76481015D01*
X170444143Y-76518409D01*
X170514837Y-76554095D01*
X170592911Y-76587926D01*
X170677896Y-76619755D01*
X170769319Y-76649434D01*
X170866711Y-76676817D01*
X170969601Y-76701755D01*
X171077519Y-76724103D01*
X171189993Y-76743712D01*
X171249988Y-76752758D01*
X171326751Y-76763305D01*
X171400735Y-76772547D01*
X171473289Y-76780588D01*
X171545764Y-76787536D01*
X171619511Y-76793496D01*
X171695880Y-76798575D01*
X171776220Y-76802877D01*
X171861882Y-76806509D01*
X171954216Y-76809577D01*
X171985497Y-76810460D01*
X172055051Y-76811861D01*
X172130301Y-76812497D01*
X172209638Y-76812399D01*
X172291452Y-76811603D01*
X172374133Y-76810141D01*
X172456072Y-76808047D01*
X172535660Y-76805354D01*
X172611286Y-76802096D01*
X172681341Y-76798306D01*
X172731749Y-76794953D01*
X172768682Y-76792252D01*
X172770630Y-76778934D01*
X172771520Y-76771106D01*
X172772987Y-76756166D01*
X172773295Y-76752839D01*
X173213400Y-76752839D01*
X173217064Y-76753951D01*
X173226010Y-76753928D01*
X173237171Y-76753035D01*
X173247478Y-76751537D01*
X173253864Y-76749696D01*
X173254403Y-76749308D01*
X173254032Y-76744857D01*
X173251819Y-76734154D01*
X173248180Y-76719105D01*
X173246010Y-76710752D01*
X173236161Y-76673651D01*
X173224780Y-76711572D01*
X173219814Y-76728457D01*
X173215946Y-76742251D01*
X173213724Y-76750969D01*
X173213400Y-76752839D01*
X172773295Y-76752839D01*
X172774912Y-76735436D01*
X172777172Y-76710244D01*
X172779646Y-76681913D01*
X172781537Y-76659784D01*
X172802129Y-76462752D01*
X172830672Y-76263764D01*
X172867049Y-76063427D01*
X172911140Y-75862349D01*
X172962829Y-75661137D01*
X173000771Y-75529484D01*
X173017318Y-75474450D01*
X173011766Y-75423650D01*
X173001969Y-75327741D01*
X172993758Y-75233270D01*
X172987045Y-75138597D01*
X172981737Y-75042082D01*
X172977746Y-74942085D01*
X172975102Y-74841567D01*
X173319301Y-74841567D01*
X173319730Y-74924448D01*
X173321092Y-75003735D01*
X173323478Y-75080746D01*
X173326978Y-75156801D01*
X173331686Y-75233220D01*
X173337692Y-75311322D01*
X173345088Y-75392428D01*
X173353965Y-75477855D01*
X173364416Y-75568925D01*
X173376530Y-75666956D01*
X173376544Y-75667067D01*
X173394905Y-75806686D01*
X173413611Y-75939459D01*
X173432929Y-76067005D01*
X173453129Y-76190943D01*
X173474476Y-76312893D01*
X173497240Y-76434475D01*
X173521687Y-76557309D01*
X173531716Y-76605809D01*
X173554043Y-76712700D01*
X173565521Y-76712700D01*
X173572618Y-76712107D01*
X173586890Y-76710433D01*
X173607140Y-76707837D01*
X173632166Y-76704476D01*
X173660770Y-76700508D01*
X173691753Y-76696093D01*
X173694708Y-76695666D01*
X173739255Y-76689191D01*
X173776146Y-76683765D01*
X173806113Y-76679274D01*
X173829887Y-76675604D01*
X173848199Y-76672644D01*
X173861779Y-76670280D01*
X173871360Y-76668398D01*
X173871979Y-76668264D01*
X173873903Y-76667862D01*
X173875566Y-76667139D01*
X173877029Y-76665469D01*
X173878353Y-76662223D01*
X173879596Y-76656774D01*
X173880821Y-76648493D01*
X173882086Y-76636753D01*
X173883453Y-76620925D01*
X173884981Y-76600382D01*
X173886731Y-76574496D01*
X173888763Y-76542638D01*
X173891138Y-76504182D01*
X173893915Y-76458499D01*
X173896978Y-76407900D01*
X173904254Y-76279184D01*
X173910665Y-76148142D01*
X173916205Y-76015537D01*
X173920868Y-75882128D01*
X173924648Y-75748675D01*
X173927539Y-75615940D01*
X173929534Y-75484682D01*
X173930627Y-75355662D01*
X173930813Y-75229640D01*
X173930085Y-75107377D01*
X173928436Y-74989634D01*
X173925862Y-74877170D01*
X173922355Y-74770746D01*
X173917910Y-74671123D01*
X173912520Y-74579061D01*
X173911807Y-74568517D01*
X173893531Y-74361148D01*
X173867141Y-74153169D01*
X173832598Y-73944385D01*
X173789867Y-73734602D01*
X173738911Y-73523625D01*
X173696975Y-73373237D01*
X174026188Y-73373237D01*
X174026934Y-73378579D01*
X174027494Y-73381067D01*
X174029337Y-73390537D01*
X174032195Y-73407316D01*
X174035908Y-73430326D01*
X174040315Y-73458492D01*
X174045256Y-73490736D01*
X174050570Y-73525982D01*
X174056097Y-73563154D01*
X174061676Y-73601175D01*
X174067147Y-73638969D01*
X174072349Y-73675459D01*
X174077122Y-73709569D01*
X174081305Y-73740222D01*
X174083361Y-73755717D01*
X174111840Y-73989194D01*
X174135259Y-74216645D01*
X174153625Y-74438827D01*
X174166945Y-74656496D01*
X174175229Y-74870408D01*
X174178483Y-75081320D01*
X174176715Y-75289988D01*
X174169933Y-75497168D01*
X174158146Y-75703616D01*
X174141360Y-75910090D01*
X174119584Y-76117344D01*
X174108698Y-76206817D01*
X174103278Y-76248511D01*
X174097201Y-76293320D01*
X174090649Y-76340033D01*
X174083805Y-76387442D01*
X174076852Y-76434339D01*
X174069973Y-76479515D01*
X174063350Y-76521761D01*
X174057167Y-76559868D01*
X174051606Y-76592628D01*
X174046851Y-76618832D01*
X174044745Y-76629523D01*
X174043687Y-76637897D01*
X174046897Y-76640203D01*
X174054344Y-76639016D01*
X174062866Y-76637344D01*
X174077806Y-76634559D01*
X174097241Y-76631016D01*
X174119250Y-76627066D01*
X174125209Y-76626006D01*
X174146449Y-76622146D01*
X174164516Y-76618688D01*
X174177867Y-76615940D01*
X174184955Y-76614213D01*
X174185670Y-76613908D01*
X174187431Y-76608997D01*
X174189713Y-76600461D01*
X174259033Y-76600461D01*
X174263042Y-76600168D01*
X174274533Y-76598290D01*
X174292702Y-76594986D01*
X174316746Y-76590410D01*
X174345860Y-76584720D01*
X174379240Y-76578071D01*
X174416082Y-76570621D01*
X174455583Y-76562524D01*
X174476399Y-76558216D01*
X174505720Y-76552053D01*
X174532270Y-76546328D01*
X174554932Y-76541295D01*
X174572592Y-76537206D01*
X174584132Y-76534312D01*
X174588412Y-76532899D01*
X174588564Y-76527431D01*
X174585809Y-76515127D01*
X174580510Y-76496963D01*
X174573028Y-76473912D01*
X174563724Y-76446949D01*
X174552960Y-76417051D01*
X174541097Y-76385190D01*
X174528498Y-76352343D01*
X174515522Y-76319484D01*
X174502532Y-76287588D01*
X174489889Y-76257631D01*
X174477955Y-76230585D01*
X174469862Y-76213167D01*
X174444593Y-76160250D01*
X174427505Y-76204700D01*
X174413029Y-76241571D01*
X174395769Y-76284228D01*
X174376519Y-76330783D01*
X174356071Y-76379348D01*
X174335221Y-76428037D01*
X174314759Y-76474960D01*
X174299638Y-76508992D01*
X174288180Y-76534571D01*
X174277975Y-76557429D01*
X174269502Y-76576483D01*
X174263244Y-76590651D01*
X174259679Y-76598851D01*
X174259033Y-76600461D01*
X174189713Y-76600461D01*
X174190688Y-76596817D01*
X174195215Y-76578389D01*
X174200784Y-76554732D01*
X174207165Y-76526866D01*
X174214132Y-76495812D01*
X174221456Y-76462589D01*
X174228910Y-76428219D01*
X174236266Y-76393720D01*
X174243295Y-76360114D01*
X174249771Y-76328420D01*
X174252500Y-76314767D01*
X174277413Y-76185067D01*
X174299329Y-76061976D01*
X174318376Y-75944234D01*
X174334687Y-75830581D01*
X174348392Y-75719758D01*
X174359620Y-75610507D01*
X174368503Y-75501567D01*
X174375171Y-75391679D01*
X174379754Y-75279583D01*
X174382382Y-75164022D01*
X174383187Y-75053233D01*
X174383070Y-74992454D01*
X174382604Y-74938504D01*
X174381723Y-74889754D01*
X174380360Y-74844571D01*
X174378450Y-74801323D01*
X174375927Y-74758381D01*
X174372725Y-74714111D01*
X174368777Y-74666882D01*
X174366591Y-74642600D01*
X174345853Y-74462867D01*
X174316751Y-74284365D01*
X174279313Y-74107204D01*
X174233568Y-73931496D01*
X174179544Y-73757349D01*
X174117269Y-73584874D01*
X174058208Y-73440451D01*
X174046296Y-73413051D01*
X174037360Y-73393060D01*
X174031179Y-73380048D01*
X174027529Y-73373584D01*
X174026188Y-73373237D01*
X173696975Y-73373237D01*
X173679693Y-73311262D01*
X173663230Y-73256747D01*
X173655614Y-73231911D01*
X173616874Y-73311781D01*
X173554196Y-73450175D01*
X173498927Y-73591473D01*
X173451301Y-73734937D01*
X173411553Y-73879828D01*
X173379917Y-74025411D01*
X173367945Y-74093695D01*
X173356084Y-74175679D01*
X173345776Y-74265140D01*
X173337074Y-74361220D01*
X173330037Y-74463061D01*
X173324718Y-74569805D01*
X173321174Y-74680597D01*
X173319461Y-74794577D01*
X173319301Y-74841567D01*
X172975102Y-74841567D01*
X172974980Y-74836965D01*
X172973351Y-74725150D01*
X172972944Y-74603587D01*
X172974164Y-74489418D01*
X172977116Y-74381709D01*
X172981908Y-74279526D01*
X172988644Y-74181934D01*
X172997432Y-74088000D01*
X173008377Y-73996788D01*
X173021585Y-73907364D01*
X173037163Y-73818794D01*
X173055217Y-73730144D01*
X173075852Y-73640479D01*
X173099176Y-73548864D01*
X173112552Y-73499600D01*
X173166676Y-73319579D01*
X173228579Y-73142040D01*
X173298037Y-72967478D01*
X173374824Y-72796384D01*
X173458715Y-72629251D01*
X173549487Y-72466572D01*
X173646913Y-72308841D01*
X173676818Y-72263437D01*
X173697296Y-72233052D01*
X173718206Y-72202495D01*
X173738742Y-72172907D01*
X173758101Y-72145425D01*
X173775476Y-72121189D01*
X173790064Y-72101339D01*
X173801060Y-72087014D01*
X173803882Y-72083550D01*
X173814496Y-72070850D01*
X173824040Y-72083090D01*
X173836746Y-72099952D01*
X173853167Y-72122605D01*
X173872403Y-72149746D01*
X173893557Y-72180066D01*
X173915728Y-72212259D01*
X173938018Y-72245019D01*
X173959527Y-72277039D01*
X173979357Y-72307013D01*
X173996609Y-72333635D01*
X173998664Y-72336857D01*
X174096673Y-72498772D01*
X174187441Y-72664981D01*
X174270855Y-72835213D01*
X174346805Y-73009197D01*
X174415180Y-73186663D01*
X174475868Y-73367340D01*
X174528758Y-73550957D01*
X174573740Y-73737243D01*
X174574077Y-73738784D01*
X174589672Y-73815183D01*
X174603517Y-73893714D01*
X174615753Y-73975482D01*
X174626522Y-74061591D01*
X174635967Y-74153146D01*
X174644231Y-74251253D01*
X174649294Y-74322984D01*
X174650618Y-74348616D01*
X174651759Y-74381628D01*
X174652716Y-74420933D01*
X174653489Y-74465447D01*
X174654078Y-74514082D01*
X174654483Y-74565755D01*
X174654705Y-74619378D01*
X174654743Y-74673868D01*
X174654597Y-74728137D01*
X174654267Y-74781101D01*
X174653752Y-74831674D01*
X174653054Y-74878770D01*
X174652172Y-74921304D01*
X174651106Y-74958190D01*
X174649856Y-74988343D01*
X174649309Y-74998200D01*
X174644578Y-75073411D01*
X174639950Y-75141690D01*
X174635309Y-75204568D01*
X174630536Y-75263578D01*
X174625515Y-75320250D01*
X174620621Y-75371156D01*
X174609827Y-75479528D01*
X174633768Y-75546839D01*
X174679149Y-75686093D01*
X174716751Y-75826987D01*
X174746679Y-75970074D01*
X174769033Y-76115903D01*
X174783916Y-76265028D01*
X174790814Y-76396259D01*
X174791715Y-76423147D01*
X174792609Y-76446940D01*
X174793443Y-76466423D01*
X174794163Y-76480382D01*
X174794716Y-76487603D01*
X174794885Y-76488334D01*
X174800013Y-76487329D01*
X174812318Y-76484485D01*
X174830775Y-76480059D01*
X174854356Y-76474306D01*
X174882037Y-76467484D01*
X174912791Y-76459849D01*
X174945593Y-76451656D01*
X174979415Y-76443163D01*
X175013232Y-76434625D01*
X175046018Y-76426300D01*
X175076748Y-76418443D01*
X175104394Y-76411312D01*
X175127931Y-76405161D01*
X175131100Y-76404324D01*
X175344967Y-76345572D01*
X175553649Y-76283882D01*
X175756675Y-76219418D01*
X175953576Y-76152342D01*
X176143882Y-76082817D01*
X176327124Y-76011007D01*
X176502831Y-75937074D01*
X176594218Y-75896415D01*
X176612396Y-75888038D01*
X176635196Y-75877331D01*
X176661660Y-75864760D01*
X176690832Y-75850792D01*
X176721754Y-75835895D01*
X176753469Y-75820535D01*
X176785018Y-75805179D01*
X176815445Y-75790294D01*
X176843793Y-75776347D01*
X176869102Y-75763806D01*
X176890417Y-75753136D01*
X176906780Y-75744805D01*
X176917233Y-75739280D01*
X176920707Y-75737186D01*
X176922572Y-75732463D01*
X176926118Y-75720736D01*
X176931027Y-75703231D01*
X176936983Y-75681172D01*
X176943668Y-75655785D01*
X176950766Y-75628293D01*
X176957961Y-75599921D01*
X176964934Y-75571894D01*
X176971370Y-75545437D01*
X176976951Y-75521775D01*
X176979231Y-75511690D01*
X177293017Y-75511690D01*
X177306638Y-75503653D01*
X177314361Y-75498571D01*
X177327482Y-75489372D01*
X177344637Y-75477036D01*
X177364462Y-75462541D01*
X177383830Y-75448185D01*
X177467171Y-75383231D01*
X177542435Y-75318771D01*
X177609573Y-75254861D01*
X177668536Y-75191558D01*
X177719276Y-75128917D01*
X177761745Y-75066995D01*
X177795893Y-75005846D01*
X177821673Y-74945528D01*
X177822854Y-74942214D01*
X177839366Y-74884020D01*
X177847629Y-74826596D01*
X177847645Y-74770229D01*
X177839416Y-74715204D01*
X177822942Y-74661807D01*
X177821542Y-74658292D01*
X177807757Y-74627847D01*
X177791449Y-74599339D01*
X177771469Y-74571149D01*
X177746666Y-74541655D01*
X177715891Y-74509238D01*
X177715550Y-74508894D01*
X177675513Y-74471126D01*
X177633808Y-74437154D01*
X177588663Y-74405727D01*
X177538308Y-74375592D01*
X177492679Y-74351370D01*
X177470881Y-74340642D01*
X177447182Y-74329512D01*
X177422840Y-74318514D01*
X177399120Y-74308179D01*
X177377281Y-74299041D01*
X177358585Y-74291632D01*
X177344294Y-74286486D01*
X177335669Y-74284135D01*
X177333771Y-74284251D01*
X177333648Y-74288866D01*
X177334502Y-74300441D01*
X177336195Y-74317541D01*
X177338589Y-74338733D01*
X177340623Y-74355355D01*
X177357707Y-74523029D01*
X177366801Y-74691116D01*
X177367911Y-74858908D01*
X177361044Y-75025699D01*
X177346206Y-75190780D01*
X177332003Y-75298767D01*
X177328578Y-75320885D01*
X177324345Y-75346771D01*
X177319582Y-75374867D01*
X177314566Y-75403617D01*
X177309577Y-75431464D01*
X177304892Y-75456853D01*
X177300788Y-75478225D01*
X177297545Y-75494025D01*
X177295776Y-75501537D01*
X177293017Y-75511690D01*
X176979231Y-75511690D01*
X176980522Y-75505980D01*
X177004741Y-75386375D01*
X177023987Y-75269578D01*
X177038526Y-75153272D01*
X177048628Y-75035136D01*
X177054560Y-74912851D01*
X177056002Y-74852150D01*
X177055631Y-74707030D01*
X177049556Y-74566620D01*
X177037583Y-74429204D01*
X177019520Y-74293065D01*
X176995172Y-74156486D01*
X176964347Y-74017750D01*
X176960240Y-74001020D01*
X176916260Y-73841107D01*
X176864363Y-73684162D01*
X176804591Y-73530262D01*
X176736984Y-73379486D01*
X176661584Y-73231911D01*
X176578432Y-73087614D01*
X176487570Y-72946674D01*
X176389038Y-72809167D01*
X176282879Y-72675173D01*
X176213070Y-72593694D01*
X176187857Y-72565870D01*
X176157682Y-72533802D01*
X176123918Y-72498861D01*
X176087941Y-72462416D01*
X176051126Y-72425838D01*
X176014846Y-72390496D01*
X175980478Y-72357762D01*
X175949395Y-72329006D01*
X175931200Y-72312741D01*
X175798333Y-72201629D01*
X175661258Y-72097805D01*
X175520108Y-72001338D01*
X175375019Y-71912301D01*
X175226125Y-71830763D01*
X175073562Y-71756796D01*
X174917464Y-71690471D01*
X174757967Y-71631858D01*
X174595206Y-71581029D01*
X174481283Y-71550586D01*
X174314783Y-71513381D01*
X174147353Y-71484441D01*
X173979305Y-71463719D01*
X173810949Y-71451170D01*
X173642597Y-71446747D01*
X173474558Y-71450404D01*
X173307145Y-71462095D01*
X173140669Y-71481773D01*
X172975439Y-71509393D01*
X172811768Y-71544907D01*
X172649966Y-71588271D01*
X172490344Y-71639437D01*
X172333213Y-71698359D01*
X172178884Y-71764992D01*
X172027668Y-71839289D01*
X171879876Y-71921203D01*
X171843916Y-71942615D01*
X171707778Y-72029149D01*
X171576417Y-72121379D01*
X171450691Y-72218661D01*
X171331452Y-72320352D01*
X171281740Y-72365881D01*
X171264795Y-72381440D01*
X171249975Y-72394469D01*
X171238366Y-72404062D01*
X171231051Y-72409308D01*
X171229094Y-72409939D01*
X171231112Y-72406218D01*
X171238626Y-72397482D01*
X171250904Y-72384454D01*
X171267213Y-72367855D01*
X171286821Y-72348406D01*
X171308997Y-72326828D01*
X171333007Y-72303844D01*
X171358120Y-72280175D01*
X171383604Y-72256542D01*
X171399791Y-72241750D01*
X171529584Y-72129577D01*
X171664469Y-72024071D01*
X171804158Y-71925364D01*
X171948363Y-71833586D01*
X172096794Y-71748868D01*
X172249165Y-71671341D01*
X172405186Y-71601135D01*
X172564568Y-71538380D01*
X172727025Y-71483208D01*
X172892267Y-71435749D01*
X173060006Y-71396133D01*
X173229954Y-71364492D01*
X173383025Y-71343122D01*
X173423969Y-71338376D01*
X173460435Y-71334375D01*
X173493673Y-71331056D01*
X173524929Y-71328355D01*
X173555451Y-71326212D01*
X173586487Y-71324564D01*
X173619285Y-71323348D01*
X173655093Y-71322501D01*
X173695158Y-71321962D01*
X173740729Y-71321669D01*
X173793053Y-71321557D01*
X173814533Y-71321550D01*
X173867945Y-71321599D01*
G37*
D13*
%TO.C,C10*%
X142509406Y-122082809D02*
X142328680Y-122298190D01*
X141728040Y-121427166D02*
X141547314Y-121642547D01*
%TO.C,C9*%
X138214497Y-120372551D02*
X137999116Y-120191825D01*
X138870140Y-119591185D02*
X138654759Y-119410459D01*
%TO.C,U4*%
X139738926Y-114354464D02*
X137521309Y-116997317D01*
X139738926Y-114354464D02*
X140992362Y-112860677D01*
X143661074Y-117645536D02*
X142407638Y-119139323D01*
X143661074Y-117645536D02*
X144914510Y-116151750D01*
%TO.C,D4*%
X199491543Y-121373452D02*
X197931416Y-123601545D01*
X199491543Y-121373452D02*
X203636453Y-124275748D01*
X197931416Y-123601545D02*
X202076325Y-126503842D01*
%TO.C,C4*%
X156899394Y-134875555D02*
X156718668Y-135090936D01*
X156118028Y-134219912D02*
X155937302Y-134435293D01*
%TO.C,D6*%
X192226548Y-120991543D02*
X189998455Y-119431416D01*
X192226548Y-120991543D02*
X189324252Y-125136453D01*
X189998455Y-119431416D02*
X187096158Y-123576325D01*
%TO.C,C8*%
X149201241Y-128969258D02*
X149020515Y-129184639D01*
X148419875Y-128313615D02*
X148239149Y-128528996D01*
%TO.C,R3*%
X160444263Y-132319462D02*
X160139250Y-132682963D01*
X159643746Y-131647749D02*
X159338733Y-132011250D01*
%TO.C,D1*%
X204211700Y-113998767D02*
X202651573Y-116226860D01*
X204211700Y-113998767D02*
X208356610Y-116901063D01*
X202651573Y-116226860D02*
X206796482Y-119129157D01*
%TO.C,D3*%
X195826548Y-123191543D02*
X193598455Y-121631416D01*
X195826548Y-123191543D02*
X192924252Y-127336453D01*
X193598455Y-121631416D02*
X190696158Y-125776325D01*
%TO.C,C1*%
X198494862Y-115353838D02*
X199338019Y-114149684D01*
X199338019Y-114149684D02*
X197466257Y-112839062D01*
X196623100Y-114043216D02*
X198494862Y-115353838D01*
%TO.C,R6*%
X146144267Y-119419464D02*
X145839254Y-119782965D01*
X145343750Y-118747751D02*
X145038737Y-119111252D01*
%TO.C,FB4*%
X128018954Y-115279869D02*
X128199680Y-115064488D01*
X128800320Y-115935512D02*
X128981046Y-115720131D01*
%TO.C,D8*%
X176713813Y-93840000D02*
X173993813Y-93840000D01*
X176713813Y-93840000D02*
X176713813Y-98900000D01*
X173993813Y-93840000D02*
X173993813Y-98900000D01*
%TO.C,C6*%
X136481046Y-115920131D02*
X136300320Y-116135512D01*
X135699680Y-115264488D02*
X135518954Y-115479869D01*
%TO.C,U1*%
X154038926Y-127254464D02*
X151821309Y-129897317D01*
X154038926Y-127254464D02*
X155292362Y-125760677D01*
X157961074Y-130545536D02*
X156707638Y-132039323D01*
X157961074Y-130545536D02*
X159214510Y-129051750D01*
%TO.C,C2*%
X194694862Y-120353838D02*
X195538019Y-119149684D01*
X195538019Y-119149684D02*
X193666257Y-117839062D01*
X192823100Y-119043216D02*
X194694862Y-120353838D01*
%TO.C,FB3*%
X129618954Y-116479869D02*
X129799680Y-116264488D01*
X130400320Y-117135512D02*
X130581046Y-116920131D01*
%TO.C,FB6*%
X141568504Y-127613628D02*
X141749230Y-127398247D01*
X142349870Y-128269271D02*
X142530596Y-128053890D01*
%TO.C,R1*%
X195705138Y-114346162D02*
X194861981Y-115550316D01*
X194861981Y-115550316D02*
X196733743Y-116860938D01*
X197576900Y-115656784D02*
X195705138Y-114346162D01*
%TO.C,R5*%
X153297268Y-126111971D02*
X152992255Y-126475472D01*
X152496751Y-125440258D02*
X152191738Y-125803759D01*
%TO.C,C5*%
X131179869Y-114481046D02*
X130964488Y-114300320D01*
X131835512Y-113699680D02*
X131620131Y-113518954D01*
%TO.C,D2*%
X201712525Y-117742305D02*
X200152398Y-119970398D01*
X201712525Y-117742305D02*
X205857435Y-120644601D01*
X200152398Y-119970398D02*
X204297307Y-122872695D01*
%TO.C,FB1*%
X151834064Y-136387522D02*
X152014790Y-136172141D01*
X152615430Y-137043165D02*
X152796156Y-136827784D01*
%TO.C,FB5*%
X143280774Y-129050388D02*
X143461500Y-128835007D01*
X144062140Y-129706031D02*
X144242866Y-129490650D01*
%TO.C,D5*%
X196591543Y-125373452D02*
X195031416Y-127601545D01*
X196591543Y-125373452D02*
X200736453Y-128275748D01*
X195031416Y-127601545D02*
X199176325Y-130503842D01*
%TO.C,U2*%
X132438926Y-107854464D02*
X130221309Y-110497317D01*
X132438926Y-107854464D02*
X133692362Y-106360677D01*
X136361074Y-111145536D02*
X135107638Y-112639323D01*
X136361074Y-111145536D02*
X137614510Y-109651750D01*
%TO.C,U3*%
X146838926Y-120754464D02*
X144621309Y-123397317D01*
X146838926Y-120754464D02*
X148092362Y-119260677D01*
X150761074Y-124045536D02*
X149507638Y-125539323D01*
X150761074Y-124045536D02*
X152014510Y-122551750D01*
%TO.C,C7*%
X145314513Y-126772549D02*
X145099132Y-126591823D01*
X145970156Y-125991183D02*
X145754775Y-125810457D01*
D14*
%TO.C,J1*%
X154416831Y-160710000D02*
X195730031Y-160710000D01*
X154430231Y-160710000D02*
X154430231Y-155661700D01*
X154430231Y-155661700D02*
X195743431Y-155661700D01*
X195743431Y-155661700D02*
X195743431Y-160710000D01*
X152893300Y-59408300D02*
X152893300Y-54391700D01*
X194206500Y-59408300D02*
X152893300Y-59408300D01*
X194206500Y-54391700D02*
X194206500Y-59408300D01*
X194206500Y-54391700D02*
X152893300Y-54391700D01*
D13*
%TO.C,FB2*%
X150115533Y-134879192D02*
X150296259Y-134663811D01*
X150896899Y-135534835D02*
X151077625Y-135319454D01*
%TO.C,FB8*%
X135431979Y-121922599D02*
X135612705Y-121707218D01*
X136213345Y-122578242D02*
X136394071Y-122362861D01*
%TO.C,R4*%
X138852765Y-113054106D02*
X138547752Y-113417607D01*
X138052248Y-112382393D02*
X137747235Y-112745894D01*
%TO.C,C3*%
X153108185Y-133770710D02*
X152892804Y-133589984D01*
X153763828Y-132989344D02*
X153548447Y-132808618D01*
%TO.C,FB7*%
X137092138Y-123381943D02*
X137272864Y-123166562D01*
X137873504Y-124037586D02*
X138054230Y-123822205D01*
%TO.C,D7*%
X180763815Y-93840003D02*
X178043815Y-93840003D01*
X180763815Y-93840003D02*
X180763815Y-98900003D01*
X178043815Y-93840003D02*
X178043815Y-98900003D01*
%TO.C,R2*%
X194505138Y-115846162D02*
X193661981Y-117050316D01*
X193661981Y-117050316D02*
X195533743Y-118360938D01*
X196376900Y-117156784D02*
X194505138Y-115846162D01*
%TD*%
M02*
