%TF.GenerationSoftware,KiCad,Pcbnew,7.0.7*%
%TF.CreationDate,2024-03-26T09:21:42-07:00*%
%TF.ProjectId,Connector-board,436f6e6e-6563-4746-9f72-2d626f617264,rev?*%
%TF.SameCoordinates,Original*%
%TF.FileFunction,Paste,Top*%
%TF.FilePolarity,Positive*%
%FSLAX46Y46*%
G04 Gerber Fmt 4.6, Leading zero omitted, Abs format (unit mm)*
G04 Created by KiCad (PCBNEW 7.0.7) date 2024-03-26 09:21:42*
%MOMM*%
%LPD*%
G01*
G04 APERTURE LIST*
G04 Aperture macros list*
%AMRoundRect*
0 Rectangle with rounded corners*
0 $1 Rounding radius*
0 $2 $3 $4 $5 $6 $7 $8 $9 X,Y pos of 4 corners*
0 Add a 4 corners polygon primitive as box body*
4,1,4,$2,$3,$4,$5,$6,$7,$8,$9,$2,$3,0*
0 Add four circle primitives for the rounded corners*
1,1,$1+$1,$2,$3*
1,1,$1+$1,$4,$5*
1,1,$1+$1,$6,$7*
1,1,$1+$1,$8,$9*
0 Add four rect primitives between the rounded corners*
20,1,$1+$1,$2,$3,$4,$5,0*
20,1,$1+$1,$4,$5,$6,$7,0*
20,1,$1+$1,$6,$7,$8,$9,0*
20,1,$1+$1,$8,$9,$2,$3,0*%
G04 Aperture macros list end*
%ADD10RoundRect,0.225000X-0.046884X0.333057X-0.336138X-0.011663X0.046884X-0.333057X0.336138X0.011663X0*%
%ADD11RoundRect,0.225000X0.333057X0.046884X-0.011663X0.336138X-0.333057X-0.046884X0.011663X-0.336138X0*%
%ADD12RoundRect,0.150000X-0.415393X-0.728405X0.645206X0.535569X0.415393X0.728405X-0.645206X-0.535569X0*%
%ADD13RoundRect,0.250000X-0.827480X-0.397212X-0.090243X-0.913431X0.827480X0.397212X0.090243X0.913431X0*%
%ADD14RoundRect,0.250000X-0.397212X0.827480X-0.913431X0.090243X0.397212X-0.827480X0.913431X-0.090243X0*%
%ADD15RoundRect,0.200000X-0.082105X0.329975X-0.339220X0.023558X0.082105X-0.329975X0.339220X-0.023558X0*%
%ADD16RoundRect,0.218750X0.326168X0.084438X-0.032211X0.335378X-0.326168X-0.084438X0.032211X-0.335378X0*%
%ADD17RoundRect,0.225000X0.046884X-0.333057X0.336138X0.011663X-0.046884X0.333057X-0.336138X-0.011663X0*%
%ADD18RoundRect,0.250000X-0.800000X0.450000X-0.800000X-0.450000X0.800000X-0.450000X0.800000X0.450000X0*%
%ADD19RoundRect,0.218750X-0.326168X-0.084438X0.032211X-0.335378X0.326168X0.084438X-0.032211X0.335378X0*%
G04 APERTURE END LIST*
D10*
%TO.C,C10*%
X142526520Y-121268994D03*
X141530200Y-122456362D03*
%TD*%
D11*
%TO.C,C9*%
X139028312Y-120389665D03*
X137840944Y-119393345D03*
%TD*%
D12*
%TO.C,U4*%
X138649786Y-116671450D03*
X139622662Y-117487790D03*
X140595539Y-118304130D03*
X141568415Y-119120470D03*
X144750214Y-115328550D03*
X143777338Y-114512210D03*
X142804461Y-113695870D03*
X141831585Y-112879530D03*
%TD*%
D13*
%TO.C,D4*%
X199497866Y-123038132D03*
X203102134Y-125561868D03*
%TD*%
D10*
%TO.C,C4*%
X156916508Y-134061740D03*
X155920188Y-135249108D03*
%TD*%
D14*
%TO.C,D6*%
X190561868Y-120997866D03*
X188038132Y-124602134D03*
%TD*%
D10*
%TO.C,C8*%
X149218355Y-128155443D03*
X148222035Y-129342811D03*
%TD*%
D15*
%TO.C,R3*%
X160421798Y-131533369D03*
X159361198Y-132797343D03*
%TD*%
D13*
%TO.C,D1*%
X204218023Y-115663447D03*
X207822291Y-118187183D03*
%TD*%
D14*
%TO.C,D3*%
X194161868Y-123197866D03*
X191638132Y-126802134D03*
%TD*%
D16*
%TO.C,C1*%
X198345082Y-114351691D03*
X197054918Y-113448309D03*
%TD*%
D15*
%TO.C,R6*%
X146121802Y-118633371D03*
X145061202Y-119897345D03*
%TD*%
D17*
%TO.C,FB4*%
X128001840Y-116093684D03*
X128998160Y-114906316D03*
%TD*%
D18*
%TO.C,D8*%
X175353813Y-94800000D03*
X175353813Y-99200000D03*
%TD*%
D10*
%TO.C,C6*%
X136498160Y-115106316D03*
X135501840Y-116293684D03*
%TD*%
D12*
%TO.C,U1*%
X152949786Y-129571450D03*
X153922662Y-130387790D03*
X154895539Y-131204130D03*
X155868415Y-132020470D03*
X159050214Y-128228550D03*
X158077338Y-127412210D03*
X157104461Y-126595870D03*
X156131585Y-125779530D03*
%TD*%
D16*
%TO.C,C2*%
X194545082Y-119351691D03*
X193254918Y-118448309D03*
%TD*%
D17*
%TO.C,FB3*%
X129601840Y-117293684D03*
X130598160Y-116106316D03*
%TD*%
%TO.C,FB6*%
X141551390Y-128427443D03*
X142547710Y-127240075D03*
%TD*%
D19*
%TO.C,R1*%
X195854918Y-115348309D03*
X197145082Y-116251691D03*
%TD*%
D15*
%TO.C,R5*%
X153274803Y-125325878D03*
X152214203Y-126589852D03*
%TD*%
D11*
%TO.C,C5*%
X131993684Y-114498160D03*
X130806316Y-113501840D03*
%TD*%
D13*
%TO.C,D2*%
X201718848Y-119406985D03*
X205323116Y-121930721D03*
%TD*%
D17*
%TO.C,FB1*%
X151816950Y-137201337D03*
X152813270Y-136013969D03*
%TD*%
%TO.C,FB5*%
X143263660Y-129864203D03*
X144259980Y-128676835D03*
%TD*%
D13*
%TO.C,D5*%
X196597866Y-127038132D03*
X200202134Y-129561868D03*
%TD*%
D12*
%TO.C,U2*%
X131349786Y-110171450D03*
X132322662Y-110987790D03*
X133295539Y-111804130D03*
X134268415Y-112620470D03*
X137450214Y-108828550D03*
X136477338Y-108012210D03*
X135504461Y-107195870D03*
X134531585Y-106379530D03*
%TD*%
%TO.C,U3*%
X145749786Y-123071450D03*
X146722662Y-123887790D03*
X147695539Y-124704130D03*
X148668415Y-125520470D03*
X151850214Y-121728550D03*
X150877338Y-120912210D03*
X149904461Y-120095870D03*
X148931585Y-119279530D03*
%TD*%
D11*
%TO.C,C7*%
X146128328Y-126789663D03*
X144940960Y-125793343D03*
%TD*%
D17*
%TO.C,FB2*%
X150098419Y-135693007D03*
X151094739Y-134505639D03*
%TD*%
%TO.C,FB8*%
X135414865Y-122736414D03*
X136411185Y-121549046D03*
%TD*%
D15*
%TO.C,R4*%
X138830300Y-112268013D03*
X137769700Y-113531987D03*
%TD*%
D11*
%TO.C,C3*%
X153922000Y-133787824D03*
X152734632Y-132791504D03*
%TD*%
D17*
%TO.C,FB7*%
X137075024Y-124195758D03*
X138071344Y-123008390D03*
%TD*%
D18*
%TO.C,D7*%
X179403815Y-94800003D03*
X179403815Y-99200003D03*
%TD*%
D19*
%TO.C,R2*%
X194654918Y-116848309D03*
X195945082Y-117751691D03*
%TD*%
M02*
