%TF.GenerationSoftware,KiCad,Pcbnew,7.0.7*%
%TF.CreationDate,2024-03-26T09:21:43-07:00*%
%TF.ProjectId,Connector-board,436f6e6e-6563-4746-9f72-2d626f617264,rev?*%
%TF.SameCoordinates,Original*%
%TF.FileFunction,Soldermask,Bot*%
%TF.FilePolarity,Negative*%
%FSLAX46Y46*%
G04 Gerber Fmt 4.6, Leading zero omitted, Abs format (unit mm)*
G04 Created by KiCad (PCBNEW 7.0.7) date 2024-03-26 09:21:43*
%MOMM*%
%LPD*%
G01*
G04 APERTURE LIST*
G04 Aperture macros list*
%AMRotRect*
0 Rectangle, with rotation*
0 The origin of the aperture is its center*
0 $1 length*
0 $2 width*
0 $3 Rotation angle, in degrees counterclockwise*
0 Add horizontal line*
21,1,$1,$2,0,0,$3*%
G04 Aperture macros list end*
%ADD10C,4.000000*%
%ADD11RotRect,1.600000X1.600000X115.000000*%
%ADD12C,1.600000*%
%ADD13C,1.371600*%
%ADD14RotRect,1.600000X1.600000X315.000000*%
%ADD15RotRect,1.600000X1.600000X55.000000*%
%ADD16RotRect,1.600000X1.600000X230.000000*%
G04 APERTURE END LIST*
D10*
%TO.C,PT_DSUB1*%
X222383093Y-106381776D03*
X202477772Y-63694679D03*
D11*
X206693474Y-69375274D03*
D12*
X207864127Y-71885747D03*
X209034779Y-74396219D03*
X210205432Y-76906692D03*
X211376084Y-79417164D03*
X212546737Y-81927637D03*
X213717390Y-84438109D03*
X214888042Y-86948582D03*
X216058695Y-89459055D03*
X217229347Y-91969527D03*
X218400000Y-94480000D03*
X219570652Y-96990472D03*
X220741305Y-99500945D03*
X204704886Y-71830746D03*
X205875539Y-74341219D03*
X207046191Y-76851691D03*
X208216844Y-79362164D03*
X209387497Y-81872636D03*
X210558149Y-84383109D03*
X211728802Y-86893582D03*
X212899454Y-89404054D03*
X214070107Y-91914527D03*
X215240759Y-94424999D03*
X216411412Y-96935472D03*
X217582065Y-99445944D03*
%TD*%
D13*
%TO.C,J1*%
X156086831Y-159170000D03*
X156086831Y-157170000D03*
X158086831Y-159170000D03*
X158086831Y-157170000D03*
X160086831Y-159170000D03*
X160086831Y-157170000D03*
X162086831Y-159170000D03*
X162086831Y-157170000D03*
X164086831Y-159170000D03*
X164086831Y-157170000D03*
X166086831Y-159170000D03*
X166086831Y-157170000D03*
X168086831Y-159170000D03*
X168086831Y-157170000D03*
X170086831Y-159170000D03*
X170086831Y-157170000D03*
X172086831Y-159170000D03*
X172086831Y-157170000D03*
X174086831Y-159170000D03*
X174086831Y-157170000D03*
X176086831Y-159170000D03*
X176086831Y-157170000D03*
X178086831Y-159170000D03*
X178086831Y-157170000D03*
X180086831Y-159170000D03*
X180086831Y-157170000D03*
X182086831Y-159170000D03*
X182086831Y-157170000D03*
X184086831Y-159170000D03*
X184086831Y-157170000D03*
X186086831Y-159170000D03*
X186086831Y-157170000D03*
X188086731Y-159170000D03*
X188086731Y-157170000D03*
X190086731Y-159170000D03*
X190086731Y-157170000D03*
X192086731Y-159170000D03*
X192086731Y-157170000D03*
X194086731Y-159170000D03*
X194086731Y-157170000D03*
X154550000Y-57900000D03*
X154550000Y-55900000D03*
X156550000Y-57900000D03*
X156550000Y-55900000D03*
X158550000Y-57900000D03*
X158550000Y-55900000D03*
X160550000Y-57900000D03*
X160550000Y-55900000D03*
X162549900Y-57900000D03*
X162549900Y-55900000D03*
X164549900Y-57900000D03*
X164549900Y-55900000D03*
X166549900Y-57900000D03*
X166549900Y-55900000D03*
X168549900Y-57900000D03*
X168549900Y-55900000D03*
X170549900Y-57900000D03*
X170549900Y-55900000D03*
X172549900Y-57900000D03*
X172549900Y-55900000D03*
X174549900Y-57900000D03*
X174549900Y-55900000D03*
X176549900Y-57900000D03*
X176549900Y-55900000D03*
X178549900Y-57900000D03*
X178549900Y-55900000D03*
X180549900Y-57900000D03*
X180549900Y-55900000D03*
X182549900Y-57900000D03*
X182549900Y-55900000D03*
X184549900Y-57900000D03*
X184549900Y-55900000D03*
X186549900Y-57900000D03*
X186549900Y-55900000D03*
X188549900Y-57900000D03*
X188549900Y-55900000D03*
X190549900Y-57900000D03*
X190549900Y-55900000D03*
X192549900Y-57900000D03*
X192549900Y-55900000D03*
%TD*%
D10*
%TO.C,4TC_DSUB1*%
X122764701Y-126571772D03*
X140442371Y-144249442D03*
D14*
X134516816Y-140332070D03*
D12*
X132558130Y-138373384D03*
X130599444Y-136414698D03*
X128640759Y-134456013D03*
X126682073Y-132497327D03*
X135545656Y-137344544D03*
X133586971Y-135385858D03*
X131628285Y-133427172D03*
X129669599Y-131468486D03*
%TD*%
D10*
%TO.C,GND_DSUB1*%
X201425933Y-151566082D03*
X220526028Y-124288319D03*
D15*
X217700000Y-130800000D03*
D12*
X216111193Y-133069051D03*
X214522387Y-135338102D03*
X212933580Y-137607153D03*
X211344773Y-139876205D03*
X209755966Y-142145256D03*
X208167160Y-144414307D03*
X206578353Y-146683358D03*
X214579205Y-130305569D03*
X212990398Y-132574620D03*
X211401591Y-134843671D03*
X209812785Y-137112722D03*
X208223978Y-139381773D03*
X206635171Y-141650824D03*
X205046364Y-143919875D03*
%TD*%
D10*
%TO.C,SOLENOIDS_DSUB1*%
X138924588Y-69728891D03*
X122854897Y-88880002D03*
D16*
X126240916Y-82635574D03*
D12*
X128021438Y-80513631D03*
X129801959Y-78391688D03*
X131582481Y-76269745D03*
X133363003Y-74147802D03*
X129306743Y-83400119D03*
X131087265Y-81278176D03*
X132867786Y-79156233D03*
X134648308Y-77034290D03*
%TD*%
M02*
