M48
; DRILL file {KiCad 7.0.7} date 2024 March 26, Tuesday 09:21:39
; FORMAT={-:-/ absolute / inch / decimal}
; #@! TF.CreationDate,2024-03-26T09:21:39-07:00
; #@! TF.GenerationSoftware,Kicad,Pcbnew,7.0.7
; #@! TF.FileFunction,Plated,1,4,PTH
FMAT,2
INCH
; #@! TA.AperFunction,Plated,PTH,ViaDrill
T1C0.0120
; #@! TA.AperFunction,Plated,PTH,ComponentDrill
T2C0.0360
; #@! TA.AperFunction,Plated,PTH,ComponentDrill
T3C0.0394
; #@! TA.AperFunction,Plated,PTH,ComponentDrill
T4C0.1260
%
G90
G05
T1
X5.0484Y-4.3697
X5.2984Y-4.6447
X5.3734Y-4.6697
X5.3898Y-4.1299
X5.4528Y-2.2717
X5.5234Y-4.8947
X5.6234Y-4.8697
X5.6693Y-4.4291
X5.7898Y-3.8386
X5.7984Y-5.1697
X5.8188Y-3.7662
X5.9094Y-2.2913
X5.9234Y-5.1947
X5.9331Y-4.6575
X6.0984Y-5.3697
X6.2008Y-2.1024
X6.2362Y-2.3701
X6.2388Y-4.953
X6.2598Y-2.1299
X6.2913Y-2.0802
X6.374Y-2.0802
X6.4173Y-2.3583
X6.4606Y-2.0866
X6.7402Y-2.122
X6.7734Y-3.9447
X6.7984Y-2.7197
X7.0118Y-2.126
X7.0984Y-2.8197
X7.1984Y-3.9697
X7.3583Y-2.0236
X7.3984Y-3.0447
X7.5984Y-3.1447
X7.7677Y-4.8268
X7.7734Y-4.6447
X7.8234Y-4.5947
X7.8898Y-4.6732
T2
X6.0846Y-2.2008
X6.0846Y-2.2795
X6.1452Y-6.1878
X6.1452Y-6.2665
X6.1634Y-2.2008
X6.1634Y-2.2795
X6.2239Y-6.1878
X6.2239Y-6.2665
X6.2421Y-2.2008
X6.2421Y-2.2795
X6.3026Y-6.1878
X6.3026Y-6.2665
X6.3209Y-2.2008
X6.3209Y-2.2795
X6.3814Y-6.1878
X6.3814Y-6.2665
X6.3996Y-2.2008
X6.3996Y-2.2795
X6.4601Y-6.1878
X6.4601Y-6.2665
X6.4783Y-2.2008
X6.4783Y-2.2795
X6.5389Y-6.1878
X6.5389Y-6.2665
X6.5571Y-2.2008
X6.5571Y-2.2795
X6.6176Y-6.1878
X6.6176Y-6.2665
X6.6358Y-2.2008
X6.6358Y-2.2795
X6.6963Y-6.1878
X6.6963Y-6.2665
X6.7146Y-2.2008
X6.7146Y-2.2795
X6.7751Y-6.1878
X6.7751Y-6.2665
X6.7933Y-2.2008
X6.7933Y-2.2795
X6.8538Y-6.1878
X6.8538Y-6.2665
X6.872Y-2.2008
X6.872Y-2.2795
X6.9326Y-6.1878
X6.9326Y-6.2665
X6.9508Y-2.2008
X6.9508Y-2.2795
X7.0113Y-6.1878
X7.0113Y-6.2665
X7.0295Y-2.2008
X7.0295Y-2.2795
X7.09Y-6.1878
X7.09Y-6.2665
X7.1083Y-2.2008
X7.1083Y-2.2795
X7.1688Y-6.1878
X7.1688Y-6.2665
X7.187Y-2.2008
X7.187Y-2.2795
X7.2475Y-6.1878
X7.2475Y-6.2665
X7.2657Y-2.2008
X7.2657Y-2.2795
X7.3263Y-6.1878
X7.3263Y-6.2665
X7.3445Y-2.2008
X7.3445Y-2.2795
X7.405Y-6.1878
X7.405Y-6.2665
X7.4232Y-2.2008
X7.4232Y-2.2795
X7.4837Y-6.1878
X7.4837Y-6.2665
X7.502Y-2.2008
X7.502Y-2.2795
X7.5625Y-6.1878
X7.5625Y-6.2665
X7.5807Y-2.2008
X7.5807Y-2.2795
X7.6412Y-6.1878
X7.6412Y-6.2665
T3
X4.9701Y-3.2534
X4.9875Y-5.2164
X5.0402Y-3.1698
X5.0646Y-5.2935
X5.0908Y-3.2835
X5.1051Y-5.1759
X5.1103Y-3.0863
X5.1417Y-5.3707
X5.1609Y-3.1999
X5.1804Y-3.0027
X5.1822Y-5.253
X5.2188Y-5.4478
X5.231Y-3.1164
X5.2505Y-2.9192
X5.2593Y-5.3302
X5.2959Y-5.5249
X5.3011Y-3.0328
X5.3364Y-5.4073
X8.0592Y-2.828
X8.0727Y-5.6661
X8.1053Y-2.9268
X8.133Y-5.7749
X8.1352Y-5.5768
X8.1375Y-2.7313
X8.1514Y-3.0257
X8.1836Y-2.8301
X8.1956Y-5.6856
X8.1975Y-3.1245
X8.1978Y-5.4875
X8.2297Y-2.929
X8.2436Y-3.2233
X8.2581Y-5.5963
X8.2603Y-5.3981
X8.2758Y-3.0278
X8.2897Y-3.3222
X8.3207Y-5.5069
X8.3219Y-3.1267
X8.3229Y-5.3088
X8.3358Y-3.421
X8.368Y-3.2255
X8.3819Y-3.5198
X8.3832Y-5.4176
X8.3854Y-5.2195
X8.4141Y-3.3243
X8.428Y-3.6187
X8.4458Y-5.3283
X8.448Y-5.1301
X8.4602Y-3.4232
X8.474Y-3.7175
X8.5062Y-3.522
X8.5083Y-5.2389
X8.5201Y-3.8164
X8.5523Y-3.6208
X8.5662Y-3.9152
X8.5709Y-5.1496
X8.5984Y-3.7197
X8.6445Y-3.8185
X8.6906Y-3.9174
T4
X4.8333Y-4.9831
X4.8368Y-3.4992
X5.4695Y-2.7452
X5.5292Y-5.6791
X7.9302Y-5.9672
X7.9716Y-2.5077
X8.6821Y-4.8932
X8.7552Y-4.1883
T0
M30
