%TF.GenerationSoftware,KiCad,Pcbnew,7.0.7*%
%TF.CreationDate,2023-09-27T23:09:15-07:00*%
%TF.ProjectId,TC-board,54432d62-6f61-4726-942e-6b696361645f,rev?*%
%TF.SameCoordinates,Original*%
%TF.FileFunction,Copper,L1,Top*%
%TF.FilePolarity,Positive*%
%FSLAX46Y46*%
G04 Gerber Fmt 4.6, Leading zero omitted, Abs format (unit mm)*
G04 Created by KiCad (PCBNEW 7.0.7) date 2023-09-27 23:09:15*
%MOMM*%
%LPD*%
G01*
G04 APERTURE LIST*
G04 Aperture macros list*
%AMFreePoly0*
4,1,6,1.000000,0.000000,0.500000,-0.750000,-0.500000,-0.750000,-0.500000,0.750000,0.500000,0.750000,1.000000,0.000000,1.000000,0.000000,$1*%
%AMFreePoly1*
4,1,7,0.700000,0.000000,1.200000,-0.750000,-1.200000,-0.750000,-0.700000,0.000000,-1.200000,0.750000,1.200000,0.750000,0.700000,0.000000,0.700000,0.000000,$1*%
%AMFreePoly2*
4,1,6,0.500000,-0.750000,-0.650000,-0.750000,-0.150000,0.000000,-0.650000,0.750000,0.500000,0.750000,0.500000,-0.750000,0.500000,-0.750000,$1*%
G04 Aperture macros list end*
%TA.AperFunction,ConnectorPad*%
%ADD10R,0.700000X4.300000*%
%TD*%
%TA.AperFunction,ConnectorPad*%
%ADD11R,0.700000X3.200000*%
%TD*%
%TA.AperFunction,SMDPad,CuDef*%
%ADD12FreePoly0,0.000000*%
%TD*%
%TA.AperFunction,SMDPad,CuDef*%
%ADD13FreePoly1,0.000000*%
%TD*%
%TA.AperFunction,SMDPad,CuDef*%
%ADD14FreePoly0,180.000000*%
%TD*%
%TA.AperFunction,ComponentPad*%
%ADD15C,4.000000*%
%TD*%
%TA.AperFunction,ComponentPad*%
%ADD16R,1.600000X1.600000*%
%TD*%
%TA.AperFunction,ComponentPad*%
%ADD17C,1.600000*%
%TD*%
%TA.AperFunction,SMDPad,CuDef*%
%ADD18FreePoly2,180.000000*%
%TD*%
%TA.AperFunction,ComponentPad*%
%ADD19C,1.524000*%
%TD*%
%TA.AperFunction,ComponentPad*%
%ADD20R,1.778000X1.778000*%
%TD*%
%TA.AperFunction,ComponentPad*%
%ADD21C,1.778000*%
%TD*%
%TA.AperFunction,ComponentPad*%
%ADD22R,1.000000X1.000000*%
%TD*%
%TA.AperFunction,ComponentPad*%
%ADD23O,1.000000X1.000000*%
%TD*%
%TA.AperFunction,ViaPad*%
%ADD24C,0.711200*%
%TD*%
%TA.AperFunction,Conductor*%
%ADD25C,0.508000*%
%TD*%
%TA.AperFunction,Conductor*%
%ADD26C,0.200000*%
%TD*%
%TA.AperFunction,Conductor*%
%ADD27C,0.254000*%
%TD*%
%TA.AperFunction,Conductor*%
%ADD28C,0.203200*%
%TD*%
G04 APERTURE END LIST*
D10*
%TO.P,J2,B1,B1*%
%TO.N,/SPI0_SCK*%
X145034000Y-106680000D03*
%TO.P,J2,B2,B2*%
%TO.N,/SPI0_MISO*%
X146034000Y-106680000D03*
%TO.P,J2,B3,B3*%
%TO.N,GND*%
X147034000Y-106680000D03*
%TO.P,J2,B4,B4*%
%TO.N,unconnected-(J2-PadB4)*%
X148034000Y-106680000D03*
%TO.P,J2,B5,B5*%
%TO.N,unconnected-(J2-PadB5)*%
X149034000Y-106680000D03*
%TO.P,J2,B6,B6*%
%TO.N,unconnected-(J2-PadB6)*%
X150034000Y-106680000D03*
%TO.P,J2,B7,B7*%
%TO.N,unconnected-(J2-PadB7)*%
X151034000Y-106680000D03*
%TO.P,J2,B8,B8*%
%TO.N,unconnected-(J2-PadB8)*%
X152034000Y-106680000D03*
%TO.P,J2,B9,B9*%
%TO.N,/CS1*%
X153034000Y-106680000D03*
%TO.P,J2,B10,B10*%
%TO.N,/CS2*%
X154034000Y-106680000D03*
%TO.P,J2,B11,B11*%
%TO.N,/CS3*%
X155034000Y-106680000D03*
%TO.P,J2,B12,B12*%
%TO.N,GND*%
X158034000Y-106680000D03*
%TO.P,J2,B13,B13*%
%TO.N,+3.3V*%
X159034000Y-106680000D03*
%TO.P,J2,B14,B14*%
X160034000Y-106680000D03*
%TO.P,J2,B15,B15*%
%TO.N,GND*%
X161034000Y-106680000D03*
%TO.P,J2,B16,B16*%
%TO.N,unconnected-(J2-PadB16)*%
X162034000Y-106680000D03*
D11*
%TO.P,J2,B17,B17*%
%TO.N,unconnected-(J2-PadB17)*%
X163034000Y-106130000D03*
D10*
%TO.P,J2,B18,B18*%
%TO.N,unconnected-(J2-PadB18)*%
X164034000Y-106680000D03*
%TD*%
D12*
%TO.P,JP2,1,A*%
%TO.N,/TC2_CS*%
X155600000Y-79300000D03*
D13*
%TO.P,JP2,2,C*%
%TO.N,/CS2*%
X157600000Y-79300000D03*
D14*
%TO.P,JP2,3,B*%
%TO.N,/TC4_CS*%
X159600000Y-79300000D03*
%TD*%
D15*
%TO.P,J1,0*%
%TO.N,N/C*%
X139098000Y-47666331D03*
X105798000Y-47666331D03*
D16*
%TO.P,J1,1,1*%
%TO.N,/TC1_T-*%
X112753000Y-49086331D03*
D17*
%TO.P,J1,2,2*%
%TO.N,/TC2_T-*%
X115523000Y-49086331D03*
%TO.P,J1,3,3*%
%TO.N,/TC3_T-*%
X118293000Y-49086331D03*
%TO.P,J1,4,4*%
%TO.N,/TC4_T-*%
X121063000Y-49086331D03*
%TO.P,J1,5,5*%
%TO.N,unconnected-(J1-Pad5)*%
X123833000Y-49086331D03*
%TO.P,J1,6,6*%
%TO.N,unconnected-(J1-Pad6)*%
X126603000Y-49086331D03*
%TO.P,J1,7,7*%
%TO.N,unconnected-(J1-Pad7)*%
X129373000Y-49086331D03*
%TO.P,J1,8,8*%
%TO.N,unconnected-(J1-Pad8)*%
X132143000Y-49086331D03*
%TO.P,J1,9,P9*%
%TO.N,/TC1_T+*%
X114138000Y-46246331D03*
%TO.P,J1,10,P10*%
%TO.N,/TC2_T+*%
X116908000Y-46246331D03*
%TO.P,J1,11,P111*%
%TO.N,/TC3_T+*%
X119678000Y-46246331D03*
%TO.P,J1,12,P12*%
%TO.N,/TC4_T+*%
X122448000Y-46246331D03*
%TO.P,J1,13,P13*%
%TO.N,unconnected-(J1-Pad13)*%
X125218000Y-46246331D03*
%TO.P,J1,14,P14*%
%TO.N,unconnected-(J1-Pad14)*%
X127988000Y-46246331D03*
%TO.P,J1,15,P15*%
%TO.N,unconnected-(J1-Pad15)*%
X130758000Y-46246331D03*
%TD*%
D12*
%TO.P,JP1,1,A*%
%TO.N,/TC1_CS*%
X156900000Y-65800000D03*
D13*
%TO.P,JP1,2,C*%
%TO.N,/CS1*%
X158900000Y-65800000D03*
D14*
%TO.P,JP1,3,B*%
%TO.N,/TC4_CS*%
X160900000Y-65800000D03*
%TD*%
D12*
%TO.P,JP3,1,A*%
%TO.N,/TC3_CS*%
X156500000Y-55900000D03*
D13*
%TO.P,JP3,2,C*%
%TO.N,/CS3*%
X158500000Y-55900000D03*
D14*
%TO.P,JP3,3,B*%
%TO.N,/TC4_CS*%
X160500000Y-55900000D03*
%TD*%
%TO.P,JP4,1,A*%
%TO.N,/TC4_CS*%
X160825000Y-72400000D03*
D18*
%TO.P,JP4,2,B*%
%TO.N,/CS4*%
X159375000Y-72400000D03*
%TD*%
D19*
%TO.P,A2,1,GND*%
%TO.N,GND*%
X132587000Y-65532000D03*
D20*
%TO.P,A2,2,T-*%
%TO.N,/TC2_T-*%
X149607260Y-65023460D03*
D21*
%TO.P,A2,3,T+*%
%TO.N,/TC2_T+*%
X149607260Y-68579460D03*
D19*
%TO.P,A2,4,VIN*%
%TO.N,+3.3V*%
X132587000Y-60452000D03*
%TO.P,A2,5,SCK*%
%TO.N,/SPI1_SCK*%
X132587000Y-73152000D03*
%TO.P,A2,6,CS*%
%TO.N,/TC2_CS*%
X132587000Y-70612000D03*
%TO.P,A2,7,SDO*%
%TO.N,/SPI1_MISO*%
X132587000Y-68072000D03*
%TO.P,A2,8,3V0*%
%TO.N,unconnected-(A2-Pad8)*%
X132587000Y-62992000D03*
%TD*%
D22*
%TO.P,J3,1,Pin_1*%
%TO.N,/TC1_T-*%
X113660000Y-53848000D03*
D23*
%TO.P,J3,2,Pin_2*%
%TO.N,/TC1_T+*%
X114930000Y-53848000D03*
%TO.P,J3,3,Pin_3*%
%TO.N,/TC2_T-*%
X116200000Y-53848000D03*
%TO.P,J3,4,Pin_4*%
%TO.N,/TC2_T+*%
X117470000Y-53848000D03*
%TO.P,J3,5,Pin_5*%
%TO.N,/TC3_T-*%
X118740000Y-53848000D03*
%TO.P,J3,6,Pin_6*%
%TO.N,/TC3_T+*%
X120010000Y-53848000D03*
%TO.P,J3,7,Pin_7*%
%TO.N,/TC4_T-*%
X121280000Y-53848000D03*
%TO.P,J3,8,Pin_8*%
%TO.N,/TC4_T+*%
X122550000Y-53848000D03*
%TD*%
D22*
%TO.P,J4,1,Pin_1*%
%TO.N,/SPI0_SCK*%
X158130000Y-91900000D03*
D23*
%TO.P,J4,2,Pin_2*%
%TO.N,/SPI0_MISO*%
X159400000Y-91900000D03*
%TD*%
D19*
%TO.P,A1,1,GND*%
%TO.N,GND*%
X106933000Y-65786000D03*
D20*
%TO.P,A1,2,T-*%
%TO.N,/TC1_T-*%
X123953260Y-65277460D03*
D21*
%TO.P,A1,3,T+*%
%TO.N,/TC1_T+*%
X123953260Y-68833460D03*
D19*
%TO.P,A1,4,VIN*%
%TO.N,+3.3V*%
X106933000Y-60706000D03*
%TO.P,A1,5,SCK*%
%TO.N,/SPI1_SCK*%
X106933000Y-73406000D03*
%TO.P,A1,6,CS*%
%TO.N,/TC1_CS*%
X106933000Y-70866000D03*
%TO.P,A1,7,SDO*%
%TO.N,/SPI1_MISO*%
X106933000Y-68326000D03*
%TO.P,A1,8,3V0*%
%TO.N,unconnected-(A1-Pad8)*%
X106933000Y-63246000D03*
%TD*%
%TO.P,A3,1,GND*%
%TO.N,GND*%
X106679000Y-87884000D03*
D20*
%TO.P,A3,2,T-*%
%TO.N,/TC3_T-*%
X123699260Y-87375460D03*
D21*
%TO.P,A3,3,T+*%
%TO.N,/TC3_T+*%
X123699260Y-90931460D03*
D19*
%TO.P,A3,4,VIN*%
%TO.N,+3.3V*%
X106679000Y-82804000D03*
%TO.P,A3,5,SCK*%
%TO.N,/SPI1_SCK*%
X106679000Y-95504000D03*
%TO.P,A3,6,CS*%
%TO.N,/TC3_CS*%
X106679000Y-92964000D03*
%TO.P,A3,7,SDO*%
%TO.N,/SPI1_MISO*%
X106679000Y-90424000D03*
%TO.P,A3,8,3V0*%
%TO.N,unconnected-(A3-Pad8)*%
X106679000Y-85344000D03*
%TD*%
D22*
%TO.P,J5,1,Pin_1*%
%TO.N,/SPI1_SCK*%
X158150000Y-85900000D03*
D23*
%TO.P,J5,2,Pin_2*%
%TO.N,/SPI1_MISO*%
X159420000Y-85900000D03*
%TD*%
D19*
%TO.P,A4,1,GND*%
%TO.N,GND*%
X132333000Y-88138000D03*
D20*
%TO.P,A4,2,T-*%
%TO.N,/TC4_T-*%
X149353260Y-87629460D03*
D21*
%TO.P,A4,3,T+*%
%TO.N,/TC4_T+*%
X149353260Y-91185460D03*
D19*
%TO.P,A4,4,VIN*%
%TO.N,+3.3V*%
X132333000Y-83058000D03*
%TO.P,A4,5,SCK*%
%TO.N,/SPI0_SCK*%
X132333000Y-95758000D03*
%TO.P,A4,6,CS*%
%TO.N,/TC4_CS*%
X132333000Y-93218000D03*
%TO.P,A4,7,SDO*%
%TO.N,/SPI0_MISO*%
X132333000Y-90678000D03*
%TO.P,A4,8,3V0*%
%TO.N,unconnected-(A4-Pad8)*%
X132333000Y-85598000D03*
%TD*%
D24*
%TO.N,GND*%
X127420000Y-71470000D03*
X157440000Y-100490000D03*
X155930000Y-98790000D03*
X160678800Y-103961200D03*
X147218000Y-103838000D03*
X127370000Y-75890000D03*
X150003000Y-101053000D03*
X147050000Y-100450000D03*
%TO.N,/TC1_T+*%
X114900000Y-63500000D03*
X114900000Y-65800000D03*
%TO.N,+3.3V*%
X143480000Y-98800000D03*
X158190000Y-96480000D03*
X152140000Y-96160000D03*
X146993660Y-98903660D03*
%TO.N,/SPI1_SCK*%
X108900000Y-79700000D03*
X110600000Y-81400000D03*
%TO.N,/TC1_CS*%
X157200000Y-63100000D03*
%TO.N,/SPI1_MISO*%
X146800000Y-81600000D03*
X111400000Y-72000000D03*
X154000000Y-81500000D03*
%TO.N,/TC2_T+*%
X146500000Y-64200000D03*
X146500000Y-65800000D03*
%TO.N,/TC2_CS*%
X155800000Y-71100000D03*
%TO.N,/TC3_T-*%
X118600000Y-61100000D03*
X118600000Y-69700000D03*
%TO.N,/TC3_T+*%
X120100000Y-61400000D03*
X120100000Y-72300000D03*
%TO.N,/TC3_CS*%
X153800000Y-55900000D03*
X112800000Y-56700000D03*
X112300000Y-91900000D03*
%TO.N,/TC4_T-*%
X143500000Y-63400000D03*
X143500000Y-65800000D03*
%TO.N,/TC4_T+*%
X145200000Y-63100000D03*
X145200000Y-68800000D03*
%TO.N,/TC4_CS*%
X159420000Y-77320000D03*
X136180000Y-91700000D03*
X145530000Y-77660000D03*
%TO.N,/SPI0_MISO*%
X146034000Y-101236900D03*
X139840000Y-96910000D03*
%TO.N,/CS1*%
X152000000Y-94400000D03*
X157700000Y-76400000D03*
X152000000Y-76300000D03*
X152000000Y-90800000D03*
%TO.N,/CS2*%
X154000000Y-94000000D03*
X154000000Y-91100000D03*
X154300000Y-84600000D03*
X157600000Y-81400000D03*
%TO.N,/CS3*%
X155200000Y-94300000D03*
X155100000Y-88800000D03*
X152900000Y-88700000D03*
X155100000Y-91100000D03*
%TO.N,/CS4*%
X161800000Y-75800000D03*
X160100000Y-98500000D03*
X159400000Y-75800000D03*
%TD*%
D25*
%TO.N,GND*%
X147034000Y-106680000D02*
X147034000Y-104022000D01*
X150003000Y-101053000D02*
X151120000Y-99936000D01*
X157440000Y-100490000D02*
X157440000Y-100300000D01*
X161034000Y-106680000D02*
X161034000Y-104316400D01*
X147218000Y-100618000D02*
X147050000Y-100450000D01*
X161034000Y-104316400D02*
X160678800Y-103961200D01*
X158034000Y-101084000D02*
X157440000Y-100490000D01*
X127420000Y-75840000D02*
X127370000Y-75890000D01*
X127420000Y-71470000D02*
X127420000Y-75840000D01*
X147218000Y-103838000D02*
X147218000Y-100618000D01*
X157440000Y-100300000D02*
X155930000Y-98790000D01*
X147034000Y-104022000D02*
X147218000Y-103838000D01*
X158034000Y-106680000D02*
X158034000Y-101084000D01*
X147218000Y-103838000D02*
X150003000Y-101053000D01*
D26*
%TO.N,/TC1_T-*%
X113660000Y-53848000D02*
X113660000Y-63560000D01*
X115377460Y-65277460D02*
X123953260Y-65277460D01*
X112753000Y-49086331D02*
X112753000Y-52941000D01*
X113660000Y-63560000D02*
X115377460Y-65277460D01*
X112753000Y-52941000D02*
X113660000Y-53848000D01*
%TO.N,/TC1_T+*%
X114930000Y-53848000D02*
X114930000Y-63470000D01*
X114138000Y-52348894D02*
X114930000Y-53140894D01*
X117933460Y-68833460D02*
X123953260Y-68833460D01*
X114900000Y-65800000D02*
X117933460Y-68833460D01*
X114930000Y-63470000D02*
X114900000Y-63500000D01*
X114138000Y-46246331D02*
X114138000Y-52348894D01*
X114930000Y-53140894D02*
X114930000Y-53848000D01*
D25*
%TO.N,+3.3V*%
X104300000Y-82100000D02*
X105004000Y-82804000D01*
X130300000Y-98760000D02*
X143440000Y-98760000D01*
X130300000Y-98760000D02*
X130300000Y-85091000D01*
X158190000Y-97703552D02*
X159288224Y-98801776D01*
X104300000Y-98900000D02*
X105000000Y-99600000D01*
X146993660Y-98903660D02*
X149737320Y-96160000D01*
X132587000Y-60452000D02*
X130300000Y-62739000D01*
X159034000Y-106680000D02*
X159034000Y-102650000D01*
X159280000Y-100780000D02*
X159280000Y-98810000D01*
X159034000Y-102650000D02*
X159034000Y-101026000D01*
X106933000Y-60706000D02*
X104300000Y-63339000D01*
X105000000Y-99600000D02*
X129800000Y-99600000D01*
X149737320Y-96160000D02*
X152140000Y-96160000D01*
X159034000Y-105680000D02*
X159034000Y-102650000D01*
X158190000Y-96480000D02*
X158190000Y-97703552D01*
X104300000Y-82100000D02*
X104300000Y-98900000D01*
X160034000Y-106680000D02*
X159034000Y-105680000D01*
X130300000Y-99100000D02*
X130300000Y-98760000D01*
X130300000Y-85091000D02*
X132333000Y-83058000D01*
X143440000Y-98760000D02*
X143480000Y-98800000D01*
X105004000Y-82804000D02*
X106679000Y-82804000D01*
X104300000Y-63339000D02*
X104300000Y-82100000D01*
X159034000Y-101026000D02*
X159280000Y-100780000D01*
X129800000Y-99600000D02*
X130300000Y-99100000D01*
X130300000Y-62739000D02*
X130300000Y-85091000D01*
X159280000Y-98810000D02*
X159288224Y-98801776D01*
D27*
%TO.N,/SPI1_SCK*%
X108900000Y-79600000D02*
X108900000Y-79700000D01*
X106933000Y-73406000D02*
X106933000Y-77633000D01*
X108700000Y-79400000D02*
X108900000Y-79600000D01*
X110600000Y-81400000D02*
X110600000Y-91583000D01*
X110600000Y-91583000D02*
X106679000Y-95504000D01*
X106933000Y-77633000D02*
X108700000Y-79400000D01*
%TO.N,/TC1_CS*%
X157200000Y-63100000D02*
X157200000Y-65500000D01*
%TO.N,/SPI1_MISO*%
X106933000Y-68326000D02*
X109700000Y-71093000D01*
X107876000Y-90424000D02*
X106679000Y-90424000D01*
X142972000Y-68072000D02*
X146700000Y-71800000D01*
X154000000Y-81500000D02*
X155727106Y-81500000D01*
X111400000Y-72000000D02*
X110607000Y-72000000D01*
X159420000Y-85192894D02*
X159420000Y-85900000D01*
X155727106Y-81500000D02*
X159420000Y-85192894D01*
X132587000Y-68072000D02*
X142972000Y-68072000D01*
X146700000Y-81500000D02*
X146800000Y-81600000D01*
X109700000Y-71093000D02*
X109700000Y-88600000D01*
X146700000Y-71800000D02*
X146700000Y-81500000D01*
X109700000Y-88600000D02*
X107876000Y-90424000D01*
X110607000Y-72000000D02*
X106933000Y-68326000D01*
D26*
%TO.N,/TC2_T-*%
X142623460Y-65023460D02*
X149607260Y-65023460D01*
X116200000Y-62300000D02*
X117100000Y-63200000D01*
X116200000Y-53848000D02*
X116200000Y-62300000D01*
X136200000Y-58600000D02*
X142623460Y-65023460D01*
X115523000Y-49086331D02*
X115523000Y-53171000D01*
X115523000Y-53171000D02*
X116200000Y-53848000D01*
X131300000Y-58600000D02*
X136200000Y-58600000D01*
X117100000Y-63200000D02*
X126700000Y-63200000D01*
X126700000Y-63200000D02*
X131300000Y-58600000D01*
%TO.N,/TC2_T+*%
X117470000Y-53848000D02*
X117470000Y-61570000D01*
X136800000Y-57900000D02*
X143100000Y-64200000D01*
X146827800Y-65800000D02*
X149607260Y-68579460D01*
X126600000Y-62200000D02*
X130900000Y-57900000D01*
X130900000Y-57900000D02*
X136300000Y-57900000D01*
X136300000Y-57900000D02*
X136800000Y-57900000D01*
X117470000Y-61570000D02*
X118100000Y-62200000D01*
X116908000Y-53286000D02*
X117470000Y-53848000D01*
X146500000Y-65800000D02*
X146827800Y-65800000D01*
X118100000Y-62200000D02*
X126600000Y-62200000D01*
X116908000Y-46246331D02*
X116908000Y-53286000D01*
X143100000Y-64200000D02*
X146500000Y-64200000D01*
D27*
%TO.N,/TC2_CS*%
X156095200Y-78804800D02*
X155600000Y-79300000D01*
X155800000Y-71100000D02*
X156095200Y-71395200D01*
X156095200Y-71395200D02*
X156095200Y-78804800D01*
D26*
%TO.N,/TC3_T-*%
X118293000Y-49086331D02*
X118293000Y-53401000D01*
X123699260Y-74799260D02*
X123699260Y-87375460D01*
X118600000Y-69700000D02*
X123699260Y-74799260D01*
X118740000Y-53848000D02*
X118740000Y-60960000D01*
X118740000Y-60960000D02*
X118600000Y-61100000D01*
X118293000Y-53401000D02*
X118740000Y-53848000D01*
%TO.N,/TC3_T+*%
X119678000Y-53516000D02*
X120010000Y-53848000D01*
X119678000Y-46246331D02*
X119678000Y-53516000D01*
X120100000Y-88300000D02*
X122500000Y-90700000D01*
X122500000Y-90700000D02*
X123467800Y-90700000D01*
X120100000Y-72300000D02*
X120100000Y-88300000D01*
X120010000Y-53848000D02*
X120010000Y-61310000D01*
X120010000Y-61310000D02*
X120100000Y-61400000D01*
X123467800Y-90700000D02*
X123699260Y-90931460D01*
D27*
%TO.N,/TC3_CS*%
X153800000Y-55900000D02*
X156500000Y-55900000D01*
X112300000Y-57200000D02*
X112800000Y-56700000D01*
X112300000Y-91900000D02*
X112300000Y-57200000D01*
D26*
%TO.N,/TC4_T-*%
X121280000Y-53848000D02*
X121280000Y-60980000D01*
X126500000Y-61300000D02*
X130700000Y-57100000D01*
X130700000Y-57100000D02*
X137100000Y-57100000D01*
X149353260Y-71653260D02*
X149353260Y-87629460D01*
X121280000Y-60980000D02*
X121600000Y-61300000D01*
X137100000Y-57100000D02*
X143400000Y-63400000D01*
X121063000Y-53631000D02*
X121280000Y-53848000D01*
X121063000Y-49086331D02*
X121063000Y-53631000D01*
X143400000Y-63400000D02*
X143500000Y-63400000D01*
X121600000Y-61300000D02*
X126500000Y-61300000D01*
X143500000Y-65800000D02*
X149353260Y-71653260D01*
%TO.N,/TC4_T+*%
X122550000Y-60050000D02*
X123000000Y-60500000D01*
X122448000Y-46246331D02*
X122448000Y-53746000D01*
X145200000Y-68800000D02*
X147800000Y-71400000D01*
X147800000Y-89632200D02*
X149353260Y-91185460D01*
X123000000Y-60500000D02*
X126400000Y-60500000D01*
X122550000Y-53848000D02*
X122550000Y-60050000D01*
X122448000Y-53746000D02*
X122550000Y-53848000D01*
X147800000Y-71400000D02*
X147800000Y-89632200D01*
X138500000Y-56400000D02*
X145200000Y-63100000D01*
X126400000Y-60500000D02*
X130500000Y-56400000D01*
X130500000Y-56400000D02*
X138500000Y-56400000D01*
D28*
%TO.N,/SPI0_SCK*%
X143800000Y-97700000D02*
X145100000Y-99000000D01*
X145034000Y-99066000D02*
X145034000Y-106680000D01*
X132600000Y-97700000D02*
X143800000Y-97700000D01*
X146100000Y-97700000D02*
X143800000Y-97700000D01*
X145100000Y-99000000D02*
X145034000Y-99066000D01*
X158130000Y-91900000D02*
X151900000Y-91900000D01*
X151900000Y-91900000D02*
X146100000Y-97700000D01*
X132333000Y-97433000D02*
X132600000Y-97700000D01*
X132333000Y-95758000D02*
X132333000Y-97433000D01*
D27*
%TO.N,/TC4_CS*%
X160285000Y-77320000D02*
X160825000Y-77860000D01*
X136180000Y-91700000D02*
X136180000Y-87010000D01*
X159420000Y-77320000D02*
X160285000Y-77320000D01*
D28*
X160900000Y-65800000D02*
X160900000Y-72325000D01*
X160825000Y-78075000D02*
X159600000Y-79300000D01*
X160825000Y-72400000D02*
X160825000Y-77860000D01*
X160900000Y-72325000D02*
X160825000Y-72400000D01*
D27*
X136180000Y-87010000D02*
X145530000Y-77660000D01*
D28*
X160825000Y-77860000D02*
X160825000Y-78075000D01*
X160500000Y-65400000D02*
X160900000Y-65800000D01*
X160500000Y-55900000D02*
X160500000Y-65400000D01*
%TO.N,/SPI0_MISO*%
X146034000Y-98966000D02*
X146034000Y-106680000D01*
X158388800Y-93200000D02*
X151800000Y-93200000D01*
X151800000Y-93200000D02*
X146034000Y-98966000D01*
D27*
X132333000Y-90678000D02*
X133608000Y-90678000D01*
D28*
X159400000Y-91900000D02*
X159400000Y-92188800D01*
X159400000Y-92188800D02*
X158388800Y-93200000D01*
D27*
X133608000Y-90678000D02*
X139840000Y-96910000D01*
%TO.N,/CS1*%
X158900000Y-65800000D02*
X158570200Y-66129800D01*
X152000000Y-94400000D02*
X153034000Y-95434000D01*
X158570200Y-75529800D02*
X157700000Y-76400000D01*
X152000000Y-76300000D02*
X152000000Y-90800000D01*
X153034000Y-95434000D02*
X153034000Y-106680000D01*
X158570200Y-66129800D02*
X158570200Y-75529800D01*
%TO.N,/CS2*%
X154000000Y-84900000D02*
X154000000Y-91100000D01*
X157600000Y-79300000D02*
X157600000Y-81400000D01*
X154300000Y-84600000D02*
X154000000Y-84900000D01*
X154000000Y-94000000D02*
X154034000Y-94034000D01*
X154034000Y-94034000D02*
X154034000Y-106680000D01*
%TO.N,/CS3*%
X155034000Y-94466000D02*
X155034000Y-106680000D01*
X158500000Y-55900000D02*
X155000000Y-59400000D01*
X155000000Y-67300000D02*
X154795200Y-67504800D01*
X154795200Y-78604800D02*
X153600000Y-79800000D01*
X152900000Y-80500000D02*
X152900000Y-88700000D01*
X154795200Y-67504800D02*
X154795200Y-78604800D01*
X153600000Y-79800000D02*
X152900000Y-80500000D01*
X155100000Y-88800000D02*
X155100000Y-91100000D01*
X155000000Y-59400000D02*
X155000000Y-67300000D01*
X155200000Y-94300000D02*
X155034000Y-94466000D01*
%TO.N,/CS4*%
X159375000Y-72400000D02*
X159375000Y-75775000D01*
X161800000Y-92300000D02*
X161800000Y-96800000D01*
X161800000Y-75800000D02*
X161800000Y-92300000D01*
X161800000Y-96800000D02*
X160100000Y-98500000D01*
X159375000Y-75775000D02*
X159400000Y-75800000D01*
%TD*%
%TA.AperFunction,Conductor*%
%TO.N,GND*%
G36*
X152398500Y-101133936D02*
G01*
X152398500Y-103897500D01*
X152378815Y-103964539D01*
X152326011Y-104010294D01*
X152274500Y-104021500D01*
X151635345Y-104021500D01*
X151574802Y-104028010D01*
X151567245Y-104029796D01*
X151566778Y-104027822D01*
X151507626Y-104032046D01*
X151496708Y-104028839D01*
X151493197Y-104028010D01*
X151432654Y-104021500D01*
X151432638Y-104021500D01*
X150635362Y-104021500D01*
X150635345Y-104021500D01*
X150574799Y-104028010D01*
X150567248Y-104029795D01*
X150566782Y-104027823D01*
X150507618Y-104032044D01*
X150496701Y-104028837D01*
X150493202Y-104028011D01*
X150432654Y-104021500D01*
X150432638Y-104021500D01*
X149635362Y-104021500D01*
X149635345Y-104021500D01*
X149574802Y-104028010D01*
X149567245Y-104029796D01*
X149566778Y-104027822D01*
X149507626Y-104032046D01*
X149496708Y-104028839D01*
X149493197Y-104028010D01*
X149432654Y-104021500D01*
X149432638Y-104021500D01*
X148635362Y-104021500D01*
X148635345Y-104021500D01*
X148574799Y-104028010D01*
X148567248Y-104029795D01*
X148566782Y-104027823D01*
X148507618Y-104032044D01*
X148496701Y-104028837D01*
X148493202Y-104028011D01*
X148432654Y-104021500D01*
X148432638Y-104021500D01*
X147635362Y-104021500D01*
X147635345Y-104021500D01*
X147574802Y-104028010D01*
X147574792Y-104028012D01*
X147563911Y-104032071D01*
X147499143Y-104036700D01*
X147499087Y-104037231D01*
X147496148Y-104036915D01*
X147494219Y-104037053D01*
X147492074Y-104036567D01*
X147491374Y-104036401D01*
X147431844Y-104030000D01*
X147283999Y-104030000D01*
X147283999Y-104174546D01*
X147264314Y-104241585D01*
X147259268Y-104248853D01*
X147233113Y-104283793D01*
X147233111Y-104283796D01*
X147233109Y-104283799D01*
X147233110Y-104283799D01*
X147182011Y-104420795D01*
X147182011Y-104420797D01*
X147175500Y-104481345D01*
X147175500Y-106806000D01*
X147155815Y-106873039D01*
X147103011Y-106918794D01*
X147051500Y-106930000D01*
X147016500Y-106930000D01*
X146949461Y-106910315D01*
X146903706Y-106857511D01*
X146892500Y-106806000D01*
X146892500Y-104481362D01*
X146892499Y-104481345D01*
X146889157Y-104450270D01*
X146885989Y-104420799D01*
X146834889Y-104283796D01*
X146808732Y-104248855D01*
X146784316Y-104183392D01*
X146784000Y-104174545D01*
X146784000Y-104030000D01*
X146768100Y-104030000D01*
X146701061Y-104010315D01*
X146655306Y-103957511D01*
X146644100Y-103906000D01*
X146644100Y-101898292D01*
X146663785Y-101831253D01*
X146675950Y-101815320D01*
X146704615Y-101783484D01*
X146736923Y-101747603D01*
X146827743Y-101590297D01*
X146883873Y-101417546D01*
X146902860Y-101236900D01*
X146888953Y-101104587D01*
X152398500Y-101133936D01*
G37*
%TD.AperFunction*%
%TA.AperFunction,Conductor*%
G36*
X158271500Y-101165222D02*
G01*
X158271500Y-104191243D01*
X158251815Y-104258282D01*
X158246767Y-104265554D01*
X158233111Y-104283795D01*
X158182011Y-104420795D01*
X158182011Y-104420797D01*
X158175500Y-104481345D01*
X158175500Y-106806000D01*
X158155815Y-106873039D01*
X158103011Y-106918794D01*
X158051500Y-106930000D01*
X157908000Y-106930000D01*
X157840961Y-106910315D01*
X157795206Y-106857511D01*
X157784000Y-106806000D01*
X157784000Y-104029999D01*
X157774818Y-104020817D01*
X157741333Y-103959494D01*
X157738500Y-103933137D01*
X157738500Y-102574622D01*
X157738499Y-102574617D01*
X157736076Y-102560877D01*
X157701902Y-102367062D01*
X157629818Y-102169012D01*
X157524438Y-101986488D01*
X157519092Y-101980117D01*
X157491079Y-101916111D01*
X157490152Y-101904571D01*
X157480000Y-101600000D01*
X157105611Y-101600000D01*
X157050472Y-101585227D01*
X157049893Y-101586470D01*
X157044991Y-101584184D01*
X157044988Y-101584182D01*
X157019980Y-101575079D01*
X156846937Y-101512097D01*
X156639382Y-101475500D01*
X156639380Y-101475500D01*
X156428620Y-101475500D01*
X156428617Y-101475500D01*
X156221062Y-101512097D01*
X156023014Y-101584181D01*
X156018107Y-101586470D01*
X156017527Y-101585227D01*
X155962389Y-101600000D01*
X155793500Y-101600000D01*
X155726461Y-101580315D01*
X155680706Y-101527511D01*
X155669500Y-101476000D01*
X155669500Y-101151361D01*
X158271500Y-101165222D01*
G37*
%TD.AperFunction*%
%TA.AperFunction,Conductor*%
G36*
X164548096Y-101198657D02*
G01*
X164547970Y-101198747D01*
X164543131Y-101201851D01*
X164509987Y-101223109D01*
X164507644Y-101225366D01*
X164506988Y-101225906D01*
X164505948Y-101227000D01*
X164504877Y-101228030D01*
X164504346Y-101228682D01*
X164502097Y-101231043D01*
X164477941Y-101269173D01*
X164452170Y-101306221D01*
X164450872Y-101309196D01*
X164450470Y-101309951D01*
X164449933Y-101311345D01*
X164449331Y-101312724D01*
X164449084Y-101313547D01*
X164447916Y-101316572D01*
X164440191Y-101361053D01*
X164436014Y-101380170D01*
X164435305Y-101386214D01*
X164435133Y-101386193D01*
X164434283Y-101395064D01*
X164430590Y-101416326D01*
X164431705Y-101421294D01*
X164434690Y-101450761D01*
X164430071Y-101697133D01*
X164429784Y-101702038D01*
X164429500Y-101704928D01*
X164429500Y-101727624D01*
X164429075Y-101750292D01*
X164429304Y-101753169D01*
X164429500Y-101758091D01*
X164429500Y-103897500D01*
X164409815Y-103964539D01*
X164357011Y-104010294D01*
X164305500Y-104021500D01*
X163635345Y-104021500D01*
X163574802Y-104028010D01*
X163567245Y-104029796D01*
X163566778Y-104027822D01*
X163507626Y-104032046D01*
X163496708Y-104028839D01*
X163493197Y-104028010D01*
X163432654Y-104021500D01*
X163432638Y-104021500D01*
X162635362Y-104021500D01*
X162635345Y-104021500D01*
X162574799Y-104028010D01*
X162567248Y-104029795D01*
X162566782Y-104027823D01*
X162507618Y-104032044D01*
X162496701Y-104028837D01*
X162493202Y-104028011D01*
X162432654Y-104021500D01*
X162432638Y-104021500D01*
X161635362Y-104021500D01*
X161635345Y-104021500D01*
X161574802Y-104028010D01*
X161574792Y-104028012D01*
X161563911Y-104032071D01*
X161499143Y-104036700D01*
X161499087Y-104037231D01*
X161496148Y-104036915D01*
X161494219Y-104037053D01*
X161492074Y-104036567D01*
X161491374Y-104036401D01*
X161431844Y-104030000D01*
X161283999Y-104030000D01*
X161283999Y-104174546D01*
X161264314Y-104241585D01*
X161259268Y-104248853D01*
X161233113Y-104283793D01*
X161233111Y-104283796D01*
X161233109Y-104283799D01*
X161233110Y-104283799D01*
X161182011Y-104420795D01*
X161182011Y-104420797D01*
X161175500Y-104481345D01*
X161175500Y-106806000D01*
X161155815Y-106873039D01*
X161103011Y-106918794D01*
X161051500Y-106930000D01*
X161016500Y-106930000D01*
X160949461Y-106910315D01*
X160903706Y-106857511D01*
X160892500Y-106806000D01*
X160892500Y-104481362D01*
X160892499Y-104481345D01*
X160889157Y-104450270D01*
X160885989Y-104420799D01*
X160834889Y-104283796D01*
X160808732Y-104248855D01*
X160784316Y-104183392D01*
X160784000Y-104174545D01*
X160784000Y-104030000D01*
X160636155Y-104030000D01*
X160576617Y-104036402D01*
X160575917Y-104036568D01*
X160575358Y-104036537D01*
X160568913Y-104037231D01*
X160568800Y-104036185D01*
X160506148Y-104032819D01*
X160504087Y-104032071D01*
X160493201Y-104028011D01*
X160493199Y-104028010D01*
X160432654Y-104021500D01*
X160432638Y-104021500D01*
X159920500Y-104021500D01*
X159853461Y-104001815D01*
X159807706Y-103949011D01*
X159796500Y-103897500D01*
X159796500Y-101395831D01*
X159816185Y-101328792D01*
X159825508Y-101316128D01*
X159830691Y-101309951D01*
X159840971Y-101297698D01*
X159844626Y-101293711D01*
X159850573Y-101287765D01*
X159871242Y-101261624D01*
X159921396Y-101201853D01*
X159921400Y-101201844D01*
X159925364Y-101195819D01*
X159925401Y-101195843D01*
X159929638Y-101189193D01*
X159929601Y-101189170D01*
X159933390Y-101183024D01*
X159933395Y-101183019D01*
X159937555Y-101174097D01*
X164548096Y-101198657D01*
G37*
%TD.AperFunction*%
%TD*%
%TA.AperFunction,Conductor*%
%TO.N,GND*%
G36*
X112087284Y-51695451D02*
G01*
X112133168Y-51748142D01*
X112144500Y-51799930D01*
X112144500Y-52897054D01*
X112143969Y-52905151D01*
X112141383Y-52924790D01*
X112139250Y-52940998D01*
X112144021Y-52977248D01*
X112144023Y-52977263D01*
X112154590Y-53057524D01*
X112160161Y-53099848D01*
X112160163Y-53099854D01*
X112221473Y-53247871D01*
X112221473Y-53247872D01*
X112221475Y-53247875D01*
X112221476Y-53247876D01*
X112249959Y-53284996D01*
X112294525Y-53343074D01*
X112294526Y-53343075D01*
X112319012Y-53374986D01*
X112347698Y-53396998D01*
X112353794Y-53402343D01*
X112601750Y-53650299D01*
X112615181Y-53663730D01*
X112648666Y-53725053D01*
X112651500Y-53751411D01*
X112651500Y-54396654D01*
X112658011Y-54457202D01*
X112658011Y-54457204D01*
X112698057Y-54564567D01*
X112709111Y-54594204D01*
X112796739Y-54711261D01*
X112913796Y-54798889D01*
X112970835Y-54820163D01*
X113026766Y-54862034D01*
X113051183Y-54927498D01*
X113051499Y-54936344D01*
X113051499Y-55716926D01*
X113031814Y-55783965D01*
X112979010Y-55829720D01*
X112909852Y-55839664D01*
X112901725Y-55838217D01*
X112890821Y-55835900D01*
X112709179Y-55835900D01*
X112691471Y-55839664D01*
X112531507Y-55873664D01*
X112531501Y-55873666D01*
X112365570Y-55947545D01*
X112365565Y-55947547D01*
X112218620Y-56054309D01*
X112218613Y-56054315D01*
X112097076Y-56189298D01*
X112006258Y-56346599D01*
X112006257Y-56346601D01*
X111950128Y-56519349D01*
X111950127Y-56519351D01*
X111939443Y-56620998D01*
X111912857Y-56685613D01*
X111895169Y-56703573D01*
X111891700Y-56706442D01*
X111860728Y-56739424D01*
X111843573Y-56757693D01*
X111837166Y-56764100D01*
X111822365Y-56778900D01*
X111822363Y-56778902D01*
X111818008Y-56784516D01*
X111814218Y-56788953D01*
X111781782Y-56823494D01*
X111781781Y-56823496D01*
X111771900Y-56841468D01*
X111761225Y-56857719D01*
X111748652Y-56873929D01*
X111748649Y-56873933D01*
X111729827Y-56917428D01*
X111727257Y-56922674D01*
X111704430Y-56964197D01*
X111699329Y-56984064D01*
X111693030Y-57002462D01*
X111684884Y-57021287D01*
X111684881Y-57021296D01*
X111677469Y-57068098D01*
X111676284Y-57073820D01*
X111664500Y-57119711D01*
X111664500Y-57140225D01*
X111662973Y-57159624D01*
X111659765Y-57179877D01*
X111659764Y-57179880D01*
X111664224Y-57227060D01*
X111664499Y-57232897D01*
X111664499Y-71019689D01*
X111644814Y-71086728D01*
X111592010Y-71132483D01*
X111522852Y-71142427D01*
X111514721Y-71140980D01*
X111511724Y-71140343D01*
X111490821Y-71135900D01*
X111309179Y-71135900D01*
X111285279Y-71140980D01*
X111131507Y-71173664D01*
X111131501Y-71173666D01*
X110965570Y-71247545D01*
X110965565Y-71247547D01*
X110928291Y-71274629D01*
X110862485Y-71298109D01*
X110794431Y-71282283D01*
X110767725Y-71261992D01*
X110191633Y-70685900D01*
X110178994Y-70671101D01*
X110166943Y-70654514D01*
X110166941Y-70654512D01*
X110130422Y-70624301D01*
X110126100Y-70620367D01*
X108210906Y-68705173D01*
X108177421Y-68643850D01*
X108178812Y-68585398D01*
X108188978Y-68547463D01*
X108208353Y-68326000D01*
X108205506Y-68293463D01*
X108193333Y-68154315D01*
X108188978Y-68104537D01*
X108131440Y-67889804D01*
X108037488Y-67688324D01*
X108037486Y-67688321D01*
X108037485Y-67688319D01*
X107909978Y-67506220D01*
X107832771Y-67429013D01*
X107752781Y-67349023D01*
X107570677Y-67221512D01*
X107570678Y-67221512D01*
X107570676Y-67221511D01*
X107446682Y-67163692D01*
X107394243Y-67117519D01*
X107375091Y-67050326D01*
X107395307Y-66983445D01*
X107446684Y-66938927D01*
X107566413Y-66883097D01*
X107566420Y-66883093D01*
X107631186Y-66837742D01*
X107631187Y-66837740D01*
X107102276Y-66308829D01*
X107068791Y-66247506D01*
X107073775Y-66177814D01*
X107115647Y-66121881D01*
X107130933Y-66112097D01*
X107170251Y-66090820D01*
X107256371Y-65997269D01*
X107257083Y-65995643D01*
X107258652Y-65993777D01*
X107261992Y-65988666D01*
X107262609Y-65989069D01*
X107302036Y-65942158D01*
X107368770Y-65921464D01*
X107436099Y-65940135D01*
X107458322Y-65957769D01*
X107984740Y-66484187D01*
X107984742Y-66484186D01*
X108030093Y-66419420D01*
X108030100Y-66419408D01*
X108123419Y-66219284D01*
X108123424Y-66219270D01*
X108180573Y-66005986D01*
X108180575Y-66005976D01*
X108199821Y-65786000D01*
X108199821Y-65785999D01*
X108180575Y-65566023D01*
X108180573Y-65566013D01*
X108123424Y-65352729D01*
X108123420Y-65352720D01*
X108030098Y-65152590D01*
X107984740Y-65087811D01*
X107455949Y-65616602D01*
X107394626Y-65650087D01*
X107324934Y-65645103D01*
X107269001Y-65603231D01*
X107264460Y-65596743D01*
X107217189Y-65524391D01*
X107217187Y-65524388D01*
X107185984Y-65500102D01*
X107116843Y-65446287D01*
X107116840Y-65446285D01*
X107116488Y-65446012D01*
X107075675Y-65389301D01*
X107072000Y-65319529D01*
X107104969Y-65260477D01*
X107631187Y-64734258D01*
X107566409Y-64688900D01*
X107566407Y-64688899D01*
X107446683Y-64633071D01*
X107394243Y-64586899D01*
X107375091Y-64519705D01*
X107395307Y-64452824D01*
X107446682Y-64408307D01*
X107570677Y-64350488D01*
X107752781Y-64222977D01*
X107909977Y-64065781D01*
X108037488Y-63883677D01*
X108131440Y-63682196D01*
X108188978Y-63467463D01*
X108208014Y-63249877D01*
X108208353Y-63246002D01*
X108208353Y-63245997D01*
X108195364Y-63097528D01*
X108188978Y-63024537D01*
X108131440Y-62809804D01*
X108037488Y-62608324D01*
X108037486Y-62608321D01*
X108037485Y-62608319D01*
X107909978Y-62426220D01*
X107838077Y-62354319D01*
X107752781Y-62269023D01*
X107570677Y-62141512D01*
X107456738Y-62088381D01*
X107404299Y-62042210D01*
X107385147Y-61975017D01*
X107405363Y-61908135D01*
X107456739Y-61863618D01*
X107570677Y-61810488D01*
X107752781Y-61682977D01*
X107909977Y-61525781D01*
X108037488Y-61343677D01*
X108131440Y-61142196D01*
X108188978Y-60927463D01*
X108204801Y-60746603D01*
X108208353Y-60706002D01*
X108208353Y-60705997D01*
X108201087Y-60622951D01*
X108188978Y-60484537D01*
X108131440Y-60269804D01*
X108037488Y-60068324D01*
X108037486Y-60068321D01*
X108037485Y-60068319D01*
X107909978Y-59886220D01*
X107838077Y-59814319D01*
X107752781Y-59729023D01*
X107570677Y-59601512D01*
X107570678Y-59601512D01*
X107570676Y-59601511D01*
X107469936Y-59554535D01*
X107369196Y-59507560D01*
X107369193Y-59507559D01*
X107369191Y-59507558D01*
X107154465Y-59450022D01*
X107154457Y-59450021D01*
X106933002Y-59430647D01*
X106932998Y-59430647D01*
X106711542Y-59450021D01*
X106711535Y-59450022D01*
X106496800Y-59507561D01*
X106295323Y-59601512D01*
X106295319Y-59601514D01*
X106113217Y-59729023D01*
X105956023Y-59886217D01*
X105828514Y-60068319D01*
X105828512Y-60068323D01*
X105734561Y-60269800D01*
X105677022Y-60484535D01*
X105677021Y-60484542D01*
X105657647Y-60705997D01*
X105657647Y-60706003D01*
X105668456Y-60829564D01*
X105654689Y-60898064D01*
X105632609Y-60928051D01*
X103806499Y-62754161D01*
X103792872Y-62765939D01*
X103773176Y-62780603D01*
X103739027Y-62821300D01*
X103735379Y-62825281D01*
X103729425Y-62831236D01*
X103719090Y-62844307D01*
X103708754Y-62857379D01*
X103664708Y-62909871D01*
X103658603Y-62917148D01*
X103654637Y-62923178D01*
X103654603Y-62923156D01*
X103650361Y-62929815D01*
X103650395Y-62929836D01*
X103646607Y-62935977D01*
X103646605Y-62935980D01*
X103613625Y-63006705D01*
X103604667Y-63024542D01*
X103578605Y-63076434D01*
X103576135Y-63083221D01*
X103576097Y-63083207D01*
X103573506Y-63090661D01*
X103573546Y-63090674D01*
X103571274Y-63097528D01*
X103555498Y-63173934D01*
X103537499Y-63249880D01*
X103536661Y-63257052D01*
X103536619Y-63257047D01*
X103535818Y-63264893D01*
X103535860Y-63264897D01*
X103535230Y-63272086D01*
X103537500Y-63350075D01*
X103537500Y-82010878D01*
X103537499Y-82035424D01*
X103536190Y-82053387D01*
X103532634Y-82077666D01*
X103532633Y-82077678D01*
X103537263Y-82130592D01*
X103537499Y-82135998D01*
X103537499Y-98835421D01*
X103536190Y-98853391D01*
X103532634Y-98877669D01*
X103532633Y-98877675D01*
X103537264Y-98930590D01*
X103537500Y-98935997D01*
X103537500Y-98944413D01*
X103541368Y-98977510D01*
X103548168Y-99055242D01*
X103549628Y-99062309D01*
X103549589Y-99062317D01*
X103551299Y-99070028D01*
X103551337Y-99070020D01*
X103553000Y-99077040D01*
X103573752Y-99134055D01*
X103579690Y-99150369D01*
X103590653Y-99183452D01*
X103604236Y-99224443D01*
X103607288Y-99230987D01*
X103607250Y-99231004D01*
X103610686Y-99238101D01*
X103610723Y-99238083D01*
X103613962Y-99244531D01*
X103613964Y-99244534D01*
X103613966Y-99244539D01*
X103656848Y-99309738D01*
X103667085Y-99326335D01*
X103697816Y-99376155D01*
X103702294Y-99381818D01*
X103702261Y-99381843D01*
X103707245Y-99387961D01*
X103707278Y-99387935D01*
X103711912Y-99393457D01*
X103711915Y-99393462D01*
X103711918Y-99393465D01*
X103711920Y-99393467D01*
X103768683Y-99447020D01*
X104415162Y-100093500D01*
X104426938Y-100107125D01*
X104441602Y-100126822D01*
X104441604Y-100126823D01*
X104441605Y-100126825D01*
X104482297Y-100160969D01*
X104486287Y-100164625D01*
X104492235Y-100170573D01*
X104518379Y-100191245D01*
X104578147Y-100241396D01*
X104578153Y-100241399D01*
X104584184Y-100245366D01*
X104584160Y-100245401D01*
X104590807Y-100249636D01*
X104590829Y-100249601D01*
X104596980Y-100253395D01*
X104667711Y-100286377D01*
X104737434Y-100321394D01*
X104737436Y-100321394D01*
X104744223Y-100323865D01*
X104744208Y-100323904D01*
X104751656Y-100326493D01*
X104751670Y-100326453D01*
X104758523Y-100328723D01*
X104758526Y-100328725D01*
X104758528Y-100328725D01*
X104758530Y-100328726D01*
X104834938Y-100344502D01*
X104910877Y-100362500D01*
X104910880Y-100362500D01*
X104910884Y-100362501D01*
X104918051Y-100363339D01*
X104918046Y-100363379D01*
X104925893Y-100364181D01*
X104925897Y-100364140D01*
X104933086Y-100364769D01*
X104933090Y-100364768D01*
X104933091Y-100364769D01*
X105011076Y-100362500D01*
X129735418Y-100362500D01*
X129753388Y-100363809D01*
X129755649Y-100364140D01*
X129777672Y-100367366D01*
X129830596Y-100362735D01*
X129835997Y-100362500D01*
X129844406Y-100362500D01*
X129844412Y-100362500D01*
X129875383Y-100358879D01*
X129877512Y-100358631D01*
X129890465Y-100357497D01*
X129955240Y-100351831D01*
X129955248Y-100351828D01*
X129962309Y-100350371D01*
X129962317Y-100350414D01*
X129970016Y-100348707D01*
X129970007Y-100348666D01*
X129977037Y-100346999D01*
X129977038Y-100346998D01*
X129977042Y-100346998D01*
X130050369Y-100320309D01*
X130124440Y-100295765D01*
X130124448Y-100295759D01*
X130130988Y-100292711D01*
X130131006Y-100292750D01*
X130138102Y-100289315D01*
X130138083Y-100289276D01*
X130144535Y-100286035D01*
X130144539Y-100286034D01*
X130209738Y-100243151D01*
X130276149Y-100202188D01*
X130276154Y-100202182D01*
X130281813Y-100197709D01*
X130281840Y-100197743D01*
X130287954Y-100192763D01*
X130287927Y-100192730D01*
X130293462Y-100188085D01*
X130347020Y-100131317D01*
X130571845Y-99906491D01*
X130793504Y-99684832D01*
X130807133Y-99673055D01*
X130826822Y-99658398D01*
X130860966Y-99617706D01*
X130864626Y-99613711D01*
X130870573Y-99607765D01*
X130891245Y-99581620D01*
X130903687Y-99566791D01*
X130961856Y-99528092D01*
X130998674Y-99522500D01*
X142964051Y-99522500D01*
X143031090Y-99542185D01*
X143036910Y-99546163D01*
X143045570Y-99552455D01*
X143077776Y-99566794D01*
X143211501Y-99626333D01*
X143211507Y-99626335D01*
X143389179Y-99664100D01*
X143389180Y-99664100D01*
X143570819Y-99664100D01*
X143570821Y-99664100D01*
X143748493Y-99626335D01*
X143748495Y-99626333D01*
X143748498Y-99626333D01*
X143770949Y-99616336D01*
X143914430Y-99552455D01*
X144061381Y-99445689D01*
X144182923Y-99310703D01*
X144192512Y-99294093D01*
X144243079Y-99245878D01*
X144311686Y-99232654D01*
X144376551Y-99258622D01*
X144417080Y-99315536D01*
X144423900Y-99356093D01*
X144423900Y-101076000D01*
X144404215Y-101143039D01*
X144351411Y-101188794D01*
X144299900Y-101200000D01*
X102124502Y-101200000D01*
X102057463Y-101180315D01*
X102011708Y-101127511D01*
X102000503Y-101075499D01*
X102000664Y-101035774D01*
X102199502Y-51823196D01*
X102219457Y-51756238D01*
X102272446Y-51710696D01*
X102323196Y-51699698D01*
X112020199Y-51675930D01*
X112087284Y-51695451D01*
G37*
%TD.AperFunction*%
%TA.AperFunction,Conductor*%
G36*
X164643236Y-38519685D02*
G01*
X164688991Y-38572489D01*
X164700197Y-38623802D01*
X164799724Y-101027815D01*
X164780146Y-101094886D01*
X164727415Y-101140725D01*
X164697630Y-101150063D01*
X164673633Y-101154370D01*
X164664758Y-101155270D01*
X164664780Y-101155442D01*
X164658733Y-101156186D01*
X164644146Y-101159459D01*
X164639627Y-101160474D01*
X164624821Y-101163131D01*
X164595207Y-101168447D01*
X164592178Y-101169636D01*
X164591366Y-101169884D01*
X164590007Y-101170487D01*
X164588612Y-101171034D01*
X164587855Y-101171442D01*
X164584883Y-101172758D01*
X164548096Y-101198658D01*
X159937555Y-101174097D01*
X159966371Y-101112301D01*
X160001394Y-101042566D01*
X160003866Y-101035774D01*
X160003907Y-101035789D01*
X160006492Y-101028353D01*
X160006450Y-101028339D01*
X160008721Y-101021480D01*
X160008725Y-101021473D01*
X160016614Y-100983263D01*
X160024505Y-100945053D01*
X160035352Y-100899281D01*
X160042500Y-100869123D01*
X160042500Y-100869120D01*
X160042501Y-100869116D01*
X160043339Y-100861949D01*
X160043380Y-100861953D01*
X160044182Y-100854106D01*
X160044141Y-100854103D01*
X160044770Y-100846912D01*
X160042500Y-100768889D01*
X160042500Y-99488100D01*
X160062185Y-99421061D01*
X160114989Y-99375306D01*
X160166500Y-99364100D01*
X160190819Y-99364100D01*
X160190821Y-99364100D01*
X160368493Y-99326335D01*
X160368495Y-99326333D01*
X160368498Y-99326333D01*
X160405770Y-99309738D01*
X160534430Y-99252455D01*
X160681381Y-99145689D01*
X160802923Y-99010703D01*
X160893743Y-98853397D01*
X160949873Y-98680646D01*
X160960761Y-98577046D01*
X160987344Y-98512435D01*
X160996391Y-98502339D01*
X162190074Y-97308657D01*
X162202458Y-97298738D01*
X162202286Y-97298530D01*
X162208292Y-97293559D01*
X162208303Y-97293553D01*
X162256426Y-97242306D01*
X162277639Y-97221094D01*
X162281993Y-97215479D01*
X162285768Y-97211058D01*
X162318217Y-97176506D01*
X162328094Y-97158537D01*
X162338779Y-97142272D01*
X162339312Y-97141585D01*
X162351350Y-97126067D01*
X162370183Y-97082543D01*
X162372732Y-97077341D01*
X162395569Y-97035803D01*
X162400670Y-97015930D01*
X162406969Y-96997534D01*
X162415117Y-96978708D01*
X162422321Y-96933220D01*
X162422530Y-96931902D01*
X162423715Y-96926178D01*
X162427869Y-96910000D01*
X162435500Y-96880282D01*
X162435500Y-96859773D01*
X162437027Y-96840374D01*
X162438133Y-96833391D01*
X162440235Y-96820121D01*
X162435775Y-96772939D01*
X162435500Y-96767101D01*
X162435500Y-76433182D01*
X162455185Y-76366143D01*
X162467351Y-76350209D01*
X162502923Y-76310703D01*
X162593743Y-76153397D01*
X162649873Y-75980646D01*
X162668860Y-75800000D01*
X162649873Y-75619354D01*
X162593743Y-75446603D01*
X162502923Y-75289297D01*
X162455318Y-75236426D01*
X162381386Y-75154315D01*
X162381379Y-75154309D01*
X162234434Y-75047547D01*
X162234431Y-75047545D01*
X162234430Y-75047545D01*
X162164900Y-75016588D01*
X162068498Y-74973666D01*
X162068492Y-74973664D01*
X161928584Y-74943926D01*
X161890821Y-74935900D01*
X161709179Y-74935900D01*
X161709178Y-74935900D01*
X161584879Y-74962320D01*
X161515212Y-74957004D01*
X161459479Y-74914867D01*
X161435374Y-74849287D01*
X161435099Y-74841030D01*
X161435099Y-74337907D01*
X161435099Y-73740460D01*
X161454784Y-73673425D01*
X161507588Y-73627670D01*
X161524168Y-73621486D01*
X161538411Y-73617304D01*
X161661421Y-73538250D01*
X161757176Y-73427743D01*
X161817919Y-73294734D01*
X161838729Y-73150000D01*
X161838729Y-71650000D01*
X161833500Y-71576889D01*
X161792304Y-71436589D01*
X161713250Y-71313579D01*
X161602743Y-71217824D01*
X161582586Y-71208618D01*
X161529784Y-71162863D01*
X161510100Y-71095825D01*
X161510100Y-67140464D01*
X161529785Y-67073425D01*
X161582589Y-67027670D01*
X161599163Y-67021487D01*
X161613411Y-67017304D01*
X161736421Y-66938250D01*
X161832176Y-66827743D01*
X161892919Y-66694734D01*
X161913729Y-66550000D01*
X161913729Y-65050000D01*
X161908500Y-64976889D01*
X161867304Y-64836589D01*
X161788250Y-64713579D01*
X161677743Y-64617824D01*
X161664988Y-64611999D01*
X161544734Y-64557080D01*
X161432323Y-64540918D01*
X161400000Y-64536271D01*
X161399998Y-64536271D01*
X161234100Y-64536271D01*
X161167061Y-64516586D01*
X161121306Y-64463782D01*
X161110100Y-64412271D01*
X161110100Y-57240464D01*
X161129785Y-57173425D01*
X161182589Y-57127670D01*
X161199163Y-57121487D01*
X161213411Y-57117304D01*
X161336421Y-57038250D01*
X161432176Y-56927743D01*
X161492919Y-56794734D01*
X161513729Y-56650000D01*
X161513729Y-55150000D01*
X161508500Y-55076889D01*
X161507553Y-55073665D01*
X161487469Y-55005265D01*
X161467304Y-54936589D01*
X161411698Y-54850064D01*
X161388251Y-54813580D01*
X161371297Y-54798889D01*
X161277743Y-54717824D01*
X161263370Y-54711260D01*
X161144734Y-54657080D01*
X161028321Y-54640343D01*
X161000000Y-54636271D01*
X160000000Y-54636271D01*
X159935441Y-54640343D01*
X159889366Y-54653035D01*
X159838789Y-54656226D01*
X159745402Y-54642799D01*
X159700000Y-54636271D01*
X157300000Y-54636271D01*
X157299996Y-54636271D01*
X157218355Y-54642799D01*
X157218353Y-54642799D01*
X157190586Y-54651462D01*
X157136013Y-54655826D01*
X157000001Y-54636271D01*
X157000000Y-54636271D01*
X156000000Y-54636271D01*
X155926888Y-54641499D01*
X155786586Y-54682697D01*
X155663580Y-54761748D01*
X155567824Y-54872257D01*
X155567823Y-54872258D01*
X155507080Y-55005265D01*
X155485641Y-55154383D01*
X155484499Y-55154218D01*
X155461905Y-55214805D01*
X155405974Y-55256679D01*
X155362634Y-55264500D01*
X154435695Y-55264500D01*
X154368656Y-55244815D01*
X154362810Y-55240818D01*
X154234434Y-55147547D01*
X154234431Y-55147545D01*
X154234430Y-55147545D01*
X154190227Y-55127864D01*
X154068498Y-55073666D01*
X154068492Y-55073664D01*
X153928585Y-55043926D01*
X153890821Y-55035900D01*
X153709179Y-55035900D01*
X153678034Y-55042519D01*
X153531507Y-55073664D01*
X153531501Y-55073666D01*
X153365570Y-55147545D01*
X153365565Y-55147547D01*
X153218620Y-55254309D01*
X153218613Y-55254315D01*
X153097076Y-55389298D01*
X153006258Y-55546599D01*
X153006257Y-55546601D01*
X152950128Y-55719349D01*
X152950127Y-55719351D01*
X152931140Y-55900000D01*
X152950127Y-56080648D01*
X152950128Y-56080650D01*
X153006257Y-56253398D01*
X153006258Y-56253400D01*
X153060067Y-56346599D01*
X153097077Y-56410703D01*
X153139414Y-56457723D01*
X153218613Y-56545684D01*
X153218620Y-56545690D01*
X153365565Y-56652452D01*
X153365566Y-56652452D01*
X153365570Y-56652455D01*
X153464848Y-56696656D01*
X153531501Y-56726333D01*
X153531507Y-56726335D01*
X153709179Y-56764100D01*
X153709180Y-56764100D01*
X153890819Y-56764100D01*
X153890821Y-56764100D01*
X154068493Y-56726335D01*
X154068495Y-56726333D01*
X154068498Y-56726333D01*
X154119617Y-56703573D01*
X154234430Y-56652455D01*
X154295632Y-56607989D01*
X154362810Y-56559182D01*
X154428616Y-56535702D01*
X154435695Y-56535500D01*
X155362634Y-56535500D01*
X155429673Y-56555185D01*
X155475428Y-56607989D01*
X155486318Y-56650655D01*
X155491499Y-56723110D01*
X155517502Y-56811667D01*
X155528762Y-56850014D01*
X155532697Y-56863413D01*
X155611748Y-56986419D01*
X155611749Y-56986420D01*
X155611750Y-56986421D01*
X155722257Y-57082176D01*
X155788761Y-57112547D01*
X155855265Y-57142919D01*
X155871427Y-57145242D01*
X156000000Y-57163729D01*
X156038176Y-57163729D01*
X156105215Y-57183414D01*
X156150970Y-57236218D01*
X156160914Y-57305376D01*
X156131889Y-57368932D01*
X156125857Y-57375410D01*
X154609921Y-58891344D01*
X154597531Y-58901272D01*
X154597702Y-58901479D01*
X154591696Y-58906447D01*
X154566878Y-58932875D01*
X154543573Y-58957693D01*
X154536503Y-58964763D01*
X154522365Y-58978900D01*
X154522363Y-58978902D01*
X154518008Y-58984516D01*
X154514218Y-58988953D01*
X154481782Y-59023494D01*
X154481781Y-59023496D01*
X154471900Y-59041468D01*
X154461225Y-59057719D01*
X154448652Y-59073929D01*
X154448649Y-59073933D01*
X154429827Y-59117428D01*
X154427257Y-59122674D01*
X154404430Y-59164197D01*
X154399329Y-59184064D01*
X154393030Y-59202462D01*
X154384884Y-59221287D01*
X154384881Y-59221296D01*
X154377469Y-59268098D01*
X154376284Y-59273820D01*
X154364500Y-59319711D01*
X154364500Y-59340225D01*
X154362973Y-59359624D01*
X154359765Y-59379877D01*
X154364225Y-59427059D01*
X154364500Y-59432897D01*
X154364500Y-66985404D01*
X154344815Y-67052443D01*
X154328181Y-67073085D01*
X154317566Y-67083700D01*
X154317563Y-67083702D01*
X154313208Y-67089316D01*
X154309418Y-67093753D01*
X154276982Y-67128294D01*
X154276981Y-67128296D01*
X154267100Y-67146268D01*
X154256425Y-67162519D01*
X154243852Y-67178729D01*
X154243849Y-67178733D01*
X154225027Y-67222228D01*
X154222457Y-67227474D01*
X154199630Y-67268997D01*
X154194529Y-67288864D01*
X154188230Y-67307262D01*
X154180084Y-67326087D01*
X154180081Y-67326096D01*
X154172669Y-67372898D01*
X154171484Y-67378620D01*
X154159700Y-67424511D01*
X154159700Y-67445025D01*
X154158173Y-67464424D01*
X154154965Y-67484677D01*
X154159425Y-67531859D01*
X154159700Y-67537697D01*
X154159700Y-78290204D01*
X154140015Y-78357243D01*
X154123381Y-78377885D01*
X152847181Y-79654085D01*
X152785858Y-79687570D01*
X152716166Y-79682586D01*
X152660233Y-79640714D01*
X152635816Y-79575250D01*
X152635500Y-79566404D01*
X152635500Y-76933182D01*
X152655185Y-76866143D01*
X152667351Y-76850209D01*
X152671988Y-76845059D01*
X152702923Y-76810703D01*
X152793743Y-76653397D01*
X152849873Y-76480646D01*
X152868860Y-76300000D01*
X152849873Y-76119354D01*
X152793743Y-75946603D01*
X152702923Y-75789297D01*
X152655318Y-75736426D01*
X152581386Y-75654315D01*
X152581379Y-75654309D01*
X152434434Y-75547547D01*
X152434431Y-75547545D01*
X152434430Y-75547545D01*
X152390227Y-75527864D01*
X152268498Y-75473666D01*
X152268492Y-75473664D01*
X152128584Y-75443926D01*
X152090821Y-75435900D01*
X151909179Y-75435900D01*
X151878034Y-75442519D01*
X151731507Y-75473664D01*
X151731501Y-75473666D01*
X151565570Y-75547545D01*
X151565565Y-75547547D01*
X151418620Y-75654309D01*
X151418613Y-75654315D01*
X151297076Y-75789298D01*
X151206258Y-75946599D01*
X151206257Y-75946601D01*
X151150128Y-76119349D01*
X151150127Y-76119351D01*
X151131140Y-76300000D01*
X151150127Y-76480648D01*
X151150128Y-76480650D01*
X151206257Y-76653398D01*
X151206258Y-76653400D01*
X151268471Y-76761155D01*
X151297077Y-76810703D01*
X151328012Y-76845059D01*
X151332649Y-76850209D01*
X151362879Y-76913200D01*
X151364500Y-76933182D01*
X151364500Y-90166817D01*
X151344815Y-90233856D01*
X151332650Y-90249789D01*
X151297076Y-90289298D01*
X151206258Y-90446599D01*
X151206257Y-90446601D01*
X151150128Y-90619349D01*
X151150127Y-90619351D01*
X151131140Y-90800000D01*
X151150127Y-90980648D01*
X151150128Y-90980650D01*
X151206257Y-91153398D01*
X151206258Y-91153400D01*
X151272656Y-91268404D01*
X151297077Y-91310703D01*
X151367844Y-91389298D01*
X151374411Y-91396591D01*
X151404641Y-91459582D01*
X151396016Y-91528918D01*
X151369942Y-91567244D01*
X145883607Y-97053581D01*
X145822284Y-97087066D01*
X145795926Y-97089900D01*
X143857776Y-97089900D01*
X143838378Y-97088373D01*
X143828813Y-97086858D01*
X143819317Y-97085354D01*
X143819316Y-97085353D01*
X143774134Y-97089625D01*
X143768296Y-97089900D01*
X140827668Y-97089900D01*
X140760629Y-97070215D01*
X140714874Y-97017411D01*
X140704347Y-96952939D01*
X140706558Y-96931902D01*
X140708860Y-96910000D01*
X140689873Y-96729354D01*
X140633743Y-96556603D01*
X140542923Y-96399297D01*
X140474928Y-96323781D01*
X140421386Y-96264315D01*
X140421379Y-96264309D01*
X140274434Y-96157547D01*
X140274431Y-96157545D01*
X140274430Y-96157545D01*
X140230227Y-96137864D01*
X140108498Y-96083666D01*
X140108492Y-96083664D01*
X139968584Y-96053926D01*
X139930821Y-96045900D01*
X139930820Y-96045900D01*
X139925994Y-96045900D01*
X139858955Y-96026215D01*
X139838313Y-96009581D01*
X136511425Y-92682692D01*
X136477940Y-92621369D01*
X136482924Y-92551677D01*
X136524796Y-92495744D01*
X136548662Y-92481736D01*
X136614430Y-92452455D01*
X136761381Y-92345689D01*
X136778818Y-92326324D01*
X136813497Y-92287808D01*
X136882923Y-92210703D01*
X136973743Y-92053397D01*
X137029873Y-91880646D01*
X137048860Y-91700000D01*
X137029873Y-91519354D01*
X136973743Y-91346603D01*
X136968199Y-91337001D01*
X136935663Y-91280646D01*
X136882923Y-91189297D01*
X136847350Y-91149789D01*
X136817120Y-91086797D01*
X136815500Y-91066817D01*
X136815500Y-87324594D01*
X136835185Y-87257555D01*
X136851819Y-87236913D01*
X145528314Y-78560419D01*
X145589637Y-78526934D01*
X145615995Y-78524100D01*
X145620819Y-78524100D01*
X145620821Y-78524100D01*
X145798493Y-78486335D01*
X145798495Y-78486333D01*
X145798498Y-78486333D01*
X145890064Y-78445565D01*
X145959314Y-78436280D01*
X146022591Y-78465908D01*
X146059804Y-78525043D01*
X146064500Y-78558844D01*
X146064500Y-81112497D01*
X146047887Y-81174497D01*
X146006258Y-81246599D01*
X146006257Y-81246601D01*
X145950128Y-81419349D01*
X145950127Y-81419351D01*
X145931140Y-81600000D01*
X145950127Y-81780648D01*
X145950128Y-81780650D01*
X146006257Y-81953398D01*
X146006258Y-81953400D01*
X146059541Y-82045689D01*
X146097077Y-82110703D01*
X146119853Y-82135998D01*
X146218613Y-82245684D01*
X146218620Y-82245690D01*
X146365565Y-82352452D01*
X146365566Y-82352452D01*
X146365570Y-82352455D01*
X146441084Y-82386076D01*
X146531501Y-82426333D01*
X146531507Y-82426335D01*
X146709179Y-82464100D01*
X146709180Y-82464100D01*
X146890819Y-82464100D01*
X146890821Y-82464100D01*
X147041719Y-82432026D01*
X147111386Y-82437342D01*
X147167120Y-82479479D01*
X147191225Y-82545059D01*
X147191500Y-82553316D01*
X147191500Y-89588254D01*
X147190969Y-89596356D01*
X147186250Y-89632199D01*
X147186250Y-89632203D01*
X147191132Y-89669289D01*
X147191134Y-89669305D01*
X147195230Y-89700415D01*
X147207161Y-89791049D01*
X147207163Y-89791054D01*
X147268473Y-89939071D01*
X147268473Y-89939072D01*
X147268475Y-89939075D01*
X147268476Y-89939076D01*
X147341523Y-90034272D01*
X147341525Y-90034274D01*
X147366013Y-90066187D01*
X147377373Y-90074904D01*
X147394698Y-90088198D01*
X147400794Y-90093543D01*
X147731248Y-90423997D01*
X147979238Y-90671987D01*
X148012723Y-90733310D01*
X148011763Y-90790108D01*
X147970095Y-90954647D01*
X147970093Y-90954658D01*
X147950970Y-91185453D01*
X147950970Y-91185466D01*
X147970093Y-91416261D01*
X147970095Y-91416272D01*
X148026949Y-91640783D01*
X148119982Y-91852875D01*
X148246653Y-92046761D01*
X148403517Y-92217160D01*
X148403521Y-92217163D01*
X148586275Y-92359406D01*
X148586280Y-92359410D01*
X148777706Y-92463005D01*
X148789967Y-92469640D01*
X148864593Y-92495259D01*
X149009014Y-92544839D01*
X149009016Y-92544839D01*
X149009018Y-92544840D01*
X149237460Y-92582960D01*
X149237461Y-92582960D01*
X149469059Y-92582960D01*
X149469060Y-92582960D01*
X149697502Y-92544840D01*
X149916553Y-92469640D01*
X150120240Y-92359410D01*
X150303005Y-92217158D01*
X150459864Y-92046764D01*
X150586537Y-91852876D01*
X150679570Y-91640783D01*
X150736425Y-91416269D01*
X150736426Y-91416261D01*
X150755550Y-91185466D01*
X150755550Y-91185453D01*
X150736426Y-90954658D01*
X150736424Y-90954647D01*
X150679570Y-90730136D01*
X150586537Y-90518044D01*
X150459866Y-90324158D01*
X150391404Y-90249789D01*
X150303005Y-90153762D01*
X150303004Y-90153761D01*
X150303002Y-90153759D01*
X150302998Y-90153756D01*
X150120244Y-90011513D01*
X150120239Y-90011509D01*
X149916554Y-89901280D01*
X149916548Y-89901278D01*
X149697505Y-89826080D01*
X149487571Y-89791049D01*
X149469060Y-89787960D01*
X149237460Y-89787960D01*
X149218949Y-89791049D01*
X149009015Y-89826080D01*
X148967143Y-89840454D01*
X148897344Y-89843602D01*
X148839202Y-89810853D01*
X148444819Y-89416470D01*
X148411334Y-89355147D01*
X148408500Y-89328789D01*
X148408500Y-89150960D01*
X148428185Y-89083921D01*
X148480989Y-89038166D01*
X148532500Y-89026960D01*
X150290898Y-89026960D01*
X150290914Y-89026959D01*
X150317952Y-89024051D01*
X150351461Y-89020449D01*
X150488464Y-88969349D01*
X150605521Y-88881721D01*
X150693149Y-88764664D01*
X150744249Y-88627661D01*
X150749138Y-88582186D01*
X150750759Y-88567114D01*
X150750760Y-88567097D01*
X150750760Y-86691822D01*
X150750759Y-86691805D01*
X150747340Y-86660014D01*
X150744249Y-86631259D01*
X150739808Y-86619353D01*
X150711121Y-86542440D01*
X150693149Y-86494256D01*
X150605521Y-86377199D01*
X150488464Y-86289571D01*
X150460310Y-86279070D01*
X150351463Y-86238471D01*
X150290914Y-86231960D01*
X150290898Y-86231960D01*
X150085760Y-86231960D01*
X150018721Y-86212275D01*
X149972966Y-86159471D01*
X149961760Y-86107960D01*
X149961760Y-71697211D01*
X149962291Y-71689110D01*
X149967011Y-71653260D01*
X149967011Y-71653258D01*
X149946098Y-71494410D01*
X149946096Y-71494405D01*
X149939736Y-71479051D01*
X149910138Y-71407594D01*
X149884786Y-71346388D01*
X149884783Y-71346383D01*
X149877490Y-71336879D01*
X149864472Y-71319913D01*
X149810495Y-71249568D01*
X149810475Y-71249544D01*
X149805571Y-71243154D01*
X149787247Y-71219273D01*
X149787245Y-71219271D01*
X149787244Y-71219270D01*
X149771199Y-71206959D01*
X149758553Y-71197255D01*
X149752463Y-71191914D01*
X144404190Y-65843640D01*
X144370705Y-65782318D01*
X144375689Y-65712626D01*
X144417561Y-65656693D01*
X144483025Y-65632276D01*
X144491871Y-65631960D01*
X145511086Y-65631960D01*
X145578125Y-65651645D01*
X145623880Y-65704449D01*
X145634406Y-65768920D01*
X145631140Y-65799999D01*
X145631140Y-65800000D01*
X145650127Y-65980648D01*
X145650128Y-65980650D01*
X145706257Y-66153398D01*
X145706258Y-66153400D01*
X145750591Y-66230186D01*
X145797077Y-66310703D01*
X145839414Y-66357723D01*
X145918613Y-66445684D01*
X145918620Y-66445690D01*
X146065565Y-66552452D01*
X146065566Y-66552452D01*
X146065570Y-66552455D01*
X146135842Y-66583742D01*
X146231501Y-66626333D01*
X146231507Y-66626335D01*
X146409179Y-66664100D01*
X146409180Y-66664100D01*
X146590819Y-66664100D01*
X146590821Y-66664100D01*
X146723332Y-66635934D01*
X146792999Y-66641250D01*
X146836794Y-66669543D01*
X148233238Y-68065987D01*
X148266723Y-68127310D01*
X148265763Y-68184108D01*
X148224095Y-68348647D01*
X148224093Y-68348658D01*
X148204970Y-68579453D01*
X148204970Y-68579466D01*
X148224093Y-68810261D01*
X148224095Y-68810272D01*
X148280949Y-69034783D01*
X148373982Y-69246875D01*
X148500653Y-69440761D01*
X148657517Y-69611160D01*
X148657521Y-69611163D01*
X148840275Y-69753406D01*
X148840280Y-69753410D01*
X148911994Y-69792220D01*
X149043967Y-69863640D01*
X149153492Y-69901240D01*
X149263014Y-69938839D01*
X149263016Y-69938839D01*
X149263018Y-69938840D01*
X149491460Y-69976960D01*
X149491461Y-69976960D01*
X149723059Y-69976960D01*
X149723060Y-69976960D01*
X149951502Y-69938840D01*
X150170553Y-69863640D01*
X150374240Y-69753410D01*
X150557005Y-69611158D01*
X150713864Y-69440764D01*
X150840537Y-69246876D01*
X150933570Y-69034783D01*
X150990425Y-68810269D01*
X150990426Y-68810261D01*
X151009550Y-68579466D01*
X151009550Y-68579453D01*
X150990426Y-68348658D01*
X150990424Y-68348647D01*
X150933570Y-68124136D01*
X150840537Y-67912044D01*
X150713866Y-67718158D01*
X150644008Y-67642272D01*
X150557005Y-67547762D01*
X150557004Y-67547761D01*
X150557002Y-67547759D01*
X150556998Y-67547756D01*
X150374244Y-67405513D01*
X150374239Y-67405509D01*
X150170554Y-67295280D01*
X150170548Y-67295278D01*
X149951505Y-67220080D01*
X149728423Y-67182855D01*
X149723060Y-67181960D01*
X149491460Y-67181960D01*
X149486097Y-67182855D01*
X149263015Y-67220080D01*
X149221143Y-67234454D01*
X149151344Y-67237602D01*
X149093202Y-67204853D01*
X148514448Y-66626099D01*
X148480963Y-66564776D01*
X148485947Y-66495084D01*
X148527819Y-66439151D01*
X148593283Y-66414734D01*
X148615383Y-66415128D01*
X148630896Y-66416796D01*
X148669608Y-66420959D01*
X148669622Y-66420960D01*
X150544898Y-66420960D01*
X150544914Y-66420959D01*
X150571952Y-66418051D01*
X150605461Y-66414449D01*
X150742464Y-66363349D01*
X150859521Y-66275721D01*
X150947149Y-66158664D01*
X150998249Y-66021661D01*
X151002658Y-65980648D01*
X151004759Y-65961114D01*
X151004760Y-65961097D01*
X151004760Y-64085822D01*
X151004759Y-64085805D01*
X151001417Y-64054730D01*
X150998249Y-64025259D01*
X150996791Y-64021351D01*
X150965543Y-63937571D01*
X150947149Y-63888256D01*
X150859521Y-63771199D01*
X150742464Y-63683571D01*
X150734622Y-63680646D01*
X150605463Y-63632471D01*
X150544914Y-63625960D01*
X150544898Y-63625960D01*
X148669622Y-63625960D01*
X148669605Y-63625960D01*
X148609057Y-63632471D01*
X148609055Y-63632471D01*
X148472055Y-63683571D01*
X148354999Y-63771199D01*
X148267371Y-63888255D01*
X148216271Y-64025255D01*
X148216271Y-64025257D01*
X148209760Y-64085805D01*
X148209760Y-64290960D01*
X148190075Y-64357999D01*
X148137271Y-64403754D01*
X148085760Y-64414960D01*
X147483982Y-64414960D01*
X147416943Y-64395275D01*
X147371188Y-64342471D01*
X147360661Y-64278000D01*
X147368860Y-64200000D01*
X147349873Y-64019354D01*
X147293743Y-63846603D01*
X147283109Y-63828185D01*
X147250209Y-63771199D01*
X147202923Y-63689297D01*
X147145894Y-63625960D01*
X147081386Y-63554315D01*
X147081379Y-63554309D01*
X146934434Y-63447547D01*
X146934431Y-63447545D01*
X146934430Y-63447545D01*
X146890227Y-63427864D01*
X146768498Y-63373666D01*
X146768492Y-63373664D01*
X146628585Y-63343926D01*
X146590821Y-63335900D01*
X146409179Y-63335900D01*
X146391847Y-63339584D01*
X146231507Y-63373664D01*
X146231500Y-63373667D01*
X146226893Y-63375718D01*
X146157642Y-63384995D01*
X146094369Y-63355360D01*
X146057161Y-63296222D01*
X146053148Y-63249479D01*
X146068860Y-63100000D01*
X146049873Y-62919354D01*
X145993743Y-62746603D01*
X145902923Y-62589297D01*
X145837120Y-62516215D01*
X145781386Y-62454315D01*
X145781379Y-62454309D01*
X145634434Y-62347547D01*
X145634431Y-62347545D01*
X145634430Y-62347545D01*
X145579701Y-62323178D01*
X145468498Y-62273666D01*
X145468492Y-62273664D01*
X145328585Y-62243926D01*
X145290821Y-62235900D01*
X145290820Y-62235900D01*
X145247811Y-62235900D01*
X145180772Y-62216215D01*
X145160130Y-62199581D01*
X138961354Y-56000805D01*
X138956001Y-55994702D01*
X138953216Y-55991073D01*
X138933987Y-55966013D01*
X138933985Y-55966011D01*
X138933984Y-55966010D01*
X138902075Y-55941526D01*
X138902074Y-55941525D01*
X138902072Y-55941523D01*
X138847959Y-55900000D01*
X138806877Y-55868476D01*
X138806873Y-55868474D01*
X138658850Y-55807161D01*
X138639457Y-55804608D01*
X138537704Y-55791212D01*
X138537678Y-55791210D01*
X138500001Y-55786250D01*
X138499999Y-55786250D01*
X138489527Y-55787628D01*
X138464151Y-55790969D01*
X138456054Y-55791500D01*
X130543953Y-55791500D01*
X130535854Y-55790969D01*
X130513873Y-55788075D01*
X130500001Y-55786249D01*
X130499999Y-55786249D01*
X130341150Y-55807161D01*
X130341145Y-55807163D01*
X130193128Y-55868473D01*
X130193123Y-55868476D01*
X130152041Y-55900000D01*
X130097929Y-55941522D01*
X130097925Y-55941525D01*
X130079762Y-55955461D01*
X130066010Y-55966015D01*
X130043996Y-55994703D01*
X130038645Y-56000805D01*
X126184270Y-59855181D01*
X126122947Y-59888666D01*
X126096589Y-59891500D01*
X123303411Y-59891500D01*
X123236372Y-59871815D01*
X123215730Y-59855181D01*
X123194819Y-59834270D01*
X123161334Y-59772947D01*
X123158500Y-59746589D01*
X123158500Y-54711904D01*
X123178185Y-54644865D01*
X123203833Y-54616052D01*
X123266568Y-54564568D01*
X123392595Y-54411004D01*
X123486241Y-54235804D01*
X123543908Y-54045701D01*
X123563380Y-53848000D01*
X123543908Y-53650299D01*
X123486241Y-53460196D01*
X123486239Y-53460193D01*
X123486239Y-53460191D01*
X123392598Y-53285001D01*
X123392594Y-53284994D01*
X123266568Y-53131431D01*
X123113007Y-53005407D01*
X123111609Y-53004473D01*
X123111041Y-53003794D01*
X123108295Y-53001540D01*
X123108722Y-53001019D01*
X123066804Y-52950861D01*
X123056499Y-52901370D01*
X123056499Y-52348894D01*
X123056499Y-51772573D01*
X123076183Y-51705538D01*
X123128986Y-51659783D01*
X123180189Y-51648577D01*
X143000000Y-51600000D01*
X143000000Y-38623999D01*
X143019685Y-38556961D01*
X143072489Y-38511206D01*
X143124000Y-38500000D01*
X164576197Y-38500000D01*
X164643236Y-38519685D01*
G37*
%TD.AperFunction*%
%TA.AperFunction,Conductor*%
G36*
X161083834Y-78781490D02*
G01*
X161139767Y-78823362D01*
X161164184Y-78888826D01*
X161164500Y-78897672D01*
X161164500Y-96485405D01*
X161144815Y-96552444D01*
X161128181Y-96573086D01*
X160101686Y-97599581D01*
X160040363Y-97633066D01*
X160014005Y-97635900D01*
X160009179Y-97635900D01*
X159978034Y-97642519D01*
X159831507Y-97673664D01*
X159831501Y-97673666D01*
X159665571Y-97747544D01*
X159546655Y-97833941D01*
X159480848Y-97857420D01*
X159412794Y-97841594D01*
X159386089Y-97821303D01*
X158988819Y-97424032D01*
X158955334Y-97362709D01*
X158952500Y-97336351D01*
X158952500Y-96920736D01*
X158969112Y-96858738D01*
X158983743Y-96833397D01*
X159039873Y-96660646D01*
X159058860Y-96480000D01*
X159039873Y-96299354D01*
X158983743Y-96126603D01*
X158958953Y-96083666D01*
X158925784Y-96026215D01*
X158892923Y-95969297D01*
X158845318Y-95916426D01*
X158771386Y-95834315D01*
X158771379Y-95834309D01*
X158624434Y-95727547D01*
X158624431Y-95727545D01*
X158624430Y-95727545D01*
X158568241Y-95702528D01*
X158458498Y-95653666D01*
X158458492Y-95653664D01*
X158318584Y-95623926D01*
X158280821Y-95615900D01*
X158099179Y-95615900D01*
X158068034Y-95622519D01*
X157921507Y-95653664D01*
X157921501Y-95653666D01*
X157755570Y-95727545D01*
X157755565Y-95727547D01*
X157608620Y-95834309D01*
X157608613Y-95834315D01*
X157487076Y-95969298D01*
X157396258Y-96126599D01*
X157396257Y-96126601D01*
X157340128Y-96299349D01*
X157340127Y-96299351D01*
X157321140Y-96480000D01*
X157340127Y-96660648D01*
X157340128Y-96660650D01*
X157396254Y-96833391D01*
X157396255Y-96833392D01*
X157396257Y-96833397D01*
X157410887Y-96858738D01*
X157427500Y-96920736D01*
X157427500Y-97638969D01*
X157426191Y-97656938D01*
X157422633Y-97681226D01*
X157427264Y-97734142D01*
X157427500Y-97739549D01*
X157427500Y-97747965D01*
X157431368Y-97781062D01*
X157438168Y-97858794D01*
X157439628Y-97865861D01*
X157439589Y-97865869D01*
X157441299Y-97873580D01*
X157441337Y-97873572D01*
X157443000Y-97880592D01*
X157469690Y-97953920D01*
X157494236Y-98027995D01*
X157497288Y-98034539D01*
X157497250Y-98034556D01*
X157500686Y-98041653D01*
X157500723Y-98041635D01*
X157503962Y-98048083D01*
X157503964Y-98048086D01*
X157503966Y-98048091D01*
X157546848Y-98113289D01*
X157546848Y-98113290D01*
X157587816Y-98179707D01*
X157592294Y-98185370D01*
X157592261Y-98185395D01*
X157597245Y-98191513D01*
X157597278Y-98191487D01*
X157601912Y-98197009D01*
X157601915Y-98197014D01*
X157601918Y-98197017D01*
X157601920Y-98197019D01*
X157658684Y-98250573D01*
X158481181Y-99073070D01*
X158514666Y-99134393D01*
X158517500Y-99160751D01*
X158517500Y-100410167D01*
X158497815Y-100477206D01*
X158488488Y-100489875D01*
X158473027Y-100508299D01*
X158469379Y-100512281D01*
X158463425Y-100518236D01*
X158453090Y-100531306D01*
X158442754Y-100544379D01*
X158416636Y-100575506D01*
X158392603Y-100604148D01*
X158388637Y-100610178D01*
X158388603Y-100610156D01*
X158384361Y-100616815D01*
X158384395Y-100616836D01*
X158380607Y-100622977D01*
X158380605Y-100622980D01*
X158347625Y-100693705D01*
X158335917Y-100717017D01*
X158312605Y-100763434D01*
X158310135Y-100770221D01*
X158310097Y-100770207D01*
X158307506Y-100777661D01*
X158307546Y-100777674D01*
X158305274Y-100784528D01*
X158289498Y-100860934D01*
X158271499Y-100936880D01*
X158270661Y-100944052D01*
X158270619Y-100944047D01*
X158269818Y-100951893D01*
X158269860Y-100951897D01*
X158269230Y-100959086D01*
X158271500Y-101037075D01*
X158271500Y-101165222D01*
X155669500Y-101151361D01*
X155669500Y-95090155D01*
X155689185Y-95023116D01*
X155720612Y-94989839D01*
X155781381Y-94945689D01*
X155902923Y-94810703D01*
X155993743Y-94653397D01*
X156049873Y-94480646D01*
X156068860Y-94300000D01*
X156049873Y-94119354D01*
X156011093Y-94000000D01*
X156002131Y-93972418D01*
X156000136Y-93902577D01*
X156036217Y-93842744D01*
X156098918Y-93811916D01*
X156120062Y-93810100D01*
X158307757Y-93810100D01*
X158323129Y-93811797D01*
X158323159Y-93811485D01*
X158330926Y-93812219D01*
X158330927Y-93812218D01*
X158330928Y-93812219D01*
X158398368Y-93810100D01*
X158427183Y-93810100D01*
X158427184Y-93810100D01*
X158428466Y-93809937D01*
X158433826Y-93809260D01*
X158439648Y-93808802D01*
X158484999Y-93807378D01*
X158503539Y-93801990D01*
X158522582Y-93798047D01*
X158541732Y-93795629D01*
X158583937Y-93778917D01*
X158589447Y-93777031D01*
X158633025Y-93764372D01*
X158649640Y-93754545D01*
X158667096Y-93745993D01*
X158685054Y-93738884D01*
X158721793Y-93712190D01*
X158726626Y-93709015D01*
X158765706Y-93685905D01*
X158779347Y-93672263D01*
X158794135Y-93659631D01*
X158809762Y-93648279D01*
X158838694Y-93613304D01*
X158842616Y-93608993D01*
X159521960Y-92929649D01*
X159583281Y-92896166D01*
X159597489Y-92893929D01*
X159597538Y-92893923D01*
X159597701Y-92893908D01*
X159787804Y-92836241D01*
X159963004Y-92742595D01*
X160116568Y-92616568D01*
X160242595Y-92463004D01*
X160336241Y-92287804D01*
X160393908Y-92097701D01*
X160413380Y-91900000D01*
X160393908Y-91702299D01*
X160336241Y-91512196D01*
X160336239Y-91512193D01*
X160336239Y-91512191D01*
X160242598Y-91337001D01*
X160242594Y-91336994D01*
X160116568Y-91183431D01*
X159963005Y-91057405D01*
X159962998Y-91057401D01*
X159787808Y-90963760D01*
X159641410Y-90919351D01*
X159597701Y-90906092D01*
X159597699Y-90906091D01*
X159597701Y-90906091D01*
X159400000Y-90886620D01*
X159202302Y-90906091D01*
X159202298Y-90906092D01*
X159202299Y-90906092D01*
X159012196Y-90963759D01*
X159012194Y-90963759D01*
X159012184Y-90963763D01*
X159006565Y-90966091D01*
X159005916Y-90964524D01*
X158945452Y-90977108D01*
X158881101Y-90952776D01*
X158876207Y-90949112D01*
X158876206Y-90949111D01*
X158739203Y-90898011D01*
X158678654Y-90891500D01*
X158678638Y-90891500D01*
X157581362Y-90891500D01*
X157581345Y-90891500D01*
X157520797Y-90898011D01*
X157520795Y-90898011D01*
X157383795Y-90949111D01*
X157266739Y-91036739D01*
X157179111Y-91153794D01*
X157168058Y-91183431D01*
X157158432Y-91209235D01*
X157116562Y-91265167D01*
X157051098Y-91289584D01*
X157042252Y-91289900D01*
X156086616Y-91289900D01*
X156019577Y-91270215D01*
X155973822Y-91217411D01*
X155963295Y-91152940D01*
X155968860Y-91100000D01*
X155949873Y-90919354D01*
X155893743Y-90746603D01*
X155886161Y-90733471D01*
X155835350Y-90645463D01*
X155802923Y-90589297D01*
X155767350Y-90549789D01*
X155737120Y-90486797D01*
X155735500Y-90466817D01*
X155735500Y-89433182D01*
X155755185Y-89366143D01*
X155767351Y-89350209D01*
X155802923Y-89310703D01*
X155893743Y-89153397D01*
X155949873Y-88980646D01*
X155968860Y-88800000D01*
X155949873Y-88619354D01*
X155893743Y-88446603D01*
X155872334Y-88409522D01*
X155842580Y-88357986D01*
X155802923Y-88289297D01*
X155740421Y-88219881D01*
X155681386Y-88154315D01*
X155681379Y-88154309D01*
X155534434Y-88047547D01*
X155534431Y-88047545D01*
X155534430Y-88047545D01*
X155472361Y-88019910D01*
X155368498Y-87973666D01*
X155368492Y-87973664D01*
X155228584Y-87943926D01*
X155190821Y-87935900D01*
X155009179Y-87935900D01*
X154978034Y-87942519D01*
X154831507Y-87973664D01*
X154831501Y-87973666D01*
X154809934Y-87983269D01*
X154740684Y-87992553D01*
X154677408Y-87962924D01*
X154640195Y-87903788D01*
X154635500Y-87869989D01*
X154635500Y-85477028D01*
X154655185Y-85409989D01*
X154707989Y-85364234D01*
X154709066Y-85363748D01*
X154721848Y-85358056D01*
X154734430Y-85352455D01*
X154881381Y-85245689D01*
X155002923Y-85110703D01*
X155093743Y-84953397D01*
X155149873Y-84780646D01*
X155168860Y-84600000D01*
X155149873Y-84419354D01*
X155093743Y-84246603D01*
X155089648Y-84239511D01*
X155045180Y-84162489D01*
X155002923Y-84089297D01*
X154924717Y-84002440D01*
X154881386Y-83954315D01*
X154881379Y-83954309D01*
X154734434Y-83847547D01*
X154734431Y-83847545D01*
X154734430Y-83847545D01*
X154690227Y-83827864D01*
X154568498Y-83773666D01*
X154568492Y-83773664D01*
X154428584Y-83743926D01*
X154390821Y-83735900D01*
X154209179Y-83735900D01*
X154178034Y-83742519D01*
X154031507Y-83773664D01*
X154031501Y-83773666D01*
X153865570Y-83847545D01*
X153865565Y-83847547D01*
X153732385Y-83944309D01*
X153666579Y-83967789D01*
X153598525Y-83951964D01*
X153549830Y-83901858D01*
X153535500Y-83843991D01*
X153535500Y-82430010D01*
X153555185Y-82362971D01*
X153607989Y-82317216D01*
X153677147Y-82307272D01*
X153709932Y-82316729D01*
X153731507Y-82326335D01*
X153909179Y-82364100D01*
X153909180Y-82364100D01*
X154090819Y-82364100D01*
X154090821Y-82364100D01*
X154268493Y-82326335D01*
X154268495Y-82326333D01*
X154268498Y-82326333D01*
X154311309Y-82307272D01*
X154434430Y-82252455D01*
X154470384Y-82226333D01*
X154562810Y-82159182D01*
X154628616Y-82135702D01*
X154635695Y-82135500D01*
X155412512Y-82135500D01*
X155479551Y-82155185D01*
X155500193Y-82171819D01*
X158008192Y-84679819D01*
X158041677Y-84741142D01*
X158036693Y-84810834D01*
X157994821Y-84866767D01*
X157929357Y-84891184D01*
X157920511Y-84891500D01*
X157601345Y-84891500D01*
X157540797Y-84898011D01*
X157540795Y-84898011D01*
X157403795Y-84949111D01*
X157286739Y-85036739D01*
X157199111Y-85153795D01*
X157148011Y-85290795D01*
X157148011Y-85290797D01*
X157141500Y-85351345D01*
X157141500Y-86448654D01*
X157148011Y-86509202D01*
X157148011Y-86509204D01*
X157181487Y-86598953D01*
X157199111Y-86646204D01*
X157286739Y-86763261D01*
X157403796Y-86850889D01*
X157492087Y-86883820D01*
X157540793Y-86901987D01*
X157540799Y-86901989D01*
X157568050Y-86904918D01*
X157601345Y-86908499D01*
X157601362Y-86908500D01*
X158698638Y-86908500D01*
X158698654Y-86908499D01*
X158725692Y-86905591D01*
X158759201Y-86901989D01*
X158759205Y-86901987D01*
X158759207Y-86901987D01*
X158896199Y-86850891D01*
X158896201Y-86850890D01*
X158896200Y-86850890D01*
X158896204Y-86850889D01*
X158901098Y-86847225D01*
X158966560Y-86822807D01*
X159025929Y-86835441D01*
X159026564Y-86833909D01*
X159032185Y-86836237D01*
X159032193Y-86836239D01*
X159032196Y-86836241D01*
X159222299Y-86893908D01*
X159222298Y-86893908D01*
X159241770Y-86895825D01*
X159420000Y-86913380D01*
X159617701Y-86893908D01*
X159807804Y-86836241D01*
X159807812Y-86836237D01*
X159900117Y-86786899D01*
X159983004Y-86742595D01*
X160136568Y-86616568D01*
X160262595Y-86463004D01*
X160338636Y-86320740D01*
X160356239Y-86287808D01*
X160356239Y-86287807D01*
X160356241Y-86287804D01*
X160413908Y-86097701D01*
X160433380Y-85900000D01*
X160413908Y-85702299D01*
X160356241Y-85512196D01*
X160356239Y-85512193D01*
X160356239Y-85512191D01*
X160262598Y-85337001D01*
X160262594Y-85336994D01*
X160136570Y-85183433D01*
X160090707Y-85145794D01*
X160051373Y-85088048D01*
X160050299Y-85084545D01*
X160049762Y-85082699D01*
X160046942Y-85072992D01*
X160042997Y-85053943D01*
X160040427Y-85033595D01*
X160022973Y-84989512D01*
X160021098Y-84984036D01*
X160007869Y-84938501D01*
X159997427Y-84920845D01*
X159988869Y-84903376D01*
X159981318Y-84884304D01*
X159968576Y-84866767D01*
X159953448Y-84845946D01*
X159950257Y-84841086D01*
X159926138Y-84800301D01*
X159926129Y-84800291D01*
X159911639Y-84785801D01*
X159899000Y-84771004D01*
X159886942Y-84754407D01*
X159886939Y-84754405D01*
X159886939Y-84754404D01*
X159850416Y-84724190D01*
X159846094Y-84720256D01*
X157601620Y-82475781D01*
X157568135Y-82414458D01*
X157573119Y-82344766D01*
X157614991Y-82288833D01*
X157680455Y-82264416D01*
X157689301Y-82264100D01*
X157690819Y-82264100D01*
X157690821Y-82264100D01*
X157868493Y-82226335D01*
X157868495Y-82226333D01*
X157868498Y-82226333D01*
X157890949Y-82216336D01*
X158034430Y-82152455D01*
X158181381Y-82045689D01*
X158192643Y-82033182D01*
X158212726Y-82010877D01*
X158302923Y-81910703D01*
X158393743Y-81753397D01*
X158449873Y-81580646D01*
X158468860Y-81400000D01*
X158449873Y-81219354D01*
X158393743Y-81046603D01*
X158302923Y-80889297D01*
X158267350Y-80849789D01*
X158237120Y-80786797D01*
X158235500Y-80766817D01*
X158235500Y-80687729D01*
X158255185Y-80620690D01*
X158307989Y-80574935D01*
X158359500Y-80563729D01*
X158800004Y-80563729D01*
X158881634Y-80557201D01*
X158881635Y-80557200D01*
X158881645Y-80557200D01*
X158909408Y-80548537D01*
X158963983Y-80544172D01*
X159100000Y-80563729D01*
X159100002Y-80563729D01*
X160100000Y-80563729D01*
X160173111Y-80558500D01*
X160177545Y-80557198D01*
X160313411Y-80517304D01*
X160436421Y-80438250D01*
X160532176Y-80327743D01*
X160592919Y-80194734D01*
X160613729Y-80050000D01*
X160613728Y-79200443D01*
X160633412Y-79133405D01*
X160650047Y-79112763D01*
X160873984Y-78888826D01*
X160952820Y-78809990D01*
X161014142Y-78776506D01*
X161083834Y-78781490D01*
G37*
%TD.AperFunction*%
%TA.AperFunction,Conductor*%
G36*
X151752207Y-96933219D02*
G01*
X151871507Y-96986335D01*
X152049179Y-97024100D01*
X152049180Y-97024100D01*
X152230817Y-97024100D01*
X152230821Y-97024100D01*
X152248720Y-97020295D01*
X152318384Y-97025610D01*
X152374118Y-97067746D01*
X152398225Y-97133326D01*
X152398500Y-97141585D01*
X152398500Y-101133936D01*
X146888953Y-101104587D01*
X146883873Y-101056254D01*
X146827743Y-100883503D01*
X146819437Y-100869116D01*
X146736924Y-100726198D01*
X146736919Y-100726191D01*
X146675950Y-100658478D01*
X146645720Y-100595486D01*
X146644100Y-100575506D01*
X146644100Y-99865890D01*
X146663785Y-99798851D01*
X146716589Y-99753096D01*
X146785747Y-99743152D01*
X146793867Y-99744597D01*
X146902839Y-99767760D01*
X146902840Y-99767760D01*
X147084479Y-99767760D01*
X147084481Y-99767760D01*
X147262153Y-99729995D01*
X147262155Y-99729993D01*
X147262158Y-99729993D01*
X147284609Y-99719996D01*
X147428090Y-99656115D01*
X147575041Y-99549349D01*
X147577894Y-99546181D01*
X147601374Y-99520103D01*
X147696583Y-99414363D01*
X147787403Y-99257057D01*
X147811319Y-99183449D01*
X147841566Y-99134090D01*
X150016838Y-96958819D01*
X150078162Y-96925334D01*
X150104520Y-96922500D01*
X151701774Y-96922500D01*
X151752207Y-96933219D01*
G37*
%TD.AperFunction*%
%TA.AperFunction,Conductor*%
G36*
X131821614Y-59228185D02*
G01*
X131867369Y-59280989D01*
X131877313Y-59350147D01*
X131848288Y-59413703D01*
X131825699Y-59434075D01*
X131767214Y-59475026D01*
X131610023Y-59632217D01*
X131482514Y-59814319D01*
X131482512Y-59814323D01*
X131388561Y-60015800D01*
X131331022Y-60230535D01*
X131331021Y-60230542D01*
X131311647Y-60451997D01*
X131311647Y-60452003D01*
X131322456Y-60575564D01*
X131308689Y-60644064D01*
X131286609Y-60674051D01*
X129806499Y-62154161D01*
X129792872Y-62165939D01*
X129773176Y-62180603D01*
X129739027Y-62221300D01*
X129735379Y-62225281D01*
X129729425Y-62231236D01*
X129719090Y-62244307D01*
X129708754Y-62257379D01*
X129672992Y-62300000D01*
X129658603Y-62317148D01*
X129654637Y-62323178D01*
X129654603Y-62323156D01*
X129650361Y-62329815D01*
X129650395Y-62329836D01*
X129646607Y-62335977D01*
X129646605Y-62335980D01*
X129613625Y-62406705D01*
X129603825Y-62426219D01*
X129578605Y-62476434D01*
X129576135Y-62483221D01*
X129576097Y-62483207D01*
X129573506Y-62490661D01*
X129573546Y-62490674D01*
X129571274Y-62497528D01*
X129555498Y-62573934D01*
X129537499Y-62649880D01*
X129536661Y-62657052D01*
X129536619Y-62657047D01*
X129535818Y-62664893D01*
X129535860Y-62664897D01*
X129535230Y-62672086D01*
X129537500Y-62750075D01*
X129537500Y-85000433D01*
X129535818Y-85016893D01*
X129535860Y-85016897D01*
X129535230Y-85024086D01*
X129537500Y-85102075D01*
X129537500Y-98713500D01*
X129517815Y-98780539D01*
X129465011Y-98826294D01*
X129413500Y-98837500D01*
X105367200Y-98837500D01*
X105300161Y-98817815D01*
X105279519Y-98801181D01*
X105098819Y-98620481D01*
X105065334Y-98559158D01*
X105062500Y-98532800D01*
X105062500Y-83690500D01*
X105082185Y-83623461D01*
X105134989Y-83577706D01*
X105186500Y-83566500D01*
X105597364Y-83566500D01*
X105664403Y-83586185D01*
X105698937Y-83619374D01*
X105702023Y-83623781D01*
X105859219Y-83780977D01*
X106041323Y-83908488D01*
X106139599Y-83954315D01*
X106155261Y-83961618D01*
X106207700Y-84007790D01*
X106226852Y-84074984D01*
X106206636Y-84141865D01*
X106155261Y-84186382D01*
X106041323Y-84239512D01*
X106041319Y-84239514D01*
X105859217Y-84367023D01*
X105702023Y-84524217D01*
X105574514Y-84706319D01*
X105574512Y-84706323D01*
X105480561Y-84907800D01*
X105423022Y-85122535D01*
X105423021Y-85122542D01*
X105403647Y-85343997D01*
X105403647Y-85344002D01*
X105423021Y-85565457D01*
X105423022Y-85565465D01*
X105480558Y-85780191D01*
X105480559Y-85780193D01*
X105480560Y-85780196D01*
X105514957Y-85853960D01*
X105574511Y-85981676D01*
X105574512Y-85981677D01*
X105702023Y-86163781D01*
X105859219Y-86320977D01*
X106041323Y-86448488D01*
X106165317Y-86506307D01*
X106217756Y-86552479D01*
X106236908Y-86619673D01*
X106216692Y-86686554D01*
X106165317Y-86731071D01*
X106045586Y-86786903D01*
X105980812Y-86832257D01*
X105980811Y-86832258D01*
X106509723Y-87361170D01*
X106543208Y-87422493D01*
X106538224Y-87492185D01*
X106496352Y-87548118D01*
X106481059Y-87557906D01*
X106441749Y-87579179D01*
X106441748Y-87579179D01*
X106355626Y-87672733D01*
X106355626Y-87672734D01*
X106354911Y-87674365D01*
X106353340Y-87676233D01*
X106350008Y-87681334D01*
X106349391Y-87680931D01*
X106309952Y-87727849D01*
X106243215Y-87748535D01*
X106175888Y-87729857D01*
X106153677Y-87712230D01*
X105627258Y-87185811D01*
X105627257Y-87185812D01*
X105581903Y-87250586D01*
X105488579Y-87450720D01*
X105488575Y-87450729D01*
X105431426Y-87664013D01*
X105431424Y-87664023D01*
X105412179Y-87883999D01*
X105412179Y-87884000D01*
X105431424Y-88103976D01*
X105431426Y-88103986D01*
X105488575Y-88317270D01*
X105488580Y-88317284D01*
X105581899Y-88517407D01*
X105581900Y-88517409D01*
X105627258Y-88582187D01*
X106156050Y-88053395D01*
X106217373Y-88019910D01*
X106287064Y-88024894D01*
X106342998Y-88066765D01*
X106347539Y-88073254D01*
X106394813Y-88145612D01*
X106495157Y-88223713D01*
X106495160Y-88223714D01*
X106495511Y-88223987D01*
X106536324Y-88280697D01*
X106539999Y-88350470D01*
X106507030Y-88409522D01*
X105980811Y-88935741D01*
X106045582Y-88981094D01*
X106045592Y-88981100D01*
X106165316Y-89036928D01*
X106217756Y-89083100D01*
X106236908Y-89150293D01*
X106216693Y-89217174D01*
X106165318Y-89261692D01*
X106041320Y-89319514D01*
X106041319Y-89319514D01*
X105859217Y-89447023D01*
X105702023Y-89604217D01*
X105574514Y-89786319D01*
X105574512Y-89786323D01*
X105480561Y-89987800D01*
X105423022Y-90202535D01*
X105423021Y-90202542D01*
X105403647Y-90423997D01*
X105403647Y-90424002D01*
X105423021Y-90645457D01*
X105423022Y-90645465D01*
X105480558Y-90860191D01*
X105480559Y-90860193D01*
X105480560Y-90860196D01*
X105508146Y-90919354D01*
X105574511Y-91061676D01*
X105592101Y-91086797D01*
X105702023Y-91243781D01*
X105859219Y-91400977D01*
X106041323Y-91528488D01*
X106087674Y-91550102D01*
X106155261Y-91581618D01*
X106207700Y-91627790D01*
X106226852Y-91694984D01*
X106206636Y-91761865D01*
X106155261Y-91806382D01*
X106041323Y-91859512D01*
X106041319Y-91859514D01*
X105859217Y-91987023D01*
X105702023Y-92144217D01*
X105574514Y-92326319D01*
X105574512Y-92326323D01*
X105480561Y-92527800D01*
X105423022Y-92742535D01*
X105423021Y-92742542D01*
X105403647Y-92963997D01*
X105403647Y-92964002D01*
X105423021Y-93185457D01*
X105423022Y-93185465D01*
X105480558Y-93400191D01*
X105480559Y-93400193D01*
X105480560Y-93400196D01*
X105527536Y-93500936D01*
X105574511Y-93601676D01*
X105574512Y-93601677D01*
X105702023Y-93783781D01*
X105859219Y-93940977D01*
X106010068Y-94046603D01*
X106041323Y-94068488D01*
X106155261Y-94121618D01*
X106207700Y-94167790D01*
X106226852Y-94234984D01*
X106206636Y-94301865D01*
X106155261Y-94346382D01*
X106041323Y-94399512D01*
X106041319Y-94399514D01*
X105859217Y-94527023D01*
X105702023Y-94684217D01*
X105574514Y-94866319D01*
X105574512Y-94866323D01*
X105480561Y-95067800D01*
X105423022Y-95282535D01*
X105423021Y-95282542D01*
X105403647Y-95503997D01*
X105403647Y-95504002D01*
X105423021Y-95725457D01*
X105423022Y-95725465D01*
X105480558Y-95940191D01*
X105480559Y-95940193D01*
X105480560Y-95940196D01*
X105512915Y-96009581D01*
X105574511Y-96141676D01*
X105574512Y-96141677D01*
X105702023Y-96323781D01*
X105859219Y-96480977D01*
X106041323Y-96608488D01*
X106242804Y-96702440D01*
X106457537Y-96759978D01*
X106605686Y-96772939D01*
X106678998Y-96779353D01*
X106679000Y-96779353D01*
X106679002Y-96779353D01*
X106752314Y-96772939D01*
X106900463Y-96759978D01*
X107115196Y-96702440D01*
X107316677Y-96608488D01*
X107498781Y-96480977D01*
X107655977Y-96323781D01*
X107783488Y-96141677D01*
X107877440Y-95940196D01*
X107934978Y-95725463D01*
X107951506Y-95536542D01*
X107954353Y-95504002D01*
X107954353Y-95503997D01*
X107944012Y-95385799D01*
X107934978Y-95282537D01*
X107924812Y-95244597D01*
X107926475Y-95174749D01*
X107956904Y-95124826D01*
X110990072Y-92091658D01*
X111002461Y-92081735D01*
X111002289Y-92081528D01*
X111008298Y-92076555D01*
X111008303Y-92076553D01*
X111056441Y-92025290D01*
X111077638Y-92004094D01*
X111081979Y-91998497D01*
X111085774Y-91994054D01*
X111118217Y-91959506D01*
X111128102Y-91941524D01*
X111138773Y-91925278D01*
X111151349Y-91909067D01*
X111170172Y-91865567D01*
X111172740Y-91860328D01*
X111176837Y-91852876D01*
X111195569Y-91818803D01*
X111195569Y-91818802D01*
X111199328Y-91811965D01*
X111201049Y-91812911D01*
X111237634Y-91766017D01*
X111303571Y-91742909D01*
X111371535Y-91759118D01*
X111419946Y-91809498D01*
X111433435Y-91878053D01*
X111433273Y-91879706D01*
X111431140Y-91900000D01*
X111436082Y-91947017D01*
X111450127Y-92080648D01*
X111450128Y-92080650D01*
X111506257Y-92253398D01*
X111506258Y-92253400D01*
X111559541Y-92345689D01*
X111597077Y-92410703D01*
X111634668Y-92452452D01*
X111718613Y-92545684D01*
X111718620Y-92545690D01*
X111865565Y-92652452D01*
X111865566Y-92652452D01*
X111865570Y-92652455D01*
X111964848Y-92696656D01*
X112031501Y-92726333D01*
X112031507Y-92726335D01*
X112209179Y-92764100D01*
X112209180Y-92764100D01*
X112390819Y-92764100D01*
X112390821Y-92764100D01*
X112568493Y-92726335D01*
X112568495Y-92726333D01*
X112568498Y-92726333D01*
X112590949Y-92716336D01*
X112734430Y-92652455D01*
X112881381Y-92545689D01*
X112882146Y-92544840D01*
X112913425Y-92510100D01*
X113002923Y-92410703D01*
X113093743Y-92253397D01*
X113149873Y-92080646D01*
X113168860Y-91900000D01*
X113149873Y-91719354D01*
X113093743Y-91546603D01*
X113083284Y-91528488D01*
X113050593Y-91471864D01*
X113002923Y-91389297D01*
X112967350Y-91349789D01*
X112937120Y-91286797D01*
X112935500Y-91266817D01*
X112935500Y-63980676D01*
X112955185Y-63913637D01*
X113007989Y-63867882D01*
X113077147Y-63857938D01*
X113140703Y-63886963D01*
X113157873Y-63905187D01*
X113182723Y-63937571D01*
X113192372Y-63950147D01*
X113201523Y-63962072D01*
X113201525Y-63962074D01*
X113226013Y-63993987D01*
X113251707Y-64013703D01*
X113254698Y-64015998D01*
X113260794Y-64021343D01*
X113775722Y-64536271D01*
X114271015Y-65031564D01*
X114304500Y-65092887D01*
X114299516Y-65162579D01*
X114275484Y-65202217D01*
X114197076Y-65289298D01*
X114106258Y-65446599D01*
X114106257Y-65446601D01*
X114050128Y-65619349D01*
X114050127Y-65619351D01*
X114031140Y-65800000D01*
X114050127Y-65980648D01*
X114050128Y-65980650D01*
X114106257Y-66153398D01*
X114106258Y-66153400D01*
X114150591Y-66230186D01*
X114197077Y-66310703D01*
X114239414Y-66357723D01*
X114318613Y-66445684D01*
X114318620Y-66445690D01*
X114465565Y-66552452D01*
X114465566Y-66552452D01*
X114465570Y-66552455D01*
X114535842Y-66583742D01*
X114631501Y-66626333D01*
X114631507Y-66626335D01*
X114809179Y-66664100D01*
X114852189Y-66664100D01*
X114919228Y-66683785D01*
X114939870Y-66700418D01*
X117472115Y-69232664D01*
X117477456Y-69238754D01*
X117499473Y-69267447D01*
X117503374Y-69270440D01*
X117530142Y-69290981D01*
X117530146Y-69290985D01*
X117578357Y-69327977D01*
X117578358Y-69327978D01*
X117626585Y-69364984D01*
X117675007Y-69385041D01*
X117729410Y-69428881D01*
X117751476Y-69495175D01*
X117749959Y-69512802D01*
X117750807Y-69512892D01*
X117750128Y-69519350D01*
X117750127Y-69519354D01*
X117734938Y-69663865D01*
X117731140Y-69700000D01*
X117750127Y-69880648D01*
X117750128Y-69880650D01*
X117806257Y-70053398D01*
X117806258Y-70053400D01*
X117876926Y-70175800D01*
X117897077Y-70210703D01*
X117939414Y-70257723D01*
X118018613Y-70345684D01*
X118018620Y-70345690D01*
X118165565Y-70452452D01*
X118165566Y-70452452D01*
X118165570Y-70452455D01*
X118264848Y-70496656D01*
X118331501Y-70526333D01*
X118331507Y-70526335D01*
X118509179Y-70564100D01*
X118552189Y-70564100D01*
X118619228Y-70583785D01*
X118639870Y-70600419D01*
X119518394Y-71478943D01*
X119551879Y-71540266D01*
X119546895Y-71609958D01*
X119522863Y-71649596D01*
X119397076Y-71789297D01*
X119306258Y-71946599D01*
X119306257Y-71946601D01*
X119250128Y-72119349D01*
X119250127Y-72119351D01*
X119231140Y-72300000D01*
X119250127Y-72480648D01*
X119250128Y-72480650D01*
X119306257Y-72653398D01*
X119306258Y-72653400D01*
X119397075Y-72810701D01*
X119459650Y-72880197D01*
X119489880Y-72943188D01*
X119491500Y-72963169D01*
X119491500Y-88256054D01*
X119490969Y-88264151D01*
X119488791Y-88280697D01*
X119486250Y-88299998D01*
X119491021Y-88336248D01*
X119491023Y-88336262D01*
X119491500Y-88339884D01*
X119491500Y-88339885D01*
X119495947Y-88373661D01*
X119505549Y-88446601D01*
X119507162Y-88458849D01*
X119507163Y-88458854D01*
X119568473Y-88606871D01*
X119568473Y-88606872D01*
X119568475Y-88606875D01*
X119568476Y-88606876D01*
X119611942Y-88663522D01*
X119641525Y-88702074D01*
X119641526Y-88702075D01*
X119666012Y-88733986D01*
X119694698Y-88755998D01*
X119700794Y-88761343D01*
X122038655Y-91099204D01*
X122043996Y-91105294D01*
X122053927Y-91118236D01*
X122066010Y-91133984D01*
X122066011Y-91133985D01*
X122066013Y-91133987D01*
X122084605Y-91148253D01*
X122096284Y-91157215D01*
X122096308Y-91157235D01*
X122138094Y-91189298D01*
X122193124Y-91231524D01*
X122193126Y-91231524D01*
X122193128Y-91231526D01*
X122240658Y-91251213D01*
X122292617Y-91272735D01*
X122347021Y-91316575D01*
X122365370Y-91356855D01*
X122372947Y-91386778D01*
X122372948Y-91386779D01*
X122465982Y-91598875D01*
X122592653Y-91792761D01*
X122749517Y-91963160D01*
X122749521Y-91963163D01*
X122815106Y-92014210D01*
X122922375Y-92097701D01*
X122932275Y-92105406D01*
X122932280Y-92105410D01*
X123126840Y-92210701D01*
X123135967Y-92215640D01*
X123245492Y-92253239D01*
X123355014Y-92290839D01*
X123355016Y-92290839D01*
X123355018Y-92290840D01*
X123583460Y-92328960D01*
X123583461Y-92328960D01*
X123815059Y-92328960D01*
X123815060Y-92328960D01*
X124043502Y-92290840D01*
X124262553Y-92215640D01*
X124466240Y-92105410D01*
X124649005Y-91963158D01*
X124805864Y-91792764D01*
X124932537Y-91598876D01*
X125025570Y-91386783D01*
X125082425Y-91162269D01*
X125082739Y-91158478D01*
X125101550Y-90931466D01*
X125101550Y-90931453D01*
X125082426Y-90700658D01*
X125082424Y-90700647D01*
X125025570Y-90476136D01*
X124932537Y-90264044D01*
X124805866Y-90070158D01*
X124731728Y-89989623D01*
X124649005Y-89899762D01*
X124649004Y-89899761D01*
X124649002Y-89899759D01*
X124648998Y-89899756D01*
X124466244Y-89757513D01*
X124466239Y-89757509D01*
X124262554Y-89647280D01*
X124262548Y-89647278D01*
X124043505Y-89572080D01*
X123833715Y-89537073D01*
X123815060Y-89533960D01*
X123583460Y-89533960D01*
X123564805Y-89537073D01*
X123355014Y-89572080D01*
X123135971Y-89647278D01*
X123135965Y-89647280D01*
X122932281Y-89757509D01*
X122749510Y-89899766D01*
X122749501Y-89899774D01*
X122746343Y-89903205D01*
X122686452Y-89939189D01*
X122616614Y-89937081D01*
X122567442Y-89906893D01*
X120744819Y-88084270D01*
X120711334Y-88022947D01*
X120708500Y-87996589D01*
X120708500Y-72968411D01*
X120728185Y-72901372D01*
X120780989Y-72855617D01*
X120850147Y-72845673D01*
X120913703Y-72874698D01*
X120920181Y-72880730D01*
X123054441Y-75014990D01*
X123087926Y-75076313D01*
X123090760Y-75102671D01*
X123090760Y-85853960D01*
X123071075Y-85920999D01*
X123018271Y-85966754D01*
X122966760Y-85977960D01*
X122761605Y-85977960D01*
X122701057Y-85984471D01*
X122701055Y-85984471D01*
X122564055Y-86035571D01*
X122446999Y-86123199D01*
X122359371Y-86240255D01*
X122308271Y-86377255D01*
X122308271Y-86377257D01*
X122301760Y-86437805D01*
X122301760Y-88313114D01*
X122308271Y-88373663D01*
X122347081Y-88477713D01*
X122359371Y-88510664D01*
X122446999Y-88627721D01*
X122564056Y-88715349D01*
X122701059Y-88766449D01*
X122728310Y-88769378D01*
X122761605Y-88772959D01*
X122761622Y-88772960D01*
X124636898Y-88772960D01*
X124636914Y-88772959D01*
X124663952Y-88770051D01*
X124697461Y-88766449D01*
X124834464Y-88715349D01*
X124951521Y-88627721D01*
X125039149Y-88510664D01*
X125090249Y-88373661D01*
X125095936Y-88320765D01*
X125096759Y-88313114D01*
X125096760Y-88313097D01*
X125096760Y-86437822D01*
X125096759Y-86437805D01*
X125091819Y-86391864D01*
X125090249Y-86377259D01*
X125039149Y-86240256D01*
X124951521Y-86123199D01*
X124834464Y-86035571D01*
X124830764Y-86034191D01*
X124697463Y-85984471D01*
X124636914Y-85977960D01*
X124636898Y-85977960D01*
X124431760Y-85977960D01*
X124364721Y-85958275D01*
X124318966Y-85905471D01*
X124307760Y-85853960D01*
X124307760Y-74843211D01*
X124308291Y-74835110D01*
X124313011Y-74799260D01*
X124292098Y-74640409D01*
X124261441Y-74566396D01*
X124230786Y-74492388D01*
X124230783Y-74492383D01*
X124156495Y-74395568D01*
X124156475Y-74395544D01*
X124146828Y-74382972D01*
X124133247Y-74365273D01*
X124133245Y-74365271D01*
X124133244Y-74365270D01*
X124113918Y-74350441D01*
X124104553Y-74343255D01*
X124098463Y-74337914D01*
X119500885Y-69740336D01*
X119467400Y-69679013D01*
X119465248Y-69665637D01*
X119456133Y-69578918D01*
X119468702Y-69510192D01*
X119516435Y-69459168D01*
X119579454Y-69441960D01*
X122614386Y-69441960D01*
X122681425Y-69461645D01*
X122718195Y-69498139D01*
X122719982Y-69500875D01*
X122719983Y-69500876D01*
X122727775Y-69512802D01*
X122846653Y-69694761D01*
X123003517Y-69865160D01*
X123003521Y-69865163D01*
X123098180Y-69938839D01*
X123186280Y-70007410D01*
X123389967Y-70117640D01*
X123460824Y-70141965D01*
X123609014Y-70192839D01*
X123609016Y-70192839D01*
X123609018Y-70192840D01*
X123837460Y-70230960D01*
X123837461Y-70230960D01*
X124069059Y-70230960D01*
X124069060Y-70230960D01*
X124297502Y-70192840D01*
X124516553Y-70117640D01*
X124720240Y-70007410D01*
X124903005Y-69865158D01*
X125059864Y-69694764D01*
X125186537Y-69500876D01*
X125279570Y-69288783D01*
X125336425Y-69064269D01*
X125337693Y-69048972D01*
X125355550Y-68833466D01*
X125355550Y-68833453D01*
X125336426Y-68602658D01*
X125336424Y-68602647D01*
X125279570Y-68378136D01*
X125186537Y-68166044D01*
X125059866Y-67972158D01*
X124987719Y-67893786D01*
X124903005Y-67801762D01*
X124903004Y-67801761D01*
X124903002Y-67801759D01*
X124902998Y-67801756D01*
X124720244Y-67659513D01*
X124720239Y-67659509D01*
X124516554Y-67549280D01*
X124516548Y-67549278D01*
X124297505Y-67474080D01*
X124123384Y-67445025D01*
X124069060Y-67435960D01*
X123837460Y-67435960D01*
X123791771Y-67443584D01*
X123609014Y-67474080D01*
X123389971Y-67549278D01*
X123389965Y-67549280D01*
X123186280Y-67659509D01*
X123186275Y-67659513D01*
X123003521Y-67801756D01*
X123003517Y-67801759D01*
X122846653Y-67972158D01*
X122718195Y-68168781D01*
X122665049Y-68214138D01*
X122614386Y-68224960D01*
X118236871Y-68224960D01*
X118169832Y-68205275D01*
X118149190Y-68188641D01*
X116058190Y-66097641D01*
X116024705Y-66036318D01*
X116029689Y-65966626D01*
X116071561Y-65910693D01*
X116137025Y-65886276D01*
X116145871Y-65885960D01*
X122431760Y-65885960D01*
X122498799Y-65905645D01*
X122544554Y-65958449D01*
X122555760Y-66009960D01*
X122555760Y-66215114D01*
X122562271Y-66275662D01*
X122562271Y-66275664D01*
X122594977Y-66363349D01*
X122613371Y-66412664D01*
X122700999Y-66529721D01*
X122818056Y-66617349D01*
X122955059Y-66668449D01*
X122982310Y-66671378D01*
X123015605Y-66674959D01*
X123015622Y-66674960D01*
X124890898Y-66674960D01*
X124890914Y-66674959D01*
X124917952Y-66672051D01*
X124951461Y-66668449D01*
X125088464Y-66617349D01*
X125205521Y-66529721D01*
X125293149Y-66412664D01*
X125344249Y-66275661D01*
X125349138Y-66230186D01*
X125350759Y-66215114D01*
X125350760Y-66215097D01*
X125350760Y-64339822D01*
X125350759Y-64339805D01*
X125347417Y-64308730D01*
X125344249Y-64279259D01*
X125343778Y-64277997D01*
X125314865Y-64200479D01*
X125293149Y-64142256D01*
X125205521Y-64025199D01*
X125205519Y-64025197D01*
X125205518Y-64025196D01*
X125200503Y-64020181D01*
X125167018Y-63958858D01*
X125172002Y-63889166D01*
X125213874Y-63833233D01*
X125279338Y-63808816D01*
X125288184Y-63808500D01*
X126656054Y-63808500D01*
X126664151Y-63809030D01*
X126689527Y-63812371D01*
X126699999Y-63813750D01*
X126700000Y-63813750D01*
X126700001Y-63813750D01*
X126735846Y-63809031D01*
X126737961Y-63808752D01*
X126737974Y-63808751D01*
X126739881Y-63808500D01*
X126739885Y-63808500D01*
X126821002Y-63797820D01*
X126839457Y-63795391D01*
X126858851Y-63792838D01*
X126911092Y-63771199D01*
X127006876Y-63731524D01*
X127102072Y-63658477D01*
X127102073Y-63658475D01*
X127110164Y-63652267D01*
X127110171Y-63652261D01*
X127133983Y-63633990D01*
X127133982Y-63633990D01*
X127133987Y-63633987D01*
X127156010Y-63605285D01*
X127161338Y-63599209D01*
X131515729Y-59244819D01*
X131577053Y-59211334D01*
X131603411Y-59208500D01*
X131754575Y-59208500D01*
X131821614Y-59228185D01*
G37*
%TD.AperFunction*%
%TA.AperFunction,Conductor*%
G36*
X131239640Y-62980210D02*
G01*
X131295573Y-63022082D01*
X131319834Y-63085584D01*
X131331021Y-63213458D01*
X131331022Y-63213465D01*
X131388558Y-63428191D01*
X131388559Y-63428193D01*
X131388560Y-63428196D01*
X131422043Y-63500000D01*
X131482511Y-63629676D01*
X131502676Y-63658474D01*
X131610023Y-63811781D01*
X131767219Y-63968977D01*
X131949323Y-64096488D01*
X132073317Y-64154307D01*
X132125756Y-64200479D01*
X132144908Y-64267673D01*
X132124692Y-64334554D01*
X132073317Y-64379071D01*
X131953586Y-64434903D01*
X131888812Y-64480257D01*
X131888811Y-64480258D01*
X132417723Y-65009170D01*
X132451208Y-65070493D01*
X132446224Y-65140185D01*
X132404352Y-65196118D01*
X132389059Y-65205906D01*
X132349749Y-65227179D01*
X132349748Y-65227179D01*
X132263626Y-65320733D01*
X132263626Y-65320734D01*
X132262911Y-65322365D01*
X132261340Y-65324233D01*
X132258008Y-65329334D01*
X132257391Y-65328931D01*
X132217952Y-65375849D01*
X132151215Y-65396535D01*
X132083888Y-65377857D01*
X132061677Y-65360230D01*
X131535258Y-64833811D01*
X131535257Y-64833812D01*
X131489903Y-64898586D01*
X131396579Y-65098720D01*
X131396575Y-65098729D01*
X131339426Y-65312013D01*
X131339424Y-65312023D01*
X131320179Y-65531999D01*
X131320179Y-65532000D01*
X131339424Y-65751976D01*
X131339426Y-65751986D01*
X131396575Y-65965270D01*
X131396580Y-65965284D01*
X131489899Y-66165407D01*
X131489900Y-66165409D01*
X131535258Y-66230187D01*
X132064050Y-65701395D01*
X132125373Y-65667910D01*
X132195064Y-65672894D01*
X132250998Y-65714765D01*
X132255539Y-65721254D01*
X132302813Y-65793612D01*
X132403157Y-65871713D01*
X132403160Y-65871714D01*
X132403511Y-65871987D01*
X132444324Y-65928697D01*
X132447999Y-65998470D01*
X132415030Y-66057522D01*
X131888811Y-66583741D01*
X131953582Y-66629094D01*
X131953592Y-66629100D01*
X132073316Y-66684928D01*
X132125756Y-66731100D01*
X132144908Y-66798293D01*
X132124693Y-66865174D01*
X132073318Y-66909692D01*
X131949320Y-66967514D01*
X131949319Y-66967514D01*
X131767217Y-67095023D01*
X131610023Y-67252217D01*
X131482514Y-67434319D01*
X131482512Y-67434323D01*
X131388561Y-67635800D01*
X131331022Y-67850535D01*
X131331021Y-67850542D01*
X131311647Y-68071997D01*
X131311647Y-68072002D01*
X131331021Y-68293457D01*
X131331022Y-68293465D01*
X131388558Y-68508191D01*
X131388559Y-68508193D01*
X131388560Y-68508196D01*
X131432603Y-68602647D01*
X131482511Y-68709676D01*
X131482512Y-68709677D01*
X131610023Y-68891781D01*
X131767219Y-69048977D01*
X131905475Y-69145785D01*
X131949323Y-69176488D01*
X132063261Y-69229618D01*
X132115700Y-69275790D01*
X132134852Y-69342984D01*
X132114636Y-69409865D01*
X132063261Y-69454382D01*
X131949323Y-69507512D01*
X131949319Y-69507514D01*
X131767217Y-69635023D01*
X131610023Y-69792217D01*
X131482514Y-69974319D01*
X131482512Y-69974323D01*
X131388561Y-70175800D01*
X131331022Y-70390535D01*
X131331021Y-70390542D01*
X131311647Y-70611997D01*
X131311647Y-70612002D01*
X131331021Y-70833457D01*
X131331022Y-70833465D01*
X131388558Y-71048191D01*
X131388559Y-71048193D01*
X131388560Y-71048196D01*
X131420451Y-71116586D01*
X131482511Y-71249676D01*
X131505343Y-71282283D01*
X131610023Y-71431781D01*
X131767219Y-71588977D01*
X131949323Y-71716488D01*
X132033233Y-71755616D01*
X132063261Y-71769618D01*
X132115700Y-71815790D01*
X132134852Y-71882984D01*
X132114636Y-71949865D01*
X132063261Y-71994382D01*
X131949323Y-72047512D01*
X131949319Y-72047514D01*
X131767217Y-72175023D01*
X131610023Y-72332217D01*
X131482514Y-72514319D01*
X131482512Y-72514323D01*
X131388561Y-72715800D01*
X131331022Y-72930535D01*
X131331021Y-72930542D01*
X131311647Y-73151997D01*
X131311647Y-73152002D01*
X131331021Y-73373457D01*
X131331022Y-73373465D01*
X131388558Y-73588191D01*
X131388559Y-73588193D01*
X131388560Y-73588196D01*
X131420737Y-73657200D01*
X131482511Y-73789676D01*
X131482512Y-73789677D01*
X131610023Y-73971781D01*
X131767219Y-74128977D01*
X131949323Y-74256488D01*
X132150804Y-74350440D01*
X132365537Y-74407978D01*
X132523724Y-74421817D01*
X132586998Y-74427353D01*
X132587000Y-74427353D01*
X132587002Y-74427353D01*
X132642365Y-74422509D01*
X132808463Y-74407978D01*
X133023196Y-74350440D01*
X133224677Y-74256488D01*
X133406781Y-74128977D01*
X133563977Y-73971781D01*
X133691488Y-73789677D01*
X133785440Y-73588196D01*
X133842978Y-73373463D01*
X133859506Y-73184542D01*
X133862353Y-73152002D01*
X133862353Y-73151997D01*
X133845833Y-72963169D01*
X133842978Y-72930537D01*
X133785440Y-72715804D01*
X133691488Y-72514324D01*
X133691486Y-72514321D01*
X133691485Y-72514319D01*
X133563978Y-72332220D01*
X133531758Y-72300000D01*
X133406781Y-72175023D01*
X133224677Y-72047512D01*
X133110738Y-71994381D01*
X133058299Y-71948210D01*
X133039147Y-71881017D01*
X133059363Y-71814135D01*
X133110739Y-71769618D01*
X133224677Y-71716488D01*
X133406781Y-71588977D01*
X133563977Y-71431781D01*
X133691488Y-71249677D01*
X133785440Y-71048196D01*
X133842978Y-70833463D01*
X133859506Y-70644542D01*
X133862353Y-70612002D01*
X133862353Y-70611997D01*
X133854858Y-70526333D01*
X133842978Y-70390537D01*
X133785440Y-70175804D01*
X133691488Y-69974324D01*
X133691486Y-69974321D01*
X133691485Y-69974319D01*
X133563978Y-69792220D01*
X133512094Y-69740336D01*
X133406781Y-69635023D01*
X133224677Y-69507512D01*
X133110738Y-69454381D01*
X133058299Y-69408210D01*
X133039147Y-69341017D01*
X133059363Y-69274135D01*
X133110739Y-69229618D01*
X133224677Y-69176488D01*
X133406781Y-69048977D01*
X133563977Y-68891781D01*
X133655989Y-68760374D01*
X133710564Y-68716751D01*
X133757562Y-68707500D01*
X142657406Y-68707500D01*
X142724445Y-68727185D01*
X142745087Y-68743819D01*
X146028181Y-72026913D01*
X146061666Y-72088236D01*
X146064500Y-72114594D01*
X146064500Y-76761155D01*
X146044815Y-76828194D01*
X145992011Y-76873949D01*
X145922853Y-76883893D01*
X145890065Y-76874435D01*
X145798494Y-76833665D01*
X145798492Y-76833664D01*
X145658584Y-76803926D01*
X145620821Y-76795900D01*
X145439179Y-76795900D01*
X145408034Y-76802519D01*
X145261507Y-76833664D01*
X145261501Y-76833666D01*
X145095570Y-76907545D01*
X145095565Y-76907547D01*
X144948620Y-77014309D01*
X144948613Y-77014315D01*
X144827076Y-77149298D01*
X144736258Y-77306599D01*
X144736257Y-77306601D01*
X144680128Y-77479349D01*
X144680127Y-77479351D01*
X144669238Y-77582950D01*
X144642652Y-77647564D01*
X144633598Y-77657668D01*
X135789921Y-86501344D01*
X135777531Y-86511272D01*
X135777702Y-86511479D01*
X135771696Y-86516447D01*
X135747288Y-86542440D01*
X135723573Y-86567693D01*
X135716503Y-86574763D01*
X135702365Y-86588900D01*
X135702363Y-86588902D01*
X135698008Y-86594516D01*
X135694218Y-86598953D01*
X135661782Y-86633494D01*
X135661781Y-86633496D01*
X135651900Y-86651468D01*
X135641225Y-86667719D01*
X135628652Y-86683929D01*
X135628649Y-86683933D01*
X135609827Y-86727428D01*
X135607257Y-86732674D01*
X135584430Y-86774197D01*
X135579329Y-86794064D01*
X135573030Y-86812462D01*
X135564884Y-86831287D01*
X135564881Y-86831296D01*
X135557469Y-86878098D01*
X135556284Y-86883820D01*
X135544500Y-86929711D01*
X135544500Y-86950225D01*
X135542973Y-86969624D01*
X135539765Y-86989877D01*
X135544225Y-87037059D01*
X135544500Y-87042897D01*
X135544500Y-91066817D01*
X135524815Y-91133856D01*
X135512650Y-91149789D01*
X135477077Y-91189296D01*
X135389853Y-91340372D01*
X135339286Y-91388587D01*
X135270678Y-91401809D01*
X135205814Y-91375841D01*
X135194785Y-91366052D01*
X134116658Y-90287925D01*
X134106732Y-90275535D01*
X134106525Y-90275707D01*
X134101552Y-90269696D01*
X134050306Y-90221573D01*
X134029097Y-90200363D01*
X134023492Y-90196015D01*
X134019046Y-90192218D01*
X133984509Y-90159785D01*
X133984501Y-90159780D01*
X133966540Y-90149906D01*
X133950274Y-90139222D01*
X133934064Y-90126648D01*
X133890571Y-90107827D01*
X133885323Y-90105256D01*
X133843805Y-90082432D01*
X133843804Y-90082431D01*
X133843803Y-90082431D01*
X133823937Y-90077330D01*
X133805538Y-90071030D01*
X133786709Y-90062883D01*
X133786708Y-90062882D01*
X133739902Y-90055469D01*
X133734181Y-90054284D01*
X133688283Y-90042500D01*
X133688282Y-90042500D01*
X133667774Y-90042500D01*
X133648376Y-90040973D01*
X133637769Y-90039293D01*
X133628122Y-90037765D01*
X133628121Y-90037764D01*
X133580939Y-90042225D01*
X133575101Y-90042500D01*
X133503562Y-90042500D01*
X133436523Y-90022815D01*
X133401987Y-89989623D01*
X133309978Y-89858220D01*
X133238077Y-89786319D01*
X133152781Y-89701023D01*
X132970677Y-89573512D01*
X132970678Y-89573512D01*
X132970676Y-89573511D01*
X132846682Y-89515692D01*
X132794243Y-89469519D01*
X132775091Y-89402326D01*
X132795307Y-89335445D01*
X132846684Y-89290927D01*
X132966413Y-89235097D01*
X132966420Y-89235093D01*
X133031186Y-89189742D01*
X133031187Y-89189740D01*
X132502276Y-88660829D01*
X132468791Y-88599506D01*
X132473775Y-88529814D01*
X132515647Y-88473881D01*
X132530933Y-88464097D01*
X132570251Y-88442820D01*
X132656371Y-88349269D01*
X132657083Y-88347643D01*
X132658652Y-88345777D01*
X132661992Y-88340666D01*
X132662609Y-88341069D01*
X132702036Y-88294158D01*
X132768770Y-88273464D01*
X132836099Y-88292135D01*
X132858322Y-88309769D01*
X133384740Y-88836187D01*
X133384742Y-88836186D01*
X133430093Y-88771420D01*
X133430100Y-88771408D01*
X133523419Y-88571284D01*
X133523424Y-88571270D01*
X133580573Y-88357986D01*
X133580575Y-88357976D01*
X133599821Y-88138000D01*
X133599821Y-88137999D01*
X133580575Y-87918023D01*
X133580573Y-87918013D01*
X133523424Y-87704729D01*
X133523420Y-87704720D01*
X133430098Y-87504590D01*
X133384740Y-87439811D01*
X132855949Y-87968602D01*
X132794626Y-88002087D01*
X132724934Y-87997103D01*
X132669001Y-87955231D01*
X132664460Y-87948743D01*
X132617189Y-87876391D01*
X132617187Y-87876388D01*
X132617186Y-87876388D01*
X132516843Y-87798287D01*
X132516840Y-87798285D01*
X132516488Y-87798012D01*
X132475675Y-87741301D01*
X132472000Y-87671529D01*
X132504969Y-87612477D01*
X133031187Y-87086258D01*
X132966409Y-87040900D01*
X132966407Y-87040899D01*
X132846683Y-86985071D01*
X132794243Y-86938899D01*
X132775091Y-86871705D01*
X132795307Y-86804824D01*
X132846682Y-86760307D01*
X132970677Y-86702488D01*
X133152781Y-86574977D01*
X133309977Y-86417781D01*
X133437488Y-86235677D01*
X133531440Y-86034196D01*
X133588978Y-85819463D01*
X133608353Y-85598000D01*
X133605506Y-85565463D01*
X133600846Y-85512191D01*
X133588978Y-85376537D01*
X133531440Y-85161804D01*
X133437488Y-84960324D01*
X133437486Y-84960321D01*
X133437485Y-84960319D01*
X133309978Y-84778220D01*
X133238077Y-84706319D01*
X133152781Y-84621023D01*
X132970677Y-84493512D01*
X132856738Y-84440381D01*
X132804299Y-84394210D01*
X132785147Y-84327017D01*
X132805363Y-84260135D01*
X132856739Y-84215618D01*
X132970677Y-84162488D01*
X133152781Y-84034977D01*
X133309977Y-83877781D01*
X133437488Y-83695677D01*
X133531440Y-83494196D01*
X133588978Y-83279463D01*
X133608353Y-83058000D01*
X133605506Y-83025463D01*
X133588978Y-82836542D01*
X133588978Y-82836537D01*
X133531440Y-82621804D01*
X133437488Y-82420324D01*
X133437486Y-82420321D01*
X133437485Y-82420319D01*
X133309978Y-82238220D01*
X133238077Y-82166319D01*
X133152781Y-82081023D01*
X132970677Y-81953512D01*
X132970678Y-81953512D01*
X132970676Y-81953511D01*
X132869936Y-81906535D01*
X132769196Y-81859560D01*
X132769193Y-81859559D01*
X132769191Y-81859558D01*
X132554465Y-81802022D01*
X132554457Y-81802021D01*
X132333002Y-81782647D01*
X132332998Y-81782647D01*
X132111542Y-81802021D01*
X132111535Y-81802022D01*
X131896800Y-81859561D01*
X131695323Y-81953512D01*
X131695319Y-81953514D01*
X131513217Y-82081023D01*
X131356026Y-82238214D01*
X131288075Y-82335259D01*
X131233498Y-82378883D01*
X131163999Y-82386076D01*
X131101645Y-82354554D01*
X131066231Y-82294324D01*
X131062500Y-82264135D01*
X131062500Y-63106198D01*
X131082185Y-63039159D01*
X131098815Y-63018521D01*
X131108626Y-63008710D01*
X131169948Y-62975226D01*
X131239640Y-62980210D01*
G37*
%TD.AperFunction*%
%TA.AperFunction,Conductor*%
G36*
X131941064Y-88278894D02*
G01*
X131996998Y-88320765D01*
X132001539Y-88327254D01*
X132048813Y-88399612D01*
X132149157Y-88477713D01*
X132149160Y-88477714D01*
X132149511Y-88477987D01*
X132190324Y-88534697D01*
X132193999Y-88604470D01*
X132161030Y-88663522D01*
X131634811Y-89189741D01*
X131699582Y-89235094D01*
X131699592Y-89235100D01*
X131819316Y-89290928D01*
X131871756Y-89337100D01*
X131890908Y-89404293D01*
X131870693Y-89471174D01*
X131819318Y-89515692D01*
X131780930Y-89533593D01*
X131708183Y-89567516D01*
X131695320Y-89573514D01*
X131695319Y-89573514D01*
X131513217Y-89701023D01*
X131356026Y-89858214D01*
X131288075Y-89955259D01*
X131233498Y-89998883D01*
X131163999Y-90006076D01*
X131101645Y-89974554D01*
X131066231Y-89914324D01*
X131062500Y-89884135D01*
X131062500Y-89402326D01*
X131062500Y-88917042D01*
X131082183Y-88850007D01*
X131134987Y-88804252D01*
X131204146Y-88794308D01*
X131267702Y-88823333D01*
X131279126Y-88836001D01*
X131281258Y-88836187D01*
X131810050Y-88307395D01*
X131871373Y-88273910D01*
X131941064Y-88278894D01*
G37*
%TD.AperFunction*%
%TA.AperFunction,Conductor*%
G36*
X105585640Y-63234210D02*
G01*
X105641573Y-63276082D01*
X105665834Y-63339584D01*
X105677021Y-63467458D01*
X105677022Y-63467465D01*
X105734558Y-63682191D01*
X105734559Y-63682193D01*
X105734560Y-63682196D01*
X105758335Y-63733182D01*
X105828511Y-63883676D01*
X105849490Y-63913637D01*
X105956023Y-64065781D01*
X106113219Y-64222977D01*
X106295323Y-64350488D01*
X106419317Y-64408307D01*
X106471756Y-64454479D01*
X106490908Y-64521673D01*
X106470692Y-64588554D01*
X106419317Y-64633071D01*
X106299586Y-64688903D01*
X106234812Y-64734257D01*
X106234811Y-64734258D01*
X106763723Y-65263170D01*
X106797208Y-65324493D01*
X106792224Y-65394185D01*
X106750352Y-65450118D01*
X106735059Y-65459906D01*
X106695749Y-65481179D01*
X106695748Y-65481179D01*
X106609626Y-65574733D01*
X106609626Y-65574734D01*
X106608911Y-65576365D01*
X106607340Y-65578233D01*
X106604008Y-65583334D01*
X106603391Y-65582931D01*
X106563952Y-65629849D01*
X106497215Y-65650535D01*
X106429888Y-65631857D01*
X106407677Y-65614230D01*
X105881258Y-65087811D01*
X105881257Y-65087812D01*
X105835903Y-65152586D01*
X105742579Y-65352720D01*
X105742575Y-65352729D01*
X105685426Y-65566013D01*
X105685424Y-65566023D01*
X105666179Y-65785999D01*
X105666179Y-65786000D01*
X105685424Y-66005976D01*
X105685426Y-66005986D01*
X105742575Y-66219270D01*
X105742580Y-66219284D01*
X105835899Y-66419407D01*
X105835900Y-66419409D01*
X105881258Y-66484187D01*
X106410050Y-65955395D01*
X106471373Y-65921910D01*
X106541064Y-65926894D01*
X106596998Y-65968765D01*
X106601539Y-65975254D01*
X106648813Y-66047612D01*
X106749157Y-66125713D01*
X106749160Y-66125714D01*
X106749511Y-66125987D01*
X106790324Y-66182697D01*
X106793999Y-66252470D01*
X106761030Y-66311522D01*
X106234811Y-66837741D01*
X106299582Y-66883094D01*
X106299592Y-66883100D01*
X106419316Y-66938928D01*
X106471756Y-66985100D01*
X106490908Y-67052293D01*
X106470693Y-67119174D01*
X106419318Y-67163692D01*
X106295320Y-67221514D01*
X106295319Y-67221514D01*
X106113217Y-67349023D01*
X105956023Y-67506217D01*
X105828514Y-67688319D01*
X105828512Y-67688323D01*
X105734561Y-67889800D01*
X105677022Y-68104535D01*
X105677021Y-68104542D01*
X105657647Y-68325997D01*
X105657647Y-68326002D01*
X105677021Y-68547457D01*
X105677022Y-68547465D01*
X105734558Y-68762191D01*
X105734559Y-68762193D01*
X105734560Y-68762196D01*
X105756973Y-68810261D01*
X105828511Y-68963676D01*
X105828512Y-68963677D01*
X105956023Y-69145781D01*
X106113219Y-69302977D01*
X106295323Y-69430488D01*
X106362139Y-69461645D01*
X106409261Y-69483618D01*
X106461700Y-69529790D01*
X106480852Y-69596984D01*
X106460636Y-69663865D01*
X106409261Y-69708382D01*
X106295323Y-69761512D01*
X106295319Y-69761514D01*
X106113217Y-69889023D01*
X105956023Y-70046217D01*
X105828514Y-70228319D01*
X105828512Y-70228323D01*
X105734561Y-70429800D01*
X105677022Y-70644535D01*
X105677021Y-70644542D01*
X105657647Y-70865997D01*
X105657647Y-70866002D01*
X105677021Y-71087457D01*
X105677022Y-71087465D01*
X105734558Y-71302191D01*
X105734559Y-71302193D01*
X105734560Y-71302196D01*
X105781535Y-71402936D01*
X105828511Y-71503676D01*
X105828512Y-71503677D01*
X105956023Y-71685781D01*
X106113219Y-71842977D01*
X106295322Y-71970487D01*
X106295323Y-71970488D01*
X106409261Y-72023618D01*
X106461700Y-72069790D01*
X106480852Y-72136984D01*
X106460636Y-72203865D01*
X106409261Y-72248382D01*
X106295323Y-72301512D01*
X106295319Y-72301514D01*
X106113217Y-72429023D01*
X105956023Y-72586217D01*
X105828514Y-72768319D01*
X105828512Y-72768323D01*
X105734561Y-72969800D01*
X105677022Y-73184535D01*
X105677021Y-73184542D01*
X105657647Y-73405997D01*
X105657647Y-73406002D01*
X105677021Y-73627457D01*
X105677022Y-73627465D01*
X105734558Y-73842191D01*
X105734559Y-73842193D01*
X105734560Y-73842196D01*
X105781535Y-73942936D01*
X105828511Y-74043676D01*
X105828512Y-74043677D01*
X105956023Y-74225781D01*
X106113219Y-74382977D01*
X106244625Y-74474989D01*
X106288249Y-74529564D01*
X106297500Y-74576562D01*
X106297500Y-77549151D01*
X106295758Y-77564927D01*
X106296026Y-77564953D01*
X106295292Y-77572718D01*
X106295292Y-77572719D01*
X106296986Y-77626619D01*
X106297500Y-77642985D01*
X106297500Y-77672983D01*
X106298387Y-77680013D01*
X106298845Y-77685832D01*
X106300334Y-77733203D01*
X106300335Y-77733207D01*
X106306057Y-77752905D01*
X106310000Y-77771946D01*
X106312571Y-77792288D01*
X106312574Y-77792303D01*
X106330016Y-77836359D01*
X106331907Y-77841883D01*
X106345130Y-77887391D01*
X106355570Y-77905044D01*
X106364128Y-77922514D01*
X106371679Y-77941585D01*
X106371682Y-77941591D01*
X106399542Y-77979936D01*
X106402750Y-77984821D01*
X106420769Y-78015290D01*
X106426866Y-78025598D01*
X106426870Y-78025602D01*
X106441363Y-78040095D01*
X106454001Y-78054892D01*
X106466057Y-78071487D01*
X106502576Y-78101697D01*
X106506888Y-78105620D01*
X107252828Y-78851560D01*
X107995987Y-79594719D01*
X108029472Y-79656042D01*
X108031628Y-79695351D01*
X108031140Y-79699997D01*
X108050127Y-79880648D01*
X108050128Y-79880650D01*
X108106257Y-80053398D01*
X108106258Y-80053400D01*
X108146506Y-80123111D01*
X108197077Y-80210703D01*
X108239414Y-80257723D01*
X108318613Y-80345684D01*
X108318620Y-80345690D01*
X108465565Y-80452452D01*
X108465566Y-80452452D01*
X108465570Y-80452455D01*
X108557810Y-80493523D01*
X108631501Y-80526333D01*
X108631507Y-80526335D01*
X108809179Y-80564100D01*
X108809180Y-80564100D01*
X108940500Y-80564100D01*
X109007539Y-80583785D01*
X109053294Y-80636589D01*
X109064500Y-80688100D01*
X109064500Y-88285404D01*
X109044815Y-88352443D01*
X109028181Y-88373085D01*
X107814193Y-89587073D01*
X107752870Y-89620558D01*
X107683178Y-89615574D01*
X107638831Y-89587073D01*
X107498785Y-89447027D01*
X107498781Y-89447023D01*
X107316677Y-89319512D01*
X107316678Y-89319512D01*
X107316676Y-89319511D01*
X107192682Y-89261692D01*
X107140243Y-89215519D01*
X107121091Y-89148326D01*
X107141307Y-89081445D01*
X107192684Y-89036927D01*
X107312413Y-88981097D01*
X107312420Y-88981093D01*
X107377186Y-88935742D01*
X107377187Y-88935740D01*
X106848276Y-88406829D01*
X106814791Y-88345506D01*
X106819775Y-88275814D01*
X106861647Y-88219881D01*
X106876933Y-88210097D01*
X106916251Y-88188820D01*
X107002371Y-88095269D01*
X107003083Y-88093643D01*
X107004652Y-88091777D01*
X107007992Y-88086666D01*
X107008609Y-88087069D01*
X107048036Y-88040158D01*
X107114770Y-88019464D01*
X107182099Y-88038135D01*
X107204322Y-88055769D01*
X107730740Y-88582187D01*
X107730742Y-88582186D01*
X107776093Y-88517420D01*
X107776100Y-88517408D01*
X107869419Y-88317284D01*
X107869424Y-88317270D01*
X107926573Y-88103986D01*
X107926575Y-88103976D01*
X107945821Y-87884000D01*
X107945821Y-87883999D01*
X107926575Y-87664023D01*
X107926573Y-87664013D01*
X107869424Y-87450729D01*
X107869420Y-87450720D01*
X107776098Y-87250590D01*
X107730740Y-87185811D01*
X107201949Y-87714602D01*
X107140626Y-87748087D01*
X107070934Y-87743103D01*
X107015001Y-87701231D01*
X107010460Y-87694743D01*
X106963189Y-87622391D01*
X106963187Y-87622388D01*
X106907673Y-87579180D01*
X106862843Y-87544287D01*
X106862840Y-87544285D01*
X106862488Y-87544012D01*
X106821675Y-87487301D01*
X106818000Y-87417529D01*
X106850969Y-87358477D01*
X107377187Y-86832258D01*
X107312409Y-86786900D01*
X107312407Y-86786899D01*
X107192683Y-86731071D01*
X107140243Y-86684899D01*
X107121091Y-86617705D01*
X107141307Y-86550824D01*
X107192682Y-86506307D01*
X107316677Y-86448488D01*
X107498781Y-86320977D01*
X107655977Y-86163781D01*
X107783488Y-85981677D01*
X107877440Y-85780196D01*
X107934978Y-85565463D01*
X107951506Y-85376542D01*
X107954353Y-85344002D01*
X107954353Y-85343997D01*
X107945752Y-85245684D01*
X107934978Y-85122537D01*
X107877440Y-84907804D01*
X107783488Y-84706324D01*
X107783486Y-84706321D01*
X107783485Y-84706319D01*
X107655978Y-84524220D01*
X107625268Y-84493510D01*
X107498781Y-84367023D01*
X107316677Y-84239512D01*
X107202738Y-84186381D01*
X107150299Y-84140210D01*
X107131147Y-84073017D01*
X107151363Y-84006135D01*
X107202739Y-83961618D01*
X107316677Y-83908488D01*
X107498781Y-83780977D01*
X107655977Y-83623781D01*
X107783488Y-83441677D01*
X107877440Y-83240196D01*
X107934978Y-83025463D01*
X107951506Y-82836542D01*
X107954353Y-82804002D01*
X107954353Y-82803997D01*
X107934978Y-82582542D01*
X107934978Y-82582537D01*
X107877440Y-82367804D01*
X107783488Y-82166324D01*
X107783486Y-82166321D01*
X107783485Y-82166319D01*
X107655978Y-81984220D01*
X107582459Y-81910701D01*
X107498781Y-81827023D01*
X107316677Y-81699512D01*
X107316678Y-81699512D01*
X107316676Y-81699511D01*
X107186831Y-81638964D01*
X107115196Y-81605560D01*
X107115193Y-81605559D01*
X107115191Y-81605558D01*
X106900465Y-81548022D01*
X106900457Y-81548021D01*
X106679002Y-81528647D01*
X106678998Y-81528647D01*
X106457542Y-81548021D01*
X106457535Y-81548022D01*
X106242800Y-81605561D01*
X106041323Y-81699512D01*
X106041319Y-81699514D01*
X105859217Y-81827023D01*
X105702025Y-81984215D01*
X105698940Y-81988622D01*
X105644363Y-82032248D01*
X105597364Y-82041500D01*
X105371200Y-82041500D01*
X105304161Y-82021815D01*
X105283519Y-82005181D01*
X105098818Y-81820480D01*
X105065333Y-81759157D01*
X105062499Y-81732808D01*
X105062499Y-63706198D01*
X105082184Y-63639160D01*
X105098818Y-63618518D01*
X105367261Y-63350075D01*
X105454626Y-63262710D01*
X105515948Y-63229226D01*
X105585640Y-63234210D01*
G37*
%TD.AperFunction*%
%TA.AperFunction,Conductor*%
G36*
X131267702Y-86298151D02*
G01*
X131288073Y-86320740D01*
X131356023Y-86417781D01*
X131513219Y-86574977D01*
X131695323Y-86702488D01*
X131819317Y-86760307D01*
X131871756Y-86806479D01*
X131890908Y-86873673D01*
X131870692Y-86940554D01*
X131819317Y-86985071D01*
X131699586Y-87040903D01*
X131634812Y-87086257D01*
X131634811Y-87086258D01*
X132163723Y-87615170D01*
X132197208Y-87676493D01*
X132192224Y-87746185D01*
X132150352Y-87802118D01*
X132135059Y-87811906D01*
X132095749Y-87833179D01*
X132095748Y-87833179D01*
X132009626Y-87926733D01*
X132009626Y-87926734D01*
X132008911Y-87928365D01*
X132007340Y-87930233D01*
X132004008Y-87935334D01*
X132003391Y-87934931D01*
X131963952Y-87981849D01*
X131897215Y-88002535D01*
X131829888Y-87983857D01*
X131807677Y-87966230D01*
X131281258Y-87439811D01*
X131275235Y-87440338D01*
X131233495Y-87473702D01*
X131163997Y-87480894D01*
X131101642Y-87449371D01*
X131066230Y-87389140D01*
X131062500Y-87358961D01*
X131062500Y-86391860D01*
X131082184Y-86324825D01*
X131134988Y-86279070D01*
X131204146Y-86269126D01*
X131267702Y-86298151D01*
G37*
%TD.AperFunction*%
%TA.AperFunction,Conductor*%
G36*
X135963628Y-59228185D02*
G01*
X135984270Y-59244819D01*
X142162115Y-65422664D01*
X142167456Y-65428754D01*
X142173919Y-65437177D01*
X142189472Y-65457447D01*
X142221381Y-65481932D01*
X142221385Y-65481934D01*
X142221388Y-65481937D01*
X142316583Y-65554983D01*
X142316584Y-65554984D01*
X142361581Y-65573622D01*
X142464610Y-65616298D01*
X142487823Y-65619354D01*
X142528149Y-65624663D01*
X142592046Y-65652929D01*
X142630517Y-65711254D01*
X142635285Y-65760563D01*
X142631140Y-65799999D01*
X142650127Y-65980648D01*
X142650128Y-65980650D01*
X142706257Y-66153398D01*
X142706258Y-66153400D01*
X142750591Y-66230186D01*
X142797077Y-66310703D01*
X142839414Y-66357723D01*
X142918613Y-66445684D01*
X142918620Y-66445690D01*
X143065565Y-66552452D01*
X143065566Y-66552452D01*
X143065570Y-66552455D01*
X143135842Y-66583742D01*
X143231501Y-66626333D01*
X143231507Y-66626335D01*
X143409179Y-66664100D01*
X143452189Y-66664100D01*
X143519228Y-66683785D01*
X143539870Y-66700419D01*
X144733237Y-67893786D01*
X144766722Y-67955109D01*
X144761738Y-68024801D01*
X144719866Y-68080734D01*
X144718442Y-68081785D01*
X144618616Y-68154313D01*
X144618613Y-68154315D01*
X144497076Y-68289298D01*
X144428155Y-68408673D01*
X144377588Y-68456889D01*
X144308981Y-68470112D01*
X144244116Y-68444144D01*
X144233087Y-68434354D01*
X143480658Y-67681925D01*
X143470732Y-67669535D01*
X143470525Y-67669707D01*
X143465552Y-67663696D01*
X143414306Y-67615573D01*
X143393097Y-67594363D01*
X143387492Y-67590015D01*
X143383046Y-67586218D01*
X143348509Y-67553785D01*
X143348501Y-67553780D01*
X143330540Y-67543906D01*
X143314274Y-67533222D01*
X143298064Y-67520648D01*
X143254571Y-67501827D01*
X143249323Y-67499256D01*
X143207805Y-67476432D01*
X143207804Y-67476431D01*
X143207803Y-67476431D01*
X143187937Y-67471330D01*
X143169538Y-67465030D01*
X143150709Y-67456883D01*
X143150708Y-67456882D01*
X143103902Y-67449469D01*
X143098181Y-67448284D01*
X143052283Y-67436500D01*
X143052282Y-67436500D01*
X143031774Y-67436500D01*
X143012376Y-67434973D01*
X143001769Y-67433293D01*
X142992122Y-67431765D01*
X142992121Y-67431764D01*
X142944939Y-67436225D01*
X142939101Y-67436500D01*
X133757562Y-67436500D01*
X133690523Y-67416815D01*
X133655987Y-67383623D01*
X133563978Y-67252220D01*
X133490487Y-67178729D01*
X133406781Y-67095023D01*
X133266677Y-66996921D01*
X133224676Y-66967511D01*
X133100682Y-66909692D01*
X133048243Y-66863519D01*
X133029091Y-66796326D01*
X133049307Y-66729445D01*
X133100684Y-66684927D01*
X133220413Y-66629097D01*
X133220420Y-66629093D01*
X133285186Y-66583742D01*
X133285187Y-66583740D01*
X132756276Y-66054829D01*
X132722791Y-65993506D01*
X132727775Y-65923814D01*
X132769647Y-65867881D01*
X132784933Y-65858097D01*
X132824251Y-65836820D01*
X132910371Y-65743269D01*
X132911083Y-65741643D01*
X132912652Y-65739777D01*
X132915992Y-65734666D01*
X132916609Y-65735069D01*
X132956036Y-65688158D01*
X133022770Y-65667464D01*
X133090099Y-65686135D01*
X133112322Y-65703769D01*
X133638740Y-66230187D01*
X133638742Y-66230186D01*
X133684093Y-66165420D01*
X133684100Y-66165408D01*
X133777419Y-65965284D01*
X133777424Y-65965270D01*
X133834573Y-65751986D01*
X133834575Y-65751976D01*
X133853821Y-65532000D01*
X133853821Y-65531999D01*
X133834575Y-65312023D01*
X133834573Y-65312013D01*
X133777424Y-65098729D01*
X133777420Y-65098720D01*
X133684098Y-64898590D01*
X133638740Y-64833811D01*
X133109949Y-65362602D01*
X133048626Y-65396087D01*
X132978934Y-65391103D01*
X132923001Y-65349231D01*
X132918460Y-65342743D01*
X132871189Y-65270391D01*
X132871187Y-65270388D01*
X132815673Y-65227180D01*
X132770843Y-65192287D01*
X132770840Y-65192285D01*
X132770488Y-65192012D01*
X132729675Y-65135301D01*
X132726000Y-65065529D01*
X132758969Y-65006477D01*
X133285187Y-64480258D01*
X133220409Y-64434900D01*
X133220407Y-64434899D01*
X133100683Y-64379071D01*
X133048243Y-64332899D01*
X133029091Y-64265705D01*
X133049307Y-64198824D01*
X133100682Y-64154307D01*
X133224677Y-64096488D01*
X133406781Y-63968977D01*
X133563977Y-63811781D01*
X133691488Y-63629677D01*
X133785440Y-63428196D01*
X133842978Y-63213463D01*
X133859506Y-63024542D01*
X133862353Y-62992002D01*
X133862353Y-62991997D01*
X133846413Y-62809800D01*
X133842978Y-62770537D01*
X133785440Y-62555804D01*
X133691488Y-62354324D01*
X133691486Y-62354321D01*
X133691485Y-62354319D01*
X133563978Y-62172220D01*
X133533268Y-62141510D01*
X133406781Y-62015023D01*
X133224677Y-61887512D01*
X133110738Y-61834381D01*
X133058299Y-61788210D01*
X133039147Y-61721017D01*
X133059363Y-61654135D01*
X133110739Y-61609618D01*
X133149593Y-61591500D01*
X133224677Y-61556488D01*
X133406781Y-61428977D01*
X133563977Y-61271781D01*
X133691488Y-61089677D01*
X133785440Y-60888196D01*
X133842978Y-60673463D01*
X133859506Y-60484542D01*
X133862353Y-60452002D01*
X133862353Y-60451997D01*
X133842978Y-60230542D01*
X133842978Y-60230537D01*
X133785440Y-60015804D01*
X133691488Y-59814324D01*
X133691486Y-59814321D01*
X133691485Y-59814319D01*
X133563978Y-59632220D01*
X133533269Y-59601511D01*
X133406781Y-59475023D01*
X133348298Y-59434072D01*
X133304675Y-59379497D01*
X133297483Y-59309999D01*
X133329005Y-59247644D01*
X133389235Y-59212231D01*
X133419424Y-59208500D01*
X135896589Y-59208500D01*
X135963628Y-59228185D01*
G37*
%TD.AperFunction*%
%TD*%
M02*
