%TF.GenerationSoftware,KiCad,Pcbnew,7.0.7*%
%TF.CreationDate,2023-10-23T22:40:38-07:00*%
%TF.ProjectId,MOSFET-board,4d4f5346-4554-42d6-926f-6172642e6b69,rev?*%
%TF.SameCoordinates,Original*%
%TF.FileFunction,Legend,Bot*%
%TF.FilePolarity,Positive*%
%FSLAX46Y46*%
G04 Gerber Fmt 4.6, Leading zero omitted, Abs format (unit mm)*
G04 Created by KiCad (PCBNEW 7.0.7) date 2023-10-23 22:40:38*
%MOMM*%
%LPD*%
G01*
G04 APERTURE LIST*
G04 Aperture macros list*
%AMRoundRect*
0 Rectangle with rounded corners*
0 $1 Rounding radius*
0 $2 $3 $4 $5 $6 $7 $8 $9 X,Y pos of 4 corners*
0 Add a 4 corners polygon primitive as box body*
4,1,4,$2,$3,$4,$5,$6,$7,$8,$9,$2,$3,0*
0 Add four circle primitives for the rounded corners*
1,1,$1+$1,$2,$3*
1,1,$1+$1,$4,$5*
1,1,$1+$1,$6,$7*
1,1,$1+$1,$8,$9*
0 Add four rect primitives between the rounded corners*
20,1,$1+$1,$2,$3,$4,$5,0*
20,1,$1+$1,$4,$5,$6,$7,0*
20,1,$1+$1,$6,$7,$8,$9,0*
20,1,$1+$1,$8,$9,$2,$3,0*%
G04 Aperture macros list end*
%ADD10C,0.150000*%
%ADD11C,0.127000*%
%ADD12C,0.120000*%
%ADD13C,0.200000*%
%ADD14C,1.560000*%
%ADD15R,1.560000X1.560000*%
%ADD16C,4.000000*%
%ADD17R,1.600000X1.600000*%
%ADD18C,1.600000*%
%ADD19R,0.700000X3.200000*%
%ADD20R,0.700000X4.300000*%
%ADD21RoundRect,0.250000X-0.712500X-2.475000X0.712500X-2.475000X0.712500X2.475000X-0.712500X2.475000X0*%
%ADD22RoundRect,0.200000X-0.275000X0.200000X-0.275000X-0.200000X0.275000X-0.200000X0.275000X0.200000X0*%
%ADD23RoundRect,0.200000X-0.200000X-0.275000X0.200000X-0.275000X0.200000X0.275000X-0.200000X0.275000X0*%
%ADD24RoundRect,0.218750X-0.218750X-0.256250X0.218750X-0.256250X0.218750X0.256250X-0.218750X0.256250X0*%
%ADD25RoundRect,0.200000X0.275000X-0.200000X0.275000X0.200000X-0.275000X0.200000X-0.275000X-0.200000X0*%
%ADD26RoundRect,0.218750X0.218750X0.256250X-0.218750X0.256250X-0.218750X-0.256250X0.218750X-0.256250X0*%
%ADD27RoundRect,0.190500X0.206500X-0.606500X0.206500X0.606500X-0.206500X0.606500X-0.206500X-0.606500X0*%
%ADD28RoundRect,0.141900X-0.800100X-0.245100X0.800100X-0.245100X0.800100X0.245100X-0.800100X0.245100X0*%
%ADD29RoundRect,0.102000X-1.325000X-2.000000X1.325000X-2.000000X1.325000X2.000000X-1.325000X2.000000X0*%
%ADD30RoundRect,0.250000X0.712500X2.475000X-0.712500X2.475000X-0.712500X-2.475000X0.712500X-2.475000X0*%
%ADD31RoundRect,0.200000X0.200000X0.275000X-0.200000X0.275000X-0.200000X-0.275000X0.200000X-0.275000X0*%
%ADD32RoundRect,0.190500X-0.606500X-0.206500X0.606500X-0.206500X0.606500X0.206500X-0.606500X0.206500X0*%
%ADD33RoundRect,0.141900X0.800100X0.245100X-0.800100X0.245100X-0.800100X-0.245100X0.800100X-0.245100X0*%
%ADD34RoundRect,0.102000X1.325000X2.000000X-1.325000X2.000000X-1.325000X-2.000000X1.325000X-2.000000X0*%
G04 APERTURE END LIST*
D10*
X190513333Y-98476009D02*
X190846666Y-98476009D01*
X190846666Y-98999819D02*
X190846666Y-97999819D01*
X190846666Y-97999819D02*
X190370476Y-97999819D01*
X189846666Y-98428390D02*
X189941904Y-98380771D01*
X189941904Y-98380771D02*
X189989523Y-98333152D01*
X189989523Y-98333152D02*
X190037142Y-98237914D01*
X190037142Y-98237914D02*
X190037142Y-98190295D01*
X190037142Y-98190295D02*
X189989523Y-98095057D01*
X189989523Y-98095057D02*
X189941904Y-98047438D01*
X189941904Y-98047438D02*
X189846666Y-97999819D01*
X189846666Y-97999819D02*
X189656190Y-97999819D01*
X189656190Y-97999819D02*
X189560952Y-98047438D01*
X189560952Y-98047438D02*
X189513333Y-98095057D01*
X189513333Y-98095057D02*
X189465714Y-98190295D01*
X189465714Y-98190295D02*
X189465714Y-98237914D01*
X189465714Y-98237914D02*
X189513333Y-98333152D01*
X189513333Y-98333152D02*
X189560952Y-98380771D01*
X189560952Y-98380771D02*
X189656190Y-98428390D01*
X189656190Y-98428390D02*
X189846666Y-98428390D01*
X189846666Y-98428390D02*
X189941904Y-98476009D01*
X189941904Y-98476009D02*
X189989523Y-98523628D01*
X189989523Y-98523628D02*
X190037142Y-98618866D01*
X190037142Y-98618866D02*
X190037142Y-98809342D01*
X190037142Y-98809342D02*
X189989523Y-98904580D01*
X189989523Y-98904580D02*
X189941904Y-98952200D01*
X189941904Y-98952200D02*
X189846666Y-98999819D01*
X189846666Y-98999819D02*
X189656190Y-98999819D01*
X189656190Y-98999819D02*
X189560952Y-98952200D01*
X189560952Y-98952200D02*
X189513333Y-98904580D01*
X189513333Y-98904580D02*
X189465714Y-98809342D01*
X189465714Y-98809342D02*
X189465714Y-98618866D01*
X189465714Y-98618866D02*
X189513333Y-98523628D01*
X189513333Y-98523628D02*
X189560952Y-98476009D01*
X189560952Y-98476009D02*
X189656190Y-98428390D01*
X178954819Y-87127142D02*
X178478628Y-86793809D01*
X178954819Y-86555714D02*
X177954819Y-86555714D01*
X177954819Y-86555714D02*
X177954819Y-86936666D01*
X177954819Y-86936666D02*
X178002438Y-87031904D01*
X178002438Y-87031904D02*
X178050057Y-87079523D01*
X178050057Y-87079523D02*
X178145295Y-87127142D01*
X178145295Y-87127142D02*
X178288152Y-87127142D01*
X178288152Y-87127142D02*
X178383390Y-87079523D01*
X178383390Y-87079523D02*
X178431009Y-87031904D01*
X178431009Y-87031904D02*
X178478628Y-86936666D01*
X178478628Y-86936666D02*
X178478628Y-86555714D01*
X178954819Y-87603333D02*
X178954819Y-87793809D01*
X178954819Y-87793809D02*
X178907200Y-87889047D01*
X178907200Y-87889047D02*
X178859580Y-87936666D01*
X178859580Y-87936666D02*
X178716723Y-88031904D01*
X178716723Y-88031904D02*
X178526247Y-88079523D01*
X178526247Y-88079523D02*
X178145295Y-88079523D01*
X178145295Y-88079523D02*
X178050057Y-88031904D01*
X178050057Y-88031904D02*
X178002438Y-87984285D01*
X178002438Y-87984285D02*
X177954819Y-87889047D01*
X177954819Y-87889047D02*
X177954819Y-87698571D01*
X177954819Y-87698571D02*
X178002438Y-87603333D01*
X178002438Y-87603333D02*
X178050057Y-87555714D01*
X178050057Y-87555714D02*
X178145295Y-87508095D01*
X178145295Y-87508095D02*
X178383390Y-87508095D01*
X178383390Y-87508095D02*
X178478628Y-87555714D01*
X178478628Y-87555714D02*
X178526247Y-87603333D01*
X178526247Y-87603333D02*
X178573866Y-87698571D01*
X178573866Y-87698571D02*
X178573866Y-87889047D01*
X178573866Y-87889047D02*
X178526247Y-87984285D01*
X178526247Y-87984285D02*
X178478628Y-88031904D01*
X178478628Y-88031904D02*
X178383390Y-88079523D01*
X177954819Y-88412857D02*
X177954819Y-89079523D01*
X177954819Y-89079523D02*
X178954819Y-88650952D01*
X184372857Y-97679819D02*
X184706190Y-97203628D01*
X184944285Y-97679819D02*
X184944285Y-96679819D01*
X184944285Y-96679819D02*
X184563333Y-96679819D01*
X184563333Y-96679819D02*
X184468095Y-96727438D01*
X184468095Y-96727438D02*
X184420476Y-96775057D01*
X184420476Y-96775057D02*
X184372857Y-96870295D01*
X184372857Y-96870295D02*
X184372857Y-97013152D01*
X184372857Y-97013152D02*
X184420476Y-97108390D01*
X184420476Y-97108390D02*
X184468095Y-97156009D01*
X184468095Y-97156009D02*
X184563333Y-97203628D01*
X184563333Y-97203628D02*
X184944285Y-97203628D01*
X183991904Y-96775057D02*
X183944285Y-96727438D01*
X183944285Y-96727438D02*
X183849047Y-96679819D01*
X183849047Y-96679819D02*
X183610952Y-96679819D01*
X183610952Y-96679819D02*
X183515714Y-96727438D01*
X183515714Y-96727438D02*
X183468095Y-96775057D01*
X183468095Y-96775057D02*
X183420476Y-96870295D01*
X183420476Y-96870295D02*
X183420476Y-96965533D01*
X183420476Y-96965533D02*
X183468095Y-97108390D01*
X183468095Y-97108390D02*
X184039523Y-97679819D01*
X184039523Y-97679819D02*
X183420476Y-97679819D01*
X182563333Y-96679819D02*
X182753809Y-96679819D01*
X182753809Y-96679819D02*
X182849047Y-96727438D01*
X182849047Y-96727438D02*
X182896666Y-96775057D01*
X182896666Y-96775057D02*
X182991904Y-96917914D01*
X182991904Y-96917914D02*
X183039523Y-97108390D01*
X183039523Y-97108390D02*
X183039523Y-97489342D01*
X183039523Y-97489342D02*
X182991904Y-97584580D01*
X182991904Y-97584580D02*
X182944285Y-97632200D01*
X182944285Y-97632200D02*
X182849047Y-97679819D01*
X182849047Y-97679819D02*
X182658571Y-97679819D01*
X182658571Y-97679819D02*
X182563333Y-97632200D01*
X182563333Y-97632200D02*
X182515714Y-97584580D01*
X182515714Y-97584580D02*
X182468095Y-97489342D01*
X182468095Y-97489342D02*
X182468095Y-97251247D01*
X182468095Y-97251247D02*
X182515714Y-97156009D01*
X182515714Y-97156009D02*
X182563333Y-97108390D01*
X182563333Y-97108390D02*
X182658571Y-97060771D01*
X182658571Y-97060771D02*
X182849047Y-97060771D01*
X182849047Y-97060771D02*
X182944285Y-97108390D01*
X182944285Y-97108390D02*
X182991904Y-97156009D01*
X182991904Y-97156009D02*
X183039523Y-97251247D01*
X187664285Y-123079819D02*
X187664285Y-122079819D01*
X187664285Y-122079819D02*
X187426190Y-122079819D01*
X187426190Y-122079819D02*
X187283333Y-122127438D01*
X187283333Y-122127438D02*
X187188095Y-122222676D01*
X187188095Y-122222676D02*
X187140476Y-122317914D01*
X187140476Y-122317914D02*
X187092857Y-122508390D01*
X187092857Y-122508390D02*
X187092857Y-122651247D01*
X187092857Y-122651247D02*
X187140476Y-122841723D01*
X187140476Y-122841723D02*
X187188095Y-122936961D01*
X187188095Y-122936961D02*
X187283333Y-123032200D01*
X187283333Y-123032200D02*
X187426190Y-123079819D01*
X187426190Y-123079819D02*
X187664285Y-123079819D01*
X186235714Y-122413152D02*
X186235714Y-123079819D01*
X186473809Y-122032200D02*
X186711904Y-122746485D01*
X186711904Y-122746485D02*
X186092857Y-122746485D01*
X185569047Y-122508390D02*
X185664285Y-122460771D01*
X185664285Y-122460771D02*
X185711904Y-122413152D01*
X185711904Y-122413152D02*
X185759523Y-122317914D01*
X185759523Y-122317914D02*
X185759523Y-122270295D01*
X185759523Y-122270295D02*
X185711904Y-122175057D01*
X185711904Y-122175057D02*
X185664285Y-122127438D01*
X185664285Y-122127438D02*
X185569047Y-122079819D01*
X185569047Y-122079819D02*
X185378571Y-122079819D01*
X185378571Y-122079819D02*
X185283333Y-122127438D01*
X185283333Y-122127438D02*
X185235714Y-122175057D01*
X185235714Y-122175057D02*
X185188095Y-122270295D01*
X185188095Y-122270295D02*
X185188095Y-122317914D01*
X185188095Y-122317914D02*
X185235714Y-122413152D01*
X185235714Y-122413152D02*
X185283333Y-122460771D01*
X185283333Y-122460771D02*
X185378571Y-122508390D01*
X185378571Y-122508390D02*
X185569047Y-122508390D01*
X185569047Y-122508390D02*
X185664285Y-122556009D01*
X185664285Y-122556009D02*
X185711904Y-122603628D01*
X185711904Y-122603628D02*
X185759523Y-122698866D01*
X185759523Y-122698866D02*
X185759523Y-122889342D01*
X185759523Y-122889342D02*
X185711904Y-122984580D01*
X185711904Y-122984580D02*
X185664285Y-123032200D01*
X185664285Y-123032200D02*
X185569047Y-123079819D01*
X185569047Y-123079819D02*
X185378571Y-123079819D01*
X185378571Y-123079819D02*
X185283333Y-123032200D01*
X185283333Y-123032200D02*
X185235714Y-122984580D01*
X185235714Y-122984580D02*
X185188095Y-122889342D01*
X185188095Y-122889342D02*
X185188095Y-122698866D01*
X185188095Y-122698866D02*
X185235714Y-122603628D01*
X185235714Y-122603628D02*
X185283333Y-122556009D01*
X185283333Y-122556009D02*
X185378571Y-122508390D01*
X194739819Y-84125952D02*
X194263628Y-83792619D01*
X194739819Y-83554524D02*
X193739819Y-83554524D01*
X193739819Y-83554524D02*
X193739819Y-83935476D01*
X193739819Y-83935476D02*
X193787438Y-84030714D01*
X193787438Y-84030714D02*
X193835057Y-84078333D01*
X193835057Y-84078333D02*
X193930295Y-84125952D01*
X193930295Y-84125952D02*
X194073152Y-84125952D01*
X194073152Y-84125952D02*
X194168390Y-84078333D01*
X194168390Y-84078333D02*
X194216009Y-84030714D01*
X194216009Y-84030714D02*
X194263628Y-83935476D01*
X194263628Y-83935476D02*
X194263628Y-83554524D01*
X194739819Y-85078333D02*
X194739819Y-84506905D01*
X194739819Y-84792619D02*
X193739819Y-84792619D01*
X193739819Y-84792619D02*
X193882676Y-84697381D01*
X193882676Y-84697381D02*
X193977914Y-84602143D01*
X193977914Y-84602143D02*
X194025533Y-84506905D01*
X193739819Y-85697381D02*
X193739819Y-85792619D01*
X193739819Y-85792619D02*
X193787438Y-85887857D01*
X193787438Y-85887857D02*
X193835057Y-85935476D01*
X193835057Y-85935476D02*
X193930295Y-85983095D01*
X193930295Y-85983095D02*
X194120771Y-86030714D01*
X194120771Y-86030714D02*
X194358866Y-86030714D01*
X194358866Y-86030714D02*
X194549342Y-85983095D01*
X194549342Y-85983095D02*
X194644580Y-85935476D01*
X194644580Y-85935476D02*
X194692200Y-85887857D01*
X194692200Y-85887857D02*
X194739819Y-85792619D01*
X194739819Y-85792619D02*
X194739819Y-85697381D01*
X194739819Y-85697381D02*
X194692200Y-85602143D01*
X194692200Y-85602143D02*
X194644580Y-85554524D01*
X194644580Y-85554524D02*
X194549342Y-85506905D01*
X194549342Y-85506905D02*
X194358866Y-85459286D01*
X194358866Y-85459286D02*
X194120771Y-85459286D01*
X194120771Y-85459286D02*
X193930295Y-85506905D01*
X193930295Y-85506905D02*
X193835057Y-85554524D01*
X193835057Y-85554524D02*
X193787438Y-85602143D01*
X193787438Y-85602143D02*
X193739819Y-85697381D01*
X193739819Y-86364048D02*
X193739819Y-87030714D01*
X193739819Y-87030714D02*
X194739819Y-86602143D01*
X194408333Y-121536009D02*
X194741666Y-121536009D01*
X194741666Y-122059819D02*
X194741666Y-121059819D01*
X194741666Y-121059819D02*
X194265476Y-121059819D01*
X193836904Y-122059819D02*
X193646428Y-122059819D01*
X193646428Y-122059819D02*
X193551190Y-122012200D01*
X193551190Y-122012200D02*
X193503571Y-121964580D01*
X193503571Y-121964580D02*
X193408333Y-121821723D01*
X193408333Y-121821723D02*
X193360714Y-121631247D01*
X193360714Y-121631247D02*
X193360714Y-121250295D01*
X193360714Y-121250295D02*
X193408333Y-121155057D01*
X193408333Y-121155057D02*
X193455952Y-121107438D01*
X193455952Y-121107438D02*
X193551190Y-121059819D01*
X193551190Y-121059819D02*
X193741666Y-121059819D01*
X193741666Y-121059819D02*
X193836904Y-121107438D01*
X193836904Y-121107438D02*
X193884523Y-121155057D01*
X193884523Y-121155057D02*
X193932142Y-121250295D01*
X193932142Y-121250295D02*
X193932142Y-121488390D01*
X193932142Y-121488390D02*
X193884523Y-121583628D01*
X193884523Y-121583628D02*
X193836904Y-121631247D01*
X193836904Y-121631247D02*
X193741666Y-121678866D01*
X193741666Y-121678866D02*
X193551190Y-121678866D01*
X193551190Y-121678866D02*
X193455952Y-121631247D01*
X193455952Y-121631247D02*
X193408333Y-121583628D01*
X193408333Y-121583628D02*
X193360714Y-121488390D01*
X176149819Y-108207142D02*
X175673628Y-107873809D01*
X176149819Y-107635714D02*
X175149819Y-107635714D01*
X175149819Y-107635714D02*
X175149819Y-108016666D01*
X175149819Y-108016666D02*
X175197438Y-108111904D01*
X175197438Y-108111904D02*
X175245057Y-108159523D01*
X175245057Y-108159523D02*
X175340295Y-108207142D01*
X175340295Y-108207142D02*
X175483152Y-108207142D01*
X175483152Y-108207142D02*
X175578390Y-108159523D01*
X175578390Y-108159523D02*
X175626009Y-108111904D01*
X175626009Y-108111904D02*
X175673628Y-108016666D01*
X175673628Y-108016666D02*
X175673628Y-107635714D01*
X175149819Y-108540476D02*
X175149819Y-109207142D01*
X175149819Y-109207142D02*
X176149819Y-108778571D01*
X175578390Y-109730952D02*
X175530771Y-109635714D01*
X175530771Y-109635714D02*
X175483152Y-109588095D01*
X175483152Y-109588095D02*
X175387914Y-109540476D01*
X175387914Y-109540476D02*
X175340295Y-109540476D01*
X175340295Y-109540476D02*
X175245057Y-109588095D01*
X175245057Y-109588095D02*
X175197438Y-109635714D01*
X175197438Y-109635714D02*
X175149819Y-109730952D01*
X175149819Y-109730952D02*
X175149819Y-109921428D01*
X175149819Y-109921428D02*
X175197438Y-110016666D01*
X175197438Y-110016666D02*
X175245057Y-110064285D01*
X175245057Y-110064285D02*
X175340295Y-110111904D01*
X175340295Y-110111904D02*
X175387914Y-110111904D01*
X175387914Y-110111904D02*
X175483152Y-110064285D01*
X175483152Y-110064285D02*
X175530771Y-110016666D01*
X175530771Y-110016666D02*
X175578390Y-109921428D01*
X175578390Y-109921428D02*
X175578390Y-109730952D01*
X175578390Y-109730952D02*
X175626009Y-109635714D01*
X175626009Y-109635714D02*
X175673628Y-109588095D01*
X175673628Y-109588095D02*
X175768866Y-109540476D01*
X175768866Y-109540476D02*
X175959342Y-109540476D01*
X175959342Y-109540476D02*
X176054580Y-109588095D01*
X176054580Y-109588095D02*
X176102200Y-109635714D01*
X176102200Y-109635714D02*
X176149819Y-109730952D01*
X176149819Y-109730952D02*
X176149819Y-109921428D01*
X176149819Y-109921428D02*
X176102200Y-110016666D01*
X176102200Y-110016666D02*
X176054580Y-110064285D01*
X176054580Y-110064285D02*
X175959342Y-110111904D01*
X175959342Y-110111904D02*
X175768866Y-110111904D01*
X175768866Y-110111904D02*
X175673628Y-110064285D01*
X175673628Y-110064285D02*
X175626009Y-110016666D01*
X175626009Y-110016666D02*
X175578390Y-109921428D01*
X143579819Y-116908333D02*
X143103628Y-116575000D01*
X143579819Y-116336905D02*
X142579819Y-116336905D01*
X142579819Y-116336905D02*
X142579819Y-116717857D01*
X142579819Y-116717857D02*
X142627438Y-116813095D01*
X142627438Y-116813095D02*
X142675057Y-116860714D01*
X142675057Y-116860714D02*
X142770295Y-116908333D01*
X142770295Y-116908333D02*
X142913152Y-116908333D01*
X142913152Y-116908333D02*
X143008390Y-116860714D01*
X143008390Y-116860714D02*
X143056009Y-116813095D01*
X143056009Y-116813095D02*
X143103628Y-116717857D01*
X143103628Y-116717857D02*
X143103628Y-116336905D01*
X143579819Y-117860714D02*
X143579819Y-117289286D01*
X143579819Y-117575000D02*
X142579819Y-117575000D01*
X142579819Y-117575000D02*
X142722676Y-117479762D01*
X142722676Y-117479762D02*
X142817914Y-117384524D01*
X142817914Y-117384524D02*
X142865533Y-117289286D01*
X142879819Y-109982142D02*
X142403628Y-109648809D01*
X142879819Y-109410714D02*
X141879819Y-109410714D01*
X141879819Y-109410714D02*
X141879819Y-109791666D01*
X141879819Y-109791666D02*
X141927438Y-109886904D01*
X141927438Y-109886904D02*
X141975057Y-109934523D01*
X141975057Y-109934523D02*
X142070295Y-109982142D01*
X142070295Y-109982142D02*
X142213152Y-109982142D01*
X142213152Y-109982142D02*
X142308390Y-109934523D01*
X142308390Y-109934523D02*
X142356009Y-109886904D01*
X142356009Y-109886904D02*
X142403628Y-109791666D01*
X142403628Y-109791666D02*
X142403628Y-109410714D01*
X141879819Y-110315476D02*
X141879819Y-110982142D01*
X141879819Y-110982142D02*
X142879819Y-110553571D01*
X142879819Y-111886904D02*
X142879819Y-111315476D01*
X142879819Y-111601190D02*
X141879819Y-111601190D01*
X141879819Y-111601190D02*
X142022676Y-111505952D01*
X142022676Y-111505952D02*
X142117914Y-111410714D01*
X142117914Y-111410714D02*
X142165533Y-111315476D01*
X184919285Y-94824819D02*
X184919285Y-93824819D01*
X184919285Y-93824819D02*
X184681190Y-93824819D01*
X184681190Y-93824819D02*
X184538333Y-93872438D01*
X184538333Y-93872438D02*
X184443095Y-93967676D01*
X184443095Y-93967676D02*
X184395476Y-94062914D01*
X184395476Y-94062914D02*
X184347857Y-94253390D01*
X184347857Y-94253390D02*
X184347857Y-94396247D01*
X184347857Y-94396247D02*
X184395476Y-94586723D01*
X184395476Y-94586723D02*
X184443095Y-94681961D01*
X184443095Y-94681961D02*
X184538333Y-94777200D01*
X184538333Y-94777200D02*
X184681190Y-94824819D01*
X184681190Y-94824819D02*
X184919285Y-94824819D01*
X183966904Y-93920057D02*
X183919285Y-93872438D01*
X183919285Y-93872438D02*
X183824047Y-93824819D01*
X183824047Y-93824819D02*
X183585952Y-93824819D01*
X183585952Y-93824819D02*
X183490714Y-93872438D01*
X183490714Y-93872438D02*
X183443095Y-93920057D01*
X183443095Y-93920057D02*
X183395476Y-94015295D01*
X183395476Y-94015295D02*
X183395476Y-94110533D01*
X183395476Y-94110533D02*
X183443095Y-94253390D01*
X183443095Y-94253390D02*
X184014523Y-94824819D01*
X184014523Y-94824819D02*
X183395476Y-94824819D01*
X182490714Y-93824819D02*
X182966904Y-93824819D01*
X182966904Y-93824819D02*
X183014523Y-94301009D01*
X183014523Y-94301009D02*
X182966904Y-94253390D01*
X182966904Y-94253390D02*
X182871666Y-94205771D01*
X182871666Y-94205771D02*
X182633571Y-94205771D01*
X182633571Y-94205771D02*
X182538333Y-94253390D01*
X182538333Y-94253390D02*
X182490714Y-94301009D01*
X182490714Y-94301009D02*
X182443095Y-94396247D01*
X182443095Y-94396247D02*
X182443095Y-94634342D01*
X182443095Y-94634342D02*
X182490714Y-94729580D01*
X182490714Y-94729580D02*
X182538333Y-94777200D01*
X182538333Y-94777200D02*
X182633571Y-94824819D01*
X182633571Y-94824819D02*
X182871666Y-94824819D01*
X182871666Y-94824819D02*
X182966904Y-94777200D01*
X182966904Y-94777200D02*
X183014523Y-94729580D01*
X186444819Y-103844405D02*
X187254342Y-103844405D01*
X187254342Y-103844405D02*
X187349580Y-103892024D01*
X187349580Y-103892024D02*
X187397200Y-103939643D01*
X187397200Y-103939643D02*
X187444819Y-104034881D01*
X187444819Y-104034881D02*
X187444819Y-104225357D01*
X187444819Y-104225357D02*
X187397200Y-104320595D01*
X187397200Y-104320595D02*
X187349580Y-104368214D01*
X187349580Y-104368214D02*
X187254342Y-104415833D01*
X187254342Y-104415833D02*
X186444819Y-104415833D01*
X186540057Y-104844405D02*
X186492438Y-104892024D01*
X186492438Y-104892024D02*
X186444819Y-104987262D01*
X186444819Y-104987262D02*
X186444819Y-105225357D01*
X186444819Y-105225357D02*
X186492438Y-105320595D01*
X186492438Y-105320595D02*
X186540057Y-105368214D01*
X186540057Y-105368214D02*
X186635295Y-105415833D01*
X186635295Y-105415833D02*
X186730533Y-105415833D01*
X186730533Y-105415833D02*
X186873390Y-105368214D01*
X186873390Y-105368214D02*
X187444819Y-104796786D01*
X187444819Y-104796786D02*
X187444819Y-105415833D01*
X187444819Y-105892024D02*
X187444819Y-106082500D01*
X187444819Y-106082500D02*
X187397200Y-106177738D01*
X187397200Y-106177738D02*
X187349580Y-106225357D01*
X187349580Y-106225357D02*
X187206723Y-106320595D01*
X187206723Y-106320595D02*
X187016247Y-106368214D01*
X187016247Y-106368214D02*
X186635295Y-106368214D01*
X186635295Y-106368214D02*
X186540057Y-106320595D01*
X186540057Y-106320595D02*
X186492438Y-106272976D01*
X186492438Y-106272976D02*
X186444819Y-106177738D01*
X186444819Y-106177738D02*
X186444819Y-105987262D01*
X186444819Y-105987262D02*
X186492438Y-105892024D01*
X186492438Y-105892024D02*
X186540057Y-105844405D01*
X186540057Y-105844405D02*
X186635295Y-105796786D01*
X186635295Y-105796786D02*
X186873390Y-105796786D01*
X186873390Y-105796786D02*
X186968628Y-105844405D01*
X186968628Y-105844405D02*
X187016247Y-105892024D01*
X187016247Y-105892024D02*
X187063866Y-105987262D01*
X187063866Y-105987262D02*
X187063866Y-106177738D01*
X187063866Y-106177738D02*
X187016247Y-106272976D01*
X187016247Y-106272976D02*
X186968628Y-106320595D01*
X186968628Y-106320595D02*
X186873390Y-106368214D01*
X134241904Y-108164819D02*
X134241904Y-108974342D01*
X134241904Y-108974342D02*
X134194285Y-109069580D01*
X134194285Y-109069580D02*
X134146666Y-109117200D01*
X134146666Y-109117200D02*
X134051428Y-109164819D01*
X134051428Y-109164819D02*
X133860952Y-109164819D01*
X133860952Y-109164819D02*
X133765714Y-109117200D01*
X133765714Y-109117200D02*
X133718095Y-109069580D01*
X133718095Y-109069580D02*
X133670476Y-108974342D01*
X133670476Y-108974342D02*
X133670476Y-108164819D01*
X133289523Y-108164819D02*
X132622857Y-108164819D01*
X132622857Y-108164819D02*
X133051428Y-109164819D01*
X131274404Y-115465008D02*
X131607737Y-115465008D01*
X131607737Y-115988818D02*
X131607737Y-114988818D01*
X131607737Y-114988818D02*
X131131547Y-114988818D01*
X130798213Y-115084056D02*
X130750594Y-115036437D01*
X130750594Y-115036437D02*
X130655356Y-114988818D01*
X130655356Y-114988818D02*
X130417261Y-114988818D01*
X130417261Y-114988818D02*
X130322023Y-115036437D01*
X130322023Y-115036437D02*
X130274404Y-115084056D01*
X130274404Y-115084056D02*
X130226785Y-115179294D01*
X130226785Y-115179294D02*
X130226785Y-115274532D01*
X130226785Y-115274532D02*
X130274404Y-115417389D01*
X130274404Y-115417389D02*
X130845832Y-115988818D01*
X130845832Y-115988818D02*
X130226785Y-115988818D01*
X184864285Y-100629819D02*
X184864285Y-99629819D01*
X184864285Y-99629819D02*
X184626190Y-99629819D01*
X184626190Y-99629819D02*
X184483333Y-99677438D01*
X184483333Y-99677438D02*
X184388095Y-99772676D01*
X184388095Y-99772676D02*
X184340476Y-99867914D01*
X184340476Y-99867914D02*
X184292857Y-100058390D01*
X184292857Y-100058390D02*
X184292857Y-100201247D01*
X184292857Y-100201247D02*
X184340476Y-100391723D01*
X184340476Y-100391723D02*
X184388095Y-100486961D01*
X184388095Y-100486961D02*
X184483333Y-100582200D01*
X184483333Y-100582200D02*
X184626190Y-100629819D01*
X184626190Y-100629819D02*
X184864285Y-100629819D01*
X183435714Y-99963152D02*
X183435714Y-100629819D01*
X183673809Y-99582200D02*
X183911904Y-100296485D01*
X183911904Y-100296485D02*
X183292857Y-100296485D01*
X183007142Y-99629819D02*
X182340476Y-99629819D01*
X182340476Y-99629819D02*
X182769047Y-100629819D01*
X176079819Y-87177142D02*
X175603628Y-86843809D01*
X176079819Y-86605714D02*
X175079819Y-86605714D01*
X175079819Y-86605714D02*
X175079819Y-86986666D01*
X175079819Y-86986666D02*
X175127438Y-87081904D01*
X175127438Y-87081904D02*
X175175057Y-87129523D01*
X175175057Y-87129523D02*
X175270295Y-87177142D01*
X175270295Y-87177142D02*
X175413152Y-87177142D01*
X175413152Y-87177142D02*
X175508390Y-87129523D01*
X175508390Y-87129523D02*
X175556009Y-87081904D01*
X175556009Y-87081904D02*
X175603628Y-86986666D01*
X175603628Y-86986666D02*
X175603628Y-86605714D01*
X175079819Y-87510476D02*
X175079819Y-88177142D01*
X175079819Y-88177142D02*
X176079819Y-87748571D01*
X175079819Y-88462857D02*
X175079819Y-89129523D01*
X175079819Y-89129523D02*
X176079819Y-88700952D01*
X143509569Y-95719333D02*
X143033378Y-95386000D01*
X143509569Y-95147905D02*
X142509569Y-95147905D01*
X142509569Y-95147905D02*
X142509569Y-95528857D01*
X142509569Y-95528857D02*
X142557188Y-95624095D01*
X142557188Y-95624095D02*
X142604807Y-95671714D01*
X142604807Y-95671714D02*
X142700045Y-95719333D01*
X142700045Y-95719333D02*
X142842902Y-95719333D01*
X142842902Y-95719333D02*
X142938140Y-95671714D01*
X142938140Y-95671714D02*
X142985759Y-95624095D01*
X142985759Y-95624095D02*
X143033378Y-95528857D01*
X143033378Y-95528857D02*
X143033378Y-95147905D01*
X142509569Y-96624095D02*
X142509569Y-96147905D01*
X142509569Y-96147905D02*
X142985759Y-96100286D01*
X142985759Y-96100286D02*
X142938140Y-96147905D01*
X142938140Y-96147905D02*
X142890521Y-96243143D01*
X142890521Y-96243143D02*
X142890521Y-96481238D01*
X142890521Y-96481238D02*
X142938140Y-96576476D01*
X142938140Y-96576476D02*
X142985759Y-96624095D01*
X142985759Y-96624095D02*
X143080997Y-96671714D01*
X143080997Y-96671714D02*
X143319092Y-96671714D01*
X143319092Y-96671714D02*
X143414330Y-96624095D01*
X143414330Y-96624095D02*
X143461950Y-96576476D01*
X143461950Y-96576476D02*
X143509569Y-96481238D01*
X143509569Y-96481238D02*
X143509569Y-96243143D01*
X143509569Y-96243143D02*
X143461950Y-96147905D01*
X143461950Y-96147905D02*
X143414330Y-96100286D01*
X176842857Y-106329819D02*
X177176190Y-105853628D01*
X177414285Y-106329819D02*
X177414285Y-105329819D01*
X177414285Y-105329819D02*
X177033333Y-105329819D01*
X177033333Y-105329819D02*
X176938095Y-105377438D01*
X176938095Y-105377438D02*
X176890476Y-105425057D01*
X176890476Y-105425057D02*
X176842857Y-105520295D01*
X176842857Y-105520295D02*
X176842857Y-105663152D01*
X176842857Y-105663152D02*
X176890476Y-105758390D01*
X176890476Y-105758390D02*
X176938095Y-105806009D01*
X176938095Y-105806009D02*
X177033333Y-105853628D01*
X177033333Y-105853628D02*
X177414285Y-105853628D01*
X176271428Y-105758390D02*
X176366666Y-105710771D01*
X176366666Y-105710771D02*
X176414285Y-105663152D01*
X176414285Y-105663152D02*
X176461904Y-105567914D01*
X176461904Y-105567914D02*
X176461904Y-105520295D01*
X176461904Y-105520295D02*
X176414285Y-105425057D01*
X176414285Y-105425057D02*
X176366666Y-105377438D01*
X176366666Y-105377438D02*
X176271428Y-105329819D01*
X176271428Y-105329819D02*
X176080952Y-105329819D01*
X176080952Y-105329819D02*
X175985714Y-105377438D01*
X175985714Y-105377438D02*
X175938095Y-105425057D01*
X175938095Y-105425057D02*
X175890476Y-105520295D01*
X175890476Y-105520295D02*
X175890476Y-105567914D01*
X175890476Y-105567914D02*
X175938095Y-105663152D01*
X175938095Y-105663152D02*
X175985714Y-105710771D01*
X175985714Y-105710771D02*
X176080952Y-105758390D01*
X176080952Y-105758390D02*
X176271428Y-105758390D01*
X176271428Y-105758390D02*
X176366666Y-105806009D01*
X176366666Y-105806009D02*
X176414285Y-105853628D01*
X176414285Y-105853628D02*
X176461904Y-105948866D01*
X176461904Y-105948866D02*
X176461904Y-106139342D01*
X176461904Y-106139342D02*
X176414285Y-106234580D01*
X176414285Y-106234580D02*
X176366666Y-106282200D01*
X176366666Y-106282200D02*
X176271428Y-106329819D01*
X176271428Y-106329819D02*
X176080952Y-106329819D01*
X176080952Y-106329819D02*
X175985714Y-106282200D01*
X175985714Y-106282200D02*
X175938095Y-106234580D01*
X175938095Y-106234580D02*
X175890476Y-106139342D01*
X175890476Y-106139342D02*
X175890476Y-105948866D01*
X175890476Y-105948866D02*
X175938095Y-105853628D01*
X175938095Y-105853628D02*
X175985714Y-105806009D01*
X175985714Y-105806009D02*
X176080952Y-105758390D01*
X175319047Y-105758390D02*
X175414285Y-105710771D01*
X175414285Y-105710771D02*
X175461904Y-105663152D01*
X175461904Y-105663152D02*
X175509523Y-105567914D01*
X175509523Y-105567914D02*
X175509523Y-105520295D01*
X175509523Y-105520295D02*
X175461904Y-105425057D01*
X175461904Y-105425057D02*
X175414285Y-105377438D01*
X175414285Y-105377438D02*
X175319047Y-105329819D01*
X175319047Y-105329819D02*
X175128571Y-105329819D01*
X175128571Y-105329819D02*
X175033333Y-105377438D01*
X175033333Y-105377438D02*
X174985714Y-105425057D01*
X174985714Y-105425057D02*
X174938095Y-105520295D01*
X174938095Y-105520295D02*
X174938095Y-105567914D01*
X174938095Y-105567914D02*
X174985714Y-105663152D01*
X174985714Y-105663152D02*
X175033333Y-105710771D01*
X175033333Y-105710771D02*
X175128571Y-105758390D01*
X175128571Y-105758390D02*
X175319047Y-105758390D01*
X175319047Y-105758390D02*
X175414285Y-105806009D01*
X175414285Y-105806009D02*
X175461904Y-105853628D01*
X175461904Y-105853628D02*
X175509523Y-105948866D01*
X175509523Y-105948866D02*
X175509523Y-106139342D01*
X175509523Y-106139342D02*
X175461904Y-106234580D01*
X175461904Y-106234580D02*
X175414285Y-106282200D01*
X175414285Y-106282200D02*
X175319047Y-106329819D01*
X175319047Y-106329819D02*
X175128571Y-106329819D01*
X175128571Y-106329819D02*
X175033333Y-106282200D01*
X175033333Y-106282200D02*
X174985714Y-106234580D01*
X174985714Y-106234580D02*
X174938095Y-106139342D01*
X174938095Y-106139342D02*
X174938095Y-105948866D01*
X174938095Y-105948866D02*
X174985714Y-105853628D01*
X174985714Y-105853628D02*
X175033333Y-105806009D01*
X175033333Y-105806009D02*
X175128571Y-105758390D01*
X139367844Y-97140819D02*
X139367844Y-96140819D01*
X139367844Y-96140819D02*
X139129749Y-96140819D01*
X139129749Y-96140819D02*
X138986892Y-96188438D01*
X138986892Y-96188438D02*
X138891654Y-96283676D01*
X138891654Y-96283676D02*
X138844035Y-96378914D01*
X138844035Y-96378914D02*
X138796416Y-96569390D01*
X138796416Y-96569390D02*
X138796416Y-96712247D01*
X138796416Y-96712247D02*
X138844035Y-96902723D01*
X138844035Y-96902723D02*
X138891654Y-96997961D01*
X138891654Y-96997961D02*
X138986892Y-97093200D01*
X138986892Y-97093200D02*
X139129749Y-97140819D01*
X139129749Y-97140819D02*
X139367844Y-97140819D01*
X137891654Y-96140819D02*
X138367844Y-96140819D01*
X138367844Y-96140819D02*
X138415463Y-96617009D01*
X138415463Y-96617009D02*
X138367844Y-96569390D01*
X138367844Y-96569390D02*
X138272606Y-96521771D01*
X138272606Y-96521771D02*
X138034511Y-96521771D01*
X138034511Y-96521771D02*
X137939273Y-96569390D01*
X137939273Y-96569390D02*
X137891654Y-96617009D01*
X137891654Y-96617009D02*
X137844035Y-96712247D01*
X137844035Y-96712247D02*
X137844035Y-96950342D01*
X137844035Y-96950342D02*
X137891654Y-97045580D01*
X137891654Y-97045580D02*
X137939273Y-97093200D01*
X137939273Y-97093200D02*
X138034511Y-97140819D01*
X138034511Y-97140819D02*
X138272606Y-97140819D01*
X138272606Y-97140819D02*
X138367844Y-97093200D01*
X138367844Y-97093200D02*
X138415463Y-97045580D01*
X131089569Y-88841952D02*
X130613378Y-88508619D01*
X131089569Y-88270524D02*
X130089569Y-88270524D01*
X130089569Y-88270524D02*
X130089569Y-88651476D01*
X130089569Y-88651476D02*
X130137188Y-88746714D01*
X130137188Y-88746714D02*
X130184807Y-88794333D01*
X130184807Y-88794333D02*
X130280045Y-88841952D01*
X130280045Y-88841952D02*
X130422902Y-88841952D01*
X130422902Y-88841952D02*
X130518140Y-88794333D01*
X130518140Y-88794333D02*
X130565759Y-88746714D01*
X130565759Y-88746714D02*
X130613378Y-88651476D01*
X130613378Y-88651476D02*
X130613378Y-88270524D01*
X131089569Y-89794333D02*
X131089569Y-89222905D01*
X131089569Y-89508619D02*
X130089569Y-89508619D01*
X130089569Y-89508619D02*
X130232426Y-89413381D01*
X130232426Y-89413381D02*
X130327664Y-89318143D01*
X130327664Y-89318143D02*
X130375283Y-89222905D01*
X130089569Y-90413381D02*
X130089569Y-90508619D01*
X130089569Y-90508619D02*
X130137188Y-90603857D01*
X130137188Y-90603857D02*
X130184807Y-90651476D01*
X130184807Y-90651476D02*
X130280045Y-90699095D01*
X130280045Y-90699095D02*
X130470521Y-90746714D01*
X130470521Y-90746714D02*
X130708616Y-90746714D01*
X130708616Y-90746714D02*
X130899092Y-90699095D01*
X130899092Y-90699095D02*
X130994330Y-90651476D01*
X130994330Y-90651476D02*
X131041950Y-90603857D01*
X131041950Y-90603857D02*
X131089569Y-90508619D01*
X131089569Y-90508619D02*
X131089569Y-90413381D01*
X131089569Y-90413381D02*
X131041950Y-90318143D01*
X131041950Y-90318143D02*
X130994330Y-90270524D01*
X130994330Y-90270524D02*
X130899092Y-90222905D01*
X130899092Y-90222905D02*
X130708616Y-90175286D01*
X130708616Y-90175286D02*
X130470521Y-90175286D01*
X130470521Y-90175286D02*
X130280045Y-90222905D01*
X130280045Y-90222905D02*
X130184807Y-90270524D01*
X130184807Y-90270524D02*
X130137188Y-90318143D01*
X130137188Y-90318143D02*
X130089569Y-90413381D01*
X130184807Y-91127667D02*
X130137188Y-91175286D01*
X130137188Y-91175286D02*
X130089569Y-91270524D01*
X130089569Y-91270524D02*
X130089569Y-91508619D01*
X130089569Y-91508619D02*
X130137188Y-91603857D01*
X130137188Y-91603857D02*
X130184807Y-91651476D01*
X130184807Y-91651476D02*
X130280045Y-91699095D01*
X130280045Y-91699095D02*
X130375283Y-91699095D01*
X130375283Y-91699095D02*
X130518140Y-91651476D01*
X130518140Y-91651476D02*
X131089569Y-91080048D01*
X131089569Y-91080048D02*
X131089569Y-91699095D01*
X138670237Y-120679819D02*
X139003570Y-120203628D01*
X139241665Y-120679819D02*
X139241665Y-119679819D01*
X139241665Y-119679819D02*
X138860713Y-119679819D01*
X138860713Y-119679819D02*
X138765475Y-119727438D01*
X138765475Y-119727438D02*
X138717856Y-119775057D01*
X138717856Y-119775057D02*
X138670237Y-119870295D01*
X138670237Y-119870295D02*
X138670237Y-120013152D01*
X138670237Y-120013152D02*
X138717856Y-120108390D01*
X138717856Y-120108390D02*
X138765475Y-120156009D01*
X138765475Y-120156009D02*
X138860713Y-120203628D01*
X138860713Y-120203628D02*
X139241665Y-120203628D01*
X138289284Y-119775057D02*
X138241665Y-119727438D01*
X138241665Y-119727438D02*
X138146427Y-119679819D01*
X138146427Y-119679819D02*
X137908332Y-119679819D01*
X137908332Y-119679819D02*
X137813094Y-119727438D01*
X137813094Y-119727438D02*
X137765475Y-119775057D01*
X137765475Y-119775057D02*
X137717856Y-119870295D01*
X137717856Y-119870295D02*
X137717856Y-119965533D01*
X137717856Y-119965533D02*
X137765475Y-120108390D01*
X137765475Y-120108390D02*
X138336903Y-120679819D01*
X138336903Y-120679819D02*
X137717856Y-120679819D01*
X187117857Y-120203469D02*
X187451190Y-119780136D01*
X187689285Y-120203469D02*
X187689285Y-119314469D01*
X187689285Y-119314469D02*
X187308333Y-119314469D01*
X187308333Y-119314469D02*
X187213095Y-119356802D01*
X187213095Y-119356802D02*
X187165476Y-119399136D01*
X187165476Y-119399136D02*
X187117857Y-119483802D01*
X187117857Y-119483802D02*
X187117857Y-119610802D01*
X187117857Y-119610802D02*
X187165476Y-119695469D01*
X187165476Y-119695469D02*
X187213095Y-119737802D01*
X187213095Y-119737802D02*
X187308333Y-119780136D01*
X187308333Y-119780136D02*
X187689285Y-119780136D01*
X186784523Y-119314469D02*
X186165476Y-119314469D01*
X186165476Y-119314469D02*
X186498809Y-119653136D01*
X186498809Y-119653136D02*
X186355952Y-119653136D01*
X186355952Y-119653136D02*
X186260714Y-119695469D01*
X186260714Y-119695469D02*
X186213095Y-119737802D01*
X186213095Y-119737802D02*
X186165476Y-119822469D01*
X186165476Y-119822469D02*
X186165476Y-120034136D01*
X186165476Y-120034136D02*
X186213095Y-120118802D01*
X186213095Y-120118802D02*
X186260714Y-120161136D01*
X186260714Y-120161136D02*
X186355952Y-120203469D01*
X186355952Y-120203469D02*
X186641666Y-120203469D01*
X186641666Y-120203469D02*
X186736904Y-120161136D01*
X186736904Y-120161136D02*
X186784523Y-120118802D01*
X185546428Y-119314469D02*
X185451190Y-119314469D01*
X185451190Y-119314469D02*
X185355952Y-119356802D01*
X185355952Y-119356802D02*
X185308333Y-119399136D01*
X185308333Y-119399136D02*
X185260714Y-119483802D01*
X185260714Y-119483802D02*
X185213095Y-119653136D01*
X185213095Y-119653136D02*
X185213095Y-119864802D01*
X185213095Y-119864802D02*
X185260714Y-120034136D01*
X185260714Y-120034136D02*
X185308333Y-120118802D01*
X185308333Y-120118802D02*
X185355952Y-120161136D01*
X185355952Y-120161136D02*
X185451190Y-120203469D01*
X185451190Y-120203469D02*
X185546428Y-120203469D01*
X185546428Y-120203469D02*
X185641666Y-120161136D01*
X185641666Y-120161136D02*
X185689285Y-120118802D01*
X185689285Y-120118802D02*
X185736904Y-120034136D01*
X185736904Y-120034136D02*
X185784523Y-119864802D01*
X185784523Y-119864802D02*
X185784523Y-119653136D01*
X185784523Y-119653136D02*
X185736904Y-119483802D01*
X185736904Y-119483802D02*
X185689285Y-119399136D01*
X185689285Y-119399136D02*
X185641666Y-119356802D01*
X185641666Y-119356802D02*
X185546428Y-119314469D01*
X140113719Y-109957142D02*
X139654100Y-109623809D01*
X140113719Y-109385714D02*
X139148519Y-109385714D01*
X139148519Y-109385714D02*
X139148519Y-109766666D01*
X139148519Y-109766666D02*
X139194481Y-109861904D01*
X139194481Y-109861904D02*
X139240443Y-109909523D01*
X139240443Y-109909523D02*
X139332367Y-109957142D01*
X139332367Y-109957142D02*
X139470253Y-109957142D01*
X139470253Y-109957142D02*
X139562177Y-109909523D01*
X139562177Y-109909523D02*
X139608138Y-109861904D01*
X139608138Y-109861904D02*
X139654100Y-109766666D01*
X139654100Y-109766666D02*
X139654100Y-109385714D01*
X140113719Y-110433333D02*
X140113719Y-110623809D01*
X140113719Y-110623809D02*
X140067758Y-110719047D01*
X140067758Y-110719047D02*
X140021796Y-110766666D01*
X140021796Y-110766666D02*
X139883910Y-110861904D01*
X139883910Y-110861904D02*
X139700062Y-110909523D01*
X139700062Y-110909523D02*
X139332367Y-110909523D01*
X139332367Y-110909523D02*
X139240443Y-110861904D01*
X139240443Y-110861904D02*
X139194481Y-110814285D01*
X139194481Y-110814285D02*
X139148519Y-110719047D01*
X139148519Y-110719047D02*
X139148519Y-110528571D01*
X139148519Y-110528571D02*
X139194481Y-110433333D01*
X139194481Y-110433333D02*
X139240443Y-110385714D01*
X139240443Y-110385714D02*
X139332367Y-110338095D01*
X139332367Y-110338095D02*
X139562177Y-110338095D01*
X139562177Y-110338095D02*
X139654100Y-110385714D01*
X139654100Y-110385714D02*
X139700062Y-110433333D01*
X139700062Y-110433333D02*
X139746024Y-110528571D01*
X139746024Y-110528571D02*
X139746024Y-110719047D01*
X139746024Y-110719047D02*
X139700062Y-110814285D01*
X139700062Y-110814285D02*
X139654100Y-110861904D01*
X139654100Y-110861904D02*
X139562177Y-110909523D01*
X140113719Y-111861904D02*
X140113719Y-111290476D01*
X140113719Y-111576190D02*
X139148519Y-111576190D01*
X139148519Y-111576190D02*
X139286405Y-111480952D01*
X139286405Y-111480952D02*
X139378329Y-111385714D01*
X139378329Y-111385714D02*
X139424291Y-111290476D01*
X179747857Y-83094819D02*
X180081190Y-82618628D01*
X180319285Y-83094819D02*
X180319285Y-82094819D01*
X180319285Y-82094819D02*
X179938333Y-82094819D01*
X179938333Y-82094819D02*
X179843095Y-82142438D01*
X179843095Y-82142438D02*
X179795476Y-82190057D01*
X179795476Y-82190057D02*
X179747857Y-82285295D01*
X179747857Y-82285295D02*
X179747857Y-82428152D01*
X179747857Y-82428152D02*
X179795476Y-82523390D01*
X179795476Y-82523390D02*
X179843095Y-82571009D01*
X179843095Y-82571009D02*
X179938333Y-82618628D01*
X179938333Y-82618628D02*
X180319285Y-82618628D01*
X179176428Y-82523390D02*
X179271666Y-82475771D01*
X179271666Y-82475771D02*
X179319285Y-82428152D01*
X179319285Y-82428152D02*
X179366904Y-82332914D01*
X179366904Y-82332914D02*
X179366904Y-82285295D01*
X179366904Y-82285295D02*
X179319285Y-82190057D01*
X179319285Y-82190057D02*
X179271666Y-82142438D01*
X179271666Y-82142438D02*
X179176428Y-82094819D01*
X179176428Y-82094819D02*
X178985952Y-82094819D01*
X178985952Y-82094819D02*
X178890714Y-82142438D01*
X178890714Y-82142438D02*
X178843095Y-82190057D01*
X178843095Y-82190057D02*
X178795476Y-82285295D01*
X178795476Y-82285295D02*
X178795476Y-82332914D01*
X178795476Y-82332914D02*
X178843095Y-82428152D01*
X178843095Y-82428152D02*
X178890714Y-82475771D01*
X178890714Y-82475771D02*
X178985952Y-82523390D01*
X178985952Y-82523390D02*
X179176428Y-82523390D01*
X179176428Y-82523390D02*
X179271666Y-82571009D01*
X179271666Y-82571009D02*
X179319285Y-82618628D01*
X179319285Y-82618628D02*
X179366904Y-82713866D01*
X179366904Y-82713866D02*
X179366904Y-82904342D01*
X179366904Y-82904342D02*
X179319285Y-82999580D01*
X179319285Y-82999580D02*
X179271666Y-83047200D01*
X179271666Y-83047200D02*
X179176428Y-83094819D01*
X179176428Y-83094819D02*
X178985952Y-83094819D01*
X178985952Y-83094819D02*
X178890714Y-83047200D01*
X178890714Y-83047200D02*
X178843095Y-82999580D01*
X178843095Y-82999580D02*
X178795476Y-82904342D01*
X178795476Y-82904342D02*
X178795476Y-82713866D01*
X178795476Y-82713866D02*
X178843095Y-82618628D01*
X178843095Y-82618628D02*
X178890714Y-82571009D01*
X178890714Y-82571009D02*
X178985952Y-82523390D01*
X178462142Y-82094819D02*
X177795476Y-82094819D01*
X177795476Y-82094819D02*
X178224047Y-83094819D01*
X144172607Y-87970819D02*
X144505940Y-87494628D01*
X144744035Y-87970819D02*
X144744035Y-86970819D01*
X144744035Y-86970819D02*
X144363083Y-86970819D01*
X144363083Y-86970819D02*
X144267845Y-87018438D01*
X144267845Y-87018438D02*
X144220226Y-87066057D01*
X144220226Y-87066057D02*
X144172607Y-87161295D01*
X144172607Y-87161295D02*
X144172607Y-87304152D01*
X144172607Y-87304152D02*
X144220226Y-87399390D01*
X144220226Y-87399390D02*
X144267845Y-87447009D01*
X144267845Y-87447009D02*
X144363083Y-87494628D01*
X144363083Y-87494628D02*
X144744035Y-87494628D01*
X143601178Y-87399390D02*
X143696416Y-87351771D01*
X143696416Y-87351771D02*
X143744035Y-87304152D01*
X143744035Y-87304152D02*
X143791654Y-87208914D01*
X143791654Y-87208914D02*
X143791654Y-87161295D01*
X143791654Y-87161295D02*
X143744035Y-87066057D01*
X143744035Y-87066057D02*
X143696416Y-87018438D01*
X143696416Y-87018438D02*
X143601178Y-86970819D01*
X143601178Y-86970819D02*
X143410702Y-86970819D01*
X143410702Y-86970819D02*
X143315464Y-87018438D01*
X143315464Y-87018438D02*
X143267845Y-87066057D01*
X143267845Y-87066057D02*
X143220226Y-87161295D01*
X143220226Y-87161295D02*
X143220226Y-87208914D01*
X143220226Y-87208914D02*
X143267845Y-87304152D01*
X143267845Y-87304152D02*
X143315464Y-87351771D01*
X143315464Y-87351771D02*
X143410702Y-87399390D01*
X143410702Y-87399390D02*
X143601178Y-87399390D01*
X143601178Y-87399390D02*
X143696416Y-87447009D01*
X143696416Y-87447009D02*
X143744035Y-87494628D01*
X143744035Y-87494628D02*
X143791654Y-87589866D01*
X143791654Y-87589866D02*
X143791654Y-87780342D01*
X143791654Y-87780342D02*
X143744035Y-87875580D01*
X143744035Y-87875580D02*
X143696416Y-87923200D01*
X143696416Y-87923200D02*
X143601178Y-87970819D01*
X143601178Y-87970819D02*
X143410702Y-87970819D01*
X143410702Y-87970819D02*
X143315464Y-87923200D01*
X143315464Y-87923200D02*
X143267845Y-87875580D01*
X143267845Y-87875580D02*
X143220226Y-87780342D01*
X143220226Y-87780342D02*
X143220226Y-87589866D01*
X143220226Y-87589866D02*
X143267845Y-87494628D01*
X143267845Y-87494628D02*
X143315464Y-87447009D01*
X143315464Y-87447009D02*
X143410702Y-87399390D01*
X142839273Y-87066057D02*
X142791654Y-87018438D01*
X142791654Y-87018438D02*
X142696416Y-86970819D01*
X142696416Y-86970819D02*
X142458321Y-86970819D01*
X142458321Y-86970819D02*
X142363083Y-87018438D01*
X142363083Y-87018438D02*
X142315464Y-87066057D01*
X142315464Y-87066057D02*
X142267845Y-87161295D01*
X142267845Y-87161295D02*
X142267845Y-87256533D01*
X142267845Y-87256533D02*
X142315464Y-87399390D01*
X142315464Y-87399390D02*
X142886892Y-87970819D01*
X142886892Y-87970819D02*
X142267845Y-87970819D01*
X181829819Y-115657142D02*
X181353628Y-115323809D01*
X181829819Y-115085714D02*
X180829819Y-115085714D01*
X180829819Y-115085714D02*
X180829819Y-115466666D01*
X180829819Y-115466666D02*
X180877438Y-115561904D01*
X180877438Y-115561904D02*
X180925057Y-115609523D01*
X180925057Y-115609523D02*
X181020295Y-115657142D01*
X181020295Y-115657142D02*
X181163152Y-115657142D01*
X181163152Y-115657142D02*
X181258390Y-115609523D01*
X181258390Y-115609523D02*
X181306009Y-115561904D01*
X181306009Y-115561904D02*
X181353628Y-115466666D01*
X181353628Y-115466666D02*
X181353628Y-115085714D01*
X180925057Y-116038095D02*
X180877438Y-116085714D01*
X180877438Y-116085714D02*
X180829819Y-116180952D01*
X180829819Y-116180952D02*
X180829819Y-116419047D01*
X180829819Y-116419047D02*
X180877438Y-116514285D01*
X180877438Y-116514285D02*
X180925057Y-116561904D01*
X180925057Y-116561904D02*
X181020295Y-116609523D01*
X181020295Y-116609523D02*
X181115533Y-116609523D01*
X181115533Y-116609523D02*
X181258390Y-116561904D01*
X181258390Y-116561904D02*
X181829819Y-115990476D01*
X181829819Y-115990476D02*
X181829819Y-116609523D01*
X181829819Y-117085714D02*
X181829819Y-117276190D01*
X181829819Y-117276190D02*
X181782200Y-117371428D01*
X181782200Y-117371428D02*
X181734580Y-117419047D01*
X181734580Y-117419047D02*
X181591723Y-117514285D01*
X181591723Y-117514285D02*
X181401247Y-117561904D01*
X181401247Y-117561904D02*
X181020295Y-117561904D01*
X181020295Y-117561904D02*
X180925057Y-117514285D01*
X180925057Y-117514285D02*
X180877438Y-117466666D01*
X180877438Y-117466666D02*
X180829819Y-117371428D01*
X180829819Y-117371428D02*
X180829819Y-117180952D01*
X180829819Y-117180952D02*
X180877438Y-117085714D01*
X180877438Y-117085714D02*
X180925057Y-117038095D01*
X180925057Y-117038095D02*
X181020295Y-116990476D01*
X181020295Y-116990476D02*
X181258390Y-116990476D01*
X181258390Y-116990476D02*
X181353628Y-117038095D01*
X181353628Y-117038095D02*
X181401247Y-117085714D01*
X181401247Y-117085714D02*
X181448866Y-117180952D01*
X181448866Y-117180952D02*
X181448866Y-117371428D01*
X181448866Y-117371428D02*
X181401247Y-117466666D01*
X181401247Y-117466666D02*
X181353628Y-117514285D01*
X181353628Y-117514285D02*
X181258390Y-117561904D01*
X132163083Y-94512009D02*
X132496416Y-94512009D01*
X132496416Y-95035819D02*
X132496416Y-94035819D01*
X132496416Y-94035819D02*
X132020226Y-94035819D01*
X131734511Y-94035819D02*
X131115464Y-94035819D01*
X131115464Y-94035819D02*
X131448797Y-94416771D01*
X131448797Y-94416771D02*
X131305940Y-94416771D01*
X131305940Y-94416771D02*
X131210702Y-94464390D01*
X131210702Y-94464390D02*
X131163083Y-94512009D01*
X131163083Y-94512009D02*
X131115464Y-94607247D01*
X131115464Y-94607247D02*
X131115464Y-94845342D01*
X131115464Y-94845342D02*
X131163083Y-94940580D01*
X131163083Y-94940580D02*
X131210702Y-94988200D01*
X131210702Y-94988200D02*
X131305940Y-95035819D01*
X131305940Y-95035819D02*
X131591654Y-95035819D01*
X131591654Y-95035819D02*
X131686892Y-94988200D01*
X131686892Y-94988200D02*
X131734511Y-94940580D01*
X186384819Y-79774405D02*
X187194342Y-79774405D01*
X187194342Y-79774405D02*
X187289580Y-79822024D01*
X187289580Y-79822024D02*
X187337200Y-79869643D01*
X187337200Y-79869643D02*
X187384819Y-79964881D01*
X187384819Y-79964881D02*
X187384819Y-80155357D01*
X187384819Y-80155357D02*
X187337200Y-80250595D01*
X187337200Y-80250595D02*
X187289580Y-80298214D01*
X187289580Y-80298214D02*
X187194342Y-80345833D01*
X187194342Y-80345833D02*
X186384819Y-80345833D01*
X186480057Y-80774405D02*
X186432438Y-80822024D01*
X186432438Y-80822024D02*
X186384819Y-80917262D01*
X186384819Y-80917262D02*
X186384819Y-81155357D01*
X186384819Y-81155357D02*
X186432438Y-81250595D01*
X186432438Y-81250595D02*
X186480057Y-81298214D01*
X186480057Y-81298214D02*
X186575295Y-81345833D01*
X186575295Y-81345833D02*
X186670533Y-81345833D01*
X186670533Y-81345833D02*
X186813390Y-81298214D01*
X186813390Y-81298214D02*
X187384819Y-80726786D01*
X187384819Y-80726786D02*
X187384819Y-81345833D01*
X186813390Y-81917262D02*
X186765771Y-81822024D01*
X186765771Y-81822024D02*
X186718152Y-81774405D01*
X186718152Y-81774405D02*
X186622914Y-81726786D01*
X186622914Y-81726786D02*
X186575295Y-81726786D01*
X186575295Y-81726786D02*
X186480057Y-81774405D01*
X186480057Y-81774405D02*
X186432438Y-81822024D01*
X186432438Y-81822024D02*
X186384819Y-81917262D01*
X186384819Y-81917262D02*
X186384819Y-82107738D01*
X186384819Y-82107738D02*
X186432438Y-82202976D01*
X186432438Y-82202976D02*
X186480057Y-82250595D01*
X186480057Y-82250595D02*
X186575295Y-82298214D01*
X186575295Y-82298214D02*
X186622914Y-82298214D01*
X186622914Y-82298214D02*
X186718152Y-82250595D01*
X186718152Y-82250595D02*
X186765771Y-82202976D01*
X186765771Y-82202976D02*
X186813390Y-82107738D01*
X186813390Y-82107738D02*
X186813390Y-81917262D01*
X186813390Y-81917262D02*
X186861009Y-81822024D01*
X186861009Y-81822024D02*
X186908628Y-81774405D01*
X186908628Y-81774405D02*
X187003866Y-81726786D01*
X187003866Y-81726786D02*
X187194342Y-81726786D01*
X187194342Y-81726786D02*
X187289580Y-81774405D01*
X187289580Y-81774405D02*
X187337200Y-81822024D01*
X187337200Y-81822024D02*
X187384819Y-81917262D01*
X187384819Y-81917262D02*
X187384819Y-82107738D01*
X187384819Y-82107738D02*
X187337200Y-82202976D01*
X187337200Y-82202976D02*
X187289580Y-82250595D01*
X187289580Y-82250595D02*
X187194342Y-82298214D01*
X187194342Y-82298214D02*
X187003866Y-82298214D01*
X187003866Y-82298214D02*
X186908628Y-82250595D01*
X186908628Y-82250595D02*
X186861009Y-82202976D01*
X186861009Y-82202976D02*
X186813390Y-82107738D01*
D11*
X140216190Y-108342159D02*
X140216190Y-108856206D01*
X140216190Y-108856206D02*
X140185952Y-108916682D01*
X140185952Y-108916682D02*
X140155714Y-108946921D01*
X140155714Y-108946921D02*
X140095238Y-108977159D01*
X140095238Y-108977159D02*
X139974285Y-108977159D01*
X139974285Y-108977159D02*
X139913809Y-108946921D01*
X139913809Y-108946921D02*
X139883571Y-108916682D01*
X139883571Y-108916682D02*
X139853333Y-108856206D01*
X139853333Y-108856206D02*
X139853333Y-108342159D01*
X139581190Y-108402635D02*
X139550952Y-108372397D01*
X139550952Y-108372397D02*
X139490476Y-108342159D01*
X139490476Y-108342159D02*
X139339285Y-108342159D01*
X139339285Y-108342159D02*
X139278809Y-108372397D01*
X139278809Y-108372397D02*
X139248571Y-108402635D01*
X139248571Y-108402635D02*
X139218333Y-108463111D01*
X139218333Y-108463111D02*
X139218333Y-108523587D01*
X139218333Y-108523587D02*
X139248571Y-108614301D01*
X139248571Y-108614301D02*
X139611428Y-108977159D01*
X139611428Y-108977159D02*
X139218333Y-108977159D01*
X138976428Y-108402635D02*
X138946190Y-108372397D01*
X138946190Y-108372397D02*
X138885714Y-108342159D01*
X138885714Y-108342159D02*
X138734523Y-108342159D01*
X138734523Y-108342159D02*
X138674047Y-108372397D01*
X138674047Y-108372397D02*
X138643809Y-108402635D01*
X138643809Y-108402635D02*
X138613571Y-108463111D01*
X138613571Y-108463111D02*
X138613571Y-108523587D01*
X138613571Y-108523587D02*
X138643809Y-108614301D01*
X138643809Y-108614301D02*
X139006666Y-108977159D01*
X139006666Y-108977159D02*
X138613571Y-108977159D01*
D10*
X139213094Y-117854819D02*
X139213094Y-116854819D01*
X139213094Y-116854819D02*
X138974999Y-116854819D01*
X138974999Y-116854819D02*
X138832142Y-116902438D01*
X138832142Y-116902438D02*
X138736904Y-116997676D01*
X138736904Y-116997676D02*
X138689285Y-117092914D01*
X138689285Y-117092914D02*
X138641666Y-117283390D01*
X138641666Y-117283390D02*
X138641666Y-117426247D01*
X138641666Y-117426247D02*
X138689285Y-117616723D01*
X138689285Y-117616723D02*
X138736904Y-117711961D01*
X138736904Y-117711961D02*
X138832142Y-117807200D01*
X138832142Y-117807200D02*
X138974999Y-117854819D01*
X138974999Y-117854819D02*
X139213094Y-117854819D01*
X137689285Y-117854819D02*
X138260713Y-117854819D01*
X137974999Y-117854819D02*
X137974999Y-116854819D01*
X137974999Y-116854819D02*
X138070237Y-116997676D01*
X138070237Y-116997676D02*
X138165475Y-117092914D01*
X138165475Y-117092914D02*
X138260713Y-117140533D01*
X139355356Y-123568818D02*
X139355356Y-122568818D01*
X139355356Y-122568818D02*
X139117261Y-122568818D01*
X139117261Y-122568818D02*
X138974404Y-122616437D01*
X138974404Y-122616437D02*
X138879166Y-122711675D01*
X138879166Y-122711675D02*
X138831547Y-122806913D01*
X138831547Y-122806913D02*
X138783928Y-122997389D01*
X138783928Y-122997389D02*
X138783928Y-123140246D01*
X138783928Y-123140246D02*
X138831547Y-123330722D01*
X138831547Y-123330722D02*
X138879166Y-123425960D01*
X138879166Y-123425960D02*
X138974404Y-123521199D01*
X138974404Y-123521199D02*
X139117261Y-123568818D01*
X139117261Y-123568818D02*
X139355356Y-123568818D01*
X137926785Y-122902151D02*
X137926785Y-123568818D01*
X138164880Y-122521199D02*
X138402975Y-123235484D01*
X138402975Y-123235484D02*
X137783928Y-123235484D01*
X136879166Y-123568818D02*
X137450594Y-123568818D01*
X137164880Y-123568818D02*
X137164880Y-122568818D01*
X137164880Y-122568818D02*
X137260118Y-122711675D01*
X137260118Y-122711675D02*
X137355356Y-122806913D01*
X137355356Y-122806913D02*
X137450594Y-122854532D01*
X130634819Y-110055952D02*
X130158628Y-109722619D01*
X130634819Y-109484524D02*
X129634819Y-109484524D01*
X129634819Y-109484524D02*
X129634819Y-109865476D01*
X129634819Y-109865476D02*
X129682438Y-109960714D01*
X129682438Y-109960714D02*
X129730057Y-110008333D01*
X129730057Y-110008333D02*
X129825295Y-110055952D01*
X129825295Y-110055952D02*
X129968152Y-110055952D01*
X129968152Y-110055952D02*
X130063390Y-110008333D01*
X130063390Y-110008333D02*
X130111009Y-109960714D01*
X130111009Y-109960714D02*
X130158628Y-109865476D01*
X130158628Y-109865476D02*
X130158628Y-109484524D01*
X130634819Y-111008333D02*
X130634819Y-110436905D01*
X130634819Y-110722619D02*
X129634819Y-110722619D01*
X129634819Y-110722619D02*
X129777676Y-110627381D01*
X129777676Y-110627381D02*
X129872914Y-110532143D01*
X129872914Y-110532143D02*
X129920533Y-110436905D01*
X129634819Y-111627381D02*
X129634819Y-111722619D01*
X129634819Y-111722619D02*
X129682438Y-111817857D01*
X129682438Y-111817857D02*
X129730057Y-111865476D01*
X129730057Y-111865476D02*
X129825295Y-111913095D01*
X129825295Y-111913095D02*
X130015771Y-111960714D01*
X130015771Y-111960714D02*
X130253866Y-111960714D01*
X130253866Y-111960714D02*
X130444342Y-111913095D01*
X130444342Y-111913095D02*
X130539580Y-111865476D01*
X130539580Y-111865476D02*
X130587200Y-111817857D01*
X130587200Y-111817857D02*
X130634819Y-111722619D01*
X130634819Y-111722619D02*
X130634819Y-111627381D01*
X130634819Y-111627381D02*
X130587200Y-111532143D01*
X130587200Y-111532143D02*
X130539580Y-111484524D01*
X130539580Y-111484524D02*
X130444342Y-111436905D01*
X130444342Y-111436905D02*
X130253866Y-111389286D01*
X130253866Y-111389286D02*
X130015771Y-111389286D01*
X130015771Y-111389286D02*
X129825295Y-111436905D01*
X129825295Y-111436905D02*
X129730057Y-111484524D01*
X129730057Y-111484524D02*
X129682438Y-111532143D01*
X129682438Y-111532143D02*
X129634819Y-111627381D01*
X130634819Y-112913095D02*
X130634819Y-112341667D01*
X130634819Y-112627381D02*
X129634819Y-112627381D01*
X129634819Y-112627381D02*
X129777676Y-112532143D01*
X129777676Y-112532143D02*
X129872914Y-112436905D01*
X129872914Y-112436905D02*
X129920533Y-112341667D01*
X189116904Y-84099819D02*
X189116904Y-84909342D01*
X189116904Y-84909342D02*
X189069285Y-85004580D01*
X189069285Y-85004580D02*
X189021666Y-85052200D01*
X189021666Y-85052200D02*
X188926428Y-85099819D01*
X188926428Y-85099819D02*
X188735952Y-85099819D01*
X188735952Y-85099819D02*
X188640714Y-85052200D01*
X188640714Y-85052200D02*
X188593095Y-85004580D01*
X188593095Y-85004580D02*
X188545476Y-84909342D01*
X188545476Y-84909342D02*
X188545476Y-84099819D01*
X187926428Y-84528390D02*
X188021666Y-84480771D01*
X188021666Y-84480771D02*
X188069285Y-84433152D01*
X188069285Y-84433152D02*
X188116904Y-84337914D01*
X188116904Y-84337914D02*
X188116904Y-84290295D01*
X188116904Y-84290295D02*
X188069285Y-84195057D01*
X188069285Y-84195057D02*
X188021666Y-84147438D01*
X188021666Y-84147438D02*
X187926428Y-84099819D01*
X187926428Y-84099819D02*
X187735952Y-84099819D01*
X187735952Y-84099819D02*
X187640714Y-84147438D01*
X187640714Y-84147438D02*
X187593095Y-84195057D01*
X187593095Y-84195057D02*
X187545476Y-84290295D01*
X187545476Y-84290295D02*
X187545476Y-84337914D01*
X187545476Y-84337914D02*
X187593095Y-84433152D01*
X187593095Y-84433152D02*
X187640714Y-84480771D01*
X187640714Y-84480771D02*
X187735952Y-84528390D01*
X187735952Y-84528390D02*
X187926428Y-84528390D01*
X187926428Y-84528390D02*
X188021666Y-84576009D01*
X188021666Y-84576009D02*
X188069285Y-84623628D01*
X188069285Y-84623628D02*
X188116904Y-84718866D01*
X188116904Y-84718866D02*
X188116904Y-84909342D01*
X188116904Y-84909342D02*
X188069285Y-85004580D01*
X188069285Y-85004580D02*
X188021666Y-85052200D01*
X188021666Y-85052200D02*
X187926428Y-85099819D01*
X187926428Y-85099819D02*
X187735952Y-85099819D01*
X187735952Y-85099819D02*
X187640714Y-85052200D01*
X187640714Y-85052200D02*
X187593095Y-85004580D01*
X187593095Y-85004580D02*
X187545476Y-84909342D01*
X187545476Y-84909342D02*
X187545476Y-84718866D01*
X187545476Y-84718866D02*
X187593095Y-84623628D01*
X187593095Y-84623628D02*
X187640714Y-84576009D01*
X187640714Y-84576009D02*
X187735952Y-84528390D01*
X179024819Y-108182142D02*
X178548628Y-107848809D01*
X179024819Y-107610714D02*
X178024819Y-107610714D01*
X178024819Y-107610714D02*
X178024819Y-107991666D01*
X178024819Y-107991666D02*
X178072438Y-108086904D01*
X178072438Y-108086904D02*
X178120057Y-108134523D01*
X178120057Y-108134523D02*
X178215295Y-108182142D01*
X178215295Y-108182142D02*
X178358152Y-108182142D01*
X178358152Y-108182142D02*
X178453390Y-108134523D01*
X178453390Y-108134523D02*
X178501009Y-108086904D01*
X178501009Y-108086904D02*
X178548628Y-107991666D01*
X178548628Y-107991666D02*
X178548628Y-107610714D01*
X179024819Y-108658333D02*
X179024819Y-108848809D01*
X179024819Y-108848809D02*
X178977200Y-108944047D01*
X178977200Y-108944047D02*
X178929580Y-108991666D01*
X178929580Y-108991666D02*
X178786723Y-109086904D01*
X178786723Y-109086904D02*
X178596247Y-109134523D01*
X178596247Y-109134523D02*
X178215295Y-109134523D01*
X178215295Y-109134523D02*
X178120057Y-109086904D01*
X178120057Y-109086904D02*
X178072438Y-109039285D01*
X178072438Y-109039285D02*
X178024819Y-108944047D01*
X178024819Y-108944047D02*
X178024819Y-108753571D01*
X178024819Y-108753571D02*
X178072438Y-108658333D01*
X178072438Y-108658333D02*
X178120057Y-108610714D01*
X178120057Y-108610714D02*
X178215295Y-108563095D01*
X178215295Y-108563095D02*
X178453390Y-108563095D01*
X178453390Y-108563095D02*
X178548628Y-108610714D01*
X178548628Y-108610714D02*
X178596247Y-108658333D01*
X178596247Y-108658333D02*
X178643866Y-108753571D01*
X178643866Y-108753571D02*
X178643866Y-108944047D01*
X178643866Y-108944047D02*
X178596247Y-109039285D01*
X178596247Y-109039285D02*
X178548628Y-109086904D01*
X178548628Y-109086904D02*
X178453390Y-109134523D01*
X178453390Y-109705952D02*
X178405771Y-109610714D01*
X178405771Y-109610714D02*
X178358152Y-109563095D01*
X178358152Y-109563095D02*
X178262914Y-109515476D01*
X178262914Y-109515476D02*
X178215295Y-109515476D01*
X178215295Y-109515476D02*
X178120057Y-109563095D01*
X178120057Y-109563095D02*
X178072438Y-109610714D01*
X178072438Y-109610714D02*
X178024819Y-109705952D01*
X178024819Y-109705952D02*
X178024819Y-109896428D01*
X178024819Y-109896428D02*
X178072438Y-109991666D01*
X178072438Y-109991666D02*
X178120057Y-110039285D01*
X178120057Y-110039285D02*
X178215295Y-110086904D01*
X178215295Y-110086904D02*
X178262914Y-110086904D01*
X178262914Y-110086904D02*
X178358152Y-110039285D01*
X178358152Y-110039285D02*
X178405771Y-109991666D01*
X178405771Y-109991666D02*
X178453390Y-109896428D01*
X178453390Y-109896428D02*
X178453390Y-109705952D01*
X178453390Y-109705952D02*
X178501009Y-109610714D01*
X178501009Y-109610714D02*
X178548628Y-109563095D01*
X178548628Y-109563095D02*
X178643866Y-109515476D01*
X178643866Y-109515476D02*
X178834342Y-109515476D01*
X178834342Y-109515476D02*
X178929580Y-109563095D01*
X178929580Y-109563095D02*
X178977200Y-109610714D01*
X178977200Y-109610714D02*
X179024819Y-109705952D01*
X179024819Y-109705952D02*
X179024819Y-109896428D01*
X179024819Y-109896428D02*
X178977200Y-109991666D01*
X178977200Y-109991666D02*
X178929580Y-110039285D01*
X178929580Y-110039285D02*
X178834342Y-110086904D01*
X178834342Y-110086904D02*
X178643866Y-110086904D01*
X178643866Y-110086904D02*
X178548628Y-110039285D01*
X178548628Y-110039285D02*
X178501009Y-109991666D01*
X178501009Y-109991666D02*
X178453390Y-109896428D01*
X141434569Y-99996714D02*
X140434569Y-99996714D01*
X140434569Y-99996714D02*
X140434569Y-100234809D01*
X140434569Y-100234809D02*
X140482188Y-100377666D01*
X140482188Y-100377666D02*
X140577426Y-100472904D01*
X140577426Y-100472904D02*
X140672664Y-100520523D01*
X140672664Y-100520523D02*
X140863140Y-100568142D01*
X140863140Y-100568142D02*
X141005997Y-100568142D01*
X141005997Y-100568142D02*
X141196473Y-100520523D01*
X141196473Y-100520523D02*
X141291711Y-100472904D01*
X141291711Y-100472904D02*
X141386950Y-100377666D01*
X141386950Y-100377666D02*
X141434569Y-100234809D01*
X141434569Y-100234809D02*
X141434569Y-99996714D01*
X140767902Y-101425285D02*
X141434569Y-101425285D01*
X140386950Y-101187190D02*
X141101235Y-100949095D01*
X141101235Y-100949095D02*
X141101235Y-101568142D01*
X140529807Y-101901476D02*
X140482188Y-101949095D01*
X140482188Y-101949095D02*
X140434569Y-102044333D01*
X140434569Y-102044333D02*
X140434569Y-102282428D01*
X140434569Y-102282428D02*
X140482188Y-102377666D01*
X140482188Y-102377666D02*
X140529807Y-102425285D01*
X140529807Y-102425285D02*
X140625045Y-102472904D01*
X140625045Y-102472904D02*
X140720283Y-102472904D01*
X140720283Y-102472904D02*
X140863140Y-102425285D01*
X140863140Y-102425285D02*
X141434569Y-101853857D01*
X141434569Y-101853857D02*
X141434569Y-102472904D01*
X140574819Y-89447142D02*
X140098628Y-89113809D01*
X140574819Y-88875714D02*
X139574819Y-88875714D01*
X139574819Y-88875714D02*
X139574819Y-89256666D01*
X139574819Y-89256666D02*
X139622438Y-89351904D01*
X139622438Y-89351904D02*
X139670057Y-89399523D01*
X139670057Y-89399523D02*
X139765295Y-89447142D01*
X139765295Y-89447142D02*
X139908152Y-89447142D01*
X139908152Y-89447142D02*
X140003390Y-89399523D01*
X140003390Y-89399523D02*
X140051009Y-89351904D01*
X140051009Y-89351904D02*
X140098628Y-89256666D01*
X140098628Y-89256666D02*
X140098628Y-88875714D01*
X140574819Y-89923333D02*
X140574819Y-90113809D01*
X140574819Y-90113809D02*
X140527200Y-90209047D01*
X140527200Y-90209047D02*
X140479580Y-90256666D01*
X140479580Y-90256666D02*
X140336723Y-90351904D01*
X140336723Y-90351904D02*
X140146247Y-90399523D01*
X140146247Y-90399523D02*
X139765295Y-90399523D01*
X139765295Y-90399523D02*
X139670057Y-90351904D01*
X139670057Y-90351904D02*
X139622438Y-90304285D01*
X139622438Y-90304285D02*
X139574819Y-90209047D01*
X139574819Y-90209047D02*
X139574819Y-90018571D01*
X139574819Y-90018571D02*
X139622438Y-89923333D01*
X139622438Y-89923333D02*
X139670057Y-89875714D01*
X139670057Y-89875714D02*
X139765295Y-89828095D01*
X139765295Y-89828095D02*
X140003390Y-89828095D01*
X140003390Y-89828095D02*
X140098628Y-89875714D01*
X140098628Y-89875714D02*
X140146247Y-89923333D01*
X140146247Y-89923333D02*
X140193866Y-90018571D01*
X140193866Y-90018571D02*
X140193866Y-90209047D01*
X140193866Y-90209047D02*
X140146247Y-90304285D01*
X140146247Y-90304285D02*
X140098628Y-90351904D01*
X140098628Y-90351904D02*
X140003390Y-90399523D01*
X139670057Y-90780476D02*
X139622438Y-90828095D01*
X139622438Y-90828095D02*
X139574819Y-90923333D01*
X139574819Y-90923333D02*
X139574819Y-91161428D01*
X139574819Y-91161428D02*
X139622438Y-91256666D01*
X139622438Y-91256666D02*
X139670057Y-91304285D01*
X139670057Y-91304285D02*
X139765295Y-91351904D01*
X139765295Y-91351904D02*
X139860533Y-91351904D01*
X139860533Y-91351904D02*
X140003390Y-91304285D01*
X140003390Y-91304285D02*
X140574819Y-90732857D01*
X140574819Y-90732857D02*
X140574819Y-91351904D01*
X187639285Y-117479819D02*
X187639285Y-116479819D01*
X187639285Y-116479819D02*
X187401190Y-116479819D01*
X187401190Y-116479819D02*
X187258333Y-116527438D01*
X187258333Y-116527438D02*
X187163095Y-116622676D01*
X187163095Y-116622676D02*
X187115476Y-116717914D01*
X187115476Y-116717914D02*
X187067857Y-116908390D01*
X187067857Y-116908390D02*
X187067857Y-117051247D01*
X187067857Y-117051247D02*
X187115476Y-117241723D01*
X187115476Y-117241723D02*
X187163095Y-117336961D01*
X187163095Y-117336961D02*
X187258333Y-117432200D01*
X187258333Y-117432200D02*
X187401190Y-117479819D01*
X187401190Y-117479819D02*
X187639285Y-117479819D01*
X186686904Y-116575057D02*
X186639285Y-116527438D01*
X186639285Y-116527438D02*
X186544047Y-116479819D01*
X186544047Y-116479819D02*
X186305952Y-116479819D01*
X186305952Y-116479819D02*
X186210714Y-116527438D01*
X186210714Y-116527438D02*
X186163095Y-116575057D01*
X186163095Y-116575057D02*
X186115476Y-116670295D01*
X186115476Y-116670295D02*
X186115476Y-116765533D01*
X186115476Y-116765533D02*
X186163095Y-116908390D01*
X186163095Y-116908390D02*
X186734523Y-117479819D01*
X186734523Y-117479819D02*
X186115476Y-117479819D01*
X185639285Y-117479819D02*
X185448809Y-117479819D01*
X185448809Y-117479819D02*
X185353571Y-117432200D01*
X185353571Y-117432200D02*
X185305952Y-117384580D01*
X185305952Y-117384580D02*
X185210714Y-117241723D01*
X185210714Y-117241723D02*
X185163095Y-117051247D01*
X185163095Y-117051247D02*
X185163095Y-116670295D01*
X185163095Y-116670295D02*
X185210714Y-116575057D01*
X185210714Y-116575057D02*
X185258333Y-116527438D01*
X185258333Y-116527438D02*
X185353571Y-116479819D01*
X185353571Y-116479819D02*
X185544047Y-116479819D01*
X185544047Y-116479819D02*
X185639285Y-116527438D01*
X185639285Y-116527438D02*
X185686904Y-116575057D01*
X185686904Y-116575057D02*
X185734523Y-116670295D01*
X185734523Y-116670295D02*
X185734523Y-116908390D01*
X185734523Y-116908390D02*
X185686904Y-117003628D01*
X185686904Y-117003628D02*
X185639285Y-117051247D01*
X185639285Y-117051247D02*
X185544047Y-117098866D01*
X185544047Y-117098866D02*
X185353571Y-117098866D01*
X185353571Y-117098866D02*
X185258333Y-117051247D01*
X185258333Y-117051247D02*
X185210714Y-117003628D01*
X185210714Y-117003628D02*
X185163095Y-116908390D01*
X179584819Y-93052142D02*
X179108628Y-92718809D01*
X179584819Y-92480714D02*
X178584819Y-92480714D01*
X178584819Y-92480714D02*
X178584819Y-92861666D01*
X178584819Y-92861666D02*
X178632438Y-92956904D01*
X178632438Y-92956904D02*
X178680057Y-93004523D01*
X178680057Y-93004523D02*
X178775295Y-93052142D01*
X178775295Y-93052142D02*
X178918152Y-93052142D01*
X178918152Y-93052142D02*
X179013390Y-93004523D01*
X179013390Y-93004523D02*
X179061009Y-92956904D01*
X179061009Y-92956904D02*
X179108628Y-92861666D01*
X179108628Y-92861666D02*
X179108628Y-92480714D01*
X178680057Y-93433095D02*
X178632438Y-93480714D01*
X178632438Y-93480714D02*
X178584819Y-93575952D01*
X178584819Y-93575952D02*
X178584819Y-93814047D01*
X178584819Y-93814047D02*
X178632438Y-93909285D01*
X178632438Y-93909285D02*
X178680057Y-93956904D01*
X178680057Y-93956904D02*
X178775295Y-94004523D01*
X178775295Y-94004523D02*
X178870533Y-94004523D01*
X178870533Y-94004523D02*
X179013390Y-93956904D01*
X179013390Y-93956904D02*
X179584819Y-93385476D01*
X179584819Y-93385476D02*
X179584819Y-94004523D01*
X178584819Y-94909285D02*
X178584819Y-94433095D01*
X178584819Y-94433095D02*
X179061009Y-94385476D01*
X179061009Y-94385476D02*
X179013390Y-94433095D01*
X179013390Y-94433095D02*
X178965771Y-94528333D01*
X178965771Y-94528333D02*
X178965771Y-94766428D01*
X178965771Y-94766428D02*
X179013390Y-94861666D01*
X179013390Y-94861666D02*
X179061009Y-94909285D01*
X179061009Y-94909285D02*
X179156247Y-94956904D01*
X179156247Y-94956904D02*
X179394342Y-94956904D01*
X179394342Y-94956904D02*
X179489580Y-94909285D01*
X179489580Y-94909285D02*
X179537200Y-94861666D01*
X179537200Y-94861666D02*
X179584819Y-94766428D01*
X179584819Y-94766428D02*
X179584819Y-94528333D01*
X179584819Y-94528333D02*
X179537200Y-94433095D01*
X179537200Y-94433095D02*
X179489580Y-94385476D01*
X189438094Y-106529819D02*
X189438094Y-107339342D01*
X189438094Y-107339342D02*
X189390475Y-107434580D01*
X189390475Y-107434580D02*
X189342856Y-107482200D01*
X189342856Y-107482200D02*
X189247618Y-107529819D01*
X189247618Y-107529819D02*
X189057142Y-107529819D01*
X189057142Y-107529819D02*
X188961904Y-107482200D01*
X188961904Y-107482200D02*
X188914285Y-107434580D01*
X188914285Y-107434580D02*
X188866666Y-107339342D01*
X188866666Y-107339342D02*
X188866666Y-106529819D01*
X187866666Y-107529819D02*
X188438094Y-107529819D01*
X188152380Y-107529819D02*
X188152380Y-106529819D01*
X188152380Y-106529819D02*
X188247618Y-106672676D01*
X188247618Y-106672676D02*
X188342856Y-106767914D01*
X188342856Y-106767914D02*
X188438094Y-106815533D01*
X187247618Y-106529819D02*
X187152380Y-106529819D01*
X187152380Y-106529819D02*
X187057142Y-106577438D01*
X187057142Y-106577438D02*
X187009523Y-106625057D01*
X187009523Y-106625057D02*
X186961904Y-106720295D01*
X186961904Y-106720295D02*
X186914285Y-106910771D01*
X186914285Y-106910771D02*
X186914285Y-107148866D01*
X186914285Y-107148866D02*
X186961904Y-107339342D01*
X186961904Y-107339342D02*
X187009523Y-107434580D01*
X187009523Y-107434580D02*
X187057142Y-107482200D01*
X187057142Y-107482200D02*
X187152380Y-107529819D01*
X187152380Y-107529819D02*
X187247618Y-107529819D01*
X187247618Y-107529819D02*
X187342856Y-107482200D01*
X187342856Y-107482200D02*
X187390475Y-107434580D01*
X187390475Y-107434580D02*
X187438094Y-107339342D01*
X187438094Y-107339342D02*
X187485713Y-107148866D01*
X187485713Y-107148866D02*
X187485713Y-106910771D01*
X187485713Y-106910771D02*
X187438094Y-106720295D01*
X187438094Y-106720295D02*
X187390475Y-106625057D01*
X187390475Y-106625057D02*
X187342856Y-106577438D01*
X187342856Y-106577438D02*
X187247618Y-106529819D01*
X143429569Y-88993142D02*
X142953378Y-88659809D01*
X143429569Y-88421714D02*
X142429569Y-88421714D01*
X142429569Y-88421714D02*
X142429569Y-88802666D01*
X142429569Y-88802666D02*
X142477188Y-88897904D01*
X142477188Y-88897904D02*
X142524807Y-88945523D01*
X142524807Y-88945523D02*
X142620045Y-88993142D01*
X142620045Y-88993142D02*
X142762902Y-88993142D01*
X142762902Y-88993142D02*
X142858140Y-88945523D01*
X142858140Y-88945523D02*
X142905759Y-88897904D01*
X142905759Y-88897904D02*
X142953378Y-88802666D01*
X142953378Y-88802666D02*
X142953378Y-88421714D01*
X142429569Y-89326476D02*
X142429569Y-89993142D01*
X142429569Y-89993142D02*
X143429569Y-89564571D01*
X142524807Y-90326476D02*
X142477188Y-90374095D01*
X142477188Y-90374095D02*
X142429569Y-90469333D01*
X142429569Y-90469333D02*
X142429569Y-90707428D01*
X142429569Y-90707428D02*
X142477188Y-90802666D01*
X142477188Y-90802666D02*
X142524807Y-90850285D01*
X142524807Y-90850285D02*
X142620045Y-90897904D01*
X142620045Y-90897904D02*
X142715283Y-90897904D01*
X142715283Y-90897904D02*
X142858140Y-90850285D01*
X142858140Y-90850285D02*
X143429569Y-90278857D01*
X143429569Y-90278857D02*
X143429569Y-90897904D01*
X143721428Y-107104819D02*
X144054761Y-106628628D01*
X144292856Y-107104819D02*
X144292856Y-106104819D01*
X144292856Y-106104819D02*
X143911904Y-106104819D01*
X143911904Y-106104819D02*
X143816666Y-106152438D01*
X143816666Y-106152438D02*
X143769047Y-106200057D01*
X143769047Y-106200057D02*
X143721428Y-106295295D01*
X143721428Y-106295295D02*
X143721428Y-106438152D01*
X143721428Y-106438152D02*
X143769047Y-106533390D01*
X143769047Y-106533390D02*
X143816666Y-106581009D01*
X143816666Y-106581009D02*
X143911904Y-106628628D01*
X143911904Y-106628628D02*
X144292856Y-106628628D01*
X143149999Y-106533390D02*
X143245237Y-106485771D01*
X143245237Y-106485771D02*
X143292856Y-106438152D01*
X143292856Y-106438152D02*
X143340475Y-106342914D01*
X143340475Y-106342914D02*
X143340475Y-106295295D01*
X143340475Y-106295295D02*
X143292856Y-106200057D01*
X143292856Y-106200057D02*
X143245237Y-106152438D01*
X143245237Y-106152438D02*
X143149999Y-106104819D01*
X143149999Y-106104819D02*
X142959523Y-106104819D01*
X142959523Y-106104819D02*
X142864285Y-106152438D01*
X142864285Y-106152438D02*
X142816666Y-106200057D01*
X142816666Y-106200057D02*
X142769047Y-106295295D01*
X142769047Y-106295295D02*
X142769047Y-106342914D01*
X142769047Y-106342914D02*
X142816666Y-106438152D01*
X142816666Y-106438152D02*
X142864285Y-106485771D01*
X142864285Y-106485771D02*
X142959523Y-106533390D01*
X142959523Y-106533390D02*
X143149999Y-106533390D01*
X143149999Y-106533390D02*
X143245237Y-106581009D01*
X143245237Y-106581009D02*
X143292856Y-106628628D01*
X143292856Y-106628628D02*
X143340475Y-106723866D01*
X143340475Y-106723866D02*
X143340475Y-106914342D01*
X143340475Y-106914342D02*
X143292856Y-107009580D01*
X143292856Y-107009580D02*
X143245237Y-107057200D01*
X143245237Y-107057200D02*
X143149999Y-107104819D01*
X143149999Y-107104819D02*
X142959523Y-107104819D01*
X142959523Y-107104819D02*
X142864285Y-107057200D01*
X142864285Y-107057200D02*
X142816666Y-107009580D01*
X142816666Y-107009580D02*
X142769047Y-106914342D01*
X142769047Y-106914342D02*
X142769047Y-106723866D01*
X142769047Y-106723866D02*
X142816666Y-106628628D01*
X142816666Y-106628628D02*
X142864285Y-106581009D01*
X142864285Y-106581009D02*
X142959523Y-106533390D01*
X141816666Y-107104819D02*
X142388094Y-107104819D01*
X142102380Y-107104819D02*
X142102380Y-106104819D01*
X142102380Y-106104819D02*
X142197618Y-106247676D01*
X142197618Y-106247676D02*
X142292856Y-106342914D01*
X142292856Y-106342914D02*
X142388094Y-106390533D01*
X140636190Y-87760963D02*
X140636190Y-88275010D01*
X140636190Y-88275010D02*
X140605952Y-88335486D01*
X140605952Y-88335486D02*
X140575714Y-88365725D01*
X140575714Y-88365725D02*
X140515238Y-88395963D01*
X140515238Y-88395963D02*
X140394285Y-88395963D01*
X140394285Y-88395963D02*
X140333809Y-88365725D01*
X140333809Y-88365725D02*
X140303571Y-88335486D01*
X140303571Y-88335486D02*
X140273333Y-88275010D01*
X140273333Y-88275010D02*
X140273333Y-87760963D01*
X140001190Y-87821439D02*
X139970952Y-87791201D01*
X139970952Y-87791201D02*
X139910476Y-87760963D01*
X139910476Y-87760963D02*
X139759285Y-87760963D01*
X139759285Y-87760963D02*
X139698809Y-87791201D01*
X139698809Y-87791201D02*
X139668571Y-87821439D01*
X139668571Y-87821439D02*
X139638333Y-87881915D01*
X139638333Y-87881915D02*
X139638333Y-87942391D01*
X139638333Y-87942391D02*
X139668571Y-88033105D01*
X139668571Y-88033105D02*
X140031428Y-88395963D01*
X140031428Y-88395963D02*
X139638333Y-88395963D01*
X139426666Y-87760963D02*
X139033571Y-87760963D01*
X139033571Y-87760963D02*
X139245238Y-88002867D01*
X139245238Y-88002867D02*
X139154523Y-88002867D01*
X139154523Y-88002867D02*
X139094047Y-88033105D01*
X139094047Y-88033105D02*
X139063809Y-88063344D01*
X139063809Y-88063344D02*
X139033571Y-88123820D01*
X139033571Y-88123820D02*
X139033571Y-88275010D01*
X139033571Y-88275010D02*
X139063809Y-88335486D01*
X139063809Y-88335486D02*
X139094047Y-88365725D01*
X139094047Y-88365725D02*
X139154523Y-88395963D01*
X139154523Y-88395963D02*
X139335952Y-88395963D01*
X139335952Y-88395963D02*
X139396428Y-88365725D01*
X139396428Y-88365725D02*
X139426666Y-88335486D01*
X135926654Y-86959819D02*
X135926654Y-87769342D01*
X135926654Y-87769342D02*
X135879035Y-87864580D01*
X135879035Y-87864580D02*
X135831416Y-87912200D01*
X135831416Y-87912200D02*
X135736178Y-87959819D01*
X135736178Y-87959819D02*
X135545702Y-87959819D01*
X135545702Y-87959819D02*
X135450464Y-87912200D01*
X135450464Y-87912200D02*
X135402845Y-87864580D01*
X135402845Y-87864580D02*
X135355226Y-87769342D01*
X135355226Y-87769342D02*
X135355226Y-86959819D01*
X134831416Y-87959819D02*
X134640940Y-87959819D01*
X134640940Y-87959819D02*
X134545702Y-87912200D01*
X134545702Y-87912200D02*
X134498083Y-87864580D01*
X134498083Y-87864580D02*
X134402845Y-87721723D01*
X134402845Y-87721723D02*
X134355226Y-87531247D01*
X134355226Y-87531247D02*
X134355226Y-87150295D01*
X134355226Y-87150295D02*
X134402845Y-87055057D01*
X134402845Y-87055057D02*
X134450464Y-87007438D01*
X134450464Y-87007438D02*
X134545702Y-86959819D01*
X134545702Y-86959819D02*
X134736178Y-86959819D01*
X134736178Y-86959819D02*
X134831416Y-87007438D01*
X134831416Y-87007438D02*
X134879035Y-87055057D01*
X134879035Y-87055057D02*
X134926654Y-87150295D01*
X134926654Y-87150295D02*
X134926654Y-87388390D01*
X134926654Y-87388390D02*
X134879035Y-87483628D01*
X134879035Y-87483628D02*
X134831416Y-87531247D01*
X134831416Y-87531247D02*
X134736178Y-87578866D01*
X134736178Y-87578866D02*
X134545702Y-87578866D01*
X134545702Y-87578866D02*
X134450464Y-87531247D01*
X134450464Y-87531247D02*
X134402845Y-87483628D01*
X134402845Y-87483628D02*
X134355226Y-87388390D01*
X194434819Y-106580952D02*
X193958628Y-106247619D01*
X194434819Y-106009524D02*
X193434819Y-106009524D01*
X193434819Y-106009524D02*
X193434819Y-106390476D01*
X193434819Y-106390476D02*
X193482438Y-106485714D01*
X193482438Y-106485714D02*
X193530057Y-106533333D01*
X193530057Y-106533333D02*
X193625295Y-106580952D01*
X193625295Y-106580952D02*
X193768152Y-106580952D01*
X193768152Y-106580952D02*
X193863390Y-106533333D01*
X193863390Y-106533333D02*
X193911009Y-106485714D01*
X193911009Y-106485714D02*
X193958628Y-106390476D01*
X193958628Y-106390476D02*
X193958628Y-106009524D01*
X194434819Y-107533333D02*
X194434819Y-106961905D01*
X194434819Y-107247619D02*
X193434819Y-107247619D01*
X193434819Y-107247619D02*
X193577676Y-107152381D01*
X193577676Y-107152381D02*
X193672914Y-107057143D01*
X193672914Y-107057143D02*
X193720533Y-106961905D01*
X193434819Y-108152381D02*
X193434819Y-108247619D01*
X193434819Y-108247619D02*
X193482438Y-108342857D01*
X193482438Y-108342857D02*
X193530057Y-108390476D01*
X193530057Y-108390476D02*
X193625295Y-108438095D01*
X193625295Y-108438095D02*
X193815771Y-108485714D01*
X193815771Y-108485714D02*
X194053866Y-108485714D01*
X194053866Y-108485714D02*
X194244342Y-108438095D01*
X194244342Y-108438095D02*
X194339580Y-108390476D01*
X194339580Y-108390476D02*
X194387200Y-108342857D01*
X194387200Y-108342857D02*
X194434819Y-108247619D01*
X194434819Y-108247619D02*
X194434819Y-108152381D01*
X194434819Y-108152381D02*
X194387200Y-108057143D01*
X194387200Y-108057143D02*
X194339580Y-108009524D01*
X194339580Y-108009524D02*
X194244342Y-107961905D01*
X194244342Y-107961905D02*
X194053866Y-107914286D01*
X194053866Y-107914286D02*
X193815771Y-107914286D01*
X193815771Y-107914286D02*
X193625295Y-107961905D01*
X193625295Y-107961905D02*
X193530057Y-108009524D01*
X193530057Y-108009524D02*
X193482438Y-108057143D01*
X193482438Y-108057143D02*
X193434819Y-108152381D01*
X193863390Y-109057143D02*
X193815771Y-108961905D01*
X193815771Y-108961905D02*
X193768152Y-108914286D01*
X193768152Y-108914286D02*
X193672914Y-108866667D01*
X193672914Y-108866667D02*
X193625295Y-108866667D01*
X193625295Y-108866667D02*
X193530057Y-108914286D01*
X193530057Y-108914286D02*
X193482438Y-108961905D01*
X193482438Y-108961905D02*
X193434819Y-109057143D01*
X193434819Y-109057143D02*
X193434819Y-109247619D01*
X193434819Y-109247619D02*
X193482438Y-109342857D01*
X193482438Y-109342857D02*
X193530057Y-109390476D01*
X193530057Y-109390476D02*
X193625295Y-109438095D01*
X193625295Y-109438095D02*
X193672914Y-109438095D01*
X193672914Y-109438095D02*
X193768152Y-109390476D01*
X193768152Y-109390476D02*
X193815771Y-109342857D01*
X193815771Y-109342857D02*
X193863390Y-109247619D01*
X193863390Y-109247619D02*
X193863390Y-109057143D01*
X193863390Y-109057143D02*
X193911009Y-108961905D01*
X193911009Y-108961905D02*
X193958628Y-108914286D01*
X193958628Y-108914286D02*
X194053866Y-108866667D01*
X194053866Y-108866667D02*
X194244342Y-108866667D01*
X194244342Y-108866667D02*
X194339580Y-108914286D01*
X194339580Y-108914286D02*
X194387200Y-108961905D01*
X194387200Y-108961905D02*
X194434819Y-109057143D01*
X194434819Y-109057143D02*
X194434819Y-109247619D01*
X194434819Y-109247619D02*
X194387200Y-109342857D01*
X194387200Y-109342857D02*
X194339580Y-109390476D01*
X194339580Y-109390476D02*
X194244342Y-109438095D01*
X194244342Y-109438095D02*
X194053866Y-109438095D01*
X194053866Y-109438095D02*
X193958628Y-109390476D01*
X193958628Y-109390476D02*
X193911009Y-109342857D01*
X193911009Y-109342857D02*
X193863390Y-109247619D01*
X138896416Y-100040819D02*
X139229749Y-99564628D01*
X139467844Y-100040819D02*
X139467844Y-99040819D01*
X139467844Y-99040819D02*
X139086892Y-99040819D01*
X139086892Y-99040819D02*
X138991654Y-99088438D01*
X138991654Y-99088438D02*
X138944035Y-99136057D01*
X138944035Y-99136057D02*
X138896416Y-99231295D01*
X138896416Y-99231295D02*
X138896416Y-99374152D01*
X138896416Y-99374152D02*
X138944035Y-99469390D01*
X138944035Y-99469390D02*
X138991654Y-99517009D01*
X138991654Y-99517009D02*
X139086892Y-99564628D01*
X139086892Y-99564628D02*
X139467844Y-99564628D01*
X138039273Y-99040819D02*
X138229749Y-99040819D01*
X138229749Y-99040819D02*
X138324987Y-99088438D01*
X138324987Y-99088438D02*
X138372606Y-99136057D01*
X138372606Y-99136057D02*
X138467844Y-99278914D01*
X138467844Y-99278914D02*
X138515463Y-99469390D01*
X138515463Y-99469390D02*
X138515463Y-99850342D01*
X138515463Y-99850342D02*
X138467844Y-99945580D01*
X138467844Y-99945580D02*
X138420225Y-99993200D01*
X138420225Y-99993200D02*
X138324987Y-100040819D01*
X138324987Y-100040819D02*
X138134511Y-100040819D01*
X138134511Y-100040819D02*
X138039273Y-99993200D01*
X138039273Y-99993200D02*
X137991654Y-99945580D01*
X137991654Y-99945580D02*
X137944035Y-99850342D01*
X137944035Y-99850342D02*
X137944035Y-99612247D01*
X137944035Y-99612247D02*
X137991654Y-99517009D01*
X137991654Y-99517009D02*
X138039273Y-99469390D01*
X138039273Y-99469390D02*
X138134511Y-99421771D01*
X138134511Y-99421771D02*
X138324987Y-99421771D01*
X138324987Y-99421771D02*
X138420225Y-99469390D01*
X138420225Y-99469390D02*
X138467844Y-99517009D01*
X138467844Y-99517009D02*
X138515463Y-99612247D01*
D12*
%TO.C,F8*%
X189426248Y-92200000D02*
X193833752Y-92200000D01*
X189426248Y-97540000D02*
X193833752Y-97540000D01*
%TO.C,R97*%
X180452500Y-87532742D02*
X180452500Y-88007258D01*
X179407500Y-87532742D02*
X179407500Y-88007258D01*
%TO.C,R26*%
X183492742Y-95272500D02*
X183967258Y-95272500D01*
X183492742Y-96317500D02*
X183967258Y-96317500D01*
%TO.C,D48*%
X185002500Y-120390000D02*
X187287500Y-120390000D01*
X185002500Y-121860000D02*
X185002500Y-120390000D01*
X187287500Y-121860000D02*
X185002500Y-121860000D01*
%TO.C,R107*%
X192332500Y-85482258D02*
X192332500Y-85007742D01*
X193377500Y-85482258D02*
X193377500Y-85007742D01*
%TO.C,F9*%
X191871248Y-115255000D02*
X196278752Y-115255000D01*
X191871248Y-120595000D02*
X196278752Y-120595000D01*
%TO.C,R78*%
X177647500Y-108612742D02*
X177647500Y-109087258D01*
X176602500Y-108612742D02*
X176602500Y-109087258D01*
%TO.C,R1*%
X141152500Y-117012258D02*
X141152500Y-116537742D01*
X142197500Y-117012258D02*
X142197500Y-116537742D01*
%TO.C,R71*%
X144422500Y-110337742D02*
X144422500Y-110812258D01*
X143377500Y-110337742D02*
X143377500Y-110812258D01*
%TO.C,D25*%
X185165000Y-93555000D02*
X182880000Y-93555000D01*
X185165000Y-92085000D02*
X185165000Y-93555000D01*
X182880000Y-92085000D02*
X185165000Y-92085000D01*
D11*
%TO.C,U29*%
X186059000Y-105937500D02*
X186059000Y-104237500D01*
X182941000Y-104237500D02*
X182941000Y-105937500D01*
D13*
X185900000Y-107487500D02*
G75*
G03*
X185900000Y-107487500I-100000J0D01*
G01*
D11*
%TO.C,U7*%
X132615000Y-109576500D02*
X136615000Y-109576500D01*
X132615000Y-114584000D02*
X136615000Y-114584000D01*
D13*
X130715000Y-114330000D02*
G75*
G03*
X130715000Y-114330000I-100000J0D01*
G01*
D12*
%TO.C,F2*%
X133144823Y-121883999D02*
X128737319Y-121883999D01*
X133144823Y-116543999D02*
X128737319Y-116543999D01*
%TO.C,D47*%
X182220000Y-97910000D02*
X184505000Y-97910000D01*
X182220000Y-99380000D02*
X182220000Y-97910000D01*
X184505000Y-99380000D02*
X182220000Y-99380000D01*
%TO.C,R77*%
X177577500Y-87582742D02*
X177577500Y-88057258D01*
X176532500Y-87582742D02*
X176532500Y-88057258D01*
%TO.C,R5*%
X141032250Y-96148258D02*
X141032250Y-95673742D01*
X142077250Y-96148258D02*
X142077250Y-95673742D01*
%TO.C,R88*%
X179337258Y-106397500D02*
X178862742Y-106397500D01*
X179337258Y-105352500D02*
X178862742Y-105352500D01*
%TO.C,D5*%
X137165000Y-94390000D02*
X139450000Y-94390000D01*
X137165000Y-95860000D02*
X137165000Y-94390000D01*
X139450000Y-95860000D02*
X137165000Y-95860000D01*
%TO.C,R102*%
X128682250Y-90198258D02*
X128682250Y-89723742D01*
X129727250Y-90198258D02*
X129727250Y-89723742D01*
%TO.C,R2*%
X138640829Y-119397500D02*
X138166313Y-119397500D01*
X138640829Y-118352500D02*
X138166313Y-118352500D01*
%TO.C,R30*%
X186237742Y-117927500D02*
X186712258Y-117927500D01*
X186237742Y-118972500D02*
X186712258Y-118972500D01*
%TO.C,R91*%
X141547500Y-110362742D02*
X141547500Y-110837258D01*
X140502500Y-110362742D02*
X140502500Y-110837258D01*
%TO.C,R87*%
X179342258Y-84592500D02*
X178867742Y-84592500D01*
X179342258Y-83547500D02*
X178867742Y-83547500D01*
%TO.C,R82*%
X143292492Y-85563500D02*
X143767008Y-85563500D01*
X143292492Y-86608500D02*
X143767008Y-86608500D01*
%TO.C,R29*%
X182302500Y-116537258D02*
X182302500Y-116062742D01*
X183347500Y-116537258D02*
X183347500Y-116062742D01*
%TO.C,F3*%
X134033502Y-100931000D02*
X129625998Y-100931000D01*
X134033502Y-95591000D02*
X129625998Y-95591000D01*
D11*
%TO.C,U28*%
X185914000Y-83137500D02*
X185914000Y-81437500D01*
X182796000Y-81437500D02*
X182796000Y-83137500D01*
D13*
X185755000Y-84687500D02*
G75*
G03*
X185755000Y-84687500I-100000J0D01*
G01*
D11*
%TO.C,U22*%
X136825000Y-108309000D02*
X138525000Y-108309000D01*
X138525000Y-105191000D02*
X136825000Y-105191000D01*
D13*
X135375000Y-108050000D02*
G75*
G03*
X135375000Y-108050000I-100000J0D01*
G01*
D12*
%TO.C,D1*%
X136940000Y-115215000D02*
X139225000Y-115215000D01*
X136940000Y-116685000D02*
X136940000Y-115215000D01*
X139225000Y-116685000D02*
X136940000Y-116685000D01*
%TO.C,D41*%
X139626071Y-122348999D02*
X137341071Y-122348999D01*
X139626071Y-120878999D02*
X139626071Y-122348999D01*
X137341071Y-120878999D02*
X139626071Y-120878999D01*
%TO.C,R101*%
X128227500Y-111412258D02*
X128227500Y-110937742D01*
X129272500Y-111412258D02*
X129272500Y-110937742D01*
D11*
%TO.C,U8*%
X188990000Y-90478500D02*
X184990000Y-90478500D01*
X188990000Y-85471000D02*
X184990000Y-85471000D01*
D13*
X191090000Y-85725000D02*
G75*
G03*
X191090000Y-85725000I-100000J0D01*
G01*
D12*
%TO.C,R98*%
X180522500Y-108587742D02*
X180522500Y-109062258D01*
X179477500Y-108587742D02*
X179477500Y-109062258D01*
%TO.C,D42*%
X140239750Y-101771000D02*
X137954750Y-101771000D01*
X140239750Y-100301000D02*
X140239750Y-101771000D01*
X137954750Y-100301000D02*
X140239750Y-100301000D01*
%TO.C,R92*%
X142052250Y-89373742D02*
X142052250Y-89848258D01*
X141007250Y-89373742D02*
X141007250Y-89848258D01*
%TO.C,D29*%
X187910000Y-116210000D02*
X185625000Y-116210000D01*
X187910000Y-114740000D02*
X187910000Y-116210000D01*
X185625000Y-114740000D02*
X187910000Y-114740000D01*
%TO.C,R25*%
X180082500Y-93882258D02*
X180082500Y-93407742D01*
X181127500Y-93882258D02*
X181127500Y-93407742D01*
D11*
%TO.C,U10*%
X189115000Y-112948500D02*
X185115000Y-112948500D01*
X189115000Y-107941000D02*
X185115000Y-107941000D01*
D13*
X191215000Y-108195000D02*
G75*
G03*
X191215000Y-108195000I-100000J0D01*
G01*
D12*
%TO.C,R72*%
X144927250Y-89398742D02*
X144927250Y-89873258D01*
X143882250Y-89398742D02*
X143882250Y-89873258D01*
%TO.C,R81*%
X142866313Y-107502500D02*
X143340829Y-107502500D01*
X142866313Y-108547500D02*
X143340829Y-108547500D01*
D11*
%TO.C,U23*%
X137702500Y-87429000D02*
X139402500Y-87429000D01*
X139402500Y-84311000D02*
X137702500Y-84311000D01*
D13*
X136252500Y-87170000D02*
G75*
G03*
X136252500Y-87170000I-100000J0D01*
G01*
D11*
%TO.C,U9*%
X133164750Y-88557500D02*
X137164750Y-88557500D01*
X133164750Y-93565000D02*
X137164750Y-93565000D01*
D13*
X131264750Y-93311000D02*
G75*
G03*
X131264750Y-93311000I-100000J0D01*
G01*
D12*
%TO.C,R108*%
X192027500Y-107937258D02*
X192027500Y-107462742D01*
X193072500Y-107937258D02*
X193072500Y-107462742D01*
%TO.C,R6*%
X138967008Y-98633500D02*
X138492492Y-98633500D01*
X138967008Y-97588500D02*
X138492492Y-97588500D01*
%TD*%
%LPC*%
D14*
%TO.C,U11*%
X153598900Y-94045500D03*
X153598900Y-96585500D03*
X153598900Y-99125500D03*
X153598900Y-101665500D03*
X153598900Y-104205500D03*
X153598900Y-106745500D03*
X153598900Y-109285500D03*
X153598900Y-111825500D03*
X153598900Y-114365500D03*
D15*
X153598900Y-116905500D03*
X157408900Y-123001500D03*
D14*
X159948900Y-123001500D03*
X162488900Y-123001500D03*
X165028900Y-123001500D03*
X167568900Y-123001500D03*
D15*
X171378340Y-116905500D03*
D14*
X171378340Y-114365500D03*
X171378340Y-111825500D03*
X171378340Y-109285500D03*
X171378340Y-106745500D03*
X171378340Y-104205500D03*
X171378340Y-101665500D03*
X171378340Y-99125500D03*
X171378340Y-96585500D03*
X171378340Y-94045500D03*
%TD*%
%TO.C,*%
X168860000Y-104210000D03*
%TD*%
D16*
%TO.C,J3*%
X160688000Y-73320331D03*
X127388000Y-73320331D03*
D17*
X134343000Y-74740331D03*
D18*
X137113000Y-74740331D03*
X139883000Y-74740331D03*
X142653000Y-74740331D03*
X145423000Y-74740331D03*
X148193000Y-74740331D03*
X150963000Y-74740331D03*
X153733000Y-74740331D03*
X135728000Y-71900331D03*
X138498000Y-71900331D03*
X141268000Y-71900331D03*
X144038000Y-71900331D03*
X146808000Y-71900331D03*
X149578000Y-71900331D03*
X152348000Y-71900331D03*
%TD*%
D15*
%TO.C,*%
X156160000Y-116910000D03*
%TD*%
D14*
%TO.C,*%
X156160000Y-111830000D03*
%TD*%
%TO.C,*%
X167570000Y-120460000D03*
%TD*%
%TO.C,*%
X156160000Y-99130000D03*
%TD*%
%TO.C,*%
X168860000Y-94050000D03*
%TD*%
%TO.C,*%
X156160000Y-109290000D03*
%TD*%
%TO.C,*%
X168860000Y-106750000D03*
%TD*%
%TO.C,*%
X168860000Y-109290000D03*
%TD*%
%TO.C,*%
X168860000Y-96590000D03*
%TD*%
%TO.C,*%
X156160000Y-94050000D03*
%TD*%
D15*
%TO.C,*%
X168860000Y-116910000D03*
%TD*%
D14*
%TO.C,*%
X156160000Y-114370000D03*
%TD*%
D19*
%TO.C,J1*%
X183550160Y-144091000D03*
D20*
X184550160Y-144641000D03*
X185550160Y-144641000D03*
X186550160Y-144641000D03*
X187550160Y-144641000D03*
X188550160Y-144641000D03*
X189550160Y-144641000D03*
X190550160Y-144641000D03*
X191550160Y-144641000D03*
X192550160Y-144641000D03*
X193550160Y-144641000D03*
X196550160Y-144641000D03*
X197550160Y-144641000D03*
X198550160Y-144641000D03*
X199550160Y-144641000D03*
X200550160Y-144641000D03*
X201550160Y-144641000D03*
X202550160Y-144641000D03*
%TD*%
D14*
%TO.C,*%
X156160000Y-104210000D03*
%TD*%
%TO.C,*%
X168860000Y-101670000D03*
%TD*%
D16*
%TO.C,J2*%
X202344000Y-73256000D03*
X169044000Y-73256000D03*
D17*
X175999000Y-74676000D03*
D18*
X178769000Y-74676000D03*
X181539000Y-74676000D03*
X184309000Y-74676000D03*
X187079000Y-74676000D03*
X189849000Y-74676000D03*
X192619000Y-74676000D03*
X195389000Y-74676000D03*
X177384000Y-71836000D03*
X180154000Y-71836000D03*
X182924000Y-71836000D03*
X185694000Y-71836000D03*
X188464000Y-71836000D03*
X191234000Y-71836000D03*
X194004000Y-71836000D03*
%TD*%
D14*
%TO.C,*%
X159950000Y-120460000D03*
%TD*%
%TO.C,*%
X168860000Y-99130000D03*
%TD*%
D15*
%TO.C,*%
X157410000Y-120460000D03*
%TD*%
D14*
%TO.C,*%
X168860000Y-111830000D03*
%TD*%
%TO.C,*%
X156160000Y-106750000D03*
%TD*%
%TO.C,*%
X162490000Y-120460000D03*
%TD*%
%TO.C,*%
X156160000Y-101670000D03*
%TD*%
%TO.C,*%
X168860000Y-114370000D03*
%TD*%
%TO.C,*%
X156160000Y-96590000D03*
%TD*%
%TO.C,*%
X165030000Y-120460000D03*
%TD*%
D21*
%TO.C,F8*%
X188242500Y-94870000D03*
X195017500Y-94870000D03*
%TD*%
D22*
%TO.C,R97*%
X179930000Y-86945000D03*
X179930000Y-88595000D03*
%TD*%
D23*
%TO.C,R26*%
X182905000Y-95795000D03*
X184555000Y-95795000D03*
%TD*%
D24*
%TO.C,D48*%
X185700000Y-121125000D03*
X187275000Y-121125000D03*
%TD*%
D25*
%TO.C,R107*%
X192855000Y-86070000D03*
X192855000Y-84420000D03*
%TD*%
D21*
%TO.C,F9*%
X190687500Y-117925000D03*
X197462500Y-117925000D03*
%TD*%
D22*
%TO.C,R78*%
X177125000Y-108025000D03*
X177125000Y-109675000D03*
%TD*%
D25*
%TO.C,R1*%
X141675000Y-117600000D03*
X141675000Y-115950000D03*
%TD*%
D22*
%TO.C,R71*%
X143900000Y-109750000D03*
X143900000Y-111400000D03*
%TD*%
D26*
%TO.C,D25*%
X184467500Y-92820000D03*
X182892500Y-92820000D03*
%TD*%
D27*
%TO.C,U29*%
X185450000Y-106252500D03*
X184500000Y-106252500D03*
X183550000Y-106252500D03*
X183550000Y-103922500D03*
X184500000Y-103922500D03*
X185450000Y-103922500D03*
%TD*%
D28*
%TO.C,U7*%
X132000000Y-113985000D03*
X132000000Y-112715000D03*
X132000000Y-111445000D03*
X132000000Y-110175000D03*
X137230000Y-110175000D03*
X137230000Y-111445000D03*
X137230000Y-112715000D03*
X137230000Y-113985000D03*
D29*
X134615000Y-112080000D03*
%TD*%
D30*
%TO.C,F2*%
X134328571Y-119213999D03*
X127553571Y-119213999D03*
%TD*%
D24*
%TO.C,D47*%
X182917500Y-98645000D03*
X184492500Y-98645000D03*
%TD*%
D22*
%TO.C,R77*%
X177055000Y-86995000D03*
X177055000Y-88645000D03*
%TD*%
D25*
%TO.C,R5*%
X141554750Y-96736000D03*
X141554750Y-95086000D03*
%TD*%
D31*
%TO.C,R88*%
X179925000Y-105875000D03*
X178275000Y-105875000D03*
%TD*%
D24*
%TO.C,D5*%
X137862500Y-95125000D03*
X139437500Y-95125000D03*
%TD*%
D25*
%TO.C,R102*%
X129204750Y-90786000D03*
X129204750Y-89136000D03*
%TD*%
D31*
%TO.C,R2*%
X139228571Y-118875000D03*
X137578571Y-118875000D03*
%TD*%
D23*
%TO.C,R30*%
X185650000Y-118450000D03*
X187300000Y-118450000D03*
%TD*%
D22*
%TO.C,R91*%
X141025000Y-109775000D03*
X141025000Y-111425000D03*
%TD*%
D31*
%TO.C,R87*%
X179930000Y-84070000D03*
X178280000Y-84070000D03*
%TD*%
D23*
%TO.C,R82*%
X142704750Y-86086000D03*
X144354750Y-86086000D03*
%TD*%
D25*
%TO.C,R29*%
X182825000Y-117125000D03*
X182825000Y-115475000D03*
%TD*%
D30*
%TO.C,F3*%
X135217250Y-98261000D03*
X128442250Y-98261000D03*
%TD*%
D27*
%TO.C,U28*%
X185305000Y-83452500D03*
X184355000Y-83452500D03*
X183405000Y-83452500D03*
X183405000Y-81122500D03*
X184355000Y-81122500D03*
X185305000Y-81122500D03*
%TD*%
D32*
%TO.C,U22*%
X136510000Y-107700000D03*
X136510000Y-106750000D03*
X136510000Y-105800000D03*
X138840000Y-105800000D03*
X138840000Y-106750000D03*
X138840000Y-107700000D03*
%TD*%
D24*
%TO.C,D1*%
X137637500Y-115950000D03*
X139212500Y-115950000D03*
%TD*%
D26*
%TO.C,D41*%
X138928571Y-121613999D03*
X137353571Y-121613999D03*
%TD*%
D25*
%TO.C,R101*%
X128750000Y-112000000D03*
X128750000Y-110350000D03*
%TD*%
D33*
%TO.C,U8*%
X189605000Y-86070000D03*
X189605000Y-87340000D03*
X189605000Y-88610000D03*
X189605000Y-89880000D03*
X184375000Y-89880000D03*
X184375000Y-88610000D03*
X184375000Y-87340000D03*
X184375000Y-86070000D03*
D34*
X186990000Y-87975000D03*
%TD*%
D22*
%TO.C,R98*%
X180000000Y-108000000D03*
X180000000Y-109650000D03*
%TD*%
D26*
%TO.C,D42*%
X139542250Y-101036000D03*
X137967250Y-101036000D03*
%TD*%
D22*
%TO.C,R92*%
X141529750Y-88786000D03*
X141529750Y-90436000D03*
%TD*%
D26*
%TO.C,D29*%
X187212500Y-115475000D03*
X185637500Y-115475000D03*
%TD*%
D25*
%TO.C,R25*%
X180605000Y-94470000D03*
X180605000Y-92820000D03*
%TD*%
D33*
%TO.C,U10*%
X189730000Y-108540000D03*
X189730000Y-109810000D03*
X189730000Y-111080000D03*
X189730000Y-112350000D03*
X184500000Y-112350000D03*
X184500000Y-111080000D03*
X184500000Y-109810000D03*
X184500000Y-108540000D03*
D34*
X187115000Y-110445000D03*
%TD*%
D22*
%TO.C,R72*%
X144404750Y-88811000D03*
X144404750Y-90461000D03*
%TD*%
D23*
%TO.C,R81*%
X142278571Y-108025000D03*
X143928571Y-108025000D03*
%TD*%
D32*
%TO.C,U23*%
X137387500Y-86820000D03*
X137387500Y-85870000D03*
X137387500Y-84920000D03*
X139717500Y-84920000D03*
X139717500Y-85870000D03*
X139717500Y-86820000D03*
%TD*%
D28*
%TO.C,U9*%
X132549750Y-92966000D03*
X132549750Y-91696000D03*
X132549750Y-90426000D03*
X132549750Y-89156000D03*
X137779750Y-89156000D03*
X137779750Y-90426000D03*
X137779750Y-91696000D03*
X137779750Y-92966000D03*
D29*
X135164750Y-91061000D03*
%TD*%
D25*
%TO.C,R108*%
X192550000Y-108525000D03*
X192550000Y-106875000D03*
%TD*%
D31*
%TO.C,R6*%
X139554750Y-98111000D03*
X137904750Y-98111000D03*
%TD*%
%LPD*%
M02*
