%TF.GenerationSoftware,KiCad,Pcbnew,7.0.7*%
%TF.CreationDate,2024-02-25T12:29:17-08:00*%
%TF.ProjectId,Connector-board,436f6e6e-6563-4746-9f72-2d626f617264,rev?*%
%TF.SameCoordinates,Original*%
%TF.FileFunction,Legend,Bot*%
%TF.FilePolarity,Positive*%
%FSLAX46Y46*%
G04 Gerber Fmt 4.6, Leading zero omitted, Abs format (unit mm)*
G04 Created by KiCad (PCBNEW 7.0.7) date 2024-02-25 12:29:17*
%MOMM*%
%LPD*%
G01*
G04 APERTURE LIST*
%ADD10C,0.150000*%
%ADD11C,0.120000*%
G04 APERTURE END LIST*
D10*
X157747619Y-123988152D02*
X157747619Y-124654819D01*
X157985714Y-123607200D02*
X158223809Y-124321485D01*
X158223809Y-124321485D02*
X157604762Y-124321485D01*
X157366666Y-123654819D02*
X156795238Y-123654819D01*
X157080952Y-124654819D02*
X157080952Y-123654819D01*
X155890476Y-124559580D02*
X155938095Y-124607200D01*
X155938095Y-124607200D02*
X156080952Y-124654819D01*
X156080952Y-124654819D02*
X156176190Y-124654819D01*
X156176190Y-124654819D02*
X156319047Y-124607200D01*
X156319047Y-124607200D02*
X156414285Y-124511961D01*
X156414285Y-124511961D02*
X156461904Y-124416723D01*
X156461904Y-124416723D02*
X156509523Y-124226247D01*
X156509523Y-124226247D02*
X156509523Y-124083390D01*
X156509523Y-124083390D02*
X156461904Y-123892914D01*
X156461904Y-123892914D02*
X156414285Y-123797676D01*
X156414285Y-123797676D02*
X156319047Y-123702438D01*
X156319047Y-123702438D02*
X156176190Y-123654819D01*
X156176190Y-123654819D02*
X156080952Y-123654819D01*
X156080952Y-123654819D02*
X155938095Y-123702438D01*
X155938095Y-123702438D02*
X155890476Y-123750057D01*
X155700000Y-124750057D02*
X154938095Y-124750057D01*
X154699999Y-124654819D02*
X154699999Y-123654819D01*
X154699999Y-123654819D02*
X154461904Y-123654819D01*
X154461904Y-123654819D02*
X154319047Y-123702438D01*
X154319047Y-123702438D02*
X154223809Y-123797676D01*
X154223809Y-123797676D02*
X154176190Y-123892914D01*
X154176190Y-123892914D02*
X154128571Y-124083390D01*
X154128571Y-124083390D02*
X154128571Y-124226247D01*
X154128571Y-124226247D02*
X154176190Y-124416723D01*
X154176190Y-124416723D02*
X154223809Y-124511961D01*
X154223809Y-124511961D02*
X154319047Y-124607200D01*
X154319047Y-124607200D02*
X154461904Y-124654819D01*
X154461904Y-124654819D02*
X154699999Y-124654819D01*
X153747618Y-124607200D02*
X153604761Y-124654819D01*
X153604761Y-124654819D02*
X153366666Y-124654819D01*
X153366666Y-124654819D02*
X153271428Y-124607200D01*
X153271428Y-124607200D02*
X153223809Y-124559580D01*
X153223809Y-124559580D02*
X153176190Y-124464342D01*
X153176190Y-124464342D02*
X153176190Y-124369104D01*
X153176190Y-124369104D02*
X153223809Y-124273866D01*
X153223809Y-124273866D02*
X153271428Y-124226247D01*
X153271428Y-124226247D02*
X153366666Y-124178628D01*
X153366666Y-124178628D02*
X153557142Y-124131009D01*
X153557142Y-124131009D02*
X153652380Y-124083390D01*
X153652380Y-124083390D02*
X153699999Y-124035771D01*
X153699999Y-124035771D02*
X153747618Y-123940533D01*
X153747618Y-123940533D02*
X153747618Y-123845295D01*
X153747618Y-123845295D02*
X153699999Y-123750057D01*
X153699999Y-123750057D02*
X153652380Y-123702438D01*
X153652380Y-123702438D02*
X153557142Y-123654819D01*
X153557142Y-123654819D02*
X153319047Y-123654819D01*
X153319047Y-123654819D02*
X153176190Y-123702438D01*
X152747618Y-123654819D02*
X152747618Y-124464342D01*
X152747618Y-124464342D02*
X152699999Y-124559580D01*
X152699999Y-124559580D02*
X152652380Y-124607200D01*
X152652380Y-124607200D02*
X152557142Y-124654819D01*
X152557142Y-124654819D02*
X152366666Y-124654819D01*
X152366666Y-124654819D02*
X152271428Y-124607200D01*
X152271428Y-124607200D02*
X152223809Y-124559580D01*
X152223809Y-124559580D02*
X152176190Y-124464342D01*
X152176190Y-124464342D02*
X152176190Y-123654819D01*
X151366666Y-124131009D02*
X151223809Y-124178628D01*
X151223809Y-124178628D02*
X151176190Y-124226247D01*
X151176190Y-124226247D02*
X151128571Y-124321485D01*
X151128571Y-124321485D02*
X151128571Y-124464342D01*
X151128571Y-124464342D02*
X151176190Y-124559580D01*
X151176190Y-124559580D02*
X151223809Y-124607200D01*
X151223809Y-124607200D02*
X151319047Y-124654819D01*
X151319047Y-124654819D02*
X151699999Y-124654819D01*
X151699999Y-124654819D02*
X151699999Y-123654819D01*
X151699999Y-123654819D02*
X151366666Y-123654819D01*
X151366666Y-123654819D02*
X151271428Y-123702438D01*
X151271428Y-123702438D02*
X151223809Y-123750057D01*
X151223809Y-123750057D02*
X151176190Y-123845295D01*
X151176190Y-123845295D02*
X151176190Y-123940533D01*
X151176190Y-123940533D02*
X151223809Y-124035771D01*
X151223809Y-124035771D02*
X151271428Y-124083390D01*
X151271428Y-124083390D02*
X151366666Y-124131009D01*
X151366666Y-124131009D02*
X151699999Y-124131009D01*
X150176190Y-124654819D02*
X150747618Y-124654819D01*
X150461904Y-124654819D02*
X150461904Y-123654819D01*
X150461904Y-123654819D02*
X150557142Y-123797676D01*
X150557142Y-123797676D02*
X150652380Y-123892914D01*
X150652380Y-123892914D02*
X150747618Y-123940533D01*
X213774047Y-115822438D02*
X213869285Y-115774819D01*
X213869285Y-115774819D02*
X214012142Y-115774819D01*
X214012142Y-115774819D02*
X214154999Y-115822438D01*
X214154999Y-115822438D02*
X214250237Y-115917676D01*
X214250237Y-115917676D02*
X214297856Y-116012914D01*
X214297856Y-116012914D02*
X214345475Y-116203390D01*
X214345475Y-116203390D02*
X214345475Y-116346247D01*
X214345475Y-116346247D02*
X214297856Y-116536723D01*
X214297856Y-116536723D02*
X214250237Y-116631961D01*
X214250237Y-116631961D02*
X214154999Y-116727200D01*
X214154999Y-116727200D02*
X214012142Y-116774819D01*
X214012142Y-116774819D02*
X213916904Y-116774819D01*
X213916904Y-116774819D02*
X213774047Y-116727200D01*
X213774047Y-116727200D02*
X213726428Y-116679580D01*
X213726428Y-116679580D02*
X213726428Y-116346247D01*
X213726428Y-116346247D02*
X213916904Y-116346247D01*
X213297856Y-116774819D02*
X213297856Y-115774819D01*
X213297856Y-115774819D02*
X212726428Y-116774819D01*
X212726428Y-116774819D02*
X212726428Y-115774819D01*
X212250237Y-116774819D02*
X212250237Y-115774819D01*
X212250237Y-115774819D02*
X212012142Y-115774819D01*
X212012142Y-115774819D02*
X211869285Y-115822438D01*
X211869285Y-115822438D02*
X211774047Y-115917676D01*
X211774047Y-115917676D02*
X211726428Y-116012914D01*
X211726428Y-116012914D02*
X211678809Y-116203390D01*
X211678809Y-116203390D02*
X211678809Y-116346247D01*
X211678809Y-116346247D02*
X211726428Y-116536723D01*
X211726428Y-116536723D02*
X211774047Y-116631961D01*
X211774047Y-116631961D02*
X211869285Y-116727200D01*
X211869285Y-116727200D02*
X212012142Y-116774819D01*
X212012142Y-116774819D02*
X212250237Y-116774819D01*
X211488333Y-116870057D02*
X210726428Y-116870057D01*
X210488332Y-116774819D02*
X210488332Y-115774819D01*
X210488332Y-115774819D02*
X210250237Y-115774819D01*
X210250237Y-115774819D02*
X210107380Y-115822438D01*
X210107380Y-115822438D02*
X210012142Y-115917676D01*
X210012142Y-115917676D02*
X209964523Y-116012914D01*
X209964523Y-116012914D02*
X209916904Y-116203390D01*
X209916904Y-116203390D02*
X209916904Y-116346247D01*
X209916904Y-116346247D02*
X209964523Y-116536723D01*
X209964523Y-116536723D02*
X210012142Y-116631961D01*
X210012142Y-116631961D02*
X210107380Y-116727200D01*
X210107380Y-116727200D02*
X210250237Y-116774819D01*
X210250237Y-116774819D02*
X210488332Y-116774819D01*
X209535951Y-116727200D02*
X209393094Y-116774819D01*
X209393094Y-116774819D02*
X209154999Y-116774819D01*
X209154999Y-116774819D02*
X209059761Y-116727200D01*
X209059761Y-116727200D02*
X209012142Y-116679580D01*
X209012142Y-116679580D02*
X208964523Y-116584342D01*
X208964523Y-116584342D02*
X208964523Y-116489104D01*
X208964523Y-116489104D02*
X209012142Y-116393866D01*
X209012142Y-116393866D02*
X209059761Y-116346247D01*
X209059761Y-116346247D02*
X209154999Y-116298628D01*
X209154999Y-116298628D02*
X209345475Y-116251009D01*
X209345475Y-116251009D02*
X209440713Y-116203390D01*
X209440713Y-116203390D02*
X209488332Y-116155771D01*
X209488332Y-116155771D02*
X209535951Y-116060533D01*
X209535951Y-116060533D02*
X209535951Y-115965295D01*
X209535951Y-115965295D02*
X209488332Y-115870057D01*
X209488332Y-115870057D02*
X209440713Y-115822438D01*
X209440713Y-115822438D02*
X209345475Y-115774819D01*
X209345475Y-115774819D02*
X209107380Y-115774819D01*
X209107380Y-115774819D02*
X208964523Y-115822438D01*
X208535951Y-115774819D02*
X208535951Y-116584342D01*
X208535951Y-116584342D02*
X208488332Y-116679580D01*
X208488332Y-116679580D02*
X208440713Y-116727200D01*
X208440713Y-116727200D02*
X208345475Y-116774819D01*
X208345475Y-116774819D02*
X208154999Y-116774819D01*
X208154999Y-116774819D02*
X208059761Y-116727200D01*
X208059761Y-116727200D02*
X208012142Y-116679580D01*
X208012142Y-116679580D02*
X207964523Y-116584342D01*
X207964523Y-116584342D02*
X207964523Y-115774819D01*
X207154999Y-116251009D02*
X207012142Y-116298628D01*
X207012142Y-116298628D02*
X206964523Y-116346247D01*
X206964523Y-116346247D02*
X206916904Y-116441485D01*
X206916904Y-116441485D02*
X206916904Y-116584342D01*
X206916904Y-116584342D02*
X206964523Y-116679580D01*
X206964523Y-116679580D02*
X207012142Y-116727200D01*
X207012142Y-116727200D02*
X207107380Y-116774819D01*
X207107380Y-116774819D02*
X207488332Y-116774819D01*
X207488332Y-116774819D02*
X207488332Y-115774819D01*
X207488332Y-115774819D02*
X207154999Y-115774819D01*
X207154999Y-115774819D02*
X207059761Y-115822438D01*
X207059761Y-115822438D02*
X207012142Y-115870057D01*
X207012142Y-115870057D02*
X206964523Y-115965295D01*
X206964523Y-115965295D02*
X206964523Y-116060533D01*
X206964523Y-116060533D02*
X207012142Y-116155771D01*
X207012142Y-116155771D02*
X207059761Y-116203390D01*
X207059761Y-116203390D02*
X207154999Y-116251009D01*
X207154999Y-116251009D02*
X207488332Y-116251009D01*
X205964523Y-116774819D02*
X206535951Y-116774819D01*
X206250237Y-116774819D02*
X206250237Y-115774819D01*
X206250237Y-115774819D02*
X206345475Y-115917676D01*
X206345475Y-115917676D02*
X206440713Y-116012914D01*
X206440713Y-116012914D02*
X206535951Y-116060533D01*
X193785713Y-89707200D02*
X193642856Y-89754819D01*
X193642856Y-89754819D02*
X193404761Y-89754819D01*
X193404761Y-89754819D02*
X193309523Y-89707200D01*
X193309523Y-89707200D02*
X193261904Y-89659580D01*
X193261904Y-89659580D02*
X193214285Y-89564342D01*
X193214285Y-89564342D02*
X193214285Y-89469104D01*
X193214285Y-89469104D02*
X193261904Y-89373866D01*
X193261904Y-89373866D02*
X193309523Y-89326247D01*
X193309523Y-89326247D02*
X193404761Y-89278628D01*
X193404761Y-89278628D02*
X193595237Y-89231009D01*
X193595237Y-89231009D02*
X193690475Y-89183390D01*
X193690475Y-89183390D02*
X193738094Y-89135771D01*
X193738094Y-89135771D02*
X193785713Y-89040533D01*
X193785713Y-89040533D02*
X193785713Y-88945295D01*
X193785713Y-88945295D02*
X193738094Y-88850057D01*
X193738094Y-88850057D02*
X193690475Y-88802438D01*
X193690475Y-88802438D02*
X193595237Y-88754819D01*
X193595237Y-88754819D02*
X193357142Y-88754819D01*
X193357142Y-88754819D02*
X193214285Y-88802438D01*
X192595237Y-88754819D02*
X192404761Y-88754819D01*
X192404761Y-88754819D02*
X192309523Y-88802438D01*
X192309523Y-88802438D02*
X192214285Y-88897676D01*
X192214285Y-88897676D02*
X192166666Y-89088152D01*
X192166666Y-89088152D02*
X192166666Y-89421485D01*
X192166666Y-89421485D02*
X192214285Y-89611961D01*
X192214285Y-89611961D02*
X192309523Y-89707200D01*
X192309523Y-89707200D02*
X192404761Y-89754819D01*
X192404761Y-89754819D02*
X192595237Y-89754819D01*
X192595237Y-89754819D02*
X192690475Y-89707200D01*
X192690475Y-89707200D02*
X192785713Y-89611961D01*
X192785713Y-89611961D02*
X192833332Y-89421485D01*
X192833332Y-89421485D02*
X192833332Y-89088152D01*
X192833332Y-89088152D02*
X192785713Y-88897676D01*
X192785713Y-88897676D02*
X192690475Y-88802438D01*
X192690475Y-88802438D02*
X192595237Y-88754819D01*
X191261904Y-89754819D02*
X191738094Y-89754819D01*
X191738094Y-89754819D02*
X191738094Y-88754819D01*
X190928570Y-89231009D02*
X190595237Y-89231009D01*
X190452380Y-89754819D02*
X190928570Y-89754819D01*
X190928570Y-89754819D02*
X190928570Y-88754819D01*
X190928570Y-88754819D02*
X190452380Y-88754819D01*
X190023808Y-89754819D02*
X190023808Y-88754819D01*
X190023808Y-88754819D02*
X189452380Y-89754819D01*
X189452380Y-89754819D02*
X189452380Y-88754819D01*
X188785713Y-88754819D02*
X188595237Y-88754819D01*
X188595237Y-88754819D02*
X188499999Y-88802438D01*
X188499999Y-88802438D02*
X188404761Y-88897676D01*
X188404761Y-88897676D02*
X188357142Y-89088152D01*
X188357142Y-89088152D02*
X188357142Y-89421485D01*
X188357142Y-89421485D02*
X188404761Y-89611961D01*
X188404761Y-89611961D02*
X188499999Y-89707200D01*
X188499999Y-89707200D02*
X188595237Y-89754819D01*
X188595237Y-89754819D02*
X188785713Y-89754819D01*
X188785713Y-89754819D02*
X188880951Y-89707200D01*
X188880951Y-89707200D02*
X188976189Y-89611961D01*
X188976189Y-89611961D02*
X189023808Y-89421485D01*
X189023808Y-89421485D02*
X189023808Y-89088152D01*
X189023808Y-89088152D02*
X188976189Y-88897676D01*
X188976189Y-88897676D02*
X188880951Y-88802438D01*
X188880951Y-88802438D02*
X188785713Y-88754819D01*
X187928570Y-89754819D02*
X187928570Y-88754819D01*
X187452380Y-89754819D02*
X187452380Y-88754819D01*
X187452380Y-88754819D02*
X187214285Y-88754819D01*
X187214285Y-88754819D02*
X187071428Y-88802438D01*
X187071428Y-88802438D02*
X186976190Y-88897676D01*
X186976190Y-88897676D02*
X186928571Y-88992914D01*
X186928571Y-88992914D02*
X186880952Y-89183390D01*
X186880952Y-89183390D02*
X186880952Y-89326247D01*
X186880952Y-89326247D02*
X186928571Y-89516723D01*
X186928571Y-89516723D02*
X186976190Y-89611961D01*
X186976190Y-89611961D02*
X187071428Y-89707200D01*
X187071428Y-89707200D02*
X187214285Y-89754819D01*
X187214285Y-89754819D02*
X187452380Y-89754819D01*
X186499999Y-89707200D02*
X186357142Y-89754819D01*
X186357142Y-89754819D02*
X186119047Y-89754819D01*
X186119047Y-89754819D02*
X186023809Y-89707200D01*
X186023809Y-89707200D02*
X185976190Y-89659580D01*
X185976190Y-89659580D02*
X185928571Y-89564342D01*
X185928571Y-89564342D02*
X185928571Y-89469104D01*
X185928571Y-89469104D02*
X185976190Y-89373866D01*
X185976190Y-89373866D02*
X186023809Y-89326247D01*
X186023809Y-89326247D02*
X186119047Y-89278628D01*
X186119047Y-89278628D02*
X186309523Y-89231009D01*
X186309523Y-89231009D02*
X186404761Y-89183390D01*
X186404761Y-89183390D02*
X186452380Y-89135771D01*
X186452380Y-89135771D02*
X186499999Y-89040533D01*
X186499999Y-89040533D02*
X186499999Y-88945295D01*
X186499999Y-88945295D02*
X186452380Y-88850057D01*
X186452380Y-88850057D02*
X186404761Y-88802438D01*
X186404761Y-88802438D02*
X186309523Y-88754819D01*
X186309523Y-88754819D02*
X186071428Y-88754819D01*
X186071428Y-88754819D02*
X185928571Y-88802438D01*
X185738095Y-89850057D02*
X184976190Y-89850057D01*
X184738094Y-89754819D02*
X184738094Y-88754819D01*
X184738094Y-88754819D02*
X184499999Y-88754819D01*
X184499999Y-88754819D02*
X184357142Y-88802438D01*
X184357142Y-88802438D02*
X184261904Y-88897676D01*
X184261904Y-88897676D02*
X184214285Y-88992914D01*
X184214285Y-88992914D02*
X184166666Y-89183390D01*
X184166666Y-89183390D02*
X184166666Y-89326247D01*
X184166666Y-89326247D02*
X184214285Y-89516723D01*
X184214285Y-89516723D02*
X184261904Y-89611961D01*
X184261904Y-89611961D02*
X184357142Y-89707200D01*
X184357142Y-89707200D02*
X184499999Y-89754819D01*
X184499999Y-89754819D02*
X184738094Y-89754819D01*
X183785713Y-89707200D02*
X183642856Y-89754819D01*
X183642856Y-89754819D02*
X183404761Y-89754819D01*
X183404761Y-89754819D02*
X183309523Y-89707200D01*
X183309523Y-89707200D02*
X183261904Y-89659580D01*
X183261904Y-89659580D02*
X183214285Y-89564342D01*
X183214285Y-89564342D02*
X183214285Y-89469104D01*
X183214285Y-89469104D02*
X183261904Y-89373866D01*
X183261904Y-89373866D02*
X183309523Y-89326247D01*
X183309523Y-89326247D02*
X183404761Y-89278628D01*
X183404761Y-89278628D02*
X183595237Y-89231009D01*
X183595237Y-89231009D02*
X183690475Y-89183390D01*
X183690475Y-89183390D02*
X183738094Y-89135771D01*
X183738094Y-89135771D02*
X183785713Y-89040533D01*
X183785713Y-89040533D02*
X183785713Y-88945295D01*
X183785713Y-88945295D02*
X183738094Y-88850057D01*
X183738094Y-88850057D02*
X183690475Y-88802438D01*
X183690475Y-88802438D02*
X183595237Y-88754819D01*
X183595237Y-88754819D02*
X183357142Y-88754819D01*
X183357142Y-88754819D02*
X183214285Y-88802438D01*
X182785713Y-88754819D02*
X182785713Y-89564342D01*
X182785713Y-89564342D02*
X182738094Y-89659580D01*
X182738094Y-89659580D02*
X182690475Y-89707200D01*
X182690475Y-89707200D02*
X182595237Y-89754819D01*
X182595237Y-89754819D02*
X182404761Y-89754819D01*
X182404761Y-89754819D02*
X182309523Y-89707200D01*
X182309523Y-89707200D02*
X182261904Y-89659580D01*
X182261904Y-89659580D02*
X182214285Y-89564342D01*
X182214285Y-89564342D02*
X182214285Y-88754819D01*
X181404761Y-89231009D02*
X181261904Y-89278628D01*
X181261904Y-89278628D02*
X181214285Y-89326247D01*
X181214285Y-89326247D02*
X181166666Y-89421485D01*
X181166666Y-89421485D02*
X181166666Y-89564342D01*
X181166666Y-89564342D02*
X181214285Y-89659580D01*
X181214285Y-89659580D02*
X181261904Y-89707200D01*
X181261904Y-89707200D02*
X181357142Y-89754819D01*
X181357142Y-89754819D02*
X181738094Y-89754819D01*
X181738094Y-89754819D02*
X181738094Y-88754819D01*
X181738094Y-88754819D02*
X181404761Y-88754819D01*
X181404761Y-88754819D02*
X181309523Y-88802438D01*
X181309523Y-88802438D02*
X181261904Y-88850057D01*
X181261904Y-88850057D02*
X181214285Y-88945295D01*
X181214285Y-88945295D02*
X181214285Y-89040533D01*
X181214285Y-89040533D02*
X181261904Y-89135771D01*
X181261904Y-89135771D02*
X181309523Y-89183390D01*
X181309523Y-89183390D02*
X181404761Y-89231009D01*
X181404761Y-89231009D02*
X181738094Y-89231009D01*
X180214285Y-89754819D02*
X180785713Y-89754819D01*
X180499999Y-89754819D02*
X180499999Y-88754819D01*
X180499999Y-88754819D02*
X180595237Y-88897676D01*
X180595237Y-88897676D02*
X180690475Y-88992914D01*
X180690475Y-88992914D02*
X180785713Y-89040533D01*
X199854999Y-69294819D02*
X199854999Y-68294819D01*
X199854999Y-68294819D02*
X199474047Y-68294819D01*
X199474047Y-68294819D02*
X199378809Y-68342438D01*
X199378809Y-68342438D02*
X199331190Y-68390057D01*
X199331190Y-68390057D02*
X199283571Y-68485295D01*
X199283571Y-68485295D02*
X199283571Y-68628152D01*
X199283571Y-68628152D02*
X199331190Y-68723390D01*
X199331190Y-68723390D02*
X199378809Y-68771009D01*
X199378809Y-68771009D02*
X199474047Y-68818628D01*
X199474047Y-68818628D02*
X199854999Y-68818628D01*
X198997856Y-68294819D02*
X198426428Y-68294819D01*
X198712142Y-69294819D02*
X198712142Y-68294819D01*
X198331190Y-69390057D02*
X197569285Y-69390057D01*
X197331189Y-69294819D02*
X197331189Y-68294819D01*
X197331189Y-68294819D02*
X197093094Y-68294819D01*
X197093094Y-68294819D02*
X196950237Y-68342438D01*
X196950237Y-68342438D02*
X196854999Y-68437676D01*
X196854999Y-68437676D02*
X196807380Y-68532914D01*
X196807380Y-68532914D02*
X196759761Y-68723390D01*
X196759761Y-68723390D02*
X196759761Y-68866247D01*
X196759761Y-68866247D02*
X196807380Y-69056723D01*
X196807380Y-69056723D02*
X196854999Y-69151961D01*
X196854999Y-69151961D02*
X196950237Y-69247200D01*
X196950237Y-69247200D02*
X197093094Y-69294819D01*
X197093094Y-69294819D02*
X197331189Y-69294819D01*
X196378808Y-69247200D02*
X196235951Y-69294819D01*
X196235951Y-69294819D02*
X195997856Y-69294819D01*
X195997856Y-69294819D02*
X195902618Y-69247200D01*
X195902618Y-69247200D02*
X195854999Y-69199580D01*
X195854999Y-69199580D02*
X195807380Y-69104342D01*
X195807380Y-69104342D02*
X195807380Y-69009104D01*
X195807380Y-69009104D02*
X195854999Y-68913866D01*
X195854999Y-68913866D02*
X195902618Y-68866247D01*
X195902618Y-68866247D02*
X195997856Y-68818628D01*
X195997856Y-68818628D02*
X196188332Y-68771009D01*
X196188332Y-68771009D02*
X196283570Y-68723390D01*
X196283570Y-68723390D02*
X196331189Y-68675771D01*
X196331189Y-68675771D02*
X196378808Y-68580533D01*
X196378808Y-68580533D02*
X196378808Y-68485295D01*
X196378808Y-68485295D02*
X196331189Y-68390057D01*
X196331189Y-68390057D02*
X196283570Y-68342438D01*
X196283570Y-68342438D02*
X196188332Y-68294819D01*
X196188332Y-68294819D02*
X195950237Y-68294819D01*
X195950237Y-68294819D02*
X195807380Y-68342438D01*
X195378808Y-68294819D02*
X195378808Y-69104342D01*
X195378808Y-69104342D02*
X195331189Y-69199580D01*
X195331189Y-69199580D02*
X195283570Y-69247200D01*
X195283570Y-69247200D02*
X195188332Y-69294819D01*
X195188332Y-69294819D02*
X194997856Y-69294819D01*
X194997856Y-69294819D02*
X194902618Y-69247200D01*
X194902618Y-69247200D02*
X194854999Y-69199580D01*
X194854999Y-69199580D02*
X194807380Y-69104342D01*
X194807380Y-69104342D02*
X194807380Y-68294819D01*
X193997856Y-68771009D02*
X193854999Y-68818628D01*
X193854999Y-68818628D02*
X193807380Y-68866247D01*
X193807380Y-68866247D02*
X193759761Y-68961485D01*
X193759761Y-68961485D02*
X193759761Y-69104342D01*
X193759761Y-69104342D02*
X193807380Y-69199580D01*
X193807380Y-69199580D02*
X193854999Y-69247200D01*
X193854999Y-69247200D02*
X193950237Y-69294819D01*
X193950237Y-69294819D02*
X194331189Y-69294819D01*
X194331189Y-69294819D02*
X194331189Y-68294819D01*
X194331189Y-68294819D02*
X193997856Y-68294819D01*
X193997856Y-68294819D02*
X193902618Y-68342438D01*
X193902618Y-68342438D02*
X193854999Y-68390057D01*
X193854999Y-68390057D02*
X193807380Y-68485295D01*
X193807380Y-68485295D02*
X193807380Y-68580533D01*
X193807380Y-68580533D02*
X193854999Y-68675771D01*
X193854999Y-68675771D02*
X193902618Y-68723390D01*
X193902618Y-68723390D02*
X193997856Y-68771009D01*
X193997856Y-68771009D02*
X194331189Y-68771009D01*
X192807380Y-69294819D02*
X193378808Y-69294819D01*
X193093094Y-69294819D02*
X193093094Y-68294819D01*
X193093094Y-68294819D02*
X193188332Y-68437676D01*
X193188332Y-68437676D02*
X193283570Y-68532914D01*
X193283570Y-68532914D02*
X193378808Y-68580533D01*
D11*
%TO.C,4TC_DSUB1*%
X158625000Y-140270000D02*
X158625000Y-129770000D01*
X157565000Y-128710000D02*
X128715000Y-128710000D01*
X151006470Y-132958256D02*
X150177733Y-137658256D01*
X149371689Y-131010000D02*
X136908311Y-131010000D01*
X148542952Y-139030000D02*
X137737048Y-139030000D01*
X137850000Y-127815662D02*
X137350000Y-127815662D01*
X137600000Y-128248675D02*
X137850000Y-127815662D01*
X137350000Y-127815662D02*
X137600000Y-128248675D01*
X135273530Y-132958256D02*
X136102267Y-137658256D01*
X128715000Y-141330000D02*
X157565000Y-141330000D01*
X127655000Y-129770000D02*
X127655000Y-140270000D01*
X157565000Y-141330000D02*
G75*
G03*
X158625000Y-140270000I-1J1060001D01*
G01*
X158625000Y-129770000D02*
G75*
G03*
X157565000Y-128710000I-1060001J-1D01*
G01*
X148542952Y-139029999D02*
G75*
G03*
X150177732Y-137658256I-2J1660002D01*
G01*
X151006470Y-132958256D02*
G75*
G03*
X149371689Y-131010000I-1634780J288257D01*
G01*
X136102267Y-137658256D02*
G75*
G03*
X137737048Y-139030000I1634780J288255D01*
G01*
X136908311Y-131010001D02*
G75*
G03*
X135273530Y-132958256I-1J-1659999D01*
G01*
X127655000Y-140270000D02*
G75*
G03*
X128715000Y-141330000I1060000J0D01*
G01*
X128715000Y-128710000D02*
G75*
G03*
X127655000Y-129770000I0J-1060000D01*
G01*
%TO.C,GND_DSUB1*%
X176190000Y-120950000D02*
X176190000Y-131450000D01*
X177250000Y-132510000D02*
X214450000Y-132510000D01*
X183833530Y-128261744D02*
X184662267Y-123561744D01*
X185468311Y-130210000D02*
X206231689Y-130210000D01*
X186297048Y-122190000D02*
X205402952Y-122190000D01*
X205295000Y-133404338D02*
X205795000Y-133404338D01*
X205545000Y-132971325D02*
X205295000Y-133404338D01*
X205795000Y-133404338D02*
X205545000Y-132971325D01*
X207866470Y-128261744D02*
X207037733Y-123561744D01*
X214450000Y-119890000D02*
X177250000Y-119890000D01*
X215510000Y-131450000D02*
X215510000Y-120950000D01*
X177250000Y-119890000D02*
G75*
G03*
X176190000Y-120950000I1J-1060001D01*
G01*
X176190000Y-131450000D02*
G75*
G03*
X177250000Y-132510000I1060001J1D01*
G01*
X186297048Y-122190001D02*
G75*
G03*
X184662268Y-123561744I2J-1660002D01*
G01*
X183833530Y-128261744D02*
G75*
G03*
X185468311Y-130210000I1634780J-288257D01*
G01*
X207037733Y-123561744D02*
G75*
G03*
X205402952Y-122190000I-1634780J-288255D01*
G01*
X206231689Y-130209999D02*
G75*
G03*
X207866470Y-128261744I1J1659999D01*
G01*
X215510000Y-120950000D02*
G75*
G03*
X214450000Y-119890000I-1060000J0D01*
G01*
X214450000Y-132510000D02*
G75*
G03*
X215510000Y-131450000I0J1060000D01*
G01*
%TO.C,SOLENOIDS_DSUB1*%
X192685000Y-104650000D02*
X192685000Y-94150000D01*
X191625000Y-93090000D02*
X162775000Y-93090000D01*
X185066470Y-97338256D02*
X184237733Y-102038256D01*
X183431689Y-95390000D02*
X170968311Y-95390000D01*
X182602952Y-103410000D02*
X171797048Y-103410000D01*
X171910000Y-92195662D02*
X171410000Y-92195662D01*
X171660000Y-92628675D02*
X171910000Y-92195662D01*
X171410000Y-92195662D02*
X171660000Y-92628675D01*
X169333530Y-97338256D02*
X170162267Y-102038256D01*
X162775000Y-105710000D02*
X191625000Y-105710000D01*
X161715000Y-94150000D02*
X161715000Y-104650000D01*
X191625000Y-105710000D02*
G75*
G03*
X192685000Y-104650000I-1J1060001D01*
G01*
X192685000Y-94150000D02*
G75*
G03*
X191625000Y-93090000I-1060001J-1D01*
G01*
X182602952Y-103409999D02*
G75*
G03*
X184237732Y-102038256I-2J1660002D01*
G01*
X185066470Y-97338256D02*
G75*
G03*
X183431689Y-95390000I-1634780J288257D01*
G01*
X170162267Y-102038256D02*
G75*
G03*
X171797048Y-103410000I1634780J288255D01*
G01*
X170968311Y-95390001D02*
G75*
G03*
X169333530Y-97338256I-1J-1659999D01*
G01*
X161715000Y-104650000D02*
G75*
G03*
X162775000Y-105710000I1060000J0D01*
G01*
X162775000Y-93090000D02*
G75*
G03*
X161715000Y-94150000I0J-1060000D01*
G01*
%TO.C,PT_DSUB1*%
X147525000Y-74470000D02*
X147525000Y-84970000D01*
X148585000Y-86030000D02*
X199685000Y-86030000D01*
X155268530Y-81981744D02*
X156167798Y-76881744D01*
X156903311Y-83930000D02*
X191366689Y-83930000D01*
X157265000Y-86924338D02*
X157765000Y-86924338D01*
X157515000Y-86491325D02*
X157265000Y-86924338D01*
X157765000Y-86924338D02*
X157515000Y-86491325D01*
X157802579Y-75510000D02*
X190467421Y-75510000D01*
X193001470Y-81981744D02*
X192102202Y-76881744D01*
X199685000Y-73410000D02*
X148585000Y-73410000D01*
X200745000Y-84970000D02*
X200745000Y-74470000D01*
X148585000Y-73410000D02*
G75*
G03*
X147525000Y-74470000I1J-1060001D01*
G01*
X147525000Y-84970000D02*
G75*
G03*
X148585000Y-86030000I1060001J1D01*
G01*
X157802579Y-75510001D02*
G75*
G03*
X156167799Y-76881744I-1J-1659998D01*
G01*
X155268530Y-81981744D02*
G75*
G03*
X156903311Y-83930000I1634780J-288257D01*
G01*
X192102182Y-76881748D02*
G75*
G03*
X190467421Y-75510000I-1634782J-288252D01*
G01*
X191366689Y-83929989D02*
G75*
G03*
X193001470Y-81981744I11J1659989D01*
G01*
X200745000Y-74470000D02*
G75*
G03*
X199685000Y-73410000I-1060000J0D01*
G01*
X199685000Y-86030000D02*
G75*
G03*
X200745000Y-84970000I0J1060000D01*
G01*
%TD*%
M02*
