%TF.GenerationSoftware,KiCad,Pcbnew,7.0.7*%
%TF.CreationDate,2023-09-27T20:46:26-07:00*%
%TF.ProjectId,TC-board,54432d62-6f61-4726-942e-6b696361645f,rev?*%
%TF.SameCoordinates,Original*%
%TF.FileFunction,Soldermask,Bot*%
%TF.FilePolarity,Negative*%
%FSLAX46Y46*%
G04 Gerber Fmt 4.6, Leading zero omitted, Abs format (unit mm)*
G04 Created by KiCad (PCBNEW 7.0.7) date 2023-09-27 20:46:26*
%MOMM*%
%LPD*%
G01*
G04 APERTURE LIST*
%ADD10R,0.700000X3.200000*%
%ADD11R,0.700000X4.300000*%
%ADD12C,4.000000*%
%ADD13R,1.600000X1.600000*%
%ADD14C,1.600000*%
%ADD15C,1.524000*%
%ADD16R,1.778000X1.778000*%
%ADD17C,1.778000*%
%ADD18R,1.000000X1.000000*%
%ADD19O,1.000000X1.000000*%
G04 APERTURE END LIST*
D10*
%TO.C,J2*%
X145034000Y-106130000D03*
D11*
X146034000Y-106680000D03*
X147034000Y-106680000D03*
X148034000Y-106680000D03*
X149034000Y-106680000D03*
X150034000Y-106680000D03*
X151034000Y-106680000D03*
X152034000Y-106680000D03*
X153034000Y-106680000D03*
X154034000Y-106680000D03*
X155034000Y-106680000D03*
X158034000Y-106680000D03*
X159034000Y-106680000D03*
X160034000Y-106680000D03*
X161034000Y-106680000D03*
X162034000Y-106680000D03*
X163034000Y-106680000D03*
X164034000Y-106680000D03*
%TD*%
D12*
%TO.C,J1*%
X139098000Y-47666331D03*
X105798000Y-47666331D03*
D13*
X112753000Y-49086331D03*
D14*
X115523000Y-49086331D03*
X118293000Y-49086331D03*
X121063000Y-49086331D03*
X123833000Y-49086331D03*
X126603000Y-49086331D03*
X129373000Y-49086331D03*
X132143000Y-49086331D03*
X114138000Y-46246331D03*
X116908000Y-46246331D03*
X119678000Y-46246331D03*
X122448000Y-46246331D03*
X125218000Y-46246331D03*
X127988000Y-46246331D03*
X130758000Y-46246331D03*
%TD*%
D15*
%TO.C,A2*%
X132587000Y-65532000D03*
D16*
X149607260Y-65023460D03*
D17*
X149607260Y-68579460D03*
D15*
X132587000Y-60452000D03*
X132587000Y-73152000D03*
X132587000Y-70612000D03*
X132587000Y-68072000D03*
X132587000Y-62992000D03*
%TD*%
D18*
%TO.C,J3*%
X113660000Y-53848000D03*
D19*
X114930000Y-53848000D03*
X116200000Y-53848000D03*
X117470000Y-53848000D03*
X118740000Y-53848000D03*
X120010000Y-53848000D03*
X121280000Y-53848000D03*
X122550000Y-53848000D03*
%TD*%
D18*
%TO.C,J4*%
X158130000Y-91900000D03*
D19*
X159400000Y-91900000D03*
%TD*%
D15*
%TO.C,A1*%
X106933000Y-65786000D03*
D16*
X123953260Y-65277460D03*
D17*
X123953260Y-68833460D03*
D15*
X106933000Y-60706000D03*
X106933000Y-73406000D03*
X106933000Y-70866000D03*
X106933000Y-68326000D03*
X106933000Y-63246000D03*
%TD*%
%TO.C,A3*%
X106679000Y-87884000D03*
D16*
X123699260Y-87375460D03*
D17*
X123699260Y-90931460D03*
D15*
X106679000Y-82804000D03*
X106679000Y-95504000D03*
X106679000Y-92964000D03*
X106679000Y-90424000D03*
X106679000Y-85344000D03*
%TD*%
D18*
%TO.C,J5*%
X158150000Y-85900000D03*
D19*
X159420000Y-85900000D03*
%TD*%
D15*
%TO.C,A4*%
X132333000Y-88138000D03*
D16*
X149353260Y-87629460D03*
D17*
X149353260Y-91185460D03*
D15*
X132333000Y-83058000D03*
X132333000Y-95758000D03*
X132333000Y-93218000D03*
X132333000Y-90678000D03*
X132333000Y-85598000D03*
%TD*%
M02*
