M48
; DRILL file {KiCad 7.0.7} date 2024 February 25, Sunday 16:10:32
; FORMAT={-:-/ absolute / inch / decimal}
; #@! TF.CreationDate,2024-02-25T16:10:32-08:00
; #@! TF.GenerationSoftware,Kicad,Pcbnew,7.0.7
; #@! TF.FileFunction,Plated,1,4,PTH
FMAT,2
INCH
; #@! TA.AperFunction,Plated,PTH,ViaDrill
T1C0.0120
; #@! TA.AperFunction,Plated,PTH,ComponentDrill
T2C0.0360
; #@! TA.AperFunction,Plated,PTH,ComponentDrill
T3C0.0394
; #@! TA.AperFunction,Plated,PTH,ComponentDrill
T4C0.1260
%
G90
G05
T1
X4.5321Y-4.2489
X4.6856Y-4.0279
X4.9094Y-5.0827
X4.9321Y-4.2489
X5.0157Y-4.6378
X5.0394Y-4.7244
X5.0856Y-4.0279
X5.3321Y-4.2489
X5.4856Y-4.0279
X5.6339Y-4.9528
X5.6484Y-4.0947
X5.6976Y-4.2833
X5.6984Y-4.6197
X5.7Y-2.7
X5.8261Y-4.0069
X5.9734Y-4.5947
X6.3Y-2.0
X6.5287Y-2.9701
X6.748Y-2.9685
X6.9724Y-5.4843
X6.9815Y-2.9697
X7.1024Y-4.5768
X7.1142Y-4.4193
X7.1457Y-2.0984
X7.1535Y-5.1772
X7.2953Y-2.8268
X7.4134Y-4.2205
X7.4252Y-3.0079
X7.5197Y-4.8307
X7.6378Y-2.8504
X7.6969Y-5.7795
X7.7126Y-4.6535
X7.8268Y-4.6614
X7.874Y-5.1142
X7.9055Y-5.8425
X7.9134Y-5.6614
X7.9331Y-4.6693
X7.9803Y-5.1181
X8.0512Y-4.6811
T2
X6.0846Y-2.2008
X6.0846Y-2.2795
X6.1452Y-6.1878
X6.1452Y-6.2665
X6.1634Y-2.2008
X6.1634Y-2.2795
X6.2239Y-6.1878
X6.2239Y-6.2665
X6.2421Y-2.2008
X6.2421Y-2.2795
X6.3026Y-6.1878
X6.3026Y-6.2665
X6.3209Y-2.2008
X6.3209Y-2.2795
X6.3814Y-6.1878
X6.3814Y-6.2665
X6.3996Y-2.2008
X6.3996Y-2.2795
X6.4601Y-6.1878
X6.4601Y-6.2665
X6.4783Y-2.2008
X6.4783Y-2.2795
X6.5389Y-6.1878
X6.5389Y-6.2665
X6.5571Y-2.2008
X6.5571Y-2.2795
X6.6176Y-6.1878
X6.6176Y-6.2665
X6.6358Y-2.2008
X6.6358Y-2.2795
X6.6963Y-6.1878
X6.6963Y-6.2665
X6.7146Y-2.2008
X6.7146Y-2.2795
X6.7751Y-6.1878
X6.7751Y-6.2665
X6.7933Y-2.2008
X6.7933Y-2.2795
X6.8538Y-6.1878
X6.8538Y-6.2665
X6.872Y-2.2008
X6.872Y-2.2795
X6.9326Y-6.1878
X6.9326Y-6.2665
X6.9508Y-2.2008
X6.9508Y-2.2795
X7.0113Y-6.1878
X7.0113Y-6.2665
X7.0295Y-2.2008
X7.0295Y-2.2795
X7.09Y-6.1878
X7.09Y-6.2665
X7.1083Y-2.2008
X7.1083Y-2.2795
X7.1688Y-6.1878
X7.1688Y-6.2665
X7.187Y-2.2008
X7.187Y-2.2795
X7.2475Y-6.1878
X7.2475Y-6.2665
X7.2657Y-2.2008
X7.2657Y-2.2795
X7.3263Y-6.1878
X7.3263Y-6.2665
X7.3445Y-2.2008
X7.3445Y-2.2795
X7.405Y-6.1878
X7.405Y-6.2665
X7.4232Y-2.2008
X7.4232Y-2.2795
X7.4837Y-6.1878
X7.4837Y-6.2665
X7.502Y-2.2008
X7.502Y-2.2795
X7.5625Y-6.1878
X7.5625Y-6.2665
X7.5807Y-2.2008
X7.5807Y-2.2795
X7.6412Y-6.1878
X7.6412Y-6.2665
T3
X5.4173Y-5.2598
X5.4719Y-5.3717
X5.5264Y-5.2598
X5.5809Y-5.3717
X5.6354Y-5.2598
X5.69Y-5.3717
X5.7445Y-5.2598
X5.799Y-5.3717
X5.8535Y-5.2598
X6.2014Y-3.1945
X6.2559Y-3.0827
X6.3104Y-3.1945
X6.365Y-3.0827
X6.4195Y-3.1945
X6.474Y-3.0827
X6.5285Y-3.1945
X6.5831Y-3.0827
X6.6376Y-3.1945
X6.6921Y-3.0827
X6.7467Y-3.1945
X6.7583Y-3.8575
X6.8012Y-3.0827
X6.8128Y-3.9693
X6.8557Y-3.1945
X6.8673Y-3.8575
X6.9102Y-3.0827
X6.9219Y-3.9693
X6.9648Y-3.1945
X6.9764Y-3.8575
X7.0193Y-3.0827
X7.0309Y-3.9693
X7.0738Y-3.1945
X7.0854Y-3.8575
X7.1283Y-3.0827
X7.14Y-3.9693
X7.1829Y-3.1945
X7.1945Y-3.8575
X7.2374Y-3.0827
X7.2919Y-3.1945
X7.3289Y-5.0244
X7.3465Y-3.0827
X7.3835Y-4.9126
X7.401Y-3.1945
X7.438Y-5.0244
X7.4555Y-3.0827
X7.4925Y-4.9126
X7.51Y-3.1945
X7.547Y-5.0244
X7.6016Y-4.9126
X7.6561Y-5.0244
X7.7106Y-4.9126
X7.7652Y-5.0244
X7.8197Y-4.9126
X7.8742Y-5.0244
X7.9287Y-4.9126
X7.9833Y-5.0244
X8.0378Y-4.9126
X8.0923Y-5.0244
T4
X5.1433Y-5.3157
X5.9285Y-3.1386
X6.1276Y-5.3157
X6.4843Y-3.9134
X7.0551Y-4.9685
X7.4685Y-3.9134
X7.7829Y-3.1386
X8.3661Y-4.9685
T0
M30
